<svg xmlns="http://www.w3.org/2000/svg" xmlns:xlink="http://www.w3.org/1999/xlink" width="1200" zoomAndPan="magnify" viewBox="0 0 900 119.999999" height="160" preserveAspectRatio="xMidYMid meet" version="1.0"><defs><g/></defs><g fill="#58675e" fill-opacity="1"><g transform="translate(9.04688, 100.867946)"><g><path d="M -3.113281 -24.273438 C -2.476562 -27.460938 -1.644531 -31.019531 -0.613281 -34.953125 C 0.410156 -38.871094 1.566406 -42.890625 2.855469 -47.011719 C 4.132812 -51.113281 5.441406 -55.085938 6.773438 -58.929688 C 8.113281 -62.796875 9.433594 -66.335938 10.722656 -69.554688 C 12.042969 -72.832031 13.222656 -75.488281 14.265625 -77.519531 L 15.070312 -79.085938 L 16.734375 -79.65625 C 19.023438 -80.4375 21.726562 -81.15625 24.847656 -81.8125 C 28.054688 -82.488281 31.449219 -82.867188 35.027344 -82.953125 C 38.777344 -83.039062 42.492188 -82.558594 46.175781 -81.507812 C 50.050781 -80.398438 53.601562 -78.445312 56.832031 -75.644531 C 60.09375 -72.8125 62.734375 -68.929688 64.753906 -64 C 65.621094 -61.832031 66.609375 -59.097656 67.722656 -55.789062 C 68.820312 -52.515625 69.972656 -48.890625 71.175781 -44.921875 C 72.375 -40.953125 73.546875 -36.871094 74.695312 -32.671875 C 75.84375 -28.46875 76.902344 -24.371094 77.867188 -20.371094 C 78.847656 -16.328125 79.628906 -12.628906 80.214844 -9.28125 L 80.320312 -8.667969 L 80.25 -8.046875 C 79.988281 -5.6875 78.878906 -3.464844 76.917969 -1.386719 C 75.257812 0.375 73.1875 1.851562 70.710938 3.039062 C 68.304688 4.195312 65.722656 4.960938 62.96875 5.332031 C 60.050781 5.722656 57.15625 5.496094 54.285156 4.648438 C 51.25 3.75 48.546875 2.03125 46.167969 -0.511719 C 43.863281 -2.980469 42.097656 -6.300781 40.867188 -10.476562 L 45.054688 -11.710938 L 44.867188 -7.351562 C 42.527344 -7.449219 40.085938 -7.476562 37.539062 -7.425781 C 34.84375 -7.371094 32.226562 -7.371094 29.6875 -7.425781 L 29.777344 -11.785156 L 33.800781 -10.101562 C 33.183594 -8.625 32.597656 -7 32.042969 -5.21875 C 31.460938 -3.34375 30.890625 -1.414062 30.332031 0.5625 L 29.726562 2.703125 L 27.644531 3.472656 C 22.203125 5.480469 17.363281 6.191406 13.121094 5.597656 C 8.613281 4.96875 4.9375 3.183594 2.09375 0.238281 C -0.644531 -2.601562 -2.449219 -6.230469 -3.3125 -10.640625 C -4.117188 -14.753906 -4.054688 -19.28125 -3.125 -24.226562 Z M 5.449219 -22.613281 C 4.726562 -18.765625 4.660156 -15.332031 5.25 -12.3125 C 5.78125 -9.589844 6.824219 -7.425781 8.371094 -5.820312 C 9.820312 -4.320312 11.808594 -3.394531 14.328125 -3.039062 C 17.121094 -2.652344 20.550781 -3.207031 24.621094 -4.710938 L 26.132812 -0.621094 L 21.933594 -1.804688 C 22.511719 -3.859375 23.105469 -5.859375 23.710938 -7.808594 C 24.347656 -9.855469 25.027344 -11.742188 25.753906 -13.472656 L 26.902344 -16.210938 L 29.867188 -16.148438 C 32.289062 -16.097656 34.789062 -16.097656 37.367188 -16.148438 C 40.09375 -16.203125 42.71875 -16.175781 45.238281 -16.066406 L 48.359375 -15.933594 L 49.238281 -12.941406 C 50.078125 -10.085938 51.179688 -7.929688 52.542969 -6.46875 C 53.839844 -5.082031 55.242188 -4.164062 56.757812 -3.71875 C 58.4375 -3.222656 60.117188 -3.085938 61.800781 -3.316406 C 63.648438 -3.5625 65.355469 -4.066406 66.933594 -4.824219 C 68.4375 -5.546875 69.648438 -6.398438 70.574219 -7.375 C 71.195312 -8.035156 71.535156 -8.582031 71.582031 -9.011719 L 75.917969 -8.53125 L 71.621094 -7.78125 C 71.066406 -10.945312 70.324219 -14.457031 69.390625 -18.320312 C 68.441406 -22.234375 67.40625 -26.25 66.28125 -30.371094 C 65.152344 -34.496094 64 -38.503906 62.824219 -42.394531 C 61.648438 -46.28125 60.523438 -49.820312 59.453125 -53.007812 C 58.390625 -56.160156 57.46875 -58.722656 56.679688 -60.691406 C 55.1875 -64.34375 53.328125 -67.128906 51.113281 -69.054688 C 48.859375 -71.011719 46.414062 -72.363281 43.777344 -73.117188 C 40.945312 -73.925781 38.097656 -74.296875 35.230469 -74.230469 C 32.191406 -74.160156 29.328125 -73.839844 26.644531 -73.277344 C 23.871094 -72.691406 21.507812 -72.066406 19.554688 -71.402344 L 18.144531 -75.527344 L 22.027344 -73.535156 C 21.105469 -71.742188 20.035156 -69.332031 18.820312 -66.304688 C 17.578125 -63.214844 16.3125 -59.804688 15.015625 -56.070312 C 13.710938 -52.3125 12.433594 -48.429688 11.183594 -44.414062 C 9.933594 -40.417969 8.816406 -36.53125 7.824219 -32.742188 C 6.839844 -28.976562 6.042969 -25.582031 5.441406 -22.5625 Z M 32.800781 -38.328125 L 42.339844 -38.328125 L 42.339844 -33.964844 L 38.089844 -32.988281 C 37.371094 -36.113281 36.628906 -39.195312 35.859375 -42.242188 C 35.078125 -45.34375 34.324219 -48.457031 33.59375 -51.585938 L 37.84375 -52.574219 L 39.222656 -48.4375 C 38.617188 -48.238281 37.925781 -48.136719 37.144531 -48.136719 L 37.144531 -52.496094 L 41.402344 -51.558594 C 40.722656 -48.476562 40.003906 -45.390625 39.246094 -42.304688 C 38.503906 -39.28125 37.773438 -36.183594 37.054688 -33.003906 L 32.800781 -33.964844 Z M 32.800781 -29.601562 L 27.34375 -29.601562 L 28.546875 -34.925781 C 29.277344 -38.15625 30.019531 -41.3125 30.777344 -44.390625 C 31.515625 -47.40625 32.21875 -50.421875 32.882812 -53.4375 L 33.636719 -56.859375 L 37.144531 -56.859375 C 36.980469 -56.859375 36.753906 -56.8125 36.460938 -56.714844 L 41.003906 -58.226562 L 42.089844 -53.566406 C 42.808594 -50.488281 43.550781 -47.425781 44.320312 -44.375 C 45.101562 -41.269531 45.859375 -38.125 46.589844 -34.941406 L 47.816406 -29.601562 Z M 32.800781 -29.601562 "/></g></g></g><g fill="#58675e" fill-opacity="1"><g transform="translate(86.043183, 100.867946)"><g><path d="M 58.902344 -47.367188 C 63.441406 -44.558594 66.839844 -41.242188 69.089844 -37.417969 C 71.34375 -33.589844 72.566406 -29.582031 72.753906 -25.398438 C 72.933594 -21.34375 72.328125 -17.441406 70.933594 -13.683594 C 69.546875 -9.941406 67.535156 -6.636719 64.902344 -3.761719 C 62.214844 -0.828125 59.125 1.359375 55.628906 2.792969 C 53.273438 3.734375 50.460938 4.515625 47.183594 5.136719 C 43.96875 5.75 40.496094 6.121094 36.761719 6.257812 C 33 6.398438 29.148438 6.203125 25.210938 5.679688 C 21.183594 5.144531 17.296875 4.175781 13.546875 2.765625 C 9.664062 1.304688 6.144531 -0.710938 2.984375 -3.289062 L 2.605469 -3.59375 L 2.304688 -3.976562 C 0.3125 -6.519531 -0.878906 -9.300781 -1.265625 -12.320312 C -1.636719 -15.230469 -1.34375 -18.03125 -0.390625 -20.726562 C 0.570312 -23.441406 2.074219 -25.75 4.121094 -27.65625 C 6.296875 -29.683594 8.882812 -30.933594 11.878906 -31.410156 C 14.90625 -31.890625 18.101562 -31.308594 21.460938 -29.664062 C 24.792969 -28.019531 27.902344 -26.910156 30.78125 -26.339844 C 33.433594 -25.8125 35.542969 -25.730469 37.113281 -26.082031 C 37.554688 -26.183594 37.839844 -26.285156 37.96875 -26.386719 C 37.855469 -26.296875 37.777344 -26.175781 37.738281 -26.015625 C 37.753906 -26.074219 37.761719 -26.109375 37.761719 -26.125 C 37.757812 -26.070312 37.769531 -26.003906 37.789062 -25.925781 C 37.828125 -25.769531 37.878906 -25.664062 37.933594 -25.609375 C 37.953125 -25.59375 37.964844 -25.585938 37.96875 -25.578125 C 37.953125 -25.59375 37.925781 -25.605469 37.894531 -25.625 C 37.753906 -25.699219 37.570312 -25.773438 37.339844 -25.84375 C 36.664062 -26.054688 35.773438 -26.199219 34.660156 -26.28125 C 31.222656 -26.5625 27.804688 -27.148438 24.40625 -28.039062 C 20.875 -28.964844 17.574219 -30.3125 14.496094 -32.082031 C 11.226562 -33.964844 8.46875 -36.429688 6.222656 -39.480469 C 3.925781 -42.59375 2.410156 -46.300781 1.671875 -50.597656 C 1.402344 -52.289062 1.375 -54.261719 1.589844 -56.519531 C 1.804688 -58.761719 2.347656 -61.113281 3.214844 -63.566406 C 4.109375 -66.09375 5.449219 -68.566406 7.230469 -70.984375 C 9.054688 -73.457031 11.441406 -75.6875 14.390625 -77.671875 C 17.332031 -79.652344 20.898438 -81.199219 25.097656 -82.304688 C 27.9375 -83.101562 30.957031 -83.597656 34.15625 -83.796875 C 37.273438 -83.992188 40.378906 -83.953125 43.46875 -83.671875 C 46.617188 -83.390625 49.570312 -82.84375 52.324219 -82.042969 C 55.222656 -81.195312 57.679688 -80.113281 59.699219 -78.789062 C 62.96875 -76.585938 65.367188 -74.175781 66.890625 -71.558594 C 68.484375 -68.820312 69.265625 -66.054688 69.226562 -63.257812 C 69.191406 -60.558594 68.542969 -58.027344 67.273438 -55.667969 C 66.066406 -53.421875 64.488281 -51.507812 62.535156 -49.921875 C 60.507812 -48.28125 58.265625 -47.179688 55.796875 -46.617188 L 53.15625 -46.011719 L 51.441406 -48.113281 C 50.695312 -49.03125 49.601562 -49.855469 48.160156 -50.585938 C 46.480469 -51.4375 44.660156 -52.09375 42.695312 -52.554688 C 40.742188 -53.015625 38.910156 -53.238281 37.199219 -53.214844 C 35.785156 -53.199219 34.714844 -53.011719 33.984375 -52.652344 C 33.960938 -52.640625 33.945312 -52.632812 33.929688 -52.625 C 33.9375 -52.628906 33.945312 -52.632812 33.960938 -52.644531 C 34.027344 -52.699219 34.09375 -52.773438 34.15625 -52.863281 C 34.292969 -53.0625 34.363281 -53.246094 34.367188 -53.414062 L 30.011719 -53.582031 L 34.371094 -53.582031 C 34.371094 -53.890625 34.292969 -54.191406 34.136719 -54.488281 C 34.015625 -54.722656 33.871094 -54.898438 33.710938 -55.019531 C 33.640625 -55.070312 33.59375 -55.105469 33.566406 -55.117188 C 33.640625 -55.082031 33.75 -55.042969 33.890625 -55 C 34.34375 -54.867188 34.945312 -54.75 35.695312 -54.652344 C 41.730469 -53.882812 46.726562 -52.722656 50.679688 -51.167969 C 54.554688 -49.648438 57.304688 -48.375 58.933594 -47.347656 Z M 54.285156 -39.964844 C 53.121094 -40.699219 50.855469 -41.726562 47.492188 -43.046875 C 44.210938 -44.339844 39.898438 -45.324219 34.558594 -46.003906 C 31.839844 -46.359375 29.8125 -47.039062 28.476562 -48.039062 C 27.59375 -48.703125 26.910156 -49.492188 26.425781 -50.410156 C 25.90625 -51.390625 25.648438 -52.449219 25.648438 -53.582031 L 25.648438 -53.667969 L 25.652344 -53.75 C 25.710938 -55.265625 26.148438 -56.617188 26.96875 -57.8125 C 27.742188 -58.9375 28.800781 -59.828125 30.144531 -60.484375 C 32.050781 -61.421875 34.367188 -61.90625 37.089844 -61.9375 C 39.515625 -61.96875 42.050781 -61.671875 44.699219 -61.046875 C 47.335938 -60.425781 49.804688 -59.53125 52.105469 -58.367188 C 54.644531 -57.078125 56.679688 -55.5 58.207031 -53.625 L 54.824219 -50.871094 L 53.851562 -55.121094 C 55.003906 -55.386719 56.066406 -55.910156 57.039062 -56.703125 C 58.085938 -57.546875 58.933594 -58.578125 59.589844 -59.796875 C 60.183594 -60.902344 60.488281 -62.09375 60.503906 -63.371094 C 60.519531 -64.558594 60.136719 -65.824219 59.351562 -67.167969 C 58.5 -68.632812 57.019531 -70.078125 54.914062 -71.496094 C 53.621094 -72.339844 51.945312 -73.066406 49.878906 -73.667969 C 47.671875 -74.3125 45.273438 -74.75 42.683594 -74.984375 C 40.035156 -75.222656 37.375 -75.257812 34.703125 -75.089844 C 32.113281 -74.929688 29.652344 -74.523438 27.324219 -73.871094 C 24.074219 -73.011719 21.390625 -71.867188 19.265625 -70.4375 C 17.148438 -69.011719 15.476562 -67.46875 14.25 -65.804688 C 12.980469 -64.085938 12.046875 -62.371094 11.441406 -60.660156 C 10.808594 -58.875 10.421875 -57.21875 10.273438 -55.6875 C 10.128906 -54.171875 10.128906 -52.964844 10.269531 -52.070312 C 10.773438 -49.132812 11.765625 -46.660156 13.242188 -44.65625 C 14.769531 -42.589844 16.636719 -40.917969 18.847656 -39.644531 C 21.25 -38.261719 23.839844 -37.207031 26.617188 -36.476562 C 29.527344 -35.714844 32.414062 -35.214844 35.285156 -34.980469 C 39.21875 -34.699219 42.109375 -33.683594 43.953125 -31.929688 C 45.09375 -30.839844 45.855469 -29.570312 46.230469 -28.121094 C 46.59375 -26.734375 46.570312 -25.285156 46.167969 -23.769531 C 45.710938 -22.058594 44.78125 -20.648438 43.375 -19.539062 C 42.210938 -18.621094 40.765625 -17.964844 39.035156 -17.574219 C 36.261719 -16.945312 32.945312 -17.015625 29.082031 -17.78125 C 25.449219 -18.503906 21.628906 -19.851562 17.621094 -21.828125 C 15.914062 -22.664062 14.457031 -22.984375 13.246094 -22.792969 C 12.003906 -22.597656 10.945312 -22.089844 10.070312 -21.273438 C 9.066406 -20.339844 8.320312 -19.183594 7.832031 -17.8125 C 7.339844 -16.421875 7.195312 -14.960938 7.390625 -13.425781 C 7.574219 -11.996094 8.167969 -10.640625 9.171875 -9.359375 L 5.738281 -6.667969 L 8.492188 -10.050781 C 10.917969 -8.074219 13.625 -6.527344 16.617188 -5.402344 C 19.746094 -4.226562 22.992188 -3.414062 26.359375 -2.96875 C 29.8125 -2.507812 33.171875 -2.339844 36.441406 -2.460938 C 39.738281 -2.582031 42.777344 -2.90625 45.558594 -3.433594 C 48.28125 -3.949219 50.53125 -4.5625 52.3125 -5.277344 C 54.609375 -6.21875 56.660156 -7.675781 58.46875 -9.652344 C 60.335938 -11.691406 61.761719 -14.042969 62.753906 -16.714844 C 63.738281 -19.367188 64.164062 -22.132812 64.035156 -25.007812 C 63.914062 -27.75 63.09375 -30.410156 61.574219 -32.992188 C 60.050781 -35.578125 57.632812 -37.894531 54.3125 -39.949219 Z M 54.285156 -39.964844 "/></g></g></g><g fill="#58675e" fill-opacity="1"><g transform="translate(159.085004, 100.867946)"><g><path d="M 58.902344 -47.367188 C 63.441406 -44.558594 66.839844 -41.242188 69.089844 -37.417969 C 71.34375 -33.589844 72.566406 -29.582031 72.753906 -25.398438 C 72.933594 -21.34375 72.328125 -17.441406 70.933594 -13.683594 C 69.546875 -9.941406 67.535156 -6.636719 64.902344 -3.761719 C 62.214844 -0.828125 59.125 1.359375 55.628906 2.792969 C 53.273438 3.734375 50.460938 4.515625 47.183594 5.136719 C 43.96875 5.75 40.496094 6.121094 36.761719 6.257812 C 33 6.398438 29.148438 6.203125 25.210938 5.679688 C 21.183594 5.144531 17.296875 4.175781 13.546875 2.765625 C 9.664062 1.304688 6.144531 -0.710938 2.984375 -3.289062 L 2.605469 -3.59375 L 2.304688 -3.976562 C 0.3125 -6.519531 -0.878906 -9.300781 -1.265625 -12.320312 C -1.636719 -15.230469 -1.34375 -18.03125 -0.390625 -20.726562 C 0.570312 -23.441406 2.074219 -25.75 4.121094 -27.65625 C 6.296875 -29.683594 8.882812 -30.933594 11.878906 -31.410156 C 14.90625 -31.890625 18.101562 -31.308594 21.460938 -29.664062 C 24.792969 -28.019531 27.902344 -26.910156 30.78125 -26.339844 C 33.433594 -25.8125 35.542969 -25.730469 37.113281 -26.082031 C 37.554688 -26.183594 37.839844 -26.285156 37.96875 -26.386719 C 37.855469 -26.296875 37.777344 -26.175781 37.738281 -26.015625 C 37.753906 -26.074219 37.761719 -26.109375 37.761719 -26.125 C 37.757812 -26.070312 37.769531 -26.003906 37.789062 -25.925781 C 37.828125 -25.769531 37.878906 -25.664062 37.933594 -25.609375 C 37.953125 -25.59375 37.964844 -25.585938 37.96875 -25.578125 C 37.953125 -25.59375 37.925781 -25.605469 37.894531 -25.625 C 37.753906 -25.699219 37.570312 -25.773438 37.339844 -25.84375 C 36.664062 -26.054688 35.773438 -26.199219 34.660156 -26.28125 C 31.222656 -26.5625 27.804688 -27.148438 24.40625 -28.039062 C 20.875 -28.964844 17.574219 -30.3125 14.496094 -32.082031 C 11.226562 -33.964844 8.46875 -36.429688 6.222656 -39.480469 C 3.925781 -42.59375 2.410156 -46.300781 1.671875 -50.597656 C 1.402344 -52.289062 1.375 -54.261719 1.589844 -56.519531 C 1.804688 -58.761719 2.347656 -61.113281 3.214844 -63.566406 C 4.109375 -66.09375 5.449219 -68.566406 7.230469 -70.984375 C 9.054688 -73.457031 11.441406 -75.6875 14.390625 -77.671875 C 17.332031 -79.652344 20.898438 -81.199219 25.097656 -82.304688 C 27.9375 -83.101562 30.957031 -83.597656 34.15625 -83.796875 C 37.273438 -83.992188 40.378906 -83.953125 43.46875 -83.671875 C 46.617188 -83.390625 49.570312 -82.84375 52.324219 -82.042969 C 55.222656 -81.195312 57.679688 -80.113281 59.699219 -78.789062 C 62.96875 -76.585938 65.367188 -74.175781 66.890625 -71.558594 C 68.484375 -68.820312 69.265625 -66.054688 69.226562 -63.257812 C 69.191406 -60.558594 68.542969 -58.027344 67.273438 -55.667969 C 66.066406 -53.421875 64.488281 -51.507812 62.535156 -49.921875 C 60.507812 -48.28125 58.265625 -47.179688 55.796875 -46.617188 L 53.15625 -46.011719 L 51.441406 -48.113281 C 50.695312 -49.03125 49.601562 -49.855469 48.160156 -50.585938 C 46.480469 -51.4375 44.660156 -52.09375 42.695312 -52.554688 C 40.742188 -53.015625 38.910156 -53.238281 37.199219 -53.214844 C 35.785156 -53.199219 34.714844 -53.011719 33.984375 -52.652344 C 33.960938 -52.640625 33.945312 -52.632812 33.929688 -52.625 C 33.9375 -52.628906 33.945312 -52.632812 33.960938 -52.644531 C 34.027344 -52.699219 34.09375 -52.773438 34.15625 -52.863281 C 34.292969 -53.0625 34.363281 -53.246094 34.367188 -53.414062 L 30.011719 -53.582031 L 34.371094 -53.582031 C 34.371094 -53.890625 34.292969 -54.191406 34.136719 -54.488281 C 34.015625 -54.722656 33.871094 -54.898438 33.710938 -55.019531 C 33.640625 -55.070312 33.59375 -55.105469 33.566406 -55.117188 C 33.640625 -55.082031 33.75 -55.042969 33.890625 -55 C 34.34375 -54.867188 34.945312 -54.75 35.695312 -54.652344 C 41.730469 -53.882812 46.726562 -52.722656 50.679688 -51.167969 C 54.554688 -49.648438 57.304688 -48.375 58.933594 -47.347656 Z M 54.285156 -39.964844 C 53.121094 -40.699219 50.855469 -41.726562 47.492188 -43.046875 C 44.210938 -44.339844 39.898438 -45.324219 34.558594 -46.003906 C 31.839844 -46.359375 29.8125 -47.039062 28.476562 -48.039062 C 27.59375 -48.703125 26.910156 -49.492188 26.425781 -50.410156 C 25.90625 -51.390625 25.648438 -52.449219 25.648438 -53.582031 L 25.648438 -53.667969 L 25.652344 -53.75 C 25.710938 -55.265625 26.148438 -56.617188 26.96875 -57.8125 C 27.742188 -58.9375 28.800781 -59.828125 30.144531 -60.484375 C 32.050781 -61.421875 34.367188 -61.90625 37.089844 -61.9375 C 39.515625 -61.96875 42.050781 -61.671875 44.699219 -61.046875 C 47.335938 -60.425781 49.804688 -59.53125 52.105469 -58.367188 C 54.644531 -57.078125 56.679688 -55.5 58.207031 -53.625 L 54.824219 -50.871094 L 53.851562 -55.121094 C 55.003906 -55.386719 56.066406 -55.910156 57.039062 -56.703125 C 58.085938 -57.546875 58.933594 -58.578125 59.589844 -59.796875 C 60.183594 -60.902344 60.488281 -62.09375 60.503906 -63.371094 C 60.519531 -64.558594 60.136719 -65.824219 59.351562 -67.167969 C 58.5 -68.632812 57.019531 -70.078125 54.914062 -71.496094 C 53.621094 -72.339844 51.945312 -73.066406 49.878906 -73.667969 C 47.671875 -74.3125 45.273438 -74.75 42.683594 -74.984375 C 40.035156 -75.222656 37.375 -75.257812 34.703125 -75.089844 C 32.113281 -74.929688 29.652344 -74.523438 27.324219 -73.871094 C 24.074219 -73.011719 21.390625 -71.867188 19.265625 -70.4375 C 17.148438 -69.011719 15.476562 -67.46875 14.25 -65.804688 C 12.980469 -64.085938 12.046875 -62.371094 11.441406 -60.660156 C 10.808594 -58.875 10.421875 -57.21875 10.273438 -55.6875 C 10.128906 -54.171875 10.128906 -52.964844 10.269531 -52.070312 C 10.773438 -49.132812 11.765625 -46.660156 13.242188 -44.65625 C 14.769531 -42.589844 16.636719 -40.917969 18.847656 -39.644531 C 21.25 -38.261719 23.839844 -37.207031 26.617188 -36.476562 C 29.527344 -35.714844 32.414062 -35.214844 35.285156 -34.980469 C 39.21875 -34.699219 42.109375 -33.683594 43.953125 -31.929688 C 45.09375 -30.839844 45.855469 -29.570312 46.230469 -28.121094 C 46.59375 -26.734375 46.570312 -25.285156 46.167969 -23.769531 C 45.710938 -22.058594 44.78125 -20.648438 43.375 -19.539062 C 42.210938 -18.621094 40.765625 -17.964844 39.035156 -17.574219 C 36.261719 -16.945312 32.945312 -17.015625 29.082031 -17.78125 C 25.449219 -18.503906 21.628906 -19.851562 17.621094 -21.828125 C 15.914062 -22.664062 14.457031 -22.984375 13.246094 -22.792969 C 12.003906 -22.597656 10.945312 -22.089844 10.070312 -21.273438 C 9.066406 -20.339844 8.320312 -19.183594 7.832031 -17.8125 C 7.339844 -16.421875 7.195312 -14.960938 7.390625 -13.425781 C 7.574219 -11.996094 8.167969 -10.640625 9.171875 -9.359375 L 5.738281 -6.667969 L 8.492188 -10.050781 C 10.917969 -8.074219 13.625 -6.527344 16.617188 -5.402344 C 19.746094 -4.226562 22.992188 -3.414062 26.359375 -2.96875 C 29.8125 -2.507812 33.171875 -2.339844 36.441406 -2.460938 C 39.738281 -2.582031 42.777344 -2.90625 45.558594 -3.433594 C 48.28125 -3.949219 50.53125 -4.5625 52.3125 -5.277344 C 54.609375 -6.21875 56.660156 -7.675781 58.46875 -9.652344 C 60.335938 -11.691406 61.761719 -14.042969 62.753906 -16.714844 C 63.738281 -19.367188 64.164062 -22.132812 64.035156 -25.007812 C 63.914062 -27.75 63.09375 -30.410156 61.574219 -32.992188 C 60.050781 -35.578125 57.632812 -37.894531 54.3125 -39.949219 Z M 54.285156 -39.964844 "/></g></g></g><g fill="#58675e" fill-opacity="1"><g transform="translate(232.126824, 100.867946)"><g><path d="M 36.171875 -63.0625 C 36.460938 -61.339844 36.671875 -58.929688 36.808594 -55.832031 C 36.941406 -52.855469 37.019531 -49.453125 37.046875 -45.625 C 37.074219 -41.824219 37.058594 -37.867188 37.007812 -33.753906 C 36.957031 -29.632812 36.851562 -25.5625 36.695312 -21.542969 C 36.539062 -17.527344 36.355469 -13.835938 36.148438 -10.46875 C 35.933594 -7.019531 35.664062 -4.152344 35.335938 -1.863281 L 35.144531 -0.515625 L 34.21875 0.480469 C 32.398438 2.449219 30.125 3.855469 27.390625 4.707031 C 24.796875 5.515625 22.0625 5.738281 19.1875 5.375 C 16.335938 5.015625 13.585938 4.042969 10.945312 2.464844 C 8.285156 0.875 5.960938 -1.355469 3.972656 -4.226562 C 2 -7.078125 0.617188 -10.539062 -0.171875 -14.601562 C -0.410156 -15.738281 -0.617188 -17.558594 -0.785156 -20.0625 C -0.941406 -22.402344 -1.085938 -25.152344 -1.21875 -28.316406 C -1.347656 -31.484375 -1.441406 -34.898438 -1.492188 -38.554688 C -1.542969 -42.203125 -1.558594 -45.867188 -1.53125 -49.542969 C -1.503906 -53.222656 -1.441406 -56.734375 -1.335938 -60.078125 C -1.230469 -63.472656 -1.054688 -66.492188 -0.816406 -69.136719 C -0.558594 -71.949219 -0.21875 -74.144531 0.207031 -75.730469 L 0.546875 -76.988281 L 1.515625 -77.851562 C 3.421875 -79.554688 5.71875 -80.835938 8.398438 -81.699219 C 10.988281 -82.53125 13.707031 -82.882812 16.554688 -82.753906 C 19.535156 -82.625 22.386719 -81.835938 25.113281 -80.390625 C 27.890625 -78.917969 30.269531 -76.738281 32.25 -73.847656 C 34.203125 -70.996094 35.515625 -67.382812 36.183594 -63.003906 Z M 27.558594 -61.6875 C 27.089844 -64.753906 26.257812 -67.160156 25.054688 -68.914062 C 23.882812 -70.625 22.539062 -71.878906 21.027344 -72.683594 C 19.460938 -73.511719 17.839844 -73.964844 16.167969 -74.039062 C 14.363281 -74.121094 12.660156 -73.90625 11.066406 -73.390625 C 9.558594 -72.910156 8.3125 -72.226562 7.324219 -71.34375 L 4.421875 -74.597656 L 8.632812 -73.464844 C 8.335938 -72.363281 8.082031 -70.65625 7.871094 -68.347656 C 7.648438 -65.875 7.484375 -63.027344 7.382812 -59.804688 C 7.28125 -56.53125 7.21875 -53.089844 7.191406 -49.480469 C 7.167969 -45.867188 7.179688 -42.265625 7.230469 -38.679688 C 7.28125 -35.101562 7.371094 -31.765625 7.5 -28.679688 C 7.625 -25.589844 7.765625 -22.910156 7.917969 -20.648438 C 8.0625 -18.550781 8.21875 -17.089844 8.390625 -16.261719 C 8.949219 -13.398438 9.867188 -11.039062 11.148438 -9.191406 C 12.417969 -7.355469 13.839844 -5.96875 15.421875 -5.023438 C 17.015625 -4.070312 18.636719 -3.488281 20.28125 -3.28125 C 21.90625 -3.074219 23.410156 -3.1875 24.796875 -3.621094 C 26.046875 -4.011719 27.050781 -4.617188 27.816406 -5.445312 L 31.019531 -2.480469 L 26.699219 -3.097656 C 26.992188 -5.15625 27.238281 -7.792969 27.441406 -11.011719 C 27.644531 -14.3125 27.824219 -17.933594 27.976562 -21.882812 C 28.132812 -25.824219 28.234375 -29.820312 28.285156 -33.863281 C 28.335938 -37.921875 28.347656 -41.820312 28.324219 -45.566406 C 28.296875 -49.285156 28.222656 -52.578125 28.09375 -55.445312 C 27.972656 -58.191406 27.796875 -60.25 27.566406 -61.628906 Z M 27.558594 -61.6875 "/></g></g></g><g fill="#58675e" fill-opacity="1"><g transform="translate(269.190504, 100.867946)"><g><path d="M 49.445312 -48.183594 C 47.601562 -48.632812 46.007812 -48.792969 44.667969 -48.660156 C 43.539062 -48.550781 42.234375 -48.015625 40.761719 -47.058594 L 40.71875 -47.027344 L 40.671875 -47 C 38.949219 -45.9375 37.851562 -44.585938 37.386719 -42.933594 C 36.777344 -40.785156 36.636719 -38.539062 36.964844 -36.199219 L 36.972656 -36.152344 L 36.980469 -36.101562 C 37.257812 -33.714844 38.066406 -31.945312 39.40625 -30.800781 C 40.761719 -29.632812 42.253906 -29.066406 43.886719 -29.097656 C 45.085938 -29.097656 45.878906 -29.246094 46.261719 -29.535156 C 46.765625 -29.917969 47.140625 -30.421875 47.386719 -31.046875 C 47.773438 -32.046875 48.015625 -33.136719 48.109375 -34.316406 C 48.234375 -35.851562 48.320312 -37.335938 48.371094 -38.769531 L 48.417969 -40.117188 L 49.21875 -41.203125 C 50.550781 -43.011719 52.644531 -44.292969 55.496094 -45.046875 C 57.800781 -45.652344 60.355469 -45.878906 63.167969 -45.726562 C 65.984375 -45.570312 68.734375 -44.96875 71.417969 -43.921875 C 74.324219 -42.785156 76.773438 -41.085938 78.765625 -38.824219 C 80.953125 -36.339844 82.152344 -33.253906 82.363281 -29.5625 C 82.488281 -27.171875 82.257812 -24.480469 81.671875 -21.492188 C 81.066406 -18.410156 79.902344 -15.3125 78.183594 -12.199219 C 76.4375 -9.035156 74.039062 -6.125 70.992188 -3.460938 C 67.910156 -0.769531 64.050781 1.394531 59.414062 3.027344 C 54.835938 4.640625 49.375 5.449219 43.039062 5.449219 C 36.226562 5.449219 30.375 4.574219 25.480469 2.828125 C 20.539062 1.066406 16.429688 -1.25 13.144531 -4.121094 C 9.921875 -6.9375 7.335938 -9.996094 5.390625 -13.292969 C 3.542969 -16.433594 2.105469 -19.453125 1.082031 -22.355469 C -0.640625 -27.296875 -1.460938 -32.546875 -1.375 -38.101562 C -1.292969 -43.585938 -0.429688 -48.816406 1.207031 -53.785156 C 3.136719 -59.511719 6.070312 -64.359375 10.007812 -68.328125 C 13.824219 -72.167969 18.355469 -75.363281 23.613281 -77.90625 C 30.722656 -81.375 38.453125 -82.953125 46.804688 -82.640625 C 55.148438 -82.328125 63.769531 -79.617188 72.664062 -74.503906 L 74.242188 -73.59375 L 74.707031 -71.832031 C 75.660156 -68.207031 75.804688 -64.875 75.136719 -61.835938 C 74.46875 -58.792969 73.210938 -56.160156 71.363281 -53.9375 C 69.546875 -51.75 67.355469 -50.066406 64.792969 -48.886719 C 62.3125 -47.742188 59.707031 -47.109375 56.96875 -46.976562 C 54.15625 -46.84375 51.441406 -47.3125 48.824219 -48.386719 L 50.480469 -52.421875 Z M 51.515625 -56.65625 L 51.835938 -56.578125 L 52.136719 -56.457031 C 53.554688 -55.875 55.027344 -55.621094 56.554688 -55.691406 C 58.160156 -55.769531 59.691406 -56.140625 61.140625 -56.808594 C 62.507812 -57.4375 63.675781 -58.339844 64.652344 -59.511719 C 65.597656 -60.648438 66.25 -62.046875 66.617188 -63.710938 C 66.980469 -65.375 66.867188 -67.34375 66.269531 -69.609375 L 70.488281 -70.722656 L 68.3125 -66.941406 C 60.664062 -71.335938 53.386719 -73.664062 46.480469 -73.921875 C 39.585938 -74.179688 33.226562 -72.890625 27.414062 -70.050781 C 23.050781 -67.941406 19.316406 -65.316406 16.199219 -62.179688 C 13.214844 -59.171875 10.976562 -55.460938 9.492188 -51.054688 C 8.132812 -46.925781 7.417969 -42.566406 7.347656 -37.96875 C 7.277344 -33.445312 7.929688 -29.207031 9.308594 -25.257812 C 10.144531 -22.886719 11.34375 -20.375 12.910156 -17.722656 C 14.375 -15.234375 16.367188 -12.886719 18.882812 -10.691406 C 21.335938 -8.546875 24.511719 -6.777344 28.414062 -5.386719 C 32.359375 -3.980469 37.234375 -3.277344 43.039062 -3.277344 C 48.382812 -3.277344 52.875 -3.917969 56.515625 -5.199219 C 60.097656 -6.460938 63.011719 -8.074219 65.253906 -10.03125 C 67.53125 -12.019531 69.296875 -14.148438 70.546875 -16.417969 C 71.824219 -18.730469 72.679688 -20.984375 73.109375 -23.171875 C 73.558594 -25.457031 73.738281 -27.421875 73.65625 -29.0625 C 73.558594 -30.746094 73.078125 -32.082031 72.214844 -33.058594 C 71.15625 -34.261719 69.832031 -35.171875 68.242188 -35.796875 C 66.425781 -36.503906 64.574219 -36.910156 62.6875 -37.015625 C 60.792969 -37.117188 59.136719 -36.984375 57.722656 -36.609375 C 57.15625 -36.460938 56.71875 -36.296875 56.402344 -36.117188 C 56.316406 -36.070312 56.253906 -36.027344 56.210938 -35.988281 L 56.207031 -35.984375 C 56.21875 -35.996094 56.230469 -36.011719 56.242188 -36.03125 L 52.730469 -38.617188 L 57.089844 -38.46875 C 57.035156 -36.902344 56.941406 -35.285156 56.808594 -33.613281 C 56.644531 -31.585938 56.214844 -29.679688 55.515625 -27.886719 C 54.675781 -25.722656 53.34375 -23.949219 51.523438 -22.574219 C 49.582031 -21.109375 47.089844 -20.375 44.050781 -20.375 C 40.203125 -20.304688 36.757812 -21.570312 33.71875 -24.179688 C 30.664062 -26.808594 28.859375 -30.441406 28.3125 -35.082031 L 32.644531 -35.59375 L 28.328125 -34.988281 C 27.828125 -38.539062 28.050781 -41.980469 28.992188 -45.3125 C 30.078125 -49.140625 32.445312 -52.179688 36.097656 -54.429688 L 38.386719 -50.714844 L 36.007812 -54.371094 C 38.667969 -56.101562 41.269531 -57.09375 43.8125 -57.34375 C 46.140625 -57.574219 48.710938 -57.34375 51.515625 -56.65625 Z M 51.515625 -56.65625 "/></g></g></g><g fill="#58675e" fill-opacity="1"><g transform="translate(349.831155, 100.867946)"><g><path d="M 46.199219 -43.582031 L 46.199219 -74.171875 L 47.222656 -75.390625 C 49.609375 -78.226562 52.359375 -80.261719 55.476562 -81.488281 C 58.546875 -82.695312 61.695312 -83.152344 64.917969 -82.859375 C 68.066406 -82.570312 70.972656 -81.679688 73.628906 -80.1875 C 76.371094 -78.648438 78.597656 -76.574219 80.304688 -73.960938 C 82.097656 -71.21875 82.992188 -68.097656 82.992188 -64.59375 L 83.03125 -57.992188 L 83.109375 -48.191406 L 83.1875 -36.554688 C 83.210938 -32.449219 83.210938 -28.386719 83.1875 -24.359375 C 83.160156 -20.320312 83.09375 -16.511719 82.992188 -12.9375 C 82.886719 -9.328125 82.726562 -6.167969 82.515625 -3.457031 L 82.386719 -1.855469 L 81.25 -0.714844 C 79.109375 1.425781 76.359375 3.054688 72.992188 4.175781 C 69.75 5.257812 66.261719 5.691406 62.523438 5.480469 C 58.75 5.265625 55.0625 4.261719 51.453125 2.472656 C 47.738281 0.632812 44.484375 -2.203125 41.6875 -6.035156 C 40.53125 -7.632812 39.34375 -9.417969 38.121094 -11.398438 C 36.929688 -13.335938 35.785156 -15.273438 34.699219 -17.210938 C 33.628906 -19.117188 32.671875 -20.84375 31.835938 -22.386719 C 31.085938 -23.773438 30.519531 -24.734375 30.144531 -25.277344 L 29.863281 -25.683594 L 29.683594 -26.140625 C 29.761719 -25.9375 29.875 -25.753906 30.023438 -25.585938 C 29.769531 -25.875 29.53125 -26.167969 29.3125 -26.460938 L 32.800781 -29.078125 L 32.800781 -24.71875 C 33.109375 -24.71875 33.382812 -24.746094 33.625 -24.808594 C 33.175781 -24.695312 32.71875 -24.640625 32.257812 -24.640625 L 32.257812 -29 L 36.621094 -29.097656 C 36.671875 -26.816406 36.746094 -24.730469 36.847656 -22.835938 L 37.15625 -17.101562 C 37.265625 -15.15625 37.332031 -13.078125 37.355469 -10.871094 C 37.382812 -8.679688 37.371094 -6.167969 37.316406 -3.332031 L 37.28125 -1.3125 L 35.714844 -0.03125 C 32.683594 2.441406 29.539062 4.09375 26.28125 4.925781 C 23.058594 5.746094 19.945312 5.914062 16.945312 5.429688 C 13.964844 4.949219 11.273438 3.960938 8.863281 2.464844 C 6.425781 0.949219 4.464844 -0.90625 2.980469 -3.097656 C 1.367188 -5.480469 0.523438 -8.027344 0.449219 -10.734375 C 0.34375 -13.945312 0.253906 -17.484375 0.175781 -21.351562 L -0.0195312 -33.390625 C -0.0703125 -37.582031 -0.0976562 -41.699219 -0.0976562 -45.75 L -0.0585938 -57.203125 C -0.03125 -60.851562 0.0351562 -64.082031 0.136719 -66.890625 C 0.246094 -69.75 0.382812 -71.980469 0.546875 -73.574219 L 0.730469 -75.339844 L 2.09375 -76.476562 C 4.367188 -78.371094 7.113281 -79.867188 10.332031 -80.972656 C 13.542969 -82.074219 16.894531 -82.578125 20.390625 -82.488281 C 24.050781 -82.390625 27.539062 -81.457031 30.859375 -79.6875 C 34.285156 -77.859375 37.136719 -75.050781 39.410156 -71.257812 C 40.777344 -68.949219 41.996094 -66.851562 43.066406 -64.96875 L 46.171875 -59.496094 L 49.320312 -53.898438 L 53.097656 -47.175781 L 53.140625 -47.082031 C 53.230469 -46.90625 53.324219 -46.738281 53.425781 -46.582031 C 53.625 -46.265625 53.816406 -45.960938 53.988281 -45.667969 L 50.25 -43.425781 L 47.164062 -46.507812 C 48.066406 -47.414062 49.148438 -47.863281 50.402344 -47.863281 C 49.25 -47.863281 48.273438 -47.464844 47.476562 -46.664062 L 50.558594 -43.582031 Z M 54.921875 -43.582031 L 54.921875 -41.773438 L 53.644531 -40.496094 C 52.742188 -39.59375 51.660156 -39.140625 50.402344 -39.140625 C 51.558594 -39.140625 52.535156 -39.539062 53.332031 -40.339844 L 49.382812 -36.390625 L 46.507812 -41.179688 C 46.375 -41.40625 46.226562 -41.644531 46.066406 -41.898438 C 45.804688 -42.308594 45.5625 -42.734375 45.339844 -43.179688 L 49.242188 -45.132812 L 45.4375 -42.996094 L 41.71875 -49.621094 L 38.585938 -55.191406 L 35.484375 -60.652344 C 34.4375 -62.492188 33.253906 -64.53125 31.929688 -66.769531 C 30.484375 -69.183594 28.757812 -70.921875 26.753906 -71.988281 C 24.648438 -73.113281 22.449219 -73.707031 20.164062 -73.765625 C 17.714844 -73.828125 15.382812 -73.480469 13.164062 -72.722656 C 10.957031 -71.964844 9.128906 -70.980469 7.679688 -69.773438 L 4.886719 -73.125 L 9.222656 -72.675781 C 9.078125 -71.273438 8.957031 -69.234375 8.855469 -66.566406 C 8.753906 -63.84375 8.691406 -60.710938 8.664062 -57.175781 L 8.628906 -45.75 C 8.628906 -41.738281 8.652344 -37.664062 8.703125 -33.53125 L 8.898438 -21.527344 C 8.976562 -17.695312 9.066406 -14.179688 9.167969 -10.976562 C 9.195312 -9.964844 9.542969 -8.96875 10.203125 -7.988281 C 10.992188 -6.820312 12.082031 -5.808594 13.46875 -4.945312 C 14.886719 -4.066406 16.507812 -3.476562 18.335938 -3.183594 C 20.144531 -2.890625 22.074219 -3.007812 24.125 -3.527344 C 26.136719 -4.042969 28.164062 -5.128906 30.199219 -6.792969 L 32.957031 -3.410156 L 28.59375 -3.492188 C 28.644531 -6.238281 28.660156 -8.664062 28.632812 -10.765625 C 28.609375 -12.847656 28.546875 -14.804688 28.445312 -16.628906 L 28.136719 -22.371094 C 28.03125 -24.355469 27.949219 -26.535156 27.898438 -28.90625 L 27.796875 -33.363281 L 32.257812 -33.363281 C 32.003906 -33.363281 31.753906 -33.332031 31.511719 -33.273438 C 31.960938 -33.386719 32.390625 -33.441406 32.800781 -33.441406 L 34.984375 -33.441406 L 36.292969 -31.695312 C 36.378906 -31.578125 36.480469 -31.457031 36.589844 -31.332031 C 37.097656 -30.75 37.496094 -30.101562 37.78125 -29.382812 L 33.730469 -27.761719 L 37.320312 -30.242188 C 37.875 -29.441406 38.601562 -28.210938 39.503906 -26.546875 C 40.320312 -25.039062 41.253906 -23.351562 42.304688 -21.484375 C 43.335938 -19.648438 44.417969 -17.8125 45.546875 -15.976562 C 46.65625 -14.179688 47.714844 -12.582031 48.730469 -11.179688 C 50.691406 -8.496094 52.890625 -6.550781 55.328125 -5.34375 C 57.871094 -4.082031 60.433594 -3.378906 63.019531 -3.230469 C 65.644531 -3.082031 68.046875 -3.371094 70.234375 -4.097656 C 72.296875 -4.785156 73.910156 -5.714844 75.082031 -6.882812 L 78.164062 -3.800781 L 73.816406 -4.140625 C 74.019531 -6.707031 74.167969 -9.722656 74.269531 -13.195312 C 74.371094 -16.703125 74.4375 -20.441406 74.460938 -24.417969 C 74.488281 -28.402344 74.488281 -32.429688 74.460938 -36.496094 L 74.386719 -48.121094 L 74.308594 -57.9375 L 74.269531 -64.59375 C 74.269531 -66.363281 73.847656 -67.894531 73.003906 -69.1875 C 72.074219 -70.605469 70.859375 -71.738281 69.363281 -72.578125 C 67.78125 -73.464844 66.035156 -73.996094 64.117188 -74.171875 C 62.273438 -74.339844 60.457031 -74.074219 58.671875 -73.371094 C 56.925781 -72.683594 55.335938 -71.484375 53.898438 -69.773438 L 50.558594 -72.582031 L 54.921875 -72.582031 Z M 54.921875 -43.582031 "/></g></g></g><g fill="#58675e" fill-opacity="1"><g transform="translate(433.495816, 100.867946)"><g><path d="M 45.5 -38.917969 C 45.554688 -39.058594 45.605469 -39.195312 45.644531 -39.328125 C 45.703125 -39.523438 45.75 -39.6875 45.785156 -39.832031 L 49.375 -55.195312 L 53.003906 -70.730469 L 53.035156 -70.832031 C 53.273438 -71.675781 53.558594 -72.527344 53.886719 -73.390625 C 54.117188 -74.003906 54.316406 -74.625 54.488281 -75.257812 L 54.917969 -76.875 L 56.324219 -77.789062 C 60.019531 -80.191406 63.898438 -81.59375 67.960938 -82 C 72.035156 -82.410156 75.90625 -81.871094 79.570312 -80.386719 C 83.28125 -78.882812 86.398438 -76.535156 88.917969 -73.347656 C 91.453125 -70.136719 93.03125 -66.226562 93.65625 -61.613281 C 93.863281 -60.148438 94.113281 -58.167969 94.402344 -55.675781 C 94.683594 -53.230469 95.007812 -50.570312 95.367188 -47.6875 L 96.414062 -39.027344 L 97.308594 -31.285156 L 98.78125 -18.730469 L 100.464844 -4.382812 L 99.351562 -2.964844 C 97.246094 -0.28125 94.8125 1.75 92.058594 3.125 C 89.320312 4.496094 86.496094 5.230469 83.585938 5.328125 C 80.671875 5.429688 77.910156 4.925781 75.300781 3.824219 C 72.597656 2.679688 70.34375 0.960938 68.535156 -1.332031 C 66.671875 -3.699219 65.566406 -6.542969 65.21875 -9.863281 C 64.953125 -12.261719 64.777344 -14.378906 64.695312 -16.207031 C 64.617188 -17.980469 64.5625 -19.730469 64.539062 -21.453125 L 64.460938 -27.082031 C 64.433594 -29.121094 64.371094 -31.597656 64.269531 -34.507812 L 68.628906 -34.664062 L 66.675781 -30.761719 C 67.1875 -30.503906 67.65625 -30.378906 68.085938 -30.378906 L 68.085938 -34.738281 L 72.371094 -33.9375 C 72.214844 -33.09375 72.054688 -32.273438 71.898438 -31.480469 C 71.726562 -30.636719 71.53125 -29.769531 71.308594 -28.875 L 68.183594 -15.414062 C 67.117188 -10.859375 66.011719 -6.320312 64.867188 -1.800781 L 64.429688 -0.0546875 L 62.882812 0.871094 C 61.515625 1.691406 59.761719 2.402344 57.625 3 C 55.519531 3.585938 53.253906 3.914062 50.824219 3.972656 C 48.328125 4.035156 45.882812 3.738281 43.480469 3.082031 C 40.796875 2.351562 38.414062 1.015625 36.339844 -0.921875 C 34.152344 -2.960938 32.648438 -5.667969 31.820312 -9.042969 C 31.355469 -10.90625 30.808594 -13.152344 30.1875 -15.78125 C 29.5625 -18.402344 28.953125 -21.027344 28.355469 -23.652344 C 27.765625 -26.238281 27.230469 -28.511719 26.746094 -30.476562 C 26.296875 -32.289062 25.976562 -33.449219 25.785156 -33.949219 L 29.855469 -35.515625 L 34.207031 -35.214844 L 33.429688 -24.007812 L 32.695312 -13.347656 L 31.800781 0.460938 L 29.652344 1.605469 C 26.730469 3.15625 23.761719 4.214844 20.742188 4.789062 C 17.554688 5.394531 14.496094 5.355469 11.570312 4.675781 C 8.425781 3.941406 5.726562 2.433594 3.484375 0.152344 C 1.253906 -2.109375 -0.300781 -5.140625 -1.183594 -8.9375 C -2.007812 -12.464844 -2.070312 -16.691406 -1.371094 -21.625 C -0.738281 -26.316406 0.09375 -31.082031 1.125 -35.921875 C 2.117188 -40.578125 2.96875 -45.140625 3.679688 -49.617188 C 4.410156 -53.949219 5.164062 -58.273438 5.945312 -62.578125 C 6.714844 -66.855469 7.464844 -71.105469 8.183594 -75.332031 L 8.425781 -76.753906 L 9.46875 -77.75 C 11.128906 -79.339844 13.316406 -80.585938 16.03125 -81.488281 C 18.554688 -82.332031 21.289062 -82.769531 24.226562 -82.796875 C 27.199219 -82.828125 30.148438 -82.351562 33.070312 -81.367188 C 36.171875 -80.324219 38.917969 -78.605469 41.3125 -76.210938 C 43.769531 -73.753906 45.542969 -70.550781 46.625 -66.601562 C 47.148438 -64.8125 47.707031 -62.652344 48.296875 -60.113281 L 50.074219 -52.523438 L 51.859375 -44.96875 L 47.613281 -43.96875 L 51.515625 -45.917969 C 51.738281 -45.46875 51.957031 -44.726562 52.160156 -43.699219 C 52.277344 -43.121094 52.429688 -42.453125 52.621094 -41.691406 C 52.84375 -40.796875 53.027344 -39.992188 53.167969 -39.277344 C 53.222656 -39.011719 53.265625 -38.8125 53.296875 -38.679688 L 53.296875 -38.671875 C 53.242188 -38.855469 53.164062 -39.046875 53.066406 -39.25 L 49.164062 -37.300781 L 49.164062 -41.660156 L 49.550781 -41.660156 L 49.550781 -37.300781 Z M 53.601562 -35.679688 L 52.503906 -32.9375 L 46.46875 -32.9375 L 45.261719 -35.347656 C 45.035156 -35.800781 44.820312 -36.539062 44.613281 -37.566406 C 44.5 -38.144531 44.347656 -38.816406 44.15625 -39.574219 C 43.933594 -40.46875 43.75 -41.273438 43.605469 -41.988281 C 43.554688 -42.253906 43.511719 -42.453125 43.480469 -42.585938 L 43.476562 -42.597656 C 43.53125 -42.414062 43.609375 -42.21875 43.710938 -42.015625 L 43.484375 -42.472656 L 41.582031 -50.53125 L 39.796875 -58.144531 C 39.246094 -60.515625 38.71875 -62.566406 38.210938 -64.292969 C 37.535156 -66.757812 36.511719 -68.671875 35.144531 -70.039062 C 33.714844 -71.472656 32.09375 -72.492188 30.285156 -73.101562 C 28.296875 -73.769531 26.304688 -74.09375 24.316406 -74.074219 C 22.292969 -74.054688 20.449219 -73.765625 18.789062 -73.214844 C 17.3125 -72.722656 16.21875 -72.132812 15.5 -71.445312 L 12.484375 -74.597656 L 16.785156 -73.863281 C 16.058594 -69.609375 15.304688 -65.332031 14.527344 -61.027344 C 13.757812 -56.753906 13.011719 -52.492188 12.296875 -48.246094 C 11.558594 -43.621094 10.679688 -38.90625 9.65625 -34.101562 C 8.671875 -29.480469 7.875 -24.914062 7.265625 -20.40625 C 6.722656 -16.546875 6.738281 -13.382812 7.3125 -10.914062 C 7.824219 -8.714844 8.621094 -7.066406 9.699219 -5.96875 C 10.761719 -4.886719 12.046875 -4.171875 13.554688 -3.820312 C 15.28125 -3.417969 17.132812 -3.40625 19.113281 -3.78125 C 21.269531 -4.191406 23.417969 -4.964844 25.5625 -6.101562 L 27.605469 -2.25 L 23.253906 -2.53125 L 23.992188 -13.949219 L 24.726562 -24.613281 L 25.503906 -35.816406 L 33.925781 -37.082031 C 34.25 -36.238281 34.679688 -34.734375 35.214844 -32.566406 C 35.710938 -30.550781 36.261719 -28.226562 36.859375 -25.589844 C 37.453125 -22.992188 38.054688 -20.394531 38.671875 -17.796875 C 39.289062 -15.203125 39.832031 -12.976562 40.296875 -11.117188 C 40.710938 -9.425781 41.375 -8.15625 42.292969 -7.296875 C 43.316406 -6.339844 44.476562 -5.6875 45.773438 -5.332031 C 47.355469 -4.902344 48.964844 -4.707031 50.605469 -4.75 C 52.3125 -4.792969 53.871094 -5.007812 55.277344 -5.402344 C 56.660156 -5.789062 57.699219 -6.191406 58.394531 -6.609375 L 60.640625 -2.871094 L 56.410156 -3.9375 C 57.542969 -8.410156 58.632812 -12.894531 59.6875 -17.386719 L 62.84375 -30.992188 C 63.035156 -31.75 63.199219 -32.484375 63.34375 -33.191406 C 63.492188 -33.949219 63.644531 -34.734375 63.796875 -35.542969 L 64.464844 -39.101562 L 68.085938 -39.101562 C 69.03125 -39.101562 69.859375 -38.921875 70.578125 -38.5625 L 72.894531 -37.40625 L 72.988281 -34.816406 C 73.089844 -31.835938 73.15625 -29.296875 73.183594 -27.199219 L 73.261719 -21.585938 C 73.285156 -19.949219 73.335938 -18.285156 73.410156 -16.597656 C 73.484375 -14.960938 73.644531 -13.015625 73.894531 -10.765625 C 74.066406 -9.121094 74.566406 -7.777344 75.386719 -6.730469 C 76.269531 -5.613281 77.375 -4.773438 78.703125 -4.210938 C 80.128906 -3.609375 81.65625 -3.335938 83.289062 -3.390625 C 84.929688 -3.445312 86.550781 -3.875 88.15625 -4.675781 C 89.746094 -5.472656 91.191406 -6.695312 92.492188 -8.355469 L 95.921875 -5.660156 L 91.589844 -5.152344 L 90.117188 -17.714844 L 88.644531 -30.285156 L 87.753906 -37.976562 L 86.710938 -46.605469 C 86.347656 -49.515625 86.019531 -52.203125 85.734375 -54.671875 C 85.457031 -57.089844 85.214844 -59.011719 85.007812 -60.445312 C 84.597656 -63.480469 83.621094 -65.980469 82.070312 -67.941406 C 80.503906 -69.921875 78.582031 -71.375 76.292969 -72.300781 C 73.960938 -73.246094 71.472656 -73.585938 68.828125 -73.320312 C 66.171875 -73.054688 63.589844 -72.105469 61.078125 -70.476562 L 58.703125 -74.132812 L 62.917969 -73.007812 C 62.671875 -72.089844 62.378906 -71.1875 62.042969 -70.296875 C 61.800781 -69.664062 61.59375 -69.042969 61.421875 -68.4375 L 57.226562 -69.636719 L 61.476562 -68.644531 L 57.871094 -53.210938 L 54.25 -37.714844 C 54.179688 -37.441406 54.097656 -37.144531 54 -36.820312 C 53.886719 -36.4375 53.753906 -36.058594 53.601562 -35.679688 Z M 53.601562 -35.679688 "/></g></g></g><g fill="#58675e" fill-opacity="1"><g transform="translate(532.203071, 100.867946)"><g><path d="M -0.0898438 -17.65625 C -0.195312 -19.472656 -0.277344 -21.898438 -0.328125 -24.933594 C -0.382812 -27.929688 -0.40625 -31.289062 -0.40625 -35.011719 C -0.40625 -38.738281 -0.367188 -42.589844 -0.289062 -46.574219 C -0.210938 -50.550781 -0.109375 -54.460938 0.0234375 -58.304688 C 0.152344 -62.164062 0.308594 -65.734375 0.492188 -69.023438 C 0.675781 -72.371094 0.90625 -75.179688 1.175781 -77.441406 L 1.589844 -80.917969 L 5.070312 -81.265625 C 7.75 -81.53125 10.984375 -81.734375 14.773438 -81.867188 C 18.503906 -81.996094 22.503906 -82.085938 26.777344 -82.140625 C 31.0625 -82.191406 35.355469 -82.179688 39.664062 -82.101562 C 43.964844 -82.023438 48.027344 -81.90625 51.863281 -81.75 C 55.710938 -81.589844 59.03125 -81.40625 61.820312 -81.195312 L 63.894531 -81.039062 L 65.078125 -79.328125 C 65.839844 -78.234375 66.464844 -76.734375 66.957031 -74.839844 C 67.40625 -73.105469 67.644531 -71.1875 67.675781 -69.078125 C 67.707031 -66.933594 67.441406 -64.765625 66.882812 -62.578125 C 66.273438 -60.210938 65.210938 -58.019531 63.703125 -56.007812 C 62.09375 -53.863281 59.933594 -52.171875 57.214844 -50.933594 C 54.597656 -49.738281 51.421875 -49.144531 47.691406 -49.144531 L 31.714844 -49.144531 L 31.714844 -53.507812 L 36.078125 -53.507812 L 36.078125 -49.472656 L 31.714844 -49.472656 L 31.714844 -53.835938 C 32.816406 -53.835938 34.339844 -53.859375 36.292969 -53.910156 C 38.320312 -53.964844 40.519531 -53.992188 42.882812 -53.992188 C 45.34375 -53.992188 47.761719 -53.882812 50.144531 -53.664062 C 52.699219 -53.425781 54.953125 -53.003906 56.902344 -52.394531 L 58.761719 -51.8125 L 59.570312 -50.039062 C 61.4375 -45.929688 62.210938 -42.023438 61.882812 -38.3125 C 61.527344 -34.238281 59.90625 -30.886719 57.027344 -28.257812 C 54.21875 -25.699219 50.382812 -24.289062 45.523438 -24.027344 C 44.128906 -23.96875 42.835938 -23.941406 41.640625 -23.941406 C 40.480469 -23.941406 39.136719 -23.953125 37.613281 -23.980469 C 36.136719 -24.007812 34.199219 -24.019531 31.792969 -24.019531 L 31.792969 -28.382812 L 36.15625 -28.382812 L 36.15625 -23.652344 L 31.792969 -23.652344 L 31.792969 -28.011719 L 60.695312 -28.011719 L 62 -26.210938 C 63.902344 -23.585938 65.117188 -20.683594 65.640625 -17.5 C 66.171875 -14.289062 65.9375 -11.160156 64.941406 -8.109375 C 63.898438 -4.902344 61.949219 -2.160156 59.09375 0.113281 C 56.285156 2.355469 52.640625 3.757812 48.160156 4.328125 C 46.761719 4.496094 44.917969 4.648438 42.632812 4.78125 C 40.367188 4.914062 37.878906 4.996094 35.171875 5.019531 C 32.492188 5.046875 29.824219 5.035156 27.171875 4.980469 C 24.480469 4.929688 22.050781 4.820312 19.878906 4.660156 C 17.566406 4.488281 15.738281 4.25 14.386719 3.945312 L 14.269531 3.914062 C 9.523438 2.695312 5.980469 0.210938 3.632812 -3.539062 C 1.503906 -6.9375 0.265625 -11.640625 -0.0898438 -17.65625 Z M 8.621094 -18.167969 C 8.886719 -13.636719 9.6875 -10.304688 11.023438 -8.167969 C 12.140625 -6.386719 13.945312 -5.175781 16.441406 -4.535156 L 15.355469 -0.308594 L 16.320312 -4.5625 C 17.246094 -4.355469 18.644531 -4.179688 20.523438 -4.039062 C 22.539062 -3.890625 24.8125 -3.789062 27.34375 -3.742188 C 29.910156 -3.691406 32.492188 -3.675781 35.085938 -3.703125 C 37.652344 -3.726562 39.996094 -3.804688 42.121094 -3.929688 C 44.230469 -4.050781 45.878906 -4.183594 47.0625 -4.328125 C 49.925781 -4.691406 52.121094 -5.484375 53.65625 -6.707031 C 55.144531 -7.894531 56.144531 -9.261719 56.648438 -10.8125 C 57.203125 -12.515625 57.332031 -14.269531 57.035156 -16.078125 C 56.734375 -17.910156 56.035156 -19.578125 54.9375 -21.089844 L 58.46875 -23.652344 L 58.46875 -19.289062 L 27.429688 -19.289062 L 27.429688 -32.742188 L 31.792969 -32.742188 C 34.25 -32.742188 36.238281 -32.730469 37.761719 -32.703125 C 39.234375 -32.679688 40.53125 -32.664062 41.640625 -32.664062 C 42.722656 -32.664062 43.855469 -32.691406 45.050781 -32.738281 C 47.839844 -32.886719 49.875 -33.542969 51.148438 -34.707031 C 52.351562 -35.804688 53.035156 -37.261719 53.191406 -39.074219 C 53.382812 -41.261719 52.863281 -43.710938 51.628906 -46.429688 L 55.601562 -48.234375 L 54.296875 -44.070312 C 52.9375 -44.496094 51.289062 -44.796875 49.34375 -44.976562 C 47.230469 -45.167969 45.074219 -45.265625 42.882812 -45.265625 C 40.59375 -45.265625 38.472656 -45.242188 36.519531 -45.191406 C 34.492188 -45.136719 32.890625 -45.113281 31.714844 -45.113281 L 27.355469 -45.113281 L 27.355469 -57.867188 L 47.691406 -57.867188 C 50.160156 -57.867188 52.128906 -58.203125 53.597656 -58.871094 C 54.964844 -59.492188 56.007812 -60.285156 56.722656 -61.242188 C 57.539062 -62.332031 58.109375 -63.5 58.433594 -64.75 C 58.800781 -66.183594 58.972656 -67.582031 58.953125 -68.949219 C 58.933594 -70.359375 58.785156 -71.59375 58.511719 -72.652344 C 58.28125 -73.546875 58.078125 -74.117188 57.90625 -74.363281 L 61.492188 -76.847656 L 61.164062 -72.496094 C 58.476562 -72.699219 55.253906 -72.878906 51.503906 -73.03125 C 47.738281 -73.183594 43.738281 -73.300781 39.507812 -73.378906 C 35.285156 -73.453125 31.078125 -73.46875 26.882812 -73.414062 C 22.679688 -73.363281 18.742188 -73.273438 15.078125 -73.148438 C 11.476562 -73.019531 8.429688 -72.832031 5.941406 -72.585938 L 5.503906 -76.925781 L 9.835938 -76.410156 C 9.589844 -74.328125 9.378906 -71.707031 9.203125 -68.539062 C 9.023438 -65.316406 8.867188 -61.804688 8.742188 -58.011719 C 8.613281 -54.207031 8.507812 -50.335938 8.433594 -46.402344 C 8.355469 -42.476562 8.316406 -38.679688 8.316406 -35.011719 C 8.316406 -31.339844 8.34375 -28.03125 8.394531 -25.085938 C 8.445312 -22.171875 8.519531 -19.867188 8.621094 -18.167969 Z M 8.621094 -18.167969 "/></g></g></g><g fill="#58675e" fill-opacity="1"><g transform="translate(597.49097, 100.867946)"><g><path d="M 46.199219 -43.582031 L 46.199219 -74.171875 L 47.222656 -75.390625 C 49.609375 -78.226562 52.359375 -80.261719 55.476562 -81.488281 C 58.546875 -82.695312 61.695312 -83.152344 64.917969 -82.859375 C 68.066406 -82.570312 70.972656 -81.679688 73.628906 -80.1875 C 76.371094 -78.648438 78.597656 -76.574219 80.304688 -73.960938 C 82.097656 -71.21875 82.992188 -68.097656 82.992188 -64.59375 L 83.03125 -57.992188 L 83.109375 -48.191406 L 83.1875 -36.554688 C 83.210938 -32.449219 83.210938 -28.386719 83.1875 -24.359375 C 83.160156 -20.320312 83.09375 -16.511719 82.992188 -12.9375 C 82.886719 -9.328125 82.726562 -6.167969 82.515625 -3.457031 L 82.386719 -1.855469 L 81.25 -0.714844 C 79.109375 1.425781 76.359375 3.054688 72.992188 4.175781 C 69.75 5.257812 66.261719 5.691406 62.523438 5.480469 C 58.75 5.265625 55.0625 4.261719 51.453125 2.472656 C 47.738281 0.632812 44.484375 -2.203125 41.6875 -6.035156 C 40.53125 -7.632812 39.34375 -9.417969 38.121094 -11.398438 C 36.929688 -13.335938 35.785156 -15.273438 34.699219 -17.210938 C 33.628906 -19.117188 32.671875 -20.84375 31.835938 -22.386719 C 31.085938 -23.773438 30.519531 -24.734375 30.144531 -25.277344 L 29.863281 -25.683594 L 29.683594 -26.140625 C 29.761719 -25.9375 29.875 -25.753906 30.023438 -25.585938 C 29.769531 -25.875 29.53125 -26.167969 29.3125 -26.460938 L 32.800781 -29.078125 L 32.800781 -24.71875 C 33.109375 -24.71875 33.382812 -24.746094 33.625 -24.808594 C 33.175781 -24.695312 32.71875 -24.640625 32.257812 -24.640625 L 32.257812 -29 L 36.621094 -29.097656 C 36.671875 -26.816406 36.746094 -24.730469 36.847656 -22.835938 L 37.15625 -17.101562 C 37.265625 -15.15625 37.332031 -13.078125 37.355469 -10.871094 C 37.382812 -8.679688 37.371094 -6.167969 37.316406 -3.332031 L 37.28125 -1.3125 L 35.714844 -0.03125 C 32.683594 2.441406 29.539062 4.09375 26.28125 4.925781 C 23.058594 5.746094 19.945312 5.914062 16.945312 5.429688 C 13.964844 4.949219 11.273438 3.960938 8.863281 2.464844 C 6.425781 0.949219 4.464844 -0.90625 2.980469 -3.097656 C 1.367188 -5.480469 0.523438 -8.027344 0.449219 -10.734375 C 0.34375 -13.945312 0.253906 -17.484375 0.175781 -21.351562 L -0.0195312 -33.390625 C -0.0703125 -37.582031 -0.0976562 -41.699219 -0.0976562 -45.75 L -0.0585938 -57.203125 C -0.03125 -60.851562 0.0351562 -64.082031 0.136719 -66.890625 C 0.246094 -69.75 0.382812 -71.980469 0.546875 -73.574219 L 0.730469 -75.339844 L 2.09375 -76.476562 C 4.367188 -78.371094 7.113281 -79.867188 10.332031 -80.972656 C 13.542969 -82.074219 16.894531 -82.578125 20.390625 -82.488281 C 24.050781 -82.390625 27.539062 -81.457031 30.859375 -79.6875 C 34.285156 -77.859375 37.136719 -75.050781 39.410156 -71.257812 C 40.777344 -68.949219 41.996094 -66.851562 43.066406 -64.96875 L 46.171875 -59.496094 L 49.320312 -53.898438 L 53.097656 -47.175781 L 53.140625 -47.082031 C 53.230469 -46.90625 53.324219 -46.738281 53.425781 -46.582031 C 53.625 -46.265625 53.816406 -45.960938 53.988281 -45.667969 L 50.25 -43.425781 L 47.164062 -46.507812 C 48.066406 -47.414062 49.148438 -47.863281 50.402344 -47.863281 C 49.25 -47.863281 48.273438 -47.464844 47.476562 -46.664062 L 50.558594 -43.582031 Z M 54.921875 -43.582031 L 54.921875 -41.773438 L 53.644531 -40.496094 C 52.742188 -39.59375 51.660156 -39.140625 50.402344 -39.140625 C 51.558594 -39.140625 52.535156 -39.539062 53.332031 -40.339844 L 49.382812 -36.390625 L 46.507812 -41.179688 C 46.375 -41.40625 46.226562 -41.644531 46.066406 -41.898438 C 45.804688 -42.308594 45.5625 -42.734375 45.339844 -43.179688 L 49.242188 -45.132812 L 45.4375 -42.996094 L 41.71875 -49.621094 L 38.585938 -55.191406 L 35.484375 -60.652344 C 34.4375 -62.492188 33.253906 -64.53125 31.929688 -66.769531 C 30.484375 -69.183594 28.757812 -70.921875 26.753906 -71.988281 C 24.648438 -73.113281 22.449219 -73.707031 20.164062 -73.765625 C 17.714844 -73.828125 15.382812 -73.480469 13.164062 -72.722656 C 10.957031 -71.964844 9.128906 -70.980469 7.679688 -69.773438 L 4.886719 -73.125 L 9.222656 -72.675781 C 9.078125 -71.273438 8.957031 -69.234375 8.855469 -66.566406 C 8.753906 -63.84375 8.691406 -60.710938 8.664062 -57.175781 L 8.628906 -45.75 C 8.628906 -41.738281 8.652344 -37.664062 8.703125 -33.53125 L 8.898438 -21.527344 C 8.976562 -17.695312 9.066406 -14.179688 9.167969 -10.976562 C 9.195312 -9.964844 9.542969 -8.96875 10.203125 -7.988281 C 10.992188 -6.820312 12.082031 -5.808594 13.46875 -4.945312 C 14.886719 -4.066406 16.507812 -3.476562 18.335938 -3.183594 C 20.144531 -2.890625 22.074219 -3.007812 24.125 -3.527344 C 26.136719 -4.042969 28.164062 -5.128906 30.199219 -6.792969 L 32.957031 -3.410156 L 28.59375 -3.492188 C 28.644531 -6.238281 28.660156 -8.664062 28.632812 -10.765625 C 28.609375 -12.847656 28.546875 -14.804688 28.445312 -16.628906 L 28.136719 -22.371094 C 28.03125 -24.355469 27.949219 -26.535156 27.898438 -28.90625 L 27.796875 -33.363281 L 32.257812 -33.363281 C 32.003906 -33.363281 31.753906 -33.332031 31.511719 -33.273438 C 31.960938 -33.386719 32.390625 -33.441406 32.800781 -33.441406 L 34.984375 -33.441406 L 36.292969 -31.695312 C 36.378906 -31.578125 36.480469 -31.457031 36.589844 -31.332031 C 37.097656 -30.75 37.496094 -30.101562 37.78125 -29.382812 L 33.730469 -27.761719 L 37.320312 -30.242188 C 37.875 -29.441406 38.601562 -28.210938 39.503906 -26.546875 C 40.320312 -25.039062 41.253906 -23.351562 42.304688 -21.484375 C 43.335938 -19.648438 44.417969 -17.8125 45.546875 -15.976562 C 46.65625 -14.179688 47.714844 -12.582031 48.730469 -11.179688 C 50.691406 -8.496094 52.890625 -6.550781 55.328125 -5.34375 C 57.871094 -4.082031 60.433594 -3.378906 63.019531 -3.230469 C 65.644531 -3.082031 68.046875 -3.371094 70.234375 -4.097656 C 72.296875 -4.785156 73.910156 -5.714844 75.082031 -6.882812 L 78.164062 -3.800781 L 73.816406 -4.140625 C 74.019531 -6.707031 74.167969 -9.722656 74.269531 -13.195312 C 74.371094 -16.703125 74.4375 -20.441406 74.460938 -24.417969 C 74.488281 -28.402344 74.488281 -32.429688 74.460938 -36.496094 L 74.386719 -48.121094 L 74.308594 -57.9375 L 74.269531 -64.59375 C 74.269531 -66.363281 73.847656 -67.894531 73.003906 -69.1875 C 72.074219 -70.605469 70.859375 -71.738281 69.363281 -72.578125 C 67.78125 -73.464844 66.035156 -73.996094 64.117188 -74.171875 C 62.273438 -74.339844 60.457031 -74.074219 58.671875 -73.371094 C 56.925781 -72.683594 55.335938 -71.484375 53.898438 -69.773438 L 50.558594 -72.582031 L 54.921875 -72.582031 Z M 54.921875 -43.582031 "/></g></g></g><g fill="#58675e" fill-opacity="1"><g transform="translate(681.155653, 100.867946)"><g><path d="M 73.183594 -80.035156 C 74.355469 -78.492188 75.289062 -76.4375 75.980469 -73.871094 C 76.632812 -71.453125 76.925781 -68.859375 76.867188 -66.089844 C 76.800781 -63.171875 76.191406 -60.371094 75.039062 -57.679688 C 73.796875 -54.78125 71.835938 -52.347656 69.152344 -50.378906 C 66.421875 -48.371094 62.894531 -47.238281 58.574219 -46.980469 C 57.238281 -46.929688 56.148438 -46.867188 55.3125 -46.792969 C 54.285156 -46.707031 53.605469 -46.664062 53.273438 -46.664062 L 53.273438 -51.023438 L 57.632812 -51.179688 C 57.738281 -48.246094 57.804688 -45.023438 57.828125 -41.519531 C 57.855469 -38.023438 57.84375 -34.425781 57.789062 -30.722656 C 57.738281 -27.007812 57.632812 -23.386719 57.476562 -19.851562 C 57.320312 -16.328125 57.136719 -13.035156 56.925781 -9.976562 C 56.714844 -6.839844 56.441406 -4.15625 56.117188 -1.925781 L 55.925781 -0.632812 L 55.054688 0.347656 C 53.226562 2.394531 50.933594 3.847656 48.175781 4.707031 C 45.582031 5.515625 42.847656 5.738281 39.96875 5.375 C 37.089844 5.011719 34.320312 4 31.660156 2.347656 C 29.023438 0.707031 26.71875 -1.554688 24.742188 -4.4375 C 22.769531 -7.324219 21.386719 -10.875 20.601562 -15.101562 C 20.363281 -16.351562 20.164062 -18.265625 19.996094 -20.851562 C 19.839844 -23.289062 19.695312 -26.140625 19.5625 -29.410156 C 19.433594 -32.679688 19.34375 -36.179688 19.289062 -39.914062 C 19.238281 -43.648438 19.238281 -47.398438 19.289062 -51.164062 L 23.652344 -51.101562 L 24 -46.753906 C 21.285156 -46.535156 18.492188 -46.441406 15.621094 -46.46875 C 12.601562 -46.496094 9.691406 -46.796875 6.882812 -47.371094 L 5.273438 -47.699219 L 4.28125 -49.003906 C 2.917969 -50.796875 1.933594 -53.023438 1.332031 -55.675781 C 0.761719 -58.167969 0.601562 -60.78125 0.851562 -63.515625 C 1.105469 -66.308594 1.835938 -68.972656 3.039062 -71.507812 C 4.34375 -74.253906 6.257812 -76.53125 8.78125 -78.339844 C 11.363281 -80.1875 14.539062 -81.246094 18.304688 -81.507812 C 20.042969 -81.617188 22.304688 -81.699219 25.082031 -81.75 C 27.820312 -81.804688 30.875 -81.828125 34.234375 -81.828125 L 44.511719 -81.828125 L 54.722656 -81.789062 L 63.605469 -81.75 L 71.875 -81.75 Z M 66.242188 -74.746094 L 69.714844 -77.390625 L 69.714844 -73.027344 L 63.566406 -73.027344 L 54.691406 -73.066406 L 44.511719 -73.105469 L 34.234375 -73.105469 C 30.929688 -73.105469 27.933594 -73.078125 25.246094 -73.027344 C 22.59375 -72.976562 20.484375 -72.902344 18.917969 -72.804688 C 16.789062 -72.65625 15.105469 -72.136719 13.863281 -71.246094 C 12.558594 -70.3125 11.578125 -69.152344 10.917969 -67.765625 C 10.160156 -66.164062 9.699219 -64.484375 9.539062 -62.726562 C 9.375 -60.910156 9.472656 -59.207031 9.835938 -57.617188 C 10.160156 -56.1875 10.625 -55.078125 11.226562 -54.285156 L 7.753906 -51.644531 L 8.625 -55.917969 C 10.886719 -55.457031 13.246094 -55.214844 15.707031 -55.191406 C 18.316406 -55.167969 20.847656 -55.253906 23.304688 -55.449219 L 28.078125 -55.832031 L 28.011719 -51.042969 C 27.960938 -47.359375 27.960938 -43.691406 28.011719 -40.035156 C 28.0625 -36.378906 28.152344 -32.949219 28.28125 -29.757812 C 28.410156 -26.5625 28.550781 -23.78125 28.703125 -21.410156 C 28.84375 -19.1875 29.003906 -17.613281 29.179688 -16.691406 C 29.742188 -13.679688 30.660156 -11.238281 31.941406 -9.367188 C 33.226562 -7.492188 34.667969 -6.058594 36.269531 -5.0625 C 37.847656 -4.078125 39.445312 -3.484375 41.0625 -3.28125 C 42.6875 -3.074219 44.191406 -3.1875 45.578125 -3.621094 C 46.800781 -4.003906 47.789062 -4.617188 48.546875 -5.464844 L 51.800781 -2.558594 L 47.484375 -3.191406 C 47.777344 -5.199219 48.023438 -7.660156 48.222656 -10.574219 C 48.429688 -13.5625 48.605469 -16.785156 48.761719 -20.238281 C 48.914062 -23.683594 49.015625 -27.21875 49.066406 -30.847656 C 49.117188 -34.484375 49.132812 -38.023438 49.105469 -41.453125 C 49.078125 -44.875 49.015625 -48.015625 48.914062 -50.867188 L 48.753906 -55.386719 L 53.273438 -55.386719 C 53.355469 -55.386719 53.789062 -55.421875 54.566406 -55.488281 C 55.539062 -55.570312 56.703125 -55.636719 58.054688 -55.6875 C 60.660156 -55.84375 62.640625 -56.417969 63.992188 -57.410156 C 65.394531 -58.441406 66.402344 -59.675781 67.023438 -61.117188 C 67.730469 -62.769531 68.105469 -64.492188 68.144531 -66.28125 C 68.1875 -68.214844 67.988281 -69.988281 67.554688 -71.601562 C 67.160156 -73.066406 66.722656 -74.117188 66.242188 -74.746094 Z M 66.242188 -74.746094 "/></g></g></g><g fill="#58675e" fill-opacity="1"><g transform="translate(757.376596, 100.867946)"><g><path d="M 58.902344 -47.367188 C 63.441406 -44.558594 66.839844 -41.242188 69.089844 -37.417969 C 71.34375 -33.589844 72.566406 -29.582031 72.753906 -25.398438 C 72.933594 -21.34375 72.328125 -17.441406 70.933594 -13.683594 C 69.546875 -9.941406 67.535156 -6.636719 64.902344 -3.761719 C 62.214844 -0.828125 59.125 1.359375 55.628906 2.792969 C 53.273438 3.734375 50.460938 4.515625 47.183594 5.136719 C 43.96875 5.75 40.496094 6.121094 36.761719 6.257812 C 33 6.398438 29.148438 6.203125 25.210938 5.679688 C 21.183594 5.144531 17.296875 4.175781 13.546875 2.765625 C 9.664062 1.304688 6.144531 -0.710938 2.984375 -3.289062 L 2.605469 -3.59375 L 2.304688 -3.976562 C 0.3125 -6.519531 -0.878906 -9.300781 -1.265625 -12.320312 C -1.636719 -15.230469 -1.34375 -18.03125 -0.390625 -20.726562 C 0.570312 -23.441406 2.074219 -25.75 4.121094 -27.65625 C 6.296875 -29.683594 8.882812 -30.933594 11.878906 -31.410156 C 14.90625 -31.890625 18.101562 -31.308594 21.460938 -29.664062 C 24.792969 -28.019531 27.902344 -26.910156 30.78125 -26.339844 C 33.433594 -25.8125 35.542969 -25.730469 37.113281 -26.082031 C 37.554688 -26.183594 37.839844 -26.285156 37.96875 -26.386719 C 37.855469 -26.296875 37.777344 -26.175781 37.738281 -26.015625 C 37.753906 -26.074219 37.761719 -26.109375 37.761719 -26.125 C 37.757812 -26.070312 37.769531 -26.003906 37.789062 -25.925781 C 37.828125 -25.769531 37.878906 -25.664062 37.933594 -25.609375 C 37.953125 -25.59375 37.964844 -25.585938 37.96875 -25.578125 C 37.953125 -25.59375 37.925781 -25.605469 37.894531 -25.625 C 37.753906 -25.699219 37.570312 -25.773438 37.339844 -25.84375 C 36.664062 -26.054688 35.773438 -26.199219 34.660156 -26.28125 C 31.222656 -26.5625 27.804688 -27.148438 24.40625 -28.039062 C 20.875 -28.964844 17.574219 -30.3125 14.496094 -32.082031 C 11.226562 -33.964844 8.46875 -36.429688 6.222656 -39.480469 C 3.925781 -42.59375 2.410156 -46.300781 1.671875 -50.597656 C 1.402344 -52.289062 1.375 -54.261719 1.589844 -56.519531 C 1.804688 -58.761719 2.347656 -61.113281 3.214844 -63.566406 C 4.109375 -66.09375 5.449219 -68.566406 7.230469 -70.984375 C 9.054688 -73.457031 11.441406 -75.6875 14.390625 -77.671875 C 17.332031 -79.652344 20.898438 -81.199219 25.097656 -82.304688 C 27.9375 -83.101562 30.957031 -83.597656 34.15625 -83.796875 C 37.273438 -83.992188 40.378906 -83.953125 43.46875 -83.671875 C 46.617188 -83.390625 49.570312 -82.84375 52.324219 -82.042969 C 55.222656 -81.195312 57.679688 -80.113281 59.699219 -78.789062 C 62.96875 -76.585938 65.367188 -74.175781 66.890625 -71.558594 C 68.484375 -68.820312 69.265625 -66.054688 69.226562 -63.257812 C 69.191406 -60.558594 68.542969 -58.027344 67.273438 -55.667969 C 66.066406 -53.421875 64.488281 -51.507812 62.535156 -49.921875 C 60.507812 -48.28125 58.265625 -47.179688 55.796875 -46.617188 L 53.15625 -46.011719 L 51.441406 -48.113281 C 50.695312 -49.03125 49.601562 -49.855469 48.160156 -50.585938 C 46.480469 -51.4375 44.660156 -52.09375 42.695312 -52.554688 C 40.742188 -53.015625 38.910156 -53.238281 37.199219 -53.214844 C 35.785156 -53.199219 34.714844 -53.011719 33.984375 -52.652344 C 33.960938 -52.640625 33.945312 -52.632812 33.929688 -52.625 C 33.9375 -52.628906 33.945312 -52.632812 33.960938 -52.644531 C 34.027344 -52.699219 34.09375 -52.773438 34.15625 -52.863281 C 34.292969 -53.0625 34.363281 -53.246094 34.367188 -53.414062 L 30.011719 -53.582031 L 34.371094 -53.582031 C 34.371094 -53.890625 34.292969 -54.191406 34.136719 -54.488281 C 34.015625 -54.722656 33.871094 -54.898438 33.710938 -55.019531 C 33.640625 -55.070312 33.59375 -55.105469 33.566406 -55.117188 C 33.640625 -55.082031 33.75 -55.042969 33.890625 -55 C 34.34375 -54.867188 34.945312 -54.75 35.695312 -54.652344 C 41.730469 -53.882812 46.726562 -52.722656 50.679688 -51.167969 C 54.554688 -49.648438 57.304688 -48.375 58.933594 -47.347656 Z M 54.285156 -39.964844 C 53.121094 -40.699219 50.855469 -41.726562 47.492188 -43.046875 C 44.210938 -44.339844 39.898438 -45.324219 34.558594 -46.003906 C 31.839844 -46.359375 29.8125 -47.039062 28.476562 -48.039062 C 27.59375 -48.703125 26.910156 -49.492188 26.425781 -50.410156 C 25.90625 -51.390625 25.648438 -52.449219 25.648438 -53.582031 L 25.648438 -53.667969 L 25.652344 -53.75 C 25.710938 -55.265625 26.148438 -56.617188 26.96875 -57.8125 C 27.742188 -58.9375 28.800781 -59.828125 30.144531 -60.484375 C 32.050781 -61.421875 34.367188 -61.90625 37.089844 -61.9375 C 39.515625 -61.96875 42.050781 -61.671875 44.699219 -61.046875 C 47.335938 -60.425781 49.804688 -59.53125 52.105469 -58.367188 C 54.644531 -57.078125 56.679688 -55.5 58.207031 -53.625 L 54.824219 -50.871094 L 53.851562 -55.121094 C 55.003906 -55.386719 56.066406 -55.910156 57.039062 -56.703125 C 58.085938 -57.546875 58.933594 -58.578125 59.589844 -59.796875 C 60.183594 -60.902344 60.488281 -62.09375 60.503906 -63.371094 C 60.519531 -64.558594 60.136719 -65.824219 59.351562 -67.167969 C 58.5 -68.632812 57.019531 -70.078125 54.914062 -71.496094 C 53.621094 -72.339844 51.945312 -73.066406 49.878906 -73.667969 C 47.671875 -74.3125 45.273438 -74.75 42.683594 -74.984375 C 40.035156 -75.222656 37.375 -75.257812 34.703125 -75.089844 C 32.113281 -74.929688 29.652344 -74.523438 27.324219 -73.871094 C 24.074219 -73.011719 21.390625 -71.867188 19.265625 -70.4375 C 17.148438 -69.011719 15.476562 -67.46875 14.25 -65.804688 C 12.980469 -64.085938 12.046875 -62.371094 11.441406 -60.660156 C 10.808594 -58.875 10.421875 -57.21875 10.273438 -55.6875 C 10.128906 -54.171875 10.128906 -52.964844 10.269531 -52.070312 C 10.773438 -49.132812 11.765625 -46.660156 13.242188 -44.65625 C 14.769531 -42.589844 16.636719 -40.917969 18.847656 -39.644531 C 21.25 -38.261719 23.839844 -37.207031 26.617188 -36.476562 C 29.527344 -35.714844 32.414062 -35.214844 35.285156 -34.980469 C 39.21875 -34.699219 42.109375 -33.683594 43.953125 -31.929688 C 45.09375 -30.839844 45.855469 -29.570312 46.230469 -28.121094 C 46.59375 -26.734375 46.570312 -25.285156 46.167969 -23.769531 C 45.710938 -22.058594 44.78125 -20.648438 43.375 -19.539062 C 42.210938 -18.621094 40.765625 -17.964844 39.035156 -17.574219 C 36.261719 -16.945312 32.945312 -17.015625 29.082031 -17.78125 C 25.449219 -18.503906 21.628906 -19.851562 17.621094 -21.828125 C 15.914062 -22.664062 14.457031 -22.984375 13.246094 -22.792969 C 12.003906 -22.597656 10.945312 -22.089844 10.070312 -21.273438 C 9.066406 -20.339844 8.320312 -19.183594 7.832031 -17.8125 C 7.339844 -16.421875 7.195312 -14.960938 7.390625 -13.425781 C 7.574219 -11.996094 8.167969 -10.640625 9.171875 -9.359375 L 5.738281 -6.667969 L 8.492188 -10.050781 C 10.917969 -8.074219 13.625 -6.527344 16.617188 -5.402344 C 19.746094 -4.226562 22.992188 -3.414062 26.359375 -2.96875 C 29.8125 -2.507812 33.171875 -2.339844 36.441406 -2.460938 C 39.738281 -2.582031 42.777344 -2.90625 45.558594 -3.433594 C 48.28125 -3.949219 50.53125 -4.5625 52.3125 -5.277344 C 54.609375 -6.21875 56.660156 -7.675781 58.46875 -9.652344 C 60.335938 -11.691406 61.761719 -14.042969 62.753906 -16.714844 C 63.738281 -19.367188 64.164062 -22.132812 64.035156 -25.007812 C 63.914062 -27.75 63.09375 -30.410156 61.574219 -32.992188 C 60.050781 -35.578125 57.632812 -37.894531 54.3125 -39.949219 Z M 54.285156 -39.964844 "/></g></g></g><g fill="#a6ccc5" fill-opacity="1"><g transform="translate(9.04688, 100.867946)"><g><path d="M 1.15625 -23.421875 C 1.78125 -26.515625 2.597656 -29.988281 3.609375 -33.84375 C 4.617188 -37.695312 5.753906 -41.648438 7.015625 -45.703125 C 8.285156 -49.765625 9.578125 -53.695312 10.890625 -57.5 C 12.210938 -61.300781 13.503906 -64.773438 14.765625 -67.921875 C 16.035156 -71.078125 17.160156 -73.613281 18.140625 -75.53125 C 20.265625 -76.25 22.796875 -76.914062 25.734375 -77.53125 C 28.679688 -78.15625 31.8125 -78.503906 35.125 -78.578125 C 38.4375 -78.660156 41.71875 -78.234375 44.96875 -77.296875 C 48.226562 -76.367188 51.226562 -74.71875 53.96875 -72.34375 C 56.707031 -69.96875 58.957031 -66.632812 60.71875 -62.34375 C 61.539062 -60.269531 62.492188 -57.617188 63.578125 -54.390625 C 64.671875 -51.160156 65.8125 -47.582031 67 -43.65625 C 68.1875 -39.726562 69.347656 -35.679688 70.484375 -31.515625 C 71.617188 -27.359375 72.664062 -23.300781 73.625 -19.34375 C 74.582031 -15.394531 75.34375 -11.789062 75.90625 -8.53125 C 75.757812 -7.132812 75.035156 -5.75 73.734375 -4.375 C 72.441406 -3.007812 70.800781 -1.847656 68.8125 -0.890625 C 66.820312 0.0664062 64.675781 0.695312 62.375 1 C 60.082031 1.3125 57.796875 1.128906 55.515625 0.453125 C 53.242188 -0.210938 51.191406 -1.523438 49.359375 -3.484375 C 47.523438 -5.453125 46.085938 -8.191406 45.046875 -11.703125 C 42.617188 -11.804688 40.085938 -11.832031 37.453125 -11.78125 C 34.816406 -11.726562 32.257812 -11.726562 29.78125 -11.78125 C 29.101562 -10.175781 28.46875 -8.414062 27.875 -6.5 C 27.28125 -4.59375 26.695312 -2.632812 26.125 -0.625 C 21.375 1.132812 17.238281 1.769531 13.71875 1.28125 C 10.207031 0.789062 7.378906 -0.5625 5.234375 -2.78125 C 3.085938 -5.007812 1.664062 -7.90625 0.96875 -11.46875 C 0.269531 -15.039062 0.332031 -19.023438 1.15625 -23.421875 Z M 32.796875 -33.96875 C 34.453125 -33.96875 36.054688 -33.96875 37.609375 -33.96875 C 39.160156 -33.96875 40.738281 -33.96875 42.34375 -33.96875 C 41.613281 -37.113281 40.859375 -40.222656 40.078125 -43.296875 C 39.304688 -46.378906 38.5625 -49.472656 37.84375 -52.578125 C 37.6875 -52.523438 37.453125 -52.5 37.140625 -52.5 C 36.472656 -49.445312 35.765625 -46.394531 35.015625 -43.34375 C 34.265625 -40.289062 33.523438 -37.164062 32.796875 -33.96875 Z M 32.796875 -33.96875 "/></g></g></g><g fill="#a6ccc5" fill-opacity="1"><g transform="translate(86.043183, 100.867946)"><g><path d="M 56.609375 -43.65625 C 60.535156 -41.226562 63.441406 -38.410156 65.328125 -35.203125 C 67.210938 -31.992188 68.234375 -28.65625 68.390625 -25.1875 C 68.546875 -21.726562 68.03125 -18.394531 66.84375 -15.1875 C 65.65625 -11.988281 63.9375 -9.160156 61.6875 -6.703125 C 59.4375 -4.253906 56.863281 -2.429688 53.96875 -1.234375 C 51.90625 -0.410156 49.375 0.28125 46.375 0.84375 C 43.375 1.414062 40.113281 1.765625 36.59375 1.890625 C 33.082031 2.023438 29.476562 1.847656 25.78125 1.359375 C 22.082031 0.867188 18.515625 -0.0195312 15.078125 -1.3125 C 11.640625 -2.601562 8.523438 -4.390625 5.734375 -6.671875 C 4.234375 -8.578125 3.34375 -10.640625 3.0625 -12.859375 C 2.78125 -15.085938 3 -17.222656 3.71875 -19.265625 C 4.445312 -21.304688 5.570312 -23.035156 7.09375 -24.453125 C 8.613281 -25.878906 10.429688 -26.757812 12.546875 -27.09375 C 14.671875 -27.4375 17.003906 -26.988281 19.546875 -25.75 C 23.210938 -23.9375 26.671875 -22.707031 29.921875 -22.0625 C 33.179688 -21.414062 35.894531 -21.335938 38.0625 -21.828125 C 40.238281 -22.316406 41.535156 -23.335938 41.953125 -24.890625 C 42.367188 -26.441406 42.03125 -27.734375 40.9375 -28.765625 C 39.851562 -29.796875 37.863281 -30.414062 34.96875 -30.625 C 31.8125 -30.882812 28.65625 -31.425781 25.5 -32.25 C 22.351562 -33.082031 19.410156 -34.285156 16.671875 -35.859375 C 13.929688 -37.441406 11.617188 -39.507812 9.734375 -42.0625 C 7.847656 -44.625 6.59375 -47.710938 5.96875 -51.328125 C 5.757812 -52.617188 5.742188 -54.207031 5.921875 -56.09375 C 6.109375 -57.988281 6.578125 -59.992188 7.328125 -62.109375 C 8.078125 -64.234375 9.210938 -66.328125 10.734375 -68.390625 C 12.265625 -70.460938 14.296875 -72.347656 16.828125 -74.046875 C 19.359375 -75.753906 22.484375 -77.097656 26.203125 -78.078125 C 28.796875 -78.804688 31.535156 -79.257812 34.421875 -79.4375 C 37.316406 -79.625 40.195312 -79.585938 43.0625 -79.328125 C 45.9375 -79.066406 48.613281 -78.570312 51.09375 -77.84375 C 53.582031 -77.125 55.648438 -76.222656 57.296875 -75.140625 C 59.984375 -73.328125 61.921875 -71.398438 63.109375 -69.359375 C 64.304688 -67.316406 64.890625 -65.300781 64.859375 -63.3125 C 64.835938 -61.320312 64.359375 -59.457031 63.421875 -57.71875 C 62.492188 -55.988281 61.28125 -54.515625 59.78125 -53.296875 C 58.28125 -52.085938 56.628906 -51.28125 54.828125 -50.875 C 53.679688 -52.257812 52.113281 -53.457031 50.125 -54.46875 C 48.132812 -55.476562 45.988281 -56.253906 43.6875 -56.796875 C 41.394531 -57.335938 39.210938 -57.59375 37.140625 -57.5625 C 35.078125 -57.539062 33.382812 -57.207031 32.0625 -56.5625 C 30.75 -55.914062 30.066406 -54.921875 30.015625 -53.578125 C 30.015625 -52.753906 30.375 -52.070312 31.09375 -51.53125 C 31.820312 -50.988281 33.164062 -50.585938 35.125 -50.328125 C 40.8125 -49.597656 45.460938 -48.519531 49.078125 -47.09375 C 52.703125 -45.675781 55.210938 -44.53125 56.609375 -43.65625 Z M 56.609375 -43.65625 "/></g></g></g><g fill="#a6ccc5" fill-opacity="1"><g transform="translate(159.085004, 100.867946)"><g><path d="M 56.609375 -43.65625 C 60.535156 -41.226562 63.441406 -38.410156 65.328125 -35.203125 C 67.210938 -31.992188 68.234375 -28.65625 68.390625 -25.1875 C 68.546875 -21.726562 68.03125 -18.394531 66.84375 -15.1875 C 65.65625 -11.988281 63.9375 -9.160156 61.6875 -6.703125 C 59.4375 -4.253906 56.863281 -2.429688 53.96875 -1.234375 C 51.90625 -0.410156 49.375 0.28125 46.375 0.84375 C 43.375 1.414062 40.113281 1.765625 36.59375 1.890625 C 33.082031 2.023438 29.476562 1.847656 25.78125 1.359375 C 22.082031 0.867188 18.515625 -0.0195312 15.078125 -1.3125 C 11.640625 -2.601562 8.523438 -4.390625 5.734375 -6.671875 C 4.234375 -8.578125 3.34375 -10.640625 3.0625 -12.859375 C 2.78125 -15.085938 3 -17.222656 3.71875 -19.265625 C 4.445312 -21.304688 5.570312 -23.035156 7.09375 -24.453125 C 8.613281 -25.878906 10.429688 -26.757812 12.546875 -27.09375 C 14.671875 -27.4375 17.003906 -26.988281 19.546875 -25.75 C 23.210938 -23.9375 26.671875 -22.707031 29.921875 -22.0625 C 33.179688 -21.414062 35.894531 -21.335938 38.0625 -21.828125 C 40.238281 -22.316406 41.535156 -23.335938 41.953125 -24.890625 C 42.367188 -26.441406 42.03125 -27.734375 40.9375 -28.765625 C 39.851562 -29.796875 37.863281 -30.414062 34.96875 -30.625 C 31.8125 -30.882812 28.65625 -31.425781 25.5 -32.25 C 22.351562 -33.082031 19.410156 -34.285156 16.671875 -35.859375 C 13.929688 -37.441406 11.617188 -39.507812 9.734375 -42.0625 C 7.847656 -44.625 6.59375 -47.710938 5.96875 -51.328125 C 5.757812 -52.617188 5.742188 -54.207031 5.921875 -56.09375 C 6.109375 -57.988281 6.578125 -59.992188 7.328125 -62.109375 C 8.078125 -64.234375 9.210938 -66.328125 10.734375 -68.390625 C 12.265625 -70.460938 14.296875 -72.347656 16.828125 -74.046875 C 19.359375 -75.753906 22.484375 -77.097656 26.203125 -78.078125 C 28.796875 -78.804688 31.535156 -79.257812 34.421875 -79.4375 C 37.316406 -79.625 40.195312 -79.585938 43.0625 -79.328125 C 45.9375 -79.066406 48.613281 -78.570312 51.09375 -77.84375 C 53.582031 -77.125 55.648438 -76.222656 57.296875 -75.140625 C 59.984375 -73.328125 61.921875 -71.398438 63.109375 -69.359375 C 64.304688 -67.316406 64.890625 -65.300781 64.859375 -63.3125 C 64.835938 -61.320312 64.359375 -59.457031 63.421875 -57.71875 C 62.492188 -55.988281 61.28125 -54.515625 59.78125 -53.296875 C 58.28125 -52.085938 56.628906 -51.28125 54.828125 -50.875 C 53.679688 -52.257812 52.113281 -53.457031 50.125 -54.46875 C 48.132812 -55.476562 45.988281 -56.253906 43.6875 -56.796875 C 41.394531 -57.335938 39.210938 -57.59375 37.140625 -57.5625 C 35.078125 -57.539062 33.382812 -57.207031 32.0625 -56.5625 C 30.75 -55.914062 30.066406 -54.921875 30.015625 -53.578125 C 30.015625 -52.753906 30.375 -52.070312 31.09375 -51.53125 C 31.820312 -50.988281 33.164062 -50.585938 35.125 -50.328125 C 40.8125 -49.597656 45.460938 -48.519531 49.078125 -47.09375 C 52.703125 -45.675781 55.210938 -44.53125 56.609375 -43.65625 Z M 56.609375 -43.65625 "/></g></g></g><g fill="#a6ccc5" fill-opacity="1"><g transform="translate(232.126824, 100.867946)"><g><path d="M 31.875 -62.34375 C 32.125 -60.789062 32.3125 -58.550781 32.4375 -55.625 C 32.570312 -52.707031 32.648438 -49.363281 32.671875 -45.59375 C 32.703125 -41.820312 32.691406 -37.894531 32.640625 -33.8125 C 32.585938 -29.726562 32.484375 -25.691406 32.328125 -21.703125 C 32.179688 -17.722656 32.003906 -14.066406 31.796875 -10.734375 C 31.585938 -7.398438 31.328125 -4.648438 31.015625 -2.484375 C 29.722656 -1.085938 28.082031 -0.0820312 26.09375 0.53125 C 24.101562 1.15625 21.984375 1.328125 19.734375 1.046875 C 17.484375 0.765625 15.296875 -0.00390625 13.171875 -1.265625 C 11.054688 -2.535156 9.1875 -4.347656 7.5625 -6.703125 C 5.9375 -9.054688 4.785156 -11.96875 4.109375 -15.4375 C 3.898438 -16.414062 3.71875 -18.054688 3.5625 -20.359375 C 3.40625 -22.660156 3.265625 -25.375 3.140625 -28.5 C 3.015625 -31.625 2.925781 -34.992188 2.875 -38.609375 C 2.820312 -42.234375 2.804688 -45.867188 2.828125 -49.515625 C 2.859375 -53.160156 2.921875 -56.632812 3.015625 -59.9375 C 3.117188 -63.25 3.285156 -66.179688 3.515625 -68.734375 C 3.753906 -71.296875 4.054688 -73.25 4.421875 -74.59375 C 5.867188 -75.882812 7.640625 -76.863281 9.734375 -77.53125 C 11.828125 -78.207031 14.035156 -78.492188 16.359375 -78.390625 C 18.679688 -78.285156 20.914062 -77.664062 23.0625 -76.53125 C 25.207031 -75.394531 27.066406 -73.675781 28.640625 -71.375 C 30.222656 -69.070312 31.300781 -66.0625 31.875 -62.34375 Z M 31.875 -62.34375 "/></g></g></g><g fill="#a6ccc5" fill-opacity="1"><g transform="translate(269.190504, 100.867946)"><g><path d="M 50.484375 -52.421875 C 48.148438 -52.984375 46.066406 -53.175781 44.234375 -53 C 42.398438 -52.820312 40.453125 -52.0625 38.390625 -50.71875 C 35.691406 -49.0625 33.957031 -46.863281 33.1875 -44.125 C 32.414062 -41.382812 32.234375 -38.539062 32.640625 -35.59375 C 33.054688 -32.070312 34.363281 -29.367188 36.5625 -27.484375 C 38.757812 -25.597656 41.226562 -24.679688 43.96875 -24.734375 C 46.082031 -24.734375 47.722656 -25.171875 48.890625 -26.046875 C 50.054688 -26.929688 50.910156 -28.070312 51.453125 -29.46875 C 51.992188 -30.863281 52.328125 -32.359375 52.453125 -33.953125 C 52.585938 -35.554688 52.679688 -37.109375 52.734375 -38.609375 C 53.453125 -39.597656 54.738281 -40.335938 56.59375 -40.828125 C 58.457031 -41.316406 60.566406 -41.492188 62.921875 -41.359375 C 65.273438 -41.234375 67.578125 -40.726562 69.828125 -39.84375 C 72.078125 -38.96875 73.960938 -37.664062 75.484375 -35.9375 C 77.015625 -34.207031 77.851562 -32 78 -29.3125 C 78.101562 -27.289062 77.894531 -24.960938 77.375 -22.328125 C 76.863281 -19.691406 75.859375 -17.015625 74.359375 -14.296875 C 72.859375 -11.585938 70.773438 -9.066406 68.109375 -6.734375 C 65.453125 -4.410156 62.066406 -2.523438 57.953125 -1.078125 C 53.847656 0.359375 48.875 1.078125 43.03125 1.078125 C 36.726562 1.078125 31.363281 0.289062 26.9375 -1.28125 C 22.519531 -2.851562 18.875 -4.894531 16 -7.40625 C 13.132812 -9.914062 10.847656 -12.613281 9.140625 -15.5 C 7.441406 -18.394531 6.125 -21.164062 5.1875 -23.8125 C 3.644531 -28.25 2.910156 -32.988281 2.984375 -38.03125 C 3.066406 -43.070312 3.851562 -47.867188 5.34375 -52.421875 C 7.050781 -57.484375 9.632812 -61.757812 13.09375 -65.25 C 16.5625 -68.738281 20.703125 -71.644531 25.515625 -73.96875 C 31.972656 -77.125 39.015625 -78.5625 46.640625 -78.28125 C 54.265625 -78 62.210938 -75.476562 70.484375 -70.71875 C 71.253906 -67.769531 71.378906 -65.117188 70.859375 -62.765625 C 70.347656 -60.410156 69.394531 -58.394531 68 -56.71875 C 66.601562 -55.039062 64.921875 -53.75 62.953125 -52.84375 C 60.992188 -51.9375 58.925781 -51.429688 56.75 -51.328125 C 54.582031 -51.222656 52.492188 -51.585938 50.484375 -52.421875 Z M 50.484375 -52.421875 "/></g></g></g><g fill="#a6ccc5" fill-opacity="1"><g transform="translate(349.831155, 100.867946)"><g><path d="M 50.5625 -43.578125 C 50.5625 -47.085938 50.5625 -50.367188 50.5625 -53.421875 C 50.5625 -56.472656 50.5625 -59.535156 50.5625 -62.609375 C 50.5625 -65.691406 50.5625 -69.015625 50.5625 -72.578125 C 52.46875 -74.847656 54.632812 -76.460938 57.0625 -77.421875 C 59.5 -78.378906 61.984375 -78.738281 64.515625 -78.5 C 67.046875 -78.269531 69.367188 -77.5625 71.484375 -76.375 C 73.609375 -75.1875 75.328125 -73.582031 76.640625 -71.5625 C 77.960938 -69.550781 78.625 -67.226562 78.625 -64.59375 C 78.625 -63.039062 78.632812 -60.828125 78.65625 -57.953125 C 78.6875 -55.085938 78.710938 -51.816406 78.734375 -48.140625 C 78.765625 -44.472656 78.789062 -40.597656 78.8125 -36.515625 C 78.84375 -32.429688 78.84375 -28.382812 78.8125 -24.375 C 78.789062 -20.375 78.726562 -16.601562 78.625 -13.0625 C 78.519531 -9.519531 78.363281 -6.429688 78.15625 -3.796875 C 76.507812 -2.140625 74.328125 -0.863281 71.609375 0.03125 C 68.890625 0.9375 65.941406 1.300781 62.765625 1.125 C 59.585938 0.945312 56.460938 0.0976562 53.390625 -1.421875 C 50.316406 -2.953125 47.585938 -5.347656 45.203125 -8.609375 C 44.117188 -10.109375 42.992188 -11.800781 41.828125 -13.6875 C 40.671875 -15.570312 39.5625 -17.457031 38.5 -19.34375 C 37.4375 -21.226562 36.488281 -22.929688 35.65625 -24.453125 C 34.832031 -25.984375 34.191406 -27.085938 33.734375 -27.765625 C 33.628906 -28.015625 33.484375 -28.242188 33.296875 -28.453125 C 33.117188 -28.660156 32.953125 -28.867188 32.796875 -29.078125 C 32.742188 -29.078125 32.664062 -29.0625 32.5625 -29.03125 C 32.457031 -29.007812 32.351562 -29 32.25 -29 C 32.300781 -26.675781 32.378906 -24.546875 32.484375 -22.609375 C 32.585938 -20.671875 32.691406 -18.753906 32.796875 -16.859375 C 32.898438 -14.972656 32.960938 -12.957031 32.984375 -10.8125 C 33.015625 -8.664062 33.003906 -6.195312 32.953125 -3.40625 C 30.421875 -1.34375 27.835938 0.0195312 25.203125 0.6875 C 22.566406 1.363281 20.046875 1.507812 17.640625 1.125 C 15.234375 0.738281 13.070312 -0.046875 11.15625 -1.234375 C 9.25 -2.429688 7.726562 -3.867188 6.59375 -5.546875 C 5.457031 -7.222656 4.863281 -8.992188 4.8125 -10.859375 C 4.707031 -14.054688 4.613281 -17.582031 4.53125 -21.4375 C 4.457031 -25.289062 4.394531 -29.296875 4.34375 -33.453125 C 4.289062 -37.617188 4.265625 -41.71875 4.265625 -45.75 C 4.265625 -49.78125 4.273438 -53.59375 4.296875 -57.1875 C 4.328125 -60.78125 4.394531 -63.957031 4.5 -66.71875 C 4.601562 -69.488281 4.734375 -71.625 4.890625 -73.125 C 6.742188 -74.675781 9.023438 -75.914062 11.734375 -76.84375 C 14.453125 -77.769531 17.296875 -78.191406 20.265625 -78.109375 C 23.242188 -78.035156 26.085938 -77.273438 28.796875 -75.828125 C 31.515625 -74.390625 33.804688 -72.117188 35.671875 -69.015625 C 37.015625 -66.734375 38.210938 -64.660156 39.265625 -62.796875 C 40.328125 -60.941406 41.363281 -59.125 42.375 -57.34375 C 43.382812 -55.5625 44.429688 -53.695312 45.515625 -51.75 C 46.597656 -49.8125 47.835938 -47.601562 49.234375 -45.125 C 49.390625 -44.8125 49.554688 -44.515625 49.734375 -44.234375 C 49.921875 -43.953125 50.09375 -43.679688 50.25 -43.421875 C 50.300781 -43.472656 50.351562 -43.5 50.40625 -43.5 C 50.457031 -43.5 50.507812 -43.523438 50.5625 -43.578125 Z M 50.5625 -43.578125 "/></g></g></g><g fill="#a6ccc5" fill-opacity="1"><g transform="translate(433.495816, 100.867946)"><g><path d="M 49.546875 -37.296875 C 49.648438 -37.554688 49.738281 -37.8125 49.8125 -38.0625 C 49.894531 -38.320312 49.960938 -38.554688 50.015625 -38.765625 C 51.203125 -43.941406 52.398438 -49.085938 53.609375 -54.203125 C 54.828125 -59.316406 56.03125 -64.457031 57.21875 -69.625 C 57.425781 -70.351562 57.671875 -71.09375 57.953125 -71.84375 C 58.242188 -72.59375 58.492188 -73.351562 58.703125 -74.125 C 61.796875 -76.144531 65.023438 -77.320312 68.390625 -77.65625 C 71.753906 -77.988281 74.929688 -77.546875 77.921875 -76.328125 C 80.921875 -75.117188 83.441406 -73.222656 85.484375 -70.640625 C 87.523438 -68.054688 88.804688 -64.851562 89.328125 -61.03125 C 89.535156 -59.582031 89.78125 -57.628906 90.0625 -55.171875 C 90.34375 -52.710938 90.664062 -50.035156 91.03125 -47.140625 C 91.394531 -44.242188 91.742188 -41.363281 92.078125 -38.5 C 92.410156 -35.632812 92.707031 -33.0625 92.96875 -30.78125 C 93.488281 -26.382812 93.976562 -22.195312 94.4375 -18.21875 C 94.90625 -14.238281 95.398438 -10.050781 95.921875 -5.65625 C 94.210938 -3.488281 92.269531 -1.859375 90.09375 -0.765625 C 87.925781 0.316406 85.703125 0.894531 83.421875 0.96875 C 81.148438 1.039062 79.003906 0.65625 76.984375 -0.1875 C 74.972656 -1.039062 73.296875 -2.320312 71.953125 -4.03125 C 70.609375 -5.738281 69.8125 -7.832031 69.5625 -10.3125 C 69.300781 -12.632812 69.128906 -14.660156 69.046875 -16.390625 C 68.972656 -18.128906 68.921875 -19.835938 68.890625 -21.515625 C 68.867188 -23.191406 68.84375 -25.0625 68.8125 -27.125 C 68.789062 -29.195312 68.726562 -31.707031 68.625 -34.65625 C 68.519531 -34.707031 68.335938 -34.734375 68.078125 -34.734375 C 67.921875 -33.910156 67.765625 -33.109375 67.609375 -32.328125 C 67.460938 -31.554688 67.285156 -30.757812 67.078125 -29.9375 C 66.035156 -25.4375 64.984375 -20.921875 63.921875 -16.390625 C 62.867188 -11.867188 61.773438 -7.363281 60.640625 -2.875 C 59.609375 -2.25 58.210938 -1.691406 56.453125 -1.203125 C 54.691406 -0.710938 52.773438 -0.441406 50.703125 -0.390625 C 48.640625 -0.335938 46.613281 -0.582031 44.625 -1.125 C 42.632812 -1.664062 40.863281 -2.660156 39.3125 -4.109375 C 37.757812 -5.554688 36.675781 -7.546875 36.0625 -10.078125 C 35.59375 -11.941406 35.046875 -14.175781 34.421875 -16.78125 C 33.804688 -19.394531 33.203125 -22.003906 32.609375 -24.609375 C 32.015625 -27.222656 31.46875 -29.523438 30.96875 -31.515625 C 30.476562 -33.503906 30.109375 -34.835938 29.859375 -35.515625 C 29.597656 -31.585938 29.335938 -27.851562 29.078125 -24.3125 C 28.816406 -20.769531 28.570312 -17.210938 28.34375 -13.640625 C 28.113281 -10.078125 27.867188 -6.28125 27.609375 -2.25 C 25.078125 -0.90625 22.515625 0.0078125 19.921875 0.5 C 17.335938 0.988281 14.882812 0.960938 12.5625 0.421875 C 10.238281 -0.117188 8.25 -1.226562 6.59375 -2.90625 C 4.9375 -4.582031 3.757812 -6.921875 3.0625 -9.921875 C 2.363281 -12.921875 2.328125 -16.617188 2.953125 -21.015625 C 3.566406 -25.617188 4.378906 -30.285156 5.390625 -35.015625 C 6.398438 -39.742188 7.265625 -44.378906 7.984375 -48.921875 C 8.710938 -53.210938 9.460938 -57.503906 10.234375 -61.796875 C 11.015625 -66.085938 11.765625 -70.351562 12.484375 -74.59375 C 13.671875 -75.726562 15.3125 -76.644531 17.40625 -77.34375 C 19.5 -78.039062 21.785156 -78.398438 24.265625 -78.421875 C 26.753906 -78.453125 29.222656 -78.050781 31.671875 -77.21875 C 34.128906 -76.394531 36.3125 -75.023438 38.21875 -73.109375 C 40.132812 -71.203125 41.535156 -68.644531 42.421875 -65.4375 C 42.929688 -63.6875 43.46875 -61.582031 44.03125 -59.125 C 44.601562 -56.664062 45.195312 -54.128906 45.8125 -51.515625 C 46.4375 -48.910156 47.035156 -46.394531 47.609375 -43.96875 C 47.660156 -43.863281 47.75 -43.488281 47.875 -42.84375 C 48.007812 -42.195312 48.179688 -41.457031 48.390625 -40.625 C 48.597656 -39.800781 48.765625 -39.066406 48.890625 -38.421875 C 49.015625 -37.773438 49.101562 -37.398438 49.15625 -37.296875 C 49.257812 -37.296875 49.335938 -37.296875 49.390625 -37.296875 C 49.441406 -37.296875 49.492188 -37.296875 49.546875 -37.296875 Z M 49.546875 -37.296875 "/></g></g></g><g fill="#a6ccc5" fill-opacity="1"><g transform="translate(532.203071, 100.867946)"><g><path d="M 4.265625 -17.90625 C 4.160156 -19.664062 4.082031 -22.03125 4.03125 -25 C 3.976562 -27.976562 3.953125 -31.3125 3.953125 -35 C 3.953125 -38.695312 3.988281 -42.523438 4.0625 -46.484375 C 4.144531 -50.441406 4.25 -54.332031 4.375 -58.15625 C 4.507812 -61.976562 4.664062 -65.519531 4.84375 -68.78125 C 5.03125 -72.039062 5.25 -74.753906 5.5 -76.921875 C 8.082031 -77.179688 11.222656 -77.375 14.921875 -77.5 C 18.617188 -77.632812 22.585938 -77.726562 26.828125 -77.78125 C 31.066406 -77.832031 35.316406 -77.816406 39.578125 -77.734375 C 43.847656 -77.660156 47.878906 -77.546875 51.671875 -77.390625 C 55.472656 -77.234375 58.742188 -77.050781 61.484375 -76.84375 C 61.953125 -76.164062 62.367188 -75.128906 62.734375 -73.734375 C 63.097656 -72.335938 63.289062 -70.757812 63.3125 -69 C 63.332031 -67.25 63.109375 -65.46875 62.640625 -63.65625 C 62.179688 -61.851562 61.367188 -60.175781 60.203125 -58.625 C 59.046875 -57.070312 57.445312 -55.828125 55.40625 -54.890625 C 53.363281 -53.960938 50.789062 -53.5 47.6875 -53.5 C 46.65625 -53.5 45.695312 -53.5 44.8125 -53.5 C 43.9375 -53.5 42.957031 -53.5 41.875 -53.5 C 40.789062 -53.5 39.445312 -53.5 37.84375 -53.5 C 36.238281 -53.5 34.195312 -53.5 31.71875 -53.5 C 31.71875 -52.882812 31.71875 -52.253906 31.71875 -51.609375 C 31.71875 -50.960938 31.71875 -50.25 31.71875 -49.46875 C 32.851562 -49.46875 34.414062 -49.492188 36.40625 -49.546875 C 38.394531 -49.597656 40.550781 -49.625 42.875 -49.625 C 45.207031 -49.625 47.492188 -49.519531 49.734375 -49.3125 C 51.984375 -49.101562 53.9375 -48.742188 55.59375 -48.234375 C 57.144531 -44.816406 57.789062 -41.632812 57.53125 -38.6875 C 57.269531 -35.738281 56.117188 -33.332031 54.078125 -31.46875 C 52.035156 -29.613281 49.101562 -28.582031 45.28125 -28.375 C 43.988281 -28.320312 42.773438 -28.296875 41.640625 -28.296875 C 40.503906 -28.296875 39.1875 -28.304688 37.6875 -28.328125 C 36.1875 -28.359375 34.222656 -28.375 31.796875 -28.375 C 31.796875 -27.550781 31.796875 -26.765625 31.796875 -26.015625 C 31.796875 -25.265625 31.796875 -24.476562 31.796875 -23.65625 C 32.054688 -23.65625 32.335938 -23.65625 32.640625 -23.65625 C 32.953125 -23.65625 33.265625 -23.65625 33.578125 -23.65625 C 37.710938 -23.65625 41.859375 -23.65625 46.015625 -23.65625 C 50.179688 -23.65625 54.332031 -23.65625 58.46875 -23.65625 C 59.96875 -21.582031 60.921875 -19.289062 61.328125 -16.78125 C 61.742188 -14.28125 61.5625 -11.835938 60.78125 -9.453125 C 60.007812 -7.078125 58.535156 -5.023438 56.359375 -3.296875 C 54.191406 -1.566406 51.273438 -0.46875 47.609375 0 C 46.316406 0.15625 44.570312 0.296875 42.375 0.421875 C 40.175781 0.554688 37.757812 0.632812 35.125 0.65625 C 32.488281 0.6875 29.863281 0.675781 27.25 0.625 C 24.644531 0.570312 22.296875 0.46875 20.203125 0.3125 C 18.109375 0.15625 16.492188 -0.0507812 15.359375 -0.3125 C 11.734375 -1.238281 9.054688 -3.082031 7.328125 -5.84375 C 5.597656 -8.613281 4.578125 -12.632812 4.265625 -17.90625 Z M 4.265625 -17.90625 "/></g></g></g><g fill="#a6ccc5" fill-opacity="1"><g transform="translate(597.49097, 100.867946)"><g><path d="M 50.5625 -43.578125 C 50.5625 -47.085938 50.5625 -50.367188 50.5625 -53.421875 C 50.5625 -56.472656 50.5625 -59.535156 50.5625 -62.609375 C 50.5625 -65.691406 50.5625 -69.015625 50.5625 -72.578125 C 52.46875 -74.847656 54.632812 -76.460938 57.0625 -77.421875 C 59.5 -78.378906 61.984375 -78.738281 64.515625 -78.5 C 67.046875 -78.269531 69.367188 -77.5625 71.484375 -76.375 C 73.609375 -75.1875 75.328125 -73.582031 76.640625 -71.5625 C 77.960938 -69.550781 78.625 -67.226562 78.625 -64.59375 C 78.625 -63.039062 78.632812 -60.828125 78.65625 -57.953125 C 78.6875 -55.085938 78.710938 -51.816406 78.734375 -48.140625 C 78.765625 -44.472656 78.789062 -40.597656 78.8125 -36.515625 C 78.84375 -32.429688 78.84375 -28.382812 78.8125 -24.375 C 78.789062 -20.375 78.726562 -16.601562 78.625 -13.0625 C 78.519531 -9.519531 78.363281 -6.429688 78.15625 -3.796875 C 76.507812 -2.140625 74.328125 -0.863281 71.609375 0.03125 C 68.890625 0.9375 65.941406 1.300781 62.765625 1.125 C 59.585938 0.945312 56.460938 0.0976562 53.390625 -1.421875 C 50.316406 -2.953125 47.585938 -5.347656 45.203125 -8.609375 C 44.117188 -10.109375 42.992188 -11.800781 41.828125 -13.6875 C 40.671875 -15.570312 39.5625 -17.457031 38.5 -19.34375 C 37.4375 -21.226562 36.488281 -22.929688 35.65625 -24.453125 C 34.832031 -25.984375 34.191406 -27.085938 33.734375 -27.765625 C 33.628906 -28.015625 33.484375 -28.242188 33.296875 -28.453125 C 33.117188 -28.660156 32.953125 -28.867188 32.796875 -29.078125 C 32.742188 -29.078125 32.664062 -29.0625 32.5625 -29.03125 C 32.457031 -29.007812 32.351562 -29 32.25 -29 C 32.300781 -26.675781 32.378906 -24.546875 32.484375 -22.609375 C 32.585938 -20.671875 32.691406 -18.753906 32.796875 -16.859375 C 32.898438 -14.972656 32.960938 -12.957031 32.984375 -10.8125 C 33.015625 -8.664062 33.003906 -6.195312 32.953125 -3.40625 C 30.421875 -1.34375 27.835938 0.0195312 25.203125 0.6875 C 22.566406 1.363281 20.046875 1.507812 17.640625 1.125 C 15.234375 0.738281 13.070312 -0.046875 11.15625 -1.234375 C 9.25 -2.429688 7.726562 -3.867188 6.59375 -5.546875 C 5.457031 -7.222656 4.863281 -8.992188 4.8125 -10.859375 C 4.707031 -14.054688 4.613281 -17.582031 4.53125 -21.4375 C 4.457031 -25.289062 4.394531 -29.296875 4.34375 -33.453125 C 4.289062 -37.617188 4.265625 -41.71875 4.265625 -45.75 C 4.265625 -49.78125 4.273438 -53.59375 4.296875 -57.1875 C 4.328125 -60.78125 4.394531 -63.957031 4.5 -66.71875 C 4.601562 -69.488281 4.734375 -71.625 4.890625 -73.125 C 6.742188 -74.675781 9.023438 -75.914062 11.734375 -76.84375 C 14.453125 -77.769531 17.296875 -78.191406 20.265625 -78.109375 C 23.242188 -78.035156 26.085938 -77.273438 28.796875 -75.828125 C 31.515625 -74.390625 33.804688 -72.117188 35.671875 -69.015625 C 37.015625 -66.734375 38.210938 -64.660156 39.265625 -62.796875 C 40.328125 -60.941406 41.363281 -59.125 42.375 -57.34375 C 43.382812 -55.5625 44.429688 -53.695312 45.515625 -51.75 C 46.597656 -49.8125 47.835938 -47.601562 49.234375 -45.125 C 49.390625 -44.8125 49.554688 -44.515625 49.734375 -44.234375 C 49.921875 -43.953125 50.09375 -43.679688 50.25 -43.421875 C 50.300781 -43.472656 50.351562 -43.5 50.40625 -43.5 C 50.457031 -43.5 50.507812 -43.523438 50.5625 -43.578125 Z M 50.5625 -43.578125 "/></g></g></g><g fill="#a6ccc5" fill-opacity="1"><g transform="translate(681.155653, 100.867946)"><g><path d="M 69.703125 -77.390625 C 70.535156 -76.304688 71.222656 -74.753906 71.765625 -72.734375 C 72.304688 -70.710938 72.550781 -68.523438 72.5 -66.171875 C 72.445312 -63.828125 71.953125 -61.566406 71.015625 -59.390625 C 70.085938 -57.222656 68.601562 -55.390625 66.5625 -53.890625 C 64.519531 -52.390625 61.769531 -51.535156 58.3125 -51.328125 C 56.96875 -51.273438 55.84375 -51.207031 54.9375 -51.125 C 54.03125 -51.050781 53.472656 -51.015625 53.265625 -51.015625 C 53.367188 -48.128906 53.429688 -44.953125 53.453125 -41.484375 C 53.484375 -38.023438 53.472656 -34.457031 53.421875 -30.78125 C 53.367188 -27.113281 53.265625 -23.535156 53.109375 -20.046875 C 52.960938 -16.554688 52.785156 -13.296875 52.578125 -10.265625 C 52.367188 -7.242188 52.109375 -4.675781 51.796875 -2.5625 C 50.503906 -1.113281 48.863281 -0.0820312 46.875 0.53125 C 44.882812 1.15625 42.765625 1.328125 40.515625 1.046875 C 38.265625 0.765625 36.078125 -0.03125 33.953125 -1.34375 C 31.835938 -2.664062 29.96875 -4.515625 28.34375 -6.890625 C 26.71875 -9.273438 25.566406 -12.273438 24.890625 -15.890625 C 24.679688 -16.984375 24.5 -18.726562 24.34375 -21.125 C 24.1875 -23.53125 24.046875 -26.347656 23.921875 -29.578125 C 23.796875 -32.804688 23.707031 -36.269531 23.65625 -39.96875 C 23.601562 -43.664062 23.601562 -47.375 23.65625 -51.09375 C 21.0625 -50.894531 18.394531 -50.804688 15.65625 -50.828125 C 12.914062 -50.859375 10.28125 -51.128906 7.75 -51.640625 C 6.769531 -52.929688 6.046875 -54.597656 5.578125 -56.640625 C 5.117188 -58.679688 4.988281 -60.835938 5.1875 -63.109375 C 5.394531 -65.390625 5.988281 -67.5625 6.96875 -69.625 C 7.957031 -71.695312 9.40625 -73.414062 11.3125 -74.78125 C 13.226562 -76.15625 15.660156 -76.945312 18.609375 -77.15625 C 20.265625 -77.257812 22.445312 -77.335938 25.15625 -77.390625 C 27.875 -77.441406 30.898438 -77.46875 34.234375 -77.46875 C 37.566406 -77.46875 40.988281 -77.46875 44.5 -77.46875 C 48.019531 -77.46875 51.421875 -77.453125 54.703125 -77.421875 C 57.984375 -77.398438 60.941406 -77.390625 63.578125 -77.390625 C 66.210938 -77.390625 68.253906 -77.390625 69.703125 -77.390625 Z M 69.703125 -77.390625 "/></g></g></g><g fill="#a6ccc5" fill-opacity="1"><g transform="translate(757.376596, 100.867946)"><g><path d="M 56.609375 -43.65625 C 60.535156 -41.226562 63.441406 -38.410156 65.328125 -35.203125 C 67.210938 -31.992188 68.234375 -28.65625 68.390625 -25.1875 C 68.546875 -21.726562 68.03125 -18.394531 66.84375 -15.1875 C 65.65625 -11.988281 63.9375 -9.160156 61.6875 -6.703125 C 59.4375 -4.253906 56.863281 -2.429688 53.96875 -1.234375 C 51.90625 -0.410156 49.375 0.28125 46.375 0.84375 C 43.375 1.414062 40.113281 1.765625 36.59375 1.890625 C 33.082031 2.023438 29.476562 1.847656 25.78125 1.359375 C 22.082031 0.867188 18.515625 -0.0195312 15.078125 -1.3125 C 11.640625 -2.601562 8.523438 -4.390625 5.734375 -6.671875 C 4.234375 -8.578125 3.34375 -10.640625 3.0625 -12.859375 C 2.78125 -15.085938 3 -17.222656 3.71875 -19.265625 C 4.445312 -21.304688 5.570312 -23.035156 7.09375 -24.453125 C 8.613281 -25.878906 10.429688 -26.757812 12.546875 -27.09375 C 14.671875 -27.4375 17.003906 -26.988281 19.546875 -25.75 C 23.210938 -23.9375 26.671875 -22.707031 29.921875 -22.0625 C 33.179688 -21.414062 35.894531 -21.335938 38.0625 -21.828125 C 40.238281 -22.316406 41.535156 -23.335938 41.953125 -24.890625 C 42.367188 -26.441406 42.03125 -27.734375 40.9375 -28.765625 C 39.851562 -29.796875 37.863281 -30.414062 34.96875 -30.625 C 31.8125 -30.882812 28.65625 -31.425781 25.5 -32.25 C 22.351562 -33.082031 19.410156 -34.285156 16.671875 -35.859375 C 13.929688 -37.441406 11.617188 -39.507812 9.734375 -42.0625 C 7.847656 -44.625 6.59375 -47.710938 5.96875 -51.328125 C 5.757812 -52.617188 5.742188 -54.207031 5.921875 -56.09375 C 6.109375 -57.988281 6.578125 -59.992188 7.328125 -62.109375 C 8.078125 -64.234375 9.210938 -66.328125 10.734375 -68.390625 C 12.265625 -70.460938 14.296875 -72.347656 16.828125 -74.046875 C 19.359375 -75.753906 22.484375 -77.097656 26.203125 -78.078125 C 28.796875 -78.804688 31.535156 -79.257812 34.421875 -79.4375 C 37.316406 -79.625 40.195312 -79.585938 43.0625 -79.328125 C 45.9375 -79.066406 48.613281 -78.570312 51.09375 -77.84375 C 53.582031 -77.125 55.648438 -76.222656 57.296875 -75.140625 C 59.984375 -73.328125 61.921875 -71.398438 63.109375 -69.359375 C 64.304688 -67.316406 64.890625 -65.300781 64.859375 -63.3125 C 64.835938 -61.320312 64.359375 -59.457031 63.421875 -57.71875 C 62.492188 -55.988281 61.28125 -54.515625 59.78125 -53.296875 C 58.28125 -52.085938 56.628906 -51.28125 54.828125 -50.875 C 53.679688 -52.257812 52.113281 -53.457031 50.125 -54.46875 C 48.132812 -55.476562 45.988281 -56.253906 43.6875 -56.796875 C 41.394531 -57.335938 39.210938 -57.59375 37.140625 -57.5625 C 35.078125 -57.539062 33.382812 -57.207031 32.0625 -56.5625 C 30.75 -55.914062 30.066406 -54.921875 30.015625 -53.578125 C 30.015625 -52.753906 30.375 -52.070312 31.09375 -51.53125 C 31.820312 -50.988281 33.164062 -50.585938 35.125 -50.328125 C 40.8125 -49.597656 45.460938 -48.519531 49.078125 -47.09375 C 52.703125 -45.675781 55.210938 -44.53125 56.609375 -43.65625 Z M 56.609375 -43.65625 "/></g></g></g></svg>