<svg xmlns="http://www.w3.org/2000/svg" xmlns:xlink="http://www.w3.org/1999/xlink" width="1200" zoomAndPan="magnify" viewBox="0 0 900 119.999999" height="160" preserveAspectRatio="xMidYMid meet" version="1.0"><defs><g/><clipPath id="a7f64f9b36"><rect x="0" width="459" y="0" height="116"/></clipPath></defs><g transform="matrix(1, 0, 0, 1, 6, 4)"><g clip-path="url(#a7f64f9b36)"><g fill="#3e428d" fill-opacity="1"><g transform="translate(8.50573, 103.305362)"><g><path d="M -3.746094 -29.210938 C -2.980469 -33.046875 -1.976562 -37.328125 -0.738281 -42.0625 C 0.496094 -46.777344 1.886719 -51.613281 3.433594 -56.574219 C 4.976562 -61.511719 6.546875 -66.292969 8.152344 -70.917969 C 9.765625 -75.570312 11.351562 -79.832031 12.90625 -83.703125 C 14.492188 -87.648438 15.910156 -90.84375 17.167969 -93.289062 L 18.136719 -95.175781 L 20.140625 -95.859375 C 22.894531 -96.800781 26.144531 -97.664062 29.902344 -98.457031 C 33.761719 -99.269531 37.847656 -99.726562 42.152344 -99.828125 C 46.664062 -99.933594 51.136719 -99.351562 55.566406 -98.085938 C 60.234375 -96.753906 64.507812 -94.402344 68.390625 -91.03125 C 72.316406 -87.625 75.496094 -82.953125 77.925781 -77.019531 C 78.96875 -74.410156 80.160156 -71.117188 81.496094 -67.136719 C 82.820312 -63.195312 84.207031 -58.839844 85.652344 -54.058594 C 87.097656 -49.285156 88.511719 -44.371094 89.890625 -39.316406 C 91.273438 -34.261719 92.546875 -29.328125 93.710938 -24.515625 C 94.886719 -19.648438 95.828125 -15.199219 96.53125 -11.167969 L 96.660156 -10.429688 L 96.578125 -9.683594 C 96.261719 -6.84375 94.921875 -4.171875 92.566406 -1.671875 C 90.566406 0.449219 88.074219 2.226562 85.09375 3.660156 C 82.199219 5.050781 79.09375 5.96875 75.777344 6.414062 C 72.265625 6.890625 68.785156 6.613281 65.328125 5.59375 C 61.675781 4.515625 58.421875 2.445312 55.5625 -0.617188 C 52.785156 -3.585938 50.660156 -7.582031 49.183594 -12.609375 L 54.21875 -14.089844 L 53.996094 -8.847656 C 51.179688 -8.964844 48.238281 -8.996094 45.175781 -8.9375 C 41.933594 -8.871094 38.78125 -8.871094 35.726562 -8.9375 L 35.835938 -14.183594 L 40.675781 -12.15625 C 39.933594 -10.378906 39.226562 -8.421875 38.5625 -6.28125 C 37.859375 -4.023438 37.171875 -1.703125 36.5 0.679688 L 35.773438 3.25 L 33.269531 4.175781 C 26.71875 6.597656 20.894531 7.453125 15.792969 6.738281 C 10.363281 5.980469 5.941406 3.828125 2.523438 0.285156 C -0.777344 -3.132812 -2.945312 -7.496094 -3.984375 -12.804688 C -4.953125 -17.753906 -4.878906 -23.207031 -3.757812 -29.152344 Z M 6.558594 -27.210938 C 5.6875 -22.582031 5.605469 -18.453125 6.316406 -14.820312 C 6.960938 -11.542969 8.210938 -8.9375 10.078125 -7.003906 C 11.820312 -5.199219 14.207031 -4.082031 17.242188 -3.660156 C 20.601562 -3.191406 24.730469 -3.859375 29.628906 -5.671875 L 31.449219 -0.746094 L 26.394531 -2.171875 C 27.09375 -4.640625 27.804688 -7.050781 28.535156 -9.398438 C 29.300781 -11.859375 30.121094 -14.132812 30.992188 -16.214844 L 32.375 -19.507812 L 35.945312 -19.433594 C 38.859375 -19.371094 41.867188 -19.371094 44.96875 -19.433594 C 48.25 -19.496094 51.410156 -19.464844 54.441406 -19.335938 L 58.195312 -19.175781 L 59.253906 -15.574219 C 60.265625 -12.136719 61.589844 -9.542969 63.234375 -7.78125 C 64.792969 -6.117188 66.480469 -5.011719 68.304688 -4.472656 C 70.324219 -3.878906 72.347656 -3.714844 74.375 -3.988281 C 76.59375 -4.289062 78.652344 -4.894531 80.546875 -5.804688 C 82.359375 -6.675781 83.816406 -7.699219 84.929688 -8.875 C 85.679688 -9.671875 86.085938 -10.328125 86.140625 -10.84375 L 91.359375 -10.265625 L 86.1875 -9.363281 C 85.523438 -13.171875 84.628906 -17.398438 83.503906 -22.050781 C 82.367188 -26.757812 81.117188 -31.59375 79.761719 -36.550781 C 78.40625 -41.511719 77.019531 -46.335938 75.601562 -51.019531 C 74.1875 -55.695312 72.835938 -59.953125 71.546875 -63.792969 C 70.269531 -67.585938 69.160156 -70.667969 68.210938 -73.039062 C 66.410156 -77.433594 64.175781 -80.785156 61.507812 -83.101562 C 58.796875 -85.457031 55.855469 -87.085938 52.683594 -87.992188 C 49.273438 -88.964844 45.847656 -89.410156 42.398438 -89.332031 C 38.738281 -89.246094 35.292969 -88.863281 32.0625 -88.183594 C 28.726562 -87.480469 25.882812 -86.726562 23.53125 -85.925781 L 21.835938 -90.894531 L 26.507812 -88.496094 C 25.398438 -86.335938 24.113281 -83.4375 22.648438 -79.792969 C 21.15625 -76.074219 19.628906 -71.96875 18.070312 -67.476562 C 16.503906 -62.953125 14.964844 -58.277344 13.457031 -53.449219 C 11.957031 -48.640625 10.609375 -43.960938 9.417969 -39.40625 C 8.230469 -34.867188 7.273438 -30.785156 6.546875 -27.152344 Z M 39.472656 -46.125 L 50.953125 -46.125 L 50.953125 -40.875 L 45.835938 -39.699219 C 44.972656 -43.457031 44.078125 -47.171875 43.15625 -50.835938 C 42.214844 -54.566406 41.304688 -58.316406 40.425781 -62.078125 L 45.539062 -63.269531 L 47.199219 -58.289062 C 46.472656 -58.046875 45.640625 -57.925781 44.699219 -57.925781 L 44.699219 -63.175781 L 49.828125 -62.046875 C 49.007812 -58.335938 48.144531 -54.625 47.230469 -50.914062 C 46.335938 -47.273438 45.457031 -43.542969 44.59375 -39.71875 L 39.472656 -40.875 Z M 39.472656 -35.625 L 32.90625 -35.625 L 34.351562 -42.03125 C 35.230469 -45.917969 36.125 -49.714844 37.035156 -53.417969 C 37.929688 -57.046875 38.773438 -60.675781 39.574219 -64.308594 L 40.480469 -68.425781 L 44.699219 -68.425781 C 44.503906 -68.425781 44.230469 -68.367188 43.878906 -68.25 L 49.34375 -70.070312 L 50.652344 -64.464844 C 51.515625 -60.761719 52.410156 -57.074219 53.335938 -53.402344 C 54.277344 -49.664062 55.1875 -45.878906 56.070312 -42.046875 L 57.542969 -35.625 Z M 39.472656 -35.625 "/></g></g></g><g fill="#3e428d" fill-opacity="1"><g transform="translate(101.163955, 103.305362)"><g><path d="M 88.070312 -96.3125 C 89.480469 -94.460938 90.605469 -91.988281 91.4375 -88.898438 C 92.21875 -85.988281 92.574219 -82.863281 92.5 -79.53125 C 92.425781 -76.023438 91.691406 -72.652344 90.304688 -69.414062 C 88.808594 -65.925781 86.449219 -62.996094 83.222656 -60.625 C 79.933594 -58.210938 75.6875 -56.847656 70.488281 -56.539062 C 68.878906 -56.472656 67.570312 -56.398438 66.566406 -56.3125 C 65.328125 -56.207031 64.507812 -56.15625 64.109375 -56.15625 L 64.109375 -61.402344 L 69.355469 -61.589844 C 69.484375 -58.058594 69.5625 -54.183594 69.59375 -49.964844 C 69.625 -45.757812 69.609375 -41.429688 69.546875 -36.972656 C 69.484375 -32.503906 69.355469 -28.140625 69.167969 -23.890625 C 68.980469 -19.648438 68.757812 -15.6875 68.507812 -12.007812 C 68.25 -8.234375 67.925781 -5.003906 67.53125 -2.320312 L 67.304688 -0.757812 L 66.253906 0.417969 C 64.054688 2.878906 61.292969 4.628906 57.972656 5.664062 C 54.851562 6.636719 51.5625 6.90625 48.101562 6.46875 C 44.636719 6.03125 41.300781 4.816406 38.101562 2.824219 C 34.925781 0.851562 32.152344 -1.871094 29.777344 -5.339844 C 27.398438 -8.8125 25.738281 -13.089844 24.792969 -18.171875 C 24.507812 -19.675781 24.265625 -21.980469 24.0625 -25.089844 C 23.875 -28.027344 23.699219 -31.460938 23.542969 -35.390625 C 23.386719 -39.324219 23.277344 -43.539062 23.214844 -48.03125 C 23.152344 -52.53125 23.152344 -57.042969 23.214844 -61.570312 L 28.460938 -61.496094 L 28.882812 -56.265625 C 25.613281 -56.003906 22.253906 -55.890625 18.800781 -55.921875 C 15.167969 -55.957031 11.660156 -56.316406 8.28125 -57.007812 L 6.347656 -57.402344 L 5.152344 -58.972656 C 3.511719 -61.132812 2.328125 -63.808594 1.601562 -67.003906 C 0.917969 -70.003906 0.726562 -73.148438 1.023438 -76.4375 C 1.328125 -79.796875 2.207031 -83 3.65625 -86.054688 C 5.226562 -89.359375 7.53125 -92.097656 10.566406 -94.273438 C 13.675781 -96.5 17.496094 -97.769531 22.027344 -98.089844 C 24.121094 -98.21875 26.839844 -98.316406 30.183594 -98.382812 C 33.480469 -98.445312 37.15625 -98.476562 41.199219 -98.476562 L 53.566406 -98.476562 L 65.855469 -98.429688 L 76.542969 -98.382812 L 86.492188 -98.382812 Z M 79.71875 -89.953125 L 83.894531 -93.132812 L 83.894531 -87.882812 L 76.5 -87.882812 L 65.816406 -87.929688 L 53.566406 -87.976562 L 41.199219 -87.976562 C 37.222656 -87.976562 33.613281 -87.945312 30.382812 -87.882812 C 27.191406 -87.824219 24.652344 -87.734375 22.765625 -87.617188 C 20.207031 -87.4375 18.179688 -86.8125 16.679688 -85.738281 C 15.113281 -84.617188 13.933594 -83.21875 13.140625 -81.546875 C 12.226562 -79.625 11.671875 -77.601562 11.480469 -75.488281 C 11.28125 -73.300781 11.402344 -71.25 11.835938 -69.335938 C 12.230469 -67.617188 12.789062 -66.28125 13.511719 -65.328125 L 9.332031 -62.152344 L 10.382812 -67.292969 C 13.101562 -66.738281 15.941406 -66.449219 18.898438 -66.421875 C 22.039062 -66.390625 25.089844 -66.492188 28.042969 -66.730469 L 33.792969 -67.191406 L 33.710938 -61.425781 C 33.648438 -56.992188 33.648438 -52.578125 33.710938 -48.179688 C 33.773438 -43.777344 33.878906 -39.652344 34.035156 -35.8125 C 34.1875 -31.964844 34.355469 -28.617188 34.539062 -25.765625 C 34.714844 -23.089844 34.90625 -21.199219 35.117188 -20.089844 C 35.789062 -16.460938 36.898438 -13.523438 38.4375 -11.269531 C 39.984375 -9.015625 41.71875 -7.289062 43.644531 -6.089844 C 45.546875 -4.910156 47.472656 -4.195312 49.417969 -3.949219 C 51.371094 -3.703125 53.179688 -3.839844 54.847656 -4.359375 C 56.320312 -4.816406 57.511719 -5.554688 58.421875 -6.574219 L 62.335938 -3.078125 L 57.144531 -3.839844 C 57.496094 -6.257812 57.792969 -9.21875 58.035156 -12.722656 C 58.277344 -16.320312 58.496094 -20.199219 58.679688 -24.355469 C 58.863281 -28.503906 58.988281 -32.757812 59.046875 -37.121094 C 59.109375 -41.5 59.125 -45.757812 59.09375 -49.886719 C 59.0625 -54.003906 58.988281 -57.78125 58.863281 -61.214844 L 58.671875 -66.652344 L 64.109375 -66.652344 C 64.210938 -66.652344 64.730469 -66.695312 65.667969 -66.773438 C 66.839844 -66.875 68.238281 -66.957031 69.863281 -67.015625 C 73 -67.203125 75.382812 -67.894531 77.007812 -69.089844 C 78.695312 -70.328125 79.910156 -71.816406 80.65625 -73.550781 C 81.507812 -75.539062 81.957031 -77.609375 82.003906 -79.761719 C 82.054688 -82.09375 81.820312 -84.226562 81.296875 -86.167969 C 80.824219 -87.929688 80.296875 -89.191406 79.71875 -89.953125 Z M 79.71875 -89.953125 "/></g></g></g><g fill="#3e428d" fill-opacity="1"><g transform="translate(192.889061, 103.305362)"><g><path d="M 62.539062 4.960938 C 59.160156 5.152344 55.734375 5.265625 52.261719 5.296875 C 48.816406 5.328125 45.636719 5.3125 42.71875 5.25 C 39.832031 5.183594 37.507812 5.121094 35.742188 5.058594 L 33.128906 4.964844 L 33.316406 -0.28125 L 33.316406 4.96875 C 30.644531 4.96875 27.742188 4.75 24.609375 4.3125 C 21.148438 3.828125 17.792969 2.773438 14.542969 1.148438 C 11.0625 -0.589844 8.066406 -3.144531 5.546875 -6.515625 C 3 -9.925781 1.316406 -14.335938 0.5 -19.75 C 0.109375 -22.5 -0.246094 -25.921875 -0.566406 -30.011719 C -0.886719 -34.074219 -1.121094 -38.554688 -1.28125 -43.457031 C -1.4375 -48.355469 -1.484375 -53.457031 -1.421875 -58.761719 C -1.359375 -64.082031 -1.152344 -69.371094 -0.804688 -74.628906 C -0.453125 -79.957031 0.109375 -85.007812 0.882812 -89.773438 L 1.183594 -91.609375 L 2.570312 -92.847656 C 4.855469 -94.890625 7.621094 -96.445312 10.863281 -97.511719 C 14.019531 -98.550781 17.351562 -98.996094 20.851562 -98.84375 C 24.492188 -98.683594 27.964844 -97.742188 31.269531 -96.007812 C 34.675781 -94.226562 37.558594 -91.5625 39.921875 -88.019531 C 42.265625 -84.507812 43.730469 -80.023438 44.320312 -74.566406 C 44.644531 -71.710938 44.871094 -68.425781 45 -64.710938 C 45.125 -61.101562 45.21875 -57.351562 45.28125 -53.464844 C 45.34375 -49.5625 45.363281 -45.769531 45.328125 -42.089844 C 45.296875 -38.390625 45.21875 -35.046875 45.09375 -32.066406 L 39.847656 -32.289062 L 39.386719 -37.519531 C 41.636719 -37.714844 44.355469 -37.832031 47.539062 -37.863281 C 50.636719 -37.894531 53.96875 -37.878906 57.53125 -37.816406 C 61.136719 -37.753906 64.785156 -37.59375 68.484375 -37.339844 C 72.167969 -37.085938 75.699219 -36.765625 79.070312 -36.386719 L 81.832031 -36.070312 L 83.125 -33.613281 C 85.441406 -29.214844 86.480469 -24.761719 86.242188 -20.253906 C 86.011719 -15.859375 84.8125 -11.804688 82.644531 -8.085938 C 80.503906 -4.421875 77.726562 -1.417969 74.308594 0.925781 C 70.734375 3.375 66.8125 4.71875 62.539062 4.960938 Z M 61.949219 -5.519531 C 64.269531 -5.652344 66.410156 -6.390625 68.375 -7.734375 C 70.496094 -9.1875 72.226562 -11.070312 73.574219 -13.375 C 74.886719 -15.628906 75.617188 -18.105469 75.757812 -20.804688 C 75.894531 -23.390625 75.253906 -26.03125 73.835938 -28.722656 L 78.480469 -31.167969 L 77.890625 -25.953125 C 74.671875 -26.316406 71.292969 -26.621094 67.761719 -26.863281 C 64.242188 -27.109375 60.769531 -27.257812 57.34375 -27.320312 C 53.878906 -27.382812 50.644531 -27.398438 47.644531 -27.367188 C 44.734375 -27.335938 42.289062 -27.234375 40.308594 -27.058594 L 34.347656 -26.535156 L 34.601562 -32.511719 C 34.722656 -35.375 34.800781 -38.597656 34.832031 -42.179688 C 34.863281 -45.773438 34.847656 -49.480469 34.785156 -53.292969 C 34.722656 -57.117188 34.632812 -60.804688 34.507812 -64.347656 C 34.386719 -67.789062 34.179688 -70.816406 33.882812 -73.4375 C 33.476562 -77.191406 32.578125 -80.109375 31.1875 -82.195312 C 29.816406 -84.25 28.222656 -85.753906 26.398438 -86.710938 C 24.480469 -87.714844 22.476562 -88.265625 20.394531 -88.355469 C 18.171875 -88.453125 16.089844 -88.179688 14.148438 -87.539062 C 12.289062 -86.929688 10.761719 -86.085938 9.5625 -85.015625 L 6.066406 -88.933594 L 11.246094 -88.09375 C 10.527344 -83.652344 10 -78.933594 9.671875 -73.933594 C 9.335938 -68.867188 9.136719 -63.765625 9.074219 -58.636719 C 9.015625 -53.488281 9.058594 -48.539062 9.210938 -43.796875 C 9.367188 -39.054688 9.59375 -34.734375 9.898438 -30.832031 C 10.203125 -26.960938 10.53125 -23.789062 10.882812 -21.3125 C 11.4375 -17.640625 12.460938 -14.800781 13.957031 -12.800781 C 15.484375 -10.757812 17.242188 -9.238281 19.238281 -8.242188 C 21.464844 -7.128906 23.738281 -6.410156 26.0625 -6.085938 C 28.714844 -5.714844 31.132812 -5.53125 33.316406 -5.53125 L 33.410156 -5.53125 L 36.117188 -5.433594 C 37.832031 -5.371094 40.109375 -5.308594 42.949219 -5.25 C 45.753906 -5.1875 48.828125 -5.171875 52.164062 -5.203125 C 55.472656 -5.234375 58.734375 -5.339844 61.949219 -5.519531 Z M 61.949219 -5.519531 "/></g></g></g><g fill="#3e428d" fill-opacity="1"><g transform="translate(277.335898, 103.305362)"><g><path d="M -3.746094 -29.210938 C -2.980469 -33.046875 -1.976562 -37.328125 -0.738281 -42.0625 C 0.496094 -46.777344 1.886719 -51.613281 3.433594 -56.574219 C 4.976562 -61.511719 6.546875 -66.292969 8.152344 -70.917969 C 9.765625 -75.570312 11.351562 -79.832031 12.90625 -83.703125 C 14.492188 -87.648438 15.910156 -90.84375 17.167969 -93.289062 L 18.136719 -95.175781 L 20.140625 -95.859375 C 22.894531 -96.800781 26.144531 -97.664062 29.902344 -98.457031 C 33.761719 -99.269531 37.847656 -99.726562 42.152344 -99.828125 C 46.664062 -99.933594 51.136719 -99.351562 55.566406 -98.085938 C 60.234375 -96.753906 64.507812 -94.402344 68.390625 -91.03125 C 72.316406 -87.625 75.496094 -82.953125 77.925781 -77.019531 C 78.96875 -74.410156 80.160156 -71.117188 81.496094 -67.136719 C 82.820312 -63.195312 84.207031 -58.839844 85.652344 -54.058594 C 87.097656 -49.285156 88.511719 -44.371094 89.890625 -39.316406 C 91.273438 -34.261719 92.546875 -29.328125 93.710938 -24.515625 C 94.886719 -19.648438 95.828125 -15.199219 96.53125 -11.167969 L 96.660156 -10.429688 L 96.578125 -9.683594 C 96.261719 -6.84375 94.921875 -4.171875 92.566406 -1.671875 C 90.566406 0.449219 88.074219 2.226562 85.09375 3.660156 C 82.199219 5.050781 79.09375 5.96875 75.777344 6.414062 C 72.265625 6.890625 68.785156 6.613281 65.328125 5.59375 C 61.675781 4.515625 58.421875 2.445312 55.5625 -0.617188 C 52.785156 -3.585938 50.660156 -7.582031 49.183594 -12.609375 L 54.21875 -14.089844 L 53.996094 -8.847656 C 51.179688 -8.964844 48.238281 -8.996094 45.175781 -8.9375 C 41.933594 -8.871094 38.78125 -8.871094 35.726562 -8.9375 L 35.835938 -14.183594 L 40.675781 -12.15625 C 39.933594 -10.378906 39.226562 -8.421875 38.5625 -6.28125 C 37.859375 -4.023438 37.171875 -1.703125 36.5 0.679688 L 35.773438 3.25 L 33.269531 4.175781 C 26.71875 6.597656 20.894531 7.453125 15.792969 6.738281 C 10.363281 5.980469 5.941406 3.828125 2.523438 0.285156 C -0.777344 -3.132812 -2.945312 -7.496094 -3.984375 -12.804688 C -4.953125 -17.753906 -4.878906 -23.207031 -3.757812 -29.152344 Z M 6.558594 -27.210938 C 5.6875 -22.582031 5.605469 -18.453125 6.316406 -14.820312 C 6.960938 -11.542969 8.210938 -8.9375 10.078125 -7.003906 C 11.820312 -5.199219 14.207031 -4.082031 17.242188 -3.660156 C 20.601562 -3.191406 24.730469 -3.859375 29.628906 -5.671875 L 31.449219 -0.746094 L 26.394531 -2.171875 C 27.09375 -4.640625 27.804688 -7.050781 28.535156 -9.398438 C 29.300781 -11.859375 30.121094 -14.132812 30.992188 -16.214844 L 32.375 -19.507812 L 35.945312 -19.433594 C 38.859375 -19.371094 41.867188 -19.371094 44.96875 -19.433594 C 48.25 -19.496094 51.410156 -19.464844 54.441406 -19.335938 L 58.195312 -19.175781 L 59.253906 -15.574219 C 60.265625 -12.136719 61.589844 -9.542969 63.234375 -7.78125 C 64.792969 -6.117188 66.480469 -5.011719 68.304688 -4.472656 C 70.324219 -3.878906 72.347656 -3.714844 74.375 -3.988281 C 76.59375 -4.289062 78.652344 -4.894531 80.546875 -5.804688 C 82.359375 -6.675781 83.816406 -7.699219 84.929688 -8.875 C 85.679688 -9.671875 86.085938 -10.328125 86.140625 -10.84375 L 91.359375 -10.265625 L 86.1875 -9.363281 C 85.523438 -13.171875 84.628906 -17.398438 83.503906 -22.050781 C 82.367188 -26.757812 81.117188 -31.59375 79.761719 -36.550781 C 78.40625 -41.511719 77.019531 -46.335938 75.601562 -51.019531 C 74.1875 -55.695312 72.835938 -59.953125 71.546875 -63.792969 C 70.269531 -67.585938 69.160156 -70.667969 68.210938 -73.039062 C 66.410156 -77.433594 64.175781 -80.785156 61.507812 -83.101562 C 58.796875 -85.457031 55.855469 -87.085938 52.683594 -87.992188 C 49.273438 -88.964844 45.847656 -89.410156 42.398438 -89.332031 C 38.738281 -89.246094 35.292969 -88.863281 32.0625 -88.183594 C 28.726562 -87.480469 25.882812 -86.726562 23.53125 -85.925781 L 21.835938 -90.894531 L 26.507812 -88.496094 C 25.398438 -86.335938 24.113281 -83.4375 22.648438 -79.792969 C 21.15625 -76.074219 19.628906 -71.96875 18.070312 -67.476562 C 16.503906 -62.953125 14.964844 -58.277344 13.457031 -53.449219 C 11.957031 -48.640625 10.609375 -43.960938 9.417969 -39.40625 C 8.230469 -34.867188 7.273438 -30.785156 6.546875 -27.152344 Z M 39.472656 -46.125 L 50.953125 -46.125 L 50.953125 -40.875 L 45.835938 -39.699219 C 44.972656 -43.457031 44.078125 -47.171875 43.15625 -50.835938 C 42.214844 -54.566406 41.304688 -58.316406 40.425781 -62.078125 L 45.539062 -63.269531 L 47.199219 -58.289062 C 46.472656 -58.046875 45.640625 -57.925781 44.699219 -57.925781 L 44.699219 -63.175781 L 49.828125 -62.046875 C 49.007812 -58.335938 48.144531 -54.625 47.230469 -50.914062 C 46.335938 -47.273438 45.457031 -43.542969 44.59375 -39.71875 L 39.472656 -40.875 Z M 39.472656 -35.625 L 32.90625 -35.625 L 34.351562 -42.03125 C 35.230469 -45.917969 36.125 -49.714844 37.035156 -53.417969 C 37.929688 -57.046875 38.773438 -60.675781 39.574219 -64.308594 L 40.480469 -68.425781 L 44.699219 -68.425781 C 44.503906 -68.425781 44.230469 -68.367188 43.878906 -68.25 L 49.34375 -70.070312 L 50.652344 -64.464844 C 51.515625 -60.761719 52.410156 -57.074219 53.335938 -53.402344 C 54.277344 -49.664062 55.1875 -45.878906 56.070312 -42.046875 L 57.542969 -35.625 Z M 39.472656 -35.625 "/></g></g></g><g fill="#3e428d" fill-opacity="1"><g transform="translate(369.994092, 103.305362)"><g><path d="M 70.882812 -57.003906 C 76.347656 -53.625 80.433594 -49.632812 83.144531 -45.03125 C 85.855469 -40.421875 87.328125 -35.601562 87.550781 -30.5625 C 87.769531 -25.6875 87.039062 -20.988281 85.363281 -16.464844 C 83.695312 -11.964844 81.273438 -7.988281 78.105469 -4.527344 C 74.871094 -0.996094 71.152344 1.636719 66.945312 3.363281 C 64.113281 4.496094 60.722656 5.4375 56.78125 6.183594 C 52.914062 6.917969 48.734375 7.367188 44.238281 7.53125 C 39.714844 7.699219 35.078125 7.46875 30.335938 6.835938 C 25.492188 6.191406 20.816406 5.023438 16.304688 3.328125 C 11.628906 1.570312 7.394531 -0.855469 3.589844 -3.957031 L 3.136719 -4.324219 L 2.773438 -4.789062 C 0.375 -7.847656 -1.054688 -11.195312 -1.519531 -14.824219 C -1.96875 -18.328125 -1.617188 -21.699219 -0.46875 -24.945312 C 0.6875 -28.207031 2.496094 -30.988281 4.960938 -33.28125 C 7.578125 -35.722656 10.6875 -37.226562 14.296875 -37.800781 C 17.941406 -38.378906 21.78125 -37.675781 25.824219 -35.695312 C 29.835938 -33.71875 33.574219 -32.386719 37.042969 -31.699219 C 40.234375 -31.066406 42.773438 -30.960938 44.660156 -31.390625 C 45.195312 -31.511719 45.539062 -31.632812 45.691406 -31.753906 C 45.558594 -31.648438 45.464844 -31.5 45.414062 -31.308594 C 45.433594 -31.378906 45.441406 -31.421875 45.441406 -31.441406 C 45.441406 -31.371094 45.453125 -31.292969 45.476562 -31.199219 C 45.523438 -31.011719 45.582031 -30.886719 45.652344 -30.820312 C 45.671875 -30.800781 45.6875 -30.789062 45.695312 -30.78125 C 45.671875 -30.796875 45.644531 -30.816406 45.601562 -30.839844 C 45.433594 -30.929688 45.210938 -31.015625 44.933594 -31.101562 C 44.125 -31.355469 43.050781 -31.53125 41.714844 -31.625 C 37.574219 -31.964844 33.460938 -32.671875 29.371094 -33.742188 C 25.121094 -34.855469 21.148438 -36.480469 17.445312 -38.609375 C 13.511719 -40.875 10.191406 -43.839844 7.488281 -47.511719 C 4.722656 -51.257812 2.898438 -55.71875 2.011719 -60.890625 C 1.6875 -62.925781 1.652344 -65.300781 1.914062 -68.015625 C 2.171875 -70.714844 2.824219 -73.542969 3.871094 -76.5 C 4.945312 -79.539062 6.554688 -82.515625 8.699219 -85.421875 C 10.894531 -88.398438 13.765625 -91.082031 17.316406 -93.472656 C 20.855469 -95.855469 25.152344 -97.714844 30.203125 -99.046875 C 33.617188 -100.003906 37.253906 -100.605469 41.105469 -100.84375 C 44.855469 -101.078125 48.589844 -101.027344 52.308594 -100.695312 C 56.101562 -100.351562 59.652344 -99.699219 62.96875 -98.730469 C 66.457031 -97.714844 69.414062 -96.410156 71.84375 -94.816406 C 75.777344 -92.167969 78.664062 -89.265625 80.5 -86.117188 C 82.417969 -82.820312 83.355469 -79.492188 83.3125 -76.128906 C 83.269531 -72.875 82.484375 -69.832031 80.960938 -66.992188 C 79.507812 -64.289062 77.605469 -61.984375 75.253906 -60.078125 C 72.820312 -58.105469 70.117188 -56.777344 67.144531 -56.101562 L 63.96875 -55.375 L 61.90625 -57.902344 C 61.007812 -59.003906 59.691406 -59.996094 57.957031 -60.875 C 55.9375 -61.898438 53.742188 -62.691406 51.378906 -63.246094 C 49.03125 -63.800781 46.824219 -64.066406 44.765625 -64.039062 C 43.066406 -64.019531 41.777344 -63.792969 40.898438 -63.363281 C 40.871094 -63.347656 40.847656 -63.335938 40.832031 -63.328125 C 40.839844 -63.332031 40.851562 -63.339844 40.867188 -63.355469 C 40.949219 -63.421875 41.027344 -63.507812 41.105469 -63.617188 C 41.265625 -63.855469 41.351562 -64.078125 41.359375 -64.28125 L 36.113281 -64.484375 L 41.363281 -64.484375 C 41.363281 -64.851562 41.269531 -65.214844 41.082031 -65.570312 C 40.933594 -65.851562 40.761719 -66.066406 40.570312 -66.210938 C 40.484375 -66.273438 40.425781 -66.3125 40.394531 -66.328125 C 40.484375 -66.289062 40.613281 -66.242188 40.785156 -66.191406 C 41.328125 -66.027344 42.050781 -65.886719 42.957031 -65.769531 C 50.21875 -64.84375 56.230469 -63.449219 60.992188 -61.578125 C 65.652344 -59.746094 68.960938 -58.214844 70.921875 -56.980469 Z M 65.324219 -48.097656 C 63.925781 -48.980469 61.199219 -50.214844 57.152344 -51.804688 C 53.203125 -53.355469 48.015625 -54.542969 41.589844 -55.359375 C 38.316406 -55.789062 35.875 -56.609375 34.269531 -57.8125 C 33.207031 -58.609375 32.382812 -59.558594 31.800781 -60.667969 C 31.175781 -61.847656 30.863281 -63.117188 30.863281 -64.484375 L 30.863281 -64.585938 L 30.867188 -64.683594 C 30.9375 -66.507812 31.46875 -68.136719 32.457031 -69.570312 C 33.386719 -70.925781 34.660156 -71.996094 36.277344 -72.789062 C 38.570312 -73.914062 41.355469 -74.496094 44.632812 -74.539062 C 47.550781 -74.574219 50.605469 -74.21875 53.789062 -73.464844 C 56.964844 -72.714844 59.9375 -71.640625 62.703125 -70.238281 C 65.761719 -68.691406 68.207031 -66.789062 70.046875 -64.535156 L 65.976562 -61.21875 L 64.808594 -66.335938 C 66.191406 -66.652344 67.472656 -67.285156 68.644531 -68.234375 C 69.902344 -69.253906 70.925781 -70.496094 71.710938 -71.960938 C 72.425781 -73.289062 72.792969 -74.722656 72.8125 -76.261719 C 72.832031 -77.691406 72.367188 -79.210938 71.425781 -80.832031 C 70.398438 -82.597656 68.617188 -84.332031 66.082031 -86.039062 C 64.53125 -87.058594 62.511719 -87.929688 60.027344 -88.652344 C 57.367188 -89.429688 54.480469 -89.957031 51.367188 -90.238281 C 48.179688 -90.523438 44.980469 -90.566406 41.761719 -90.367188 C 38.644531 -90.171875 35.6875 -89.683594 32.882812 -88.898438 C 28.972656 -87.867188 25.742188 -86.488281 23.183594 -84.765625 C 20.636719 -83.050781 18.625 -81.191406 17.148438 -79.191406 C 15.625 -77.121094 14.496094 -75.058594 13.769531 -73 C 13.007812 -70.851562 12.542969 -68.859375 12.363281 -67.015625 C 12.1875 -65.191406 12.1875 -63.738281 12.359375 -62.664062 C 12.964844 -59.128906 14.160156 -56.152344 15.9375 -53.742188 C 17.773438 -51.253906 20.019531 -49.242188 22.683594 -47.710938 C 25.574219 -46.046875 28.691406 -44.773438 32.035156 -43.898438 C 35.53125 -42.980469 39.007812 -42.378906 42.460938 -42.097656 C 47.199219 -41.757812 50.675781 -40.535156 52.894531 -38.421875 C 54.269531 -37.113281 55.183594 -35.585938 55.636719 -33.84375 C 56.070312 -32.171875 56.042969 -30.425781 55.558594 -28.601562 C 55.007812 -26.546875 53.890625 -24.851562 52.199219 -23.515625 C 50.800781 -22.410156 49.058594 -21.621094 46.976562 -21.148438 C 43.640625 -20.394531 39.648438 -20.476562 35 -21.398438 C 30.628906 -22.269531 26.03125 -23.890625 21.207031 -26.269531 C 19.152344 -27.273438 17.398438 -27.660156 15.941406 -27.429688 C 14.445312 -27.195312 13.171875 -26.585938 12.117188 -25.601562 C 10.910156 -24.476562 10.011719 -23.085938 9.425781 -21.4375 C 8.835938 -19.765625 8.65625 -18.003906 8.894531 -16.15625 C 9.113281 -14.4375 9.828125 -12.808594 11.039062 -11.265625 L 6.90625 -8.027344 L 10.222656 -12.09375 C 13.136719 -9.71875 16.394531 -7.855469 19.996094 -6.5 C 23.761719 -5.085938 27.667969 -4.109375 31.71875 -3.570312 C 35.875 -3.019531 39.917969 -2.816406 43.855469 -2.960938 C 47.820312 -3.105469 51.476562 -3.496094 54.828125 -4.132812 C 58.101562 -4.753906 60.8125 -5.492188 62.957031 -6.347656 C 65.714844 -7.484375 68.1875 -9.238281 70.363281 -11.617188 C 72.609375 -14.066406 74.328125 -16.902344 75.519531 -20.117188 C 76.703125 -23.308594 77.21875 -26.632812 77.0625 -30.09375 C 76.914062 -33.394531 75.925781 -36.597656 74.097656 -39.703125 C 72.265625 -42.816406 69.355469 -45.605469 65.363281 -48.074219 Z M 65.324219 -48.097656 "/></g></g></g><g fill="#1f88b6" fill-opacity="1"><g transform="translate(8.50573, 103.305362)"><g><path d="M 1.40625 -28.1875 C 2.144531 -31.914062 3.117188 -36.097656 4.328125 -40.734375 C 5.546875 -45.367188 6.914062 -50.128906 8.4375 -55.015625 C 9.96875 -59.898438 11.523438 -64.628906 13.109375 -69.203125 C 14.691406 -73.773438 16.242188 -77.957031 17.765625 -81.75 C 19.296875 -85.539062 20.65625 -88.585938 21.84375 -90.890625 C 24.382812 -91.765625 27.425781 -92.570312 30.96875 -93.3125 C 34.519531 -94.0625 38.285156 -94.484375 42.265625 -94.578125 C 46.253906 -94.671875 50.207031 -94.15625 54.125 -93.03125 C 58.039062 -91.914062 61.648438 -89.925781 64.953125 -87.0625 C 68.253906 -84.207031 70.960938 -80.195312 73.078125 -75.03125 C 74.066406 -72.539062 75.210938 -69.351562 76.515625 -65.46875 C 77.828125 -61.582031 79.195312 -57.273438 80.625 -52.546875 C 82.0625 -47.816406 83.460938 -42.945312 84.828125 -37.9375 C 86.203125 -32.925781 87.460938 -28.039062 88.609375 -23.28125 C 89.765625 -18.519531 90.679688 -14.179688 91.359375 -10.265625 C 91.171875 -8.585938 90.300781 -6.921875 88.75 -5.265625 C 87.195312 -3.617188 85.222656 -2.21875 82.828125 -1.0625 C 80.429688 0.0820312 77.847656 0.835938 75.078125 1.203125 C 72.304688 1.578125 69.550781 1.359375 66.8125 0.546875 C 64.082031 -0.253906 61.613281 -1.835938 59.40625 -4.203125 C 57.195312 -6.566406 55.46875 -9.863281 54.21875 -14.09375 C 51.289062 -14.21875 48.238281 -14.25 45.0625 -14.1875 C 41.894531 -14.125 38.820312 -14.125 35.84375 -14.1875 C 35.03125 -12.257812 34.265625 -10.144531 33.546875 -7.84375 C 32.828125 -5.539062 32.128906 -3.175781 31.453125 -0.75 C 25.722656 1.363281 20.742188 2.125 16.515625 1.53125 C 12.285156 0.945312 8.878906 -0.679688 6.296875 -3.359375 C 3.710938 -6.035156 2 -9.519531 1.15625 -13.8125 C 0.320312 -18.101562 0.40625 -22.894531 1.40625 -28.1875 Z M 39.46875 -40.875 C 41.46875 -40.875 43.398438 -40.875 45.265625 -40.875 C 47.128906 -40.875 49.023438 -40.875 50.953125 -40.875 C 50.078125 -44.664062 49.171875 -48.410156 48.234375 -52.109375 C 47.304688 -55.816406 46.410156 -59.535156 45.546875 -63.265625 C 45.359375 -63.203125 45.078125 -63.171875 44.703125 -63.171875 C 43.890625 -59.503906 43.03125 -55.832031 42.125 -52.15625 C 41.226562 -48.488281 40.34375 -44.726562 39.46875 -40.875 Z M 39.46875 -40.875 "/></g></g></g><g fill="#1f88b6" fill-opacity="1"><g transform="translate(101.163955, 103.305362)"><g><path d="M 83.890625 -93.140625 C 84.890625 -91.828125 85.710938 -89.957031 86.359375 -87.53125 C 87.015625 -85.101562 87.3125 -82.472656 87.25 -79.640625 C 87.1875 -76.816406 86.59375 -74.097656 85.46875 -71.484375 C 84.351562 -68.867188 82.566406 -66.660156 80.109375 -64.859375 C 77.660156 -63.054688 74.347656 -62.03125 70.171875 -61.78125 C 68.554688 -61.71875 67.203125 -61.640625 66.109375 -61.546875 C 65.023438 -61.453125 64.359375 -61.40625 64.109375 -61.40625 C 64.234375 -57.925781 64.3125 -54.097656 64.34375 -49.921875 C 64.375 -45.753906 64.359375 -41.460938 64.296875 -37.046875 C 64.234375 -32.628906 64.109375 -28.320312 63.921875 -24.125 C 63.734375 -19.925781 63.515625 -16.003906 63.265625 -12.359375 C 63.023438 -8.722656 62.71875 -5.628906 62.34375 -3.078125 C 60.78125 -1.335938 58.800781 -0.0976562 56.40625 0.640625 C 54.019531 1.390625 51.472656 1.59375 48.765625 1.25 C 46.054688 0.914062 43.425781 -0.0390625 40.875 -1.625 C 38.320312 -3.21875 36.066406 -5.441406 34.109375 -8.296875 C 32.148438 -11.160156 30.765625 -14.769531 29.953125 -19.125 C 29.703125 -20.4375 29.484375 -22.535156 29.296875 -25.421875 C 29.117188 -28.316406 28.953125 -31.707031 28.796875 -35.59375 C 28.640625 -39.488281 28.53125 -43.660156 28.46875 -48.109375 C 28.40625 -52.554688 28.40625 -57.019531 28.46875 -61.5 C 25.351562 -61.25 22.144531 -61.140625 18.84375 -61.171875 C 15.550781 -61.203125 12.378906 -61.53125 9.328125 -62.15625 C 8.148438 -63.707031 7.28125 -65.710938 6.71875 -68.171875 C 6.15625 -70.628906 6 -73.226562 6.25 -75.96875 C 6.5 -78.707031 7.210938 -81.316406 8.390625 -83.796875 C 9.578125 -86.285156 11.320312 -88.351562 13.625 -90 C 15.925781 -91.65625 18.847656 -92.609375 22.390625 -92.859375 C 24.390625 -92.984375 27.019531 -93.078125 30.28125 -93.140625 C 33.550781 -93.203125 37.191406 -93.234375 41.203125 -93.234375 C 45.210938 -93.234375 49.332031 -93.234375 53.5625 -93.234375 C 57.789062 -93.234375 61.878906 -93.21875 65.828125 -93.1875 C 69.785156 -93.15625 73.347656 -93.140625 76.515625 -93.140625 C 79.691406 -93.140625 82.148438 -93.140625 83.890625 -93.140625 Z M 83.890625 -93.140625 "/></g></g></g><g fill="#1f88b6" fill-opacity="1"><g transform="translate(192.889061, 103.305362)"><g><path d="M 62.25 -0.28125 C 58.945312 -0.09375 55.597656 0.015625 52.203125 0.046875 C 48.816406 0.078125 45.691406 0.0625 42.828125 0 C 39.972656 -0.0625 37.671875 -0.125 35.921875 -0.1875 C 34.179688 -0.25 33.3125 -0.28125 33.3125 -0.28125 C 30.882812 -0.28125 28.222656 -0.484375 25.328125 -0.890625 C 22.441406 -1.296875 19.628906 -2.179688 16.890625 -3.546875 C 14.148438 -4.910156 11.769531 -6.945312 9.75 -9.65625 C 7.726562 -12.363281 6.375 -15.988281 5.6875 -20.53125 C 5.3125 -23.144531 4.96875 -26.441406 4.65625 -30.421875 C 4.351562 -34.398438 4.125 -38.800781 3.96875 -43.625 C 3.8125 -48.445312 3.765625 -53.472656 3.828125 -58.703125 C 3.890625 -63.929688 4.09375 -69.125 4.4375 -74.28125 C 4.78125 -79.445312 5.320312 -84.332031 6.0625 -88.9375 C 7.800781 -90.488281 9.945312 -91.6875 12.5 -92.53125 C 15.050781 -93.375 17.757812 -93.734375 20.625 -93.609375 C 23.488281 -93.484375 26.222656 -92.734375 28.828125 -91.359375 C 31.441406 -89.992188 33.679688 -87.910156 35.546875 -85.109375 C 37.421875 -82.304688 38.609375 -78.601562 39.109375 -74 C 39.410156 -71.269531 39.625 -68.113281 39.75 -64.53125 C 39.875 -60.957031 39.96875 -57.238281 40.03125 -53.375 C 40.09375 -49.519531 40.109375 -45.769531 40.078125 -42.125 C 40.046875 -38.488281 39.96875 -35.210938 39.84375 -32.296875 C 41.957031 -32.472656 44.539062 -32.578125 47.59375 -32.609375 C 50.644531 -32.640625 53.925781 -32.625 57.4375 -32.5625 C 60.957031 -32.5 64.519531 -32.34375 68.125 -32.09375 C 71.726562 -31.851562 75.179688 -31.546875 78.484375 -31.171875 C 80.347656 -27.617188 81.1875 -24.070312 81 -20.53125 C 80.8125 -16.988281 79.847656 -13.722656 78.109375 -10.734375 C 76.367188 -7.742188 74.113281 -5.300781 71.34375 -3.40625 C 68.570312 -1.507812 65.539062 -0.46875 62.25 -0.28125 Z M 62.25 -0.28125 "/></g></g></g><g fill="#1f88b6" fill-opacity="1"><g transform="translate(277.335898, 103.305362)"><g><path d="M 1.40625 -28.1875 C 2.144531 -31.914062 3.117188 -36.097656 4.328125 -40.734375 C 5.546875 -45.367188 6.914062 -50.128906 8.4375 -55.015625 C 9.96875 -59.898438 11.523438 -64.628906 13.109375 -69.203125 C 14.691406 -73.773438 16.242188 -77.957031 17.765625 -81.75 C 19.296875 -85.539062 20.65625 -88.585938 21.84375 -90.890625 C 24.382812 -91.765625 27.425781 -92.570312 30.96875 -93.3125 C 34.519531 -94.0625 38.285156 -94.484375 42.265625 -94.578125 C 46.253906 -94.671875 50.207031 -94.15625 54.125 -93.03125 C 58.039062 -91.914062 61.648438 -89.925781 64.953125 -87.0625 C 68.253906 -84.207031 70.960938 -80.195312 73.078125 -75.03125 C 74.066406 -72.539062 75.210938 -69.351562 76.515625 -65.46875 C 77.828125 -61.582031 79.195312 -57.273438 80.625 -52.546875 C 82.0625 -47.816406 83.460938 -42.945312 84.828125 -37.9375 C 86.203125 -32.925781 87.460938 -28.039062 88.609375 -23.28125 C 89.765625 -18.519531 90.679688 -14.179688 91.359375 -10.265625 C 91.171875 -8.585938 90.300781 -6.921875 88.75 -5.265625 C 87.195312 -3.617188 85.222656 -2.21875 82.828125 -1.0625 C 80.429688 0.0820312 77.847656 0.835938 75.078125 1.203125 C 72.304688 1.578125 69.550781 1.359375 66.8125 0.546875 C 64.082031 -0.253906 61.613281 -1.835938 59.40625 -4.203125 C 57.195312 -6.566406 55.46875 -9.863281 54.21875 -14.09375 C 51.289062 -14.21875 48.238281 -14.25 45.0625 -14.1875 C 41.894531 -14.125 38.820312 -14.125 35.84375 -14.1875 C 35.03125 -12.257812 34.265625 -10.144531 33.546875 -7.84375 C 32.828125 -5.539062 32.128906 -3.175781 31.453125 -0.75 C 25.722656 1.363281 20.742188 2.125 16.515625 1.53125 C 12.285156 0.945312 8.878906 -0.679688 6.296875 -3.359375 C 3.710938 -6.035156 2 -9.519531 1.15625 -13.8125 C 0.320312 -18.101562 0.40625 -22.894531 1.40625 -28.1875 Z M 39.46875 -40.875 C 41.46875 -40.875 43.398438 -40.875 45.265625 -40.875 C 47.128906 -40.875 49.023438 -40.875 50.953125 -40.875 C 50.078125 -44.664062 49.171875 -48.410156 48.234375 -52.109375 C 47.304688 -55.816406 46.410156 -59.535156 45.546875 -63.265625 C 45.359375 -63.203125 45.078125 -63.171875 44.703125 -63.171875 C 43.890625 -59.503906 43.03125 -55.832031 42.125 -52.15625 C 41.226562 -48.488281 40.34375 -44.726562 39.46875 -40.875 Z M 39.46875 -40.875 "/></g></g></g><g fill="#1f88b6" fill-opacity="1"><g transform="translate(369.994092, 103.305362)"><g><path d="M 68.125 -52.546875 C 72.851562 -49.617188 76.351562 -46.222656 78.625 -42.359375 C 80.894531 -38.503906 82.125 -34.492188 82.3125 -30.328125 C 82.5 -26.160156 81.875 -22.144531 80.4375 -18.28125 C 79.007812 -14.425781 76.941406 -11.019531 74.234375 -8.0625 C 71.523438 -5.113281 68.429688 -2.925781 64.953125 -1.5 C 62.460938 -0.5 59.410156 0.335938 55.796875 1.015625 C 52.191406 1.703125 48.273438 2.125 44.046875 2.28125 C 39.816406 2.4375 35.476562 2.21875 31.03125 1.625 C 26.582031 1.039062 22.289062 -0.0234375 18.15625 -1.578125 C 14.019531 -3.140625 10.269531 -5.289062 6.90625 -8.03125 C 5.101562 -10.332031 4.03125 -12.816406 3.6875 -15.484375 C 3.34375 -18.160156 3.601562 -20.726562 4.46875 -23.1875 C 5.34375 -25.644531 6.695312 -27.726562 8.53125 -29.4375 C 10.375 -31.15625 12.566406 -32.210938 15.109375 -32.609375 C 17.660156 -33.015625 20.460938 -32.472656 23.515625 -30.984375 C 27.929688 -28.804688 32.097656 -27.328125 36.015625 -26.546875 C 39.941406 -25.773438 43.207031 -25.679688 45.8125 -26.265625 C 48.425781 -26.859375 49.984375 -28.085938 50.484375 -29.953125 C 50.984375 -31.816406 50.578125 -33.367188 49.265625 -34.609375 C 47.960938 -35.859375 45.570312 -36.609375 42.09375 -36.859375 C 38.289062 -37.171875 34.492188 -37.820312 30.703125 -38.8125 C 26.910156 -39.8125 23.363281 -41.257812 20.0625 -43.15625 C 16.769531 -45.0625 13.988281 -47.550781 11.71875 -50.625 C 9.445312 -53.707031 7.9375 -57.425781 7.1875 -61.78125 C 6.9375 -63.332031 6.921875 -65.242188 7.140625 -67.515625 C 7.359375 -69.785156 7.914062 -72.195312 8.8125 -74.75 C 9.71875 -77.300781 11.085938 -79.820312 12.921875 -82.3125 C 14.753906 -84.800781 17.195312 -87.070312 20.25 -89.125 C 23.300781 -91.175781 27.066406 -92.789062 31.546875 -93.96875 C 34.648438 -94.84375 37.941406 -95.390625 41.421875 -95.609375 C 44.910156 -95.828125 48.378906 -95.78125 51.828125 -95.46875 C 55.285156 -95.15625 58.507812 -94.5625 61.5 -93.6875 C 64.488281 -92.820312 66.976562 -91.738281 68.96875 -90.4375 C 72.195312 -88.25 74.523438 -85.925781 75.953125 -83.46875 C 77.390625 -81.019531 78.09375 -78.597656 78.0625 -76.203125 C 78.03125 -73.804688 77.453125 -71.566406 76.328125 -69.484375 C 75.210938 -67.398438 73.753906 -65.625 71.953125 -64.15625 C 70.148438 -62.695312 68.160156 -61.71875 65.984375 -61.21875 C 64.609375 -62.894531 62.722656 -64.335938 60.328125 -65.546875 C 57.929688 -66.765625 55.347656 -67.703125 52.578125 -68.359375 C 49.816406 -69.015625 47.191406 -69.328125 44.703125 -69.296875 C 42.210938 -69.265625 40.171875 -68.859375 38.578125 -68.078125 C 36.992188 -67.296875 36.171875 -66.097656 36.109375 -64.484375 C 36.109375 -63.492188 36.546875 -62.671875 37.421875 -62.015625 C 38.296875 -61.359375 39.914062 -60.875 42.28125 -60.5625 C 49.125 -59.695312 54.722656 -58.40625 59.078125 -56.6875 C 63.429688 -54.976562 66.445312 -53.597656 68.125 -52.546875 Z M 68.125 -52.546875 "/></g></g></g></g></g></svg>