<svg xmlns="http://www.w3.org/2000/svg" xmlns:xlink="http://www.w3.org/1999/xlink" width="1200" zoomAndPan="magnify" viewBox="0 0 900 119.999999" height="160" preserveAspectRatio="xMidYMid meet" version="1.0"><defs><g/><clipPath id="ec74c9ef9e"><path d="M 362 51 L 401 51 L 401 105 L 362 105 Z M 362 51 " clip-rule="nonzero"/></clipPath><clipPath id="d5a2a6ae85"><rect x="0" width="890" y="0" height="105"/></clipPath></defs><g transform="matrix(1, 0, 0, 1, 1, 15)"><g clip-path="url(#d5a2a6ae85)"><g fill="#793b8f" fill-opacity="1"><g transform="translate(3.675483, 83.716916)"><g><path d="M 31.597656 -53.5625 L 46.078125 -53.5625 L 46.078125 -49.320312 L 41.839844 -49.472656 C 41.9375 -52.25 42 -55.140625 42.023438 -58.140625 C 42.050781 -61.214844 42.101562 -64.035156 42.175781 -66.605469 C 42.257812 -69.308594 42.410156 -71.421875 42.636719 -72.945312 L 42.882812 -74.617188 L 44.214844 -75.660156 C 46.585938 -77.519531 49.292969 -78.78125 52.335938 -79.445312 C 55.261719 -80.085938 58.21875 -80.175781 61.199219 -79.722656 C 64.207031 -79.261719 67.003906 -78.261719 69.589844 -76.722656 C 72.289062 -75.117188 74.472656 -72.980469 76.144531 -70.3125 C 77.882812 -67.539062 78.75 -64.3125 78.75 -60.632812 L 78.75 -33.859375 L 78.714844 -21.742188 L 78.675781 -9.867188 C 78.675781 -8.546875 78.664062 -7.082031 78.636719 -5.476562 C 78.609375 -3.75 78.539062 -2.386719 78.421875 -1.390625 L 78.261719 -0.0273438 L 77.335938 0.980469 C 76.308594 2.101562 74.722656 3.042969 72.574219 3.808594 C 70.785156 4.445312 68.738281 4.894531 66.429688 5.15625 C 64.183594 5.414062 61.875 5.457031 59.5 5.289062 C 56.957031 5.105469 54.527344 4.558594 52.210938 3.644531 C 49.679688 2.644531 47.546875 1.179688 45.820312 -0.753906 C 43.957031 -2.835938 42.816406 -5.4375 42.402344 -8.566406 C 42.238281 -9.660156 42.113281 -10.992188 42.03125 -12.558594 C 41.953125 -14.023438 41.890625 -15.558594 41.839844 -17.171875 C 41.789062 -18.773438 41.75 -20.265625 41.722656 -21.640625 C 41.699219 -23.023438 41.683594 -24.132812 41.683594 -24.960938 L 45.925781 -24.960938 L 45.925781 -20.71875 L 31.824219 -20.71875 L 31.824219 -24.960938 L 36.066406 -24.960938 L 36.066406 0.140625 L 34.585938 1.410156 C 33.5 2.34375 31.9375 3.1875 29.90625 3.941406 C 28.039062 4.632812 25.921875 5.125 23.558594 5.417969 C 21.199219 5.707031 18.792969 5.722656 16.332031 5.464844 C 13.664062 5.179688 11.148438 4.425781 8.789062 3.199219 C 6.242188 1.875 4.136719 -0.0703125 2.476562 -2.628906 C 0.816406 -5.183594 -0.136719 -8.363281 -0.386719 -12.164062 C -0.488281 -13.605469 -0.59375 -15.734375 -0.695312 -18.546875 L -0.996094 -28.148438 C -1.097656 -31.789062 -1.1875 -35.640625 -1.261719 -39.703125 C -1.339844 -43.777344 -1.375 -47.785156 -1.375 -51.734375 C -1.375 -55.675781 -1.351562 -59.355469 -1.300781 -62.769531 C -1.25 -66.238281 -1.144531 -69.136719 -0.988281 -71.472656 L -0.867188 -73.300781 L 0.542969 -74.464844 C 3.003906 -76.492188 5.71875 -77.941406 8.691406 -78.808594 C 11.59375 -79.65625 14.515625 -79.972656 17.460938 -79.757812 C 20.429688 -79.542969 23.1875 -78.832031 25.726562 -77.625 C 28.363281 -76.371094 30.558594 -74.667969 32.316406 -72.519531 C 34.226562 -70.183594 35.320312 -67.425781 35.597656 -64.242188 L 31.371094 -63.875 L 35.585938 -64.355469 C 35.855469 -61.984375 35.992188 -59.648438 35.992188 -57.351562 C 35.992188 -55.167969 35.964844 -53.308594 35.914062 -51.777344 C 35.863281 -50.34375 35.839844 -49.523438 35.839844 -49.320312 L 31.597656 -49.320312 Z M 31.597656 -45.078125 L 27.355469 -45.078125 L 27.355469 -49.320312 C 27.355469 -49.621094 27.382812 -50.535156 27.433594 -52.066406 C 27.484375 -53.5 27.507812 -55.265625 27.507812 -57.351562 C 27.507812 -59.328125 27.390625 -61.34375 27.15625 -63.398438 L 27.152344 -63.453125 L 27.144531 -63.507812 C 27.019531 -64.949219 26.554688 -66.164062 25.75 -67.148438 C 24.796875 -68.316406 23.574219 -69.253906 22.085938 -69.960938 C 20.503906 -70.714844 18.757812 -71.160156 16.851562 -71.296875 C 14.921875 -71.433594 12.992188 -71.222656 11.066406 -70.664062 C 9.210938 -70.121094 7.503906 -69.207031 5.941406 -67.917969 L 3.242188 -71.191406 L 7.476562 -70.910156 C 7.328125 -68.71875 7.230469 -65.964844 7.183594 -62.644531 C 7.132812 -59.269531 7.109375 -55.636719 7.109375 -51.734375 C 7.109375 -47.839844 7.144531 -43.882812 7.21875 -39.859375 C 7.296875 -35.824219 7.382812 -32.011719 7.484375 -28.414062 L 7.785156 -18.855469 C 7.882812 -16.140625 7.980469 -14.097656 8.078125 -12.722656 C 8.230469 -10.390625 8.734375 -8.566406 9.589844 -7.25 C 10.441406 -5.941406 11.480469 -4.964844 12.703125 -4.328125 C 14.113281 -3.597656 15.621094 -3.144531 17.226562 -2.972656 C 19.039062 -2.78125 20.804688 -2.792969 22.519531 -3.003906 C 24.226562 -3.214844 25.707031 -3.550781 26.957031 -4.015625 C 28.039062 -4.417969 28.742188 -4.757812 29.0625 -5.03125 L 31.824219 -1.808594 L 27.582031 -1.808594 L 27.582031 -29.203125 L 50.167969 -29.203125 L 50.167969 -24.960938 C 50.167969 -24.183594 50.183594 -23.128906 50.207031 -21.796875 C 50.230469 -20.460938 50.269531 -19.007812 50.316406 -17.441406 C 50.367188 -15.886719 50.429688 -14.410156 50.503906 -13.003906 C 50.570312 -11.707031 50.675781 -10.601562 50.8125 -9.6875 C 50.996094 -8.285156 51.441406 -7.195312 52.144531 -6.410156 C 52.980469 -5.476562 54.039062 -4.757812 55.328125 -4.246094 C 56.835938 -3.652344 58.425781 -3.296875 60.105469 -3.175781 C 61.957031 -3.042969 63.742188 -3.074219 65.46875 -3.273438 C 67.132812 -3.460938 68.554688 -3.765625 69.730469 -4.183594 C 70.25 -4.371094 70.664062 -4.546875 70.96875 -4.71875 C 71.058594 -4.765625 71.128906 -4.808594 71.171875 -4.84375 C 71.15625 -4.828125 71.125 -4.800781 71.082031 -4.753906 L 74.207031 -1.886719 L 69.996094 -2.382812 C 70.078125 -3.09375 70.132812 -4.167969 70.15625 -5.609375 C 70.179688 -7.171875 70.191406 -8.597656 70.191406 -9.894531 L 70.230469 -21.769531 L 70.265625 -33.859375 L 70.265625 -60.632812 C 70.265625 -62.6875 69.828125 -64.410156 68.953125 -65.808594 C 68.007812 -67.316406 66.773438 -68.523438 65.25 -69.429688 C 63.613281 -70.40625 61.835938 -71.039062 59.914062 -71.332031 C 57.972656 -71.632812 56.050781 -71.574219 54.148438 -71.15625 C 52.367188 -70.765625 50.800781 -70.042969 49.449219 -68.984375 L 46.832031 -72.324219 L 51.027344 -71.699219 C 50.851562 -70.507812 50.726562 -68.722656 50.65625 -66.351562 C 50.582031 -63.84375 50.535156 -61.082031 50.507812 -58.070312 C 50.484375 -54.992188 50.417969 -52.023438 50.316406 -49.167969 L 50.171875 -45.078125 Z M 31.597656 -45.078125 "/></g></g></g><g fill="#793b8f" fill-opacity="1"><g transform="translate(81.647301, 83.716916)"><g><path d="M -0.0859375 -17.171875 C -0.191406 -18.9375 -0.269531 -21.296875 -0.320312 -24.246094 C -0.371094 -27.164062 -0.394531 -30.429688 -0.394531 -34.050781 C -0.394531 -37.671875 -0.359375 -41.421875 -0.28125 -45.292969 C -0.207031 -49.160156 -0.105469 -52.964844 0.0195312 -56.703125 C 0.148438 -60.457031 0.300781 -63.929688 0.476562 -67.128906 C 0.660156 -70.382812 0.878906 -73.113281 1.140625 -75.3125 L 1.542969 -78.695312 L 4.933594 -79.03125 C 7.539062 -79.292969 10.683594 -79.488281 14.367188 -79.617188 C 17.996094 -79.742188 21.886719 -79.832031 26.042969 -79.882812 C 30.207031 -79.933594 34.386719 -79.921875 38.574219 -79.84375 C 42.757812 -79.769531 46.710938 -79.65625 50.4375 -79.503906 C 54.179688 -79.347656 57.410156 -79.171875 60.121094 -78.964844 L 62.140625 -78.8125 L 63.292969 -77.148438 C 64.03125 -76.082031 64.636719 -74.628906 65.117188 -72.785156 C 65.554688 -71.097656 65.789062 -69.230469 65.816406 -67.179688 C 65.847656 -65.09375 65.589844 -62.984375 65.042969 -60.859375 C 64.449219 -58.554688 63.421875 -56.425781 61.953125 -54.46875 C 60.390625 -52.382812 58.285156 -50.738281 55.644531 -49.53125 C 53.097656 -48.375 50.011719 -47.792969 46.378906 -47.792969 L 30.84375 -47.792969 L 30.84375 -52.035156 L 35.085938 -52.035156 L 35.085938 -48.113281 L 30.84375 -48.113281 L 30.84375 -52.355469 C 31.914062 -52.355469 33.398438 -52.382812 35.296875 -52.429688 C 37.269531 -52.480469 39.40625 -52.507812 41.703125 -52.507812 C 44.097656 -52.507812 46.449219 -52.402344 48.765625 -52.1875 C 51.253906 -51.960938 53.441406 -51.550781 55.335938 -50.957031 L 57.148438 -50.390625 L 57.933594 -48.664062 C 59.75 -44.667969 60.5 -40.867188 60.183594 -37.261719 C 59.835938 -33.296875 58.261719 -30.035156 55.460938 -27.484375 C 52.726562 -24.992188 49 -23.621094 44.269531 -23.367188 C 42.917969 -23.3125 41.660156 -23.285156 40.496094 -23.285156 C 39.367188 -23.285156 38.0625 -23.296875 36.578125 -23.324219 C 35.144531 -23.347656 33.257812 -23.359375 30.917969 -23.359375 L 30.917969 -27.601562 L 35.164062 -27.601562 L 35.164062 -23 L 30.917969 -23 L 30.917969 -27.242188 L 59.027344 -27.242188 L 60.296875 -25.492188 C 62.148438 -22.941406 63.328125 -20.113281 63.839844 -17.019531 C 64.351562 -13.898438 64.125 -10.855469 63.15625 -7.886719 C 62.140625 -4.765625 60.246094 -2.101562 57.472656 0.113281 C 54.738281 2.289062 51.195312 3.65625 46.835938 4.207031 C 45.476562 4.371094 43.683594 4.519531 41.464844 4.648438 C 39.257812 4.78125 36.835938 4.855469 34.203125 4.882812 C 31.597656 4.910156 29.003906 4.894531 26.425781 4.84375 C 23.808594 4.792969 21.445312 4.6875 19.332031 4.53125 C 17.085938 4.367188 15.304688 4.132812 13.992188 3.835938 L 13.933594 3.820312 L 13.875 3.808594 C 9.261719 2.621094 5.816406 0.203125 3.53125 -3.441406 C 1.464844 -6.746094 0.257812 -11.320312 -0.0859375 -17.171875 Z M 8.382812 -17.667969 C 8.640625 -13.261719 9.421875 -10.023438 10.722656 -7.945312 C 11.808594 -6.210938 13.5625 -5.035156 15.988281 -4.410156 L 14.933594 -0.300781 L 15.871094 -4.4375 C 16.773438 -4.234375 18.132812 -4.0625 19.957031 -3.929688 C 21.917969 -3.785156 24.128906 -3.6875 26.59375 -3.636719 C 29.089844 -3.589844 31.597656 -3.578125 34.121094 -3.601562 C 36.617188 -3.625 38.898438 -3.699219 40.964844 -3.820312 C 43.015625 -3.941406 44.617188 -4.070312 45.769531 -4.207031 C 48.554688 -4.5625 50.691406 -5.332031 52.179688 -6.523438 C 53.628906 -7.675781 54.601562 -9.007812 55.089844 -10.515625 C 55.632812 -12.171875 55.757812 -13.878906 55.46875 -15.636719 C 55.171875 -17.417969 54.492188 -19.039062 53.429688 -20.511719 L 56.863281 -23 L 56.863281 -18.757812 L 26.675781 -18.757812 L 26.675781 -31.84375 L 30.917969 -31.84375 C 33.308594 -31.84375 35.242188 -31.832031 36.722656 -31.804688 C 38.15625 -31.78125 39.414062 -31.769531 40.496094 -31.769531 C 41.546875 -31.769531 42.652344 -31.792969 43.8125 -31.835938 C 46.527344 -31.984375 48.503906 -32.621094 49.742188 -33.753906 C 50.914062 -34.820312 51.578125 -36.234375 51.730469 -38.003906 C 51.917969 -40.128906 51.410156 -42.511719 50.210938 -45.152344 L 54.070312 -46.90625 L 52.808594 -42.859375 C 51.484375 -43.273438 49.878906 -43.566406 47.988281 -43.738281 C 45.933594 -43.929688 43.835938 -44.023438 41.703125 -44.023438 C 39.476562 -44.023438 37.417969 -44 35.515625 -43.949219 C 33.542969 -43.898438 31.988281 -43.871094 30.84375 -43.871094 L 26.601562 -43.871094 L 26.601562 -56.277344 L 46.378906 -56.277344 C 48.78125 -56.277344 50.695312 -56.601562 52.125 -57.253906 C 53.453125 -57.859375 54.46875 -58.628906 55.164062 -59.558594 C 55.960938 -60.617188 56.511719 -61.753906 56.824219 -62.972656 C 57.183594 -64.363281 57.355469 -65.726562 57.332031 -67.054688 C 57.3125 -68.425781 57.171875 -69.625 56.902344 -70.65625 C 56.679688 -71.523438 56.480469 -72.082031 56.316406 -72.320312 L 59.804688 -74.734375 L 59.484375 -70.503906 C 56.867188 -70.703125 53.738281 -70.875 50.089844 -71.023438 C 46.425781 -71.175781 42.539062 -71.285156 38.421875 -71.359375 C 34.316406 -71.4375 30.226562 -71.449219 26.144531 -71.398438 C 22.054688 -71.347656 18.226562 -71.261719 14.664062 -71.136719 C 11.164062 -71.015625 8.199219 -70.832031 5.777344 -70.589844 L 5.355469 -74.8125 L 9.566406 -74.308594 C 9.324219 -72.285156 9.121094 -69.734375 8.949219 -66.65625 C 8.773438 -63.519531 8.625 -60.105469 8.5 -56.417969 C 8.375 -52.71875 8.277344 -48.953125 8.199219 -45.128906 C 8.125 -41.308594 8.089844 -37.617188 8.089844 -34.050781 C 8.089844 -30.480469 8.113281 -27.261719 8.164062 -24.394531 C 8.210938 -21.5625 8.285156 -19.320312 8.382812 -17.667969 Z M 8.382812 -17.667969 "/></g></g></g><g fill="#793b8f" fill-opacity="1"><g transform="translate(145.140793, 83.716916)"><g><path d="M 50.542969 4.007812 C 47.808594 4.164062 45.039062 4.253906 42.234375 4.28125 C 39.449219 4.304688 36.878906 4.292969 34.523438 4.242188 C 32.191406 4.191406 30.3125 4.140625 28.882812 4.089844 L 26.773438 4.011719 L 26.921875 -0.226562 L 26.921875 4.015625 C 24.765625 4.015625 22.421875 3.839844 19.886719 3.484375 C 17.089844 3.09375 14.378906 2.242188 11.753906 0.929688 C 8.941406 -0.476562 6.515625 -2.542969 4.480469 -5.265625 C 2.421875 -8.023438 1.0625 -11.585938 0.40625 -15.960938 C 0.0859375 -18.179688 -0.199219 -20.945312 -0.457031 -24.253906 C -0.714844 -27.535156 -0.90625 -31.160156 -1.035156 -35.121094 C -1.164062 -39.078125 -1.199219 -43.199219 -1.148438 -47.484375 C -1.097656 -51.785156 -0.933594 -56.0625 -0.652344 -60.308594 C -0.367188 -64.617188 0.0898438 -68.695312 0.714844 -72.550781 L 0.953125 -74.03125 L 2.078125 -75.035156 C 3.921875 -76.683594 6.15625 -77.941406 8.777344 -78.800781 C 11.332031 -79.644531 14.023438 -80 16.851562 -79.878906 C 19.792969 -79.75 22.601562 -78.988281 25.269531 -77.589844 C 28.023438 -76.148438 30.355469 -73.996094 32.261719 -71.132812 C 34.15625 -68.292969 35.339844 -64.667969 35.816406 -60.257812 C 36.078125 -57.953125 36.261719 -55.296875 36.367188 -52.296875 C 36.46875 -49.378906 36.542969 -46.347656 36.59375 -43.207031 C 36.644531 -40.054688 36.65625 -36.988281 36.632812 -34.011719 C 36.605469 -31.023438 36.542969 -28.324219 36.441406 -25.914062 L 32.203125 -26.09375 L 31.828125 -30.320312 C 33.648438 -30.480469 35.84375 -30.574219 38.417969 -30.597656 C 40.921875 -30.625 43.613281 -30.613281 46.492188 -30.5625 C 49.40625 -30.507812 52.355469 -30.378906 55.34375 -30.175781 C 58.320312 -29.96875 61.175781 -29.710938 63.902344 -29.402344 L 66.132812 -29.152344 L 67.175781 -27.164062 C 69.046875 -23.609375 69.886719 -20.011719 69.695312 -16.367188 C 69.507812 -12.816406 68.539062 -9.539062 66.785156 -6.535156 C 65.058594 -3.574219 62.8125 -1.144531 60.050781 0.746094 C 57.164062 2.726562 53.992188 3.8125 50.542969 4.007812 Z M 50.0625 -4.460938 C 51.9375 -4.566406 53.667969 -5.164062 55.257812 -6.25 C 56.96875 -7.425781 58.371094 -8.945312 59.457031 -10.808594 C 60.519531 -12.632812 61.109375 -14.632812 61.222656 -16.8125 C 61.332031 -18.902344 60.816406 -21.035156 59.667969 -23.210938 L 63.421875 -25.1875 L 62.945312 -20.972656 C 60.34375 -21.269531 57.613281 -21.511719 54.761719 -21.710938 C 51.917969 -21.90625 49.109375 -22.027344 46.34375 -22.078125 C 43.542969 -22.128906 40.929688 -22.140625 38.503906 -22.117188 C 36.152344 -22.089844 34.175781 -22.007812 32.574219 -21.867188 L 27.757812 -21.441406 L 27.964844 -26.273438 C 28.0625 -28.589844 28.125 -31.191406 28.148438 -34.085938 C 28.171875 -36.992188 28.160156 -39.988281 28.109375 -43.070312 C 28.0625 -46.160156 27.988281 -49.136719 27.886719 -52 C 27.789062 -54.78125 27.621094 -57.230469 27.382812 -59.347656 C 27.054688 -62.378906 26.328125 -64.738281 25.203125 -66.425781 C 24.09375 -68.085938 22.804688 -69.300781 21.335938 -70.074219 C 19.78125 -70.886719 18.164062 -71.328125 16.480469 -71.402344 C 14.6875 -71.480469 13.003906 -71.261719 11.433594 -70.742188 C 9.929688 -70.25 8.695312 -69.570312 7.726562 -68.707031 L 4.902344 -71.871094 L 9.089844 -71.191406 C 8.507812 -67.601562 8.082031 -63.789062 7.816406 -59.75 C 7.542969 -55.652344 7.382812 -51.53125 7.332031 -47.386719 C 7.285156 -43.222656 7.320312 -39.226562 7.445312 -35.394531 C 7.570312 -31.5625 7.753906 -28.070312 8 -24.914062 C 8.246094 -21.789062 8.507812 -19.222656 8.796875 -17.222656 C 9.242188 -14.253906 10.070312 -11.960938 11.277344 -10.34375 C 12.511719 -8.695312 13.933594 -7.464844 15.546875 -6.660156 C 17.34375 -5.761719 19.183594 -5.179688 21.0625 -4.917969 C 23.207031 -4.617188 25.160156 -4.46875 26.921875 -4.46875 L 27 -4.46875 L 29.1875 -4.390625 C 30.574219 -4.339844 32.414062 -4.292969 34.707031 -4.242188 C 36.976562 -4.191406 39.460938 -4.179688 42.15625 -4.203125 C 44.828125 -4.230469 47.464844 -4.316406 50.0625 -4.460938 Z M 50.0625 -4.460938 "/></g></g></g><g fill="#793b8f" fill-opacity="1"><g transform="translate(213.384988, 83.716916)"><g><path d="M 50.542969 4.007812 C 47.808594 4.164062 45.039062 4.253906 42.234375 4.28125 C 39.449219 4.304688 36.878906 4.292969 34.523438 4.242188 C 32.191406 4.191406 30.3125 4.140625 28.882812 4.089844 L 26.773438 4.011719 L 26.921875 -0.226562 L 26.921875 4.015625 C 24.765625 4.015625 22.421875 3.839844 19.886719 3.484375 C 17.089844 3.09375 14.378906 2.242188 11.753906 0.929688 C 8.941406 -0.476562 6.515625 -2.542969 4.480469 -5.265625 C 2.421875 -8.023438 1.0625 -11.585938 0.40625 -15.960938 C 0.0859375 -18.179688 -0.199219 -20.945312 -0.457031 -24.253906 C -0.714844 -27.535156 -0.90625 -31.160156 -1.035156 -35.121094 C -1.164062 -39.078125 -1.199219 -43.199219 -1.148438 -47.484375 C -1.097656 -51.785156 -0.933594 -56.0625 -0.652344 -60.308594 C -0.367188 -64.617188 0.0898438 -68.695312 0.714844 -72.550781 L 0.953125 -74.03125 L 2.078125 -75.035156 C 3.921875 -76.683594 6.15625 -77.941406 8.777344 -78.800781 C 11.332031 -79.644531 14.023438 -80 16.851562 -79.878906 C 19.792969 -79.75 22.601562 -78.988281 25.269531 -77.589844 C 28.023438 -76.148438 30.355469 -73.996094 32.261719 -71.132812 C 34.15625 -68.292969 35.339844 -64.667969 35.816406 -60.257812 C 36.078125 -57.953125 36.261719 -55.296875 36.367188 -52.296875 C 36.46875 -49.378906 36.542969 -46.347656 36.59375 -43.207031 C 36.644531 -40.054688 36.65625 -36.988281 36.632812 -34.011719 C 36.605469 -31.023438 36.542969 -28.324219 36.441406 -25.914062 L 32.203125 -26.09375 L 31.828125 -30.320312 C 33.648438 -30.480469 35.84375 -30.574219 38.417969 -30.597656 C 40.921875 -30.625 43.613281 -30.613281 46.492188 -30.5625 C 49.40625 -30.507812 52.355469 -30.378906 55.34375 -30.175781 C 58.320312 -29.96875 61.175781 -29.710938 63.902344 -29.402344 L 66.132812 -29.152344 L 67.175781 -27.164062 C 69.046875 -23.609375 69.886719 -20.011719 69.695312 -16.367188 C 69.507812 -12.816406 68.539062 -9.539062 66.785156 -6.535156 C 65.058594 -3.574219 62.8125 -1.144531 60.050781 0.746094 C 57.164062 2.726562 53.992188 3.8125 50.542969 4.007812 Z M 50.0625 -4.460938 C 51.9375 -4.566406 53.667969 -5.164062 55.257812 -6.25 C 56.96875 -7.425781 58.371094 -8.945312 59.457031 -10.808594 C 60.519531 -12.632812 61.109375 -14.632812 61.222656 -16.8125 C 61.332031 -18.902344 60.816406 -21.035156 59.667969 -23.210938 L 63.421875 -25.1875 L 62.945312 -20.972656 C 60.34375 -21.269531 57.613281 -21.511719 54.761719 -21.710938 C 51.917969 -21.90625 49.109375 -22.027344 46.34375 -22.078125 C 43.542969 -22.128906 40.929688 -22.140625 38.503906 -22.117188 C 36.152344 -22.089844 34.175781 -22.007812 32.574219 -21.867188 L 27.757812 -21.441406 L 27.964844 -26.273438 C 28.0625 -28.589844 28.125 -31.191406 28.148438 -34.085938 C 28.171875 -36.992188 28.160156 -39.988281 28.109375 -43.070312 C 28.0625 -46.160156 27.988281 -49.136719 27.886719 -52 C 27.789062 -54.78125 27.621094 -57.230469 27.382812 -59.347656 C 27.054688 -62.378906 26.328125 -64.738281 25.203125 -66.425781 C 24.09375 -68.085938 22.804688 -69.300781 21.335938 -70.074219 C 19.78125 -70.886719 18.164062 -71.328125 16.480469 -71.402344 C 14.6875 -71.480469 13.003906 -71.261719 11.433594 -70.742188 C 9.929688 -70.25 8.695312 -69.570312 7.726562 -68.707031 L 4.902344 -71.871094 L 9.089844 -71.191406 C 8.507812 -67.601562 8.082031 -63.789062 7.816406 -59.75 C 7.542969 -55.652344 7.382812 -51.53125 7.332031 -47.386719 C 7.285156 -43.222656 7.320312 -39.226562 7.445312 -35.394531 C 7.570312 -31.5625 7.753906 -28.070312 8 -24.914062 C 8.246094 -21.789062 8.507812 -19.222656 8.796875 -17.222656 C 9.242188 -14.253906 10.070312 -11.960938 11.277344 -10.34375 C 12.511719 -8.695312 13.933594 -7.464844 15.546875 -6.660156 C 17.34375 -5.761719 19.183594 -5.179688 21.0625 -4.917969 C 23.207031 -4.617188 25.160156 -4.46875 26.921875 -4.46875 L 27 -4.46875 L 29.1875 -4.390625 C 30.574219 -4.339844 32.414062 -4.292969 34.707031 -4.242188 C 36.976562 -4.191406 39.460938 -4.179688 42.15625 -4.203125 C 44.828125 -4.230469 47.464844 -4.316406 50.0625 -4.460938 Z M 50.0625 -4.460938 "/></g></g></g><g fill="#793b8f" fill-opacity="1"><g transform="translate(281.629171, 83.716916)"><g><path d="M 41.664062 -81.164062 C 47.238281 -81.21875 52.164062 -80.578125 56.433594 -79.234375 C 60.703125 -77.898438 64.375 -76.144531 67.449219 -73.980469 C 70.472656 -71.851562 73 -69.558594 75.027344 -67.105469 C 76.996094 -64.722656 78.558594 -62.4375 79.722656 -60.25 C 80.84375 -58.152344 81.660156 -56.414062 82.175781 -55.035156 C 84.082031 -49.804688 85.214844 -44.539062 85.566406 -39.234375 C 85.929688 -33.816406 85.28125 -28.375 83.621094 -22.902344 C 81.332031 -15.554688 77.71875 -9.578125 72.785156 -4.96875 C 67.851562 -0.359375 61.660156 2.824219 54.214844 4.582031 C 48.347656 5.996094 42.539062 6.441406 36.796875 5.921875 C 30.960938 5.394531 25.285156 3.695312 19.761719 0.824219 C 14.390625 -1.949219 10.085938 -5.582031 6.851562 -10.078125 C 3.671875 -14.496094 1.441406 -19.574219 0.160156 -25.320312 C -0.652344 -28.832031 -1.125 -32.429688 -1.261719 -36.117188 C -1.398438 -39.820312 -1.179688 -43.417969 -0.605469 -46.914062 C -0.0117188 -50.523438 0.972656 -53.785156 2.34375 -56.707031 C 3.65625 -59.605469 5.359375 -62.472656 7.445312 -65.300781 C 9.597656 -68.21875 12.246094 -70.867188 15.382812 -73.25 C 18.578125 -75.675781 22.363281 -77.601562 26.734375 -79.03125 C 31.085938 -80.453125 36.074219 -81.164062 41.703125 -81.164062 Z M 41.703125 -72.679688 C 36.976562 -72.679688 32.867188 -72.109375 29.371094 -70.96875 C 25.902344 -69.832031 22.949219 -68.339844 20.511719 -66.492188 C 18.023438 -64.601562 15.941406 -62.523438 14.273438 -60.261719 C 12.539062 -57.914062 11.125 -55.523438 10.023438 -53.09375 C 8.984375 -50.886719 8.234375 -48.371094 7.769531 -45.542969 C 7.285156 -42.605469 7.101562 -39.566406 7.21875 -36.429688 C 7.335938 -33.28125 7.742188 -30.195312 8.4375 -27.167969 C 9.46875 -22.554688 11.234375 -18.511719 13.738281 -15.035156 C 16.179688 -11.636719 19.496094 -8.863281 23.675781 -6.703125 C 28.210938 -4.347656 32.835938 -2.957031 37.5625 -2.527344 C 42.375 -2.09375 47.277344 -2.476562 52.269531 -3.675781 C 58.25 -5.085938 63.15625 -7.585938 66.996094 -11.167969 C 70.835938 -14.757812 73.671875 -19.488281 75.503906 -25.363281 C 76.859375 -29.847656 77.394531 -34.28125 77.101562 -38.667969 C 76.800781 -43.167969 75.84375 -47.632812 74.234375 -52.054688 C 73.84375 -53.089844 73.179688 -54.492188 72.234375 -56.265625 C 71.339844 -57.949219 70.089844 -59.761719 68.484375 -61.703125 C 66.941406 -63.570312 64.96875 -65.351562 62.566406 -67.042969 C 60.210938 -68.699219 57.320312 -70.066406 53.894531 -71.140625 C 50.476562 -72.214844 46.425781 -72.726562 41.746094 -72.679688 Z M 42.082031 -45.683594 C 41.058594 -45.683594 40.109375 -45.394531 39.230469 -44.824219 C 38.347656 -44.25 37.625 -43.324219 37.058594 -42.054688 C 36.4375 -40.65625 36.203125 -38.800781 36.359375 -36.480469 C 36.507812 -34.316406 36.941406 -32.6875 37.664062 -31.601562 C 38.359375 -30.546875 39.121094 -29.824219 39.945312 -29.433594 C 40.796875 -29.027344 41.5 -28.847656 42.058594 -28.890625 C 42.792969 -28.945312 43.578125 -29.207031 44.410156 -29.675781 C 45.113281 -30.074219 45.765625 -30.789062 46.355469 -31.824219 C 47.003906 -32.949219 47.382812 -34.582031 47.496094 -36.726562 C 47.652344 -38.9375 47.433594 -40.714844 46.835938 -42.058594 C 46.28125 -43.316406 45.566406 -44.242188 44.691406 -44.847656 C 43.882812 -45.402344 43.011719 -45.683594 42.082031 -45.683594 Z M 42.082031 -54.167969 C 44.769531 -54.167969 47.246094 -53.390625 49.503906 -51.835938 C 51.695312 -50.324219 53.390625 -48.214844 54.59375 -45.496094 C 55.757812 -42.867188 56.21875 -39.792969 55.96875 -36.273438 C 55.785156 -32.785156 55.03125 -29.894531 53.71875 -27.601562 C 52.351562 -25.21875 50.636719 -23.445312 48.574219 -22.285156 C 46.644531 -21.195312 44.6875 -20.578125 42.707031 -20.429688 C 40.648438 -20.273438 38.515625 -20.71875 36.300781 -21.773438 C 34.058594 -22.839844 32.152344 -24.554688 30.585938 -26.917969 C 29.042969 -29.25 28.144531 -32.25 27.894531 -35.917969 C 27.644531 -39.632812 28.117188 -42.824219 29.304688 -45.5 C 30.550781 -48.300781 32.316406 -50.445312 34.601562 -51.933594 C 36.886719 -53.421875 39.382812 -54.167969 42.082031 -54.167969 Z M 42.082031 -54.167969 "/></g></g></g><g clip-path="url(#ec74c9ef9e)"><g fill="#793b8f" fill-opacity="1"><g transform="translate(366.086086, 83.716916)"><g><path d="M 9.941406 4.667969 C 6.699219 3.695312 4.074219 2.136719 2.070312 -0.00390625 C 0.148438 -2.054688 -1.222656 -4.378906 -2.046875 -6.976562 C -2.832031 -9.46875 -3.148438 -11.980469 -2.988281 -14.519531 C -2.832031 -17.066406 -2.257812 -19.386719 -1.277344 -21.484375 C 0.0585938 -24.472656 2.054688 -26.957031 4.707031 -28.929688 C 7.484375 -31 11.15625 -32.09375 15.722656 -32.21875 C 19.863281 -32.285156 23.363281 -31.347656 26.214844 -29.414062 C 28.976562 -27.539062 31.046875 -25.101562 32.433594 -22.101562 C 33.738281 -19.277344 34.421875 -16.285156 34.484375 -13.128906 C 34.542969 -10.246094 34.160156 -7.359375 33.34375 -4.464844 C 32.570312 -1.738281 31.566406 0.90625 30.328125 3.46875 C 29.113281 5.976562 27.804688 8.296875 26.394531 10.441406 C 25 12.554688 23.652344 14.402344 22.347656 15.976562 C 20.351562 18.488281 18.109375 20.234375 15.621094 21.214844 C 13.136719 22.195312 10.742188 22.519531 8.441406 22.183594 C 6.054688 21.839844 4.042969 20.949219 2.410156 19.519531 C 0.4375 17.792969 -0.546875 15.6875 -0.546875 13.199219 L -0.546875 12.175781 L -0.0820312 11.269531 C 1.203125 8.75 2.570312 6.417969 4.023438 4.261719 C 5.296875 2.382812 6.421875 0.503906 7.40625 -1.367188 L 11.160156 0.601562 Z M 12.378906 -3.460938 L 17.308594 -1.980469 L 14.917969 2.574219 C 13.789062 4.722656 12.503906 6.871094 11.058594 9.011719 C 9.796875 10.878906 8.601562 12.917969 7.472656 15.125 L 3.695312 13.199219 L 7.9375 13.199219 C 7.9375 13.15625 7.921875 13.101562 7.894531 13.042969 C 7.886719 13.027344 7.882812 13.019531 7.882812 13.019531 C 7.90625 13.050781 7.945312 13.089844 7.996094 13.132812 C 8.375 13.464844 8.925781 13.683594 9.660156 13.789062 C 10.472656 13.90625 11.421875 13.75 12.507812 13.324219 C 13.589844 12.898438 14.6875 11.980469 15.8125 10.566406 C 16.917969 9.230469 18.085938 7.632812 19.308594 5.773438 C 20.511719 3.945312 21.640625 1.945312 22.6875 -0.226562 C 23.710938 -2.339844 24.542969 -4.523438 25.179688 -6.773438 C 25.769531 -8.855469 26.042969 -10.917969 26 -12.964844 C 25.960938 -14.933594 25.539062 -16.796875 24.730469 -18.546875 C 24.003906 -20.121094 22.910156 -21.402344 21.449219 -22.394531 C 20.078125 -23.324219 18.246094 -23.773438 15.953125 -23.738281 C 13.175781 -23.660156 11.117188 -23.125 9.773438 -22.125 C 8.304688 -21.03125 7.179688 -19.617188 6.40625 -17.882812 C 5.878906 -16.761719 5.570312 -15.460938 5.476562 -13.988281 C 5.386719 -12.503906 5.574219 -11.019531 6.042969 -9.539062 C 6.476562 -8.164062 7.21875 -6.917969 8.261719 -5.804688 C 9.222656 -4.777344 10.597656 -3.996094 12.378906 -3.460938 Z M 12.378906 -3.460938 "/></g></g></g></g><g fill="#793b8f" fill-opacity="1"><g transform="translate(397.455797, 83.716916)"><g/></g></g><g fill="#793b8f" fill-opacity="1"><g transform="translate(435.461393, 83.716916)"><g><path d="M 57.285156 -46.066406 C 61.699219 -43.335938 65.003906 -40.109375 67.191406 -36.390625 C 69.382812 -32.667969 70.570312 -28.769531 70.753906 -24.699219 C 70.929688 -20.757812 70.339844 -16.960938 68.984375 -13.304688 C 67.636719 -9.671875 65.679688 -6.453125 63.121094 -3.660156 C 60.507812 -0.804688 57.5 1.320312 54.101562 2.71875 C 51.8125 3.632812 49.074219 4.394531 45.886719 4.996094 C 42.761719 5.589844 39.382812 5.953125 35.75 6.085938 C 32.09375 6.222656 28.347656 6.035156 24.515625 5.523438 C 20.601562 5.003906 16.820312 4.058594 13.175781 2.6875 C 9.398438 1.269531 5.972656 -0.691406 2.902344 -3.195312 L 2.535156 -3.496094 L 2.242188 -3.867188 C 0.304688 -6.34375 -0.855469 -9.046875 -1.230469 -11.980469 C -1.589844 -14.8125 -1.308594 -17.535156 -0.378906 -20.15625 C 0.554688 -22.796875 2.019531 -25.042969 4.007812 -26.894531 C 6.121094 -28.867188 8.636719 -30.085938 11.554688 -30.546875 C 14.496094 -31.015625 17.605469 -30.449219 20.871094 -28.847656 C 24.113281 -27.25 27.132812 -26.171875 29.933594 -25.617188 C 32.515625 -25.105469 34.566406 -25.023438 36.09375 -25.367188 C 36.523438 -25.464844 36.800781 -25.5625 36.925781 -25.660156 C 36.816406 -25.574219 36.742188 -25.453125 36.699219 -25.300781 C 36.714844 -25.359375 36.722656 -25.394531 36.722656 -25.40625 C 36.722656 -25.351562 36.730469 -25.289062 36.75 -25.214844 C 36.789062 -25.0625 36.835938 -24.960938 36.894531 -24.90625 C 36.910156 -24.890625 36.921875 -24.882812 36.925781 -24.875 C 36.910156 -24.890625 36.886719 -24.902344 36.851562 -24.921875 C 36.71875 -24.992188 36.539062 -25.066406 36.3125 -25.136719 C 35.65625 -25.339844 34.789062 -25.480469 33.710938 -25.558594 C 30.367188 -25.832031 27.042969 -26.402344 23.734375 -27.269531 C 20.300781 -28.167969 17.089844 -29.480469 14.097656 -31.203125 C 10.917969 -33.03125 8.238281 -35.429688 6.050781 -38.394531 C 3.816406 -41.421875 2.34375 -45.027344 1.625 -49.207031 C 1.363281 -50.851562 1.335938 -52.773438 1.546875 -54.96875 C 1.753906 -57.148438 2.28125 -59.433594 3.128906 -61.820312 C 3.996094 -64.28125 5.296875 -66.683594 7.03125 -69.035156 C 8.804688 -71.4375 11.125 -73.605469 13.996094 -75.539062 C 16.855469 -77.464844 20.324219 -78.96875 24.40625 -80.042969 C 27.167969 -80.816406 30.105469 -81.300781 33.21875 -81.496094 C 36.25 -81.683594 39.269531 -81.644531 42.273438 -81.375 C 45.335938 -81.097656 48.207031 -80.570312 50.886719 -79.789062 C 53.707031 -78.964844 56.097656 -77.910156 58.058594 -76.625 C 61.238281 -74.484375 63.570312 -72.140625 65.054688 -69.59375 C 66.605469 -66.929688 67.359375 -64.238281 67.324219 -61.519531 C 67.292969 -58.894531 66.660156 -56.433594 65.425781 -54.136719 C 64.25 -51.953125 62.714844 -50.089844 60.816406 -48.550781 C 58.847656 -46.957031 56.664062 -45.882812 54.261719 -45.335938 L 51.695312 -44.75 L 50.027344 -46.792969 C 49.300781 -47.683594 48.238281 -48.484375 46.839844 -49.195312 C 45.203125 -50.023438 43.429688 -50.660156 41.523438 -51.113281 C 39.621094 -51.558594 37.839844 -51.773438 36.175781 -51.753906 C 34.800781 -51.734375 33.761719 -51.554688 33.050781 -51.207031 C 33.027344 -51.195312 33.011719 -51.183594 33 -51.175781 C 33.003906 -51.179688 33.015625 -51.1875 33.027344 -51.199219 C 33.09375 -51.253906 33.15625 -51.324219 33.21875 -51.414062 C 33.347656 -51.605469 33.417969 -51.78125 33.425781 -51.949219 L 29.183594 -52.109375 L 33.425781 -52.109375 C 33.425781 -52.410156 33.351562 -52.703125 33.199219 -52.988281 C 33.078125 -53.21875 32.941406 -53.390625 32.785156 -53.507812 C 32.71875 -53.558594 32.671875 -53.589844 32.644531 -53.601562 C 32.714844 -53.570312 32.820312 -53.53125 32.960938 -53.488281 C 33.398438 -53.359375 33.984375 -53.246094 34.714844 -53.148438 C 40.582031 -52.402344 45.441406 -51.273438 49.289062 -49.761719 C 53.054688 -48.28125 55.730469 -47.042969 57.3125 -46.046875 Z M 52.792969 -38.867188 C 51.660156 -39.582031 49.457031 -40.582031 46.1875 -41.867188 C 42.996094 -43.121094 38.800781 -44.078125 33.609375 -44.738281 C 30.964844 -45.085938 28.992188 -45.746094 27.695312 -46.71875 C 26.835938 -47.363281 26.171875 -48.132812 25.699219 -49.027344 C 25.195312 -49.980469 24.941406 -51.007812 24.941406 -52.109375 L 24.941406 -52.191406 L 24.945312 -52.273438 C 25.003906 -53.746094 25.429688 -55.0625 26.226562 -56.222656 C 26.980469 -57.316406 28.011719 -58.183594 29.316406 -58.824219 C 31.171875 -59.734375 33.421875 -60.203125 36.070312 -60.238281 C 38.429688 -60.265625 40.894531 -59.976562 43.46875 -59.371094 C 46.035156 -58.765625 48.4375 -57.894531 50.671875 -56.761719 C 53.144531 -55.511719 55.121094 -53.972656 56.605469 -52.152344 L 53.316406 -49.472656 L 52.371094 -53.605469 C 53.492188 -53.863281 54.527344 -54.375 55.472656 -55.144531 C 56.488281 -55.96875 57.316406 -56.96875 57.953125 -58.152344 C 58.527344 -59.226562 58.824219 -60.386719 58.84375 -61.628906 C 58.855469 -62.785156 58.484375 -64.015625 57.722656 -65.324219 C 56.890625 -66.75 55.453125 -68.152344 53.402344 -69.53125 C 52.148438 -70.351562 50.515625 -71.058594 48.511719 -71.644531 C 46.359375 -72.269531 44.027344 -72.695312 41.511719 -72.921875 C 38.9375 -73.15625 36.347656 -73.191406 33.75 -73.027344 C 31.230469 -72.871094 28.839844 -72.476562 26.574219 -71.839844 C 23.414062 -71.007812 20.800781 -69.894531 18.734375 -68.503906 C 16.675781 -67.117188 15.050781 -65.613281 13.859375 -63.996094 C 12.625 -62.324219 11.714844 -60.65625 11.125 -58.992188 C 10.511719 -57.257812 10.136719 -55.648438 9.992188 -54.15625 C 9.851562 -52.683594 9.847656 -51.511719 9.988281 -50.640625 C 10.476562 -47.78125 11.441406 -45.378906 12.878906 -43.429688 C 14.363281 -41.417969 16.179688 -39.792969 18.328125 -38.554688 C 20.667969 -37.210938 23.1875 -36.183594 25.886719 -35.476562 C 28.714844 -34.734375 31.523438 -34.25 34.3125 -34.019531 C 38.144531 -33.746094 40.953125 -32.757812 42.746094 -31.050781 C 43.855469 -29.992188 44.59375 -28.757812 44.960938 -27.347656 C 45.3125 -26 45.292969 -24.589844 44.898438 -23.113281 C 44.453125 -21.453125 43.550781 -20.082031 42.183594 -19.003906 C 41.050781 -18.109375 39.644531 -17.472656 37.964844 -17.089844 C 35.265625 -16.480469 32.039062 -16.550781 28.285156 -17.292969 C 24.75 -17.996094 21.035156 -19.304688 17.136719 -21.226562 C 15.476562 -22.039062 14.058594 -22.355469 12.882812 -22.167969 C 11.671875 -21.976562 10.644531 -21.484375 9.792969 -20.691406 C 8.816406 -19.78125 8.089844 -18.65625 7.617188 -17.324219 C 7.140625 -15.972656 6.996094 -14.550781 7.1875 -13.058594 C 7.363281 -11.667969 7.941406 -10.351562 8.917969 -9.101562 L 5.582031 -6.484375 L 8.261719 -9.773438 C 10.617188 -7.855469 13.25 -6.347656 16.160156 -5.253906 C 19.203125 -4.109375 22.359375 -3.320312 25.632812 -2.886719 C 28.992188 -2.4375 32.261719 -2.273438 35.441406 -2.390625 C 38.644531 -2.507812 41.601562 -2.824219 44.308594 -3.339844 C 46.953125 -3.839844 49.144531 -4.4375 50.875 -5.128906 C 53.109375 -6.046875 55.101562 -7.464844 56.863281 -9.386719 C 58.675781 -11.367188 60.066406 -13.65625 61.03125 -16.257812 C 61.988281 -18.835938 62.402344 -21.523438 62.277344 -24.320312 C 62.15625 -26.984375 61.359375 -29.574219 59.878906 -32.085938 C 58.402344 -34.601562 56.046875 -36.855469 52.820312 -38.851562 Z M 52.792969 -38.867188 "/></g></g></g><g fill="#793b8f" fill-opacity="1"><g transform="translate(506.495677, 83.716916)"><g><path d="M 71.171875 -77.835938 C 72.3125 -76.335938 73.21875 -74.339844 73.890625 -71.839844 C 74.527344 -69.488281 74.8125 -66.964844 74.753906 -64.273438 C 74.691406 -61.4375 74.101562 -58.710938 72.980469 -56.097656 C 71.769531 -53.277344 69.863281 -50.90625 67.253906 -48.992188 C 64.59375 -47.042969 61.164062 -45.941406 56.964844 -45.691406 C 55.664062 -45.640625 54.605469 -45.578125 53.792969 -45.507812 C 52.792969 -45.421875 52.132812 -45.378906 51.808594 -45.378906 L 51.808594 -49.621094 L 56.050781 -49.773438 C 56.152344 -46.917969 56.214844 -43.785156 56.242188 -40.378906 C 56.265625 -36.980469 56.253906 -33.480469 56.203125 -29.878906 C 56.152344 -26.265625 56.050781 -22.742188 55.898438 -19.304688 C 55.746094 -15.878906 55.566406 -12.679688 55.363281 -9.703125 C 55.15625 -6.652344 54.890625 -4.042969 54.574219 -1.875 L 54.390625 -0.613281 L 53.542969 0.335938 C 51.761719 2.328125 49.53125 3.742188 46.851562 4.578125 C 44.328125 5.363281 41.667969 5.582031 38.871094 5.226562 C 36.070312 4.871094 33.378906 3.890625 30.789062 2.28125 C 28.226562 0.6875 25.984375 -1.511719 24.0625 -4.316406 C 22.140625 -7.121094 20.800781 -10.578125 20.035156 -14.683594 C 19.804688 -15.902344 19.609375 -17.765625 19.445312 -20.277344 C 19.292969 -22.648438 19.152344 -25.425781 19.027344 -28.601562 C 18.898438 -31.78125 18.808594 -35.183594 18.757812 -38.816406 C 18.707031 -42.449219 18.707031 -46.097656 18.757812 -49.757812 L 23 -49.699219 L 23.339844 -45.46875 C 20.699219 -45.257812 17.984375 -45.164062 15.195312 -45.191406 C 12.257812 -45.21875 9.421875 -45.511719 6.691406 -46.070312 L 5.128906 -46.386719 L 4.164062 -47.660156 C 2.839844 -49.402344 1.882812 -51.566406 1.292969 -54.148438 C 0.742188 -56.570312 0.585938 -59.113281 0.828125 -61.769531 C 1.074219 -64.484375 1.785156 -67.074219 2.957031 -69.542969 C 4.222656 -72.214844 6.085938 -74.429688 8.539062 -76.1875 C 11.050781 -77.984375 14.136719 -79.011719 17.800781 -79.269531 C 19.492188 -79.375 21.691406 -79.453125 24.390625 -79.503906 C 27.058594 -79.554688 30.027344 -79.582031 33.296875 -79.582031 L 43.289062 -79.582031 L 53.222656 -79.542969 L 61.859375 -79.503906 L 69.898438 -79.503906 Z M 64.421875 -72.691406 L 67.796875 -75.261719 L 67.796875 -71.019531 L 61.820312 -71.019531 L 53.1875 -71.058594 L 43.289062 -71.097656 L 33.296875 -71.097656 C 30.078125 -71.097656 27.164062 -71.070312 24.550781 -71.023438 C 21.972656 -70.972656 19.921875 -70.902344 18.394531 -70.804688 C 16.328125 -70.660156 14.691406 -70.15625 13.480469 -69.289062 C 12.214844 -68.382812 11.261719 -67.253906 10.621094 -65.902344 C 9.878906 -64.347656 9.433594 -62.714844 9.277344 -61.003906 C 9.117188 -59.238281 9.214844 -57.582031 9.566406 -56.03125 C 9.882812 -54.644531 10.332031 -53.5625 10.917969 -52.792969 L 7.542969 -50.226562 L 8.390625 -54.382812 C 10.585938 -53.933594 12.882812 -53.699219 15.273438 -53.675781 C 17.8125 -53.652344 20.273438 -53.734375 22.664062 -53.925781 L 27.308594 -54.296875 L 27.242188 -49.640625 C 27.195312 -46.058594 27.195312 -42.492188 27.242188 -38.933594 C 27.292969 -35.378906 27.378906 -32.046875 27.503906 -28.941406 C 27.628906 -25.832031 27.765625 -23.125 27.914062 -20.824219 C 28.054688 -18.660156 28.207031 -17.132812 28.378906 -16.234375 C 28.921875 -13.304688 29.820312 -10.929688 31.0625 -9.109375 C 32.3125 -7.285156 33.714844 -5.890625 35.273438 -4.921875 C 36.808594 -3.964844 38.363281 -3.390625 39.9375 -3.191406 C 41.511719 -2.992188 42.976562 -3.101562 44.324219 -3.523438 C 45.515625 -3.894531 46.476562 -4.488281 47.210938 -5.3125 L 50.375 -2.488281 L 46.179688 -3.101562 C 46.464844 -5.054688 46.703125 -7.449219 46.898438 -10.28125 C 47.097656 -13.1875 47.269531 -16.324219 47.421875 -19.683594 C 47.570312 -23.035156 47.667969 -26.472656 47.71875 -30 C 47.769531 -33.539062 47.78125 -36.976562 47.757812 -40.316406 C 47.730469 -43.644531 47.667969 -46.695312 47.570312 -49.472656 L 47.414062 -53.863281 L 51.808594 -53.863281 C 51.890625 -53.863281 52.308594 -53.898438 53.070312 -53.960938 C 54.015625 -54.042969 55.144531 -54.109375 56.457031 -54.160156 C 58.996094 -54.308594 60.917969 -54.867188 62.234375 -55.832031 C 63.597656 -56.832031 64.578125 -58.035156 65.179688 -59.4375 C 65.871094 -61.046875 66.234375 -62.71875 66.269531 -64.460938 C 66.3125 -66.339844 66.121094 -68.066406 65.699219 -69.636719 C 65.316406 -71.058594 64.890625 -72.078125 64.421875 -72.691406 Z M 64.421875 -72.691406 "/></g></g></g><g fill="#793b8f" fill-opacity="1"><g transform="translate(580.621711, 83.716916)"><g><path d="M -0.0859375 -17.171875 C -0.191406 -18.9375 -0.269531 -21.296875 -0.320312 -24.246094 C -0.371094 -27.164062 -0.394531 -30.429688 -0.394531 -34.050781 C -0.394531 -37.671875 -0.359375 -41.421875 -0.28125 -45.292969 C -0.207031 -49.160156 -0.105469 -52.964844 0.0195312 -56.703125 C 0.148438 -60.457031 0.300781 -63.929688 0.476562 -67.128906 C 0.660156 -70.382812 0.878906 -73.113281 1.140625 -75.3125 L 1.542969 -78.695312 L 4.933594 -79.03125 C 7.539062 -79.292969 10.683594 -79.488281 14.367188 -79.617188 C 17.996094 -79.742188 21.886719 -79.832031 26.042969 -79.882812 C 30.207031 -79.933594 34.386719 -79.921875 38.574219 -79.84375 C 42.757812 -79.769531 46.710938 -79.65625 50.4375 -79.503906 C 54.179688 -79.347656 57.410156 -79.171875 60.121094 -78.964844 L 62.140625 -78.8125 L 63.292969 -77.148438 C 64.03125 -76.082031 64.636719 -74.628906 65.117188 -72.785156 C 65.554688 -71.097656 65.789062 -69.230469 65.816406 -67.179688 C 65.847656 -65.09375 65.589844 -62.984375 65.042969 -60.859375 C 64.449219 -58.554688 63.421875 -56.425781 61.953125 -54.46875 C 60.390625 -52.382812 58.285156 -50.738281 55.644531 -49.53125 C 53.097656 -48.375 50.011719 -47.792969 46.378906 -47.792969 L 30.84375 -47.792969 L 30.84375 -52.035156 L 35.085938 -52.035156 L 35.085938 -48.113281 L 30.84375 -48.113281 L 30.84375 -52.355469 C 31.914062 -52.355469 33.398438 -52.382812 35.296875 -52.429688 C 37.269531 -52.480469 39.40625 -52.507812 41.703125 -52.507812 C 44.097656 -52.507812 46.449219 -52.402344 48.765625 -52.1875 C 51.253906 -51.960938 53.441406 -51.550781 55.335938 -50.957031 L 57.148438 -50.390625 L 57.933594 -48.664062 C 59.75 -44.667969 60.5 -40.867188 60.183594 -37.261719 C 59.835938 -33.296875 58.261719 -30.035156 55.460938 -27.484375 C 52.726562 -24.992188 49 -23.621094 44.269531 -23.367188 C 42.917969 -23.3125 41.660156 -23.285156 40.496094 -23.285156 C 39.367188 -23.285156 38.0625 -23.296875 36.578125 -23.324219 C 35.144531 -23.347656 33.257812 -23.359375 30.917969 -23.359375 L 30.917969 -27.601562 L 35.164062 -27.601562 L 35.164062 -23 L 30.917969 -23 L 30.917969 -27.242188 L 59.027344 -27.242188 L 60.296875 -25.492188 C 62.148438 -22.941406 63.328125 -20.113281 63.839844 -17.019531 C 64.351562 -13.898438 64.125 -10.855469 63.15625 -7.886719 C 62.140625 -4.765625 60.246094 -2.101562 57.472656 0.113281 C 54.738281 2.289062 51.195312 3.65625 46.835938 4.207031 C 45.476562 4.371094 43.683594 4.519531 41.464844 4.648438 C 39.257812 4.78125 36.835938 4.855469 34.203125 4.882812 C 31.597656 4.910156 29.003906 4.894531 26.425781 4.84375 C 23.808594 4.792969 21.445312 4.6875 19.332031 4.53125 C 17.085938 4.367188 15.304688 4.132812 13.992188 3.835938 L 13.933594 3.820312 L 13.875 3.808594 C 9.261719 2.621094 5.816406 0.203125 3.53125 -3.441406 C 1.464844 -6.746094 0.257812 -11.320312 -0.0859375 -17.171875 Z M 8.382812 -17.667969 C 8.640625 -13.261719 9.421875 -10.023438 10.722656 -7.945312 C 11.808594 -6.210938 13.5625 -5.035156 15.988281 -4.410156 L 14.933594 -0.300781 L 15.871094 -4.4375 C 16.773438 -4.234375 18.132812 -4.0625 19.957031 -3.929688 C 21.917969 -3.785156 24.128906 -3.6875 26.59375 -3.636719 C 29.089844 -3.589844 31.597656 -3.578125 34.121094 -3.601562 C 36.617188 -3.625 38.898438 -3.699219 40.964844 -3.820312 C 43.015625 -3.941406 44.617188 -4.070312 45.769531 -4.207031 C 48.554688 -4.5625 50.691406 -5.332031 52.179688 -6.523438 C 53.628906 -7.675781 54.601562 -9.007812 55.089844 -10.515625 C 55.632812 -12.171875 55.757812 -13.878906 55.46875 -15.636719 C 55.171875 -17.417969 54.492188 -19.039062 53.429688 -20.511719 L 56.863281 -23 L 56.863281 -18.757812 L 26.675781 -18.757812 L 26.675781 -31.84375 L 30.917969 -31.84375 C 33.308594 -31.84375 35.242188 -31.832031 36.722656 -31.804688 C 38.15625 -31.78125 39.414062 -31.769531 40.496094 -31.769531 C 41.546875 -31.769531 42.652344 -31.792969 43.8125 -31.835938 C 46.527344 -31.984375 48.503906 -32.621094 49.742188 -33.753906 C 50.914062 -34.820312 51.578125 -36.234375 51.730469 -38.003906 C 51.917969 -40.128906 51.410156 -42.511719 50.210938 -45.152344 L 54.070312 -46.90625 L 52.808594 -42.859375 C 51.484375 -43.273438 49.878906 -43.566406 47.988281 -43.738281 C 45.933594 -43.929688 43.835938 -44.023438 41.703125 -44.023438 C 39.476562 -44.023438 37.417969 -44 35.515625 -43.949219 C 33.542969 -43.898438 31.988281 -43.871094 30.84375 -43.871094 L 26.601562 -43.871094 L 26.601562 -56.277344 L 46.378906 -56.277344 C 48.78125 -56.277344 50.695312 -56.601562 52.125 -57.253906 C 53.453125 -57.859375 54.46875 -58.628906 55.164062 -59.558594 C 55.960938 -60.617188 56.511719 -61.753906 56.824219 -62.972656 C 57.183594 -64.363281 57.355469 -65.726562 57.332031 -67.054688 C 57.3125 -68.425781 57.171875 -69.625 56.902344 -70.65625 C 56.679688 -71.523438 56.480469 -72.082031 56.316406 -72.320312 L 59.804688 -74.734375 L 59.484375 -70.503906 C 56.867188 -70.703125 53.738281 -70.875 50.089844 -71.023438 C 46.425781 -71.175781 42.539062 -71.285156 38.421875 -71.359375 C 34.316406 -71.4375 30.226562 -71.449219 26.144531 -71.398438 C 22.054688 -71.347656 18.226562 -71.261719 14.664062 -71.136719 C 11.164062 -71.015625 8.199219 -70.832031 5.777344 -70.589844 L 5.355469 -74.8125 L 9.566406 -74.308594 C 9.324219 -72.285156 9.121094 -69.734375 8.949219 -66.65625 C 8.773438 -63.519531 8.625 -60.105469 8.5 -56.417969 C 8.375 -52.71875 8.277344 -48.953125 8.199219 -45.128906 C 8.125 -41.308594 8.089844 -37.617188 8.089844 -34.050781 C 8.089844 -30.480469 8.113281 -27.261719 8.164062 -24.394531 C 8.210938 -21.5625 8.285156 -19.320312 8.382812 -17.667969 Z M 8.382812 -17.667969 "/></g></g></g><g fill="#793b8f" fill-opacity="1"><g transform="translate(644.115215, 83.716916)"><g><path d="M 50.542969 4.007812 C 47.808594 4.164062 45.039062 4.253906 42.234375 4.28125 C 39.449219 4.304688 36.878906 4.292969 34.523438 4.242188 C 32.191406 4.191406 30.3125 4.140625 28.882812 4.089844 L 26.773438 4.011719 L 26.921875 -0.226562 L 26.921875 4.015625 C 24.765625 4.015625 22.421875 3.839844 19.886719 3.484375 C 17.089844 3.09375 14.378906 2.242188 11.753906 0.929688 C 8.941406 -0.476562 6.515625 -2.542969 4.480469 -5.265625 C 2.421875 -8.023438 1.0625 -11.585938 0.40625 -15.960938 C 0.0859375 -18.179688 -0.199219 -20.945312 -0.457031 -24.253906 C -0.714844 -27.535156 -0.90625 -31.160156 -1.035156 -35.121094 C -1.164062 -39.078125 -1.199219 -43.199219 -1.148438 -47.484375 C -1.097656 -51.785156 -0.933594 -56.0625 -0.652344 -60.308594 C -0.367188 -64.617188 0.0898438 -68.695312 0.714844 -72.550781 L 0.953125 -74.03125 L 2.078125 -75.035156 C 3.921875 -76.683594 6.15625 -77.941406 8.777344 -78.800781 C 11.332031 -79.644531 14.023438 -80 16.851562 -79.878906 C 19.792969 -79.75 22.601562 -78.988281 25.269531 -77.589844 C 28.023438 -76.148438 30.355469 -73.996094 32.261719 -71.132812 C 34.15625 -68.292969 35.339844 -64.667969 35.816406 -60.257812 C 36.078125 -57.953125 36.261719 -55.296875 36.367188 -52.296875 C 36.46875 -49.378906 36.542969 -46.347656 36.59375 -43.207031 C 36.644531 -40.054688 36.65625 -36.988281 36.632812 -34.011719 C 36.605469 -31.023438 36.542969 -28.324219 36.441406 -25.914062 L 32.203125 -26.09375 L 31.828125 -30.320312 C 33.648438 -30.480469 35.84375 -30.574219 38.417969 -30.597656 C 40.921875 -30.625 43.613281 -30.613281 46.492188 -30.5625 C 49.40625 -30.507812 52.355469 -30.378906 55.34375 -30.175781 C 58.320312 -29.96875 61.175781 -29.710938 63.902344 -29.402344 L 66.132812 -29.152344 L 67.175781 -27.164062 C 69.046875 -23.609375 69.886719 -20.011719 69.695312 -16.367188 C 69.507812 -12.816406 68.539062 -9.539062 66.785156 -6.535156 C 65.058594 -3.574219 62.8125 -1.144531 60.050781 0.746094 C 57.164062 2.726562 53.992188 3.8125 50.542969 4.007812 Z M 50.0625 -4.460938 C 51.9375 -4.566406 53.667969 -5.164062 55.257812 -6.25 C 56.96875 -7.425781 58.371094 -8.945312 59.457031 -10.808594 C 60.519531 -12.632812 61.109375 -14.632812 61.222656 -16.8125 C 61.332031 -18.902344 60.816406 -21.035156 59.667969 -23.210938 L 63.421875 -25.1875 L 62.945312 -20.972656 C 60.34375 -21.269531 57.613281 -21.511719 54.761719 -21.710938 C 51.917969 -21.90625 49.109375 -22.027344 46.34375 -22.078125 C 43.542969 -22.128906 40.929688 -22.140625 38.503906 -22.117188 C 36.152344 -22.089844 34.175781 -22.007812 32.574219 -21.867188 L 27.757812 -21.441406 L 27.964844 -26.273438 C 28.0625 -28.589844 28.125 -31.191406 28.148438 -34.085938 C 28.171875 -36.992188 28.160156 -39.988281 28.109375 -43.070312 C 28.0625 -46.160156 27.988281 -49.136719 27.886719 -52 C 27.789062 -54.78125 27.621094 -57.230469 27.382812 -59.347656 C 27.054688 -62.378906 26.328125 -64.738281 25.203125 -66.425781 C 24.09375 -68.085938 22.804688 -69.300781 21.335938 -70.074219 C 19.78125 -70.886719 18.164062 -71.328125 16.480469 -71.402344 C 14.6875 -71.480469 13.003906 -71.261719 11.433594 -70.742188 C 9.929688 -70.25 8.695312 -69.570312 7.726562 -68.707031 L 4.902344 -71.871094 L 9.089844 -71.191406 C 8.507812 -67.601562 8.082031 -63.789062 7.816406 -59.75 C 7.542969 -55.652344 7.382812 -51.53125 7.332031 -47.386719 C 7.285156 -43.222656 7.320312 -39.226562 7.445312 -35.394531 C 7.570312 -31.5625 7.753906 -28.070312 8 -24.914062 C 8.246094 -21.789062 8.507812 -19.222656 8.796875 -17.222656 C 9.242188 -14.253906 10.070312 -11.960938 11.277344 -10.34375 C 12.511719 -8.695312 13.933594 -7.464844 15.546875 -6.660156 C 17.34375 -5.761719 19.183594 -5.179688 21.0625 -4.917969 C 23.207031 -4.617188 25.160156 -4.46875 26.921875 -4.46875 L 27 -4.46875 L 29.1875 -4.390625 C 30.574219 -4.339844 32.414062 -4.292969 34.707031 -4.242188 C 36.976562 -4.191406 39.460938 -4.179688 42.15625 -4.203125 C 44.828125 -4.230469 47.464844 -4.316406 50.0625 -4.460938 Z M 50.0625 -4.460938 "/></g></g></g><g fill="#793b8f" fill-opacity="1"><g transform="translate(712.359373, 83.716916)"><g><path d="M 50.542969 4.007812 C 47.808594 4.164062 45.039062 4.253906 42.234375 4.28125 C 39.449219 4.304688 36.878906 4.292969 34.523438 4.242188 C 32.191406 4.191406 30.3125 4.140625 28.882812 4.089844 L 26.773438 4.011719 L 26.921875 -0.226562 L 26.921875 4.015625 C 24.765625 4.015625 22.421875 3.839844 19.886719 3.484375 C 17.089844 3.09375 14.378906 2.242188 11.753906 0.929688 C 8.941406 -0.476562 6.515625 -2.542969 4.480469 -5.265625 C 2.421875 -8.023438 1.0625 -11.585938 0.40625 -15.960938 C 0.0859375 -18.179688 -0.199219 -20.945312 -0.457031 -24.253906 C -0.714844 -27.535156 -0.90625 -31.160156 -1.035156 -35.121094 C -1.164062 -39.078125 -1.199219 -43.199219 -1.148438 -47.484375 C -1.097656 -51.785156 -0.933594 -56.0625 -0.652344 -60.308594 C -0.367188 -64.617188 0.0898438 -68.695312 0.714844 -72.550781 L 0.953125 -74.03125 L 2.078125 -75.035156 C 3.921875 -76.683594 6.15625 -77.941406 8.777344 -78.800781 C 11.332031 -79.644531 14.023438 -80 16.851562 -79.878906 C 19.792969 -79.75 22.601562 -78.988281 25.269531 -77.589844 C 28.023438 -76.148438 30.355469 -73.996094 32.261719 -71.132812 C 34.15625 -68.292969 35.339844 -64.667969 35.816406 -60.257812 C 36.078125 -57.953125 36.261719 -55.296875 36.367188 -52.296875 C 36.46875 -49.378906 36.542969 -46.347656 36.59375 -43.207031 C 36.644531 -40.054688 36.65625 -36.988281 36.632812 -34.011719 C 36.605469 -31.023438 36.542969 -28.324219 36.441406 -25.914062 L 32.203125 -26.09375 L 31.828125 -30.320312 C 33.648438 -30.480469 35.84375 -30.574219 38.417969 -30.597656 C 40.921875 -30.625 43.613281 -30.613281 46.492188 -30.5625 C 49.40625 -30.507812 52.355469 -30.378906 55.34375 -30.175781 C 58.320312 -29.96875 61.175781 -29.710938 63.902344 -29.402344 L 66.132812 -29.152344 L 67.175781 -27.164062 C 69.046875 -23.609375 69.886719 -20.011719 69.695312 -16.367188 C 69.507812 -12.816406 68.539062 -9.539062 66.785156 -6.535156 C 65.058594 -3.574219 62.8125 -1.144531 60.050781 0.746094 C 57.164062 2.726562 53.992188 3.8125 50.542969 4.007812 Z M 50.0625 -4.460938 C 51.9375 -4.566406 53.667969 -5.164062 55.257812 -6.25 C 56.96875 -7.425781 58.371094 -8.945312 59.457031 -10.808594 C 60.519531 -12.632812 61.109375 -14.632812 61.222656 -16.8125 C 61.332031 -18.902344 60.816406 -21.035156 59.667969 -23.210938 L 63.421875 -25.1875 L 62.945312 -20.972656 C 60.34375 -21.269531 57.613281 -21.511719 54.761719 -21.710938 C 51.917969 -21.90625 49.109375 -22.027344 46.34375 -22.078125 C 43.542969 -22.128906 40.929688 -22.140625 38.503906 -22.117188 C 36.152344 -22.089844 34.175781 -22.007812 32.574219 -21.867188 L 27.757812 -21.441406 L 27.964844 -26.273438 C 28.0625 -28.589844 28.125 -31.191406 28.148438 -34.085938 C 28.171875 -36.992188 28.160156 -39.988281 28.109375 -43.070312 C 28.0625 -46.160156 27.988281 -49.136719 27.886719 -52 C 27.789062 -54.78125 27.621094 -57.230469 27.382812 -59.347656 C 27.054688 -62.378906 26.328125 -64.738281 25.203125 -66.425781 C 24.09375 -68.085938 22.804688 -69.300781 21.335938 -70.074219 C 19.78125 -70.886719 18.164062 -71.328125 16.480469 -71.402344 C 14.6875 -71.480469 13.003906 -71.261719 11.433594 -70.742188 C 9.929688 -70.25 8.695312 -69.570312 7.726562 -68.707031 L 4.902344 -71.871094 L 9.089844 -71.191406 C 8.507812 -67.601562 8.082031 -63.789062 7.816406 -59.75 C 7.542969 -55.652344 7.382812 -51.53125 7.332031 -47.386719 C 7.285156 -43.222656 7.320312 -39.226562 7.445312 -35.394531 C 7.570312 -31.5625 7.753906 -28.070312 8 -24.914062 C 8.246094 -21.789062 8.507812 -19.222656 8.796875 -17.222656 C 9.242188 -14.253906 10.070312 -11.960938 11.277344 -10.34375 C 12.511719 -8.695312 13.933594 -7.464844 15.546875 -6.660156 C 17.34375 -5.761719 19.183594 -5.179688 21.0625 -4.917969 C 23.207031 -4.617188 25.160156 -4.46875 26.921875 -4.46875 L 27 -4.46875 L 29.1875 -4.390625 C 30.574219 -4.339844 32.414062 -4.292969 34.707031 -4.242188 C 36.976562 -4.191406 39.460938 -4.179688 42.15625 -4.203125 C 44.828125 -4.230469 47.464844 -4.316406 50.0625 -4.460938 Z M 50.0625 -4.460938 "/></g></g></g><g fill="#793b8f" fill-opacity="1"><g transform="translate(780.60358, 83.716916)"><g><path d="M -3.027344 -23.605469 C -2.410156 -26.703125 -1.597656 -30.167969 -0.597656 -33.992188 C 0.398438 -37.800781 1.523438 -41.710938 2.773438 -45.71875 C 4.019531 -49.710938 5.292969 -53.574219 6.585938 -57.308594 C 7.890625 -61.070312 9.171875 -64.515625 10.429688 -67.644531 C 11.710938 -70.832031 12.859375 -73.414062 13.875 -75.390625 L 14.65625 -76.914062 L 16.277344 -77.46875 C 18.5 -78.226562 21.128906 -78.925781 24.164062 -79.566406 C 27.285156 -80.222656 30.585938 -80.59375 34.0625 -80.671875 C 37.710938 -80.757812 41.324219 -80.289062 44.90625 -79.265625 C 48.675781 -78.191406 52.128906 -76.289062 55.269531 -73.566406 C 58.441406 -70.8125 61.011719 -67.035156 62.976562 -62.242188 C 63.816406 -60.132812 64.78125 -57.472656 65.859375 -54.253906 C 66.929688 -51.070312 68.050781 -47.550781 69.21875 -43.6875 C 70.386719 -39.828125 71.527344 -35.859375 72.644531 -31.773438 C 73.761719 -27.6875 74.789062 -23.699219 75.730469 -19.8125 C 76.679688 -15.878906 77.441406 -12.28125 78.007812 -9.023438 L 78.113281 -8.429688 L 78.046875 -7.828125 C 77.792969 -5.53125 76.710938 -3.371094 74.804688 -1.351562 C 73.1875 0.363281 71.175781 1.800781 68.765625 2.957031 C 66.429688 4.082031 63.917969 4.824219 61.238281 5.183594 C 58.402344 5.566406 55.585938 5.347656 52.792969 4.519531 C 49.84375 3.648438 47.210938 1.976562 44.902344 -0.496094 C 42.660156 -2.898438 40.941406 -6.128906 39.746094 -10.191406 L 43.816406 -11.386719 L 43.636719 -7.148438 C 41.359375 -7.246094 38.984375 -7.269531 36.507812 -7.222656 C 33.886719 -7.171875 31.339844 -7.171875 28.871094 -7.222656 L 28.960938 -11.464844 L 32.871094 -9.824219 C 32.269531 -8.390625 31.699219 -6.804688 31.164062 -5.074219 C 30.59375 -3.25 30.039062 -1.375 29.496094 0.546875 L 28.910156 2.628906 L 26.886719 3.375 C 21.59375 5.332031 16.882812 6.023438 12.761719 5.445312 C 8.375 4.832031 4.800781 3.09375 2.039062 0.230469 C -0.628906 -2.53125 -2.382812 -6.058594 -3.21875 -10.347656 C -4.003906 -14.347656 -3.941406 -18.753906 -3.039062 -23.558594 Z M 5.300781 -21.992188 C 4.597656 -18.25 4.53125 -14.914062 5.105469 -11.976562 C 5.625 -9.328125 6.636719 -7.222656 8.144531 -5.660156 C 9.550781 -4.199219 11.484375 -3.300781 13.933594 -2.957031 C 16.648438 -2.578125 19.984375 -3.121094 23.945312 -4.582031 L 25.414062 -0.601562 L 21.332031 -1.753906 C 21.894531 -3.75 22.472656 -5.699219 23.058594 -7.59375 C 23.679688 -9.582031 24.339844 -11.421875 25.046875 -13.105469 L 26.164062 -15.765625 L 29.046875 -15.703125 C 31.402344 -15.65625 33.835938 -15.65625 36.34375 -15.703125 C 38.992188 -15.757812 41.546875 -15.730469 43.996094 -15.625 L 47.027344 -15.496094 L 47.886719 -12.585938 C 48.703125 -9.808594 49.773438 -7.710938 51.101562 -6.289062 C 52.359375 -4.941406 53.726562 -4.050781 55.199219 -3.617188 C 56.832031 -3.132812 58.464844 -3.003906 60.105469 -3.222656 C 61.898438 -3.464844 63.5625 -3.953125 65.09375 -4.691406 C 66.554688 -5.394531 67.734375 -6.222656 68.632812 -7.171875 C 69.242188 -7.816406 69.566406 -8.347656 69.613281 -8.765625 L 73.832031 -8.296875 L 69.652344 -7.566406 C 69.113281 -10.644531 68.390625 -14.0625 67.484375 -17.820312 C 66.5625 -21.625 65.554688 -25.53125 64.460938 -29.539062 C 63.363281 -33.546875 62.242188 -37.445312 61.097656 -41.230469 C 59.953125 -45.007812 58.859375 -48.449219 57.820312 -51.550781 C 56.789062 -54.617188 55.890625 -57.109375 55.125 -59.023438 C 53.667969 -62.574219 51.863281 -65.285156 49.707031 -67.15625 C 47.515625 -69.058594 45.140625 -70.375 42.574219 -71.109375 C 39.820312 -71.894531 37.050781 -72.257812 34.261719 -72.191406 C 31.304688 -72.121094 28.523438 -71.8125 25.910156 -71.261719 C 23.214844 -70.695312 20.917969 -70.085938 19.019531 -69.4375 L 17.648438 -73.453125 L 21.421875 -71.515625 C 20.523438 -69.773438 19.484375 -67.425781 18.304688 -64.480469 C 17.097656 -61.476562 15.863281 -58.160156 14.605469 -54.527344 C 13.335938 -50.875 12.09375 -47.097656 10.875 -43.191406 C 9.664062 -39.308594 8.574219 -35.527344 7.609375 -31.84375 C 6.652344 -28.179688 5.878906 -24.878906 5.292969 -21.941406 Z M 31.898438 -37.273438 L 41.175781 -37.273438 L 41.175781 -33.03125 L 37.042969 -32.082031 C 36.34375 -35.121094 35.621094 -38.121094 34.875 -41.082031 C 34.117188 -44.097656 33.378906 -47.125 32.671875 -50.167969 L 36.800781 -51.132812 L 38.144531 -47.105469 C 37.558594 -46.910156 36.882812 -46.8125 36.125 -46.8125 L 36.125 -51.054688 L 40.265625 -50.144531 C 39.605469 -47.144531 38.90625 -44.144531 38.167969 -41.144531 C 37.445312 -38.203125 36.734375 -35.1875 36.039062 -32.097656 L 31.898438 -33.03125 Z M 31.898438 -28.789062 L 26.59375 -28.789062 L 27.761719 -33.964844 C 28.472656 -37.109375 29.195312 -40.175781 29.929688 -43.167969 C 30.652344 -46.101562 31.335938 -49.035156 31.980469 -51.96875 L 32.714844 -55.296875 L 36.125 -55.296875 C 35.964844 -55.296875 35.746094 -55.25 35.460938 -55.15625 L 39.875 -56.628906 L 40.933594 -52.09375 C 41.632812 -49.101562 42.355469 -46.125 43.101562 -43.15625 C 43.863281 -40.136719 44.601562 -37.078125 45.3125 -33.980469 L 46.503906 -28.789062 Z M 31.898438 -28.789062 "/></g></g></g><g fill="#793b8f" fill-opacity="1"><g transform="translate(855.483648, 83.716916)"><g><path d="M 14.363281 5.023438 C 13.765625 4.929688 13.160156 4.851562 12.539062 4.78125 C 11.71875 4.691406 10.890625 4.554688 10.046875 4.375 C 6.574219 3.558594 3.785156 1.996094 1.6875 -0.3125 C -0.453125 -2.667969 -1.695312 -5.621094 -2.035156 -9.171875 C -2.15625 -10.484375 -2.183594 -11.789062 -2.125 -13.089844 C -2.074219 -14.257812 -1.992188 -15.429688 -1.886719 -16.597656 L -1.867188 -16.8125 L -1.824219 -17.027344 C -1.265625 -19.890625 -0.078125 -22.289062 1.742188 -24.214844 C 3.484375 -26.066406 5.675781 -27.429688 8.3125 -28.308594 C 11.976562 -29.445312 15.644531 -29.640625 19.320312 -28.894531 C 23.429688 -28.003906 26.667969 -25.929688 29.035156 -22.667969 C 31.382812 -19.433594 32.390625 -15.710938 32.058594 -11.503906 C 32 -10.527344 31.867188 -9.484375 31.65625 -8.375 C 31.425781 -7.160156 31.082031 -5.992188 30.621094 -4.871094 C 29.390625 -1.722656 27.351562 0.726562 24.511719 2.480469 C 21.816406 4.144531 18.675781 5.007812 15.082031 5.070312 L 14.71875 5.078125 Z M 15.652344 -3.363281 L 15.007812 0.828125 L 14.933594 -3.410156 C 16.972656 -3.449219 18.679688 -3.890625 20.054688 -4.742188 C 21.289062 -5.5 22.195312 -6.621094 22.773438 -8.101562 C 23.015625 -8.6875 23.199219 -9.304688 23.320312 -9.953125 C 23.460938 -10.703125 23.554688 -11.445312 23.597656 -12.175781 C 23.769531 -14.300781 23.292969 -16.136719 22.171875 -17.679688 C 21.070312 -19.195312 19.558594 -20.160156 17.632812 -20.578125 C 15.375 -21.039062 13.164062 -20.929688 10.996094 -20.257812 C 9.707031 -19.832031 8.679688 -19.207031 7.914062 -18.394531 C 7.21875 -17.65625 6.746094 -16.660156 6.5 -15.402344 L 2.335938 -16.214844 L 6.5625 -15.828125 C 6.46875 -14.789062 6.398438 -13.746094 6.347656 -12.703125 C 6.308594 -11.789062 6.328125 -10.882812 6.410156 -9.984375 C 6.570312 -8.304688 7.089844 -6.984375 7.964844 -6.019531 C 8.882812 -5.011719 10.167969 -4.3125 11.824219 -3.921875 C 12.390625 -3.800781 12.941406 -3.710938 13.476562 -3.652344 C 14.214844 -3.570312 14.941406 -3.472656 15.652344 -3.363281 Z M 32.824219 -61.6875 C 32.824219 -60.410156 32.730469 -58.703125 32.542969 -56.566406 C 32.363281 -54.492188 32.105469 -52.210938 31.769531 -49.730469 C 31.433594 -47.265625 31.046875 -44.785156 30.609375 -42.292969 C 30.175781 -39.800781 29.726562 -37.472656 29.261719 -35.308594 C 28.761719 -32.980469 28.222656 -31.0625 27.640625 -29.546875 L 27.367188 -28.839844 L 26.867188 -28.269531 C 24.933594 -26.070312 22.636719 -24.484375 19.976562 -23.507812 C 17.289062 -22.519531 14.59375 -22.25 11.898438 -22.699219 C 9 -23.183594 6.523438 -24.507812 4.464844 -26.679688 C 2.4375 -28.8125 1.160156 -31.707031 0.628906 -35.363281 C -0.554688 -42.921875 -1.183594 -49.933594 -1.261719 -56.394531 C -1.339844 -62.875 -1.039062 -68.488281 -0.351562 -73.230469 L -0.128906 -74.769531 L 1.035156 -75.800781 C 2.777344 -77.34375 4.957031 -78.546875 7.570312 -79.40625 C 10.09375 -80.238281 12.730469 -80.621094 15.480469 -80.558594 C 18.359375 -80.496094 21.085938 -79.839844 23.652344 -78.585938 C 26.421875 -77.234375 28.652344 -75.140625 30.34375 -72.304688 C 31.996094 -69.523438 32.824219 -65.984375 32.824219 -61.6875 Z M 24.339844 -61.6875 C 24.339844 -64.429688 23.910156 -66.523438 23.050781 -67.964844 C 22.226562 -69.351562 21.1875 -70.351562 19.9375 -70.960938 C 18.480469 -71.667969 16.933594 -72.042969 15.289062 -72.078125 C 13.511719 -72.117188 11.824219 -71.875 10.226562 -71.347656 C 8.71875 -70.851562 7.527344 -70.21875 6.65625 -69.445312 L 3.847656 -72.625 L 8.042969 -72.015625 C 7.421875 -67.710938 7.148438 -62.539062 7.222656 -56.5 C 7.292969 -50.441406 7.894531 -43.804688 9.023438 -36.582031 C 9.296875 -34.707031 9.828125 -33.351562 10.617188 -32.519531 C 11.375 -31.722656 12.265625 -31.242188 13.292969 -31.070312 C 14.515625 -30.867188 15.769531 -31 17.050781 -31.472656 C 18.363281 -31.953125 19.511719 -32.753906 20.492188 -33.871094 L 23.679688 -31.070312 L 19.71875 -32.59375 C 20.144531 -33.695312 20.558594 -35.191406 20.964844 -37.085938 C 21.40625 -39.148438 21.835938 -41.371094 22.253906 -43.757812 C 22.671875 -46.140625 23.039062 -48.511719 23.359375 -50.871094 C 23.679688 -53.21875 23.921875 -55.363281 24.09375 -57.308594 C 24.257812 -59.195312 24.339844 -60.65625 24.339844 -61.6875 Z M 24.339844 -61.6875 "/></g></g></g><g fill="#caa2d8" fill-opacity="1"><g transform="translate(3.675483, 83.716916)"><g><path d="M 31.59375 -49.328125 C 34.113281 -49.328125 36.550781 -49.328125 38.90625 -49.328125 C 41.269531 -49.328125 43.660156 -49.328125 46.078125 -49.328125 C 46.179688 -52.140625 46.242188 -55.066406 46.265625 -58.109375 C 46.296875 -61.148438 46.347656 -63.9375 46.421875 -66.46875 C 46.492188 -69.007812 46.628906 -70.960938 46.828125 -72.328125 C 48.691406 -73.785156 50.828125 -74.773438 53.234375 -75.296875 C 55.648438 -75.828125 58.085938 -75.90625 60.546875 -75.53125 C 63.015625 -75.15625 65.304688 -74.335938 67.421875 -73.078125 C 69.535156 -71.816406 71.242188 -70.144531 72.546875 -68.0625 C 73.859375 -65.976562 74.515625 -63.503906 74.515625 -60.640625 C 74.515625 -59.128906 74.515625 -57.023438 74.515625 -54.328125 C 74.515625 -51.640625 74.515625 -48.546875 74.515625 -45.046875 C 74.515625 -41.554688 74.515625 -37.828125 74.515625 -33.859375 C 74.515625 -29.890625 74.5 -25.851562 74.46875 -21.75 C 74.445312 -17.65625 74.4375 -13.695312 74.4375 -9.875 C 74.4375 -8.570312 74.421875 -7.128906 74.390625 -5.546875 C 74.367188 -3.960938 74.304688 -2.742188 74.203125 -1.890625 C 73.648438 -1.285156 72.632812 -0.71875 71.15625 -0.1875 C 69.675781 0.34375 67.941406 0.71875 65.953125 0.9375 C 63.960938 1.164062 61.910156 1.203125 59.796875 1.046875 C 57.691406 0.898438 55.679688 0.453125 53.765625 -0.296875 C 51.859375 -1.054688 50.265625 -2.148438 48.984375 -3.578125 C 47.703125 -5.015625 46.910156 -6.863281 46.609375 -9.125 C 46.453125 -10.132812 46.335938 -11.351562 46.265625 -12.78125 C 46.191406 -14.21875 46.128906 -15.726562 46.078125 -17.3125 C 46.023438 -18.894531 45.984375 -20.363281 45.953125 -21.71875 C 45.929688 -23.070312 45.921875 -24.15625 45.921875 -24.96875 C 43.515625 -24.96875 41.191406 -24.96875 38.953125 -24.96875 C 36.710938 -24.96875 34.335938 -24.96875 31.828125 -24.96875 C 31.828125 -21.289062 31.828125 -17.488281 31.828125 -13.5625 C 31.828125 -9.644531 31.828125 -5.726562 31.828125 -1.8125 C 31.117188 -1.207031 29.984375 -0.613281 28.421875 -0.03125 C 26.867188 0.539062 25.070312 0.953125 23.03125 1.203125 C 21 1.453125 18.914062 1.460938 16.78125 1.234375 C 14.644531 1.015625 12.632812 0.414062 10.75 -0.5625 C 8.863281 -1.539062 7.289062 -3 6.03125 -4.9375 C 4.769531 -6.875 4.039062 -9.375 3.84375 -12.4375 C 3.75 -13.851562 3.648438 -15.941406 3.546875 -18.703125 C 3.441406 -21.460938 3.335938 -24.65625 3.234375 -28.28125 C 3.140625 -31.90625 3.050781 -35.738281 2.96875 -39.78125 C 2.894531 -43.832031 2.859375 -47.816406 2.859375 -51.734375 C 2.859375 -55.660156 2.882812 -59.316406 2.9375 -62.703125 C 2.988281 -66.097656 3.09375 -68.925781 3.25 -71.1875 C 5.257812 -72.851562 7.46875 -74.035156 9.875 -74.734375 C 12.289062 -75.441406 14.71875 -75.707031 17.15625 -75.53125 C 19.59375 -75.351562 21.84375 -74.773438 23.90625 -73.796875 C 25.96875 -72.816406 27.675781 -71.492188 29.03125 -69.828125 C 30.394531 -68.171875 31.175781 -66.1875 31.375 -63.875 C 31.625 -61.664062 31.75 -59.492188 31.75 -57.359375 C 31.75 -55.222656 31.722656 -53.410156 31.671875 -51.921875 C 31.617188 -50.441406 31.59375 -49.578125 31.59375 -49.328125 Z M 31.59375 -49.328125 "/></g></g></g><g fill="#caa2d8" fill-opacity="1"><g transform="translate(81.647301, 83.716916)"><g><path d="M 4.140625 -17.421875 C 4.046875 -19.128906 3.972656 -21.425781 3.921875 -24.3125 C 3.867188 -27.207031 3.84375 -30.453125 3.84375 -34.046875 C 3.84375 -37.640625 3.878906 -41.359375 3.953125 -45.203125 C 4.035156 -49.054688 4.140625 -52.84375 4.265625 -56.5625 C 4.390625 -60.28125 4.539062 -63.722656 4.71875 -66.890625 C 4.894531 -70.054688 5.109375 -72.695312 5.359375 -74.8125 C 7.867188 -75.0625 10.921875 -75.25 14.515625 -75.375 C 18.109375 -75.5 21.96875 -75.585938 26.09375 -75.640625 C 30.21875 -75.691406 34.351562 -75.675781 38.5 -75.59375 C 42.644531 -75.519531 46.566406 -75.410156 50.265625 -75.265625 C 53.960938 -75.117188 57.144531 -74.941406 59.8125 -74.734375 C 60.257812 -74.078125 60.660156 -73.070312 61.015625 -71.71875 C 61.367188 -70.363281 61.554688 -68.832031 61.578125 -67.125 C 61.597656 -65.414062 61.382812 -63.679688 60.9375 -61.921875 C 60.488281 -60.160156 59.695312 -58.523438 58.5625 -57.015625 C 57.425781 -55.503906 55.863281 -54.296875 53.875 -53.390625 C 51.894531 -52.484375 49.394531 -52.03125 46.375 -52.03125 C 45.375 -52.03125 44.445312 -52.03125 43.59375 -52.03125 C 42.738281 -52.03125 41.78125 -52.03125 40.71875 -52.03125 C 39.664062 -52.03125 38.359375 -52.03125 36.796875 -52.03125 C 35.242188 -52.03125 33.257812 -52.03125 30.84375 -52.03125 C 30.84375 -51.425781 30.84375 -50.8125 30.84375 -50.1875 C 30.84375 -49.5625 30.84375 -48.867188 30.84375 -48.109375 C 31.945312 -48.109375 33.46875 -48.132812 35.40625 -48.1875 C 37.34375 -48.238281 39.441406 -48.265625 41.703125 -48.265625 C 43.960938 -48.265625 46.1875 -48.160156 48.375 -47.953125 C 50.5625 -47.753906 52.460938 -47.40625 54.078125 -46.90625 C 55.585938 -43.59375 56.210938 -40.5 55.953125 -37.625 C 55.703125 -34.757812 54.582031 -32.421875 52.59375 -30.609375 C 50.613281 -28.804688 47.765625 -27.804688 44.046875 -27.609375 C 42.785156 -27.554688 41.601562 -27.53125 40.5 -27.53125 C 39.394531 -27.53125 38.113281 -27.539062 36.65625 -27.5625 C 35.195312 -27.59375 33.285156 -27.609375 30.921875 -27.609375 C 30.921875 -26.796875 30.921875 -26.023438 30.921875 -25.296875 C 30.921875 -24.566406 30.921875 -23.800781 30.921875 -23 C 31.171875 -23 31.445312 -23 31.75 -23 C 32.050781 -23 32.351562 -23 32.65625 -23 C 36.675781 -23 40.707031 -23 44.75 -23 C 48.800781 -23 52.835938 -23 56.859375 -23 C 58.316406 -20.988281 59.25 -18.765625 59.65625 -16.328125 C 60.0625 -13.890625 59.882812 -11.515625 59.125 -9.203125 C 58.375 -6.890625 56.941406 -4.890625 54.828125 -3.203125 C 52.710938 -1.515625 49.875 -0.445312 46.3125 0 C 45.050781 0.144531 43.351562 0.28125 41.21875 0.40625 C 39.082031 0.539062 36.726562 0.617188 34.15625 0.640625 C 31.59375 0.660156 29.039062 0.644531 26.5 0.59375 C 23.96875 0.550781 21.679688 0.453125 19.640625 0.296875 C 17.609375 0.148438 16.039062 -0.046875 14.9375 -0.296875 C 11.414062 -1.203125 8.8125 -3 7.125 -5.6875 C 5.4375 -8.382812 4.441406 -12.296875 4.140625 -17.421875 Z M 4.140625 -17.421875 "/></g></g></g><g fill="#caa2d8" fill-opacity="1"><g transform="translate(145.140793, 83.716916)"><g><path d="M 50.296875 -0.21875 C 47.640625 -0.0703125 44.9375 0.0078125 42.1875 0.03125 C 39.445312 0.0625 36.921875 0.0507812 34.609375 0 C 32.296875 -0.0507812 30.4375 -0.0976562 29.03125 -0.140625 C 27.625 -0.191406 26.921875 -0.21875 26.921875 -0.21875 C 24.960938 -0.21875 22.8125 -0.378906 20.46875 -0.703125 C 18.132812 -1.035156 15.859375 -1.753906 13.640625 -2.859375 C 11.429688 -3.972656 9.507812 -5.625 7.875 -7.8125 C 6.25 -10 5.15625 -12.925781 4.59375 -16.59375 C 4.289062 -18.707031 4.015625 -21.367188 3.765625 -24.578125 C 3.515625 -27.796875 3.328125 -31.351562 3.203125 -35.25 C 3.078125 -39.15625 3.039062 -43.21875 3.09375 -47.4375 C 3.144531 -51.65625 3.304688 -55.851562 3.578125 -60.03125 C 3.859375 -64.207031 4.300781 -68.15625 4.90625 -71.875 C 6.3125 -73.125 8.046875 -74.085938 10.109375 -74.765625 C 12.171875 -75.453125 14.359375 -75.742188 16.671875 -75.640625 C 18.984375 -75.535156 21.191406 -74.929688 23.296875 -73.828125 C 25.410156 -72.722656 27.222656 -71.039062 28.734375 -68.78125 C 30.242188 -66.519531 31.195312 -63.53125 31.59375 -59.8125 C 31.851562 -57.59375 32.03125 -55.035156 32.125 -52.140625 C 32.226562 -49.253906 32.300781 -46.253906 32.34375 -43.140625 C 32.394531 -40.023438 32.410156 -36.992188 32.390625 -34.046875 C 32.367188 -31.109375 32.304688 -28.457031 32.203125 -26.09375 C 33.910156 -26.25 35.992188 -26.335938 38.453125 -26.359375 C 40.921875 -26.378906 43.578125 -26.363281 46.421875 -26.3125 C 49.265625 -26.269531 52.140625 -26.144531 55.046875 -25.9375 C 57.960938 -25.738281 60.753906 -25.488281 63.421875 -25.1875 C 64.929688 -22.320312 65.609375 -19.457031 65.453125 -16.59375 C 65.304688 -13.726562 64.53125 -11.085938 63.125 -8.671875 C 61.71875 -6.253906 59.894531 -4.28125 57.65625 -2.75 C 55.414062 -1.21875 52.960938 -0.375 50.296875 -0.21875 Z M 50.296875 -0.21875 "/></g></g></g><g fill="#caa2d8" fill-opacity="1"><g transform="translate(213.384988, 83.716916)"><g><path d="M 50.296875 -0.21875 C 47.640625 -0.0703125 44.9375 0.0078125 42.1875 0.03125 C 39.445312 0.0625 36.921875 0.0507812 34.609375 0 C 32.296875 -0.0507812 30.4375 -0.0976562 29.03125 -0.140625 C 27.625 -0.191406 26.921875 -0.21875 26.921875 -0.21875 C 24.960938 -0.21875 22.8125 -0.378906 20.46875 -0.703125 C 18.132812 -1.035156 15.859375 -1.753906 13.640625 -2.859375 C 11.429688 -3.972656 9.507812 -5.625 7.875 -7.8125 C 6.25 -10 5.15625 -12.925781 4.59375 -16.59375 C 4.289062 -18.707031 4.015625 -21.367188 3.765625 -24.578125 C 3.515625 -27.796875 3.328125 -31.351562 3.203125 -35.25 C 3.078125 -39.15625 3.039062 -43.21875 3.09375 -47.4375 C 3.144531 -51.65625 3.304688 -55.851562 3.578125 -60.03125 C 3.859375 -64.207031 4.300781 -68.15625 4.90625 -71.875 C 6.3125 -73.125 8.046875 -74.085938 10.109375 -74.765625 C 12.171875 -75.453125 14.359375 -75.742188 16.671875 -75.640625 C 18.984375 -75.535156 21.191406 -74.929688 23.296875 -73.828125 C 25.410156 -72.722656 27.222656 -71.039062 28.734375 -68.78125 C 30.242188 -66.519531 31.195312 -63.53125 31.59375 -59.8125 C 31.851562 -57.59375 32.03125 -55.035156 32.125 -52.140625 C 32.226562 -49.253906 32.300781 -46.253906 32.34375 -43.140625 C 32.394531 -40.023438 32.410156 -36.992188 32.390625 -34.046875 C 32.367188 -31.109375 32.304688 -28.457031 32.203125 -26.09375 C 33.910156 -26.25 35.992188 -26.335938 38.453125 -26.359375 C 40.921875 -26.378906 43.578125 -26.363281 46.421875 -26.3125 C 49.265625 -26.269531 52.140625 -26.144531 55.046875 -25.9375 C 57.960938 -25.738281 60.753906 -25.488281 63.421875 -25.1875 C 64.929688 -22.320312 65.609375 -19.457031 65.453125 -16.59375 C 65.304688 -13.726562 64.53125 -11.085938 63.125 -8.671875 C 61.71875 -6.253906 59.894531 -4.28125 57.65625 -2.75 C 55.414062 -1.21875 52.960938 -0.375 50.296875 -0.21875 Z M 50.296875 -0.21875 "/></g></g></g><g fill="#caa2d8" fill-opacity="1"><g transform="translate(281.629171, 83.716916)"><g><path d="M 41.703125 -76.921875 C 46.828125 -76.972656 51.3125 -76.394531 55.15625 -75.1875 C 59.007812 -73.976562 62.289062 -72.421875 65 -70.515625 C 67.71875 -68.609375 69.96875 -66.570312 71.75 -64.40625 C 73.539062 -62.238281 74.953125 -60.1875 75.984375 -58.25 C 77.015625 -56.320312 77.753906 -54.753906 78.203125 -53.546875 C 79.960938 -48.722656 81.003906 -43.859375 81.328125 -38.953125 C 81.660156 -34.046875 81.070312 -29.109375 79.5625 -24.140625 C 75.4375 -10.910156 66.664062 -2.710938 53.25 0.453125 C 47.8125 1.753906 42.453125 2.164062 37.171875 1.6875 C 31.898438 1.21875 26.75 -0.320312 21.71875 -2.9375 C 16.945312 -5.40625 13.140625 -8.613281 10.296875 -12.5625 C 7.453125 -16.507812 5.453125 -21.070312 4.296875 -26.25 C 3.546875 -29.507812 3.109375 -32.847656 2.984375 -36.265625 C 2.859375 -39.691406 3.054688 -43.015625 3.578125 -46.234375 C 4.109375 -49.453125 4.976562 -52.34375 6.1875 -54.90625 C 7.394531 -57.570312 8.953125 -60.195312 10.859375 -62.78125 C 12.765625 -65.375 15.125 -67.738281 17.9375 -69.875 C 20.757812 -72.007812 24.128906 -73.71875 28.046875 -75 C 31.972656 -76.28125 36.523438 -76.921875 41.703125 -76.921875 Z M 42.078125 -49.921875 C 40.222656 -49.921875 38.503906 -49.40625 36.921875 -48.375 C 35.335938 -47.34375 34.09375 -45.804688 33.1875 -43.765625 C 32.28125 -41.734375 31.925781 -39.210938 32.125 -36.203125 C 32.320312 -33.285156 32.988281 -30.972656 34.125 -29.265625 C 35.257812 -27.554688 36.59375 -26.335938 38.125 -25.609375 C 39.65625 -24.878906 41.078125 -24.5625 42.390625 -24.65625 C 43.742188 -24.757812 45.109375 -25.203125 46.484375 -25.984375 C 47.867188 -26.765625 49.050781 -28.007812 50.03125 -29.71875 C 51.019531 -31.425781 51.585938 -33.6875 51.734375 -36.5 C 51.929688 -39.363281 51.585938 -41.789062 50.703125 -43.78125 C 49.828125 -45.769531 48.625 -47.289062 47.09375 -48.34375 C 45.5625 -49.394531 43.890625 -49.921875 42.078125 -49.921875 Z M 42.078125 -49.921875 "/></g></g></g><g fill="#caa2d8" fill-opacity="1"><g transform="translate(366.086086, 83.716916)"><g><path d="M 11.15625 0.609375 C 8.644531 -0.148438 6.644531 -1.320312 5.15625 -2.90625 C 3.675781 -4.488281 2.625 -6.269531 2 -8.25 C 1.375 -10.238281 1.125 -12.238281 1.25 -14.25 C 1.375 -16.257812 1.8125 -18.070312 2.5625 -19.6875 C 3.613281 -22.050781 5.171875 -24 7.234375 -25.53125 C 9.296875 -27.0625 12.164062 -27.878906 15.84375 -27.984375 C 19.0625 -28.035156 21.722656 -27.34375 23.828125 -25.90625 C 25.941406 -24.46875 27.523438 -22.601562 28.578125 -20.3125 C 29.640625 -18.03125 30.191406 -15.609375 30.234375 -13.046875 C 30.285156 -10.585938 29.957031 -8.113281 29.25 -5.625 C 28.550781 -3.132812 27.632812 -0.722656 26.5 1.609375 C 25.375 3.953125 24.15625 6.117188 22.84375 8.109375 C 21.539062 10.097656 20.285156 11.816406 19.078125 13.265625 C 17.523438 15.234375 15.851562 16.566406 14.0625 17.265625 C 12.28125 17.972656 10.609375 18.210938 9.046875 17.984375 C 7.492188 17.753906 6.210938 17.203125 5.203125 16.328125 C 4.203125 15.453125 3.703125 14.410156 3.703125 13.203125 C 4.898438 10.835938 6.175781 8.648438 7.53125 6.640625 C 8.894531 4.628906 10.101562 2.617188 11.15625 0.609375 Z M 11.15625 0.609375 "/></g></g></g><g fill="#caa2d8" fill-opacity="1"><g transform="translate(397.455797, 83.716916)"><g/></g></g><g fill="#caa2d8" fill-opacity="1"><g transform="translate(435.461393, 83.716916)"><g><path d="M 55.046875 -42.453125 C 58.867188 -40.097656 61.695312 -37.359375 63.53125 -34.234375 C 65.375 -31.117188 66.367188 -27.875 66.515625 -24.5 C 66.671875 -21.132812 66.171875 -17.894531 65.015625 -14.78125 C 63.859375 -11.664062 62.1875 -8.910156 60 -6.515625 C 57.8125 -4.128906 55.304688 -2.359375 52.484375 -1.203125 C 50.472656 -0.398438 48.007812 0.273438 45.09375 0.828125 C 42.175781 1.378906 39.007812 1.71875 35.59375 1.84375 C 32.175781 1.96875 28.671875 1.789062 25.078125 1.3125 C 21.484375 0.84375 18.015625 -0.0195312 14.671875 -1.28125 C 11.328125 -2.539062 8.296875 -4.273438 5.578125 -6.484375 C 4.117188 -8.347656 3.25 -10.359375 2.96875 -12.515625 C 2.695312 -14.679688 2.910156 -16.753906 3.609375 -18.734375 C 4.316406 -20.722656 5.410156 -22.410156 6.890625 -23.796875 C 8.378906 -25.179688 10.15625 -26.035156 12.21875 -26.359375 C 14.28125 -26.679688 16.539062 -26.238281 19 -25.03125 C 22.570312 -23.28125 25.941406 -22.085938 29.109375 -21.453125 C 32.273438 -20.828125 34.914062 -20.753906 37.03125 -21.234375 C 39.144531 -21.710938 40.398438 -22.703125 40.796875 -24.203125 C 41.203125 -25.710938 40.875 -26.96875 39.8125 -27.96875 C 38.757812 -28.976562 36.828125 -29.585938 34.015625 -29.796875 C 30.941406 -30.046875 27.875 -30.570312 24.8125 -31.375 C 21.75 -32.175781 18.882812 -33.34375 16.21875 -34.875 C 13.550781 -36.414062 11.300781 -38.425781 9.46875 -40.90625 C 7.632812 -43.394531 6.414062 -46.398438 5.8125 -49.921875 C 5.601562 -51.179688 5.585938 -52.726562 5.765625 -54.5625 C 5.941406 -56.394531 6.394531 -58.34375 7.125 -60.40625 C 7.851562 -62.46875 8.957031 -64.503906 10.4375 -66.515625 C 11.925781 -68.523438 13.898438 -70.359375 16.359375 -72.015625 C 18.828125 -73.679688 21.867188 -74.988281 25.484375 -75.9375 C 28.003906 -76.644531 30.671875 -77.085938 33.484375 -77.265625 C 36.296875 -77.441406 39.097656 -77.40625 41.890625 -77.15625 C 44.679688 -76.90625 47.28125 -76.425781 49.6875 -75.71875 C 52.101562 -75.007812 54.117188 -74.128906 55.734375 -73.078125 C 58.347656 -71.316406 60.234375 -69.441406 61.390625 -67.453125 C 62.546875 -65.472656 63.109375 -63.515625 63.078125 -61.578125 C 63.054688 -59.640625 62.59375 -57.828125 61.6875 -56.140625 C 60.78125 -54.460938 59.597656 -53.03125 58.140625 -51.84375 C 56.679688 -50.664062 55.070312 -49.875 53.3125 -49.46875 C 52.207031 -50.832031 50.6875 -52.003906 48.75 -52.984375 C 46.820312 -53.960938 44.738281 -54.710938 42.5 -55.234375 C 40.257812 -55.765625 38.132812 -56.015625 36.125 -55.984375 C 34.113281 -55.960938 32.46875 -55.640625 31.1875 -55.015625 C 29.90625 -54.390625 29.238281 -53.421875 29.1875 -52.109375 C 29.1875 -51.304688 29.535156 -50.640625 30.234375 -50.109375 C 30.941406 -49.585938 32.25 -49.203125 34.15625 -48.953125 C 39.6875 -48.242188 44.210938 -47.195312 47.734375 -45.8125 C 51.253906 -44.425781 53.691406 -43.304688 55.046875 -42.453125 Z M 55.046875 -42.453125 "/></g></g></g><g fill="#caa2d8" fill-opacity="1"><g transform="translate(506.495677, 83.716916)"><g><path d="M 67.796875 -75.265625 C 68.597656 -74.210938 69.265625 -72.703125 69.796875 -70.734375 C 70.328125 -68.773438 70.566406 -66.648438 70.515625 -64.359375 C 70.460938 -62.078125 69.984375 -59.878906 69.078125 -57.765625 C 68.171875 -55.660156 66.722656 -53.878906 64.734375 -52.421875 C 62.753906 -50.960938 60.082031 -50.128906 56.71875 -49.921875 C 55.40625 -49.867188 54.304688 -49.804688 53.421875 -49.734375 C 52.546875 -49.660156 52.007812 -49.625 51.8125 -49.625 C 51.914062 -46.8125 51.976562 -43.71875 52 -40.34375 C 52.019531 -36.976562 52.003906 -33.507812 51.953125 -29.9375 C 51.910156 -26.363281 51.8125 -22.878906 51.65625 -19.484375 C 51.507812 -16.097656 51.332031 -12.929688 51.125 -9.984375 C 50.925781 -7.046875 50.675781 -4.546875 50.375 -2.484375 C 49.125 -1.078125 47.53125 -0.0703125 45.59375 0.53125 C 43.65625 1.132812 41.59375 1.296875 39.40625 1.015625 C 37.21875 0.742188 35.09375 -0.03125 33.03125 -1.3125 C 30.96875 -2.601562 29.144531 -4.40625 27.5625 -6.71875 C 25.976562 -9.03125 24.859375 -11.941406 24.203125 -15.453125 C 24.003906 -16.515625 23.828125 -18.210938 23.671875 -20.546875 C 23.523438 -22.890625 23.390625 -25.628906 23.265625 -28.765625 C 23.140625 -31.910156 23.050781 -35.28125 23 -38.875 C 22.945312 -42.46875 22.945312 -46.078125 23 -49.703125 C 20.488281 -49.492188 17.898438 -49.398438 15.234375 -49.421875 C 12.566406 -49.453125 10.003906 -49.722656 7.546875 -50.234375 C 6.585938 -51.484375 5.878906 -53.101562 5.421875 -55.09375 C 4.972656 -57.082031 4.847656 -59.179688 5.046875 -61.390625 C 5.253906 -63.597656 5.832031 -65.707031 6.78125 -67.71875 C 7.738281 -69.726562 9.144531 -71.398438 11 -72.734375 C 12.863281 -74.066406 15.226562 -74.835938 18.09375 -75.046875 C 19.707031 -75.140625 21.832031 -75.210938 24.46875 -75.265625 C 27.113281 -75.316406 30.054688 -75.34375 33.296875 -75.34375 C 36.535156 -75.34375 39.863281 -75.34375 43.28125 -75.34375 C 46.707031 -75.34375 50.015625 -75.328125 53.203125 -75.296875 C 56.398438 -75.273438 59.28125 -75.265625 61.84375 -75.265625 C 64.40625 -75.265625 66.390625 -75.265625 67.796875 -75.265625 Z M 67.796875 -75.265625 "/></g></g></g><g fill="#caa2d8" fill-opacity="1"><g transform="translate(580.621711, 83.716916)"><g><path d="M 4.140625 -17.421875 C 4.046875 -19.128906 3.972656 -21.425781 3.921875 -24.3125 C 3.867188 -27.207031 3.84375 -30.453125 3.84375 -34.046875 C 3.84375 -37.640625 3.878906 -41.359375 3.953125 -45.203125 C 4.035156 -49.054688 4.140625 -52.84375 4.265625 -56.5625 C 4.390625 -60.28125 4.539062 -63.722656 4.71875 -66.890625 C 4.894531 -70.054688 5.109375 -72.695312 5.359375 -74.8125 C 7.867188 -75.0625 10.921875 -75.25 14.515625 -75.375 C 18.109375 -75.5 21.96875 -75.585938 26.09375 -75.640625 C 30.21875 -75.691406 34.351562 -75.675781 38.5 -75.59375 C 42.644531 -75.519531 46.566406 -75.410156 50.265625 -75.265625 C 53.960938 -75.117188 57.144531 -74.941406 59.8125 -74.734375 C 60.257812 -74.078125 60.660156 -73.070312 61.015625 -71.71875 C 61.367188 -70.363281 61.554688 -68.832031 61.578125 -67.125 C 61.597656 -65.414062 61.382812 -63.679688 60.9375 -61.921875 C 60.488281 -60.160156 59.695312 -58.523438 58.5625 -57.015625 C 57.425781 -55.503906 55.863281 -54.296875 53.875 -53.390625 C 51.894531 -52.484375 49.394531 -52.03125 46.375 -52.03125 C 45.375 -52.03125 44.445312 -52.03125 43.59375 -52.03125 C 42.738281 -52.03125 41.78125 -52.03125 40.71875 -52.03125 C 39.664062 -52.03125 38.359375 -52.03125 36.796875 -52.03125 C 35.242188 -52.03125 33.257812 -52.03125 30.84375 -52.03125 C 30.84375 -51.425781 30.84375 -50.8125 30.84375 -50.1875 C 30.84375 -49.5625 30.84375 -48.867188 30.84375 -48.109375 C 31.945312 -48.109375 33.46875 -48.132812 35.40625 -48.1875 C 37.34375 -48.238281 39.441406 -48.265625 41.703125 -48.265625 C 43.960938 -48.265625 46.1875 -48.160156 48.375 -47.953125 C 50.5625 -47.753906 52.460938 -47.40625 54.078125 -46.90625 C 55.585938 -43.59375 56.210938 -40.5 55.953125 -37.625 C 55.703125 -34.757812 54.582031 -32.421875 52.59375 -30.609375 C 50.613281 -28.804688 47.765625 -27.804688 44.046875 -27.609375 C 42.785156 -27.554688 41.601562 -27.53125 40.5 -27.53125 C 39.394531 -27.53125 38.113281 -27.539062 36.65625 -27.5625 C 35.195312 -27.59375 33.285156 -27.609375 30.921875 -27.609375 C 30.921875 -26.796875 30.921875 -26.023438 30.921875 -25.296875 C 30.921875 -24.566406 30.921875 -23.800781 30.921875 -23 C 31.171875 -23 31.445312 -23 31.75 -23 C 32.050781 -23 32.351562 -23 32.65625 -23 C 36.675781 -23 40.707031 -23 44.75 -23 C 48.800781 -23 52.835938 -23 56.859375 -23 C 58.316406 -20.988281 59.25 -18.765625 59.65625 -16.328125 C 60.0625 -13.890625 59.882812 -11.515625 59.125 -9.203125 C 58.375 -6.890625 56.941406 -4.890625 54.828125 -3.203125 C 52.710938 -1.515625 49.875 -0.445312 46.3125 0 C 45.050781 0.144531 43.351562 0.28125 41.21875 0.40625 C 39.082031 0.539062 36.726562 0.617188 34.15625 0.640625 C 31.59375 0.660156 29.039062 0.644531 26.5 0.59375 C 23.96875 0.550781 21.679688 0.453125 19.640625 0.296875 C 17.609375 0.148438 16.039062 -0.046875 14.9375 -0.296875 C 11.414062 -1.203125 8.8125 -3 7.125 -5.6875 C 5.4375 -8.382812 4.441406 -12.296875 4.140625 -17.421875 Z M 4.140625 -17.421875 "/></g></g></g><g fill="#caa2d8" fill-opacity="1"><g transform="translate(644.115215, 83.716916)"><g><path d="M 50.296875 -0.21875 C 47.640625 -0.0703125 44.9375 0.0078125 42.1875 0.03125 C 39.445312 0.0625 36.921875 0.0507812 34.609375 0 C 32.296875 -0.0507812 30.4375 -0.0976562 29.03125 -0.140625 C 27.625 -0.191406 26.921875 -0.21875 26.921875 -0.21875 C 24.960938 -0.21875 22.8125 -0.378906 20.46875 -0.703125 C 18.132812 -1.035156 15.859375 -1.753906 13.640625 -2.859375 C 11.429688 -3.972656 9.507812 -5.625 7.875 -7.8125 C 6.25 -10 5.15625 -12.925781 4.59375 -16.59375 C 4.289062 -18.707031 4.015625 -21.367188 3.765625 -24.578125 C 3.515625 -27.796875 3.328125 -31.351562 3.203125 -35.25 C 3.078125 -39.15625 3.039062 -43.21875 3.09375 -47.4375 C 3.144531 -51.65625 3.304688 -55.851562 3.578125 -60.03125 C 3.859375 -64.207031 4.300781 -68.15625 4.90625 -71.875 C 6.3125 -73.125 8.046875 -74.085938 10.109375 -74.765625 C 12.171875 -75.453125 14.359375 -75.742188 16.671875 -75.640625 C 18.984375 -75.535156 21.191406 -74.929688 23.296875 -73.828125 C 25.410156 -72.722656 27.222656 -71.039062 28.734375 -68.78125 C 30.242188 -66.519531 31.195312 -63.53125 31.59375 -59.8125 C 31.851562 -57.59375 32.03125 -55.035156 32.125 -52.140625 C 32.226562 -49.253906 32.300781 -46.253906 32.34375 -43.140625 C 32.394531 -40.023438 32.410156 -36.992188 32.390625 -34.046875 C 32.367188 -31.109375 32.304688 -28.457031 32.203125 -26.09375 C 33.910156 -26.25 35.992188 -26.335938 38.453125 -26.359375 C 40.921875 -26.378906 43.578125 -26.363281 46.421875 -26.3125 C 49.265625 -26.269531 52.140625 -26.144531 55.046875 -25.9375 C 57.960938 -25.738281 60.753906 -25.488281 63.421875 -25.1875 C 64.929688 -22.320312 65.609375 -19.457031 65.453125 -16.59375 C 65.304688 -13.726562 64.53125 -11.085938 63.125 -8.671875 C 61.71875 -6.253906 59.894531 -4.28125 57.65625 -2.75 C 55.414062 -1.21875 52.960938 -0.375 50.296875 -0.21875 Z M 50.296875 -0.21875 "/></g></g></g><g fill="#caa2d8" fill-opacity="1"><g transform="translate(712.359373, 83.716916)"><g><path d="M 50.296875 -0.21875 C 47.640625 -0.0703125 44.9375 0.0078125 42.1875 0.03125 C 39.445312 0.0625 36.921875 0.0507812 34.609375 0 C 32.296875 -0.0507812 30.4375 -0.0976562 29.03125 -0.140625 C 27.625 -0.191406 26.921875 -0.21875 26.921875 -0.21875 C 24.960938 -0.21875 22.8125 -0.378906 20.46875 -0.703125 C 18.132812 -1.035156 15.859375 -1.753906 13.640625 -2.859375 C 11.429688 -3.972656 9.507812 -5.625 7.875 -7.8125 C 6.25 -10 5.15625 -12.925781 4.59375 -16.59375 C 4.289062 -18.707031 4.015625 -21.367188 3.765625 -24.578125 C 3.515625 -27.796875 3.328125 -31.351562 3.203125 -35.25 C 3.078125 -39.15625 3.039062 -43.21875 3.09375 -47.4375 C 3.144531 -51.65625 3.304688 -55.851562 3.578125 -60.03125 C 3.859375 -64.207031 4.300781 -68.15625 4.90625 -71.875 C 6.3125 -73.125 8.046875 -74.085938 10.109375 -74.765625 C 12.171875 -75.453125 14.359375 -75.742188 16.671875 -75.640625 C 18.984375 -75.535156 21.191406 -74.929688 23.296875 -73.828125 C 25.410156 -72.722656 27.222656 -71.039062 28.734375 -68.78125 C 30.242188 -66.519531 31.195312 -63.53125 31.59375 -59.8125 C 31.851562 -57.59375 32.03125 -55.035156 32.125 -52.140625 C 32.226562 -49.253906 32.300781 -46.253906 32.34375 -43.140625 C 32.394531 -40.023438 32.410156 -36.992188 32.390625 -34.046875 C 32.367188 -31.109375 32.304688 -28.457031 32.203125 -26.09375 C 33.910156 -26.25 35.992188 -26.335938 38.453125 -26.359375 C 40.921875 -26.378906 43.578125 -26.363281 46.421875 -26.3125 C 49.265625 -26.269531 52.140625 -26.144531 55.046875 -25.9375 C 57.960938 -25.738281 60.753906 -25.488281 63.421875 -25.1875 C 64.929688 -22.320312 65.609375 -19.457031 65.453125 -16.59375 C 65.304688 -13.726562 64.53125 -11.085938 63.125 -8.671875 C 61.71875 -6.253906 59.894531 -4.28125 57.65625 -2.75 C 55.414062 -1.21875 52.960938 -0.375 50.296875 -0.21875 Z M 50.296875 -0.21875 "/></g></g></g><g fill="#caa2d8" fill-opacity="1"><g transform="translate(780.60358, 83.716916)"><g><path d="M 1.125 -22.78125 C 1.726562 -25.789062 2.519531 -29.164062 3.5 -32.90625 C 4.488281 -36.65625 5.597656 -40.503906 6.828125 -44.453125 C 8.054688 -48.398438 9.3125 -52.222656 10.59375 -55.921875 C 11.875 -59.617188 13.128906 -63 14.359375 -66.0625 C 15.597656 -69.132812 16.691406 -71.597656 17.640625 -73.453125 C 19.703125 -74.160156 22.164062 -74.816406 25.03125 -75.421875 C 27.90625 -76.023438 30.945312 -76.363281 34.15625 -76.4375 C 37.375 -76.507812 40.566406 -76.09375 43.734375 -75.1875 C 46.910156 -74.28125 49.828125 -72.671875 52.484375 -70.359375 C 55.148438 -68.046875 57.335938 -64.804688 59.046875 -60.640625 C 59.859375 -58.628906 60.789062 -56.050781 61.84375 -52.90625 C 62.894531 -49.757812 64 -46.273438 65.15625 -42.453125 C 66.3125 -38.640625 67.441406 -34.707031 68.546875 -30.65625 C 69.660156 -26.601562 70.679688 -22.65625 71.609375 -18.8125 C 72.535156 -14.96875 73.273438 -11.460938 73.828125 -8.296875 C 73.679688 -6.941406 72.976562 -5.597656 71.71875 -4.265625 C 70.457031 -2.929688 68.859375 -1.796875 66.921875 -0.859375 C 64.992188 0.0664062 62.910156 0.679688 60.671875 0.984375 C 58.429688 1.285156 56.207031 1.109375 54 0.453125 C 51.789062 -0.203125 49.789062 -1.484375 48 -3.390625 C 46.21875 -5.304688 44.820312 -7.972656 43.8125 -11.390625 C 41.445312 -11.484375 38.984375 -11.503906 36.421875 -11.453125 C 33.859375 -11.410156 31.367188 -11.414062 28.953125 -11.46875 C 28.304688 -9.90625 27.691406 -8.191406 27.109375 -6.328125 C 26.535156 -4.472656 25.972656 -2.566406 25.421875 -0.609375 C 20.796875 1.097656 16.769531 1.710938 13.34375 1.234375 C 9.925781 0.765625 7.171875 -0.546875 5.078125 -2.703125 C 2.992188 -4.867188 1.613281 -7.6875 0.9375 -11.15625 C 0.257812 -14.625 0.320312 -18.5 1.125 -22.78125 Z M 31.90625 -33.03125 C 33.507812 -33.03125 35.066406 -33.03125 36.578125 -33.03125 C 38.085938 -33.03125 39.617188 -33.03125 41.171875 -33.03125 C 40.472656 -36.101562 39.742188 -39.132812 38.984375 -42.125 C 38.234375 -45.113281 37.503906 -48.113281 36.796875 -51.125 C 36.648438 -51.082031 36.425781 -51.0625 36.125 -51.0625 C 35.46875 -48.09375 34.773438 -45.125 34.046875 -42.15625 C 33.316406 -39.1875 32.601562 -36.144531 31.90625 -33.03125 Z M 31.90625 -33.03125 "/></g></g></g><g fill="#caa2d8" fill-opacity="1"><g transform="translate(855.483648, 83.716916)"><g><path d="M 15.015625 0.828125 C 14.359375 0.722656 13.6875 0.632812 13 0.5625 C 12.320312 0.488281 11.632812 0.375 10.9375 0.21875 C 8.375 -0.375 6.335938 -1.5 4.828125 -3.15625 C 3.316406 -4.820312 2.4375 -6.960938 2.1875 -9.578125 C 2.082031 -10.679688 2.054688 -11.785156 2.109375 -12.890625 C 2.160156 -14.003906 2.238281 -15.113281 2.34375 -16.21875 C 2.738281 -18.28125 3.566406 -19.972656 4.828125 -21.296875 C 6.085938 -22.628906 7.695312 -23.625 9.65625 -24.28125 C 12.570312 -25.1875 15.515625 -25.335938 18.484375 -24.734375 C 21.492188 -24.078125 23.863281 -22.554688 25.59375 -20.171875 C 27.332031 -17.785156 28.078125 -15.007812 27.828125 -11.84375 C 27.773438 -10.988281 27.660156 -10.09375 27.484375 -9.15625 C 27.304688 -8.226562 27.046875 -7.335938 26.703125 -6.484375 C 25.796875 -4.171875 24.320312 -2.382812 22.28125 -1.125 C 20.25 0.125 17.828125 0.773438 15.015625 0.828125 Z M 28.578125 -61.6875 C 28.578125 -60.53125 28.488281 -58.945312 28.3125 -56.9375 C 28.144531 -54.925781 27.894531 -52.710938 27.5625 -50.296875 C 27.238281 -47.890625 26.863281 -45.46875 26.4375 -43.03125 C 26.007812 -40.59375 25.566406 -38.316406 25.109375 -36.203125 C 24.660156 -34.085938 24.1875 -32.378906 23.6875 -31.078125 C 22.226562 -29.410156 20.503906 -28.210938 18.515625 -27.484375 C 16.523438 -26.753906 14.550781 -26.550781 12.59375 -26.875 C 10.632812 -27.207031 8.953125 -28.113281 7.546875 -29.59375 C 6.140625 -31.082031 5.234375 -33.207031 4.828125 -35.96875 C 3.671875 -43.363281 3.050781 -50.191406 2.96875 -56.453125 C 2.894531 -62.710938 3.1875 -68.101562 3.84375 -72.625 C 5.15625 -73.78125 6.835938 -74.695312 8.890625 -75.375 C 10.953125 -76.050781 13.113281 -76.363281 15.375 -76.3125 C 17.644531 -76.269531 19.785156 -75.757812 21.796875 -74.78125 C 23.804688 -73.800781 25.4375 -72.253906 26.6875 -70.140625 C 27.945312 -68.023438 28.578125 -65.207031 28.578125 -61.6875 Z M 28.578125 -61.6875 "/></g></g></g></g></g></svg>