<svg xmlns="http://www.w3.org/2000/svg" xmlns:xlink="http://www.w3.org/1999/xlink" width="1200" zoomAndPan="magnify" viewBox="0 0 900 119.999999" height="160" preserveAspectRatio="xMidYMid meet" version="1.0"><defs><g/><clipPath id="67cddcc41a"><path d="M 384 54 L 425 54 L 425 105 L 384 105 Z M 384 54 " clip-rule="nonzero"/></clipPath><clipPath id="60eaa83abf"><path d="M 389 59 L 421 59 L 421 105 L 389 105 Z M 389 59 " clip-rule="nonzero"/></clipPath><clipPath id="ac52fb8b22"><rect x="0" width="884" y="0" height="105"/></clipPath></defs><g transform="matrix(1, 0, 0, 1, 3, 15)"><g clip-path="url(#ac52fb8b22)"><g fill="#3e428d" fill-opacity="1"><g transform="translate(3.477042, 89.039776)"><g><path d="M 33.539062 -56.851562 L 48.90625 -56.851562 L 48.90625 -52.347656 L 44.40625 -52.507812 C 44.511719 -55.457031 44.578125 -58.523438 44.605469 -61.710938 C 44.632812 -64.972656 44.683594 -67.964844 44.765625 -70.691406 C 44.851562 -73.5625 45.011719 -75.804688 45.253906 -77.421875 L 45.515625 -79.199219 L 46.929688 -80.304688 C 49.445312 -82.277344 52.316406 -83.613281 55.546875 -84.320312 C 58.65625 -85 61.789062 -85.097656 64.957031 -84.613281 C 68.148438 -84.125 71.117188 -83.066406 73.863281 -81.429688 C 76.726562 -79.726562 79.042969 -77.457031 80.816406 -74.628906 C 82.664062 -71.683594 83.585938 -68.257812 83.585938 -64.355469 L 83.585938 -35.941406 L 83.546875 -23.078125 L 83.503906 -10.472656 C 83.503906 -9.070312 83.492188 -7.515625 83.464844 -5.8125 C 83.4375 -3.980469 83.359375 -2.535156 83.234375 -1.476562 L 83.066406 -0.03125 L 82.082031 1.042969 C 80.992188 2.230469 79.308594 3.230469 77.03125 4.042969 C 75.132812 4.71875 72.957031 5.195312 70.507812 5.472656 C 68.125 5.746094 65.671875 5.792969 63.152344 5.613281 C 60.453125 5.417969 57.875 4.835938 55.417969 3.867188 C 52.730469 2.804688 50.46875 1.25 48.632812 -0.800781 C 46.65625 -3.007812 45.445312 -5.773438 45.003906 -9.089844 C 44.828125 -10.25 44.699219 -11.664062 44.609375 -13.332031 C 44.527344 -14.882812 44.460938 -16.515625 44.40625 -18.226562 C 44.351562 -19.929688 44.3125 -21.507812 44.285156 -22.96875 C 44.257812 -24.4375 44.242188 -25.613281 44.242188 -26.496094 L 48.746094 -26.496094 L 48.746094 -21.992188 L 33.777344 -21.992188 L 33.777344 -26.496094 L 38.28125 -26.496094 L 38.28125 0.148438 L 36.707031 1.496094 C 35.554688 2.488281 33.898438 3.382812 31.742188 4.179688 C 29.757812 4.917969 27.515625 5.441406 25.003906 5.75 C 22.503906 6.058594 19.945312 6.074219 17.335938 5.796875 C 14.503906 5.5 11.832031 4.695312 9.328125 3.394531 C 6.625 1.988281 4.390625 -0.0742188 2.628906 -2.789062 C 0.867188 -5.503906 -0.144531 -8.875 -0.410156 -12.914062 C -0.519531 -14.441406 -0.628906 -16.699219 -0.738281 -19.6875 L -1.058594 -29.875 C -1.164062 -33.742188 -1.261719 -37.828125 -1.339844 -42.140625 C -1.421875 -46.460938 -1.460938 -50.71875 -1.460938 -54.910156 C -1.460938 -59.09375 -1.433594 -63 -1.378906 -66.621094 C -1.324219 -70.300781 -1.214844 -73.382812 -1.050781 -75.859375 L -0.921875 -77.796875 L 0.578125 -79.035156 C 3.1875 -81.1875 6.070312 -82.726562 9.226562 -83.644531 C 12.304688 -84.542969 15.40625 -84.878906 18.535156 -84.65625 C 21.683594 -84.425781 24.609375 -83.671875 27.308594 -82.386719 C 30.101562 -81.058594 32.433594 -79.253906 34.300781 -76.972656 C 36.328125 -74.492188 37.488281 -71.566406 37.785156 -68.1875 L 33.296875 -67.796875 L 37.773438 -68.304688 C 38.058594 -65.789062 38.199219 -63.3125 38.199219 -60.871094 C 38.199219 -58.554688 38.171875 -56.582031 38.117188 -54.957031 C 38.066406 -53.433594 38.039062 -52.5625 38.039062 -52.347656 L 33.539062 -52.347656 Z M 33.539062 -47.84375 L 29.035156 -47.84375 L 29.035156 -52.347656 C 29.035156 -52.667969 29.0625 -53.636719 29.117188 -55.261719 C 29.167969 -56.785156 29.195312 -58.65625 29.195312 -60.871094 C 29.195312 -62.972656 29.070312 -65.109375 28.824219 -67.289062 L 28.816406 -67.347656 L 28.8125 -67.40625 C 28.679688 -68.9375 28.1875 -70.226562 27.332031 -71.269531 C 26.316406 -72.507812 25.019531 -73.503906 23.441406 -74.257812 C 21.761719 -75.054688 19.910156 -75.527344 17.886719 -75.671875 C 15.835938 -75.820312 13.789062 -75.597656 11.746094 -75 C 9.777344 -74.425781 7.964844 -73.457031 6.308594 -72.085938 L 3.441406 -75.5625 L 7.933594 -75.261719 C 7.78125 -72.9375 7.675781 -70.011719 7.625 -66.488281 C 7.570312 -62.910156 7.542969 -59.050781 7.542969 -54.910156 C 7.542969 -50.777344 7.585938 -46.574219 7.664062 -42.308594 C 7.742188 -38.023438 7.835938 -33.976562 7.941406 -30.15625 L 8.261719 -20.015625 C 8.367188 -17.132812 8.472656 -14.960938 8.574219 -13.5 C 8.738281 -11.027344 9.273438 -9.09375 10.179688 -7.695312 C 11.082031 -6.304688 12.183594 -5.269531 13.484375 -4.59375 C 14.980469 -3.816406 16.582031 -3.335938 18.285156 -3.15625 C 20.210938 -2.953125 22.082031 -2.964844 23.902344 -3.1875 C 25.714844 -3.410156 27.285156 -3.769531 28.609375 -4.261719 C 29.761719 -4.6875 30.507812 -5.046875 30.847656 -5.339844 L 33.777344 -1.921875 L 29.277344 -1.921875 L 29.277344 -30.996094 L 53.25 -30.996094 L 53.25 -26.496094 C 53.25 -25.667969 53.261719 -24.550781 53.289062 -23.136719 C 53.316406 -21.714844 53.355469 -20.175781 53.40625 -18.511719 C 53.460938 -16.863281 53.523438 -15.292969 53.601562 -13.804688 C 53.675781 -12.425781 53.785156 -11.253906 53.929688 -10.28125 C 54.128906 -8.796875 54.597656 -7.636719 55.34375 -6.804688 C 56.230469 -5.8125 57.355469 -5.046875 58.722656 -4.507812 C 60.324219 -3.878906 62.011719 -3.496094 63.796875 -3.371094 C 65.757812 -3.230469 67.65625 -3.265625 69.488281 -3.472656 C 71.253906 -3.675781 72.761719 -3.996094 74.011719 -4.441406 C 74.5625 -4.640625 75.003906 -4.828125 75.324219 -5.007812 C 75.421875 -5.058594 75.492188 -5.105469 75.542969 -5.140625 C 75.523438 -5.125 75.488281 -5.09375 75.445312 -5.042969 L 78.761719 -2 L 74.289062 -2.527344 C 74.378906 -3.285156 74.4375 -4.425781 74.460938 -5.953125 C 74.488281 -7.613281 74.5 -9.125 74.5 -10.5 L 74.539062 -23.105469 L 74.582031 -35.941406 L 74.582031 -64.355469 C 74.582031 -66.535156 74.117188 -68.363281 73.1875 -69.847656 C 72.183594 -71.449219 70.875 -72.730469 69.253906 -73.691406 C 67.515625 -74.726562 65.628906 -75.402344 63.59375 -75.710938 C 61.53125 -76.027344 59.488281 -75.964844 57.472656 -75.523438 C 55.582031 -75.109375 53.917969 -74.34375 52.484375 -73.21875 L 49.707031 -76.761719 L 54.160156 -76.101562 C 53.972656 -74.835938 53.84375 -72.941406 53.765625 -70.425781 C 53.6875 -67.761719 53.636719 -64.832031 53.609375 -61.636719 C 53.582031 -58.367188 53.515625 -55.21875 53.40625 -52.1875 L 53.25 -47.84375 Z M 33.539062 -47.84375 "/></g></g></g><g fill="#3e428d" fill-opacity="1"><g transform="translate(86.234928, 89.039776)"><g><path d="M -0.09375 -18.226562 C -0.203125 -20.101562 -0.285156 -22.605469 -0.339844 -25.734375 C -0.394531 -28.832031 -0.421875 -32.296875 -0.421875 -36.140625 C -0.421875 -39.984375 -0.378906 -43.960938 -0.300781 -48.074219 C -0.21875 -52.179688 -0.113281 -56.214844 0.0234375 -60.183594 C 0.15625 -64.164062 0.320312 -67.855469 0.507812 -71.25 C 0.699219 -74.703125 0.933594 -77.601562 1.210938 -79.933594 L 1.640625 -83.523438 L 5.234375 -83.882812 C 8 -84.160156 11.339844 -84.367188 15.25 -84.503906 C 19.101562 -84.636719 23.230469 -84.730469 27.640625 -84.785156 C 32.0625 -84.839844 36.496094 -84.828125 40.945312 -84.746094 C 45.378906 -84.664062 49.578125 -84.542969 53.53125 -84.382812 C 57.507812 -84.21875 60.933594 -84.03125 63.8125 -83.8125 L 65.953125 -83.652344 L 67.175781 -81.886719 C 67.960938 -80.753906 68.605469 -79.207031 69.113281 -77.25 C 69.578125 -75.460938 69.824219 -73.480469 69.859375 -71.304688 C 69.890625 -69.089844 69.617188 -66.851562 69.035156 -64.59375 C 68.40625 -62.148438 67.3125 -59.886719 65.753906 -57.8125 C 64.09375 -55.597656 61.863281 -53.851562 59.058594 -52.574219 C 56.355469 -51.34375 53.082031 -50.726562 49.226562 -50.726562 L 32.738281 -50.726562 L 32.738281 -55.230469 L 37.242188 -55.230469 L 37.242188 -51.066406 L 32.738281 -51.066406 L 32.738281 -55.570312 C 33.871094 -55.570312 35.449219 -55.597656 37.464844 -55.648438 C 39.558594 -55.703125 41.824219 -55.730469 44.265625 -55.730469 C 46.804688 -55.730469 49.300781 -55.617188 51.761719 -55.390625 C 54.398438 -55.148438 56.722656 -54.714844 58.734375 -54.085938 L 60.65625 -53.484375 L 61.488281 -51.648438 C 63.417969 -47.410156 64.214844 -43.375 63.878906 -39.546875 C 63.507812 -35.339844 61.835938 -31.878906 58.863281 -29.167969 C 55.964844 -26.527344 52.007812 -25.070312 46.988281 -24.800781 C 45.550781 -24.742188 44.21875 -24.714844 42.984375 -24.714844 C 41.785156 -24.714844 40.398438 -24.726562 38.824219 -24.753906 C 37.300781 -24.78125 35.300781 -24.792969 32.816406 -24.792969 L 32.816406 -29.296875 L 37.320312 -29.296875 L 37.320312 -24.414062 L 32.816406 -24.414062 L 32.816406 -28.914062 L 62.648438 -28.914062 L 64 -27.054688 C 65.960938 -24.347656 67.214844 -21.351562 67.757812 -18.0625 C 68.304688 -14.75 68.0625 -11.519531 67.035156 -8.371094 C 65.957031 -5.058594 63.945312 -2.230469 61 0.117188 C 58.097656 2.429688 54.335938 3.878906 49.710938 4.46875 C 48.269531 4.640625 46.367188 4.796875 44.007812 4.933594 C 41.667969 5.074219 39.097656 5.15625 36.304688 5.183594 C 33.539062 5.210938 30.785156 5.195312 28.046875 5.140625 C 25.269531 5.085938 22.761719 4.976562 20.519531 4.808594 C 18.132812 4.632812 16.242188 4.386719 14.851562 4.070312 L 14.726562 4.039062 C 9.832031 2.78125 6.171875 0.21875 3.746094 -3.652344 C 1.554688 -7.160156 0.273438 -12.015625 -0.09375 -18.226562 Z M 8.898438 -18.753906 C 9.171875 -14.078125 10 -10.636719 11.378906 -8.433594 C 12.53125 -6.59375 14.394531 -5.34375 16.96875 -4.679688 L 15.847656 -0.320312 L 16.847656 -4.710938 C 17.800781 -4.492188 19.246094 -4.3125 21.183594 -4.171875 C 23.265625 -4.015625 25.609375 -3.914062 28.222656 -3.863281 C 30.875 -3.808594 33.539062 -3.796875 36.214844 -3.820312 C 38.863281 -3.847656 41.285156 -3.925781 43.480469 -4.054688 C 45.65625 -4.183594 47.355469 -4.320312 48.582031 -4.46875 C 51.535156 -4.839844 53.800781 -5.660156 55.382812 -6.921875 C 56.921875 -8.148438 57.953125 -9.5625 58.472656 -11.160156 C 59.046875 -12.917969 59.179688 -14.730469 58.871094 -16.597656 C 58.558594 -18.484375 57.839844 -20.210938 56.707031 -21.769531 L 60.351562 -24.414062 L 60.351562 -19.910156 L 28.316406 -19.910156 L 28.316406 -33.796875 L 32.816406 -33.796875 C 35.351562 -33.796875 37.40625 -33.785156 38.980469 -33.757812 C 40.5 -33.730469 41.835938 -33.71875 42.984375 -33.71875 C 44.097656 -33.71875 45.269531 -33.742188 46.503906 -33.792969 C 49.382812 -33.949219 51.480469 -34.625 52.796875 -35.824219 C 54.039062 -36.957031 54.742188 -38.460938 54.90625 -40.335938 C 55.105469 -42.589844 54.566406 -45.121094 53.292969 -47.921875 L 57.390625 -49.785156 L 56.046875 -45.488281 C 54.644531 -45.929688 52.941406 -46.238281 50.933594 -46.425781 C 48.75 -46.625 46.527344 -46.726562 44.265625 -46.726562 C 41.902344 -46.726562 39.710938 -46.699219 37.699219 -46.648438 C 35.605469 -46.59375 33.949219 -46.566406 32.738281 -46.566406 L 28.234375 -46.566406 L 28.234375 -59.734375 L 49.226562 -59.734375 C 51.777344 -59.734375 53.808594 -60.078125 55.324219 -60.769531 C 56.734375 -61.410156 57.808594 -62.226562 58.550781 -63.214844 C 59.394531 -64.339844 59.980469 -65.546875 60.3125 -66.835938 C 60.695312 -68.316406 60.875 -69.761719 60.851562 -71.171875 C 60.832031 -72.625 60.679688 -73.898438 60.398438 -74.992188 C 60.15625 -75.914062 59.949219 -76.503906 59.773438 -76.761719 L 63.472656 -79.324219 L 63.136719 -74.832031 C 60.359375 -75.042969 57.035156 -75.226562 53.164062 -75.382812 C 49.277344 -75.542969 45.148438 -75.664062 40.78125 -75.742188 C 36.421875 -75.820312 32.078125 -75.832031 27.75 -75.78125 C 23.410156 -75.726562 19.347656 -75.636719 15.566406 -75.503906 C 11.847656 -75.375 8.703125 -75.179688 6.132812 -74.921875 L 5.683594 -79.402344 L 10.152344 -78.871094 C 9.898438 -76.722656 9.679688 -74.015625 9.5 -70.75 C 9.3125 -67.417969 9.15625 -63.796875 9.023438 -59.878906 C 8.890625 -55.953125 8.785156 -51.957031 8.703125 -47.898438 C 8.625 -43.84375 8.585938 -39.925781 8.585938 -36.140625 C 8.585938 -32.351562 8.609375 -28.933594 8.664062 -25.890625 C 8.714844 -22.886719 8.792969 -20.507812 8.898438 -18.753906 Z M 8.898438 -18.753906 "/></g></g></g><g fill="#3e428d" fill-opacity="1"><g transform="translate(153.625781, 89.039776)"><g><path d="M 53.644531 4.253906 C 50.746094 4.417969 47.804688 4.515625 44.824219 4.542969 C 41.871094 4.570312 39.144531 4.554688 36.640625 4.5 C 34.167969 4.449219 32.171875 4.394531 30.65625 4.339844 L 28.414062 4.257812 L 28.574219 -0.238281 L 28.574219 4.261719 C 26.285156 4.261719 23.796875 4.074219 21.109375 3.699219 C 18.140625 3.285156 15.261719 2.378906 12.472656 0.984375 C 9.488281 -0.507812 6.917969 -2.699219 4.757812 -5.589844 C 2.570312 -8.515625 1.128906 -12.296875 0.429688 -16.9375 C 0.09375 -19.296875 -0.210938 -22.234375 -0.488281 -25.742188 C -0.757812 -29.226562 -0.960938 -33.070312 -1.097656 -37.273438 C -1.234375 -41.476562 -1.273438 -45.851562 -1.21875 -50.402344 C -1.167969 -54.964844 -0.988281 -59.5 -0.691406 -64.011719 C -0.386719 -68.582031 0.09375 -72.914062 0.757812 -77.003906 L 1.011719 -78.578125 L 2.203125 -79.640625 C 4.164062 -81.390625 6.535156 -82.722656 9.316406 -83.640625 C 12.027344 -84.53125 14.882812 -84.914062 17.886719 -84.78125 C 21.007812 -84.644531 23.988281 -83.835938 26.824219 -82.351562 C 29.742188 -80.820312 32.214844 -78.535156 34.242188 -75.496094 C 36.25 -72.484375 37.507812 -68.636719 38.015625 -63.957031 C 38.292969 -61.507812 38.488281 -58.691406 38.597656 -55.507812 C 38.707031 -52.410156 38.785156 -49.195312 38.839844 -45.855469 C 38.894531 -42.511719 38.90625 -39.261719 38.882812 -36.101562 C 38.855469 -32.929688 38.785156 -30.0625 38.675781 -27.503906 L 34.179688 -27.695312 L 33.78125 -32.179688 C 35.714844 -32.351562 38.042969 -32.449219 40.777344 -32.476562 C 43.433594 -32.503906 46.289062 -32.492188 49.347656 -32.4375 C 52.4375 -32.382812 55.570312 -32.246094 58.742188 -32.027344 C 61.902344 -31.808594 64.929688 -31.535156 67.824219 -31.207031 L 70.191406 -30.941406 L 71.300781 -28.832031 C 73.285156 -25.058594 74.175781 -21.238281 73.972656 -17.371094 C 73.777344 -13.605469 72.746094 -10.125 70.886719 -6.9375 C 69.050781 -3.792969 66.667969 -1.214844 63.738281 0.792969 C 60.671875 2.894531 57.308594 4.046875 53.644531 4.253906 Z M 53.132812 -4.734375 C 55.125 -4.847656 56.964844 -5.480469 58.648438 -6.636719 C 60.464844 -7.882812 61.953125 -9.496094 63.105469 -11.472656 C 64.234375 -13.40625 64.859375 -15.53125 64.980469 -17.847656 C 65.097656 -20.0625 64.546875 -22.328125 63.332031 -24.636719 L 67.316406 -26.734375 L 66.808594 -22.261719 C 64.046875 -22.574219 61.152344 -22.835938 58.121094 -23.042969 C 55.101562 -23.25 52.125 -23.382812 49.1875 -23.433594 C 46.214844 -23.484375 43.441406 -23.5 40.867188 -23.472656 C 38.371094 -23.445312 36.273438 -23.359375 34.574219 -23.210938 L 29.460938 -22.757812 L 29.679688 -27.886719 C 29.785156 -30.34375 29.851562 -33.105469 29.875 -36.179688 C 29.902344 -39.261719 29.890625 -42.441406 29.835938 -45.710938 C 29.785156 -48.992188 29.703125 -52.152344 29.597656 -55.195312 C 29.496094 -58.144531 29.316406 -60.742188 29.0625 -62.992188 C 28.714844 -66.207031 27.941406 -68.710938 26.75 -70.5 C 25.574219 -72.265625 24.207031 -73.554688 22.644531 -74.375 C 20.996094 -75.238281 19.28125 -75.707031 17.492188 -75.785156 C 15.585938 -75.867188 13.800781 -75.636719 12.132812 -75.085938 C 10.539062 -74.5625 9.230469 -73.839844 8.203125 -72.921875 L 5.203125 -76.28125 L 9.648438 -75.5625 C 9.03125 -71.753906 8.578125 -67.703125 8.292969 -63.417969 C 8.007812 -59.070312 7.835938 -54.695312 7.785156 -50.292969 C 7.730469 -45.878906 7.769531 -41.636719 7.902344 -37.566406 C 8.035156 -33.5 8.230469 -29.792969 8.492188 -26.445312 C 8.75 -23.125 9.03125 -20.402344 9.335938 -18.28125 C 9.808594 -15.128906 10.6875 -12.695312 11.972656 -10.980469 C 13.28125 -9.226562 14.789062 -7.925781 16.5 -7.070312 C 18.410156 -6.113281 20.359375 -5.5 22.355469 -5.21875 C 24.628906 -4.902344 26.703125 -4.742188 28.574219 -4.742188 L 28.65625 -4.742188 L 30.976562 -4.660156 C 32.449219 -4.605469 34.402344 -4.554688 36.835938 -4.5 C 39.246094 -4.449219 41.882812 -4.4375 44.742188 -4.460938 C 47.582031 -4.488281 50.378906 -4.578125 53.132812 -4.734375 Z M 53.132812 -4.734375 "/></g></g></g><g fill="#3e428d" fill-opacity="1"><g transform="translate(226.058943, 89.039776)"><g><path d="M 53.644531 4.253906 C 50.746094 4.417969 47.804688 4.515625 44.824219 4.542969 C 41.871094 4.570312 39.144531 4.554688 36.640625 4.5 C 34.167969 4.449219 32.171875 4.394531 30.65625 4.339844 L 28.414062 4.257812 L 28.574219 -0.238281 L 28.574219 4.261719 C 26.285156 4.261719 23.796875 4.074219 21.109375 3.699219 C 18.140625 3.285156 15.261719 2.378906 12.472656 0.984375 C 9.488281 -0.507812 6.917969 -2.699219 4.757812 -5.589844 C 2.570312 -8.515625 1.128906 -12.296875 0.429688 -16.9375 C 0.09375 -19.296875 -0.210938 -22.234375 -0.488281 -25.742188 C -0.757812 -29.226562 -0.960938 -33.070312 -1.097656 -37.273438 C -1.234375 -41.476562 -1.273438 -45.851562 -1.21875 -50.402344 C -1.167969 -54.964844 -0.988281 -59.5 -0.691406 -64.011719 C -0.386719 -68.582031 0.09375 -72.914062 0.757812 -77.003906 L 1.011719 -78.578125 L 2.203125 -79.640625 C 4.164062 -81.390625 6.535156 -82.722656 9.316406 -83.640625 C 12.027344 -84.53125 14.882812 -84.914062 17.886719 -84.78125 C 21.007812 -84.644531 23.988281 -83.835938 26.824219 -82.351562 C 29.742188 -80.820312 32.214844 -78.535156 34.242188 -75.496094 C 36.25 -72.484375 37.507812 -68.636719 38.015625 -63.957031 C 38.292969 -61.507812 38.488281 -58.691406 38.597656 -55.507812 C 38.707031 -52.410156 38.785156 -49.195312 38.839844 -45.855469 C 38.894531 -42.511719 38.90625 -39.261719 38.882812 -36.101562 C 38.855469 -32.929688 38.785156 -30.0625 38.675781 -27.503906 L 34.179688 -27.695312 L 33.78125 -32.179688 C 35.714844 -32.351562 38.042969 -32.449219 40.777344 -32.476562 C 43.433594 -32.503906 46.289062 -32.492188 49.347656 -32.4375 C 52.4375 -32.382812 55.570312 -32.246094 58.742188 -32.027344 C 61.902344 -31.808594 64.929688 -31.535156 67.824219 -31.207031 L 70.191406 -30.941406 L 71.300781 -28.832031 C 73.285156 -25.058594 74.175781 -21.238281 73.972656 -17.371094 C 73.777344 -13.605469 72.746094 -10.125 70.886719 -6.9375 C 69.050781 -3.792969 66.667969 -1.214844 63.738281 0.792969 C 60.671875 2.894531 57.308594 4.046875 53.644531 4.253906 Z M 53.132812 -4.734375 C 55.125 -4.847656 56.964844 -5.480469 58.648438 -6.636719 C 60.464844 -7.882812 61.953125 -9.496094 63.105469 -11.472656 C 64.234375 -13.40625 64.859375 -15.53125 64.980469 -17.847656 C 65.097656 -20.0625 64.546875 -22.328125 63.332031 -24.636719 L 67.316406 -26.734375 L 66.808594 -22.261719 C 64.046875 -22.574219 61.152344 -22.835938 58.121094 -23.042969 C 55.101562 -23.25 52.125 -23.382812 49.1875 -23.433594 C 46.214844 -23.484375 43.441406 -23.5 40.867188 -23.472656 C 38.371094 -23.445312 36.273438 -23.359375 34.574219 -23.210938 L 29.460938 -22.757812 L 29.679688 -27.886719 C 29.785156 -30.34375 29.851562 -33.105469 29.875 -36.179688 C 29.902344 -39.261719 29.890625 -42.441406 29.835938 -45.710938 C 29.785156 -48.992188 29.703125 -52.152344 29.597656 -55.195312 C 29.496094 -58.144531 29.316406 -60.742188 29.0625 -62.992188 C 28.714844 -66.207031 27.941406 -68.710938 26.75 -70.5 C 25.574219 -72.265625 24.207031 -73.554688 22.644531 -74.375 C 20.996094 -75.238281 19.28125 -75.707031 17.492188 -75.785156 C 15.585938 -75.867188 13.800781 -75.636719 12.132812 -75.085938 C 10.539062 -74.5625 9.230469 -73.839844 8.203125 -72.921875 L 5.203125 -76.28125 L 9.648438 -75.5625 C 9.03125 -71.753906 8.578125 -67.703125 8.292969 -63.417969 C 8.007812 -59.070312 7.835938 -54.695312 7.785156 -50.292969 C 7.730469 -45.878906 7.769531 -41.636719 7.902344 -37.566406 C 8.035156 -33.5 8.230469 -29.792969 8.492188 -26.445312 C 8.75 -23.125 9.03125 -20.402344 9.335938 -18.28125 C 9.808594 -15.128906 10.6875 -12.695312 11.972656 -10.980469 C 13.28125 -9.226562 14.789062 -7.925781 16.5 -7.070312 C 18.410156 -6.113281 20.359375 -5.5 22.355469 -5.21875 C 24.628906 -4.902344 26.703125 -4.742188 28.574219 -4.742188 L 28.65625 -4.742188 L 30.976562 -4.660156 C 32.449219 -4.605469 34.402344 -4.554688 36.835938 -4.5 C 39.246094 -4.449219 41.882812 -4.4375 44.742188 -4.460938 C 47.582031 -4.488281 50.378906 -4.578125 53.132812 -4.734375 Z M 53.132812 -4.734375 "/></g></g></g><g fill="#3e428d" fill-opacity="1"><g transform="translate(298.492093, 89.039776)"><g><path d="M 44.21875 -86.148438 C 50.136719 -86.203125 55.363281 -85.523438 59.898438 -84.097656 C 64.429688 -82.679688 68.324219 -80.820312 71.589844 -78.523438 C 74.800781 -76.261719 77.480469 -73.828125 79.632812 -71.222656 C 81.71875 -68.695312 83.382812 -66.269531 84.617188 -63.949219 C 85.804688 -61.722656 86.671875 -59.875 87.222656 -58.410156 C 89.246094 -52.863281 90.445312 -47.269531 90.820312 -41.640625 C 91.203125 -35.894531 90.515625 -30.113281 88.753906 -24.308594 C 86.324219 -16.511719 82.488281 -10.164062 77.253906 -5.273438 C 72.015625 -0.378906 65.445312 3 57.542969 4.863281 C 51.3125 6.363281 45.152344 6.835938 39.054688 6.285156 C 32.863281 5.726562 26.835938 3.921875 20.976562 0.875 C 15.273438 -2.066406 10.707031 -5.921875 7.269531 -10.695312 C 3.898438 -15.386719 1.53125 -20.777344 0.167969 -26.875 C -0.691406 -30.601562 -1.195312 -34.421875 -1.339844 -38.335938 C -1.480469 -42.265625 -1.25 -46.085938 -0.640625 -49.796875 C -0.0117188 -53.625 1.03125 -57.089844 2.488281 -60.1875 C 3.882812 -63.265625 5.6875 -66.304688 7.902344 -69.308594 C 10.1875 -72.40625 12.996094 -75.21875 16.328125 -77.746094 C 19.71875 -80.320312 23.734375 -82.367188 28.378906 -83.882812 C 32.992188 -85.390625 38.289062 -86.148438 44.265625 -86.148438 Z M 44.265625 -77.140625 C 39.246094 -77.140625 34.882812 -76.535156 31.175781 -75.324219 C 27.492188 -74.121094 24.359375 -72.535156 21.773438 -70.574219 C 19.128906 -68.566406 16.921875 -66.363281 15.148438 -63.960938 C 13.308594 -61.46875 11.804688 -58.933594 10.636719 -56.355469 C 9.535156 -54.011719 8.738281 -51.339844 8.246094 -48.335938 C 7.734375 -45.21875 7.539062 -41.996094 7.660156 -38.667969 C 7.785156 -35.324219 8.214844 -32.046875 8.957031 -28.835938 C 10.050781 -23.941406 11.925781 -19.648438 14.582031 -15.957031 C 17.175781 -12.351562 20.691406 -9.40625 25.128906 -7.117188 C 29.941406 -4.613281 34.851562 -3.136719 39.867188 -2.683594 C 44.976562 -2.222656 50.179688 -2.628906 55.476562 -3.902344 C 61.824219 -5.398438 67.035156 -8.050781 71.105469 -11.855469 C 75.183594 -15.660156 78.191406 -20.683594 80.136719 -26.917969 C 81.578125 -31.679688 82.144531 -36.386719 81.835938 -41.042969 C 81.515625 -45.820312 80.5 -50.554688 78.789062 -55.25 C 78.378906 -56.347656 77.671875 -57.835938 76.667969 -59.71875 C 75.71875 -61.503906 74.390625 -63.429688 72.6875 -65.492188 C 71.050781 -67.472656 68.957031 -69.363281 66.40625 -71.160156 C 63.90625 -72.917969 60.839844 -74.367188 57.203125 -75.507812 C 53.574219 -76.644531 49.277344 -77.191406 44.308594 -77.140625 Z M 44.664062 -48.484375 C 43.582031 -48.484375 42.570312 -48.183594 41.636719 -47.574219 C 40.699219 -46.964844 39.933594 -45.984375 39.332031 -44.636719 C 38.675781 -43.152344 38.425781 -41.179688 38.589844 -38.71875 C 38.75 -36.421875 39.210938 -34.695312 39.972656 -33.542969 C 40.714844 -32.421875 41.519531 -31.65625 42.394531 -31.242188 C 43.300781 -30.8125 44.046875 -30.617188 44.640625 -30.664062 C 45.421875 -30.722656 46.253906 -31 47.136719 -31.496094 C 47.882812 -31.917969 48.574219 -32.679688 49.203125 -33.777344 C 49.886719 -34.972656 50.292969 -36.707031 50.414062 -38.980469 C 50.578125 -41.328125 50.34375 -43.214844 49.710938 -44.640625 C 49.121094 -45.972656 48.363281 -46.960938 47.433594 -47.597656 C 46.574219 -48.191406 45.652344 -48.484375 44.664062 -48.484375 Z M 44.664062 -57.492188 C 47.519531 -57.492188 50.144531 -56.667969 52.539062 -55.015625 C 54.867188 -53.414062 56.667969 -51.171875 57.945312 -48.289062 C 59.183594 -45.5 59.667969 -42.234375 59.40625 -38.5 C 59.207031 -34.796875 58.410156 -31.730469 57.015625 -29.296875 C 55.5625 -26.765625 53.746094 -24.886719 51.558594 -23.652344 C 49.507812 -22.496094 47.429688 -21.839844 45.328125 -21.683594 C 43.144531 -21.515625 40.878906 -21.992188 38.527344 -23.109375 C 36.148438 -24.242188 34.125 -26.0625 32.464844 -28.570312 C 30.828125 -31.046875 29.875 -34.230469 29.605469 -38.121094 C 29.34375 -42.0625 29.84375 -45.453125 31.105469 -48.292969 C 32.425781 -51.265625 34.300781 -53.542969 36.726562 -55.121094 C 39.152344 -56.703125 41.800781 -57.492188 44.664062 -57.492188 Z M 44.664062 -57.492188 "/></g></g></g><g clip-path="url(#67cddcc41a)"><g fill="#3e428d" fill-opacity="1"><g transform="translate(388.133146, 89.039776)"><g><path d="M 10.550781 4.953125 C 7.109375 3.921875 4.324219 2.269531 2.195312 -0.00390625 C 0.15625 -2.183594 -1.300781 -4.648438 -2.171875 -7.40625 C -3.007812 -10.046875 -3.339844 -12.714844 -3.171875 -15.410156 C -3.003906 -18.113281 -2.398438 -20.578125 -1.355469 -22.800781 C 0.0625 -25.976562 2.179688 -28.613281 4.996094 -30.707031 C 7.945312 -32.902344 11.84375 -34.0625 16.6875 -34.195312 C 21.085938 -34.265625 24.796875 -33.273438 27.820312 -31.222656 C 30.753906 -29.230469 32.953125 -26.644531 34.425781 -23.457031 C 35.808594 -20.460938 36.535156 -17.285156 36.597656 -13.9375 C 36.660156 -10.875 36.257812 -7.808594 35.390625 -4.738281 C 34.570312 -1.84375 33.503906 0.964844 32.1875 3.683594 C 30.902344 6.339844 29.511719 8.808594 28.015625 11.082031 C 26.535156 13.324219 25.105469 15.285156 23.71875 16.957031 C 21.601562 19.625 19.222656 21.476562 16.578125 22.519531 C 13.941406 23.558594 11.402344 23.902344 8.957031 23.546875 C 6.425781 23.179688 4.292969 22.234375 2.558594 20.71875 C 0.464844 18.886719 -0.582031 16.652344 -0.582031 14.007812 L -0.582031 12.925781 L -0.0898438 11.960938 C 1.277344 9.289062 2.730469 6.8125 4.273438 4.523438 C 5.621094 2.527344 6.816406 0.535156 7.859375 -1.453125 L 11.847656 0.640625 Z M 13.140625 -3.671875 L 18.371094 -2.101562 L 15.832031 2.734375 C 14.636719 5.015625 13.269531 7.292969 11.738281 9.5625 C 10.398438 11.546875 9.128906 13.710938 7.933594 16.054688 L 3.921875 14.007812 L 8.425781 14.007812 C 8.425781 13.960938 8.410156 13.90625 8.378906 13.84375 C 8.371094 13.828125 8.367188 13.820312 8.367188 13.816406 C 8.390625 13.851562 8.433594 13.890625 8.488281 13.941406 C 8.886719 14.289062 9.476562 14.523438 10.253906 14.632812 C 11.117188 14.761719 12.125 14.59375 13.277344 14.140625 C 14.421875 13.6875 15.589844 12.714844 16.78125 11.21875 C 17.957031 9.796875 19.195312 8.101562 20.492188 6.128906 C 21.769531 4.1875 22.96875 2.0625 24.082031 -0.242188 C 25.167969 -2.484375 26.046875 -4.800781 26.722656 -7.1875 C 27.347656 -9.398438 27.640625 -11.589844 27.59375 -13.757812 C 27.554688 -15.851562 27.105469 -17.828125 26.25 -19.683594 C 25.476562 -21.355469 24.316406 -22.714844 22.765625 -23.769531 C 21.308594 -24.757812 19.363281 -25.234375 16.933594 -25.195312 C 13.984375 -25.113281 11.796875 -24.542969 10.371094 -23.480469 C 8.8125 -22.324219 7.621094 -20.820312 6.796875 -18.980469 C 6.242188 -17.789062 5.914062 -16.410156 5.816406 -14.847656 C 5.714844 -13.273438 5.914062 -11.695312 6.414062 -10.125 C 6.875 -8.664062 7.660156 -7.34375 8.769531 -6.160156 C 9.789062 -5.070312 11.246094 -4.242188 13.140625 -3.671875 Z M 13.140625 -3.671875 "/></g></g></g></g><g fill="#3e428d" fill-opacity="1"><g transform="translate(421.428394, 89.039776)"><g/></g></g><g fill="#3e428d" fill-opacity="1"><g transform="translate(461.766851, 89.039776)"><g><path d="M -3.214844 -25.054688 C -2.558594 -28.34375 -1.695312 -32.019531 -0.632812 -36.078125 C 0.425781 -40.121094 1.617188 -44.269531 2.945312 -48.527344 C 4.265625 -52.761719 5.617188 -56.859375 6.992188 -60.828125 C 8.375 -64.816406 9.734375 -68.472656 11.070312 -71.796875 C 12.429688 -75.179688 13.648438 -77.921875 14.726562 -80.019531 L 15.554688 -81.636719 L 17.273438 -82.222656 C 19.636719 -83.03125 22.425781 -83.769531 25.648438 -84.449219 C 28.960938 -85.148438 32.460938 -85.539062 36.152344 -85.625 C 40.027344 -85.714844 43.863281 -85.21875 47.664062 -84.132812 C 51.664062 -82.988281 55.332031 -80.972656 58.660156 -78.082031 C 62.027344 -75.15625 64.753906 -71.152344 66.839844 -66.0625 C 67.734375 -63.824219 68.757812 -61 69.902344 -57.585938 C 71.039062 -54.207031 72.226562 -50.46875 73.46875 -46.367188 C 74.707031 -42.273438 75.917969 -38.058594 77.101562 -33.726562 C 78.289062 -29.386719 79.378906 -25.15625 80.378906 -21.027344 C 81.386719 -16.851562 82.195312 -13.035156 82.796875 -9.578125 L 82.910156 -8.945312 L 82.835938 -8.308594 C 82.566406 -5.867188 81.417969 -3.578125 79.394531 -1.433594 C 77.679688 0.386719 75.542969 1.910156 72.988281 3.136719 C 70.507812 4.332031 67.84375 5.121094 64.996094 5.503906 C 61.984375 5.910156 59 5.675781 56.035156 4.796875 C 52.902344 3.871094 50.109375 2.097656 47.65625 -0.527344 C 45.277344 -3.074219 43.453125 -6.503906 42.183594 -10.816406 L 46.503906 -12.085938 L 46.3125 -7.589844 C 43.898438 -7.691406 41.378906 -7.714844 38.75 -7.664062 C 35.96875 -7.609375 33.265625 -7.609375 30.644531 -7.664062 L 30.738281 -12.167969 L 34.890625 -10.425781 C 34.25 -8.902344 33.644531 -7.222656 33.074219 -5.386719 C 32.472656 -3.449219 31.882812 -1.460938 31.308594 0.582031 L 30.6875 2.789062 L 28.535156 3.582031 C 22.917969 5.660156 17.921875 6.390625 13.542969 5.78125 C 8.890625 5.128906 5.097656 3.285156 2.164062 0.246094 C -0.667969 -2.6875 -2.527344 -6.429688 -3.417969 -10.980469 C -4.25 -15.230469 -4.183594 -19.902344 -3.222656 -25.007812 Z M 5.625 -23.339844 C 4.878906 -19.371094 4.808594 -15.828125 5.417969 -12.710938 C 5.96875 -9.898438 7.042969 -7.664062 8.644531 -6.007812 C 10.136719 -4.457031 12.1875 -3.503906 14.789062 -3.136719 C 17.671875 -2.734375 21.210938 -3.3125 25.414062 -4.863281 L 26.976562 -0.640625 L 22.640625 -1.863281 C 23.238281 -3.980469 23.851562 -6.046875 24.476562 -8.058594 C 25.132812 -10.171875 25.835938 -12.121094 26.585938 -13.90625 L 27.769531 -16.730469 L 30.832031 -16.667969 C 33.332031 -16.617188 35.910156 -16.617188 38.574219 -16.667969 C 41.386719 -16.722656 44.09375 -16.695312 46.695312 -16.585938 L 49.914062 -16.449219 L 50.824219 -13.355469 C 51.691406 -10.410156 52.828125 -8.183594 54.238281 -6.675781 C 55.574219 -5.246094 57.023438 -4.300781 58.585938 -3.835938 C 60.320312 -3.324219 62.054688 -3.1875 63.792969 -3.421875 C 65.695312 -3.679688 67.460938 -4.199219 69.089844 -4.980469 C 70.640625 -5.726562 71.894531 -6.601562 72.847656 -7.613281 C 73.492188 -8.296875 73.839844 -8.859375 73.886719 -9.300781 L 78.363281 -8.804688 L 73.925781 -8.03125 C 73.355469 -11.296875 72.589844 -14.925781 71.625 -18.914062 C 70.648438 -22.953125 69.578125 -27.097656 68.417969 -31.351562 C 67.253906 -35.605469 66.0625 -39.742188 64.847656 -43.761719 C 63.632812 -47.773438 62.472656 -51.425781 61.367188 -54.714844 C 60.273438 -57.972656 59.320312 -60.613281 58.507812 -62.648438 C 56.964844 -66.417969 55.046875 -69.292969 52.757812 -71.28125 C 50.433594 -73.296875 47.910156 -74.695312 45.1875 -75.472656 C 42.265625 -76.308594 39.324219 -76.691406 36.363281 -76.621094 C 33.226562 -76.550781 30.273438 -76.21875 27.503906 -75.636719 C 24.640625 -75.035156 22.199219 -74.390625 20.183594 -73.699219 L 18.730469 -77.960938 L 22.734375 -75.90625 C 21.785156 -74.054688 20.683594 -71.566406 19.425781 -68.441406 C 18.144531 -65.25 16.835938 -61.730469 15.5 -57.875 C 14.15625 -54 12.835938 -49.988281 11.542969 -45.84375 C 10.253906 -41.722656 9.101562 -37.707031 8.078125 -33.796875 C 7.058594 -29.910156 6.238281 -26.40625 5.617188 -23.289062 Z M 33.859375 -39.5625 L 43.703125 -39.5625 L 43.703125 -35.058594 L 39.316406 -34.050781 C 38.574219 -37.277344 37.808594 -40.460938 37.015625 -43.605469 C 36.210938 -46.804688 35.429688 -50.019531 34.675781 -53.246094 L 39.0625 -54.269531 L 40.484375 -49.996094 C 39.863281 -49.789062 39.148438 -49.6875 38.339844 -49.6875 L 38.339844 -54.1875 L 42.738281 -53.21875 C 42.035156 -50.035156 41.292969 -46.851562 40.511719 -43.667969 C 39.746094 -40.546875 38.992188 -37.347656 38.25 -34.066406 L 33.859375 -35.058594 Z M 33.859375 -30.554688 L 28.226562 -30.554688 L 29.464844 -36.050781 C 30.21875 -39.386719 30.988281 -42.644531 31.765625 -45.820312 C 32.53125 -48.933594 33.257812 -52.046875 33.945312 -55.160156 L 34.722656 -58.691406 L 38.339844 -58.691406 C 38.171875 -58.691406 37.9375 -58.640625 37.636719 -58.539062 L 42.324219 -60.101562 L 43.445312 -55.292969 C 44.1875 -52.117188 44.953125 -48.953125 45.75 -45.804688 C 46.558594 -42.597656 47.339844 -39.351562 48.09375 -36.066406 L 49.355469 -30.554688 Z M 33.859375 -30.554688 "/></g></g></g><g fill="#3e428d" fill-opacity="1"><g transform="translate(541.243261, 89.039776)"><g><path d="M 75.539062 -82.613281 C 76.75 -81.023438 77.714844 -78.902344 78.429688 -76.25 C 79.101562 -73.753906 79.40625 -71.078125 79.34375 -68.21875 C 79.277344 -65.207031 78.648438 -62.316406 77.457031 -59.539062 C 76.175781 -56.546875 74.148438 -54.03125 71.382812 -52 C 68.558594 -49.929688 64.921875 -48.761719 60.460938 -48.492188 C 59.082031 -48.441406 57.957031 -48.375 57.09375 -48.300781 C 56.035156 -48.210938 55.332031 -48.164062 54.988281 -48.164062 L 54.988281 -52.667969 L 59.488281 -52.828125 C 59.597656 -49.796875 59.664062 -46.472656 59.691406 -42.855469 C 59.71875 -39.25 59.707031 -35.535156 59.652344 -31.714844 C 59.597656 -27.878906 59.488281 -24.140625 59.328125 -20.492188 C 59.167969 -16.855469 58.976562 -13.457031 58.761719 -10.296875 C 58.539062 -7.0625 58.261719 -4.292969 57.925781 -1.988281 L 57.726562 -0.652344 L 56.828125 0.355469 C 54.941406 2.472656 52.574219 3.972656 49.726562 4.859375 C 47.050781 5.695312 44.226562 5.921875 41.257812 5.546875 C 38.285156 5.171875 35.425781 4.128906 32.679688 2.421875 C 29.957031 0.730469 27.578125 -1.605469 25.539062 -4.578125 C 23.5 -7.558594 22.078125 -11.226562 21.265625 -15.585938 C 21.019531 -16.875 20.8125 -18.855469 20.640625 -21.523438 C 20.476562 -24.039062 20.328125 -26.984375 20.195312 -30.355469 C 20.058594 -33.730469 19.964844 -37.34375 19.910156 -41.199219 C 19.855469 -45.054688 19.855469 -48.925781 19.910156 -52.8125 L 24.414062 -52.75 L 24.773438 -48.261719 C 21.96875 -48.035156 19.089844 -47.9375 16.125 -47.964844 C 13.007812 -47.996094 10 -48.304688 7.105469 -48.898438 L 5.445312 -49.234375 L 4.417969 -50.585938 C 3.011719 -52.433594 1.996094 -54.730469 1.371094 -57.472656 C 0.785156 -60.042969 0.621094 -62.742188 0.878906 -65.5625 C 1.140625 -68.445312 1.894531 -71.191406 3.136719 -73.8125 C 4.484375 -76.644531 6.460938 -78.996094 9.066406 -80.863281 C 11.730469 -82.769531 15.007812 -83.863281 18.894531 -84.132812 C 20.691406 -84.246094 23.023438 -84.332031 25.886719 -84.386719 C 28.71875 -84.4375 31.867188 -84.464844 35.339844 -84.464844 L 45.945312 -84.464844 L 56.488281 -84.425781 L 65.65625 -84.386719 L 74.1875 -84.386719 Z M 68.378906 -77.15625 L 71.957031 -79.882812 L 71.957031 -75.378906 L 65.617188 -75.378906 L 56.453125 -75.421875 L 45.945312 -75.460938 L 35.339844 -75.460938 C 31.925781 -75.460938 28.832031 -75.433594 26.058594 -75.382812 C 23.324219 -75.328125 21.144531 -75.253906 19.527344 -75.152344 C 17.332031 -74.996094 15.59375 -74.460938 14.308594 -73.542969 C 12.964844 -72.578125 11.953125 -71.378906 11.269531 -69.945312 C 10.488281 -68.296875 10.011719 -66.5625 9.847656 -64.746094 C 9.675781 -62.875 9.777344 -61.117188 10.152344 -59.472656 C 10.488281 -57.996094 10.96875 -56.851562 11.589844 -56.035156 L 8.003906 -53.308594 L 8.90625 -57.71875 C 11.238281 -57.246094 13.671875 -56.996094 16.210938 -56.972656 C 18.90625 -56.945312 21.519531 -57.035156 24.054688 -57.238281 L 28.984375 -57.632812 L 28.914062 -52.6875 C 28.863281 -48.886719 28.863281 -45.097656 28.914062 -41.324219 C 28.96875 -37.550781 29.0625 -34.011719 29.191406 -30.714844 C 29.324219 -27.417969 29.46875 -24.546875 29.625 -22.101562 C 29.773438 -19.804688 29.941406 -18.183594 30.121094 -17.230469 C 30.699219 -14.121094 31.648438 -11.597656 32.972656 -9.667969 C 34.296875 -7.734375 35.785156 -6.253906 37.4375 -5.222656 C 39.066406 -4.210938 40.71875 -3.597656 42.386719 -3.386719 C 44.0625 -3.175781 45.613281 -3.292969 47.046875 -3.738281 C 48.308594 -4.132812 49.328125 -4.765625 50.109375 -5.640625 L 53.46875 -2.640625 L 49.015625 -3.292969 C 49.316406 -5.367188 49.570312 -7.90625 49.777344 -10.914062 C 49.988281 -14 50.171875 -17.324219 50.332031 -20.890625 C 50.488281 -24.449219 50.59375 -28.097656 50.648438 -31.839844 C 50.699219 -35.597656 50.714844 -39.246094 50.6875 -42.789062 C 50.660156 -46.324219 50.59375 -49.5625 50.488281 -52.507812 L 50.324219 -57.171875 L 54.988281 -57.171875 C 55.074219 -57.171875 55.519531 -57.207031 56.328125 -57.273438 C 57.332031 -57.359375 58.53125 -57.429688 59.925781 -57.484375 C 62.617188 -57.644531 64.660156 -58.234375 66.050781 -59.257812 C 67.5 -60.324219 68.542969 -61.597656 69.179688 -63.085938 C 69.914062 -64.792969 70.296875 -66.570312 70.339844 -68.414062 C 70.382812 -70.414062 70.179688 -72.246094 69.730469 -73.910156 C 69.324219 -75.421875 68.875 -76.503906 68.378906 -77.15625 Z M 68.378906 -77.15625 "/></g></g></g><g fill="#3e428d" fill-opacity="1"><g transform="translate(619.919251, 89.039776)"><g><path d="M 53.644531 4.253906 C 50.746094 4.417969 47.804688 4.515625 44.824219 4.542969 C 41.871094 4.570312 39.144531 4.554688 36.640625 4.5 C 34.167969 4.449219 32.171875 4.394531 30.65625 4.339844 L 28.414062 4.257812 L 28.574219 -0.238281 L 28.574219 4.261719 C 26.285156 4.261719 23.796875 4.074219 21.109375 3.699219 C 18.140625 3.285156 15.261719 2.378906 12.472656 0.984375 C 9.488281 -0.507812 6.917969 -2.699219 4.757812 -5.589844 C 2.570312 -8.515625 1.128906 -12.296875 0.429688 -16.9375 C 0.09375 -19.296875 -0.210938 -22.234375 -0.488281 -25.742188 C -0.757812 -29.226562 -0.960938 -33.070312 -1.097656 -37.273438 C -1.234375 -41.476562 -1.273438 -45.851562 -1.21875 -50.402344 C -1.167969 -54.964844 -0.988281 -59.5 -0.691406 -64.011719 C -0.386719 -68.582031 0.09375 -72.914062 0.757812 -77.003906 L 1.011719 -78.578125 L 2.203125 -79.640625 C 4.164062 -81.390625 6.535156 -82.722656 9.316406 -83.640625 C 12.027344 -84.53125 14.882812 -84.914062 17.886719 -84.78125 C 21.007812 -84.644531 23.988281 -83.835938 26.824219 -82.351562 C 29.742188 -80.820312 32.214844 -78.535156 34.242188 -75.496094 C 36.25 -72.484375 37.507812 -68.636719 38.015625 -63.957031 C 38.292969 -61.507812 38.488281 -58.691406 38.597656 -55.507812 C 38.707031 -52.410156 38.785156 -49.195312 38.839844 -45.855469 C 38.894531 -42.511719 38.90625 -39.261719 38.882812 -36.101562 C 38.855469 -32.929688 38.785156 -30.0625 38.675781 -27.503906 L 34.179688 -27.695312 L 33.78125 -32.179688 C 35.714844 -32.351562 38.042969 -32.449219 40.777344 -32.476562 C 43.433594 -32.503906 46.289062 -32.492188 49.347656 -32.4375 C 52.4375 -32.382812 55.570312 -32.246094 58.742188 -32.027344 C 61.902344 -31.808594 64.929688 -31.535156 67.824219 -31.207031 L 70.191406 -30.941406 L 71.300781 -28.832031 C 73.285156 -25.058594 74.175781 -21.238281 73.972656 -17.371094 C 73.777344 -13.605469 72.746094 -10.125 70.886719 -6.9375 C 69.050781 -3.792969 66.667969 -1.214844 63.738281 0.792969 C 60.671875 2.894531 57.308594 4.046875 53.644531 4.253906 Z M 53.132812 -4.734375 C 55.125 -4.847656 56.964844 -5.480469 58.648438 -6.636719 C 60.464844 -7.882812 61.953125 -9.496094 63.105469 -11.472656 C 64.234375 -13.40625 64.859375 -15.53125 64.980469 -17.847656 C 65.097656 -20.0625 64.546875 -22.328125 63.332031 -24.636719 L 67.316406 -26.734375 L 66.808594 -22.261719 C 64.046875 -22.574219 61.152344 -22.835938 58.121094 -23.042969 C 55.101562 -23.25 52.125 -23.382812 49.1875 -23.433594 C 46.214844 -23.484375 43.441406 -23.5 40.867188 -23.472656 C 38.371094 -23.445312 36.273438 -23.359375 34.574219 -23.210938 L 29.460938 -22.757812 L 29.679688 -27.886719 C 29.785156 -30.34375 29.851562 -33.105469 29.875 -36.179688 C 29.902344 -39.261719 29.890625 -42.441406 29.835938 -45.710938 C 29.785156 -48.992188 29.703125 -52.152344 29.597656 -55.195312 C 29.496094 -58.144531 29.316406 -60.742188 29.0625 -62.992188 C 28.714844 -66.207031 27.941406 -68.710938 26.75 -70.5 C 25.574219 -72.265625 24.207031 -73.554688 22.644531 -74.375 C 20.996094 -75.238281 19.28125 -75.707031 17.492188 -75.785156 C 15.585938 -75.867188 13.800781 -75.636719 12.132812 -75.085938 C 10.539062 -74.5625 9.230469 -73.839844 8.203125 -72.921875 L 5.203125 -76.28125 L 9.648438 -75.5625 C 9.03125 -71.753906 8.578125 -67.703125 8.292969 -63.417969 C 8.007812 -59.070312 7.835938 -54.695312 7.785156 -50.292969 C 7.730469 -45.878906 7.769531 -41.636719 7.902344 -37.566406 C 8.035156 -33.5 8.230469 -29.792969 8.492188 -26.445312 C 8.75 -23.125 9.03125 -20.402344 9.335938 -18.28125 C 9.808594 -15.128906 10.6875 -12.695312 11.972656 -10.980469 C 13.28125 -9.226562 14.789062 -7.925781 16.5 -7.070312 C 18.410156 -6.113281 20.359375 -5.5 22.355469 -5.21875 C 24.628906 -4.902344 26.703125 -4.742188 28.574219 -4.742188 L 28.65625 -4.742188 L 30.976562 -4.660156 C 32.449219 -4.605469 34.402344 -4.554688 36.835938 -4.5 C 39.246094 -4.449219 41.882812 -4.4375 44.742188 -4.460938 C 47.582031 -4.488281 50.378906 -4.578125 53.132812 -4.734375 Z M 53.132812 -4.734375 "/></g></g></g><g fill="#3e428d" fill-opacity="1"><g transform="translate(692.352426, 89.039776)"><g><path d="M -3.214844 -25.054688 C -2.558594 -28.34375 -1.695312 -32.019531 -0.632812 -36.078125 C 0.425781 -40.121094 1.617188 -44.269531 2.945312 -48.527344 C 4.265625 -52.761719 5.617188 -56.859375 6.992188 -60.828125 C 8.375 -64.816406 9.734375 -68.472656 11.070312 -71.796875 C 12.429688 -75.179688 13.648438 -77.921875 14.726562 -80.019531 L 15.554688 -81.636719 L 17.273438 -82.222656 C 19.636719 -83.03125 22.425781 -83.769531 25.648438 -84.449219 C 28.960938 -85.148438 32.460938 -85.539062 36.152344 -85.625 C 40.027344 -85.714844 43.863281 -85.21875 47.664062 -84.132812 C 51.664062 -82.988281 55.332031 -80.972656 58.660156 -78.082031 C 62.027344 -75.15625 64.753906 -71.152344 66.839844 -66.0625 C 67.734375 -63.824219 68.757812 -61 69.902344 -57.585938 C 71.039062 -54.207031 72.226562 -50.46875 73.46875 -46.367188 C 74.707031 -42.273438 75.917969 -38.058594 77.101562 -33.726562 C 78.289062 -29.386719 79.378906 -25.15625 80.378906 -21.027344 C 81.386719 -16.851562 82.195312 -13.035156 82.796875 -9.578125 L 82.910156 -8.945312 L 82.835938 -8.308594 C 82.566406 -5.867188 81.417969 -3.578125 79.394531 -1.433594 C 77.679688 0.386719 75.542969 1.910156 72.988281 3.136719 C 70.507812 4.332031 67.84375 5.121094 64.996094 5.503906 C 61.984375 5.910156 59 5.675781 56.035156 4.796875 C 52.902344 3.871094 50.109375 2.097656 47.65625 -0.527344 C 45.277344 -3.074219 43.453125 -6.503906 42.183594 -10.816406 L 46.503906 -12.085938 L 46.3125 -7.589844 C 43.898438 -7.691406 41.378906 -7.714844 38.75 -7.664062 C 35.96875 -7.609375 33.265625 -7.609375 30.644531 -7.664062 L 30.738281 -12.167969 L 34.890625 -10.425781 C 34.25 -8.902344 33.644531 -7.222656 33.074219 -5.386719 C 32.472656 -3.449219 31.882812 -1.460938 31.308594 0.582031 L 30.6875 2.789062 L 28.535156 3.582031 C 22.917969 5.660156 17.921875 6.390625 13.542969 5.78125 C 8.890625 5.128906 5.097656 3.285156 2.164062 0.246094 C -0.667969 -2.6875 -2.527344 -6.429688 -3.417969 -10.980469 C -4.25 -15.230469 -4.183594 -19.902344 -3.222656 -25.007812 Z M 5.625 -23.339844 C 4.878906 -19.371094 4.808594 -15.828125 5.417969 -12.710938 C 5.96875 -9.898438 7.042969 -7.664062 8.644531 -6.007812 C 10.136719 -4.457031 12.1875 -3.503906 14.789062 -3.136719 C 17.671875 -2.734375 21.210938 -3.3125 25.414062 -4.863281 L 26.976562 -0.640625 L 22.640625 -1.863281 C 23.238281 -3.980469 23.851562 -6.046875 24.476562 -8.058594 C 25.132812 -10.171875 25.835938 -12.121094 26.585938 -13.90625 L 27.769531 -16.730469 L 30.832031 -16.667969 C 33.332031 -16.617188 35.910156 -16.617188 38.574219 -16.667969 C 41.386719 -16.722656 44.09375 -16.695312 46.695312 -16.585938 L 49.914062 -16.449219 L 50.824219 -13.355469 C 51.691406 -10.410156 52.828125 -8.183594 54.238281 -6.675781 C 55.574219 -5.246094 57.023438 -4.300781 58.585938 -3.835938 C 60.320312 -3.324219 62.054688 -3.1875 63.792969 -3.421875 C 65.695312 -3.679688 67.460938 -4.199219 69.089844 -4.980469 C 70.640625 -5.726562 71.894531 -6.601562 72.847656 -7.613281 C 73.492188 -8.296875 73.839844 -8.859375 73.886719 -9.300781 L 78.363281 -8.804688 L 73.925781 -8.03125 C 73.355469 -11.296875 72.589844 -14.925781 71.625 -18.914062 C 70.648438 -22.953125 69.578125 -27.097656 68.417969 -31.351562 C 67.253906 -35.605469 66.0625 -39.742188 64.847656 -43.761719 C 63.632812 -47.773438 62.472656 -51.425781 61.367188 -54.714844 C 60.273438 -57.972656 59.320312 -60.613281 58.507812 -62.648438 C 56.964844 -66.417969 55.046875 -69.292969 52.757812 -71.28125 C 50.433594 -73.296875 47.910156 -74.695312 45.1875 -75.472656 C 42.265625 -76.308594 39.324219 -76.691406 36.363281 -76.621094 C 33.226562 -76.550781 30.273438 -76.21875 27.503906 -75.636719 C 24.640625 -75.035156 22.199219 -74.390625 20.183594 -73.699219 L 18.730469 -77.960938 L 22.734375 -75.90625 C 21.785156 -74.054688 20.683594 -71.566406 19.425781 -68.441406 C 18.144531 -65.25 16.835938 -61.730469 15.5 -57.875 C 14.15625 -54 12.835938 -49.988281 11.542969 -45.84375 C 10.253906 -41.722656 9.101562 -37.707031 8.078125 -33.796875 C 7.058594 -29.910156 6.238281 -26.40625 5.617188 -23.289062 Z M 33.859375 -39.5625 L 43.703125 -39.5625 L 43.703125 -35.058594 L 39.316406 -34.050781 C 38.574219 -37.277344 37.808594 -40.460938 37.015625 -43.605469 C 36.210938 -46.804688 35.429688 -50.019531 34.675781 -53.246094 L 39.0625 -54.269531 L 40.484375 -49.996094 C 39.863281 -49.789062 39.148438 -49.6875 38.339844 -49.6875 L 38.339844 -54.1875 L 42.738281 -53.21875 C 42.035156 -50.035156 41.292969 -46.851562 40.511719 -43.667969 C 39.746094 -40.546875 38.992188 -37.347656 38.25 -34.066406 L 33.859375 -35.058594 Z M 33.859375 -30.554688 L 28.226562 -30.554688 L 29.464844 -36.050781 C 30.21875 -39.386719 30.988281 -42.644531 31.765625 -45.820312 C 32.53125 -48.933594 33.257812 -52.046875 33.945312 -55.160156 L 34.722656 -58.691406 L 38.339844 -58.691406 C 38.171875 -58.691406 37.9375 -58.640625 37.636719 -58.539062 L 42.324219 -60.101562 L 43.445312 -55.292969 C 44.1875 -52.117188 44.953125 -48.953125 45.75 -45.804688 C 46.558594 -42.597656 47.339844 -39.351562 48.09375 -36.066406 L 49.355469 -30.554688 Z M 33.859375 -30.554688 "/></g></g></g><g fill="#3e428d" fill-opacity="1"><g transform="translate(771.828837, 89.039776)"><g><path d="M 60.800781 -48.894531 C 65.488281 -45.996094 68.992188 -42.570312 71.316406 -38.625 C 73.644531 -34.671875 74.902344 -30.535156 75.097656 -26.214844 C 75.285156 -22.03125 74.65625 -18 73.21875 -14.121094 C 71.789062 -10.261719 69.710938 -6.851562 66.996094 -3.882812 C 64.222656 -0.851562 61.03125 1.402344 57.421875 2.882812 C 54.992188 3.855469 52.085938 4.664062 48.703125 5.304688 C 45.386719 5.933594 41.800781 6.320312 37.945312 6.460938 C 34.0625 6.601562 30.089844 6.40625 26.019531 5.863281 C 21.867188 5.3125 17.855469 4.308594 13.984375 2.855469 C 9.976562 1.347656 6.339844 -0.734375 3.078125 -3.394531 L 2.6875 -3.710938 L 2.378906 -4.105469 C 0.320312 -6.730469 -0.90625 -9.601562 -1.304688 -12.714844 C -1.6875 -15.71875 -1.386719 -18.613281 -0.402344 -21.394531 C 0.589844 -24.195312 2.140625 -26.578125 4.253906 -28.546875 C 6.5 -30.640625 9.167969 -31.933594 12.261719 -32.421875 C 15.386719 -32.917969 18.683594 -32.316406 22.152344 -30.617188 C 25.59375 -28.921875 28.800781 -27.777344 31.773438 -27.1875 C 34.511719 -26.644531 36.6875 -26.558594 38.308594 -26.925781 C 38.765625 -27.027344 39.058594 -27.132812 39.191406 -27.234375 C 39.074219 -27.144531 38.996094 -27.015625 38.953125 -26.855469 C 38.96875 -26.914062 38.976562 -26.953125 38.976562 -26.96875 C 38.976562 -26.910156 38.984375 -26.839844 39.003906 -26.761719 C 39.046875 -26.601562 39.097656 -26.492188 39.15625 -26.433594 C 39.175781 -26.417969 39.1875 -26.410156 39.195312 -26.402344 C 39.175781 -26.417969 39.148438 -26.433594 39.113281 -26.449219 C 38.972656 -26.527344 38.78125 -26.605469 38.542969 -26.679688 C 37.847656 -26.894531 36.925781 -27.042969 35.777344 -27.125 C 32.230469 -27.417969 28.703125 -28.023438 25.191406 -28.941406 C 21.546875 -29.898438 18.140625 -31.289062 14.964844 -33.117188 C 11.589844 -35.058594 8.742188 -37.601562 6.421875 -40.75 C 4.050781 -43.964844 2.484375 -47.792969 1.726562 -52.226562 C 1.445312 -53.972656 1.417969 -56.011719 1.640625 -58.339844 C 1.863281 -60.65625 2.421875 -63.082031 3.320312 -65.617188 C 4.242188 -68.226562 5.621094 -70.777344 7.460938 -73.269531 C 9.34375 -75.824219 11.808594 -78.125 14.855469 -80.175781 C 17.890625 -82.21875 21.574219 -83.8125 25.90625 -84.957031 C 28.835938 -85.777344 31.953125 -86.292969 35.257812 -86.5 C 38.476562 -86.699219 41.679688 -86.65625 44.867188 -86.367188 C 48.121094 -86.074219 51.167969 -85.515625 54.007812 -84.6875 C 57 -83.8125 59.539062 -82.695312 61.621094 -81.328125 C 64.996094 -79.054688 67.472656 -76.566406 69.046875 -73.863281 C 70.691406 -71.039062 71.496094 -68.183594 71.457031 -65.296875 C 71.421875 -62.507812 70.75 -59.894531 69.441406 -57.460938 C 68.195312 -55.140625 66.566406 -53.164062 64.546875 -51.53125 C 62.460938 -49.839844 60.140625 -48.703125 57.59375 -48.117188 L 54.867188 -47.496094 L 53.101562 -49.664062 C 52.328125 -50.609375 51.199219 -51.460938 49.714844 -52.214844 C 47.976562 -53.09375 46.097656 -53.769531 44.070312 -54.25 C 42.054688 -54.726562 40.164062 -54.953125 38.398438 -54.929688 C 36.9375 -54.910156 35.832031 -54.71875 35.078125 -54.347656 C 35.054688 -54.335938 35.039062 -54.328125 35.023438 -54.320312 C 35.03125 -54.324219 35.039062 -54.332031 35.054688 -54.339844 C 35.125 -54.398438 35.191406 -54.472656 35.257812 -54.566406 C 35.394531 -54.769531 35.46875 -54.960938 35.476562 -55.136719 L 30.976562 -55.308594 L 35.480469 -55.308594 C 35.480469 -55.628906 35.398438 -55.9375 35.238281 -56.242188 C 35.109375 -56.484375 34.964844 -56.667969 34.800781 -56.789062 C 34.726562 -56.84375 34.675781 -56.878906 34.648438 -56.890625 C 34.722656 -56.855469 34.835938 -56.816406 34.984375 -56.773438 C 35.449219 -56.636719 36.070312 -56.515625 36.847656 -56.414062 C 43.074219 -55.621094 48.230469 -54.421875 52.3125 -52.816406 C 56.3125 -51.246094 59.152344 -49.933594 60.832031 -48.875 Z M 56.03125 -41.253906 C 54.832031 -42.011719 52.492188 -43.070312 49.019531 -44.433594 C 45.632812 -45.765625 41.183594 -46.78125 35.671875 -47.484375 C 32.863281 -47.851562 30.773438 -48.554688 29.394531 -49.585938 C 28.484375 -50.269531 27.777344 -51.085938 27.277344 -52.035156 C 26.742188 -53.046875 26.472656 -54.140625 26.472656 -55.308594 L 26.472656 -55.398438 L 26.476562 -55.484375 C 26.539062 -57.046875 26.992188 -58.441406 27.839844 -59.675781 C 28.636719 -60.835938 29.730469 -61.753906 31.117188 -62.433594 C 33.085938 -63.398438 35.472656 -63.898438 38.285156 -63.933594 C 40.789062 -63.964844 43.40625 -63.660156 46.136719 -63.015625 C 48.859375 -62.371094 51.410156 -61.449219 53.78125 -60.246094 C 56.40625 -58.917969 58.503906 -57.289062 60.082031 -55.351562 L 56.589844 -52.507812 L 55.585938 -56.898438 C 56.777344 -57.167969 57.871094 -57.710938 58.878906 -58.527344 C 59.957031 -59.402344 60.835938 -60.46875 61.507812 -61.722656 C 62.121094 -62.863281 62.4375 -64.09375 62.453125 -65.414062 C 62.46875 -66.636719 62.074219 -67.945312 61.265625 -69.332031 C 60.382812 -70.847656 58.855469 -72.332031 56.679688 -73.796875 C 55.347656 -74.671875 53.617188 -75.417969 51.488281 -76.039062 C 49.207031 -76.707031 46.730469 -77.160156 44.058594 -77.398438 C 41.328125 -77.644531 38.578125 -77.683594 35.820312 -77.511719 C 33.148438 -77.34375 30.609375 -76.921875 28.203125 -76.25 C 24.851562 -75.367188 22.078125 -74.183594 19.882812 -72.707031 C 17.699219 -71.234375 15.976562 -69.640625 14.710938 -67.925781 C 13.402344 -66.152344 12.433594 -64.378906 11.808594 -62.613281 C 11.160156 -60.773438 10.757812 -59.0625 10.605469 -57.480469 C 10.457031 -55.914062 10.453125 -54.671875 10.601562 -53.75 C 11.121094 -50.714844 12.144531 -48.164062 13.667969 -46.097656 C 15.242188 -43.960938 17.171875 -42.238281 19.457031 -40.921875 C 21.9375 -39.496094 24.609375 -38.40625 27.476562 -37.652344 C 30.476562 -36.867188 33.457031 -36.351562 36.421875 -36.109375 C 40.484375 -35.816406 43.464844 -34.765625 45.367188 -32.957031 C 46.546875 -31.832031 47.332031 -30.523438 47.722656 -29.027344 C 48.09375 -27.597656 48.070312 -26.097656 47.652344 -24.535156 C 47.183594 -22.769531 46.222656 -21.316406 44.773438 -20.167969 C 43.574219 -19.21875 42.078125 -18.542969 40.292969 -18.140625 C 37.433594 -17.492188 34.007812 -17.566406 30.019531 -18.355469 C 26.269531 -19.101562 22.328125 -20.492188 18.191406 -22.53125 C 16.429688 -23.394531 14.921875 -23.726562 13.671875 -23.527344 C 12.390625 -23.324219 11.296875 -22.800781 10.394531 -21.960938 C 9.355469 -20.992188 8.585938 -19.800781 8.085938 -18.386719 C 7.578125 -16.953125 7.425781 -15.445312 7.628906 -13.859375 C 7.816406 -12.382812 8.429688 -10.984375 9.46875 -9.660156 L 5.921875 -6.882812 L 8.765625 -10.375 C 11.269531 -8.335938 14.0625 -6.738281 17.152344 -5.574219 C 20.378906 -4.363281 23.730469 -3.523438 27.207031 -3.0625 C 30.769531 -2.589844 34.242188 -2.414062 37.613281 -2.539062 C 41.015625 -2.664062 44.15625 -3 47.027344 -3.542969 C 49.835938 -4.074219 52.160156 -4.710938 54 -5.445312 C 56.367188 -6.417969 58.484375 -7.925781 60.355469 -9.964844 C 62.277344 -12.066406 63.753906 -14.496094 64.777344 -17.253906 C 65.792969 -19.992188 66.234375 -22.84375 66.101562 -25.8125 C 65.972656 -28.640625 65.125 -31.390625 63.554688 -34.054688 C 61.984375 -36.722656 59.488281 -39.117188 56.0625 -41.234375 Z M 56.03125 -41.253906 "/></g></g></g><g fill="#3e428d" fill-opacity="1"><g transform="translate(847.223299, 89.039776)"><g><path d="M 15.242188 5.332031 C 14.613281 5.234375 13.96875 5.148438 13.308594 5.074219 C 12.441406 4.980469 11.558594 4.835938 10.664062 4.644531 C 6.976562 3.777344 4.019531 2.117188 1.792969 -0.332031 C -0.480469 -2.832031 -1.796875 -5.964844 -2.160156 -9.734375 C -2.289062 -11.128906 -2.320312 -12.511719 -2.257812 -13.890625 C -2.199219 -15.132812 -2.117188 -16.375 -2.003906 -17.617188 L -1.980469 -17.847656 L -1.9375 -18.070312 C -1.34375 -21.113281 -0.0820312 -23.65625 1.847656 -25.703125 C 3.699219 -27.664062 6.023438 -29.113281 8.820312 -30.046875 C 12.710938 -31.253906 16.605469 -31.460938 20.507812 -30.667969 C 24.867188 -29.722656 28.304688 -27.519531 30.816406 -24.058594 C 33.308594 -20.625 34.378906 -16.675781 34.023438 -12.210938 C 33.964844 -11.171875 33.824219 -10.066406 33.601562 -8.886719 C 33.355469 -7.601562 32.988281 -6.359375 32.5 -5.167969 C 31.191406 -1.828125 29.03125 0.769531 26.019531 2.628906 C 23.15625 4.398438 19.820312 5.3125 16.007812 5.382812 L 15.625 5.390625 Z M 16.613281 -3.570312 L 15.929688 0.878906 L 15.847656 -3.621094 C 18.015625 -3.660156 19.828125 -4.128906 21.289062 -5.03125 C 22.59375 -5.839844 23.558594 -7.027344 24.171875 -8.597656 C 24.429688 -9.222656 24.621094 -9.875 24.75 -10.5625 C 24.902344 -11.359375 25 -12.148438 25.046875 -12.921875 C 25.226562 -15.179688 24.722656 -17.128906 23.53125 -18.765625 C 22.363281 -20.375 20.757812 -21.398438 18.714844 -21.84375 C 16.320312 -22.328125 13.96875 -22.214844 11.667969 -21.503906 C 10.304688 -21.046875 9.214844 -20.386719 8.398438 -19.523438 C 7.660156 -18.742188 7.160156 -17.683594 6.902344 -16.347656 L 2.480469 -17.210938 L 6.964844 -16.800781 C 6.863281 -15.695312 6.789062 -14.589844 6.738281 -13.484375 C 6.695312 -12.511719 6.714844 -11.550781 6.804688 -10.597656 C 6.972656 -8.816406 7.523438 -7.414062 8.453125 -6.390625 C 9.429688 -5.320312 10.792969 -4.578125 12.550781 -4.164062 C 13.148438 -4.035156 13.734375 -3.9375 14.304688 -3.875 C 15.085938 -3.789062 15.855469 -3.6875 16.613281 -3.570312 Z M 34.839844 -65.476562 C 34.839844 -64.117188 34.738281 -62.304688 34.542969 -60.039062 C 34.347656 -57.835938 34.074219 -55.417969 33.71875 -52.785156 C 33.363281 -50.164062 32.953125 -47.53125 32.492188 -44.886719 C 32.027344 -42.242188 31.550781 -39.773438 31.058594 -37.476562 C 30.527344 -35.007812 29.953125 -32.96875 29.335938 -31.363281 L 29.046875 -30.609375 L 28.515625 -30.003906 C 26.464844 -27.671875 24.027344 -25.984375 21.203125 -24.949219 C 18.347656 -23.902344 15.492188 -23.617188 12.628906 -24.09375 C 9.554688 -24.605469 6.925781 -26.015625 4.738281 -28.316406 C 2.589844 -30.582031 1.230469 -33.65625 0.667969 -37.53125 C -0.589844 -45.558594 -1.257812 -53 -1.339844 -59.859375 C -1.421875 -66.734375 -1.101562 -72.691406 -0.375 -77.726562 L -0.136719 -79.359375 L 1.097656 -80.453125 C 2.949219 -82.089844 5.261719 -83.367188 8.035156 -84.28125 C 10.714844 -85.160156 13.511719 -85.570312 16.429688 -85.503906 C 19.488281 -85.4375 22.378906 -84.738281 25.105469 -83.410156 C 28.046875 -81.976562 30.410156 -79.753906 32.203125 -76.742188 C 33.960938 -73.792969 34.839844 -70.035156 34.839844 -65.476562 Z M 25.832031 -65.476562 C 25.832031 -68.386719 25.378906 -70.605469 24.464844 -72.136719 C 23.589844 -73.609375 22.488281 -74.667969 21.160156 -75.316406 C 19.617188 -76.066406 17.972656 -76.464844 16.230469 -76.503906 C 14.34375 -76.542969 12.550781 -76.285156 10.851562 -75.726562 C 9.253906 -75.199219 7.988281 -74.527344 7.066406 -73.710938 L 4.082031 -77.082031 L 8.539062 -76.4375 C 7.878906 -71.867188 7.585938 -66.375 7.664062 -59.964844 C 7.742188 -53.539062 8.378906 -46.492188 9.578125 -38.828125 C 9.867188 -36.835938 10.433594 -35.398438 11.269531 -34.515625 C 12.070312 -33.671875 13.019531 -33.160156 14.109375 -32.976562 C 15.40625 -32.761719 16.734375 -32.902344 18.097656 -33.402344 C 19.492188 -33.914062 20.707031 -34.761719 21.75 -35.949219 L 25.132812 -32.976562 L 20.929688 -34.59375 C 21.378906 -35.761719 21.820312 -37.351562 22.25 -39.363281 C 22.71875 -41.550781 23.175781 -43.910156 23.621094 -46.441406 C 24.0625 -48.972656 24.453125 -51.488281 24.792969 -53.992188 C 25.132812 -56.484375 25.390625 -58.761719 25.570312 -60.824219 C 25.746094 -62.828125 25.832031 -64.378906 25.832031 -65.476562 Z M 25.832031 -65.476562 "/></g></g></g><g fill="#1f88b6" fill-opacity="1"><g transform="translate(3.477042, 89.039776)"><g><path d="M 33.53125 -52.34375 C 36.207031 -52.34375 38.796875 -52.34375 41.296875 -52.34375 C 43.804688 -52.34375 46.34375 -52.34375 48.90625 -52.34375 C 49.007812 -55.332031 49.070312 -58.441406 49.09375 -61.671875 C 49.125 -64.898438 49.179688 -67.859375 49.265625 -70.546875 C 49.347656 -73.242188 49.492188 -75.316406 49.703125 -76.765625 C 51.679688 -78.304688 53.945312 -79.359375 56.5 -79.921875 C 59.0625 -80.484375 61.648438 -80.5625 64.265625 -80.15625 C 66.890625 -79.757812 69.320312 -78.894531 71.5625 -77.5625 C 73.800781 -76.226562 75.613281 -74.453125 77 -72.234375 C 78.382812 -70.023438 79.078125 -67.398438 79.078125 -64.359375 C 79.078125 -62.753906 79.078125 -60.523438 79.078125 -57.671875 C 79.078125 -54.816406 79.078125 -51.535156 79.078125 -47.828125 C 79.078125 -44.117188 79.078125 -40.15625 79.078125 -35.9375 C 79.078125 -31.71875 79.0625 -27.429688 79.03125 -23.078125 C 79.007812 -18.734375 79 -14.535156 79 -10.484375 C 79 -9.097656 78.984375 -7.5625 78.953125 -5.875 C 78.929688 -4.195312 78.867188 -2.90625 78.765625 -2 C 78.171875 -1.363281 77.085938 -0.765625 75.515625 -0.203125 C 73.941406 0.359375 72.097656 0.757812 69.984375 1 C 67.878906 1.238281 65.707031 1.273438 63.46875 1.109375 C 61.226562 0.953125 59.09375 0.476562 57.0625 -0.3125 C 55.039062 -1.113281 53.347656 -2.273438 51.984375 -3.796875 C 50.628906 -5.316406 49.789062 -7.28125 49.46875 -9.6875 C 49.300781 -10.75 49.175781 -12.039062 49.09375 -13.5625 C 49.019531 -15.082031 48.957031 -16.679688 48.90625 -18.359375 C 48.851562 -20.046875 48.8125 -21.609375 48.78125 -23.046875 C 48.757812 -24.492188 48.75 -25.644531 48.75 -26.5 C 46.1875 -26.5 43.71875 -26.5 41.34375 -26.5 C 38.96875 -26.5 36.445312 -26.5 33.78125 -26.5 C 33.78125 -22.601562 33.78125 -18.570312 33.78125 -14.40625 C 33.78125 -10.25 33.78125 -6.085938 33.78125 -1.921875 C 33.03125 -1.273438 31.828125 -0.644531 30.171875 -0.03125 C 28.515625 0.570312 26.609375 1.007812 24.453125 1.28125 C 22.296875 1.550781 20.082031 1.5625 17.8125 1.3125 C 15.539062 1.070312 13.40625 0.4375 11.40625 -0.59375 C 9.40625 -1.632812 7.738281 -3.179688 6.40625 -5.234375 C 5.070312 -7.296875 4.296875 -9.953125 4.078125 -13.203125 C 3.972656 -14.703125 3.867188 -16.914062 3.765625 -19.84375 C 3.660156 -22.78125 3.550781 -26.171875 3.4375 -30.015625 C 3.332031 -33.859375 3.238281 -37.925781 3.15625 -42.21875 C 3.082031 -46.519531 3.046875 -50.75 3.046875 -54.90625 C 3.046875 -59.070312 3.070312 -62.953125 3.125 -66.546875 C 3.175781 -70.148438 3.28125 -73.15625 3.4375 -75.5625 C 5.570312 -77.320312 7.921875 -78.570312 10.484375 -79.3125 C 13.046875 -80.0625 15.617188 -80.34375 18.203125 -80.15625 C 20.796875 -79.96875 23.1875 -79.351562 25.375 -78.3125 C 27.5625 -77.28125 29.375 -75.882812 30.8125 -74.125 C 32.257812 -72.363281 33.085938 -70.253906 33.296875 -67.796875 C 33.566406 -65.453125 33.703125 -63.144531 33.703125 -60.875 C 33.703125 -58.601562 33.671875 -56.679688 33.609375 -55.109375 C 33.554688 -53.535156 33.53125 -52.613281 33.53125 -52.34375 Z M 33.53125 -52.34375 "/></g></g></g><g fill="#1f88b6" fill-opacity="1"><g transform="translate(86.234928, 89.039776)"><g><path d="M 4.40625 -18.484375 C 4.300781 -20.304688 4.21875 -22.75 4.15625 -25.8125 C 4.101562 -28.882812 4.078125 -32.328125 4.078125 -36.140625 C 4.078125 -39.953125 4.117188 -43.898438 4.203125 -47.984375 C 4.285156 -52.066406 4.390625 -56.082031 4.515625 -60.03125 C 4.648438 -63.976562 4.8125 -67.632812 5 -71 C 5.1875 -74.363281 5.414062 -77.164062 5.6875 -79.40625 C 8.351562 -79.664062 11.59375 -79.863281 15.40625 -80 C 19.21875 -80.132812 23.3125 -80.226562 27.6875 -80.28125 C 32.070312 -80.332031 36.460938 -80.316406 40.859375 -80.234375 C 45.265625 -80.160156 49.425781 -80.039062 53.34375 -79.875 C 57.269531 -79.71875 60.644531 -79.535156 63.46875 -79.328125 C 63.945312 -78.628906 64.375 -77.554688 64.75 -76.109375 C 65.125 -74.671875 65.320312 -73.046875 65.34375 -71.234375 C 65.375 -69.421875 65.148438 -67.578125 64.671875 -65.703125 C 64.191406 -63.835938 63.347656 -62.101562 62.140625 -60.5 C 60.941406 -58.90625 59.289062 -57.628906 57.1875 -56.671875 C 55.082031 -55.710938 52.425781 -55.234375 49.21875 -55.234375 C 48.15625 -55.234375 47.171875 -55.234375 46.265625 -55.234375 C 45.359375 -55.234375 44.34375 -55.234375 43.21875 -55.234375 C 42.101562 -55.234375 40.71875 -55.234375 39.0625 -55.234375 C 37.40625 -55.234375 35.296875 -55.234375 32.734375 -55.234375 C 32.734375 -54.585938 32.734375 -53.929688 32.734375 -53.265625 C 32.734375 -52.597656 32.734375 -51.863281 32.734375 -51.0625 C 33.910156 -51.0625 35.523438 -51.085938 37.578125 -51.140625 C 39.628906 -51.203125 41.851562 -51.234375 44.25 -51.234375 C 46.65625 -51.234375 49.019531 -51.125 51.34375 -50.90625 C 53.664062 -50.695312 55.679688 -50.320312 57.390625 -49.78125 C 58.992188 -46.257812 59.660156 -42.976562 59.390625 -39.9375 C 59.117188 -36.894531 57.929688 -34.410156 55.828125 -32.484375 C 53.722656 -30.566406 50.695312 -29.503906 46.75 -29.296875 C 45.414062 -29.242188 44.160156 -29.21875 42.984375 -29.21875 C 41.804688 -29.21875 40.441406 -29.226562 38.890625 -29.25 C 37.347656 -29.28125 35.320312 -29.296875 32.8125 -29.296875 C 32.8125 -28.441406 32.8125 -27.625 32.8125 -26.84375 C 32.8125 -26.070312 32.8125 -25.257812 32.8125 -24.40625 C 33.082031 -24.40625 33.375 -24.40625 33.6875 -24.40625 C 34.007812 -24.40625 34.332031 -24.40625 34.65625 -24.40625 C 38.925781 -24.40625 43.207031 -24.40625 47.5 -24.40625 C 51.800781 -24.40625 56.082031 -24.40625 60.34375 -24.40625 C 61.894531 -22.28125 62.882812 -19.921875 63.3125 -17.328125 C 63.738281 -14.742188 63.550781 -12.222656 62.75 -9.765625 C 61.945312 -7.304688 60.425781 -5.179688 58.1875 -3.390625 C 55.945312 -1.609375 52.929688 -0.476562 49.140625 0 C 47.804688 0.15625 46.003906 0.300781 43.734375 0.4375 C 41.472656 0.570312 38.976562 0.648438 36.25 0.671875 C 33.53125 0.703125 30.820312 0.691406 28.125 0.640625 C 25.4375 0.585938 23.007812 0.476562 20.84375 0.3125 C 18.6875 0.15625 17.019531 -0.0507812 15.84375 -0.3125 C 12.113281 -1.28125 9.351562 -3.191406 7.5625 -6.046875 C 5.769531 -8.898438 4.71875 -13.046875 4.40625 -18.484375 Z M 4.40625 -18.484375 "/></g></g></g><g fill="#1f88b6" fill-opacity="1"><g transform="translate(153.625781, 89.039776)"><g><path d="M 53.390625 -0.234375 C 50.554688 -0.078125 47.6875 0.0078125 44.78125 0.03125 C 41.875 0.0625 39.191406 0.0507812 36.734375 0 C 34.285156 -0.0507812 32.3125 -0.101562 30.8125 -0.15625 C 29.320312 -0.207031 28.578125 -0.234375 28.578125 -0.234375 C 26.492188 -0.234375 24.210938 -0.40625 21.734375 -0.75 C 19.253906 -1.101562 16.835938 -1.863281 14.484375 -3.03125 C 12.140625 -4.207031 10.097656 -5.957031 8.359375 -8.28125 C 6.628906 -10.601562 5.46875 -13.710938 4.875 -17.609375 C 4.5625 -19.847656 4.269531 -22.675781 4 -26.09375 C 3.738281 -29.507812 3.539062 -33.285156 3.40625 -37.421875 C 3.269531 -41.554688 3.226562 -45.863281 3.28125 -50.34375 C 3.332031 -54.820312 3.503906 -59.273438 3.796875 -63.703125 C 4.097656 -68.140625 4.566406 -72.332031 5.203125 -76.28125 C 6.691406 -77.613281 8.53125 -78.640625 10.71875 -79.359375 C 12.90625 -80.078125 15.226562 -80.382812 17.6875 -80.28125 C 20.144531 -80.175781 22.492188 -79.535156 24.734375 -78.359375 C 26.972656 -77.179688 28.890625 -75.390625 30.484375 -72.984375 C 32.085938 -70.585938 33.101562 -67.414062 33.53125 -63.46875 C 33.800781 -61.125 33.988281 -58.414062 34.09375 -55.34375 C 34.207031 -52.28125 34.289062 -49.09375 34.34375 -45.78125 C 34.394531 -42.476562 34.40625 -39.265625 34.375 -36.140625 C 34.351562 -33.015625 34.285156 -30.195312 34.171875 -27.6875 C 35.992188 -27.851562 38.210938 -27.945312 40.828125 -27.96875 C 43.441406 -28 46.253906 -27.988281 49.265625 -27.9375 C 52.273438 -27.882812 55.328125 -27.75 58.421875 -27.53125 C 61.523438 -27.320312 64.488281 -27.054688 67.3125 -26.734375 C 68.914062 -23.691406 69.632812 -20.648438 69.46875 -17.609375 C 69.3125 -14.566406 68.484375 -11.765625 66.984375 -9.203125 C 65.492188 -6.640625 63.5625 -4.546875 61.1875 -2.921875 C 58.8125 -1.296875 56.210938 -0.398438 53.390625 -0.234375 Z M 53.390625 -0.234375 "/></g></g></g><g fill="#1f88b6" fill-opacity="1"><g transform="translate(226.058943, 89.039776)"><g><path d="M 53.390625 -0.234375 C 50.554688 -0.078125 47.6875 0.0078125 44.78125 0.03125 C 41.875 0.0625 39.191406 0.0507812 36.734375 0 C 34.285156 -0.0507812 32.3125 -0.101562 30.8125 -0.15625 C 29.320312 -0.207031 28.578125 -0.234375 28.578125 -0.234375 C 26.492188 -0.234375 24.210938 -0.40625 21.734375 -0.75 C 19.253906 -1.101562 16.835938 -1.863281 14.484375 -3.03125 C 12.140625 -4.207031 10.097656 -5.957031 8.359375 -8.28125 C 6.628906 -10.601562 5.46875 -13.710938 4.875 -17.609375 C 4.5625 -19.847656 4.269531 -22.675781 4 -26.09375 C 3.738281 -29.507812 3.539062 -33.285156 3.40625 -37.421875 C 3.269531 -41.554688 3.226562 -45.863281 3.28125 -50.34375 C 3.332031 -54.820312 3.503906 -59.273438 3.796875 -63.703125 C 4.097656 -68.140625 4.566406 -72.332031 5.203125 -76.28125 C 6.691406 -77.613281 8.53125 -78.640625 10.71875 -79.359375 C 12.90625 -80.078125 15.226562 -80.382812 17.6875 -80.28125 C 20.144531 -80.175781 22.492188 -79.535156 24.734375 -78.359375 C 26.972656 -77.179688 28.890625 -75.390625 30.484375 -72.984375 C 32.085938 -70.585938 33.101562 -67.414062 33.53125 -63.46875 C 33.800781 -61.125 33.988281 -58.414062 34.09375 -55.34375 C 34.207031 -52.28125 34.289062 -49.09375 34.34375 -45.78125 C 34.394531 -42.476562 34.40625 -39.265625 34.375 -36.140625 C 34.351562 -33.015625 34.285156 -30.195312 34.171875 -27.6875 C 35.992188 -27.851562 38.210938 -27.945312 40.828125 -27.96875 C 43.441406 -28 46.253906 -27.988281 49.265625 -27.9375 C 52.273438 -27.882812 55.328125 -27.75 58.421875 -27.53125 C 61.523438 -27.320312 64.488281 -27.054688 67.3125 -26.734375 C 68.914062 -23.691406 69.632812 -20.648438 69.46875 -17.609375 C 69.3125 -14.566406 68.484375 -11.765625 66.984375 -9.203125 C 65.492188 -6.640625 63.5625 -4.546875 61.1875 -2.921875 C 58.8125 -1.296875 56.210938 -0.398438 53.390625 -0.234375 Z M 53.390625 -0.234375 "/></g></g></g><g fill="#1f88b6" fill-opacity="1"><g transform="translate(298.492093, 89.039776)"><g><path d="M 44.265625 -81.640625 C 49.703125 -81.691406 54.460938 -81.078125 58.546875 -79.796875 C 62.628906 -78.515625 66.109375 -76.859375 68.984375 -74.828125 C 71.867188 -72.804688 74.257812 -70.644531 76.15625 -68.34375 C 78.050781 -66.050781 79.546875 -63.878906 80.640625 -61.828125 C 81.734375 -59.773438 82.519531 -58.109375 83 -56.828125 C 84.863281 -51.703125 85.96875 -46.535156 86.3125 -41.328125 C 86.664062 -36.128906 86.039062 -30.890625 84.4375 -25.609375 C 80.0625 -11.578125 70.753906 -2.878906 56.515625 0.484375 C 50.742188 1.867188 45.054688 2.304688 39.453125 1.796875 C 33.859375 1.296875 28.390625 -0.34375 23.046875 -3.125 C 17.984375 -5.738281 13.941406 -9.140625 10.921875 -13.328125 C 7.910156 -17.515625 5.789062 -22.359375 4.5625 -27.859375 C 3.757812 -31.328125 3.289062 -34.875 3.15625 -38.5 C 3.03125 -42.125 3.242188 -45.644531 3.796875 -49.0625 C 4.359375 -52.476562 5.28125 -55.546875 6.5625 -58.265625 C 7.84375 -61.097656 9.492188 -63.882812 11.515625 -66.625 C 13.546875 -69.375 16.054688 -71.882812 19.046875 -74.15625 C 22.035156 -76.425781 25.609375 -78.238281 29.765625 -79.59375 C 33.929688 -80.957031 38.765625 -81.640625 44.265625 -81.640625 Z M 44.65625 -52.984375 C 42.6875 -52.984375 40.859375 -52.4375 39.171875 -51.34375 C 37.492188 -50.25 36.175781 -48.617188 35.21875 -46.453125 C 34.257812 -44.296875 33.882812 -41.617188 34.09375 -38.421875 C 34.3125 -35.328125 35.019531 -32.867188 36.21875 -31.046875 C 37.414062 -29.234375 38.828125 -27.941406 40.453125 -27.171875 C 42.085938 -26.398438 43.597656 -26.066406 44.984375 -26.171875 C 46.421875 -26.273438 47.875 -26.738281 49.34375 -27.5625 C 50.8125 -28.394531 52.066406 -29.71875 53.109375 -31.53125 C 54.148438 -33.351562 54.75 -35.753906 54.90625 -38.734375 C 55.125 -41.773438 54.765625 -44.347656 53.828125 -46.453125 C 52.890625 -48.566406 51.609375 -50.179688 49.984375 -51.296875 C 48.359375 -52.421875 46.582031 -52.984375 44.65625 -52.984375 Z M 44.65625 -52.984375 "/></g></g></g><g clip-path="url(#60eaa83abf)"><g fill="#1f88b6" fill-opacity="1"><g transform="translate(388.133146, 89.039776)"><g><path d="M 11.84375 0.640625 C 9.175781 -0.160156 7.054688 -1.398438 5.484375 -3.078125 C 3.910156 -4.765625 2.789062 -6.660156 2.125 -8.765625 C 1.457031 -10.867188 1.1875 -12.988281 1.3125 -15.125 C 1.445312 -17.257812 1.914062 -19.179688 2.71875 -20.890625 C 3.84375 -23.398438 5.5 -25.46875 7.6875 -27.09375 C 9.875 -28.71875 12.914062 -29.585938 16.8125 -29.703125 C 20.226562 -29.753906 23.054688 -29.019531 25.296875 -27.5 C 27.535156 -25.976562 29.210938 -24 30.328125 -21.5625 C 31.453125 -19.132812 32.039062 -16.5625 32.09375 -13.84375 C 32.144531 -11.226562 31.796875 -8.597656 31.046875 -5.953125 C 30.304688 -3.316406 29.332031 -0.757812 28.125 1.71875 C 26.925781 4.195312 25.632812 6.488281 24.25 8.59375 C 22.863281 10.707031 21.53125 12.539062 20.25 14.09375 C 18.59375 16.164062 16.816406 17.578125 14.921875 18.328125 C 13.035156 19.078125 11.265625 19.332031 9.609375 19.09375 C 7.953125 18.851562 6.585938 18.265625 5.515625 17.328125 C 4.453125 16.390625 3.921875 15.28125 3.921875 14 C 5.203125 11.5 6.5625 9.179688 8 7.046875 C 9.445312 4.910156 10.726562 2.773438 11.84375 0.640625 Z M 11.84375 0.640625 "/></g></g></g></g><g fill="#1f88b6" fill-opacity="1"><g transform="translate(421.428394, 89.039776)"><g/></g></g><g fill="#1f88b6" fill-opacity="1"><g transform="translate(461.766851, 89.039776)"><g><path d="M 1.203125 -24.171875 C 1.835938 -27.367188 2.675781 -30.957031 3.71875 -34.9375 C 4.757812 -38.914062 5.929688 -43 7.234375 -47.1875 C 8.546875 -51.375 9.878906 -55.425781 11.234375 -59.34375 C 12.597656 -63.269531 13.929688 -66.859375 15.234375 -70.109375 C 16.546875 -73.367188 17.710938 -75.984375 18.734375 -77.953125 C 20.921875 -78.703125 23.535156 -79.394531 26.578125 -80.03125 C 29.617188 -80.675781 32.84375 -81.039062 36.25 -81.125 C 39.664062 -81.207031 43.054688 -80.765625 46.421875 -79.796875 C 49.785156 -78.835938 52.878906 -77.128906 55.703125 -74.671875 C 58.535156 -72.222656 60.859375 -68.785156 62.671875 -64.359375 C 63.523438 -62.222656 64.507812 -59.484375 65.625 -56.140625 C 66.75 -52.804688 67.925781 -49.113281 69.15625 -45.0625 C 70.382812 -41.007812 71.582031 -36.832031 72.75 -32.53125 C 73.925781 -28.238281 75.007812 -24.050781 76 -19.96875 C 76.988281 -15.882812 77.773438 -12.160156 78.359375 -8.796875 C 78.203125 -7.359375 77.457031 -5.929688 76.125 -4.515625 C 74.789062 -3.109375 73.09375 -1.910156 71.03125 -0.921875 C 68.976562 0.0664062 66.765625 0.71875 64.390625 1.03125 C 62.015625 1.351562 59.648438 1.164062 57.296875 0.46875 C 54.953125 -0.21875 52.832031 -1.570312 50.9375 -3.59375 C 49.050781 -5.625 47.570312 -8.457031 46.5 -12.09375 C 44 -12.195312 41.382812 -12.222656 38.65625 -12.171875 C 35.9375 -12.117188 33.296875 -12.117188 30.734375 -12.171875 C 30.046875 -10.515625 29.394531 -8.695312 28.78125 -6.71875 C 28.164062 -4.75 27.5625 -2.722656 26.96875 -0.640625 C 22.0625 1.171875 17.789062 1.820312 14.15625 1.3125 C 10.53125 0.8125 7.609375 -0.582031 5.390625 -2.875 C 3.179688 -5.175781 1.71875 -8.164062 1 -11.84375 C 0.28125 -15.53125 0.347656 -19.640625 1.203125 -24.171875 Z M 33.859375 -35.0625 C 35.566406 -35.0625 37.21875 -35.0625 38.8125 -35.0625 C 40.414062 -35.0625 42.046875 -35.0625 43.703125 -35.0625 C 42.953125 -38.3125 42.175781 -41.523438 41.375 -44.703125 C 40.582031 -47.878906 39.8125 -51.066406 39.0625 -54.265625 C 38.894531 -54.210938 38.65625 -54.1875 38.34375 -54.1875 C 37.644531 -51.039062 36.910156 -47.890625 36.140625 -44.734375 C 35.367188 -41.585938 34.609375 -38.363281 33.859375 -35.0625 Z M 33.859375 -35.0625 "/></g></g></g><g fill="#1f88b6" fill-opacity="1"><g transform="translate(541.243261, 89.039776)"><g><path d="M 71.953125 -79.875 C 72.804688 -78.757812 73.515625 -77.160156 74.078125 -75.078125 C 74.640625 -72.992188 74.894531 -70.738281 74.84375 -68.3125 C 74.789062 -65.882812 74.28125 -63.550781 73.3125 -61.3125 C 72.351562 -59.070312 70.816406 -57.175781 68.703125 -55.625 C 66.597656 -54.082031 63.757812 -53.203125 60.1875 -52.984375 C 58.800781 -52.929688 57.640625 -52.863281 56.703125 -52.78125 C 55.773438 -52.707031 55.203125 -52.671875 54.984375 -52.671875 C 55.097656 -49.679688 55.164062 -46.394531 55.1875 -42.8125 C 55.21875 -39.238281 55.203125 -35.554688 55.140625 -31.765625 C 55.085938 -27.984375 54.984375 -24.289062 54.828125 -20.6875 C 54.671875 -17.082031 54.484375 -13.71875 54.265625 -10.59375 C 54.054688 -7.476562 53.789062 -4.828125 53.46875 -2.640625 C 52.132812 -1.148438 50.4375 -0.0859375 48.375 0.546875 C 46.320312 1.191406 44.132812 1.367188 41.8125 1.078125 C 39.5 0.785156 37.25 -0.0351562 35.0625 -1.390625 C 32.875 -2.753906 30.9375 -4.664062 29.25 -7.125 C 27.570312 -9.582031 26.382812 -12.675781 25.6875 -16.40625 C 25.476562 -17.53125 25.289062 -19.332031 25.125 -21.8125 C 24.96875 -24.289062 24.820312 -27.195312 24.6875 -30.53125 C 24.5625 -33.863281 24.46875 -37.4375 24.40625 -41.25 C 24.351562 -45.070312 24.351562 -48.90625 24.40625 -52.75 C 21.738281 -52.53125 18.988281 -52.429688 16.15625 -52.453125 C 13.332031 -52.484375 10.613281 -52.769531 8 -53.3125 C 6.988281 -54.644531 6.242188 -56.363281 5.765625 -58.46875 C 5.285156 -60.570312 5.148438 -62.796875 5.359375 -65.140625 C 5.578125 -67.492188 6.191406 -69.738281 7.203125 -71.875 C 8.210938 -74.007812 9.703125 -75.785156 11.671875 -77.203125 C 13.648438 -78.617188 16.160156 -79.429688 19.203125 -79.640625 C 20.910156 -79.742188 23.164062 -79.820312 25.96875 -79.875 C 28.769531 -79.9375 31.890625 -79.96875 35.328125 -79.96875 C 38.773438 -79.96875 42.3125 -79.96875 45.9375 -79.96875 C 49.570312 -79.96875 53.082031 -79.953125 56.46875 -79.921875 C 59.851562 -79.890625 62.90625 -79.875 65.625 -79.875 C 68.351562 -79.875 70.460938 -79.875 71.953125 -79.875 Z M 71.953125 -79.875 "/></g></g></g><g fill="#1f88b6" fill-opacity="1"><g transform="translate(619.919251, 89.039776)"><g><path d="M 53.390625 -0.234375 C 50.554688 -0.078125 47.6875 0.0078125 44.78125 0.03125 C 41.875 0.0625 39.191406 0.0507812 36.734375 0 C 34.285156 -0.0507812 32.3125 -0.101562 30.8125 -0.15625 C 29.320312 -0.207031 28.578125 -0.234375 28.578125 -0.234375 C 26.492188 -0.234375 24.210938 -0.40625 21.734375 -0.75 C 19.253906 -1.101562 16.835938 -1.863281 14.484375 -3.03125 C 12.140625 -4.207031 10.097656 -5.957031 8.359375 -8.28125 C 6.628906 -10.601562 5.46875 -13.710938 4.875 -17.609375 C 4.5625 -19.847656 4.269531 -22.675781 4 -26.09375 C 3.738281 -29.507812 3.539062 -33.285156 3.40625 -37.421875 C 3.269531 -41.554688 3.226562 -45.863281 3.28125 -50.34375 C 3.332031 -54.820312 3.503906 -59.273438 3.796875 -63.703125 C 4.097656 -68.140625 4.566406 -72.332031 5.203125 -76.28125 C 6.691406 -77.613281 8.53125 -78.640625 10.71875 -79.359375 C 12.90625 -80.078125 15.226562 -80.382812 17.6875 -80.28125 C 20.144531 -80.175781 22.492188 -79.535156 24.734375 -78.359375 C 26.972656 -77.179688 28.890625 -75.390625 30.484375 -72.984375 C 32.085938 -70.585938 33.101562 -67.414062 33.53125 -63.46875 C 33.800781 -61.125 33.988281 -58.414062 34.09375 -55.34375 C 34.207031 -52.28125 34.289062 -49.09375 34.34375 -45.78125 C 34.394531 -42.476562 34.40625 -39.265625 34.375 -36.140625 C 34.351562 -33.015625 34.285156 -30.195312 34.171875 -27.6875 C 35.992188 -27.851562 38.210938 -27.945312 40.828125 -27.96875 C 43.441406 -28 46.253906 -27.988281 49.265625 -27.9375 C 52.273438 -27.882812 55.328125 -27.75 58.421875 -27.53125 C 61.523438 -27.320312 64.488281 -27.054688 67.3125 -26.734375 C 68.914062 -23.691406 69.632812 -20.648438 69.46875 -17.609375 C 69.3125 -14.566406 68.484375 -11.765625 66.984375 -9.203125 C 65.492188 -6.640625 63.5625 -4.546875 61.1875 -2.921875 C 58.8125 -1.296875 56.210938 -0.398438 53.390625 -0.234375 Z M 53.390625 -0.234375 "/></g></g></g><g fill="#1f88b6" fill-opacity="1"><g transform="translate(692.352426, 89.039776)"><g><path d="M 1.203125 -24.171875 C 1.835938 -27.367188 2.675781 -30.957031 3.71875 -34.9375 C 4.757812 -38.914062 5.929688 -43 7.234375 -47.1875 C 8.546875 -51.375 9.878906 -55.425781 11.234375 -59.34375 C 12.597656 -63.269531 13.929688 -66.859375 15.234375 -70.109375 C 16.546875 -73.367188 17.710938 -75.984375 18.734375 -77.953125 C 20.921875 -78.703125 23.535156 -79.394531 26.578125 -80.03125 C 29.617188 -80.675781 32.84375 -81.039062 36.25 -81.125 C 39.664062 -81.207031 43.054688 -80.765625 46.421875 -79.796875 C 49.785156 -78.835938 52.878906 -77.128906 55.703125 -74.671875 C 58.535156 -72.222656 60.859375 -68.785156 62.671875 -64.359375 C 63.523438 -62.222656 64.507812 -59.484375 65.625 -56.140625 C 66.75 -52.804688 67.925781 -49.113281 69.15625 -45.0625 C 70.382812 -41.007812 71.582031 -36.832031 72.75 -32.53125 C 73.925781 -28.238281 75.007812 -24.050781 76 -19.96875 C 76.988281 -15.882812 77.773438 -12.160156 78.359375 -8.796875 C 78.203125 -7.359375 77.457031 -5.929688 76.125 -4.515625 C 74.789062 -3.109375 73.09375 -1.910156 71.03125 -0.921875 C 68.976562 0.0664062 66.765625 0.71875 64.390625 1.03125 C 62.015625 1.351562 59.648438 1.164062 57.296875 0.46875 C 54.953125 -0.21875 52.832031 -1.570312 50.9375 -3.59375 C 49.050781 -5.625 47.570312 -8.457031 46.5 -12.09375 C 44 -12.195312 41.382812 -12.222656 38.65625 -12.171875 C 35.9375 -12.117188 33.296875 -12.117188 30.734375 -12.171875 C 30.046875 -10.515625 29.394531 -8.695312 28.78125 -6.71875 C 28.164062 -4.75 27.5625 -2.722656 26.96875 -0.640625 C 22.0625 1.171875 17.789062 1.820312 14.15625 1.3125 C 10.53125 0.8125 7.609375 -0.582031 5.390625 -2.875 C 3.179688 -5.175781 1.71875 -8.164062 1 -11.84375 C 0.28125 -15.53125 0.347656 -19.640625 1.203125 -24.171875 Z M 33.859375 -35.0625 C 35.566406 -35.0625 37.21875 -35.0625 38.8125 -35.0625 C 40.414062 -35.0625 42.046875 -35.0625 43.703125 -35.0625 C 42.953125 -38.3125 42.175781 -41.523438 41.375 -44.703125 C 40.582031 -47.878906 39.8125 -51.066406 39.0625 -54.265625 C 38.894531 -54.210938 38.65625 -54.1875 38.34375 -54.1875 C 37.644531 -51.039062 36.910156 -47.890625 36.140625 -44.734375 C 35.367188 -41.585938 34.609375 -38.363281 33.859375 -35.0625 Z M 33.859375 -35.0625 "/></g></g></g><g fill="#1f88b6" fill-opacity="1"><g transform="translate(771.828837, 89.039776)"><g><path d="M 58.4375 -45.0625 C 62.488281 -42.550781 65.488281 -39.640625 67.4375 -36.328125 C 69.382812 -33.023438 70.4375 -29.585938 70.59375 -26.015625 C 70.757812 -22.441406 70.226562 -19 69 -15.6875 C 67.769531 -12.375 65.992188 -9.453125 63.671875 -6.921875 C 61.347656 -4.390625 58.691406 -2.507812 55.703125 -1.28125 C 53.566406 -0.425781 50.953125 0.289062 47.859375 0.875 C 44.765625 1.46875 41.40625 1.828125 37.78125 1.953125 C 34.15625 2.085938 30.429688 1.898438 26.609375 1.390625 C 22.796875 0.890625 19.113281 -0.0234375 15.5625 -1.359375 C 12.019531 -2.691406 8.804688 -4.535156 5.921875 -6.890625 C 4.378906 -8.859375 3.457031 -10.988281 3.15625 -13.28125 C 2.863281 -15.582031 3.09375 -17.785156 3.84375 -19.890625 C 4.59375 -21.992188 5.753906 -23.78125 7.328125 -25.25 C 8.898438 -26.71875 10.78125 -27.625 12.96875 -27.96875 C 15.15625 -28.320312 17.554688 -27.859375 20.171875 -26.578125 C 23.960938 -24.703125 27.535156 -23.429688 30.890625 -22.765625 C 34.253906 -22.097656 37.054688 -22.019531 39.296875 -22.53125 C 41.535156 -23.039062 42.867188 -24.09375 43.296875 -25.6875 C 43.722656 -27.289062 43.375 -28.625 42.25 -29.6875 C 41.132812 -30.757812 39.082031 -31.398438 36.09375 -31.609375 C 32.84375 -31.878906 29.585938 -32.441406 26.328125 -33.296875 C 23.078125 -34.148438 20.035156 -35.390625 17.203125 -37.015625 C 14.378906 -38.640625 11.992188 -40.773438 10.046875 -43.421875 C 8.097656 -46.066406 6.800781 -49.253906 6.15625 -52.984375 C 5.945312 -54.316406 5.9375 -55.957031 6.125 -57.90625 C 6.3125 -59.851562 6.789062 -61.921875 7.5625 -64.109375 C 8.332031 -66.296875 9.503906 -68.457031 11.078125 -70.59375 C 12.660156 -72.726562 14.757812 -74.675781 17.375 -76.4375 C 19.988281 -78.195312 23.210938 -79.585938 27.046875 -80.609375 C 29.722656 -81.347656 32.550781 -81.8125 35.53125 -82 C 38.519531 -82.1875 41.492188 -82.144531 44.453125 -81.875 C 47.421875 -81.613281 50.1875 -81.109375 52.75 -80.359375 C 55.3125 -79.609375 57.445312 -78.675781 59.15625 -77.5625 C 61.925781 -75.695312 63.925781 -73.707031 65.15625 -71.59375 C 66.382812 -69.488281 66.984375 -67.40625 66.953125 -65.34375 C 66.929688 -63.289062 66.4375 -61.367188 65.46875 -59.578125 C 64.507812 -57.796875 63.253906 -56.273438 61.703125 -55.015625 C 60.160156 -53.765625 58.457031 -52.925781 56.59375 -52.5 C 55.414062 -53.945312 53.800781 -55.191406 51.75 -56.234375 C 49.695312 -57.273438 47.484375 -58.070312 45.109375 -58.625 C 42.734375 -59.1875 40.476562 -59.453125 38.34375 -59.421875 C 36.207031 -59.398438 34.457031 -59.054688 33.09375 -58.390625 C 31.738281 -57.722656 31.03125 -56.695312 30.96875 -55.3125 C 30.96875 -54.457031 31.34375 -53.75 32.09375 -53.1875 C 32.84375 -52.625 34.234375 -52.210938 36.265625 -51.953125 C 42.128906 -51.203125 46.925781 -50.09375 50.65625 -48.625 C 54.394531 -47.15625 56.988281 -45.96875 58.4375 -45.0625 Z M 58.4375 -45.0625 "/></g></g></g><g fill="#1f88b6" fill-opacity="1"><g transform="translate(847.223299, 89.039776)"><g><path d="M 15.921875 0.875 C 15.234375 0.769531 14.53125 0.675781 13.8125 0.59375 C 13.09375 0.519531 12.359375 0.398438 11.609375 0.234375 C 8.890625 -0.398438 6.726562 -1.597656 5.125 -3.359375 C 3.519531 -5.117188 2.585938 -7.390625 2.328125 -10.171875 C 2.210938 -11.335938 2.179688 -12.507812 2.234375 -13.6875 C 2.296875 -14.863281 2.378906 -16.035156 2.484375 -17.203125 C 2.910156 -19.390625 3.789062 -21.191406 5.125 -22.609375 C 6.457031 -24.023438 8.164062 -25.078125 10.25 -25.765625 C 13.34375 -26.734375 16.460938 -26.894531 19.609375 -26.25 C 22.804688 -25.5625 25.328125 -23.945312 27.171875 -21.40625 C 29.015625 -18.875 29.800781 -15.925781 29.53125 -12.5625 C 29.476562 -11.65625 29.359375 -10.707031 29.171875 -9.71875 C 28.984375 -8.738281 28.703125 -7.796875 28.328125 -6.890625 C 27.367188 -4.429688 25.804688 -2.535156 23.640625 -1.203125 C 21.484375 0.128906 18.910156 0.820312 15.921875 0.875 Z M 30.328125 -65.46875 C 30.328125 -64.25 30.234375 -62.570312 30.046875 -60.4375 C 29.867188 -58.300781 29.601562 -55.953125 29.25 -53.390625 C 28.90625 -50.828125 28.503906 -48.25 28.046875 -45.65625 C 27.597656 -43.070312 27.132812 -40.660156 26.65625 -38.421875 C 26.175781 -36.179688 25.671875 -34.367188 25.140625 -32.984375 C 23.585938 -31.210938 21.753906 -29.941406 19.640625 -29.171875 C 17.535156 -28.398438 15.441406 -28.1875 13.359375 -28.53125 C 11.285156 -28.882812 9.5 -29.847656 8 -31.421875 C 6.507812 -32.992188 5.550781 -35.25 5.125 -38.1875 C 3.894531 -46.03125 3.238281 -53.269531 3.15625 -59.90625 C 3.082031 -66.550781 3.390625 -72.273438 4.078125 -77.078125 C 5.460938 -78.304688 7.25 -79.28125 9.4375 -80 C 11.632812 -80.71875 13.929688 -81.050781 16.328125 -81 C 18.734375 -80.945312 21 -80.398438 23.125 -79.359375 C 25.257812 -78.316406 26.992188 -76.675781 28.328125 -74.4375 C 29.660156 -72.195312 30.328125 -69.207031 30.328125 -65.46875 Z M 30.328125 -65.46875 "/></g></g></g></g></g></svg>