<svg xmlns="http://www.w3.org/2000/svg" xmlns:xlink="http://www.w3.org/1999/xlink" width="1200" zoomAndPan="magnify" viewBox="0 0 900 119.999999" height="160" preserveAspectRatio="xMidYMid meet" version="1.0"><defs><g/></defs><g fill="#58675e" fill-opacity="1"><g transform="translate(13.971583, 96.39736)"><g><path d="M 53.164062 4.21875 C 50.292969 4.378906 47.378906 4.476562 44.425781 4.503906 C 41.496094 4.527344 38.792969 4.515625 36.316406 4.460938 C 33.863281 4.40625 31.882812 4.355469 30.382812 4.300781 L 28.160156 4.222656 L 28.320312 -0.238281 L 28.320312 4.222656 C 26.050781 4.222656 23.585938 4.039062 20.921875 3.664062 C 17.976562 3.253906 15.125 2.359375 12.363281 0.976562 C 9.40625 -0.503906 6.855469 -2.675781 4.714844 -5.539062 C 2.550781 -8.4375 1.121094 -12.1875 0.425781 -16.789062 C 0.09375 -19.125 -0.210938 -22.035156 -0.484375 -25.515625 C -0.753906 -28.964844 -0.953125 -32.777344 -1.089844 -36.941406 C -1.222656 -41.105469 -1.261719 -45.445312 -1.210938 -49.953125 C -1.15625 -54.476562 -0.980469 -58.972656 -0.683594 -63.441406 C -0.382812 -67.972656 0.09375 -72.261719 0.75 -76.316406 L 1.003906 -77.875 L 2.183594 -78.929688 C 4.128906 -80.664062 6.476562 -81.988281 9.234375 -82.894531 C 11.917969 -83.777344 14.75 -84.15625 17.726562 -84.027344 C 20.820312 -83.890625 23.773438 -83.089844 26.582031 -81.617188 C 29.476562 -80.101562 31.929688 -77.835938 33.9375 -74.824219 C 35.929688 -71.839844 37.175781 -68.027344 37.675781 -63.386719 C 37.953125 -60.960938 38.144531 -58.167969 38.253906 -55.011719 C 38.359375 -51.941406 38.441406 -48.753906 38.496094 -45.449219 C 38.546875 -42.132812 38.5625 -38.910156 38.535156 -35.78125 C 38.507812 -32.636719 38.441406 -29.792969 38.332031 -27.257812 L 33.875 -27.449219 L 33.480469 -31.894531 C 35.394531 -32.0625 37.707031 -32.160156 40.414062 -32.1875 C 43.046875 -32.214844 45.878906 -32.203125 48.90625 -32.148438 C 51.972656 -32.09375 55.074219 -31.957031 58.21875 -31.742188 C 61.351562 -31.527344 64.351562 -31.253906 67.21875 -30.929688 L 69.566406 -30.664062 L 70.664062 -28.574219 C 72.632812 -24.835938 73.515625 -21.050781 73.316406 -17.21875 C 73.117188 -13.484375 72.097656 -10.035156 70.253906 -6.875 C 68.4375 -3.757812 66.074219 -1.207031 63.171875 0.785156 C 60.132812 2.867188 56.796875 4.011719 53.164062 4.21875 Z M 52.660156 -4.695312 C 54.636719 -4.804688 56.457031 -5.433594 58.125 -6.578125 C 59.925781 -7.8125 61.402344 -9.410156 62.542969 -11.371094 C 63.664062 -13.289062 64.28125 -15.390625 64.402344 -17.6875 C 64.519531 -19.882812 63.972656 -22.128906 62.765625 -24.417969 L 66.714844 -26.496094 L 66.214844 -22.0625 C 63.476562 -22.371094 60.605469 -22.628906 57.605469 -22.835938 C 54.613281 -23.042969 51.660156 -23.171875 48.75 -23.222656 C 45.800781 -23.277344 43.054688 -23.289062 40.503906 -23.261719 C 38.027344 -23.238281 35.949219 -23.152344 34.265625 -23.003906 L 29.199219 -22.554688 L 29.414062 -27.636719 C 29.519531 -30.074219 29.582031 -32.8125 29.609375 -35.855469 C 29.636719 -38.914062 29.621094 -42.0625 29.570312 -45.304688 C 29.519531 -48.554688 29.441406 -51.6875 29.335938 -54.703125 C 29.234375 -57.625 29.054688 -60.203125 28.800781 -62.429688 C 28.457031 -65.617188 27.695312 -68.101562 26.511719 -69.875 C 25.347656 -71.621094 23.992188 -72.898438 22.441406 -73.710938 C 20.808594 -74.566406 19.109375 -75.03125 17.339844 -75.109375 C 15.449219 -75.191406 13.679688 -74.960938 12.027344 -74.417969 C 10.445312 -73.898438 9.148438 -73.183594 8.128906 -72.273438 L 5.15625 -75.601562 L 9.5625 -74.886719 C 8.949219 -71.113281 8.503906 -67.101562 8.222656 -62.851562 C 7.933594 -58.542969 7.765625 -54.207031 7.714844 -49.84375 C 7.664062 -45.46875 7.703125 -41.265625 7.832031 -37.230469 C 7.960938 -33.199219 8.15625 -29.527344 8.414062 -26.210938 C 8.671875 -22.917969 8.953125 -20.222656 9.25 -18.117188 C 9.722656 -14.996094 10.59375 -12.582031 11.863281 -10.882812 C 13.160156 -9.144531 14.65625 -7.855469 16.355469 -7.007812 C 18.246094 -6.058594 20.179688 -5.449219 22.15625 -5.171875 C 24.410156 -4.859375 26.464844 -4.699219 28.320312 -4.699219 L 28.402344 -4.699219 L 30.703125 -4.617188 C 32.160156 -4.566406 34.097656 -4.515625 36.507812 -4.460938 C 38.894531 -4.410156 41.507812 -4.398438 44.34375 -4.421875 C 47.15625 -4.449219 49.929688 -4.539062 52.660156 -4.695312 Z M 52.660156 -4.695312 "/></g></g></g><g fill="#58675e" fill-opacity="1"><g transform="translate(85.763525, 96.39736)"><g><path d="M -0.0898438 -18.0625 C -0.199219 -19.921875 -0.28125 -22.402344 -0.335938 -25.507812 C -0.390625 -28.574219 -0.417969 -32.011719 -0.417969 -35.816406 C -0.417969 -39.628906 -0.375 -43.570312 -0.296875 -47.644531 C -0.21875 -51.710938 -0.109375 -55.714844 0.0234375 -59.648438 C 0.15625 -63.59375 0.316406 -67.25 0.503906 -70.613281 C 0.691406 -74.039062 0.925781 -76.910156 1.203125 -79.222656 L 1.625 -82.78125 L 5.1875 -83.136719 C 7.929688 -83.410156 11.238281 -83.613281 15.113281 -83.75 C 18.929688 -83.882812 23.023438 -83.976562 27.394531 -84.03125 C 31.777344 -84.082031 36.171875 -84.070312 40.578125 -83.988281 C 44.976562 -83.910156 49.132812 -83.789062 53.054688 -83.628906 C 56.992188 -83.46875 60.390625 -83.28125 63.246094 -83.066406 L 65.367188 -82.90625 L 66.578125 -81.15625 C 67.355469 -80.035156 67.996094 -78.503906 68.496094 -76.5625 C 68.957031 -74.789062 69.203125 -72.824219 69.234375 -70.667969 C 69.265625 -68.472656 68.996094 -66.253906 68.421875 -64.019531 C 67.796875 -61.597656 66.714844 -59.355469 65.167969 -57.296875 C 63.523438 -55.101562 61.3125 -53.371094 58.53125 -52.105469 C 55.855469 -50.886719 52.605469 -50.273438 48.789062 -50.273438 L 32.445312 -50.273438 L 32.445312 -54.738281 L 36.910156 -54.738281 L 36.910156 -50.613281 L 32.445312 -50.613281 L 32.445312 -55.074219 C 33.570312 -55.074219 35.132812 -55.101562 37.128906 -55.152344 C 39.203125 -55.207031 41.449219 -55.234375 43.871094 -55.234375 C 46.386719 -55.234375 48.863281 -55.121094 51.296875 -54.898438 C 53.914062 -54.65625 56.21875 -54.226562 58.210938 -53.601562 L 60.117188 -53.007812 L 60.941406 -51.191406 C 62.851562 -46.988281 63.640625 -42.988281 63.308594 -39.195312 C 62.941406 -35.023438 61.285156 -31.597656 58.339844 -28.910156 C 55.464844 -26.292969 51.542969 -24.847656 46.570312 -24.578125 C 45.144531 -24.523438 43.824219 -24.492188 42.601562 -24.492188 C 41.410156 -24.492188 40.035156 -24.507812 38.476562 -24.535156 C 36.96875 -24.558594 34.984375 -24.574219 32.523438 -24.574219 L 32.523438 -29.035156 L 36.988281 -29.035156 L 36.988281 -24.195312 L 32.523438 -24.195312 L 32.523438 -28.65625 L 62.089844 -28.65625 L 63.425781 -26.816406 C 65.375 -24.128906 66.617188 -21.160156 67.152344 -17.902344 C 67.695312 -14.621094 67.457031 -11.417969 66.4375 -8.292969 C 65.367188 -5.015625 63.375 -2.210938 60.457031 0.117188 C 57.582031 2.410156 53.851562 3.847656 49.269531 4.425781 C 47.839844 4.597656 45.953125 4.753906 43.617188 4.890625 C 41.296875 5.027344 38.75 5.109375 35.980469 5.136719 C 33.238281 5.164062 30.511719 5.148438 27.796875 5.097656 C 25.042969 5.042969 22.558594 4.933594 20.335938 4.769531 C 17.972656 4.59375 16.097656 4.347656 14.71875 4.035156 L 14.65625 4.019531 L 14.597656 4.003906 C 9.742188 2.757812 6.117188 0.214844 3.714844 -3.621094 C 1.539062 -7.09375 0.269531 -11.910156 -0.0898438 -18.0625 Z M 8.816406 -18.585938 C 9.089844 -13.953125 9.910156 -10.542969 11.277344 -8.359375 C 12.421875 -6.535156 14.265625 -5.296875 16.820312 -4.640625 L 15.707031 -0.316406 L 16.695312 -4.667969 C 17.640625 -4.453125 19.074219 -4.273438 20.996094 -4.132812 C 23.058594 -3.980469 25.382812 -3.878906 27.972656 -3.828125 C 30.597656 -3.773438 33.238281 -3.761719 35.894531 -3.789062 C 38.515625 -3.8125 40.917969 -3.890625 43.089844 -4.019531 C 45.25 -4.144531 46.933594 -4.28125 48.148438 -4.425781 C 51.074219 -4.796875 53.320312 -5.609375 54.890625 -6.859375 C 56.414062 -8.074219 57.433594 -9.476562 57.953125 -11.0625 C 58.519531 -12.804688 58.652344 -14.601562 58.347656 -16.449219 C 58.039062 -18.320312 57.324219 -20.03125 56.203125 -21.578125 L 59.816406 -24.195312 L 59.816406 -19.734375 L 28.0625 -19.734375 L 28.0625 -33.496094 L 32.523438 -33.496094 C 35.035156 -33.496094 37.070312 -33.484375 38.632812 -33.457031 C 40.140625 -33.429688 41.460938 -33.417969 42.601562 -33.417969 C 43.703125 -33.417969 44.867188 -33.441406 46.085938 -33.492188 C 48.941406 -33.644531 51.023438 -34.316406 52.328125 -35.507812 C 53.558594 -36.628906 54.253906 -38.117188 54.417969 -39.976562 C 54.613281 -42.210938 54.078125 -44.71875 52.816406 -47.496094 L 56.878906 -49.34375 L 55.546875 -45.082031 C 54.15625 -45.519531 52.46875 -45.828125 50.480469 -46.011719 C 48.316406 -46.210938 46.113281 -46.308594 43.871094 -46.308594 C 41.527344 -46.308594 39.359375 -46.28125 37.359375 -46.230469 C 35.285156 -46.175781 33.648438 -46.148438 32.445312 -46.148438 L 27.984375 -46.148438 L 27.984375 -59.199219 L 48.789062 -59.199219 C 51.316406 -59.199219 53.328125 -59.542969 54.832031 -60.226562 C 56.230469 -60.863281 57.296875 -61.671875 58.03125 -62.652344 C 58.867188 -63.765625 59.449219 -64.960938 59.777344 -66.242188 C 60.152344 -67.707031 60.332031 -69.136719 60.3125 -70.539062 C 60.289062 -71.980469 60.140625 -73.242188 59.859375 -74.324219 C 59.621094 -75.238281 59.414062 -75.824219 59.238281 -76.074219 L 62.910156 -78.617188 L 62.574219 -74.167969 C 59.820312 -74.375 56.527344 -74.554688 52.691406 -74.710938 C 48.835938 -74.871094 44.746094 -74.988281 40.417969 -75.066406 C 36.097656 -75.144531 31.792969 -75.15625 27.503906 -75.105469 C 23.199219 -75.054688 19.175781 -74.960938 15.425781 -74.832031 C 11.742188 -74.703125 8.625 -74.511719 6.078125 -74.253906 L 5.632812 -78.695312 L 10.0625 -78.167969 C 9.808594 -76.039062 9.59375 -73.355469 9.414062 -70.117188 C 9.230469 -66.820312 9.074219 -63.226562 8.941406 -59.347656 C 8.8125 -55.453125 8.707031 -51.496094 8.625 -47.472656 C 8.546875 -43.453125 8.507812 -39.570312 8.507812 -35.816406 C 8.507812 -32.0625 8.535156 -28.675781 8.585938 -25.660156 C 8.640625 -22.683594 8.714844 -20.324219 8.816406 -18.585938 Z M 8.816406 -18.585938 "/></g></g></g><g fill="#58675e" fill-opacity="1"><g transform="translate(152.557799, 96.39736)"><g><path d="M 60.257812 -48.457031 C 64.902344 -45.585938 68.378906 -42.191406 70.679688 -38.28125 C 72.988281 -34.363281 74.234375 -30.265625 74.425781 -25.980469 C 74.613281 -21.835938 73.992188 -17.839844 72.566406 -13.996094 C 71.148438 -10.171875 69.089844 -6.789062 66.398438 -3.847656 C 63.648438 -0.847656 60.484375 1.390625 56.910156 2.859375 C 54.5 3.820312 51.621094 4.621094 48.269531 5.257812 C 44.984375 5.878906 41.429688 6.261719 37.609375 6.402344 C 33.761719 6.542969 29.820312 6.347656 25.789062 5.8125 C 21.671875 5.265625 17.695312 4.269531 13.859375 2.828125 C 9.886719 1.335938 6.285156 -0.730469 3.050781 -3.363281 L 2.664062 -3.675781 L 2.359375 -4.070312 C 0.320312 -6.671875 -0.898438 -9.515625 -1.292969 -12.601562 C -1.671875 -15.578125 -1.375 -18.445312 -0.398438 -21.203125 C 0.585938 -23.980469 2.125 -26.34375 4.214844 -28.292969 C 6.441406 -30.367188 9.085938 -31.648438 12.152344 -32.132812 C 15.25 -32.625 18.515625 -32.027344 21.953125 -30.34375 C 25.363281 -28.664062 28.542969 -27.53125 31.488281 -26.945312 C 34.203125 -26.410156 36.359375 -26.320312 37.964844 -26.683594 C 38.417969 -26.785156 38.710938 -26.890625 38.84375 -26.992188 C 38.726562 -26.902344 38.648438 -26.777344 38.605469 -26.613281 C 38.621094 -26.675781 38.628906 -26.710938 38.628906 -26.726562 C 38.628906 -26.667969 38.636719 -26.601562 38.65625 -26.523438 C 38.699219 -26.363281 38.75 -26.257812 38.808594 -26.199219 C 38.824219 -26.183594 38.835938 -26.171875 38.84375 -26.167969 C 38.828125 -26.179688 38.800781 -26.195312 38.765625 -26.214844 C 38.625 -26.292969 38.433594 -26.367188 38.199219 -26.441406 C 37.507812 -26.65625 36.597656 -26.804688 35.460938 -26.882812 C 31.941406 -27.171875 28.445312 -27.773438 24.96875 -28.683594 C 21.355469 -29.632812 17.976562 -31.011719 14.832031 -32.824219 C 11.488281 -34.746094 8.664062 -37.269531 6.363281 -40.386719 C 4.015625 -43.574219 2.464844 -47.363281 1.710938 -51.761719 C 1.433594 -53.492188 1.40625 -55.511719 1.625 -57.820312 C 1.847656 -60.113281 2.402344 -62.519531 3.289062 -65.03125 C 4.203125 -67.617188 5.574219 -70.144531 7.394531 -72.617188 C 9.261719 -75.148438 11.703125 -77.429688 14.722656 -79.460938 C 17.730469 -81.488281 21.382812 -83.066406 25.675781 -84.199219 C 28.578125 -85.011719 31.667969 -85.523438 34.945312 -85.726562 C 38.132812 -85.925781 41.308594 -85.882812 44.46875 -85.597656 C 47.691406 -85.308594 50.710938 -84.753906 53.527344 -83.929688 C 56.492188 -83.066406 59.007812 -81.957031 61.074219 -80.601562 C 64.417969 -78.351562 66.871094 -75.886719 68.429688 -73.207031 C 70.0625 -70.40625 70.859375 -67.574219 70.820312 -64.714844 C 70.785156 -61.949219 70.121094 -59.363281 68.824219 -56.949219 C 67.589844 -54.652344 65.972656 -52.691406 63.972656 -51.074219 C 61.902344 -49.394531 59.605469 -48.265625 57.082031 -47.691406 L 54.378906 -47.074219 L 52.625 -49.222656 C 51.863281 -50.160156 50.742188 -51.003906 49.269531 -51.75 C 47.550781 -52.621094 45.6875 -53.292969 43.675781 -53.765625 C 41.679688 -54.238281 39.804688 -54.460938 38.054688 -54.441406 C 36.609375 -54.421875 35.515625 -54.230469 34.765625 -53.863281 C 34.742188 -53.851562 34.726562 -53.84375 34.710938 -53.835938 C 34.71875 -53.839844 34.726562 -53.847656 34.742188 -53.855469 C 34.8125 -53.914062 34.878906 -53.988281 34.941406 -54.082031 C 35.082031 -54.28125 35.152344 -54.472656 35.160156 -54.644531 L 30.699219 -54.816406 L 35.164062 -54.816406 C 35.164062 -55.132812 35.082031 -55.441406 34.925781 -55.742188 C 34.796875 -55.980469 34.652344 -56.160156 34.488281 -56.285156 C 34.417969 -56.339844 34.367188 -56.371094 34.339844 -56.386719 C 34.414062 -56.351562 34.527344 -56.3125 34.671875 -56.265625 C 35.132812 -56.128906 35.75 -56.011719 36.519531 -55.910156 C 42.691406 -55.125 47.800781 -53.9375 51.847656 -52.347656 C 55.808594 -50.789062 58.625 -49.488281 60.289062 -48.4375 Z M 55.535156 -40.886719 C 54.34375 -41.636719 52.027344 -42.6875 48.585938 -44.039062 C 45.226562 -45.359375 40.816406 -46.367188 35.355469 -47.0625 C 32.570312 -47.425781 30.496094 -48.121094 29.132812 -49.144531 C 28.230469 -49.824219 27.53125 -50.632812 27.03125 -51.574219 C 26.503906 -52.574219 26.238281 -53.65625 26.238281 -54.816406 L 26.238281 -54.902344 L 26.242188 -54.988281 C 26.300781 -56.539062 26.75 -57.921875 27.589844 -59.140625 C 28.382812 -60.292969 29.464844 -61.203125 30.839844 -61.878906 C 32.789062 -62.835938 35.15625 -63.328125 37.941406 -63.363281 C 40.421875 -63.394531 43.019531 -63.089844 45.726562 -62.453125 C 48.425781 -61.816406 50.949219 -60.902344 53.304688 -59.710938 C 55.902344 -58.394531 57.984375 -56.777344 59.546875 -54.859375 L 56.085938 -52.039062 L 55.09375 -56.390625 C 56.269531 -56.660156 57.355469 -57.199219 58.355469 -58.007812 C 59.421875 -58.871094 60.292969 -59.929688 60.960938 -61.171875 C 61.566406 -62.304688 61.878906 -63.523438 61.898438 -64.832031 C 61.914062 -66.042969 61.519531 -67.339844 60.71875 -68.714844 C 59.84375 -70.214844 58.332031 -71.6875 56.175781 -73.140625 C 54.855469 -74.007812 53.140625 -74.746094 51.027344 -75.363281 C 48.769531 -76.023438 46.3125 -76.472656 43.667969 -76.710938 C 40.957031 -76.953125 38.234375 -76.992188 35.5 -76.820312 C 32.851562 -76.652344 30.335938 -76.238281 27.953125 -75.570312 C 24.628906 -74.695312 21.882812 -73.523438 19.707031 -72.058594 C 17.542969 -70.601562 15.832031 -69.023438 14.578125 -67.320312 C 13.28125 -65.5625 12.324219 -63.804688 11.703125 -62.054688 C 11.058594 -60.230469 10.660156 -58.535156 10.511719 -56.96875 C 10.363281 -55.417969 10.359375 -54.183594 10.507812 -53.269531 C 11.023438 -50.261719 12.035156 -47.734375 13.546875 -45.683594 C 15.109375 -43.570312 17.019531 -41.859375 19.28125 -40.558594 C 21.738281 -39.144531 24.390625 -38.0625 27.230469 -37.316406 C 30.207031 -36.539062 33.160156 -36.027344 36.097656 -35.785156 C 40.125 -35.5 43.078125 -34.457031 44.964844 -32.664062 C 46.132812 -31.550781 46.910156 -30.25 47.296875 -28.769531 C 47.664062 -27.351562 47.644531 -25.867188 47.230469 -24.316406 C 46.761719 -22.566406 45.8125 -21.125 44.375 -19.988281 C 43.183594 -19.050781 41.703125 -18.378906 39.933594 -17.980469 C 37.097656 -17.335938 33.703125 -17.410156 29.753906 -18.191406 C 26.035156 -18.929688 22.128906 -20.308594 18.027344 -22.328125 C 16.28125 -23.183594 14.789062 -23.515625 13.550781 -23.320312 C 12.28125 -23.117188 11.195312 -22.597656 10.300781 -21.765625 C 9.273438 -20.804688 8.511719 -19.625 8.015625 -18.222656 C 7.511719 -16.800781 7.359375 -15.304688 7.558594 -13.734375 C 7.746094 -12.273438 8.355469 -10.886719 9.382812 -9.574219 L 5.871094 -6.824219 L 8.6875 -10.28125 C 11.167969 -8.261719 13.9375 -6.675781 17 -5.527344 C 20.199219 -4.324219 23.519531 -3.492188 26.964844 -3.035156 C 30.496094 -2.566406 33.933594 -2.394531 37.28125 -2.515625 C 40.652344 -2.640625 43.761719 -2.972656 46.609375 -3.511719 C 49.390625 -4.039062 51.695312 -4.667969 53.519531 -5.398438 C 55.863281 -6.359375 57.964844 -7.855469 59.816406 -9.875 C 61.722656 -11.957031 63.183594 -14.367188 64.199219 -17.101562 C 65.207031 -19.8125 65.644531 -22.640625 65.511719 -25.582031 C 65.386719 -28.386719 64.546875 -31.109375 62.988281 -33.75 C 61.433594 -36.398438 58.957031 -38.769531 55.5625 -40.867188 Z M 55.535156 -40.886719 "/></g></g></g><g fill="#58675e" fill-opacity="1"><g transform="translate(227.284888, 96.39736)"><g><path d="M 60.257812 -48.457031 C 64.902344 -45.585938 68.378906 -42.191406 70.679688 -38.28125 C 72.988281 -34.363281 74.234375 -30.265625 74.425781 -25.980469 C 74.613281 -21.835938 73.992188 -17.839844 72.566406 -13.996094 C 71.148438 -10.171875 69.089844 -6.789062 66.398438 -3.847656 C 63.648438 -0.847656 60.484375 1.390625 56.910156 2.859375 C 54.5 3.820312 51.621094 4.621094 48.269531 5.257812 C 44.984375 5.878906 41.429688 6.261719 37.609375 6.402344 C 33.761719 6.542969 29.820312 6.347656 25.789062 5.8125 C 21.671875 5.265625 17.695312 4.269531 13.859375 2.828125 C 9.886719 1.335938 6.285156 -0.730469 3.050781 -3.363281 L 2.664062 -3.675781 L 2.359375 -4.070312 C 0.320312 -6.671875 -0.898438 -9.515625 -1.292969 -12.601562 C -1.671875 -15.578125 -1.375 -18.445312 -0.398438 -21.203125 C 0.585938 -23.980469 2.125 -26.34375 4.214844 -28.292969 C 6.441406 -30.367188 9.085938 -31.648438 12.152344 -32.132812 C 15.25 -32.625 18.515625 -32.027344 21.953125 -30.34375 C 25.363281 -28.664062 28.542969 -27.53125 31.488281 -26.945312 C 34.203125 -26.410156 36.359375 -26.320312 37.964844 -26.683594 C 38.417969 -26.785156 38.710938 -26.890625 38.84375 -26.992188 C 38.726562 -26.902344 38.648438 -26.777344 38.605469 -26.613281 C 38.621094 -26.675781 38.628906 -26.710938 38.628906 -26.726562 C 38.628906 -26.667969 38.636719 -26.601562 38.65625 -26.523438 C 38.699219 -26.363281 38.75 -26.257812 38.808594 -26.199219 C 38.824219 -26.183594 38.835938 -26.171875 38.84375 -26.167969 C 38.828125 -26.179688 38.800781 -26.195312 38.765625 -26.214844 C 38.625 -26.292969 38.433594 -26.367188 38.199219 -26.441406 C 37.507812 -26.65625 36.597656 -26.804688 35.460938 -26.882812 C 31.941406 -27.171875 28.445312 -27.773438 24.96875 -28.683594 C 21.355469 -29.632812 17.976562 -31.011719 14.832031 -32.824219 C 11.488281 -34.746094 8.664062 -37.269531 6.363281 -40.386719 C 4.015625 -43.574219 2.464844 -47.363281 1.710938 -51.761719 C 1.433594 -53.492188 1.40625 -55.511719 1.625 -57.820312 C 1.847656 -60.113281 2.402344 -62.519531 3.289062 -65.03125 C 4.203125 -67.617188 5.574219 -70.144531 7.394531 -72.617188 C 9.261719 -75.148438 11.703125 -77.429688 14.722656 -79.460938 C 17.730469 -81.488281 21.382812 -83.066406 25.675781 -84.199219 C 28.578125 -85.011719 31.667969 -85.523438 34.945312 -85.726562 C 38.132812 -85.925781 41.308594 -85.882812 44.46875 -85.597656 C 47.691406 -85.308594 50.710938 -84.753906 53.527344 -83.929688 C 56.492188 -83.066406 59.007812 -81.957031 61.074219 -80.601562 C 64.417969 -78.351562 66.871094 -75.886719 68.429688 -73.207031 C 70.0625 -70.40625 70.859375 -67.574219 70.820312 -64.714844 C 70.785156 -61.949219 70.121094 -59.363281 68.824219 -56.949219 C 67.589844 -54.652344 65.972656 -52.691406 63.972656 -51.074219 C 61.902344 -49.394531 59.605469 -48.265625 57.082031 -47.691406 L 54.378906 -47.074219 L 52.625 -49.222656 C 51.863281 -50.160156 50.742188 -51.003906 49.269531 -51.75 C 47.550781 -52.621094 45.6875 -53.292969 43.675781 -53.765625 C 41.679688 -54.238281 39.804688 -54.460938 38.054688 -54.441406 C 36.609375 -54.421875 35.515625 -54.230469 34.765625 -53.863281 C 34.742188 -53.851562 34.726562 -53.84375 34.710938 -53.835938 C 34.71875 -53.839844 34.726562 -53.847656 34.742188 -53.855469 C 34.8125 -53.914062 34.878906 -53.988281 34.941406 -54.082031 C 35.082031 -54.28125 35.152344 -54.472656 35.160156 -54.644531 L 30.699219 -54.816406 L 35.164062 -54.816406 C 35.164062 -55.132812 35.082031 -55.441406 34.925781 -55.742188 C 34.796875 -55.980469 34.652344 -56.160156 34.488281 -56.285156 C 34.417969 -56.339844 34.367188 -56.371094 34.339844 -56.386719 C 34.414062 -56.351562 34.527344 -56.3125 34.671875 -56.265625 C 35.132812 -56.128906 35.75 -56.011719 36.519531 -55.910156 C 42.691406 -55.125 47.800781 -53.9375 51.847656 -52.347656 C 55.808594 -50.789062 58.625 -49.488281 60.289062 -48.4375 Z M 55.535156 -40.886719 C 54.34375 -41.636719 52.027344 -42.6875 48.585938 -44.039062 C 45.226562 -45.359375 40.816406 -46.367188 35.355469 -47.0625 C 32.570312 -47.425781 30.496094 -48.121094 29.132812 -49.144531 C 28.230469 -49.824219 27.53125 -50.632812 27.03125 -51.574219 C 26.503906 -52.574219 26.238281 -53.65625 26.238281 -54.816406 L 26.238281 -54.902344 L 26.242188 -54.988281 C 26.300781 -56.539062 26.75 -57.921875 27.589844 -59.140625 C 28.382812 -60.292969 29.464844 -61.203125 30.839844 -61.878906 C 32.789062 -62.835938 35.15625 -63.328125 37.941406 -63.363281 C 40.421875 -63.394531 43.019531 -63.089844 45.726562 -62.453125 C 48.425781 -61.816406 50.949219 -60.902344 53.304688 -59.710938 C 55.902344 -58.394531 57.984375 -56.777344 59.546875 -54.859375 L 56.085938 -52.039062 L 55.09375 -56.390625 C 56.269531 -56.660156 57.355469 -57.199219 58.355469 -58.007812 C 59.421875 -58.871094 60.292969 -59.929688 60.960938 -61.171875 C 61.566406 -62.304688 61.878906 -63.523438 61.898438 -64.832031 C 61.914062 -66.042969 61.519531 -67.339844 60.71875 -68.714844 C 59.84375 -70.214844 58.332031 -71.6875 56.175781 -73.140625 C 54.855469 -74.007812 53.140625 -74.746094 51.027344 -75.363281 C 48.769531 -76.023438 46.3125 -76.472656 43.667969 -76.710938 C 40.957031 -76.953125 38.234375 -76.992188 35.5 -76.820312 C 32.851562 -76.652344 30.335938 -76.238281 27.953125 -75.570312 C 24.628906 -74.695312 21.882812 -73.523438 19.707031 -72.058594 C 17.542969 -70.601562 15.832031 -69.023438 14.578125 -67.320312 C 13.28125 -65.5625 12.324219 -63.804688 11.703125 -62.054688 C 11.058594 -60.230469 10.660156 -58.535156 10.511719 -56.96875 C 10.363281 -55.417969 10.359375 -54.183594 10.507812 -53.269531 C 11.023438 -50.261719 12.035156 -47.734375 13.546875 -45.683594 C 15.109375 -43.570312 17.019531 -41.859375 19.28125 -40.558594 C 21.738281 -39.144531 24.390625 -38.0625 27.230469 -37.316406 C 30.207031 -36.539062 33.160156 -36.027344 36.097656 -35.785156 C 40.125 -35.5 43.078125 -34.457031 44.964844 -32.664062 C 46.132812 -31.550781 46.910156 -30.25 47.296875 -28.769531 C 47.664062 -27.351562 47.644531 -25.867188 47.230469 -24.316406 C 46.761719 -22.566406 45.8125 -21.125 44.375 -19.988281 C 43.183594 -19.050781 41.703125 -18.378906 39.933594 -17.980469 C 37.097656 -17.335938 33.703125 -17.410156 29.753906 -18.191406 C 26.035156 -18.929688 22.128906 -20.308594 18.027344 -22.328125 C 16.28125 -23.183594 14.789062 -23.515625 13.550781 -23.320312 C 12.28125 -23.117188 11.195312 -22.597656 10.300781 -21.765625 C 9.273438 -20.804688 8.511719 -19.625 8.015625 -18.222656 C 7.511719 -16.800781 7.359375 -15.304688 7.558594 -13.734375 C 7.746094 -12.273438 8.355469 -10.886719 9.382812 -9.574219 L 5.871094 -6.824219 L 8.6875 -10.28125 C 11.167969 -8.261719 13.9375 -6.675781 17 -5.527344 C 20.199219 -4.324219 23.519531 -3.492188 26.964844 -3.035156 C 30.496094 -2.566406 33.933594 -2.394531 37.28125 -2.515625 C 40.652344 -2.640625 43.761719 -2.972656 46.609375 -3.511719 C 49.390625 -4.039062 51.695312 -4.667969 53.519531 -5.398438 C 55.863281 -6.359375 57.964844 -7.855469 59.816406 -9.875 C 61.722656 -11.957031 63.183594 -14.367188 64.199219 -17.101562 C 65.207031 -19.8125 65.644531 -22.640625 65.511719 -25.582031 C 65.386719 -28.386719 64.546875 -31.109375 62.988281 -33.75 C 61.433594 -36.398438 58.957031 -38.769531 55.5625 -40.867188 Z M 55.535156 -40.886719 "/></g></g></g><g fill="#58675e" fill-opacity="1"><g transform="translate(302.011988, 96.39736)"><g><path d="M 43.824219 -85.378906 C 49.691406 -85.4375 54.871094 -84.761719 59.367188 -83.351562 C 63.855469 -81.941406 67.714844 -80.097656 70.949219 -77.824219 C 74.132812 -75.582031 76.792969 -73.171875 78.921875 -70.589844 C 80.992188 -68.082031 82.640625 -65.679688 83.863281 -63.378906 C 85.039062 -61.171875 85.898438 -59.34375 86.445312 -57.890625 C 88.449219 -52.390625 89.636719 -46.851562 90.011719 -41.269531 C 90.390625 -35.574219 89.707031 -29.847656 87.964844 -24.089844 C 85.554688 -16.363281 81.753906 -10.074219 76.566406 -5.226562 C 71.371094 -0.378906 64.863281 2.972656 57.03125 4.820312 C 50.855469 6.304688 44.75 6.777344 38.707031 6.230469 C 32.570312 5.675781 26.597656 3.886719 20.789062 0.867188 C 15.140625 -2.046875 10.613281 -5.871094 7.207031 -10.601562 C 3.863281 -15.246094 1.515625 -20.59375 0.167969 -26.632812 C -0.6875 -30.328125 -1.183594 -34.113281 -1.324219 -37.992188 C -1.46875 -41.886719 -1.238281 -45.671875 -0.636719 -49.351562 C -0.0117188 -53.144531 1.019531 -56.578125 2.46875 -59.652344 C 3.847656 -62.703125 5.636719 -65.714844 7.832031 -68.691406 C 10.097656 -71.761719 12.878906 -74.546875 16.183594 -77.054688 C 19.542969 -79.605469 23.523438 -81.632812 28.125 -83.136719 C 32.699219 -84.632812 37.949219 -85.378906 43.871094 -85.378906 Z M 43.871094 -76.453125 C 38.894531 -76.453125 34.570312 -75.851562 30.898438 -74.652344 C 27.246094 -73.457031 24.140625 -71.890625 21.578125 -69.945312 C 18.957031 -67.957031 16.769531 -65.773438 15.015625 -63.394531 C 13.191406 -60.921875 11.699219 -58.410156 10.542969 -55.851562 C 9.449219 -53.53125 8.660156 -50.882812 8.171875 -47.90625 C 7.664062 -44.816406 7.472656 -41.621094 7.59375 -38.320312 C 7.714844 -35.007812 8.144531 -31.761719 8.878906 -28.578125 C 9.960938 -23.726562 11.820312 -19.472656 14.449219 -15.816406 C 17.023438 -12.242188 20.507812 -9.320312 24.90625 -7.054688 C 29.675781 -4.574219 34.542969 -3.109375 39.511719 -2.660156 C 44.578125 -2.199219 49.734375 -2.605469 54.980469 -3.867188 C 61.273438 -5.351562 66.4375 -7.980469 70.472656 -11.75 C 74.511719 -15.523438 77.496094 -20.5 79.421875 -26.679688 C 80.851562 -31.394531 81.414062 -36.0625 81.105469 -40.675781 C 80.789062 -45.410156 79.785156 -50.105469 78.085938 -54.757812 C 77.679688 -55.84375 76.980469 -57.320312 75.984375 -59.183594 C 75.042969 -60.957031 73.726562 -62.863281 72.042969 -64.90625 C 70.417969 -66.871094 68.34375 -68.746094 65.8125 -70.523438 C 63.335938 -72.265625 60.296875 -73.703125 56.695312 -74.835938 C 53.097656 -75.960938 48.835938 -76.503906 43.914062 -76.453125 Z M 44.265625 -48.054688 C 43.191406 -48.054688 42.191406 -47.753906 41.265625 -47.148438 C 40.339844 -46.546875 39.578125 -45.574219 38.984375 -44.238281 C 38.328125 -42.769531 38.085938 -40.816406 38.246094 -38.375 C 38.40625 -36.097656 38.859375 -34.386719 39.617188 -33.242188 C 40.351562 -32.132812 41.152344 -31.375 42.015625 -30.960938 C 42.914062 -30.535156 43.65625 -30.34375 44.242188 -30.390625 C 45.015625 -30.449219 45.839844 -30.722656 46.714844 -31.214844 C 47.457031 -31.632812 48.140625 -32.386719 48.765625 -33.476562 C 49.445312 -34.660156 49.84375 -36.378906 49.964844 -38.632812 C 50.128906 -40.960938 49.894531 -42.832031 49.269531 -44.242188 C 48.683594 -45.5625 47.929688 -46.542969 47.011719 -47.175781 C 46.160156 -47.761719 45.246094 -48.054688 44.265625 -48.054688 Z M 44.265625 -56.980469 C 47.09375 -56.980469 49.695312 -56.160156 52.074219 -54.527344 C 54.378906 -52.9375 56.164062 -50.714844 57.429688 -47.859375 C 58.65625 -45.09375 59.136719 -41.859375 58.875 -38.15625 C 58.679688 -34.488281 57.890625 -31.449219 56.507812 -29.035156 C 55.066406 -26.527344 53.265625 -24.664062 51.097656 -23.441406 C 49.066406 -22.296875 47.007812 -21.644531 44.925781 -21.492188 C 42.761719 -21.324219 40.515625 -21.796875 38.183594 -22.902344 C 35.824219 -24.023438 33.820312 -25.828125 32.175781 -28.316406 C 30.550781 -30.769531 29.609375 -33.925781 29.34375 -37.78125 C 29.082031 -41.6875 29.578125 -45.050781 30.828125 -47.863281 C 32.136719 -50.808594 33.992188 -53.066406 36.398438 -54.628906 C 38.804688 -56.195312 41.425781 -56.980469 44.265625 -56.980469 Z M 44.265625 -56.980469 "/></g></g></g><g fill="#58675e" fill-opacity="1"><g transform="translate(390.859472, 96.39736)"><g><path d="M 47.261719 -44.582031 L 47.261719 -75.878906 L 48.308594 -77.125 C 50.75 -80.027344 53.566406 -82.109375 56.753906 -83.363281 C 59.894531 -84.601562 63.117188 -85.066406 66.410156 -84.765625 C 69.632812 -84.46875 72.605469 -83.558594 75.324219 -82.03125 C 78.128906 -80.460938 80.40625 -78.335938 82.152344 -75.664062 C 83.984375 -72.859375 84.902344 -69.664062 84.902344 -66.082031 L 84.941406 -59.324219 L 85.023438 -49.300781 L 85.101562 -37.394531 C 85.128906 -33.195312 85.128906 -29.039062 85.101562 -24.921875 C 85.074219 -20.789062 85.007812 -16.894531 84.902344 -13.238281 C 84.792969 -9.542969 84.628906 -6.308594 84.414062 -3.539062 L 84.285156 -1.894531 L 83.121094 -0.730469 C 80.929688 1.457031 78.113281 3.125 74.671875 4.273438 C 71.355469 5.378906 67.785156 5.824219 63.964844 5.605469 C 60.105469 5.386719 56.328125 4.359375 52.636719 2.53125 C 48.835938 0.648438 45.507812 -2.253906 42.644531 -6.175781 C 41.464844 -7.808594 40.246094 -9.636719 39 -11.660156 C 37.777344 -13.640625 36.609375 -15.625 35.496094 -17.609375 C 34.402344 -19.558594 33.425781 -21.320312 32.570312 -22.902344 C 31.800781 -24.320312 31.222656 -25.304688 30.839844 -25.859375 L 30.550781 -26.273438 L 30.363281 -26.742188 C 30.449219 -26.535156 30.5625 -26.347656 30.714844 -26.175781 C 30.453125 -26.472656 30.210938 -26.769531 29.988281 -27.070312 L 33.554688 -29.75 L 33.554688 -25.285156 C 33.871094 -25.285156 34.152344 -25.316406 34.402344 -25.378906 C 33.941406 -25.265625 33.472656 -25.207031 33 -25.207031 L 33 -29.667969 L 37.460938 -29.769531 C 37.515625 -27.433594 37.59375 -25.300781 37.695312 -23.363281 L 38.011719 -17.496094 C 38.121094 -15.503906 38.191406 -13.378906 38.21875 -11.121094 C 38.242188 -8.878906 38.230469 -6.308594 38.175781 -3.40625 L 38.140625 -1.339844 L 36.539062 -0.0351562 C 33.4375 2.496094 30.21875 4.1875 26.882812 5.039062 C 23.589844 5.878906 20.40625 6.050781 17.335938 5.554688 C 14.289062 5.0625 11.53125 4.050781 9.066406 2.519531 C 6.574219 0.96875 4.566406 -0.925781 3.046875 -3.171875 C 1.398438 -5.609375 0.535156 -8.210938 0.457031 -10.980469 C 0.351562 -14.265625 0.257812 -17.886719 0.179688 -21.84375 L -0.0195312 -34.160156 C -0.0742188 -38.445312 -0.0976562 -42.660156 -0.0976562 -46.804688 L -0.0585938 -58.519531 C -0.03125 -62.253906 0.0351562 -65.554688 0.140625 -68.429688 C 0.25 -71.355469 0.390625 -73.636719 0.558594 -75.265625 L 0.746094 -77.074219 L 2.140625 -78.238281 C 4.464844 -80.175781 7.277344 -81.707031 10.570312 -82.835938 C 13.855469 -83.964844 17.285156 -84.480469 20.859375 -84.386719 C 24.605469 -84.289062 28.175781 -83.332031 31.570312 -81.523438 C 35.074219 -79.652344 37.992188 -76.78125 40.320312 -72.898438 C 41.714844 -70.535156 42.960938 -68.390625 44.058594 -66.464844 L 47.234375 -60.867188 L 50.457031 -55.140625 L 54.316406 -48.261719 L 54.367188 -48.164062 C 54.457031 -47.984375 54.550781 -47.816406 54.65625 -47.652344 C 54.859375 -47.328125 55.054688 -47.019531 55.230469 -46.722656 L 51.40625 -44.425781 L 48.25 -47.582031 C 49.175781 -48.503906 50.28125 -48.964844 51.566406 -48.964844 C 50.386719 -48.964844 49.386719 -48.558594 48.566406 -47.738281 L 51.722656 -44.582031 Z M 56.1875 -44.582031 L 56.1875 -42.734375 L 54.878906 -41.429688 C 53.953125 -40.503906 52.851562 -40.042969 51.566406 -40.042969 C 52.742188 -40.042969 53.742188 -40.449219 54.5625 -41.269531 L 50.519531 -37.226562 L 47.578125 -42.128906 C 47.441406 -42.359375 47.289062 -42.605469 47.125 -42.863281 C 46.859375 -43.28125 46.609375 -43.71875 46.382812 -44.175781 L 50.375 -46.171875 L 46.484375 -43.984375 L 42.675781 -50.765625 L 39.472656 -56.460938 L 36.304688 -62.050781 C 35.230469 -63.933594 34.019531 -66.019531 32.664062 -68.308594 C 31.183594 -70.773438 29.421875 -72.554688 27.371094 -73.648438 C 25.214844 -74.796875 22.96875 -75.402344 20.628906 -75.464844 C 18.125 -75.53125 15.734375 -75.171875 13.464844 -74.394531 C 11.207031 -73.621094 9.335938 -72.617188 7.855469 -71.378906 L 4.996094 -74.808594 L 9.4375 -74.347656 C 9.289062 -72.914062 9.164062 -70.828125 9.058594 -68.097656 C 8.957031 -65.3125 8.890625 -62.109375 8.867188 -58.492188 L 8.824219 -46.804688 C 8.824219 -42.699219 8.851562 -38.53125 8.90625 -34.304688 L 9.101562 -22.023438 C 9.179688 -18.101562 9.273438 -14.503906 9.378906 -11.230469 C 9.40625 -10.191406 9.761719 -9.175781 10.4375 -8.171875 C 11.246094 -6.980469 12.359375 -5.941406 13.78125 -5.058594 C 15.230469 -4.15625 16.886719 -3.558594 18.757812 -3.253906 C 20.609375 -2.957031 22.582031 -3.074219 24.679688 -3.609375 C 26.738281 -4.136719 28.8125 -5.246094 30.894531 -6.949219 L 33.714844 -3.492188 L 29.253906 -3.574219 C 29.304688 -6.382812 29.320312 -8.863281 29.292969 -11.011719 C 29.265625 -13.144531 29.203125 -15.144531 29.101562 -17.011719 L 28.78125 -22.886719 C 28.675781 -24.917969 28.59375 -27.144531 28.539062 -29.570312 L 28.4375 -34.132812 L 33 -34.132812 C 32.742188 -34.132812 32.484375 -34.101562 32.234375 -34.039062 C 32.699219 -34.152344 33.136719 -34.210938 33.554688 -34.210938 L 35.789062 -34.210938 L 37.125 -32.425781 C 37.21875 -32.304688 37.320312 -32.179688 37.429688 -32.050781 C 37.949219 -31.457031 38.355469 -30.792969 38.652344 -30.058594 L 34.507812 -28.398438 L 38.175781 -30.941406 C 38.746094 -30.121094 39.492188 -28.859375 40.414062 -27.15625 C 41.25 -25.617188 42.203125 -23.890625 43.277344 -21.976562 C 44.332031 -20.101562 45.4375 -18.222656 46.597656 -16.34375 C 47.730469 -14.507812 48.816406 -12.871094 49.851562 -11.4375 C 51.855469 -8.691406 54.105469 -6.703125 56.601562 -5.464844 C 59.203125 -4.175781 61.824219 -3.457031 64.472656 -3.304688 C 67.15625 -3.152344 69.613281 -3.449219 71.851562 -4.195312 C 73.960938 -4.898438 75.613281 -5.847656 76.808594 -7.042969 L 79.964844 -3.886719 L 75.515625 -4.234375 C 75.722656 -6.859375 75.875 -9.949219 75.980469 -13.496094 C 76.085938 -17.085938 76.148438 -20.914062 76.175781 -24.976562 C 76.203125 -29.058594 76.203125 -33.175781 76.175781 -37.335938 L 76.097656 -49.230469 L 76.019531 -59.273438 L 75.976562 -66.082031 C 75.976562 -67.894531 75.546875 -69.457031 74.683594 -70.78125 C 73.734375 -72.230469 72.492188 -73.386719 70.957031 -74.25 C 69.34375 -75.15625 67.554688 -75.699219 65.59375 -75.878906 C 63.707031 -76.050781 61.847656 -75.777344 60.019531 -75.058594 C 58.238281 -74.355469 56.609375 -73.128906 55.136719 -71.378906 L 51.722656 -74.253906 L 56.1875 -74.253906 Z M 56.1875 -44.582031 "/></g></g></g><g fill="#58675e" fill-opacity="1"><g transform="translate(476.454499, 96.39736)"><g><path d="M 60.257812 -48.457031 C 64.902344 -45.585938 68.378906 -42.191406 70.679688 -38.28125 C 72.988281 -34.363281 74.234375 -30.265625 74.425781 -25.980469 C 74.613281 -21.835938 73.992188 -17.839844 72.566406 -13.996094 C 71.148438 -10.171875 69.089844 -6.789062 66.398438 -3.847656 C 63.648438 -0.847656 60.484375 1.390625 56.910156 2.859375 C 54.5 3.820312 51.621094 4.621094 48.269531 5.257812 C 44.984375 5.878906 41.429688 6.261719 37.609375 6.402344 C 33.761719 6.542969 29.820312 6.347656 25.789062 5.8125 C 21.671875 5.265625 17.695312 4.269531 13.859375 2.828125 C 9.886719 1.335938 6.285156 -0.730469 3.050781 -3.363281 L 2.664062 -3.675781 L 2.359375 -4.070312 C 0.320312 -6.671875 -0.898438 -9.515625 -1.292969 -12.601562 C -1.671875 -15.578125 -1.375 -18.445312 -0.398438 -21.203125 C 0.585938 -23.980469 2.125 -26.34375 4.214844 -28.292969 C 6.441406 -30.367188 9.085938 -31.648438 12.152344 -32.132812 C 15.25 -32.625 18.515625 -32.027344 21.953125 -30.34375 C 25.363281 -28.664062 28.542969 -27.53125 31.488281 -26.945312 C 34.203125 -26.410156 36.359375 -26.320312 37.964844 -26.683594 C 38.417969 -26.785156 38.710938 -26.890625 38.84375 -26.992188 C 38.726562 -26.902344 38.648438 -26.777344 38.605469 -26.613281 C 38.621094 -26.675781 38.628906 -26.710938 38.628906 -26.726562 C 38.628906 -26.667969 38.636719 -26.601562 38.65625 -26.523438 C 38.699219 -26.363281 38.75 -26.257812 38.808594 -26.199219 C 38.824219 -26.183594 38.835938 -26.171875 38.84375 -26.167969 C 38.828125 -26.179688 38.800781 -26.195312 38.765625 -26.214844 C 38.625 -26.292969 38.433594 -26.367188 38.199219 -26.441406 C 37.507812 -26.65625 36.597656 -26.804688 35.460938 -26.882812 C 31.941406 -27.171875 28.445312 -27.773438 24.96875 -28.683594 C 21.355469 -29.632812 17.976562 -31.011719 14.832031 -32.824219 C 11.488281 -34.746094 8.664062 -37.269531 6.363281 -40.386719 C 4.015625 -43.574219 2.464844 -47.363281 1.710938 -51.761719 C 1.433594 -53.492188 1.40625 -55.511719 1.625 -57.820312 C 1.847656 -60.113281 2.402344 -62.519531 3.289062 -65.03125 C 4.203125 -67.617188 5.574219 -70.144531 7.394531 -72.617188 C 9.261719 -75.148438 11.703125 -77.429688 14.722656 -79.460938 C 17.730469 -81.488281 21.382812 -83.066406 25.675781 -84.199219 C 28.578125 -85.011719 31.667969 -85.523438 34.945312 -85.726562 C 38.132812 -85.925781 41.308594 -85.882812 44.46875 -85.597656 C 47.691406 -85.308594 50.710938 -84.753906 53.527344 -83.929688 C 56.492188 -83.066406 59.007812 -81.957031 61.074219 -80.601562 C 64.417969 -78.351562 66.871094 -75.886719 68.429688 -73.207031 C 70.0625 -70.40625 70.859375 -67.574219 70.820312 -64.714844 C 70.785156 -61.949219 70.121094 -59.363281 68.824219 -56.949219 C 67.589844 -54.652344 65.972656 -52.691406 63.972656 -51.074219 C 61.902344 -49.394531 59.605469 -48.265625 57.082031 -47.691406 L 54.378906 -47.074219 L 52.625 -49.222656 C 51.863281 -50.160156 50.742188 -51.003906 49.269531 -51.75 C 47.550781 -52.621094 45.6875 -53.292969 43.675781 -53.765625 C 41.679688 -54.238281 39.804688 -54.460938 38.054688 -54.441406 C 36.609375 -54.421875 35.515625 -54.230469 34.765625 -53.863281 C 34.742188 -53.851562 34.726562 -53.84375 34.710938 -53.835938 C 34.71875 -53.839844 34.726562 -53.847656 34.742188 -53.855469 C 34.8125 -53.914062 34.878906 -53.988281 34.941406 -54.082031 C 35.082031 -54.28125 35.152344 -54.472656 35.160156 -54.644531 L 30.699219 -54.816406 L 35.164062 -54.816406 C 35.164062 -55.132812 35.082031 -55.441406 34.925781 -55.742188 C 34.796875 -55.980469 34.652344 -56.160156 34.488281 -56.285156 C 34.417969 -56.339844 34.367188 -56.371094 34.339844 -56.386719 C 34.414062 -56.351562 34.527344 -56.3125 34.671875 -56.265625 C 35.132812 -56.128906 35.75 -56.011719 36.519531 -55.910156 C 42.691406 -55.125 47.800781 -53.9375 51.847656 -52.347656 C 55.808594 -50.789062 58.625 -49.488281 60.289062 -48.4375 Z M 55.535156 -40.886719 C 54.34375 -41.636719 52.027344 -42.6875 48.585938 -44.039062 C 45.226562 -45.359375 40.816406 -46.367188 35.355469 -47.0625 C 32.570312 -47.425781 30.496094 -48.121094 29.132812 -49.144531 C 28.230469 -49.824219 27.53125 -50.632812 27.03125 -51.574219 C 26.503906 -52.574219 26.238281 -53.65625 26.238281 -54.816406 L 26.238281 -54.902344 L 26.242188 -54.988281 C 26.300781 -56.539062 26.75 -57.921875 27.589844 -59.140625 C 28.382812 -60.292969 29.464844 -61.203125 30.839844 -61.878906 C 32.789062 -62.835938 35.15625 -63.328125 37.941406 -63.363281 C 40.421875 -63.394531 43.019531 -63.089844 45.726562 -62.453125 C 48.425781 -61.816406 50.949219 -60.902344 53.304688 -59.710938 C 55.902344 -58.394531 57.984375 -56.777344 59.546875 -54.859375 L 56.085938 -52.039062 L 55.09375 -56.390625 C 56.269531 -56.660156 57.355469 -57.199219 58.355469 -58.007812 C 59.421875 -58.871094 60.292969 -59.929688 60.960938 -61.171875 C 61.566406 -62.304688 61.878906 -63.523438 61.898438 -64.832031 C 61.914062 -66.042969 61.519531 -67.339844 60.71875 -68.714844 C 59.84375 -70.214844 58.332031 -71.6875 56.175781 -73.140625 C 54.855469 -74.007812 53.140625 -74.746094 51.027344 -75.363281 C 48.769531 -76.023438 46.3125 -76.472656 43.667969 -76.710938 C 40.957031 -76.953125 38.234375 -76.992188 35.5 -76.820312 C 32.851562 -76.652344 30.335938 -76.238281 27.953125 -75.570312 C 24.628906 -74.695312 21.882812 -73.523438 19.707031 -72.058594 C 17.542969 -70.601562 15.832031 -69.023438 14.578125 -67.320312 C 13.28125 -65.5625 12.324219 -63.804688 11.703125 -62.054688 C 11.058594 -60.230469 10.660156 -58.535156 10.511719 -56.96875 C 10.363281 -55.417969 10.359375 -54.183594 10.507812 -53.269531 C 11.023438 -50.261719 12.035156 -47.734375 13.546875 -45.683594 C 15.109375 -43.570312 17.019531 -41.859375 19.28125 -40.558594 C 21.738281 -39.144531 24.390625 -38.0625 27.230469 -37.316406 C 30.207031 -36.539062 33.160156 -36.027344 36.097656 -35.785156 C 40.125 -35.5 43.078125 -34.457031 44.964844 -32.664062 C 46.132812 -31.550781 46.910156 -30.25 47.296875 -28.769531 C 47.664062 -27.351562 47.644531 -25.867188 47.230469 -24.316406 C 46.761719 -22.566406 45.8125 -21.125 44.375 -19.988281 C 43.183594 -19.050781 41.703125 -18.378906 39.933594 -17.980469 C 37.097656 -17.335938 33.703125 -17.410156 29.753906 -18.191406 C 26.035156 -18.929688 22.128906 -20.308594 18.027344 -22.328125 C 16.28125 -23.183594 14.789062 -23.515625 13.550781 -23.320312 C 12.28125 -23.117188 11.195312 -22.597656 10.300781 -21.765625 C 9.273438 -20.804688 8.511719 -19.625 8.015625 -18.222656 C 7.511719 -16.800781 7.359375 -15.304688 7.558594 -13.734375 C 7.746094 -12.273438 8.355469 -10.886719 9.382812 -9.574219 L 5.871094 -6.824219 L 8.6875 -10.28125 C 11.167969 -8.261719 13.9375 -6.675781 17 -5.527344 C 20.199219 -4.324219 23.519531 -3.492188 26.964844 -3.035156 C 30.496094 -2.566406 33.933594 -2.394531 37.28125 -2.515625 C 40.652344 -2.640625 43.761719 -2.972656 46.609375 -3.511719 C 49.390625 -4.039062 51.695312 -4.667969 53.519531 -5.398438 C 55.863281 -6.359375 57.964844 -7.855469 59.816406 -9.875 C 61.722656 -11.957031 63.183594 -14.367188 64.199219 -17.101562 C 65.207031 -19.8125 65.644531 -22.640625 65.511719 -25.582031 C 65.386719 -28.386719 64.546875 -31.109375 62.988281 -33.75 C 61.433594 -36.398438 58.957031 -38.769531 55.5625 -40.867188 Z M 55.535156 -40.886719 "/></g></g></g><g fill="#a6ccc5" fill-opacity="1"><g transform="translate(13.971583, 96.39736)"><g><path d="M 52.921875 -0.234375 C 50.109375 -0.078125 47.257812 0.0078125 44.375 0.03125 C 41.5 0.0625 38.84375 0.0507812 36.40625 0 C 33.976562 -0.0507812 32.023438 -0.101562 30.546875 -0.15625 C 29.066406 -0.207031 28.328125 -0.234375 28.328125 -0.234375 C 26.265625 -0.234375 24 -0.40625 21.53125 -0.75 C 19.070312 -1.09375 16.679688 -1.847656 14.359375 -3.015625 C 12.035156 -4.179688 10.015625 -5.910156 8.296875 -8.203125 C 6.578125 -10.503906 5.425781 -13.585938 4.84375 -17.453125 C 4.519531 -19.671875 4.222656 -22.472656 3.953125 -25.859375 C 3.691406 -29.242188 3.492188 -32.984375 3.359375 -37.078125 C 3.234375 -41.179688 3.195312 -45.453125 3.25 -49.890625 C 3.300781 -54.335938 3.472656 -58.753906 3.765625 -63.140625 C 4.054688 -67.535156 4.519531 -71.691406 5.15625 -75.609375 C 6.632812 -76.929688 8.457031 -77.945312 10.625 -78.65625 C 12.800781 -79.375 15.101562 -79.675781 17.53125 -79.5625 C 19.96875 -79.457031 22.296875 -78.820312 24.515625 -77.65625 C 26.734375 -76.5 28.632812 -74.726562 30.21875 -72.34375 C 31.8125 -69.96875 32.816406 -66.820312 33.234375 -62.90625 C 33.503906 -60.582031 33.691406 -57.898438 33.796875 -54.859375 C 33.898438 -51.816406 33.976562 -48.65625 34.03125 -45.375 C 34.082031 -42.09375 34.09375 -38.90625 34.0625 -35.8125 C 34.039062 -32.71875 33.976562 -29.929688 33.875 -27.453125 C 35.675781 -27.609375 37.867188 -27.695312 40.453125 -27.71875 C 43.046875 -27.75 45.835938 -27.738281 48.828125 -27.6875 C 51.816406 -27.632812 54.84375 -27.5 57.90625 -27.28125 C 60.976562 -27.070312 63.914062 -26.8125 66.71875 -26.5 C 68.300781 -23.476562 69.015625 -20.460938 68.859375 -17.453125 C 68.703125 -14.441406 67.882812 -11.664062 66.40625 -9.125 C 64.925781 -6.582031 63.007812 -4.503906 60.65625 -2.890625 C 58.300781 -1.273438 55.722656 -0.390625 52.921875 -0.234375 Z M 52.921875 -0.234375 "/></g></g></g><g fill="#a6ccc5" fill-opacity="1"><g transform="translate(85.763525, 96.39736)"><g><path d="M 4.359375 -18.328125 C 4.253906 -20.117188 4.175781 -22.535156 4.125 -25.578125 C 4.070312 -28.617188 4.046875 -32.03125 4.046875 -35.8125 C 4.046875 -39.59375 4.082031 -43.503906 4.15625 -47.546875 C 4.238281 -51.597656 4.347656 -55.582031 4.484375 -59.5 C 4.617188 -63.414062 4.773438 -67.035156 4.953125 -70.359375 C 5.140625 -73.691406 5.363281 -76.472656 5.625 -78.703125 C 8.269531 -78.960938 11.484375 -79.15625 15.265625 -79.28125 C 19.046875 -79.414062 23.101562 -79.507812 27.4375 -79.5625 C 31.78125 -79.625 36.132812 -79.613281 40.5 -79.53125 C 44.863281 -79.445312 48.988281 -79.328125 52.875 -79.171875 C 56.757812 -79.015625 60.101562 -78.832031 62.90625 -78.625 C 63.382812 -77.9375 63.804688 -76.875 64.171875 -75.4375 C 64.546875 -74.007812 64.742188 -72.394531 64.765625 -70.59375 C 64.796875 -68.800781 64.570312 -66.976562 64.09375 -65.125 C 63.625 -63.28125 62.789062 -61.5625 61.59375 -59.96875 C 60.40625 -58.382812 58.765625 -57.113281 56.671875 -56.15625 C 54.585938 -55.207031 51.960938 -54.734375 48.796875 -54.734375 C 47.734375 -54.734375 46.75 -54.734375 45.84375 -54.734375 C 44.945312 -54.734375 43.941406 -54.734375 42.828125 -54.734375 C 41.722656 -54.734375 40.347656 -54.734375 38.703125 -54.734375 C 37.066406 -54.734375 34.984375 -54.734375 32.453125 -54.734375 C 32.453125 -54.097656 32.453125 -53.445312 32.453125 -52.78125 C 32.453125 -52.125 32.453125 -51.398438 32.453125 -50.609375 C 33.609375 -50.609375 35.203125 -50.632812 37.234375 -50.6875 C 39.273438 -50.738281 41.484375 -50.765625 43.859375 -50.765625 C 46.242188 -50.765625 48.585938 -50.660156 50.890625 -50.453125 C 53.191406 -50.242188 55.1875 -49.875 56.875 -49.34375 C 58.46875 -45.851562 59.128906 -42.597656 58.859375 -39.578125 C 58.597656 -36.566406 57.421875 -34.109375 55.328125 -32.203125 C 53.242188 -30.304688 50.242188 -29.25 46.328125 -29.03125 C 45.003906 -28.976562 43.757812 -28.953125 42.59375 -28.953125 C 41.4375 -28.953125 40.085938 -28.960938 38.546875 -28.984375 C 37.015625 -29.015625 35.007812 -29.03125 32.53125 -29.03125 C 32.53125 -28.1875 32.53125 -27.378906 32.53125 -26.609375 C 32.53125 -25.847656 32.53125 -25.046875 32.53125 -24.203125 C 32.789062 -24.203125 33.078125 -24.203125 33.390625 -24.203125 C 33.710938 -24.203125 34.03125 -24.203125 34.34375 -24.203125 C 38.582031 -24.203125 42.828125 -24.203125 47.078125 -24.203125 C 51.335938 -24.203125 55.582031 -24.203125 59.8125 -24.203125 C 61.351562 -22.078125 62.332031 -19.734375 62.75 -17.171875 C 63.175781 -14.609375 62.988281 -12.109375 62.1875 -9.671875 C 61.394531 -7.242188 59.890625 -5.144531 57.671875 -3.375 C 55.453125 -1.601562 52.460938 -0.476562 48.703125 0 C 47.390625 0.15625 45.609375 0.300781 43.359375 0.4375 C 41.109375 0.570312 38.632812 0.648438 35.9375 0.671875 C 33.238281 0.703125 30.550781 0.691406 27.875 0.640625 C 25.207031 0.585938 22.800781 0.476562 20.65625 0.3125 C 18.519531 0.15625 16.867188 -0.0507812 15.703125 -0.3125 C 12.003906 -1.269531 9.269531 -3.160156 7.5 -5.984375 C 5.726562 -8.816406 4.679688 -12.929688 4.359375 -18.328125 Z M 4.359375 -18.328125 "/></g></g></g><g fill="#a6ccc5" fill-opacity="1"><g transform="translate(152.557799, 96.39736)"><g><path d="M 57.90625 -44.671875 C 61.925781 -42.179688 64.898438 -39.296875 66.828125 -36.015625 C 68.765625 -32.734375 69.8125 -29.320312 69.96875 -25.78125 C 70.125 -22.238281 69.59375 -18.828125 68.375 -15.546875 C 67.164062 -12.265625 65.410156 -9.367188 63.109375 -6.859375 C 60.804688 -4.347656 58.175781 -2.484375 55.21875 -1.265625 C 53.101562 -0.421875 50.507812 0.289062 47.4375 0.875 C 44.375 1.457031 41.039062 1.8125 37.4375 1.9375 C 33.84375 2.070312 30.15625 1.890625 26.375 1.390625 C 22.59375 0.890625 18.941406 -0.0195312 15.421875 -1.34375 C 11.910156 -2.664062 8.726562 -4.492188 5.875 -6.828125 C 4.332031 -8.785156 3.414062 -10.898438 3.125 -13.171875 C 2.84375 -15.441406 3.070312 -17.617188 3.8125 -19.703125 C 4.550781 -21.796875 5.695312 -23.570312 7.25 -25.03125 C 8.8125 -26.488281 10.675781 -27.390625 12.84375 -27.734375 C 15.019531 -28.078125 17.398438 -27.613281 19.984375 -26.34375 C 23.742188 -24.488281 27.289062 -23.226562 30.625 -22.5625 C 33.957031 -21.90625 36.734375 -21.828125 38.953125 -22.328125 C 41.171875 -22.835938 42.492188 -23.882812 42.921875 -25.46875 C 43.335938 -27.050781 42.988281 -28.367188 41.875 -29.421875 C 40.769531 -30.484375 38.738281 -31.125 35.78125 -31.34375 C 32.550781 -31.601562 29.320312 -32.15625 26.09375 -33 C 22.875 -33.84375 19.863281 -35.070312 17.0625 -36.6875 C 14.257812 -38.300781 11.890625 -40.414062 9.953125 -43.03125 C 8.023438 -45.65625 6.742188 -48.816406 6.109375 -52.515625 C 5.898438 -53.835938 5.882812 -55.460938 6.0625 -57.390625 C 6.25 -59.328125 6.722656 -61.378906 7.484375 -63.546875 C 8.253906 -65.710938 9.421875 -67.851562 10.984375 -69.96875 C 12.546875 -72.082031 14.625 -74.007812 17.21875 -75.75 C 19.8125 -77.5 23.007812 -78.878906 26.8125 -79.890625 C 29.457031 -80.628906 32.257812 -81.085938 35.21875 -81.265625 C 38.1875 -81.453125 41.132812 -81.414062 44.0625 -81.15625 C 47 -80.894531 49.738281 -80.394531 52.28125 -79.65625 C 54.820312 -78.914062 56.9375 -77.988281 58.625 -76.875 C 61.375 -75.019531 63.359375 -73.046875 64.578125 -70.953125 C 65.796875 -68.867188 66.390625 -66.804688 66.359375 -64.765625 C 66.335938 -62.734375 65.847656 -60.832031 64.890625 -59.0625 C 63.941406 -57.289062 62.695312 -55.78125 61.15625 -54.53125 C 59.625 -53.289062 57.9375 -52.460938 56.09375 -52.046875 C 54.925781 -53.472656 53.320312 -54.703125 51.28125 -55.734375 C 49.25 -56.765625 47.054688 -57.554688 44.703125 -58.109375 C 42.347656 -58.660156 40.113281 -58.921875 38 -58.890625 C 35.882812 -58.867188 34.148438 -58.523438 32.796875 -57.859375 C 31.453125 -57.203125 30.753906 -56.1875 30.703125 -54.8125 C 30.703125 -53.96875 31.070312 -53.269531 31.8125 -52.71875 C 32.550781 -52.164062 33.925781 -51.753906 35.9375 -51.484375 C 41.757812 -50.742188 46.519531 -49.644531 50.21875 -48.1875 C 53.914062 -46.738281 56.476562 -45.566406 57.90625 -44.671875 Z M 57.90625 -44.671875 "/></g></g></g><g fill="#a6ccc5" fill-opacity="1"><g transform="translate(227.284888, 96.39736)"><g><path d="M 57.90625 -44.671875 C 61.925781 -42.179688 64.898438 -39.296875 66.828125 -36.015625 C 68.765625 -32.734375 69.8125 -29.320312 69.96875 -25.78125 C 70.125 -22.238281 69.59375 -18.828125 68.375 -15.546875 C 67.164062 -12.265625 65.410156 -9.367188 63.109375 -6.859375 C 60.804688 -4.347656 58.175781 -2.484375 55.21875 -1.265625 C 53.101562 -0.421875 50.507812 0.289062 47.4375 0.875 C 44.375 1.457031 41.039062 1.8125 37.4375 1.9375 C 33.84375 2.070312 30.15625 1.890625 26.375 1.390625 C 22.59375 0.890625 18.941406 -0.0195312 15.421875 -1.34375 C 11.910156 -2.664062 8.726562 -4.492188 5.875 -6.828125 C 4.332031 -8.785156 3.414062 -10.898438 3.125 -13.171875 C 2.84375 -15.441406 3.070312 -17.617188 3.8125 -19.703125 C 4.550781 -21.796875 5.695312 -23.570312 7.25 -25.03125 C 8.8125 -26.488281 10.675781 -27.390625 12.84375 -27.734375 C 15.019531 -28.078125 17.398438 -27.613281 19.984375 -26.34375 C 23.742188 -24.488281 27.289062 -23.226562 30.625 -22.5625 C 33.957031 -21.90625 36.734375 -21.828125 38.953125 -22.328125 C 41.171875 -22.835938 42.492188 -23.882812 42.921875 -25.46875 C 43.335938 -27.050781 42.988281 -28.367188 41.875 -29.421875 C 40.769531 -30.484375 38.738281 -31.125 35.78125 -31.34375 C 32.550781 -31.601562 29.320312 -32.15625 26.09375 -33 C 22.875 -33.84375 19.863281 -35.070312 17.0625 -36.6875 C 14.257812 -38.300781 11.890625 -40.414062 9.953125 -43.03125 C 8.023438 -45.65625 6.742188 -48.816406 6.109375 -52.515625 C 5.898438 -53.835938 5.882812 -55.460938 6.0625 -57.390625 C 6.25 -59.328125 6.722656 -61.378906 7.484375 -63.546875 C 8.253906 -65.710938 9.421875 -67.851562 10.984375 -69.96875 C 12.546875 -72.082031 14.625 -74.007812 17.21875 -75.75 C 19.8125 -77.5 23.007812 -78.878906 26.8125 -79.890625 C 29.457031 -80.628906 32.257812 -81.085938 35.21875 -81.265625 C 38.1875 -81.453125 41.132812 -81.414062 44.0625 -81.15625 C 47 -80.894531 49.738281 -80.394531 52.28125 -79.65625 C 54.820312 -78.914062 56.9375 -77.988281 58.625 -76.875 C 61.375 -75.019531 63.359375 -73.046875 64.578125 -70.953125 C 65.796875 -68.867188 66.390625 -66.804688 66.359375 -64.765625 C 66.335938 -62.734375 65.847656 -60.832031 64.890625 -59.0625 C 63.941406 -57.289062 62.695312 -55.78125 61.15625 -54.53125 C 59.625 -53.289062 57.9375 -52.460938 56.09375 -52.046875 C 54.925781 -53.472656 53.320312 -54.703125 51.28125 -55.734375 C 49.25 -56.765625 47.054688 -57.554688 44.703125 -58.109375 C 42.347656 -58.660156 40.113281 -58.921875 38 -58.890625 C 35.882812 -58.867188 34.148438 -58.523438 32.796875 -57.859375 C 31.453125 -57.203125 30.753906 -56.1875 30.703125 -54.8125 C 30.703125 -53.96875 31.070312 -53.269531 31.8125 -52.71875 C 32.550781 -52.164062 33.925781 -51.753906 35.9375 -51.484375 C 41.757812 -50.742188 46.519531 -49.644531 50.21875 -48.1875 C 53.914062 -46.738281 56.476562 -45.566406 57.90625 -44.671875 Z M 57.90625 -44.671875 "/></g></g></g><g fill="#a6ccc5" fill-opacity="1"><g transform="translate(302.011988, 96.39736)"><g><path d="M 43.875 -80.921875 C 49.269531 -80.972656 53.988281 -80.363281 58.03125 -79.09375 C 62.070312 -77.820312 65.519531 -76.179688 68.375 -74.171875 C 71.238281 -72.160156 73.609375 -70.019531 75.484375 -67.75 C 77.359375 -65.476562 78.835938 -63.320312 79.921875 -61.28125 C 81.003906 -59.25 81.785156 -57.597656 82.265625 -56.328125 C 84.117188 -51.242188 85.21875 -46.125 85.5625 -40.96875 C 85.90625 -35.8125 85.285156 -30.617188 83.703125 -25.390625 C 79.359375 -11.472656 70.128906 -2.851562 56.015625 0.46875 C 50.296875 1.84375 44.660156 2.28125 39.109375 1.78125 C 33.554688 1.28125 28.132812 -0.34375 22.84375 -3.09375 C 17.820312 -5.6875 13.816406 -9.054688 10.828125 -13.203125 C 7.835938 -17.359375 5.734375 -22.160156 4.515625 -27.609375 C 3.722656 -31.046875 3.257812 -34.5625 3.125 -38.15625 C 3 -41.75 3.210938 -45.238281 3.765625 -48.625 C 4.316406 -52.007812 5.226562 -55.050781 6.5 -57.75 C 7.769531 -60.550781 9.410156 -63.3125 11.421875 -66.03125 C 13.429688 -68.757812 15.914062 -71.25 18.875 -73.5 C 21.84375 -75.75 25.390625 -77.546875 29.515625 -78.890625 C 33.640625 -80.242188 38.425781 -80.921875 43.875 -80.921875 Z M 44.265625 -52.515625 C 42.304688 -52.515625 40.492188 -51.972656 38.828125 -50.890625 C 37.160156 -49.804688 35.851562 -48.191406 34.90625 -46.046875 C 33.957031 -43.910156 33.585938 -41.253906 33.796875 -38.078125 C 34.003906 -35.015625 34.703125 -32.582031 35.890625 -30.78125 C 37.085938 -28.976562 38.488281 -27.691406 40.09375 -26.921875 C 41.707031 -26.160156 43.203125 -25.832031 44.578125 -25.9375 C 46.015625 -26.039062 47.457031 -26.503906 48.90625 -27.328125 C 50.363281 -28.148438 51.609375 -29.457031 52.640625 -31.25 C 53.671875 -33.050781 54.265625 -35.429688 54.421875 -38.390625 C 54.628906 -41.410156 54.269531 -43.960938 53.34375 -46.046875 C 52.425781 -48.140625 51.160156 -49.738281 49.546875 -50.84375 C 47.929688 -51.957031 46.171875 -52.515625 44.265625 -52.515625 Z M 44.265625 -52.515625 "/></g></g></g><g fill="#a6ccc5" fill-opacity="1"><g transform="translate(390.859472, 96.39736)"><g><path d="M 51.71875 -44.578125 C 51.71875 -48.179688 51.71875 -51.539062 51.71875 -54.65625 C 51.71875 -57.78125 51.71875 -60.914062 51.71875 -64.0625 C 51.71875 -67.207031 51.71875 -70.601562 51.71875 -74.25 C 53.675781 -76.582031 55.898438 -78.238281 58.390625 -79.21875 C 60.878906 -80.195312 63.414062 -80.566406 66 -80.328125 C 68.59375 -80.085938 70.972656 -79.359375 73.140625 -78.140625 C 75.304688 -76.921875 77.0625 -75.28125 78.40625 -73.21875 C 79.757812 -71.15625 80.4375 -68.773438 80.4375 -66.078125 C 80.4375 -64.492188 80.445312 -62.234375 80.46875 -59.296875 C 80.5 -56.367188 80.53125 -53.023438 80.5625 -49.265625 C 80.59375 -45.515625 80.617188 -41.546875 80.640625 -37.359375 C 80.671875 -33.179688 80.671875 -29.039062 80.640625 -24.9375 C 80.617188 -20.84375 80.550781 -16.984375 80.4375 -13.359375 C 80.332031 -9.742188 80.175781 -6.585938 79.96875 -3.890625 C 78.269531 -2.191406 76.03125 -0.882812 73.25 0.03125 C 70.476562 0.957031 67.46875 1.328125 64.21875 1.140625 C 60.96875 0.960938 57.769531 0.09375 54.625 -1.46875 C 51.476562 -3.03125 48.6875 -5.476562 46.25 -8.8125 C 45.132812 -10.34375 43.984375 -12.070312 42.796875 -14 C 41.609375 -15.925781 40.472656 -17.851562 39.390625 -19.78125 C 38.304688 -21.71875 37.335938 -23.46875 36.484375 -25.03125 C 35.640625 -26.59375 34.984375 -27.71875 34.515625 -28.40625 C 34.398438 -28.664062 34.25 -28.898438 34.0625 -29.109375 C 33.882812 -29.328125 33.71875 -29.539062 33.5625 -29.75 C 33.507812 -29.75 33.425781 -29.734375 33.3125 -29.703125 C 33.207031 -29.679688 33.101562 -29.671875 33 -29.671875 C 33.050781 -27.285156 33.128906 -25.101562 33.234375 -23.125 C 33.347656 -21.144531 33.457031 -19.1875 33.5625 -17.25 C 33.664062 -15.320312 33.726562 -13.257812 33.75 -11.0625 C 33.78125 -8.875 33.769531 -6.347656 33.71875 -3.484375 C 31.125 -1.367188 28.476562 0.03125 25.78125 0.71875 C 23.082031 1.40625 20.503906 1.550781 18.046875 1.15625 C 15.585938 0.757812 13.378906 -0.046875 11.421875 -1.265625 C 9.460938 -2.484375 7.898438 -3.953125 6.734375 -5.671875 C 5.578125 -7.390625 4.972656 -9.203125 4.921875 -11.109375 C 4.816406 -14.390625 4.722656 -18 4.640625 -21.9375 C 4.554688 -25.875 4.488281 -29.972656 4.4375 -34.234375 C 4.382812 -38.492188 4.359375 -42.6875 4.359375 -46.8125 C 4.359375 -50.9375 4.367188 -54.832031 4.390625 -58.5 C 4.421875 -62.175781 4.488281 -65.429688 4.59375 -68.265625 C 4.707031 -71.097656 4.84375 -73.28125 5 -74.8125 C 6.90625 -76.394531 9.242188 -77.660156 12.015625 -78.609375 C 14.796875 -79.566406 17.707031 -80.003906 20.75 -79.921875 C 23.789062 -79.847656 26.695312 -79.066406 29.46875 -77.578125 C 32.25 -76.097656 34.59375 -73.773438 36.5 -70.609375 C 37.875 -68.273438 39.101562 -66.15625 40.1875 -64.25 C 41.269531 -62.351562 42.328125 -60.492188 43.359375 -58.671875 C 44.390625 -56.847656 45.457031 -54.941406 46.5625 -52.953125 C 47.675781 -50.972656 48.945312 -48.710938 50.375 -46.171875 C 50.53125 -45.859375 50.703125 -45.554688 50.890625 -45.265625 C 51.078125 -44.972656 51.25 -44.691406 51.40625 -44.421875 C 51.457031 -44.472656 51.507812 -44.5 51.5625 -44.5 C 51.613281 -44.5 51.664062 -44.523438 51.71875 -44.578125 Z M 51.71875 -44.578125 "/></g></g></g><g fill="#a6ccc5" fill-opacity="1"><g transform="translate(476.454499, 96.39736)"><g><path d="M 57.90625 -44.671875 C 61.925781 -42.179688 64.898438 -39.296875 66.828125 -36.015625 C 68.765625 -32.734375 69.8125 -29.320312 69.96875 -25.78125 C 70.125 -22.238281 69.59375 -18.828125 68.375 -15.546875 C 67.164062 -12.265625 65.410156 -9.367188 63.109375 -6.859375 C 60.804688 -4.347656 58.175781 -2.484375 55.21875 -1.265625 C 53.101562 -0.421875 50.507812 0.289062 47.4375 0.875 C 44.375 1.457031 41.039062 1.8125 37.4375 1.9375 C 33.84375 2.070312 30.15625 1.890625 26.375 1.390625 C 22.59375 0.890625 18.941406 -0.0195312 15.421875 -1.34375 C 11.910156 -2.664062 8.726562 -4.492188 5.875 -6.828125 C 4.332031 -8.785156 3.414062 -10.898438 3.125 -13.171875 C 2.84375 -15.441406 3.070312 -17.617188 3.8125 -19.703125 C 4.550781 -21.796875 5.695312 -23.570312 7.25 -25.03125 C 8.8125 -26.488281 10.675781 -27.390625 12.84375 -27.734375 C 15.019531 -28.078125 17.398438 -27.613281 19.984375 -26.34375 C 23.742188 -24.488281 27.289062 -23.226562 30.625 -22.5625 C 33.957031 -21.90625 36.734375 -21.828125 38.953125 -22.328125 C 41.171875 -22.835938 42.492188 -23.882812 42.921875 -25.46875 C 43.335938 -27.050781 42.988281 -28.367188 41.875 -29.421875 C 40.769531 -30.484375 38.738281 -31.125 35.78125 -31.34375 C 32.550781 -31.601562 29.320312 -32.15625 26.09375 -33 C 22.875 -33.84375 19.863281 -35.070312 17.0625 -36.6875 C 14.257812 -38.300781 11.890625 -40.414062 9.953125 -43.03125 C 8.023438 -45.65625 6.742188 -48.816406 6.109375 -52.515625 C 5.898438 -53.835938 5.882812 -55.460938 6.0625 -57.390625 C 6.25 -59.328125 6.722656 -61.378906 7.484375 -63.546875 C 8.253906 -65.710938 9.421875 -67.851562 10.984375 -69.96875 C 12.546875 -72.082031 14.625 -74.007812 17.21875 -75.75 C 19.8125 -77.5 23.007812 -78.878906 26.8125 -79.890625 C 29.457031 -80.628906 32.257812 -81.085938 35.21875 -81.265625 C 38.1875 -81.453125 41.132812 -81.414062 44.0625 -81.15625 C 47 -80.894531 49.738281 -80.394531 52.28125 -79.65625 C 54.820312 -78.914062 56.9375 -77.988281 58.625 -76.875 C 61.375 -75.019531 63.359375 -73.046875 64.578125 -70.953125 C 65.796875 -68.867188 66.390625 -66.804688 66.359375 -64.765625 C 66.335938 -62.734375 65.847656 -60.832031 64.890625 -59.0625 C 63.941406 -57.289062 62.695312 -55.78125 61.15625 -54.53125 C 59.625 -53.289062 57.9375 -52.460938 56.09375 -52.046875 C 54.925781 -53.472656 53.320312 -54.703125 51.28125 -55.734375 C 49.25 -56.765625 47.054688 -57.554688 44.703125 -58.109375 C 42.347656 -58.660156 40.113281 -58.921875 38 -58.890625 C 35.882812 -58.867188 34.148438 -58.523438 32.796875 -57.859375 C 31.453125 -57.203125 30.753906 -56.1875 30.703125 -54.8125 C 30.703125 -53.96875 31.070312 -53.269531 31.8125 -52.71875 C 32.550781 -52.164062 33.925781 -51.753906 35.9375 -51.484375 C 41.757812 -50.742188 46.519531 -49.644531 50.21875 -48.1875 C 53.914062 -46.738281 56.476562 -45.566406 57.90625 -44.671875 Z M 57.90625 -44.671875 "/></g></g></g></svg>