<svg xmlns="http://www.w3.org/2000/svg" xmlns:xlink="http://www.w3.org/1999/xlink" width="500" zoomAndPan="magnify" viewBox="0 0 375 157.5" height="210" preserveAspectRatio="xMidYMid meet" version="1.0"><defs><g/><clipPath id="6d90c61b01"><rect x="0" width="372" y="0" height="134"/></clipPath></defs><g transform="matrix(1, 0, 0, 1, 1, 13)"><g clip-path="url(#6d90c61b01)"><g fill="#c886b1" fill-opacity="1"><g transform="translate(4.29519, 108.258841)"><g><path d="M 58.324219 -49.886719 C 58.394531 -50.066406 58.457031 -50.238281 58.507812 -50.414062 C 58.582031 -50.660156 58.644531 -50.875 58.6875 -51.054688 L 63.289062 -70.753906 L 67.945312 -90.667969 L 67.980469 -90.796875 C 68.289062 -91.875 68.652344 -92.96875 69.074219 -94.078125 C 69.371094 -94.859375 69.628906 -95.65625 69.84375 -96.46875 L 70.398438 -98.542969 L 72.199219 -99.714844 C 76.933594 -102.792969 81.90625 -104.59375 87.113281 -105.113281 C 92.339844 -105.636719 97.300781 -104.945312 101.996094 -103.042969 C 106.753906 -101.113281 110.746094 -98.105469 113.976562 -94.019531 C 117.226562 -89.90625 119.25 -84.890625 120.050781 -78.976562 C 120.320312 -77.101562 120.636719 -74.5625 121.007812 -71.367188 C 121.371094 -68.234375 121.78125 -64.824219 122.246094 -61.128906 L 123.589844 -50.023438 L 124.734375 -40.105469 L 126.625 -24.011719 L 128.78125 -5.617188 L 127.355469 -3.800781 C 124.652344 -0.359375 121.535156 2.242188 118.003906 4.007812 C 114.492188 5.761719 110.875 6.703125 107.144531 6.832031 C 103.40625 6.957031 99.867188 6.316406 96.527344 4.902344 C 93.058594 3.433594 90.167969 1.230469 87.851562 -1.707031 C 85.460938 -4.742188 84.042969 -8.386719 83.601562 -12.640625 C 83.257812 -15.71875 83.035156 -18.429688 82.929688 -20.773438 C 82.828125 -23.046875 82.761719 -25.289062 82.726562 -27.496094 L 82.628906 -34.714844 C 82.59375 -37.328125 82.511719 -40.5 82.382812 -44.234375 L 87.96875 -44.433594 L 85.46875 -39.429688 C 86.125 -39.105469 86.726562 -38.941406 87.273438 -38.941406 L 87.273438 -44.53125 L 92.769531 -43.5 C 92.566406 -42.417969 92.363281 -41.371094 92.160156 -40.351562 C 91.945312 -39.273438 91.691406 -38.160156 91.40625 -37.011719 L 87.402344 -19.757812 C 86.035156 -13.921875 84.617188 -8.105469 83.152344 -2.308594 L 82.585938 -0.0703125 L 80.609375 1.117188 C 78.851562 2.171875 76.605469 3.078125 73.867188 3.84375 C 71.167969 4.597656 68.261719 5.015625 65.148438 5.09375 C 61.949219 5.171875 58.8125 4.792969 55.734375 3.953125 C 52.292969 3.015625 49.242188 1.304688 46.582031 -1.179688 C 43.78125 -3.792969 41.851562 -7.265625 40.789062 -11.59375 C 40.191406 -13.980469 39.496094 -16.859375 38.695312 -20.226562 C 37.894531 -23.589844 37.113281 -26.953125 36.347656 -30.316406 C 35.589844 -33.632812 34.902344 -36.546875 34.28125 -39.066406 C 33.707031 -41.390625 33.296875 -42.875 33.050781 -43.519531 L 38.269531 -45.527344 L 43.847656 -45.140625 L 42.851562 -30.777344 L 41.910156 -17.109375 L 40.765625 0.59375 L 38.007812 2.054688 C 34.261719 4.042969 30.457031 5.40625 26.589844 6.140625 C 22.5 6.914062 18.582031 6.867188 14.832031 5.992188 C 10.796875 5.050781 7.34375 3.117188 4.464844 0.195312 C 1.609375 -2.707031 -0.386719 -6.589844 -1.519531 -11.457031 C -2.570312 -15.976562 -2.652344 -21.398438 -1.757812 -27.71875 C -0.949219 -33.734375 0.117188 -39.84375 1.441406 -46.042969 C 2.710938 -52.011719 3.804688 -57.863281 4.714844 -63.601562 C 5.652344 -69.15625 6.621094 -74.695312 7.617188 -80.214844 C 8.609375 -85.699219 9.566406 -91.148438 10.492188 -96.5625 L 10.804688 -98.386719 L 12.136719 -99.664062 C 14.265625 -101.699219 17.070312 -103.296875 20.546875 -104.457031 C 23.785156 -105.535156 27.289062 -106.09375 31.054688 -106.132812 C 34.867188 -106.175781 38.644531 -105.5625 42.390625 -104.300781 C 46.367188 -102.960938 49.886719 -100.757812 52.957031 -97.6875 C 56.109375 -94.539062 58.375 -90.433594 59.765625 -85.371094 C 60.4375 -83.082031 61.152344 -80.308594 61.90625 -77.054688 L 64.1875 -67.328125 L 66.472656 -57.644531 L 61.03125 -56.359375 L 66.03125 -58.859375 C 66.324219 -58.28125 66.597656 -57.332031 66.863281 -56.015625 C 67.011719 -55.273438 67.207031 -54.417969 67.449219 -53.441406 C 67.738281 -52.296875 67.972656 -51.265625 68.15625 -50.347656 C 68.222656 -50.007812 68.277344 -49.753906 68.320312 -49.582031 L 68.320312 -49.570312 C 68.25 -49.804688 68.152344 -50.054688 68.019531 -50.3125 L 63.019531 -47.8125 L 63.019531 -53.402344 L 63.515625 -53.402344 L 63.515625 -47.8125 Z M 68.707031 -45.734375 L 67.300781 -42.21875 L 59.5625 -42.21875 L 58.019531 -45.3125 C 57.730469 -45.890625 57.453125 -46.839844 57.1875 -48.15625 C 57.039062 -48.898438 56.84375 -49.753906 56.601562 -50.730469 C 56.316406 -51.875 56.082031 -52.90625 55.898438 -53.820312 C 55.828125 -54.164062 55.773438 -54.417969 55.734375 -54.589844 L 55.730469 -54.601562 C 55.800781 -54.367188 55.902344 -54.117188 56.03125 -53.859375 L 55.738281 -54.441406 L 53.300781 -64.773438 L 51.011719 -74.53125 C 50.308594 -77.574219 49.628906 -80.199219 48.980469 -82.414062 C 48.113281 -85.570312 46.804688 -88.027344 45.050781 -89.78125 C 43.214844 -91.613281 41.140625 -92.921875 38.820312 -93.703125 C 36.269531 -94.5625 33.71875 -94.980469 31.171875 -94.953125 C 28.574219 -94.925781 26.210938 -94.558594 24.082031 -93.847656 C 22.191406 -93.21875 20.789062 -92.460938 19.867188 -91.582031 L 16.003906 -95.625 L 21.515625 -94.683594 C 20.585938 -89.230469 19.621094 -83.746094 18.625 -78.226562 C 17.632812 -72.75 16.679688 -67.289062 15.761719 -61.84375 C 14.816406 -55.914062 13.6875 -49.871094 12.375 -43.714844 C 11.113281 -37.789062 10.09375 -31.9375 9.3125 -26.15625 C 8.617188 -21.210938 8.636719 -17.15625 9.371094 -13.992188 C 10.027344 -11.167969 11.050781 -9.054688 12.433594 -7.652344 C 13.796875 -6.265625 15.441406 -5.347656 17.375 -4.898438 C 19.585938 -4.382812 21.964844 -4.363281 24.503906 -4.847656 C 27.261719 -5.371094 30.015625 -6.363281 32.765625 -7.820312 L 35.386719 -2.882812 L 29.808594 -3.242188 L 30.753906 -17.878906 L 31.695312 -31.546875 L 32.691406 -45.910156 L 43.488281 -47.53125 C 43.902344 -46.453125 44.453125 -44.523438 45.140625 -41.746094 C 45.777344 -39.160156 46.480469 -36.179688 47.25 -32.800781 C 48.007812 -29.472656 48.78125 -26.140625 49.574219 -22.8125 C 50.363281 -19.488281 51.058594 -16.632812 51.652344 -14.253906 C 52.183594 -12.085938 53.035156 -10.453125 54.210938 -9.355469 C 55.527344 -8.128906 57.015625 -7.289062 58.675781 -6.835938 C 60.699219 -6.285156 62.765625 -6.035156 64.867188 -6.085938 C 67.054688 -6.140625 69.050781 -6.421875 70.859375 -6.925781 C 72.628906 -7.421875 73.960938 -7.9375 74.855469 -8.472656 L 77.730469 -3.679688 L 72.308594 -5.046875 C 73.761719 -10.78125 75.160156 -16.527344 76.507812 -22.289062 L 80.558594 -39.726562 C 80.800781 -40.699219 81.011719 -41.640625 81.195312 -42.546875 C 81.390625 -43.519531 81.582031 -44.523438 81.777344 -45.5625 L 82.632812 -50.121094 L 87.273438 -50.121094 C 88.484375 -50.121094 89.550781 -49.894531 90.46875 -49.433594 L 93.441406 -47.949219 L 93.558594 -44.628906 C 93.691406 -40.808594 93.773438 -37.554688 93.808594 -34.867188 L 93.90625 -27.667969 C 93.941406 -25.570312 94.003906 -23.4375 94.101562 -21.273438 C 94.195312 -19.175781 94.402344 -16.683594 94.722656 -13.800781 C 94.941406 -11.691406 95.582031 -9.96875 96.636719 -8.628906 C 97.765625 -7.195312 99.179688 -6.117188 100.882812 -5.398438 C 102.710938 -4.625 104.671875 -4.273438 106.765625 -4.34375 C 108.867188 -4.417969 110.945312 -4.96875 113.003906 -5.996094 C 115.039062 -7.011719 116.890625 -8.585938 118.5625 -10.710938 L 122.957031 -7.257812 L 117.40625 -6.605469 L 115.515625 -22.707031 L 113.625 -38.820312 L 112.488281 -48.679688 L 111.148438 -59.742188 C 110.683594 -63.46875 110.265625 -66.914062 109.898438 -70.082031 C 109.539062 -73.179688 109.230469 -75.644531 108.96875 -77.480469 C 108.441406 -81.371094 107.1875 -84.574219 105.203125 -87.085938 C 103.195312 -89.628906 100.726562 -91.492188 97.796875 -92.675781 C 94.808594 -93.890625 91.617188 -94.324219 88.226562 -93.984375 C 84.820312 -93.644531 81.511719 -92.429688 78.292969 -90.339844 L 75.246094 -95.027344 L 80.648438 -93.585938 C 80.335938 -92.410156 79.960938 -91.25 79.53125 -90.113281 C 79.222656 -89.296875 78.957031 -88.503906 78.734375 -87.726562 L 73.359375 -89.261719 L 78.800781 -87.988281 L 74.179688 -68.207031 L 69.539062 -48.34375 C 69.449219 -47.996094 69.34375 -47.613281 69.21875 -47.199219 C 69.074219 -46.707031 68.902344 -46.21875 68.707031 -45.734375 Z M 68.707031 -45.734375 "/></g></g></g><g fill="#c886b1" fill-opacity="1"><g transform="translate(130.832098, 108.258841)"><g><path d="M 54.914062 -106.980469 C 62.261719 -107.050781 68.753906 -106.203125 74.386719 -104.4375 C 80.007812 -102.671875 84.847656 -100.363281 88.902344 -97.511719 C 92.890625 -94.707031 96.21875 -91.683594 98.890625 -88.449219 C 101.484375 -85.308594 103.546875 -82.296875 105.082031 -79.414062 C 106.554688 -76.648438 107.632812 -74.355469 108.3125 -72.539062 C 110.828125 -65.644531 112.316406 -58.703125 112.78125 -51.710938 C 113.257812 -44.574219 112.402344 -37.398438 110.21875 -30.1875 C 107.199219 -20.503906 102.4375 -12.625 95.9375 -6.550781 C 89.429688 -0.472656 81.273438 3.722656 71.460938 6.039062 C 63.722656 7.902344 56.070312 8.488281 48.5 7.804688 C 40.8125 7.109375 33.328125 4.867188 26.046875 1.085938 C 18.96875 -2.566406 13.296875 -7.355469 9.03125 -13.285156 C 4.839844 -19.105469 1.898438 -25.800781 0.207031 -33.371094 C -0.859375 -38 -1.484375 -42.746094 -1.660156 -47.605469 C -1.839844 -52.484375 -1.550781 -57.230469 -0.796875 -61.835938 C -0.015625 -66.59375 1.28125 -70.894531 3.089844 -74.746094 C 4.820312 -78.566406 7.0625 -82.339844 9.816406 -86.070312 C 12.652344 -89.914062 16.140625 -93.40625 20.277344 -96.546875 C 24.488281 -99.742188 29.476562 -102.285156 35.238281 -104.167969 C 40.972656 -106.042969 47.550781 -106.980469 54.96875 -106.980469 Z M 54.96875 -95.796875 C 48.738281 -95.796875 43.320312 -95.042969 38.714844 -93.539062 C 34.140625 -92.042969 30.25 -90.078125 27.039062 -87.640625 C 23.753906 -85.148438 21.011719 -82.414062 18.8125 -79.429688 C 16.527344 -76.335938 14.660156 -73.1875 13.210938 -69.984375 C 11.839844 -67.074219 10.851562 -63.753906 10.238281 -60.027344 C 9.605469 -56.152344 9.363281 -52.152344 9.515625 -48.015625 C 9.667969 -43.867188 10.203125 -39.796875 11.121094 -35.808594 C 12.480469 -29.730469 14.808594 -24.398438 18.105469 -19.816406 C 21.328125 -15.339844 25.695312 -11.679688 31.207031 -8.835938 C 37.183594 -5.730469 43.28125 -3.894531 49.507812 -3.332031 C 55.855469 -2.757812 62.316406 -3.261719 68.894531 -4.84375 C 76.773438 -6.707031 83.246094 -9.996094 88.300781 -14.722656 C 93.363281 -19.449219 97.101562 -25.683594 99.515625 -33.429688 C 101.308594 -39.339844 102.011719 -45.1875 101.625 -50.96875 C 101.230469 -56.898438 99.96875 -62.78125 97.84375 -68.609375 C 97.332031 -69.972656 96.453125 -71.824219 95.210938 -74.160156 C 94.027344 -76.378906 92.382812 -78.769531 90.269531 -81.328125 C 88.234375 -83.792969 85.632812 -86.136719 82.464844 -88.367188 C 79.363281 -90.550781 75.554688 -92.351562 71.039062 -93.765625 C 66.53125 -95.179688 61.191406 -95.859375 55.023438 -95.796875 Z M 55.464844 -60.210938 C 54.121094 -60.210938 52.867188 -59.835938 51.707031 -59.078125 C 50.542969 -58.324219 49.589844 -57.105469 48.84375 -55.429688 C 48.027344 -53.589844 47.71875 -51.140625 47.921875 -48.085938 C 48.121094 -45.230469 48.691406 -43.085938 49.640625 -41.652344 C 50.5625 -40.265625 51.5625 -39.3125 52.648438 -38.796875 C 53.773438 -38.261719 54.699219 -38.023438 55.433594 -38.078125 C 56.402344 -38.152344 57.4375 -38.496094 58.535156 -39.113281 C 59.464844 -39.636719 60.320312 -40.582031 61.101562 -41.945312 C 61.953125 -43.429688 62.453125 -45.582031 62.605469 -48.410156 C 62.808594 -51.324219 62.519531 -53.667969 61.734375 -55.4375 C 61 -57.089844 60.058594 -58.316406 58.90625 -59.109375 C 57.839844 -59.84375 56.691406 -60.210938 55.464844 -60.210938 Z M 55.464844 -71.394531 C 59.011719 -71.394531 62.269531 -70.371094 65.246094 -68.320312 C 68.136719 -66.332031 70.371094 -63.546875 71.960938 -59.96875 C 73.492188 -56.503906 74.097656 -52.449219 73.773438 -47.8125 C 73.527344 -43.214844 72.535156 -39.40625 70.800781 -36.382812 C 69 -33.238281 66.742188 -30.902344 64.027344 -29.371094 C 61.480469 -27.9375 58.902344 -27.121094 56.292969 -26.929688 C 53.578125 -26.71875 50.765625 -27.308594 47.847656 -28.695312 C 44.890625 -30.101562 42.378906 -32.363281 40.316406 -35.480469 C 38.28125 -38.554688 37.097656 -42.507812 36.765625 -47.339844 C 36.4375 -52.234375 37.058594 -56.445312 38.625 -59.972656 C 40.269531 -63.664062 42.59375 -66.492188 45.605469 -68.453125 C 48.621094 -70.414062 51.90625 -71.394531 55.464844 -71.394531 Z M 55.464844 -71.394531 "/></g></g></g><g fill="#c886b1" fill-opacity="1"><g transform="translate(242.160724, 108.258841)"><g><path d="M 58.324219 -49.886719 C 58.394531 -50.066406 58.457031 -50.238281 58.507812 -50.414062 C 58.582031 -50.660156 58.644531 -50.875 58.6875 -51.054688 L 63.289062 -70.753906 L 67.945312 -90.667969 L 67.980469 -90.796875 C 68.289062 -91.875 68.652344 -92.96875 69.074219 -94.078125 C 69.371094 -94.859375 69.628906 -95.65625 69.84375 -96.46875 L 70.398438 -98.542969 L 72.199219 -99.714844 C 76.933594 -102.792969 81.90625 -104.59375 87.113281 -105.113281 C 92.339844 -105.636719 97.300781 -104.945312 101.996094 -103.042969 C 106.753906 -101.113281 110.746094 -98.105469 113.976562 -94.019531 C 117.226562 -89.90625 119.25 -84.890625 120.050781 -78.976562 C 120.320312 -77.101562 120.636719 -74.5625 121.007812 -71.367188 C 121.371094 -68.234375 121.78125 -64.824219 122.246094 -61.128906 L 123.589844 -50.023438 L 124.734375 -40.105469 L 126.625 -24.011719 L 128.78125 -5.617188 L 127.355469 -3.800781 C 124.652344 -0.359375 121.535156 2.242188 118.003906 4.007812 C 114.492188 5.761719 110.875 6.703125 107.144531 6.832031 C 103.40625 6.957031 99.867188 6.316406 96.527344 4.902344 C 93.058594 3.433594 90.167969 1.230469 87.851562 -1.707031 C 85.460938 -4.742188 84.042969 -8.386719 83.601562 -12.640625 C 83.257812 -15.71875 83.035156 -18.429688 82.929688 -20.773438 C 82.828125 -23.046875 82.761719 -25.289062 82.726562 -27.496094 L 82.628906 -34.714844 C 82.59375 -37.328125 82.511719 -40.5 82.382812 -44.234375 L 87.96875 -44.433594 L 85.46875 -39.429688 C 86.125 -39.105469 86.726562 -38.941406 87.273438 -38.941406 L 87.273438 -44.53125 L 92.769531 -43.5 C 92.566406 -42.417969 92.363281 -41.371094 92.160156 -40.351562 C 91.945312 -39.273438 91.691406 -38.160156 91.40625 -37.011719 L 87.402344 -19.757812 C 86.035156 -13.921875 84.617188 -8.105469 83.152344 -2.308594 L 82.585938 -0.0703125 L 80.609375 1.117188 C 78.851562 2.171875 76.605469 3.078125 73.867188 3.84375 C 71.167969 4.597656 68.261719 5.015625 65.148438 5.09375 C 61.949219 5.171875 58.8125 4.792969 55.734375 3.953125 C 52.292969 3.015625 49.242188 1.304688 46.582031 -1.179688 C 43.78125 -3.792969 41.851562 -7.265625 40.789062 -11.59375 C 40.191406 -13.980469 39.496094 -16.859375 38.695312 -20.226562 C 37.894531 -23.589844 37.113281 -26.953125 36.347656 -30.316406 C 35.589844 -33.632812 34.902344 -36.546875 34.28125 -39.066406 C 33.707031 -41.390625 33.296875 -42.875 33.050781 -43.519531 L 38.269531 -45.527344 L 43.847656 -45.140625 L 42.851562 -30.777344 L 41.910156 -17.109375 L 40.765625 0.59375 L 38.007812 2.054688 C 34.261719 4.042969 30.457031 5.40625 26.589844 6.140625 C 22.5 6.914062 18.582031 6.867188 14.832031 5.992188 C 10.796875 5.050781 7.34375 3.117188 4.464844 0.195312 C 1.609375 -2.707031 -0.386719 -6.589844 -1.519531 -11.457031 C -2.570312 -15.976562 -2.652344 -21.398438 -1.757812 -27.71875 C -0.949219 -33.734375 0.117188 -39.84375 1.441406 -46.042969 C 2.710938 -52.011719 3.804688 -57.863281 4.714844 -63.601562 C 5.652344 -69.15625 6.621094 -74.695312 7.617188 -80.214844 C 8.609375 -85.699219 9.566406 -91.148438 10.492188 -96.5625 L 10.804688 -98.386719 L 12.136719 -99.664062 C 14.265625 -101.699219 17.070312 -103.296875 20.546875 -104.457031 C 23.785156 -105.535156 27.289062 -106.09375 31.054688 -106.132812 C 34.867188 -106.175781 38.644531 -105.5625 42.390625 -104.300781 C 46.367188 -102.960938 49.886719 -100.757812 52.957031 -97.6875 C 56.109375 -94.539062 58.375 -90.433594 59.765625 -85.371094 C 60.4375 -83.082031 61.152344 -80.308594 61.90625 -77.054688 L 64.1875 -67.328125 L 66.472656 -57.644531 L 61.03125 -56.359375 L 66.03125 -58.859375 C 66.324219 -58.28125 66.597656 -57.332031 66.863281 -56.015625 C 67.011719 -55.273438 67.207031 -54.417969 67.449219 -53.441406 C 67.738281 -52.296875 67.972656 -51.265625 68.15625 -50.347656 C 68.222656 -50.007812 68.277344 -49.753906 68.320312 -49.582031 L 68.320312 -49.570312 C 68.25 -49.804688 68.152344 -50.054688 68.019531 -50.3125 L 63.019531 -47.8125 L 63.019531 -53.402344 L 63.515625 -53.402344 L 63.515625 -47.8125 Z M 68.707031 -45.734375 L 67.300781 -42.21875 L 59.5625 -42.21875 L 58.019531 -45.3125 C 57.730469 -45.890625 57.453125 -46.839844 57.1875 -48.15625 C 57.039062 -48.898438 56.84375 -49.753906 56.601562 -50.730469 C 56.316406 -51.875 56.082031 -52.90625 55.898438 -53.820312 C 55.828125 -54.164062 55.773438 -54.417969 55.734375 -54.589844 L 55.730469 -54.601562 C 55.800781 -54.367188 55.902344 -54.117188 56.03125 -53.859375 L 55.738281 -54.441406 L 53.300781 -64.773438 L 51.011719 -74.53125 C 50.308594 -77.574219 49.628906 -80.199219 48.980469 -82.414062 C 48.113281 -85.570312 46.804688 -88.027344 45.050781 -89.78125 C 43.214844 -91.613281 41.140625 -92.921875 38.820312 -93.703125 C 36.269531 -94.5625 33.71875 -94.980469 31.171875 -94.953125 C 28.574219 -94.925781 26.210938 -94.558594 24.082031 -93.847656 C 22.191406 -93.21875 20.789062 -92.460938 19.867188 -91.582031 L 16.003906 -95.625 L 21.515625 -94.683594 C 20.585938 -89.230469 19.621094 -83.746094 18.625 -78.226562 C 17.632812 -72.75 16.679688 -67.289062 15.761719 -61.84375 C 14.816406 -55.914062 13.6875 -49.871094 12.375 -43.714844 C 11.113281 -37.789062 10.09375 -31.9375 9.3125 -26.15625 C 8.617188 -21.210938 8.636719 -17.15625 9.371094 -13.992188 C 10.027344 -11.167969 11.050781 -9.054688 12.433594 -7.652344 C 13.796875 -6.265625 15.441406 -5.347656 17.375 -4.898438 C 19.585938 -4.382812 21.964844 -4.363281 24.503906 -4.847656 C 27.261719 -5.371094 30.015625 -6.363281 32.765625 -7.820312 L 35.386719 -2.882812 L 29.808594 -3.242188 L 30.753906 -17.878906 L 31.695312 -31.546875 L 32.691406 -45.910156 L 43.488281 -47.53125 C 43.902344 -46.453125 44.453125 -44.523438 45.140625 -41.746094 C 45.777344 -39.160156 46.480469 -36.179688 47.25 -32.800781 C 48.007812 -29.472656 48.78125 -26.140625 49.574219 -22.8125 C 50.363281 -19.488281 51.058594 -16.632812 51.652344 -14.253906 C 52.183594 -12.085938 53.035156 -10.453125 54.210938 -9.355469 C 55.527344 -8.128906 57.015625 -7.289062 58.675781 -6.835938 C 60.699219 -6.285156 62.765625 -6.035156 64.867188 -6.085938 C 67.054688 -6.140625 69.050781 -6.421875 70.859375 -6.925781 C 72.628906 -7.421875 73.960938 -7.9375 74.855469 -8.472656 L 77.730469 -3.679688 L 72.308594 -5.046875 C 73.761719 -10.78125 75.160156 -16.527344 76.507812 -22.289062 L 80.558594 -39.726562 C 80.800781 -40.699219 81.011719 -41.640625 81.195312 -42.546875 C 81.390625 -43.519531 81.582031 -44.523438 81.777344 -45.5625 L 82.632812 -50.121094 L 87.273438 -50.121094 C 88.484375 -50.121094 89.550781 -49.894531 90.46875 -49.433594 L 93.441406 -47.949219 L 93.558594 -44.628906 C 93.691406 -40.808594 93.773438 -37.554688 93.808594 -34.867188 L 93.90625 -27.667969 C 93.941406 -25.570312 94.003906 -23.4375 94.101562 -21.273438 C 94.195312 -19.175781 94.402344 -16.683594 94.722656 -13.800781 C 94.941406 -11.691406 95.582031 -9.96875 96.636719 -8.628906 C 97.765625 -7.195312 99.179688 -6.117188 100.882812 -5.398438 C 102.710938 -4.625 104.671875 -4.273438 106.765625 -4.34375 C 108.867188 -4.417969 110.945312 -4.96875 113.003906 -5.996094 C 115.039062 -7.011719 116.890625 -8.585938 118.5625 -10.710938 L 122.957031 -7.257812 L 117.40625 -6.605469 L 115.515625 -22.707031 L 113.625 -38.820312 L 112.488281 -48.679688 L 111.148438 -59.742188 C 110.683594 -63.46875 110.265625 -66.914062 109.898438 -70.082031 C 109.539062 -73.179688 109.230469 -75.644531 108.96875 -77.480469 C 108.441406 -81.371094 107.1875 -84.574219 105.203125 -87.085938 C 103.195312 -89.628906 100.726562 -91.492188 97.796875 -92.675781 C 94.808594 -93.890625 91.617188 -94.324219 88.226562 -93.984375 C 84.820312 -93.644531 81.511719 -92.429688 78.292969 -90.339844 L 75.246094 -95.027344 L 80.648438 -93.585938 C 80.335938 -92.410156 79.960938 -91.25 79.53125 -90.113281 C 79.222656 -89.296875 78.957031 -88.503906 78.734375 -87.726562 L 73.359375 -89.261719 L 78.800781 -87.988281 L 74.179688 -68.207031 L 69.539062 -48.34375 C 69.449219 -47.996094 69.34375 -47.613281 69.21875 -47.199219 C 69.074219 -46.707031 68.902344 -46.21875 68.707031 -45.734375 Z M 68.707031 -45.734375 "/></g></g></g><g fill="#fac1e6" fill-opacity="1"><g transform="translate(4.29519, 108.258841)"><g><path d="M 63.515625 -47.8125 C 63.648438 -48.144531 63.765625 -48.472656 63.859375 -48.796875 C 63.960938 -49.128906 64.046875 -49.429688 64.109375 -49.703125 C 65.628906 -56.328125 67.164062 -62.914062 68.71875 -69.46875 C 70.28125 -76.03125 71.828125 -82.625 73.359375 -89.25 C 73.617188 -90.1875 73.929688 -91.132812 74.296875 -92.09375 C 74.660156 -93.050781 74.976562 -94.023438 75.25 -95.015625 C 79.21875 -97.609375 83.351562 -99.117188 87.65625 -99.546875 C 91.96875 -99.972656 96.046875 -99.40625 99.890625 -97.84375 C 103.734375 -96.289062 106.960938 -93.859375 109.578125 -90.546875 C 112.203125 -87.234375 113.84375 -83.125 114.5 -78.21875 C 114.769531 -76.363281 115.085938 -73.863281 115.453125 -70.71875 C 115.816406 -67.570312 116.226562 -64.140625 116.6875 -60.421875 C 117.15625 -56.710938 117.601562 -53.019531 118.03125 -49.34375 C 118.457031 -45.664062 118.835938 -42.367188 119.171875 -39.453125 C 119.835938 -33.828125 120.46875 -28.460938 121.0625 -23.359375 C 121.65625 -18.253906 122.285156 -12.882812 122.953125 -7.25 C 120.765625 -4.46875 118.28125 -2.378906 115.5 -0.984375 C 112.71875 0.398438 109.867188 1.140625 106.953125 1.234375 C 104.035156 1.335938 101.285156 0.84375 98.703125 -0.25 C 96.117188 -1.34375 93.960938 -2.984375 92.234375 -5.171875 C 90.515625 -7.359375 89.488281 -10.039062 89.15625 -13.21875 C 88.820312 -16.195312 88.601562 -18.796875 88.5 -21.015625 C 88.40625 -23.242188 88.34375 -25.429688 88.3125 -27.578125 C 88.28125 -29.734375 88.242188 -32.132812 88.203125 -34.78125 C 88.171875 -37.4375 88.09375 -40.65625 87.96875 -44.4375 C 87.832031 -44.5 87.597656 -44.53125 87.265625 -44.53125 C 87.066406 -43.46875 86.867188 -42.4375 86.671875 -41.4375 C 86.472656 -40.445312 86.242188 -39.421875 85.984375 -38.359375 C 84.648438 -32.597656 83.304688 -26.816406 81.953125 -21.015625 C 80.597656 -15.222656 79.191406 -9.441406 77.734375 -3.671875 C 76.398438 -2.878906 74.609375 -2.164062 72.359375 -1.53125 C 70.109375 -0.90625 67.65625 -0.554688 65 -0.484375 C 62.351562 -0.421875 59.753906 -0.738281 57.203125 -1.4375 C 54.648438 -2.132812 52.378906 -3.410156 50.390625 -5.265625 C 48.398438 -7.117188 47.007812 -9.671875 46.21875 -12.921875 C 45.625 -15.304688 44.925781 -18.171875 44.125 -21.515625 C 43.332031 -24.859375 42.554688 -28.203125 41.796875 -31.546875 C 41.035156 -34.898438 40.335938 -37.851562 39.703125 -40.40625 C 39.078125 -42.957031 38.597656 -44.660156 38.265625 -45.515625 C 37.929688 -40.484375 37.597656 -35.695312 37.265625 -31.15625 C 36.941406 -26.625 36.628906 -22.070312 36.328125 -17.5 C 36.023438 -12.925781 35.710938 -8.050781 35.390625 -2.875 C 32.140625 -1.15625 28.859375 0.015625 25.546875 0.640625 C 22.234375 1.273438 19.082031 1.242188 16.09375 0.546875 C 13.113281 -0.148438 10.5625 -1.570312 8.4375 -3.71875 C 6.320312 -5.875 4.816406 -8.875 3.921875 -12.71875 C 3.023438 -16.5625 2.976562 -21.300781 3.78125 -26.9375 C 4.570312 -32.832031 5.613281 -38.8125 6.90625 -44.875 C 8.195312 -50.9375 9.304688 -56.882812 10.234375 -62.71875 C 11.160156 -68.21875 12.117188 -73.71875 13.109375 -79.21875 C 14.109375 -84.71875 15.070312 -90.1875 16 -95.625 C 17.519531 -97.082031 19.625 -98.253906 22.3125 -99.140625 C 25 -100.035156 27.929688 -100.5 31.109375 -100.53125 C 34.285156 -100.570312 37.445312 -100.0625 40.59375 -99 C 43.75 -97.9375 46.550781 -96.175781 49 -93.71875 C 51.457031 -91.269531 53.25 -87.992188 54.375 -83.890625 C 55.03125 -81.640625 55.722656 -78.9375 56.453125 -75.78125 C 57.179688 -72.632812 57.941406 -69.390625 58.734375 -66.046875 C 59.535156 -62.703125 60.300781 -59.472656 61.03125 -56.359375 C 61.09375 -56.222656 61.207031 -55.738281 61.375 -54.90625 C 61.539062 -54.082031 61.753906 -53.140625 62.015625 -52.078125 C 62.285156 -51.023438 62.503906 -50.082031 62.671875 -49.25 C 62.835938 -48.425781 62.953125 -47.945312 63.015625 -47.8125 C 63.148438 -47.8125 63.25 -47.8125 63.3125 -47.8125 C 63.382812 -47.8125 63.453125 -47.8125 63.515625 -47.8125 Z M 63.515625 -47.8125 "/></g></g></g><g fill="#fac1e6" fill-opacity="1"><g transform="translate(130.832098, 108.258841)"><g><path d="M 54.96875 -101.390625 C 61.726562 -101.453125 67.640625 -100.6875 72.703125 -99.09375 C 77.773438 -97.507812 82.097656 -95.457031 85.671875 -92.9375 C 89.253906 -90.414062 92.222656 -87.726562 94.578125 -84.875 C 96.929688 -82.03125 98.785156 -79.332031 100.140625 -76.78125 C 101.492188 -74.226562 102.472656 -72.160156 103.078125 -70.578125 C 105.390625 -64.210938 106.757812 -57.796875 107.1875 -51.328125 C 107.625 -44.867188 106.847656 -38.363281 104.859375 -31.8125 C 99.429688 -14.382812 87.867188 -3.582031 70.171875 0.59375 C 63.015625 2.320312 55.957031 2.867188 49 2.234375 C 42.039062 1.609375 35.25 -0.425781 28.625 -3.875 C 22.332031 -7.125 17.3125 -11.347656 13.5625 -16.546875 C 9.820312 -21.753906 7.191406 -27.769531 5.671875 -34.59375 C 4.671875 -38.894531 4.085938 -43.296875 3.921875 -47.796875 C 3.753906 -52.304688 4.019531 -56.679688 4.71875 -60.921875 C 5.414062 -65.171875 6.5625 -68.984375 8.15625 -72.359375 C 9.738281 -75.867188 11.789062 -79.328125 14.3125 -82.734375 C 16.832031 -86.148438 19.945312 -89.265625 23.65625 -92.078125 C 27.363281 -94.898438 31.800781 -97.15625 36.96875 -98.84375 C 42.144531 -100.539062 48.144531 -101.390625 54.96875 -101.390625 Z M 55.46875 -65.796875 C 53.007812 -65.796875 50.734375 -65.113281 48.640625 -63.75 C 46.554688 -62.394531 44.914062 -60.375 43.71875 -57.6875 C 42.53125 -55.007812 42.070312 -51.679688 42.34375 -47.703125 C 42.601562 -43.859375 43.476562 -40.8125 44.96875 -38.5625 C 46.46875 -36.3125 48.226562 -34.703125 50.25 -33.734375 C 52.269531 -32.773438 54.140625 -32.363281 55.859375 -32.5 C 57.648438 -32.632812 59.457031 -33.210938 61.28125 -34.234375 C 63.101562 -35.265625 64.660156 -36.90625 65.953125 -39.15625 C 67.242188 -41.414062 67.988281 -44.398438 68.1875 -48.109375 C 68.445312 -51.878906 68 -55.070312 66.84375 -57.6875 C 65.6875 -60.3125 64.097656 -62.316406 62.078125 -63.703125 C 60.054688 -65.097656 57.851562 -65.796875 55.46875 -65.796875 Z M 55.46875 -65.796875 "/></g></g></g><g fill="#fac1e6" fill-opacity="1"><g transform="translate(242.160724, 108.258841)"><g><path d="M 63.515625 -47.8125 C 63.648438 -48.144531 63.765625 -48.472656 63.859375 -48.796875 C 63.960938 -49.128906 64.046875 -49.429688 64.109375 -49.703125 C 65.628906 -56.328125 67.164062 -62.914062 68.71875 -69.46875 C 70.28125 -76.03125 71.828125 -82.625 73.359375 -89.25 C 73.617188 -90.1875 73.929688 -91.132812 74.296875 -92.09375 C 74.660156 -93.050781 74.976562 -94.023438 75.25 -95.015625 C 79.21875 -97.609375 83.351562 -99.117188 87.65625 -99.546875 C 91.96875 -99.972656 96.046875 -99.40625 99.890625 -97.84375 C 103.734375 -96.289062 106.960938 -93.859375 109.578125 -90.546875 C 112.203125 -87.234375 113.84375 -83.125 114.5 -78.21875 C 114.769531 -76.363281 115.085938 -73.863281 115.453125 -70.71875 C 115.816406 -67.570312 116.226562 -64.140625 116.6875 -60.421875 C 117.15625 -56.710938 117.601562 -53.019531 118.03125 -49.34375 C 118.457031 -45.664062 118.835938 -42.367188 119.171875 -39.453125 C 119.835938 -33.828125 120.46875 -28.460938 121.0625 -23.359375 C 121.65625 -18.253906 122.285156 -12.882812 122.953125 -7.25 C 120.765625 -4.46875 118.28125 -2.378906 115.5 -0.984375 C 112.71875 0.398438 109.867188 1.140625 106.953125 1.234375 C 104.035156 1.335938 101.285156 0.84375 98.703125 -0.25 C 96.117188 -1.34375 93.960938 -2.984375 92.234375 -5.171875 C 90.515625 -7.359375 89.488281 -10.039062 89.15625 -13.21875 C 88.820312 -16.195312 88.601562 -18.796875 88.5 -21.015625 C 88.40625 -23.242188 88.34375 -25.429688 88.3125 -27.578125 C 88.28125 -29.734375 88.242188 -32.132812 88.203125 -34.78125 C 88.171875 -37.4375 88.09375 -40.65625 87.96875 -44.4375 C 87.832031 -44.5 87.597656 -44.53125 87.265625 -44.53125 C 87.066406 -43.46875 86.867188 -42.4375 86.671875 -41.4375 C 86.472656 -40.445312 86.242188 -39.421875 85.984375 -38.359375 C 84.648438 -32.597656 83.304688 -26.816406 81.953125 -21.015625 C 80.597656 -15.222656 79.191406 -9.441406 77.734375 -3.671875 C 76.398438 -2.878906 74.609375 -2.164062 72.359375 -1.53125 C 70.109375 -0.90625 67.65625 -0.554688 65 -0.484375 C 62.351562 -0.421875 59.753906 -0.738281 57.203125 -1.4375 C 54.648438 -2.132812 52.378906 -3.410156 50.390625 -5.265625 C 48.398438 -7.117188 47.007812 -9.671875 46.21875 -12.921875 C 45.625 -15.304688 44.925781 -18.171875 44.125 -21.515625 C 43.332031 -24.859375 42.554688 -28.203125 41.796875 -31.546875 C 41.035156 -34.898438 40.335938 -37.851562 39.703125 -40.40625 C 39.078125 -42.957031 38.597656 -44.660156 38.265625 -45.515625 C 37.929688 -40.484375 37.597656 -35.695312 37.265625 -31.15625 C 36.941406 -26.625 36.628906 -22.070312 36.328125 -17.5 C 36.023438 -12.925781 35.710938 -8.050781 35.390625 -2.875 C 32.140625 -1.15625 28.859375 0.015625 25.546875 0.640625 C 22.234375 1.273438 19.082031 1.242188 16.09375 0.546875 C 13.113281 -0.148438 10.5625 -1.570312 8.4375 -3.71875 C 6.320312 -5.875 4.816406 -8.875 3.921875 -12.71875 C 3.023438 -16.5625 2.976562 -21.300781 3.78125 -26.9375 C 4.570312 -32.832031 5.613281 -38.8125 6.90625 -44.875 C 8.195312 -50.9375 9.304688 -56.882812 10.234375 -62.71875 C 11.160156 -68.21875 12.117188 -73.71875 13.109375 -79.21875 C 14.109375 -84.71875 15.070312 -90.1875 16 -95.625 C 17.519531 -97.082031 19.625 -98.253906 22.3125 -99.140625 C 25 -100.035156 27.929688 -100.5 31.109375 -100.53125 C 34.285156 -100.570312 37.445312 -100.0625 40.59375 -99 C 43.75 -97.9375 46.550781 -96.175781 49 -93.71875 C 51.457031 -91.269531 53.25 -87.992188 54.375 -83.890625 C 55.03125 -81.640625 55.722656 -78.9375 56.453125 -75.78125 C 57.179688 -72.632812 57.941406 -69.390625 58.734375 -66.046875 C 59.535156 -62.703125 60.300781 -59.472656 61.03125 -56.359375 C 61.09375 -56.222656 61.207031 -55.738281 61.375 -54.90625 C 61.539062 -54.082031 61.753906 -53.140625 62.015625 -52.078125 C 62.285156 -51.023438 62.503906 -50.082031 62.671875 -49.25 C 62.835938 -48.425781 62.953125 -47.945312 63.015625 -47.8125 C 63.148438 -47.8125 63.25 -47.8125 63.3125 -47.8125 C 63.382812 -47.8125 63.453125 -47.8125 63.515625 -47.8125 Z M 63.515625 -47.8125 "/></g></g></g></g></g></svg>