<svg xmlns="http://www.w3.org/2000/svg" xmlns:xlink="http://www.w3.org/1999/xlink" width="1200" zoomAndPan="magnify" viewBox="0 0 900 119.999999" height="160" preserveAspectRatio="xMidYMid meet" version="1.0"><defs><g/></defs><g fill="#3d4a43" fill-opacity="1"><g transform="translate(4.899683, 96.39736)"><g><path d="M 43.824219 -85.378906 C 49.691406 -85.4375 54.871094 -84.761719 59.367188 -83.351562 C 63.855469 -81.941406 67.714844 -80.097656 70.949219 -77.824219 C 74.132812 -75.582031 76.792969 -73.171875 78.921875 -70.589844 C 80.992188 -68.082031 82.640625 -65.679688 83.863281 -63.378906 C 85.039062 -61.171875 85.898438 -59.34375 86.445312 -57.890625 C 88.449219 -52.390625 89.636719 -46.851562 90.011719 -41.269531 C 90.390625 -35.574219 89.707031 -29.847656 87.964844 -24.089844 C 85.554688 -16.363281 81.753906 -10.074219 76.566406 -5.226562 C 71.371094 -0.378906 64.863281 2.972656 57.03125 4.820312 C 50.855469 6.304688 44.75 6.777344 38.707031 6.230469 C 32.570312 5.675781 26.597656 3.886719 20.789062 0.867188 C 15.140625 -2.046875 10.613281 -5.871094 7.207031 -10.601562 C 3.863281 -15.246094 1.515625 -20.59375 0.167969 -26.632812 C -0.6875 -30.328125 -1.183594 -34.113281 -1.324219 -37.992188 C -1.46875 -41.886719 -1.238281 -45.671875 -0.636719 -49.351562 C -0.0117188 -53.144531 1.019531 -56.578125 2.46875 -59.652344 C 3.847656 -62.703125 5.636719 -65.714844 7.832031 -68.691406 C 10.097656 -71.761719 12.878906 -74.546875 16.183594 -77.054688 C 19.542969 -79.605469 23.523438 -81.632812 28.125 -83.136719 C 32.699219 -84.632812 37.949219 -85.378906 43.871094 -85.378906 Z M 43.871094 -76.453125 C 38.894531 -76.453125 34.570312 -75.851562 30.898438 -74.652344 C 27.246094 -73.457031 24.140625 -71.890625 21.578125 -69.945312 C 18.957031 -67.957031 16.769531 -65.773438 15.015625 -63.394531 C 13.191406 -60.921875 11.699219 -58.410156 10.542969 -55.851562 C 9.449219 -53.53125 8.660156 -50.882812 8.171875 -47.90625 C 7.664062 -44.816406 7.472656 -41.621094 7.59375 -38.320312 C 7.714844 -35.007812 8.144531 -31.761719 8.878906 -28.578125 C 9.960938 -23.726562 11.820312 -19.472656 14.449219 -15.816406 C 17.023438 -12.242188 20.507812 -9.320312 24.90625 -7.054688 C 29.675781 -4.574219 34.542969 -3.109375 39.511719 -2.660156 C 44.578125 -2.199219 49.734375 -2.605469 54.980469 -3.867188 C 61.273438 -5.351562 66.4375 -7.980469 70.472656 -11.75 C 74.511719 -15.523438 77.496094 -20.5 79.421875 -26.679688 C 80.851562 -31.394531 81.414062 -36.0625 81.105469 -40.675781 C 80.789062 -45.410156 79.785156 -50.105469 78.085938 -54.757812 C 77.679688 -55.84375 76.980469 -57.320312 75.984375 -59.183594 C 75.042969 -60.957031 73.726562 -62.863281 72.042969 -64.90625 C 70.417969 -66.871094 68.34375 -68.746094 65.8125 -70.523438 C 63.335938 -72.265625 60.296875 -73.703125 56.695312 -74.835938 C 53.097656 -75.960938 48.835938 -76.503906 43.914062 -76.453125 Z M 44.265625 -48.054688 C 43.191406 -48.054688 42.191406 -47.753906 41.265625 -47.148438 C 40.339844 -46.546875 39.578125 -45.574219 38.984375 -44.238281 C 38.328125 -42.769531 38.085938 -40.816406 38.246094 -38.375 C 38.40625 -36.097656 38.859375 -34.386719 39.617188 -33.242188 C 40.351562 -32.132812 41.152344 -31.375 42.015625 -30.960938 C 42.914062 -30.535156 43.65625 -30.34375 44.242188 -30.390625 C 45.015625 -30.449219 45.839844 -30.722656 46.714844 -31.214844 C 47.457031 -31.632812 48.140625 -32.386719 48.765625 -33.476562 C 49.445312 -34.660156 49.84375 -36.378906 49.964844 -38.632812 C 50.128906 -40.960938 49.894531 -42.832031 49.269531 -44.242188 C 48.683594 -45.5625 47.929688 -46.542969 47.011719 -47.175781 C 46.160156 -47.761719 45.246094 -48.054688 44.265625 -48.054688 Z M 44.265625 -56.980469 C 47.09375 -56.980469 49.695312 -56.160156 52.074219 -54.527344 C 54.378906 -52.9375 56.164062 -50.714844 57.429688 -47.859375 C 58.65625 -45.09375 59.136719 -41.859375 58.875 -38.15625 C 58.679688 -34.488281 57.890625 -31.449219 56.507812 -29.035156 C 55.066406 -26.527344 53.265625 -24.664062 51.097656 -23.441406 C 49.066406 -22.296875 47.007812 -21.644531 44.925781 -21.492188 C 42.761719 -21.324219 40.515625 -21.796875 38.183594 -22.902344 C 35.824219 -24.023438 33.820312 -25.828125 32.175781 -28.316406 C 30.550781 -30.769531 29.609375 -33.925781 29.34375 -37.78125 C 29.082031 -41.6875 29.578125 -45.050781 30.828125 -47.863281 C 32.136719 -50.808594 33.992188 -53.066406 36.398438 -54.628906 C 38.804688 -56.195312 41.425781 -56.980469 44.265625 -56.980469 Z M 44.265625 -56.980469 "/></g></g></g><g fill="#3d4a43" fill-opacity="1"><g transform="translate(93.747177, 96.39736)"><g><path d="M 45.058594 -49.679688 L 45.296875 -49.679688 L 45.296875 -40.753906 L 45.058594 -40.753906 Z M 45.058594 -40.753906 L 45.058594 -49.679688 L 45.296875 -49.679688 L 45.296875 -40.753906 Z M 12.992188 -13.652344 C 12.085938 -15.921875 11.148438 -18.796875 10.179688 -22.289062 C 9.238281 -25.667969 8.273438 -29.40625 7.285156 -33.5 C 6.292969 -37.589844 5.347656 -41.816406 4.4375 -46.171875 L 1.855469 -58.761719 C 1.027344 -62.878906 0.316406 -66.625 -0.269531 -69.996094 L -0.445312 -70.992188 L -0.171875 -71.96875 C 0.523438 -74.441406 1.875 -76.644531 3.886719 -78.578125 C 5.675781 -80.304688 7.78125 -81.71875 10.195312 -82.828125 C 12.625 -83.945312 15.179688 -84.617188 17.867188 -84.847656 C 20.660156 -85.085938 23.355469 -84.757812 25.957031 -83.871094 C 28.71875 -82.925781 31.113281 -81.296875 33.144531 -78.980469 C 35.160156 -76.679688 36.566406 -73.671875 37.363281 -69.953125 C 38.539062 -64.558594 39.609375 -59.109375 40.570312 -53.601562 C 41.527344 -48.117188 42.355469 -43.042969 43.046875 -38.378906 C 43.742188 -33.710938 44.277344 -29.820312 44.652344 -26.714844 L 40.21875 -26.179688 L 40.21875 -30.640625 L 40.933594 -30.640625 L 40.933594 -26.179688 L 36.59375 -27.210938 C 37.328125 -30.3125 38.050781 -33.441406 38.761719 -36.597656 L 40.945312 -46.207031 C 41.570312 -48.960938 42.207031 -52.03125 42.859375 -55.421875 L 44.800781 -65.535156 L 46.507812 -74.347656 C 47.03125 -77.011719 47.4375 -78.894531 47.726562 -79.988281 L 48.3125 -82.226562 L 50.480469 -83.035156 C 55.992188 -85.09375 60.867188 -85.835938 65.097656 -85.257812 C 69.660156 -84.636719 73.351562 -82.773438 76.167969 -79.671875 C 78.832031 -76.742188 80.566406 -73.03125 81.378906 -68.542969 C 82.140625 -64.351562 82.046875 -59.742188 81.097656 -54.707031 C 80.5 -51.398438 79.6875 -47.722656 78.65625 -43.679688 C 77.640625 -39.691406 76.515625 -35.574219 75.285156 -31.324219 C 74.054688 -27.070312 72.785156 -22.945312 71.472656 -18.953125 C 70.15625 -14.953125 68.878906 -11.308594 67.640625 -8.023438 C 66.367188 -4.65625 65.195312 -1.898438 64.125 0.25 L 63.28125 1.9375 L 61.480469 2.507812 C 59.1875 3.234375 56.480469 3.945312 53.363281 4.636719 C 50.089844 5.359375 46.644531 5.761719 43.023438 5.847656 C 39.234375 5.941406 35.476562 5.445312 31.757812 4.363281 C 27.835938 3.226562 24.25 1.21875 21 -1.65625 C 17.726562 -4.550781 15.058594 -8.546875 13 -13.636719 Z M 21.273438 -16.984375 C 22.808594 -13.191406 24.6875 -10.308594 26.914062 -8.339844 C 29.164062 -6.351562 31.609375 -4.972656 34.246094 -4.207031 C 37.082031 -3.382812 39.9375 -3.003906 42.8125 -3.074219 C 45.855469 -3.144531 48.726562 -3.480469 51.433594 -4.078125 C 54.292969 -4.710938 56.742188 -5.351562 58.785156 -6 L 60.132812 -1.746094 L 56.140625 -3.742188 C 57.078125 -5.613281 58.125 -8.089844 59.289062 -11.171875 C 60.480469 -14.339844 61.71875 -17.863281 62.992188 -21.742188 C 64.273438 -25.632812 65.511719 -29.652344 66.714844 -33.804688 C 67.917969 -37.964844 69.015625 -41.992188 70.007812 -45.882812 C 70.988281 -49.722656 71.757812 -53.210938 72.328125 -56.355469 C 73.070312 -60.3125 73.160156 -63.84375 72.597656 -66.953125 C 72.089844 -69.761719 71.078125 -72.003906 69.5625 -73.671875 C 68.199219 -75.171875 66.308594 -76.085938 63.890625 -76.414062 C 61.144531 -76.789062 57.714844 -76.210938 53.601562 -74.671875 L 52.039062 -78.855469 L 56.355469 -77.71875 C 56.117188 -76.804688 55.753906 -75.117188 55.269531 -72.652344 L 53.566406 -63.851562 L 51.625 -53.734375 C 50.953125 -50.25 50.292969 -47.082031 49.648438 -44.230469 L 47.46875 -34.640625 C 46.75 -31.449219 46.019531 -28.285156 45.277344 -25.148438 L 44.460938 -21.714844 L 36.265625 -21.714844 L 35.789062 -25.644531 C 35.425781 -28.671875 34.902344 -32.476562 34.21875 -37.066406 C 33.539062 -41.65625 32.722656 -46.65625 31.777344 -52.066406 C 30.835938 -57.453125 29.789062 -62.789062 28.636719 -68.082031 C 28.164062 -70.289062 27.429688 -71.957031 26.433594 -73.09375 C 25.449219 -74.21875 24.328125 -74.996094 23.070312 -75.425781 C 21.652344 -75.910156 20.171875 -76.085938 18.625 -75.953125 C 16.972656 -75.8125 15.40625 -75.402344 13.921875 -74.71875 C 12.421875 -74.03125 11.140625 -73.175781 10.078125 -72.148438 C 9.230469 -71.335938 8.679688 -70.46875 8.421875 -69.554688 L 4.125 -70.761719 L 8.519531 -71.53125 C 9.097656 -68.234375 9.789062 -64.578125 10.597656 -60.550781 L 13.175781 -47.992188 C 14.0625 -43.730469 14.992188 -39.597656 15.960938 -35.597656 C 16.925781 -31.601562 17.867188 -27.960938 18.777344 -24.675781 C 19.660156 -21.5 20.492188 -18.933594 21.277344 -16.96875 Z M 21.273438 -16.984375 "/></g></g></g><g fill="#3d4a43" fill-opacity="1"><g transform="translate(177.200352, 96.39736)"><g><path d="M -0.0898438 -18.0625 C -0.199219 -19.921875 -0.28125 -22.402344 -0.335938 -25.507812 C -0.390625 -28.574219 -0.417969 -32.011719 -0.417969 -35.816406 C -0.417969 -39.628906 -0.375 -43.570312 -0.296875 -47.644531 C -0.21875 -51.710938 -0.109375 -55.714844 0.0234375 -59.648438 C 0.15625 -63.59375 0.316406 -67.25 0.503906 -70.613281 C 0.691406 -74.039062 0.925781 -76.910156 1.203125 -79.222656 L 1.625 -82.78125 L 5.1875 -83.136719 C 7.929688 -83.410156 11.238281 -83.613281 15.113281 -83.75 C 18.929688 -83.882812 23.023438 -83.976562 27.394531 -84.03125 C 31.777344 -84.082031 36.171875 -84.070312 40.578125 -83.988281 C 44.976562 -83.910156 49.132812 -83.789062 53.054688 -83.628906 C 56.992188 -83.46875 60.390625 -83.28125 63.246094 -83.066406 L 65.367188 -82.90625 L 66.578125 -81.15625 C 67.355469 -80.035156 67.996094 -78.503906 68.496094 -76.5625 C 68.957031 -74.789062 69.203125 -72.824219 69.234375 -70.667969 C 69.265625 -68.472656 68.996094 -66.253906 68.421875 -64.019531 C 67.796875 -61.597656 66.714844 -59.355469 65.167969 -57.296875 C 63.523438 -55.101562 61.3125 -53.371094 58.53125 -52.105469 C 55.855469 -50.886719 52.605469 -50.273438 48.789062 -50.273438 L 32.445312 -50.273438 L 32.445312 -54.738281 L 36.910156 -54.738281 L 36.910156 -50.613281 L 32.445312 -50.613281 L 32.445312 -55.074219 C 33.570312 -55.074219 35.132812 -55.101562 37.128906 -55.152344 C 39.203125 -55.207031 41.449219 -55.234375 43.871094 -55.234375 C 46.386719 -55.234375 48.863281 -55.121094 51.296875 -54.898438 C 53.914062 -54.65625 56.21875 -54.226562 58.210938 -53.601562 L 60.117188 -53.007812 L 60.941406 -51.191406 C 62.851562 -46.988281 63.640625 -42.988281 63.308594 -39.195312 C 62.941406 -35.023438 61.285156 -31.597656 58.339844 -28.910156 C 55.464844 -26.292969 51.542969 -24.847656 46.570312 -24.578125 C 45.144531 -24.523438 43.824219 -24.492188 42.601562 -24.492188 C 41.410156 -24.492188 40.035156 -24.507812 38.476562 -24.535156 C 36.96875 -24.558594 34.984375 -24.574219 32.523438 -24.574219 L 32.523438 -29.035156 L 36.988281 -29.035156 L 36.988281 -24.195312 L 32.523438 -24.195312 L 32.523438 -28.65625 L 62.089844 -28.65625 L 63.425781 -26.816406 C 65.375 -24.128906 66.617188 -21.160156 67.152344 -17.902344 C 67.695312 -14.621094 67.457031 -11.417969 66.4375 -8.292969 C 65.367188 -5.015625 63.375 -2.210938 60.457031 0.117188 C 57.582031 2.410156 53.851562 3.847656 49.269531 4.425781 C 47.839844 4.597656 45.953125 4.753906 43.617188 4.890625 C 41.296875 5.027344 38.75 5.109375 35.980469 5.136719 C 33.238281 5.164062 30.511719 5.148438 27.796875 5.097656 C 25.042969 5.042969 22.558594 4.933594 20.335938 4.769531 C 17.972656 4.59375 16.097656 4.347656 14.71875 4.035156 L 14.65625 4.019531 L 14.597656 4.003906 C 9.742188 2.757812 6.117188 0.214844 3.714844 -3.621094 C 1.539062 -7.09375 0.269531 -11.910156 -0.0898438 -18.0625 Z M 8.816406 -18.585938 C 9.089844 -13.953125 9.910156 -10.542969 11.277344 -8.359375 C 12.421875 -6.535156 14.265625 -5.296875 16.820312 -4.640625 L 15.707031 -0.316406 L 16.695312 -4.667969 C 17.640625 -4.453125 19.074219 -4.273438 20.996094 -4.132812 C 23.058594 -3.980469 25.382812 -3.878906 27.972656 -3.828125 C 30.597656 -3.773438 33.238281 -3.761719 35.894531 -3.789062 C 38.515625 -3.8125 40.917969 -3.890625 43.089844 -4.019531 C 45.25 -4.144531 46.933594 -4.28125 48.148438 -4.425781 C 51.074219 -4.796875 53.320312 -5.609375 54.890625 -6.859375 C 56.414062 -8.074219 57.433594 -9.476562 57.953125 -11.0625 C 58.519531 -12.804688 58.652344 -14.601562 58.347656 -16.449219 C 58.039062 -18.320312 57.324219 -20.03125 56.203125 -21.578125 L 59.816406 -24.195312 L 59.816406 -19.734375 L 28.0625 -19.734375 L 28.0625 -33.496094 L 32.523438 -33.496094 C 35.035156 -33.496094 37.070312 -33.484375 38.632812 -33.457031 C 40.140625 -33.429688 41.460938 -33.417969 42.601562 -33.417969 C 43.703125 -33.417969 44.867188 -33.441406 46.085938 -33.492188 C 48.941406 -33.644531 51.023438 -34.316406 52.328125 -35.507812 C 53.558594 -36.628906 54.253906 -38.117188 54.417969 -39.976562 C 54.613281 -42.210938 54.078125 -44.71875 52.816406 -47.496094 L 56.878906 -49.34375 L 55.546875 -45.082031 C 54.15625 -45.519531 52.46875 -45.828125 50.480469 -46.011719 C 48.316406 -46.210938 46.113281 -46.308594 43.871094 -46.308594 C 41.527344 -46.308594 39.359375 -46.28125 37.359375 -46.230469 C 35.285156 -46.175781 33.648438 -46.148438 32.445312 -46.148438 L 27.984375 -46.148438 L 27.984375 -59.199219 L 48.789062 -59.199219 C 51.316406 -59.199219 53.328125 -59.542969 54.832031 -60.226562 C 56.230469 -60.863281 57.296875 -61.671875 58.03125 -62.652344 C 58.867188 -63.765625 59.449219 -64.960938 59.777344 -66.242188 C 60.152344 -67.707031 60.332031 -69.136719 60.3125 -70.539062 C 60.289062 -71.980469 60.140625 -73.242188 59.859375 -74.324219 C 59.621094 -75.238281 59.414062 -75.824219 59.238281 -76.074219 L 62.910156 -78.617188 L 62.574219 -74.167969 C 59.820312 -74.375 56.527344 -74.554688 52.691406 -74.710938 C 48.835938 -74.871094 44.746094 -74.988281 40.417969 -75.066406 C 36.097656 -75.144531 31.792969 -75.15625 27.503906 -75.105469 C 23.199219 -75.054688 19.175781 -74.960938 15.425781 -74.832031 C 11.742188 -74.703125 8.625 -74.511719 6.078125 -74.253906 L 5.632812 -78.695312 L 10.0625 -78.167969 C 9.808594 -76.039062 9.59375 -73.355469 9.414062 -70.117188 C 9.230469 -66.820312 9.074219 -63.226562 8.941406 -59.347656 C 8.8125 -55.453125 8.707031 -51.496094 8.625 -47.472656 C 8.546875 -43.453125 8.507812 -39.570312 8.507812 -35.816406 C 8.507812 -32.0625 8.535156 -28.675781 8.585938 -25.660156 C 8.640625 -22.683594 8.714844 -20.324219 8.816406 -18.585938 Z M 8.816406 -18.585938 "/></g></g></g><g fill="#3d4a43" fill-opacity="1"><g transform="translate(243.994625, 96.39736)"><g><path d="M 64.921875 -32.847656 C 66.101562 -31.796875 67.441406 -30.265625 68.945312 -28.253906 C 70.320312 -26.410156 71.71875 -24.410156 73.140625 -22.246094 C 74.558594 -20.089844 75.847656 -18.023438 76.996094 -16.050781 C 78.253906 -13.898438 79.140625 -12.078125 79.65625 -10.589844 L 80.050781 -9.457031 L 79.824219 -8.28125 C 79.136719 -4.707031 77.691406 -1.710938 75.488281 0.707031 C 73.300781 3.105469 70.652344 4.78125 67.550781 5.734375 C 64.558594 6.652344 61.421875 6.84375 58.144531 6.308594 C 54.902344 5.777344 51.765625 4.484375 48.734375 2.417969 C 45.714844 0.363281 43.109375 -2.480469 40.921875 -6.101562 C 40.316406 -7.113281 39.621094 -8.214844 38.835938 -9.402344 C 38 -10.671875 37.03125 -12.175781 35.929688 -13.921875 C 34.855469 -15.628906 33.5 -17.742188 31.871094 -20.265625 L 31.273438 -21.164062 C 31.132812 -21.375 30.996094 -21.5625 30.867188 -21.726562 L 34.351562 -24.511719 L 36.34375 -20.523438 C 35.507812 -20.101562 34.65625 -19.890625 33.792969 -19.890625 L 33.792969 -24.355469 L 38.257812 -24.355469 C 38.257812 -23.617188 38.242188 -22.816406 38.214844 -21.949219 C 38.1875 -21.085938 38.144531 -20.207031 38.089844 -19.316406 C 37.929688 -16.09375 37.730469 -12.851562 37.492188 -9.589844 C 37.246094 -6.273438 36.984375 -3.589844 36.710938 -1.542969 L 36.519531 -0.144531 L 35.5625 0.890625 C 33.699219 2.902344 31.371094 4.339844 28.578125 5.210938 C 25.925781 6.039062 23.125 6.265625 20.183594 5.894531 C 17.265625 5.527344 14.457031 4.535156 11.753906 2.917969 C 9.027344 1.289062 6.660156 -0.980469 4.65625 -3.894531 C 2.660156 -6.789062 1.261719 -10.339844 0.457031 -14.550781 C 0.214844 -15.703125 0.00390625 -17.519531 -0.167969 -19.996094 C -0.328125 -22.3125 -0.476562 -25.050781 -0.609375 -28.210938 C -0.746094 -31.371094 -0.839844 -34.746094 -0.890625 -38.328125 C -0.945312 -41.90625 -0.957031 -45.507812 -0.933594 -49.136719 C -0.90625 -52.773438 -0.839844 -56.234375 -0.730469 -59.523438 C -0.621094 -62.867188 -0.445312 -65.851562 -0.199219 -68.480469 C 0.0625 -71.273438 0.410156 -73.476562 0.847656 -75.09375 L 1.171875 -76.300781 L 2.074219 -77.164062 C 3.65625 -78.671875 5.945312 -80.023438 8.941406 -81.214844 C 11.652344 -82.292969 14.792969 -83.191406 18.363281 -83.902344 C 21.855469 -84.601562 25.585938 -85.089844 29.554688 -85.367188 C 33.554688 -85.648438 37.578125 -85.632812 41.628906 -85.328125 C 45.75 -85.015625 49.679688 -84.34375 53.421875 -83.316406 C 57.363281 -82.234375 60.859375 -80.652344 63.910156 -78.578125 C 66.855469 -76.613281 69.476562 -74.089844 71.765625 -71.003906 C 74.027344 -67.960938 75.789062 -64.59375 77.046875 -60.898438 C 78.335938 -57.125 78.90625 -53.242188 78.75 -49.25 C 78.59375 -45.148438 77.515625 -41.171875 75.515625 -37.328125 C 73.503906 -33.460938 70.417969 -30 66.265625 -26.945312 L 63.621094 -30.542969 L 66.527344 -27.152344 C 65.878906 -26.597656 65.019531 -26.054688 63.953125 -25.519531 L 61.957031 -29.511719 Z M 58.992188 -26.175781 L 54.066406 -30.554688 L 59.960938 -33.503906 C 60.375 -33.707031 60.625 -33.851562 60.71875 -33.929688 L 60.84375 -34.039062 L 60.980469 -34.136719 C 64.019531 -36.371094 66.222656 -38.808594 67.597656 -41.445312 C 68.980469 -44.109375 69.726562 -46.824219 69.832031 -49.59375 C 69.945312 -52.480469 69.535156 -55.285156 68.601562 -58.015625 C 67.640625 -60.828125 66.308594 -63.382812 64.601562 -65.683594 C 62.925781 -67.9375 61.023438 -69.777344 58.890625 -71.199219 C 56.65625 -72.71875 54.042969 -73.886719 51.054688 -74.710938 C 47.871094 -75.585938 44.5 -76.15625 40.953125 -76.425781 C 37.335938 -76.703125 33.742188 -76.714844 30.179688 -76.464844 C 26.585938 -76.214844 23.230469 -75.777344 20.113281 -75.152344 C 17.074219 -74.542969 14.449219 -73.800781 12.238281 -72.921875 C 10.316406 -72.15625 8.984375 -71.417969 8.238281 -70.707031 L 5.15625 -73.9375 L 9.464844 -72.777344 C 9.160156 -71.644531 8.902344 -69.933594 8.6875 -67.648438 C 8.457031 -65.199219 8.292969 -62.394531 8.1875 -59.234375 C 8.085938 -56.019531 8.019531 -52.632812 7.992188 -49.074219 C 7.964844 -45.507812 7.980469 -41.972656 8.03125 -38.460938 C 8.085938 -34.960938 8.175781 -31.667969 8.304688 -28.589844 C 8.4375 -25.507812 8.578125 -22.851562 8.734375 -20.617188 C 8.878906 -18.550781 9.042969 -17.085938 9.222656 -16.226562 C 9.792969 -13.246094 10.71875 -10.824219 12.003906 -8.957031 C 13.277344 -7.109375 14.71875 -5.707031 16.332031 -4.742188 C 17.964844 -3.765625 19.621094 -3.171875 21.304688 -2.960938 C 22.964844 -2.75 24.503906 -2.867188 25.921875 -3.308594 C 27.199219 -3.707031 28.230469 -4.328125 29.011719 -5.171875 L 32.289062 -2.140625 L 27.863281 -2.738281 C 28.117188 -4.605469 28.359375 -7.109375 28.589844 -10.246094 C 28.824219 -13.433594 29.023438 -16.644531 29.183594 -19.871094 C 29.230469 -20.675781 29.269531 -21.460938 29.292969 -22.238281 C 29.320312 -23.007812 29.332031 -23.714844 29.332031 -24.355469 L 29.332031 -28.816406 L 33.792969 -28.816406 C 33.25 -28.816406 32.769531 -28.710938 32.355469 -28.503906 L 35.582031 -30.117188 L 37.835938 -27.300781 C 38.125 -26.933594 38.414062 -26.539062 38.699219 -26.117188 L 39.367188 -25.109375 C 41.015625 -22.558594 42.386719 -20.414062 43.480469 -18.683594 C 44.546875 -16.988281 45.484375 -15.535156 46.285156 -14.316406 C 47.140625 -13.019531 47.898438 -11.820312 48.5625 -10.714844 C 50.078125 -8.203125 51.808594 -6.285156 53.757812 -4.957031 C 55.699219 -3.636719 57.640625 -2.816406 59.582031 -2.5 C 61.488281 -2.1875 63.269531 -2.289062 64.929688 -2.796875 C 66.480469 -3.273438 67.800781 -4.109375 68.894531 -5.308594 C 69.96875 -6.484375 70.691406 -8.039062 71.0625 -9.964844 L 75.441406 -9.121094 L 71.226562 -7.65625 C 70.898438 -8.601562 70.253906 -9.898438 69.289062 -11.554688 C 68.21875 -13.390625 67.015625 -15.316406 65.6875 -17.339844 C 64.359375 -19.355469 63.0625 -21.214844 61.792969 -22.914062 C 60.652344 -24.445312 59.71875 -25.53125 58.992188 -26.175781 Z M 40.992188 -49.820312 C 40.992188 -49.882812 40.964844 -49.941406 40.90625 -50.003906 C 40.722656 -50.191406 40.359375 -50.320312 39.820312 -50.394531 C 39.132812 -50.488281 38.1875 -50.246094 36.972656 -49.671875 L 35.0625 -53.707031 L 39.527344 -53.707031 C 39.527344 -52.027344 39.511719 -50.6875 39.484375 -49.695312 C 39.460938 -48.84375 39.472656 -47.777344 39.523438 -46.5 L 39.527344 -46.414062 L 39.527344 -46.328125 C 39.527344 -47.074219 39.34375 -47.75 38.980469 -48.355469 C 38.851562 -48.570312 38.714844 -48.75 38.578125 -48.890625 C 38.4375 -49.027344 38.257812 -49.164062 38.042969 -49.292969 C 37.4375 -49.65625 36.761719 -49.839844 36.015625 -49.839844 L 38.992188 -49.839844 C 39.640625 -49.839844 40.285156 -49.910156 40.917969 -50.050781 L 41.058594 -50.082031 L 41.199219 -50.105469 C 41.351562 -50.125 41.445312 -50.148438 41.488281 -50.167969 C 41.390625 -50.121094 41.289062 -50.039062 41.1875 -49.921875 C 41.085938 -49.804688 41.015625 -49.6875 40.980469 -49.570312 C 40.988281 -49.601562 40.992188 -49.683594 40.992188 -49.820312 Z M 49.917969 -49.820312 C 49.917969 -47.519531 49.257812 -45.609375 47.9375 -44.082031 C 46.628906 -42.570312 44.839844 -41.636719 42.570312 -41.285156 L 41.886719 -45.695312 L 42.855469 -41.335938 C 41.582031 -41.054688 40.296875 -40.914062 38.992188 -40.914062 L 36.015625 -40.914062 C 34.625 -40.914062 33.375 -41.46875 32.265625 -42.578125 C 31.15625 -43.6875 30.601562 -44.9375 30.601562 -46.328125 L 35.0625 -46.328125 L 30.605469 -46.15625 C 30.546875 -47.628906 30.535156 -48.894531 30.5625 -49.941406 C 30.589844 -50.855469 30.601562 -52.109375 30.601562 -53.707031 L 30.601562 -56.53125 L 33.152344 -57.738281 C 35.960938 -59.070312 38.582031 -59.570312 41.019531 -59.238281 C 43.597656 -58.890625 45.691406 -57.882812 47.308594 -56.222656 C 49.046875 -54.429688 49.917969 -52.296875 49.917969 -49.820312 Z M 49.917969 -49.820312 "/></g></g></g><g fill="#3d4a43" fill-opacity="1"><g transform="translate(323.084739, 96.39736)"><g><path d="M 45.058594 -49.679688 L 45.296875 -49.679688 L 45.296875 -40.753906 L 45.058594 -40.753906 Z M 45.058594 -40.753906 L 45.058594 -49.679688 L 45.296875 -49.679688 L 45.296875 -40.753906 Z M 12.992188 -13.652344 C 12.085938 -15.921875 11.148438 -18.796875 10.179688 -22.289062 C 9.238281 -25.667969 8.273438 -29.40625 7.285156 -33.5 C 6.292969 -37.589844 5.347656 -41.816406 4.4375 -46.171875 L 1.855469 -58.761719 C 1.027344 -62.878906 0.316406 -66.625 -0.269531 -69.996094 L -0.445312 -70.992188 L -0.171875 -71.96875 C 0.523438 -74.441406 1.875 -76.644531 3.886719 -78.578125 C 5.675781 -80.304688 7.78125 -81.71875 10.195312 -82.828125 C 12.625 -83.945312 15.179688 -84.617188 17.867188 -84.847656 C 20.660156 -85.085938 23.355469 -84.757812 25.957031 -83.871094 C 28.71875 -82.925781 31.113281 -81.296875 33.144531 -78.980469 C 35.160156 -76.679688 36.566406 -73.671875 37.363281 -69.953125 C 38.539062 -64.558594 39.609375 -59.109375 40.570312 -53.601562 C 41.527344 -48.117188 42.355469 -43.042969 43.046875 -38.378906 C 43.742188 -33.710938 44.277344 -29.820312 44.652344 -26.714844 L 40.21875 -26.179688 L 40.21875 -30.640625 L 40.933594 -30.640625 L 40.933594 -26.179688 L 36.59375 -27.210938 C 37.328125 -30.3125 38.050781 -33.441406 38.761719 -36.597656 L 40.945312 -46.207031 C 41.570312 -48.960938 42.207031 -52.03125 42.859375 -55.421875 L 44.800781 -65.535156 L 46.507812 -74.347656 C 47.03125 -77.011719 47.4375 -78.894531 47.726562 -79.988281 L 48.3125 -82.226562 L 50.480469 -83.035156 C 55.992188 -85.09375 60.867188 -85.835938 65.097656 -85.257812 C 69.660156 -84.636719 73.351562 -82.773438 76.167969 -79.671875 C 78.832031 -76.742188 80.566406 -73.03125 81.378906 -68.542969 C 82.140625 -64.351562 82.046875 -59.742188 81.097656 -54.707031 C 80.5 -51.398438 79.6875 -47.722656 78.65625 -43.679688 C 77.640625 -39.691406 76.515625 -35.574219 75.285156 -31.324219 C 74.054688 -27.070312 72.785156 -22.945312 71.472656 -18.953125 C 70.15625 -14.953125 68.878906 -11.308594 67.640625 -8.023438 C 66.367188 -4.65625 65.195312 -1.898438 64.125 0.25 L 63.28125 1.9375 L 61.480469 2.507812 C 59.1875 3.234375 56.480469 3.945312 53.363281 4.636719 C 50.089844 5.359375 46.644531 5.761719 43.023438 5.847656 C 39.234375 5.941406 35.476562 5.445312 31.757812 4.363281 C 27.835938 3.226562 24.25 1.21875 21 -1.65625 C 17.726562 -4.550781 15.058594 -8.546875 13 -13.636719 Z M 21.273438 -16.984375 C 22.808594 -13.191406 24.6875 -10.308594 26.914062 -8.339844 C 29.164062 -6.351562 31.609375 -4.972656 34.246094 -4.207031 C 37.082031 -3.382812 39.9375 -3.003906 42.8125 -3.074219 C 45.855469 -3.144531 48.726562 -3.480469 51.433594 -4.078125 C 54.292969 -4.710938 56.742188 -5.351562 58.785156 -6 L 60.132812 -1.746094 L 56.140625 -3.742188 C 57.078125 -5.613281 58.125 -8.089844 59.289062 -11.171875 C 60.480469 -14.339844 61.71875 -17.863281 62.992188 -21.742188 C 64.273438 -25.632812 65.511719 -29.652344 66.714844 -33.804688 C 67.917969 -37.964844 69.015625 -41.992188 70.007812 -45.882812 C 70.988281 -49.722656 71.757812 -53.210938 72.328125 -56.355469 C 73.070312 -60.3125 73.160156 -63.84375 72.597656 -66.953125 C 72.089844 -69.761719 71.078125 -72.003906 69.5625 -73.671875 C 68.199219 -75.171875 66.308594 -76.085938 63.890625 -76.414062 C 61.144531 -76.789062 57.714844 -76.210938 53.601562 -74.671875 L 52.039062 -78.855469 L 56.355469 -77.71875 C 56.117188 -76.804688 55.753906 -75.117188 55.269531 -72.652344 L 53.566406 -63.851562 L 51.625 -53.734375 C 50.953125 -50.25 50.292969 -47.082031 49.648438 -44.230469 L 47.46875 -34.640625 C 46.75 -31.449219 46.019531 -28.285156 45.277344 -25.148438 L 44.460938 -21.714844 L 36.265625 -21.714844 L 35.789062 -25.644531 C 35.425781 -28.671875 34.902344 -32.476562 34.21875 -37.066406 C 33.539062 -41.65625 32.722656 -46.65625 31.777344 -52.066406 C 30.835938 -57.453125 29.789062 -62.789062 28.636719 -68.082031 C 28.164062 -70.289062 27.429688 -71.957031 26.433594 -73.09375 C 25.449219 -74.21875 24.328125 -74.996094 23.070312 -75.425781 C 21.652344 -75.910156 20.171875 -76.085938 18.625 -75.953125 C 16.972656 -75.8125 15.40625 -75.402344 13.921875 -74.71875 C 12.421875 -74.03125 11.140625 -73.175781 10.078125 -72.148438 C 9.230469 -71.335938 8.679688 -70.46875 8.421875 -69.554688 L 4.125 -70.761719 L 8.519531 -71.53125 C 9.097656 -68.234375 9.789062 -64.578125 10.597656 -60.550781 L 13.175781 -47.992188 C 14.0625 -43.730469 14.992188 -39.597656 15.960938 -35.597656 C 16.925781 -31.601562 17.867188 -27.960938 18.777344 -24.675781 C 19.660156 -21.5 20.492188 -18.933594 21.277344 -16.96875 Z M 21.273438 -16.984375 "/></g></g></g><g fill="#3d4a43" fill-opacity="1"><g transform="translate(406.537936, 96.39736)"><g><path d="M 37.007812 -64.515625 C 37.300781 -62.75 37.515625 -60.285156 37.65625 -57.117188 C 37.792969 -54.074219 37.875 -50.59375 37.898438 -46.675781 C 37.925781 -42.785156 37.914062 -38.738281 37.859375 -34.53125 C 37.808594 -30.3125 37.699219 -26.148438 37.539062 -22.039062 C 37.378906 -17.933594 37.191406 -14.15625 36.980469 -10.710938 C 36.761719 -7.179688 36.484375 -4.246094 36.148438 -1.90625 L 35.953125 -0.527344 L 35.007812 0.492188 C 33.144531 2.503906 30.816406 3.945312 28.023438 4.816406 C 25.371094 5.644531 22.570312 5.871094 19.628906 5.5 C 16.710938 5.128906 13.898438 4.136719 11.195312 2.523438 C 8.476562 0.894531 6.097656 -1.386719 4.066406 -4.320312 C 2.042969 -7.242188 0.628906 -10.78125 -0.175781 -14.9375 C -0.421875 -16.101562 -0.628906 -17.960938 -0.804688 -20.523438 C -0.964844 -22.917969 -1.113281 -25.730469 -1.246094 -28.96875 C -1.378906 -32.210938 -1.472656 -35.699219 -1.527344 -39.441406 C -1.582031 -43.175781 -1.59375 -46.921875 -1.566406 -50.683594 C -1.539062 -54.449219 -1.472656 -58.039062 -1.367188 -61.460938 C -1.257812 -64.933594 -1.082031 -68.023438 -0.835938 -70.730469 C -0.574219 -73.605469 -0.222656 -75.851562 0.210938 -77.476562 L 0.558594 -78.757812 L 1.550781 -79.644531 C 3.5 -81.386719 5.847656 -82.699219 8.59375 -83.578125 C 11.242188 -84.429688 14.023438 -84.789062 16.9375 -84.660156 C 19.984375 -84.523438 22.902344 -83.71875 25.691406 -82.242188 C 28.53125 -80.734375 30.964844 -78.503906 32.992188 -75.546875 C 34.992188 -72.632812 36.332031 -68.933594 37.015625 -64.457031 Z M 28.191406 -63.105469 C 27.714844 -66.242188 26.859375 -68.707031 25.632812 -70.5 C 24.433594 -72.25 23.058594 -73.535156 21.511719 -74.355469 C 19.90625 -75.207031 18.25 -75.667969 16.539062 -75.746094 C 14.695312 -75.828125 12.953125 -75.605469 11.320312 -75.082031 C 9.777344 -74.585938 8.503906 -73.886719 7.492188 -72.988281 L 4.523438 -76.316406 L 8.832031 -75.15625 C 8.527344 -74.027344 8.269531 -72.285156 8.054688 -69.921875 C 7.824219 -67.390625 7.65625 -64.480469 7.554688 -61.183594 C 7.449219 -57.832031 7.382812 -54.3125 7.359375 -50.621094 C 7.332031 -46.925781 7.34375 -43.242188 7.398438 -39.570312 C 7.449219 -35.90625 7.539062 -32.496094 7.671875 -29.339844 C 7.800781 -26.175781 7.945312 -23.4375 8.101562 -21.125 C 8.246094 -18.980469 8.40625 -17.484375 8.585938 -16.636719 C 9.152344 -13.707031 10.09375 -11.296875 11.402344 -9.402344 C 12.703125 -7.527344 14.160156 -6.105469 15.773438 -5.140625 C 17.410156 -4.164062 19.066406 -3.570312 20.75 -3.355469 C 22.410156 -3.148438 23.949219 -3.261719 25.367188 -3.703125 C 26.644531 -4.101562 27.675781 -4.726562 28.457031 -5.570312 L 31.730469 -2.539062 L 27.3125 -3.167969 C 27.613281 -5.273438 27.867188 -7.972656 28.070312 -11.261719 C 28.28125 -14.640625 28.464844 -18.347656 28.621094 -22.386719 C 28.777344 -26.417969 28.882812 -30.503906 28.9375 -34.644531 C 28.988281 -38.792969 29 -42.785156 28.976562 -46.617188 C 28.949219 -50.421875 28.871094 -53.789062 28.742188 -56.722656 C 28.617188 -59.53125 28.4375 -61.640625 28.203125 -63.046875 Z M 28.191406 -63.105469 "/></g></g></g><g fill="#3d4a43" fill-opacity="1"><g transform="translate(444.456788, 96.39736)"><g><path d="M -0.0898438 -18.0625 C -0.199219 -19.921875 -0.28125 -22.402344 -0.335938 -25.507812 C -0.390625 -28.574219 -0.417969 -32.011719 -0.417969 -35.816406 C -0.417969 -39.628906 -0.375 -43.570312 -0.296875 -47.644531 C -0.21875 -51.710938 -0.109375 -55.714844 0.0234375 -59.648438 C 0.15625 -63.59375 0.316406 -67.25 0.503906 -70.613281 C 0.691406 -74.039062 0.925781 -76.910156 1.203125 -79.222656 L 1.625 -82.78125 L 5.1875 -83.136719 C 7.929688 -83.410156 11.238281 -83.613281 15.113281 -83.75 C 18.929688 -83.882812 23.023438 -83.976562 27.394531 -84.03125 C 31.777344 -84.082031 36.171875 -84.070312 40.578125 -83.988281 C 44.976562 -83.910156 49.132812 -83.789062 53.054688 -83.628906 C 56.992188 -83.46875 60.390625 -83.28125 63.246094 -83.066406 L 65.367188 -82.90625 L 66.578125 -81.15625 C 67.355469 -80.035156 67.996094 -78.503906 68.496094 -76.5625 C 68.957031 -74.789062 69.203125 -72.824219 69.234375 -70.667969 C 69.265625 -68.472656 68.996094 -66.253906 68.421875 -64.019531 C 67.796875 -61.597656 66.714844 -59.355469 65.167969 -57.296875 C 63.523438 -55.101562 61.3125 -53.371094 58.53125 -52.105469 C 55.855469 -50.886719 52.605469 -50.273438 48.789062 -50.273438 L 32.445312 -50.273438 L 32.445312 -54.738281 L 36.910156 -54.738281 L 36.910156 -50.613281 L 32.445312 -50.613281 L 32.445312 -55.074219 C 33.570312 -55.074219 35.132812 -55.101562 37.128906 -55.152344 C 39.203125 -55.207031 41.449219 -55.234375 43.871094 -55.234375 C 46.386719 -55.234375 48.863281 -55.121094 51.296875 -54.898438 C 53.914062 -54.65625 56.21875 -54.226562 58.210938 -53.601562 L 60.117188 -53.007812 L 60.941406 -51.191406 C 62.851562 -46.988281 63.640625 -42.988281 63.308594 -39.195312 C 62.941406 -35.023438 61.285156 -31.597656 58.339844 -28.910156 C 55.464844 -26.292969 51.542969 -24.847656 46.570312 -24.578125 C 45.144531 -24.523438 43.824219 -24.492188 42.601562 -24.492188 C 41.410156 -24.492188 40.035156 -24.507812 38.476562 -24.535156 C 36.96875 -24.558594 34.984375 -24.574219 32.523438 -24.574219 L 32.523438 -29.035156 L 36.988281 -29.035156 L 36.988281 -24.195312 L 32.523438 -24.195312 L 32.523438 -28.65625 L 62.089844 -28.65625 L 63.425781 -26.816406 C 65.375 -24.128906 66.617188 -21.160156 67.152344 -17.902344 C 67.695312 -14.621094 67.457031 -11.417969 66.4375 -8.292969 C 65.367188 -5.015625 63.375 -2.210938 60.457031 0.117188 C 57.582031 2.410156 53.851562 3.847656 49.269531 4.425781 C 47.839844 4.597656 45.953125 4.753906 43.617188 4.890625 C 41.296875 5.027344 38.75 5.109375 35.980469 5.136719 C 33.238281 5.164062 30.511719 5.148438 27.796875 5.097656 C 25.042969 5.042969 22.558594 4.933594 20.335938 4.769531 C 17.972656 4.59375 16.097656 4.347656 14.71875 4.035156 L 14.65625 4.019531 L 14.597656 4.003906 C 9.742188 2.757812 6.117188 0.214844 3.714844 -3.621094 C 1.539062 -7.09375 0.269531 -11.910156 -0.0898438 -18.0625 Z M 8.816406 -18.585938 C 9.089844 -13.953125 9.910156 -10.542969 11.277344 -8.359375 C 12.421875 -6.535156 14.265625 -5.296875 16.820312 -4.640625 L 15.707031 -0.316406 L 16.695312 -4.667969 C 17.640625 -4.453125 19.074219 -4.273438 20.996094 -4.132812 C 23.058594 -3.980469 25.382812 -3.878906 27.972656 -3.828125 C 30.597656 -3.773438 33.238281 -3.761719 35.894531 -3.789062 C 38.515625 -3.8125 40.917969 -3.890625 43.089844 -4.019531 C 45.25 -4.144531 46.933594 -4.28125 48.148438 -4.425781 C 51.074219 -4.796875 53.320312 -5.609375 54.890625 -6.859375 C 56.414062 -8.074219 57.433594 -9.476562 57.953125 -11.0625 C 58.519531 -12.804688 58.652344 -14.601562 58.347656 -16.449219 C 58.039062 -18.320312 57.324219 -20.03125 56.203125 -21.578125 L 59.816406 -24.195312 L 59.816406 -19.734375 L 28.0625 -19.734375 L 28.0625 -33.496094 L 32.523438 -33.496094 C 35.035156 -33.496094 37.070312 -33.484375 38.632812 -33.457031 C 40.140625 -33.429688 41.460938 -33.417969 42.601562 -33.417969 C 43.703125 -33.417969 44.867188 -33.441406 46.085938 -33.492188 C 48.941406 -33.644531 51.023438 -34.316406 52.328125 -35.507812 C 53.558594 -36.628906 54.253906 -38.117188 54.417969 -39.976562 C 54.613281 -42.210938 54.078125 -44.71875 52.816406 -47.496094 L 56.878906 -49.34375 L 55.546875 -45.082031 C 54.15625 -45.519531 52.46875 -45.828125 50.480469 -46.011719 C 48.316406 -46.210938 46.113281 -46.308594 43.871094 -46.308594 C 41.527344 -46.308594 39.359375 -46.28125 37.359375 -46.230469 C 35.285156 -46.175781 33.648438 -46.148438 32.445312 -46.148438 L 27.984375 -46.148438 L 27.984375 -59.199219 L 48.789062 -59.199219 C 51.316406 -59.199219 53.328125 -59.542969 54.832031 -60.226562 C 56.230469 -60.863281 57.296875 -61.671875 58.03125 -62.652344 C 58.867188 -63.765625 59.449219 -64.960938 59.777344 -66.242188 C 60.152344 -67.707031 60.332031 -69.136719 60.3125 -70.539062 C 60.289062 -71.980469 60.140625 -73.242188 59.859375 -74.324219 C 59.621094 -75.238281 59.414062 -75.824219 59.238281 -76.074219 L 62.910156 -78.617188 L 62.574219 -74.167969 C 59.820312 -74.375 56.527344 -74.554688 52.691406 -74.710938 C 48.835938 -74.871094 44.746094 -74.988281 40.417969 -75.066406 C 36.097656 -75.144531 31.792969 -75.15625 27.503906 -75.105469 C 23.199219 -75.054688 19.175781 -74.960938 15.425781 -74.832031 C 11.742188 -74.703125 8.625 -74.511719 6.078125 -74.253906 L 5.632812 -78.695312 L 10.0625 -78.167969 C 9.808594 -76.039062 9.59375 -73.355469 9.414062 -70.117188 C 9.230469 -66.820312 9.074219 -63.226562 8.941406 -59.347656 C 8.8125 -55.453125 8.707031 -51.496094 8.625 -47.472656 C 8.546875 -43.453125 8.507812 -39.570312 8.507812 -35.816406 C 8.507812 -32.0625 8.535156 -28.675781 8.585938 -25.660156 C 8.640625 -22.683594 8.714844 -20.324219 8.816406 -18.585938 Z M 8.816406 -18.585938 "/></g></g></g><g fill="#3d4a43" fill-opacity="1"><g transform="translate(511.25105, 96.39736)"><g><path d="M 89.347656 -81.035156 C 92.320312 -82.496094 95.410156 -83.496094 98.605469 -84.046875 C 101.882812 -84.605469 105.023438 -84.632812 108.035156 -84.128906 C 111.234375 -83.589844 114.082031 -82.414062 116.578125 -80.601562 C 119.214844 -78.6875 121.167969 -76.109375 122.4375 -72.863281 C 123.660156 -69.734375 124.015625 -66.03125 123.503906 -61.746094 C 123.230469 -59.429688 122.777344 -56.582031 122.152344 -53.210938 C 121.535156 -49.890625 120.816406 -46.304688 119.984375 -42.453125 C 119.160156 -38.613281 118.265625 -34.683594 117.308594 -30.65625 C 116.347656 -26.636719 115.375 -22.722656 114.390625 -18.914062 C 113.402344 -15.09375 112.453125 -11.601562 111.542969 -8.441406 C 110.617188 -5.230469 109.769531 -2.546875 108.996094 -0.394531 L 108.253906 1.667969 L 106.167969 2.34375 C 104.328125 2.9375 102.15625 3.597656 99.652344 4.324219 C 97.015625 5.089844 94.207031 5.710938 91.222656 6.191406 C 88.101562 6.691406 84.957031 6.851562 81.78125 6.675781 C 78.40625 6.488281 75.199219 5.753906 72.160156 4.46875 C 68.914062 3.09375 66.066406 0.90625 63.613281 -2.097656 C 61.230469 -5.023438 59.398438 -8.855469 58.125 -13.59375 C 57.449219 -16.121094 56.929688 -18.484375 56.5625 -20.683594 C 56.203125 -22.847656 55.898438 -25.179688 55.652344 -27.683594 C 55.414062 -30.074219 55.113281 -32.953125 54.742188 -36.324219 L 59.179688 -36.808594 L 59.179688 -32.347656 L 58.226562 -32.347656 L 58.226562 -36.808594 L 62.65625 -36.265625 L 60.675781 -20.121094 C 59.933594 -14.105469 59.164062 -8.101562 58.367188 -2.109375 L 57.996094 0.683594 L 55.316406 1.546875 C 53.472656 2.144531 51.320312 2.796875 48.863281 3.496094 C 46.289062 4.234375 43.542969 4.839844 40.621094 5.316406 C 37.578125 5.8125 34.507812 6.003906 31.40625 5.886719 C 28.15625 5.765625 24.996094 5.167969 21.929688 4.09375 C 18.660156 2.949219 15.707031 1.089844 13.066406 -1.484375 C 10.460938 -4.03125 8.296875 -7.386719 6.582031 -11.550781 C 5.621094 -13.894531 4.796875 -16.878906 4.105469 -20.503906 C 3.453125 -23.925781 2.855469 -27.742188 2.316406 -31.957031 C 1.785156 -36.117188 1.277344 -40.472656 0.796875 -45.027344 C 0.320312 -49.566406 -0.132812 -54.078125 -0.554688 -58.5625 C -0.976562 -62.992188 -1.421875 -67.171875 -1.890625 -71.101562 L -2 -72.007812 L -1.746094 -72.878906 C -1.019531 -75.382812 0.453125 -77.570312 2.671875 -79.445312 C 4.609375 -81.082031 6.867188 -82.371094 9.449219 -83.320312 C 12 -84.257812 14.660156 -84.757812 17.429688 -84.824219 C 20.273438 -84.890625 22.996094 -84.4375 25.59375 -83.472656 C 28.445312 -82.414062 30.832031 -80.648438 32.753906 -78.1875 C 34.675781 -75.71875 35.839844 -72.582031 36.25 -68.777344 C 37.269531 -59.546875 37.820312 -51.390625 37.898438 -44.316406 C 37.976562 -37.546875 38.269531 -31.992188 38.78125 -27.652344 L 34.351562 -27.128906 L 34.351562 -31.59375 L 35.144531 -31.59375 L 35.144531 -27.128906 L 30.804688 -28.179688 L 33.027344 -37.378906 L 35.242188 -46.722656 C 35.945312 -49.53125 36.734375 -52.585938 37.613281 -55.886719 L 40.191406 -65.566406 C 41.042969 -68.761719 41.816406 -71.585938 42.511719 -74.039062 C 43.191406 -76.445312 43.660156 -78.136719 43.917969 -79.117188 L 44.523438 -81.414062 L 46.765625 -82.195312 C 48.128906 -82.671875 49.785156 -83.136719 51.730469 -83.59375 C 53.789062 -84.078125 55.972656 -84.378906 58.273438 -84.5 C 60.734375 -84.628906 63.125 -84.417969 65.441406 -83.871094 C 68.035156 -83.257812 70.359375 -82.089844 72.40625 -80.363281 C 74.589844 -78.527344 76.175781 -75.972656 77.171875 -72.695312 C 79.199219 -66.242188 81.1875 -59.167969 83.140625 -51.472656 C 85.0625 -43.878906 87.132812 -35.996094 89.347656 -27.820312 L 85.042969 -26.65625 L 83.628906 -30.886719 C 84.246094 -31.09375 84.957031 -31.195312 85.753906 -31.195312 L 85.753906 -26.734375 L 81.359375 -27.5 C 81.773438 -29.871094 82.199219 -32.742188 82.640625 -36.117188 C 83.085938 -39.523438 83.519531 -43.15625 83.9375 -47.011719 L 85.164062 -58.582031 C 85.558594 -62.386719 85.902344 -65.914062 86.191406 -69.171875 C 86.476562 -72.425781 86.699219 -75.152344 86.859375 -77.347656 L 87.039062 -79.90625 Z M 93.273438 -73.023438 L 91.308594 -77.03125 L 95.761719 -76.710938 C 95.597656 -74.464844 95.371094 -71.6875 95.078125 -68.386719 C 94.785156 -65.085938 94.441406 -61.503906 94.039062 -57.636719 L 92.808594 -46.042969 C 92.382812 -42.125 91.941406 -38.429688 91.488281 -34.960938 C 91.03125 -31.460938 90.585938 -28.464844 90.152344 -25.96875 L 89.507812 -22.273438 L 85.753906 -22.273438 C 85.921875 -22.273438 86.152344 -22.320312 86.453125 -22.421875 L 81.96875 -20.925781 L 80.734375 -25.488281 C 78.507812 -33.707031 76.425781 -41.640625 74.488281 -49.277344 C 72.578125 -56.8125 70.628906 -63.753906 68.636719 -70.097656 C 68.152344 -71.6875 67.492188 -72.835938 66.660156 -73.535156 C 65.695312 -74.347656 64.605469 -74.898438 63.390625 -75.183594 C 61.898438 -75.539062 60.347656 -75.671875 58.738281 -75.585938 C 56.96875 -75.496094 55.316406 -75.269531 53.777344 -74.90625 C 52.128906 -74.519531 50.769531 -74.140625 49.699219 -73.765625 L 48.234375 -77.980469 L 52.546875 -76.847656 C 52.277344 -75.816406 51.792969 -74.070312 51.097656 -71.609375 C 50.417969 -69.199219 49.65625 -66.417969 48.816406 -63.265625 L 46.238281 -53.589844 C 45.371094 -50.332031 44.601562 -47.355469 43.925781 -44.664062 L 41.703125 -35.285156 L 38.65625 -22.667969 L 30.382812 -22.667969 L 29.917969 -26.609375 C 29.371094 -31.261719 29.054688 -37.128906 28.976562 -44.214844 C 28.898438 -50.996094 28.363281 -58.867188 27.375 -67.828125 C 27.148438 -69.945312 26.59375 -71.570312 25.714844 -72.699219 C 24.832031 -73.832031 23.753906 -74.636719 22.480469 -75.109375 C 20.953125 -75.675781 19.339844 -75.941406 17.636719 -75.898438 C 15.855469 -75.859375 14.152344 -75.539062 12.523438 -74.941406 C 10.929688 -74.355469 9.566406 -73.585938 8.433594 -72.628906 C 7.585938 -71.914062 7.050781 -71.167969 6.824219 -70.390625 L 2.539062 -71.636719 L 6.96875 -72.167969 C 7.449219 -68.164062 7.902344 -63.910156 8.328125 -59.402344 C 8.75 -54.949219 9.199219 -50.46875 9.671875 -45.964844 C 10.144531 -41.472656 10.644531 -37.183594 11.167969 -33.09375 C 11.6875 -29.058594 12.253906 -25.417969 12.871094 -22.175781 C 13.449219 -19.136719 14.105469 -16.730469 14.835938 -14.945312 C 16.082031 -11.917969 17.570312 -9.5625 19.300781 -7.875 C 20.996094 -6.21875 22.855469 -5.039062 24.875 -4.332031 C 27.097656 -3.554688 29.386719 -3.121094 31.742188 -3.03125 C 34.246094 -2.9375 36.726562 -3.089844 39.183594 -3.492188 C 41.761719 -3.914062 44.171875 -4.445312 46.410156 -5.085938 C 48.769531 -5.757812 50.820312 -6.378906 52.570312 -6.941406 L 53.945312 -2.695312 L 49.519531 -3.285156 C 50.3125 -9.246094 51.078125 -15.222656 51.816406 -21.210938 L 54.28125 -41.273438 L 63.179688 -41.273438 L 63.617188 -37.292969 C 63.988281 -33.894531 64.292969 -30.984375 64.535156 -28.5625 C 64.761719 -26.253906 65.039062 -24.117188 65.367188 -22.152344 C 65.6875 -20.230469 66.144531 -18.152344 66.742188 -15.914062 C 67.6875 -12.402344 68.949219 -9.679688 70.53125 -7.738281 C 72.046875 -5.878906 73.75 -4.550781 75.632812 -3.753906 C 77.722656 -2.871094 79.933594 -2.363281 82.273438 -2.234375 C 84.8125 -2.09375 87.320312 -2.222656 89.808594 -2.621094 C 92.429688 -3.042969 94.882812 -3.582031 97.164062 -4.246094 C 99.582031 -4.945312 101.667969 -5.582031 103.421875 -6.148438 L 104.796875 -1.902344 L 100.59375 -3.410156 C 101.304688 -5.382812 102.09375 -7.886719 102.964844 -10.914062 C 103.855469 -13.996094 104.78125 -17.40625 105.75 -21.148438 C 106.722656 -24.902344 107.679688 -28.761719 108.625 -32.726562 C 109.570312 -36.6875 110.449219 -40.558594 111.261719 -44.332031 C 112.070312 -48.097656 112.777344 -51.601562 113.378906 -54.835938 C 113.96875 -58.023438 114.390625 -60.675781 114.644531 -62.804688 C 114.976562 -65.605469 114.804688 -67.875 114.125 -69.613281 C 113.492188 -71.234375 112.5625 -72.488281 111.335938 -73.378906 C 109.96875 -74.371094 108.375 -75.019531 106.550781 -75.324219 C 104.539062 -75.664062 102.394531 -75.640625 100.113281 -75.25 C 97.761719 -74.84375 95.480469 -74.101562 93.273438 -73.023438 Z M 93.273438 -73.023438 "/></g></g></g><g fill="#6ba39a" fill-opacity="1"><g transform="translate(4.899683, 96.39736)"><g><path d="M 43.875 -80.921875 C 49.269531 -80.972656 53.988281 -80.363281 58.03125 -79.09375 C 62.070312 -77.820312 65.519531 -76.179688 68.375 -74.171875 C 71.238281 -72.160156 73.609375 -70.019531 75.484375 -67.75 C 77.359375 -65.476562 78.835938 -63.320312 79.921875 -61.28125 C 81.003906 -59.25 81.785156 -57.597656 82.265625 -56.328125 C 84.117188 -51.242188 85.21875 -46.125 85.5625 -40.96875 C 85.90625 -35.8125 85.285156 -30.617188 83.703125 -25.390625 C 79.359375 -11.472656 70.128906 -2.851562 56.015625 0.46875 C 50.296875 1.84375 44.660156 2.28125 39.109375 1.78125 C 33.554688 1.28125 28.132812 -0.34375 22.84375 -3.09375 C 17.820312 -5.6875 13.816406 -9.054688 10.828125 -13.203125 C 7.835938 -17.359375 5.734375 -22.160156 4.515625 -27.609375 C 3.722656 -31.046875 3.257812 -34.5625 3.125 -38.15625 C 3 -41.75 3.210938 -45.238281 3.765625 -48.625 C 4.316406 -52.007812 5.226562 -55.050781 6.5 -57.75 C 7.769531 -60.550781 9.410156 -63.3125 11.421875 -66.03125 C 13.429688 -68.757812 15.914062 -71.25 18.875 -73.5 C 21.84375 -75.75 25.390625 -77.546875 29.515625 -78.890625 C 33.640625 -80.242188 38.425781 -80.921875 43.875 -80.921875 Z M 44.265625 -52.515625 C 42.304688 -52.515625 40.492188 -51.972656 38.828125 -50.890625 C 37.160156 -49.804688 35.851562 -48.191406 34.90625 -46.046875 C 33.957031 -43.910156 33.585938 -41.253906 33.796875 -38.078125 C 34.003906 -35.015625 34.703125 -32.582031 35.890625 -30.78125 C 37.085938 -28.976562 38.488281 -27.691406 40.09375 -26.921875 C 41.707031 -26.160156 43.203125 -25.832031 44.578125 -25.9375 C 46.015625 -26.039062 47.457031 -26.503906 48.90625 -27.328125 C 50.363281 -28.148438 51.609375 -29.457031 52.640625 -31.25 C 53.671875 -33.050781 54.265625 -35.429688 54.421875 -38.390625 C 54.628906 -41.410156 54.269531 -43.960938 53.34375 -46.046875 C 52.425781 -48.140625 51.160156 -49.738281 49.546875 -50.84375 C 47.929688 -51.957031 46.171875 -52.515625 44.265625 -52.515625 Z M 44.265625 -52.515625 "/></g></g></g><g fill="#6ba39a" fill-opacity="1"><g transform="translate(93.747177, 96.39736)"><g><path d="M 45.0625 -45.21875 C 45.113281 -45.21875 45.148438 -45.21875 45.171875 -45.21875 C 45.203125 -45.21875 45.242188 -45.21875 45.296875 -45.21875 C 45.242188 -45.21875 45.203125 -45.21875 45.171875 -45.21875 C 45.148438 -45.21875 45.113281 -45.21875 45.0625 -45.21875 Z M 17.140625 -15.3125 C 16.285156 -17.425781 15.394531 -20.148438 14.46875 -23.484375 C 13.550781 -26.816406 12.601562 -30.503906 11.625 -34.546875 C 10.644531 -38.597656 9.703125 -42.773438 8.796875 -47.078125 C 7.898438 -51.390625 7.039062 -55.582031 6.21875 -59.65625 C 5.40625 -63.726562 4.707031 -67.429688 4.125 -70.765625 C 4.601562 -72.453125 5.554688 -73.984375 6.984375 -75.359375 C 8.410156 -76.734375 10.101562 -77.867188 12.0625 -78.765625 C 14.019531 -79.671875 16.082031 -80.21875 18.25 -80.40625 C 20.414062 -80.59375 22.503906 -80.34375 24.515625 -79.65625 C 26.523438 -78.96875 28.28125 -77.765625 29.78125 -76.046875 C 31.289062 -74.328125 32.363281 -71.984375 33 -69.015625 C 34.164062 -63.671875 35.222656 -58.273438 36.171875 -52.828125 C 37.128906 -47.390625 37.953125 -42.351562 38.640625 -37.71875 C 39.328125 -33.09375 39.851562 -29.25 40.21875 -26.1875 C 40.320312 -26.1875 40.441406 -26.1875 40.578125 -26.1875 C 40.710938 -26.1875 40.832031 -26.1875 40.9375 -26.1875 C 41.675781 -29.300781 42.398438 -32.441406 43.109375 -35.609375 C 43.828125 -38.785156 44.554688 -41.988281 45.296875 -45.21875 C 45.929688 -48.019531 46.578125 -51.140625 47.234375 -54.578125 C 47.898438 -58.015625 48.550781 -61.382812 49.1875 -64.6875 C 49.820312 -68 50.390625 -70.9375 50.890625 -73.5 C 51.390625 -76.0625 51.773438 -77.847656 52.046875 -78.859375 C 56.859375 -80.648438 61.007812 -81.304688 64.5 -80.828125 C 67.988281 -80.359375 70.773438 -78.972656 72.859375 -76.671875 C 74.953125 -74.367188 76.328125 -71.394531 76.984375 -67.75 C 77.648438 -64.101562 77.5625 -60.03125 76.71875 -55.53125 C 76.132812 -52.300781 75.335938 -48.71875 74.328125 -44.78125 C 73.328125 -40.84375 72.21875 -36.769531 71 -32.5625 C 69.78125 -28.363281 68.523438 -24.289062 67.234375 -20.34375 C 65.941406 -16.40625 64.6875 -12.820312 63.46875 -9.59375 C 62.25 -6.375 61.140625 -3.757812 60.140625 -1.75 C 57.960938 -1.0625 55.378906 -0.390625 52.390625 0.265625 C 49.410156 0.929688 46.253906 1.300781 42.921875 1.375 C 39.585938 1.457031 36.28125 1.023438 33 0.078125 C 29.71875 -0.867188 26.703125 -2.554688 23.953125 -4.984375 C 21.203125 -7.421875 18.929688 -10.863281 17.140625 -15.3125 Z M 17.140625 -15.3125 "/></g></g></g><g fill="#6ba39a" fill-opacity="1"><g transform="translate(177.200352, 96.39736)"><g><path d="M 4.359375 -18.328125 C 4.253906 -20.117188 4.175781 -22.535156 4.125 -25.578125 C 4.070312 -28.617188 4.046875 -32.03125 4.046875 -35.8125 C 4.046875 -39.59375 4.082031 -43.503906 4.15625 -47.546875 C 4.238281 -51.597656 4.347656 -55.582031 4.484375 -59.5 C 4.617188 -63.414062 4.773438 -67.035156 4.953125 -70.359375 C 5.140625 -73.691406 5.363281 -76.472656 5.625 -78.703125 C 8.269531 -78.960938 11.484375 -79.15625 15.265625 -79.28125 C 19.046875 -79.414062 23.101562 -79.507812 27.4375 -79.5625 C 31.78125 -79.625 36.132812 -79.613281 40.5 -79.53125 C 44.863281 -79.445312 48.988281 -79.328125 52.875 -79.171875 C 56.757812 -79.015625 60.101562 -78.832031 62.90625 -78.625 C 63.382812 -77.9375 63.804688 -76.875 64.171875 -75.4375 C 64.546875 -74.007812 64.742188 -72.394531 64.765625 -70.59375 C 64.796875 -68.800781 64.570312 -66.976562 64.09375 -65.125 C 63.625 -63.28125 62.789062 -61.5625 61.59375 -59.96875 C 60.40625 -58.382812 58.765625 -57.113281 56.671875 -56.15625 C 54.585938 -55.207031 51.960938 -54.734375 48.796875 -54.734375 C 47.734375 -54.734375 46.75 -54.734375 45.84375 -54.734375 C 44.945312 -54.734375 43.941406 -54.734375 42.828125 -54.734375 C 41.722656 -54.734375 40.347656 -54.734375 38.703125 -54.734375 C 37.066406 -54.734375 34.984375 -54.734375 32.453125 -54.734375 C 32.453125 -54.097656 32.453125 -53.445312 32.453125 -52.78125 C 32.453125 -52.125 32.453125 -51.398438 32.453125 -50.609375 C 33.609375 -50.609375 35.203125 -50.632812 37.234375 -50.6875 C 39.273438 -50.738281 41.484375 -50.765625 43.859375 -50.765625 C 46.242188 -50.765625 48.585938 -50.660156 50.890625 -50.453125 C 53.191406 -50.242188 55.1875 -49.875 56.875 -49.34375 C 58.46875 -45.851562 59.128906 -42.597656 58.859375 -39.578125 C 58.597656 -36.566406 57.421875 -34.109375 55.328125 -32.203125 C 53.242188 -30.304688 50.242188 -29.25 46.328125 -29.03125 C 45.003906 -28.976562 43.757812 -28.953125 42.59375 -28.953125 C 41.4375 -28.953125 40.085938 -28.960938 38.546875 -28.984375 C 37.015625 -29.015625 35.007812 -29.03125 32.53125 -29.03125 C 32.53125 -28.1875 32.53125 -27.378906 32.53125 -26.609375 C 32.53125 -25.847656 32.53125 -25.046875 32.53125 -24.203125 C 32.789062 -24.203125 33.078125 -24.203125 33.390625 -24.203125 C 33.710938 -24.203125 34.03125 -24.203125 34.34375 -24.203125 C 38.582031 -24.203125 42.828125 -24.203125 47.078125 -24.203125 C 51.335938 -24.203125 55.582031 -24.203125 59.8125 -24.203125 C 61.351562 -22.078125 62.332031 -19.734375 62.75 -17.171875 C 63.175781 -14.609375 62.988281 -12.109375 62.1875 -9.671875 C 61.394531 -7.242188 59.890625 -5.144531 57.671875 -3.375 C 55.453125 -1.601562 52.460938 -0.476562 48.703125 0 C 47.390625 0.15625 45.609375 0.300781 43.359375 0.4375 C 41.109375 0.570312 38.632812 0.648438 35.9375 0.671875 C 33.238281 0.703125 30.550781 0.691406 27.875 0.640625 C 25.207031 0.585938 22.800781 0.476562 20.65625 0.3125 C 18.519531 0.15625 16.867188 -0.0507812 15.703125 -0.3125 C 12.003906 -1.269531 9.269531 -3.160156 7.5 -5.984375 C 5.726562 -8.816406 4.679688 -12.929688 4.359375 -18.328125 Z M 4.359375 -18.328125 "/></g></g></g><g fill="#6ba39a" fill-opacity="1"><g transform="translate(243.994625, 96.39736)"><g><path d="M 61.953125 -29.515625 C 62.910156 -28.671875 64.050781 -27.359375 65.375 -25.578125 C 66.695312 -23.804688 68.046875 -21.875 69.421875 -19.78125 C 70.796875 -17.695312 72.035156 -15.703125 73.140625 -13.796875 C 74.253906 -11.898438 75.023438 -10.34375 75.453125 -9.125 C 74.921875 -6.375 73.832031 -4.097656 72.1875 -2.296875 C 70.550781 -0.503906 68.566406 0.742188 66.234375 1.453125 C 63.910156 2.171875 61.453125 2.316406 58.859375 1.890625 C 56.273438 1.472656 53.738281 0.421875 51.25 -1.265625 C 48.757812 -2.960938 46.59375 -5.34375 44.75 -8.40625 C 44.113281 -9.46875 43.382812 -10.617188 42.5625 -11.859375 C 41.738281 -13.097656 40.785156 -14.578125 39.703125 -16.296875 C 38.617188 -18.015625 37.257812 -20.144531 35.625 -22.6875 C 35.40625 -23.007812 35.191406 -23.328125 34.984375 -23.640625 C 34.773438 -23.960938 34.5625 -24.253906 34.34375 -24.515625 C 34.132812 -24.410156 33.953125 -24.359375 33.796875 -24.359375 C 33.796875 -23.671875 33.78125 -22.914062 33.75 -22.09375 C 33.726562 -21.269531 33.691406 -20.4375 33.640625 -19.59375 C 33.484375 -16.363281 33.285156 -13.132812 33.046875 -9.90625 C 32.804688 -6.6875 32.550781 -4.097656 32.28125 -2.140625 C 30.96875 -0.710938 29.289062 0.316406 27.25 0.953125 C 25.21875 1.585938 23.050781 1.757812 20.75 1.46875 C 18.445312 1.175781 16.210938 0.382812 14.046875 -0.90625 C 11.878906 -2.207031 9.972656 -4.046875 8.328125 -6.421875 C 6.691406 -8.804688 5.53125 -11.796875 4.84375 -15.390625 C 4.625 -16.390625 4.4375 -18.023438 4.28125 -20.296875 C 4.125 -22.578125 3.976562 -25.273438 3.84375 -28.390625 C 3.71875 -31.515625 3.625 -34.847656 3.5625 -38.390625 C 3.507812 -41.941406 3.492188 -45.515625 3.515625 -49.109375 C 3.546875 -52.703125 3.613281 -56.125 3.71875 -59.375 C 3.832031 -62.632812 4.003906 -65.53125 4.234375 -68.0625 C 4.472656 -70.601562 4.78125 -72.5625 5.15625 -73.9375 C 6.320312 -75.050781 8.132812 -76.097656 10.59375 -77.078125 C 13.050781 -78.054688 15.929688 -78.875 19.234375 -79.53125 C 22.546875 -80.1875 26.09375 -80.644531 29.875 -80.90625 C 33.65625 -81.175781 37.460938 -81.164062 41.296875 -80.875 C 45.128906 -80.582031 48.773438 -79.960938 52.234375 -79.015625 C 55.703125 -78.066406 58.757812 -76.691406 61.40625 -74.890625 C 63.945312 -73.203125 66.207031 -71.019531 68.1875 -68.34375 C 70.164062 -65.675781 71.710938 -62.710938 72.828125 -59.453125 C 73.941406 -56.203125 74.429688 -52.859375 74.296875 -49.421875 C 74.160156 -45.984375 73.242188 -42.640625 71.546875 -39.390625 C 69.859375 -36.140625 67.21875 -33.191406 63.625 -30.546875 C 63.25 -30.222656 62.691406 -29.878906 61.953125 -29.515625 Z M 45.453125 -49.828125 C 45.453125 -51.085938 45.003906 -52.179688 44.109375 -53.109375 C 43.210938 -54.035156 41.984375 -54.601562 40.421875 -54.8125 C 38.859375 -55.03125 37.070312 -54.660156 35.0625 -53.703125 C 35.0625 -52.066406 35.046875 -50.769531 35.015625 -49.8125 C 34.992188 -48.863281 35.007812 -47.703125 35.0625 -46.328125 C 35.0625 -46.171875 35.179688 -45.972656 35.421875 -45.734375 C 35.660156 -45.492188 35.859375 -45.375 36.015625 -45.375 C 37.023438 -45.375 38.015625 -45.375 38.984375 -45.375 C 39.960938 -45.375 40.929688 -45.484375 41.890625 -45.703125 C 44.265625 -46.066406 45.453125 -47.441406 45.453125 -49.828125 Z M 45.453125 -49.828125 "/></g></g></g><g fill="#6ba39a" fill-opacity="1"><g transform="translate(323.084739, 96.39736)"><g><path d="M 45.0625 -45.21875 C 45.113281 -45.21875 45.148438 -45.21875 45.171875 -45.21875 C 45.203125 -45.21875 45.242188 -45.21875 45.296875 -45.21875 C 45.242188 -45.21875 45.203125 -45.21875 45.171875 -45.21875 C 45.148438 -45.21875 45.113281 -45.21875 45.0625 -45.21875 Z M 17.140625 -15.3125 C 16.285156 -17.425781 15.394531 -20.148438 14.46875 -23.484375 C 13.550781 -26.816406 12.601562 -30.503906 11.625 -34.546875 C 10.644531 -38.597656 9.703125 -42.773438 8.796875 -47.078125 C 7.898438 -51.390625 7.039062 -55.582031 6.21875 -59.65625 C 5.40625 -63.726562 4.707031 -67.429688 4.125 -70.765625 C 4.601562 -72.453125 5.554688 -73.984375 6.984375 -75.359375 C 8.410156 -76.734375 10.101562 -77.867188 12.0625 -78.765625 C 14.019531 -79.671875 16.082031 -80.21875 18.25 -80.40625 C 20.414062 -80.59375 22.503906 -80.34375 24.515625 -79.65625 C 26.523438 -78.96875 28.28125 -77.765625 29.78125 -76.046875 C 31.289062 -74.328125 32.363281 -71.984375 33 -69.015625 C 34.164062 -63.671875 35.222656 -58.273438 36.171875 -52.828125 C 37.128906 -47.390625 37.953125 -42.351562 38.640625 -37.71875 C 39.328125 -33.09375 39.851562 -29.25 40.21875 -26.1875 C 40.320312 -26.1875 40.441406 -26.1875 40.578125 -26.1875 C 40.710938 -26.1875 40.832031 -26.1875 40.9375 -26.1875 C 41.675781 -29.300781 42.398438 -32.441406 43.109375 -35.609375 C 43.828125 -38.785156 44.554688 -41.988281 45.296875 -45.21875 C 45.929688 -48.019531 46.578125 -51.140625 47.234375 -54.578125 C 47.898438 -58.015625 48.550781 -61.382812 49.1875 -64.6875 C 49.820312 -68 50.390625 -70.9375 50.890625 -73.5 C 51.390625 -76.0625 51.773438 -77.847656 52.046875 -78.859375 C 56.859375 -80.648438 61.007812 -81.304688 64.5 -80.828125 C 67.988281 -80.359375 70.773438 -78.972656 72.859375 -76.671875 C 74.953125 -74.367188 76.328125 -71.394531 76.984375 -67.75 C 77.648438 -64.101562 77.5625 -60.03125 76.71875 -55.53125 C 76.132812 -52.300781 75.335938 -48.71875 74.328125 -44.78125 C 73.328125 -40.84375 72.21875 -36.769531 71 -32.5625 C 69.78125 -28.363281 68.523438 -24.289062 67.234375 -20.34375 C 65.941406 -16.40625 64.6875 -12.820312 63.46875 -9.59375 C 62.25 -6.375 61.140625 -3.757812 60.140625 -1.75 C 57.960938 -1.0625 55.378906 -0.390625 52.390625 0.265625 C 49.410156 0.929688 46.253906 1.300781 42.921875 1.375 C 39.585938 1.457031 36.28125 1.023438 33 0.078125 C 29.71875 -0.867188 26.703125 -2.554688 23.953125 -4.984375 C 21.203125 -7.421875 18.929688 -10.863281 17.140625 -15.3125 Z M 17.140625 -15.3125 "/></g></g></g><g fill="#6ba39a" fill-opacity="1"><g transform="translate(406.537936, 96.39736)"><g><path d="M 32.609375 -63.78125 C 32.867188 -62.195312 33.066406 -59.910156 33.203125 -56.921875 C 33.335938 -53.929688 33.414062 -50.503906 33.4375 -46.640625 C 33.46875 -42.785156 33.453125 -38.769531 33.390625 -34.59375 C 33.335938 -30.414062 33.234375 -26.289062 33.078125 -22.21875 C 32.921875 -18.144531 32.734375 -14.398438 32.515625 -10.984375 C 32.304688 -7.578125 32.046875 -4.757812 31.734375 -2.53125 C 30.410156 -1.101562 28.726562 -0.078125 26.6875 0.546875 C 24.65625 1.179688 22.488281 1.351562 20.1875 1.0625 C 17.882812 0.78125 15.648438 -0.00390625 13.484375 -1.296875 C 11.316406 -2.597656 9.398438 -4.453125 7.734375 -6.859375 C 6.066406 -9.265625 4.890625 -12.238281 4.203125 -15.78125 C 3.992188 -16.789062 3.804688 -18.472656 3.640625 -20.828125 C 3.484375 -23.179688 3.335938 -25.957031 3.203125 -29.15625 C 3.078125 -32.351562 2.988281 -35.800781 2.9375 -39.5 C 2.882812 -43.207031 2.867188 -46.925781 2.890625 -50.65625 C 2.921875 -54.382812 2.988281 -57.941406 3.09375 -61.328125 C 3.195312 -64.710938 3.367188 -67.710938 3.609375 -70.328125 C 3.847656 -72.941406 4.148438 -74.9375 4.515625 -76.3125 C 6.003906 -77.632812 7.816406 -78.640625 9.953125 -79.328125 C 12.097656 -80.015625 14.359375 -80.304688 16.734375 -80.203125 C 19.117188 -80.097656 21.40625 -79.460938 23.59375 -78.296875 C 25.789062 -77.140625 27.695312 -75.382812 29.3125 -73.03125 C 30.925781 -70.675781 32.023438 -67.59375 32.609375 -63.78125 Z M 32.609375 -63.78125 "/></g></g></g><g fill="#6ba39a" fill-opacity="1"><g transform="translate(444.456788, 96.39736)"><g><path d="M 4.359375 -18.328125 C 4.253906 -20.117188 4.175781 -22.535156 4.125 -25.578125 C 4.070312 -28.617188 4.046875 -32.03125 4.046875 -35.8125 C 4.046875 -39.59375 4.082031 -43.503906 4.15625 -47.546875 C 4.238281 -51.597656 4.347656 -55.582031 4.484375 -59.5 C 4.617188 -63.414062 4.773438 -67.035156 4.953125 -70.359375 C 5.140625 -73.691406 5.363281 -76.472656 5.625 -78.703125 C 8.269531 -78.960938 11.484375 -79.15625 15.265625 -79.28125 C 19.046875 -79.414062 23.101562 -79.507812 27.4375 -79.5625 C 31.78125 -79.625 36.132812 -79.613281 40.5 -79.53125 C 44.863281 -79.445312 48.988281 -79.328125 52.875 -79.171875 C 56.757812 -79.015625 60.101562 -78.832031 62.90625 -78.625 C 63.382812 -77.9375 63.804688 -76.875 64.171875 -75.4375 C 64.546875 -74.007812 64.742188 -72.394531 64.765625 -70.59375 C 64.796875 -68.800781 64.570312 -66.976562 64.09375 -65.125 C 63.625 -63.28125 62.789062 -61.5625 61.59375 -59.96875 C 60.40625 -58.382812 58.765625 -57.113281 56.671875 -56.15625 C 54.585938 -55.207031 51.960938 -54.734375 48.796875 -54.734375 C 47.734375 -54.734375 46.75 -54.734375 45.84375 -54.734375 C 44.945312 -54.734375 43.941406 -54.734375 42.828125 -54.734375 C 41.722656 -54.734375 40.347656 -54.734375 38.703125 -54.734375 C 37.066406 -54.734375 34.984375 -54.734375 32.453125 -54.734375 C 32.453125 -54.097656 32.453125 -53.445312 32.453125 -52.78125 C 32.453125 -52.125 32.453125 -51.398438 32.453125 -50.609375 C 33.609375 -50.609375 35.203125 -50.632812 37.234375 -50.6875 C 39.273438 -50.738281 41.484375 -50.765625 43.859375 -50.765625 C 46.242188 -50.765625 48.585938 -50.660156 50.890625 -50.453125 C 53.191406 -50.242188 55.1875 -49.875 56.875 -49.34375 C 58.46875 -45.851562 59.128906 -42.597656 58.859375 -39.578125 C 58.597656 -36.566406 57.421875 -34.109375 55.328125 -32.203125 C 53.242188 -30.304688 50.242188 -29.25 46.328125 -29.03125 C 45.003906 -28.976562 43.757812 -28.953125 42.59375 -28.953125 C 41.4375 -28.953125 40.085938 -28.960938 38.546875 -28.984375 C 37.015625 -29.015625 35.007812 -29.03125 32.53125 -29.03125 C 32.53125 -28.1875 32.53125 -27.378906 32.53125 -26.609375 C 32.53125 -25.847656 32.53125 -25.046875 32.53125 -24.203125 C 32.789062 -24.203125 33.078125 -24.203125 33.390625 -24.203125 C 33.710938 -24.203125 34.03125 -24.203125 34.34375 -24.203125 C 38.582031 -24.203125 42.828125 -24.203125 47.078125 -24.203125 C 51.335938 -24.203125 55.582031 -24.203125 59.8125 -24.203125 C 61.351562 -22.078125 62.332031 -19.734375 62.75 -17.171875 C 63.175781 -14.609375 62.988281 -12.109375 62.1875 -9.671875 C 61.394531 -7.242188 59.890625 -5.144531 57.671875 -3.375 C 55.453125 -1.601562 52.460938 -0.476562 48.703125 0 C 47.390625 0.15625 45.609375 0.300781 43.359375 0.4375 C 41.109375 0.570312 38.632812 0.648438 35.9375 0.671875 C 33.238281 0.703125 30.550781 0.691406 27.875 0.640625 C 25.207031 0.585938 22.800781 0.476562 20.65625 0.3125 C 18.519531 0.15625 16.867188 -0.0507812 15.703125 -0.3125 C 12.003906 -1.269531 9.269531 -3.160156 7.5 -5.984375 C 5.726562 -8.816406 4.679688 -12.929688 4.359375 -18.328125 Z M 4.359375 -18.328125 "/></g></g></g><g fill="#6ba39a" fill-opacity="1"><g transform="translate(511.25105, 96.39736)"><g><path d="M 91.3125 -77.03125 C 93.90625 -78.300781 96.585938 -79.171875 99.359375 -79.640625 C 102.140625 -80.117188 104.785156 -80.144531 107.296875 -79.71875 C 109.804688 -79.300781 112.023438 -78.390625 113.953125 -76.984375 C 115.890625 -75.585938 117.332031 -73.671875 118.28125 -71.234375 C 119.238281 -68.804688 119.503906 -65.820312 119.078125 -62.28125 C 118.816406 -60.050781 118.378906 -57.296875 117.765625 -54.015625 C 117.160156 -50.742188 116.445312 -47.203125 115.625 -43.390625 C 114.8125 -39.585938 113.925781 -35.6875 112.96875 -31.6875 C 112.019531 -27.695312 111.054688 -23.8125 110.078125 -20.03125 C 109.097656 -16.25 108.15625 -12.796875 107.25 -9.671875 C 106.351562 -6.554688 105.535156 -3.96875 104.796875 -1.90625 C 103.003906 -1.320312 100.875 -0.675781 98.40625 0.03125 C 95.945312 0.75 93.316406 1.332031 90.515625 1.78125 C 87.710938 2.226562 84.882812 2.375 82.03125 2.21875 C 79.175781 2.0625 76.460938 1.441406 73.890625 0.359375 C 71.328125 -0.722656 69.050781 -2.476562 67.0625 -4.90625 C 65.082031 -7.34375 63.539062 -10.625 62.4375 -14.75 C 61.800781 -17.132812 61.3125 -19.359375 60.96875 -21.421875 C 60.625 -23.484375 60.332031 -25.71875 60.09375 -28.125 C 59.851562 -30.53125 59.550781 -33.425781 59.1875 -36.8125 C 58.96875 -36.8125 58.789062 -36.8125 58.65625 -36.8125 C 58.53125 -36.8125 58.390625 -36.8125 58.234375 -36.8125 C 57.648438 -32.050781 56.988281 -26.664062 56.25 -20.65625 C 55.507812 -14.65625 54.742188 -8.671875 53.953125 -2.703125 C 52.148438 -2.117188 50.046875 -1.484375 47.640625 -0.796875 C 45.234375 -0.109375 42.65625 0.457031 39.90625 0.90625 C 37.15625 1.363281 34.378906 1.535156 31.578125 1.421875 C 28.773438 1.316406 26.050781 0.804688 23.40625 -0.109375 C 20.757812 -1.035156 18.351562 -2.554688 16.1875 -4.671875 C 14.019531 -6.796875 12.191406 -9.65625 10.703125 -13.25 C 9.859375 -15.3125 9.117188 -18.007812 8.484375 -21.34375 C 7.847656 -24.675781 7.265625 -28.40625 6.734375 -32.53125 C 6.210938 -36.65625 5.710938 -40.976562 5.234375 -45.5 C 4.753906 -50.019531 4.300781 -54.515625 3.875 -58.984375 C 3.457031 -63.453125 3.007812 -67.671875 2.53125 -71.640625 C 3.007812 -73.273438 4.015625 -74.738281 5.546875 -76.03125 C 7.085938 -77.332031 8.898438 -78.363281 10.984375 -79.125 C 13.078125 -79.894531 15.257812 -80.304688 17.53125 -80.359375 C 19.800781 -80.410156 21.96875 -80.050781 24.03125 -79.28125 C 26.09375 -78.519531 27.828125 -77.238281 29.234375 -75.4375 C 30.640625 -73.644531 31.5 -71.269531 31.8125 -68.3125 C 32.8125 -59.207031 33.351562 -51.191406 33.4375 -44.265625 C 33.519531 -37.335938 33.820312 -31.625 34.34375 -27.125 C 34.457031 -27.125 34.578125 -27.125 34.703125 -27.125 C 34.835938 -27.125 34.984375 -27.125 35.140625 -27.125 C 35.878906 -30.195312 36.617188 -33.265625 37.359375 -36.328125 C 38.109375 -39.398438 38.851562 -42.523438 39.59375 -45.703125 C 40.28125 -48.453125 41.054688 -51.460938 41.921875 -54.734375 C 42.796875 -58.015625 43.65625 -61.238281 44.5 -64.40625 C 45.351562 -67.582031 46.125 -70.390625 46.8125 -72.828125 C 47.5 -75.265625 47.972656 -76.984375 48.234375 -77.984375 C 49.453125 -78.410156 50.957031 -78.832031 52.75 -79.25 C 54.550781 -79.675781 56.46875 -79.941406 58.5 -80.046875 C 60.539062 -80.148438 62.515625 -79.976562 64.421875 -79.53125 C 66.328125 -79.082031 68.03125 -78.222656 69.53125 -76.953125 C 71.039062 -75.679688 72.164062 -73.832031 72.90625 -71.40625 C 74.914062 -65 76.882812 -57.988281 78.8125 -50.375 C 80.75 -42.757812 82.828125 -34.851562 85.046875 -26.65625 C 85.203125 -26.707031 85.441406 -26.734375 85.765625 -26.734375 C 86.179688 -29.171875 86.613281 -32.109375 87.0625 -35.546875 C 87.519531 -38.984375 87.957031 -42.644531 88.375 -46.53125 C 88.800781 -50.414062 89.210938 -54.273438 89.609375 -58.109375 C 90.003906 -61.941406 90.347656 -65.5 90.640625 -68.78125 C 90.929688 -72.0625 91.15625 -74.8125 91.3125 -77.03125 Z M 91.3125 -77.03125 "/></g></g></g></svg>