<svg xmlns="http://www.w3.org/2000/svg" xmlns:xlink="http://www.w3.org/1999/xlink" width="1200" zoomAndPan="magnify" viewBox="0 0 900 119.999999" height="160" preserveAspectRatio="xMidYMid meet" version="1.0"><defs><g/></defs><g fill="#3d4a43" fill-opacity="1"><g transform="translate(34.63097, 94.267722)"><g><path d="M 47.949219 3.804688 C 45.355469 3.949219 42.730469 4.035156 40.066406 4.058594 C 37.425781 4.085938 34.988281 4.070312 32.75 4.023438 C 30.539062 3.976562 28.753906 3.925781 27.402344 3.878906 L 25.398438 3.808594 L 25.542969 -0.214844 L 25.542969 3.808594 C 23.496094 3.808594 21.269531 3.640625 18.867188 3.304688 C 16.214844 2.933594 13.640625 2.125 11.148438 0.882812 C 8.480469 -0.453125 6.183594 -2.410156 4.253906 -4.996094 C 2.300781 -7.609375 1.007812 -10.992188 0.382812 -15.140625 C 0.0820312 -17.25 -0.191406 -19.871094 -0.433594 -23.011719 C -0.679688 -26.125 -0.859375 -29.558594 -0.980469 -33.316406 C -1.101562 -37.074219 -1.140625 -40.984375 -1.089844 -45.050781 C -1.042969 -49.128906 -0.882812 -53.183594 -0.617188 -57.214844 C -0.347656 -61.300781 0.0859375 -65.171875 0.675781 -68.828125 L 0.90625 -70.234375 L 1.96875 -71.183594 C 3.722656 -72.75 5.84375 -73.941406 8.328125 -74.757812 C 10.75 -75.558594 13.300781 -75.898438 15.984375 -75.78125 C 18.777344 -75.660156 21.441406 -74.933594 23.976562 -73.609375 C 26.585938 -72.242188 28.796875 -70.199219 30.605469 -67.480469 C 32.402344 -64.789062 33.527344 -61.351562 33.980469 -57.167969 C 34.226562 -54.980469 34.402344 -52.460938 34.5 -49.613281 C 34.597656 -46.847656 34.667969 -43.972656 34.71875 -40.988281 C 34.765625 -38 34.777344 -35.089844 34.753906 -32.269531 C 34.730469 -29.433594 34.667969 -26.871094 34.570312 -24.582031 L 30.550781 -24.753906 L 30.195312 -28.761719 C 31.921875 -28.914062 34.003906 -29.003906 36.445312 -29.03125 C 38.820312 -29.054688 41.375 -29.042969 44.105469 -28.992188 C 46.871094 -28.945312 49.667969 -28.820312 52.503906 -28.625 C 55.328125 -28.433594 58.035156 -28.1875 60.621094 -27.894531 L 62.738281 -27.65625 L 63.730469 -25.769531 C 65.503906 -22.398438 66.300781 -18.984375 66.121094 -15.527344 C 65.941406 -12.160156 65.023438 -9.050781 63.359375 -6.199219 C 61.71875 -3.390625 59.589844 -1.085938 56.972656 0.707031 C 54.230469 2.585938 51.222656 3.617188 47.949219 3.804688 Z M 47.492188 -4.234375 C 49.273438 -4.332031 50.914062 -4.898438 52.421875 -5.929688 C 54.046875 -7.046875 55.375 -8.488281 56.40625 -10.253906 C 57.414062 -11.984375 57.972656 -13.882812 58.082031 -15.953125 C 58.1875 -17.933594 57.695312 -19.957031 56.609375 -22.023438 L 60.167969 -23.894531 L 59.714844 -19.898438 C 57.246094 -20.175781 54.660156 -20.410156 51.949219 -20.597656 C 49.253906 -20.78125 46.589844 -20.898438 43.964844 -20.945312 C 41.308594 -20.992188 38.828125 -21.003906 36.527344 -20.980469 C 34.296875 -20.957031 32.421875 -20.878906 30.902344 -20.746094 L 26.332031 -20.34375 L 26.527344 -24.925781 C 26.621094 -27.121094 26.679688 -29.59375 26.703125 -32.335938 C 26.726562 -35.09375 26.714844 -37.933594 26.667969 -40.859375 C 26.621094 -43.789062 26.550781 -46.617188 26.457031 -49.332031 C 26.363281 -51.972656 26.203125 -54.292969 25.976562 -56.300781 C 25.664062 -59.179688 24.976562 -61.417969 23.910156 -63.015625 C 22.859375 -64.59375 21.636719 -65.746094 20.238281 -66.476562 C 18.765625 -67.25 17.234375 -67.667969 15.636719 -67.738281 C 13.933594 -67.8125 12.335938 -67.605469 10.847656 -67.113281 C 9.421875 -66.644531 8.25 -66 7.332031 -65.179688 L 4.652344 -68.183594 L 8.625 -67.539062 C 8.070312 -64.132812 7.667969 -60.515625 7.414062 -56.683594 C 7.15625 -52.796875 7.003906 -48.886719 6.957031 -44.953125 C 6.910156 -41.007812 6.945312 -37.214844 7.0625 -33.578125 C 7.179688 -29.941406 7.355469 -26.628906 7.589844 -23.636719 C 7.820312 -20.671875 8.074219 -18.238281 8.34375 -16.339844 C 8.769531 -13.523438 9.554688 -11.347656 10.699219 -9.8125 C 11.871094 -8.25 13.21875 -7.082031 14.75 -6.320312 C 16.453125 -5.464844 18.199219 -4.914062 19.980469 -4.664062 C 22.015625 -4.382812 23.867188 -4.238281 25.542969 -4.238281 L 25.613281 -4.238281 L 27.6875 -4.164062 C 29.003906 -4.117188 30.75 -4.070312 32.925781 -4.023438 C 35.078125 -3.976562 37.433594 -3.964844 39.992188 -3.988281 C 42.527344 -4.011719 45.027344 -4.09375 47.492188 -4.234375 Z M 47.492188 -4.234375 "/></g></g></g><g fill="#3d4a43" fill-opacity="1"><g transform="translate(99.373753, 94.267722)"><g><path d="M 77.046875 -23.867188 C 76.449219 -18.660156 74.90625 -14.144531 72.410156 -10.320312 C 69.96875 -6.574219 66.921875 -3.472656 63.273438 -1.023438 C 59.714844 1.367188 55.863281 3.132812 51.722656 4.273438 C 47.652344 5.394531 43.578125 5.957031 39.492188 5.957031 C 36.339844 5.957031 33.175781 5.78125 30 5.429688 C 26.660156 5.0625 23.4375 4.324219 20.328125 3.21875 C 17.082031 2.0625 14.101562 0.390625 11.386719 -1.804688 C 8.59375 -4.0625 6.253906 -6.988281 4.375 -10.582031 C 2.535156 -14.101562 1.273438 -18.410156 0.589844 -23.503906 C -0.0546875 -28.015625 -0.363281 -32.921875 -0.339844 -38.222656 C -0.316406 -43.429688 -0.0859375 -48.742188 0.351562 -54.160156 C 0.789062 -59.550781 1.34375 -64.742188 2.023438 -69.726562 L 2.191406 -70.976562 L 3.042969 -71.902344 C 4.027344 -72.976562 5.53125 -73.863281 7.558594 -74.5625 C 9.207031 -75.128906 11.109375 -75.550781 13.265625 -75.824219 C 15.429688 -76.097656 17.664062 -76.140625 19.96875 -75.949219 C 22.398438 -75.75 24.695312 -75.21875 26.855469 -74.351562 C 29.207031 -73.414062 31.203125 -72.054688 32.855469 -70.277344 C 34.679688 -68.3125 35.789062 -65.808594 36.1875 -62.765625 C 36.300781 -61.835938 36.371094 -60.210938 36.398438 -57.886719 C 36.421875 -55.703125 36.433594 -53.113281 36.433594 -50.117188 C 36.433594 -47.164062 36.46875 -44.070312 36.539062 -40.832031 C 36.613281 -37.613281 36.730469 -34.546875 36.894531 -31.636719 C 37.050781 -28.820312 37.289062 -26.453125 37.597656 -24.542969 C 37.710938 -23.933594 37.929688 -23.480469 38.257812 -23.191406 C 38.585938 -22.902344 38.929688 -22.746094 39.285156 -22.726562 C 39.546875 -22.714844 39.824219 -22.824219 40.117188 -23.0625 C 40.453125 -23.328125 40.714844 -23.960938 40.910156 -24.953125 C 41.21875 -26.539062 41.496094 -28.652344 41.746094 -31.289062 C 42.003906 -33.984375 42.199219 -36.945312 42.339844 -40.167969 C 42.480469 -43.390625 42.539062 -46.664062 42.515625 -49.980469 C 42.492188 -53.292969 42.386719 -56.425781 42.203125 -59.378906 C 42.023438 -62.226562 41.734375 -64.636719 41.339844 -66.605469 L 40.917969 -68.71875 L 42.441406 -70.242188 C 43.769531 -71.566406 45.496094 -72.679688 47.628906 -73.574219 C 49.609375 -74.40625 51.808594 -74.976562 54.222656 -75.285156 C 56.640625 -75.597656 59.074219 -75.570312 61.515625 -75.203125 C 64.082031 -74.820312 66.488281 -73.992188 68.734375 -72.722656 C 71.128906 -71.367188 73.113281 -69.453125 74.6875 -66.984375 C 76.25 -64.535156 77.203125 -61.535156 77.554688 -57.988281 L 78.089844 -52.667969 C 78.261719 -50.996094 78.386719 -49.300781 78.464844 -47.574219 C 78.539062 -45.839844 78.550781 -43.902344 78.5 -41.761719 C 78.453125 -39.636719 78.316406 -37.136719 78.097656 -34.25 C 77.878906 -31.378906 77.527344 -27.914062 77.042969 -23.847656 Z M 69.050781 -24.800781 C 69.519531 -28.75 69.863281 -32.105469 70.070312 -34.863281 C 70.28125 -37.605469 70.410156 -39.96875 70.453125 -41.949219 C 70.5 -43.910156 70.488281 -45.667969 70.421875 -47.222656 C 70.355469 -48.789062 70.238281 -50.332031 70.082031 -51.859375 L 69.542969 -57.199219 C 69.320312 -59.46875 68.773438 -61.289062 67.902344 -62.65625 C 67.042969 -64 66 -65.019531 64.769531 -65.71875 C 63.390625 -66.496094 61.910156 -67.007812 60.324219 -67.242188 C 58.617188 -67.496094 56.925781 -67.519531 55.242188 -67.300781 C 53.554688 -67.085938 52.054688 -66.703125 50.746094 -66.152344 C 49.585938 -65.664062 48.714844 -65.132812 48.132812 -64.550781 L 45.289062 -67.394531 L 49.234375 -68.183594 C 49.699219 -65.859375 50.03125 -63.09375 50.234375 -59.886719 C 50.429688 -56.78125 50.539062 -53.5 50.566406 -50.039062 C 50.589844 -46.585938 50.527344 -43.175781 50.382812 -39.820312 C 50.234375 -36.460938 50.027344 -33.363281 49.757812 -30.527344 C 49.484375 -27.628906 49.167969 -25.257812 48.808594 -23.410156 C 48.238281 -20.492188 47.023438 -18.285156 45.164062 -16.789062 C 43.265625 -15.261719 41.15625 -14.5625 38.839844 -14.691406 C 36.621094 -14.8125 34.652344 -15.636719 32.929688 -17.160156 C 31.207031 -18.683594 30.113281 -20.710938 29.652344 -23.25 C 29.296875 -25.441406 29.03125 -28.082031 28.855469 -31.179688 C 28.6875 -34.183594 28.566406 -37.34375 28.492188 -40.65625 C 28.421875 -43.953125 28.386719 -47.105469 28.386719 -50.117188 C 28.386719 -53.082031 28.375 -55.644531 28.351562 -57.800781 C 28.328125 -59.816406 28.277344 -61.125 28.203125 -61.722656 C 28.027344 -63.066406 27.613281 -64.09375 26.957031 -64.800781 C 26.125 -65.695312 25.097656 -66.386719 23.867188 -66.878906 C 22.453125 -67.445312 20.933594 -67.792969 19.308594 -67.925781 C 17.5625 -68.070312 15.882812 -68.042969 14.277344 -67.839844 C 12.667969 -67.636719 11.304688 -67.339844 10.183594 -66.953125 C 9.710938 -66.789062 9.335938 -66.632812 9.058594 -66.480469 C 8.980469 -66.4375 8.921875 -66.402344 8.882812 -66.371094 C 8.902344 -66.386719 8.933594 -66.417969 8.976562 -66.464844 L 6.011719 -69.183594 L 9.996094 -68.640625 C 9.339844 -63.800781 8.800781 -58.757812 8.375 -53.515625 C 7.953125 -48.296875 7.734375 -43.1875 7.710938 -38.1875 C 7.6875 -33.28125 7.972656 -28.742188 8.566406 -24.574219 C 9.125 -20.414062 10.105469 -16.996094 11.507812 -14.3125 C 12.871094 -11.707031 14.515625 -9.625 16.445312 -8.066406 C 18.449219 -6.445312 20.644531 -5.210938 23.027344 -4.363281 C 25.546875 -3.46875 28.164062 -2.867188 30.882812 -2.570312 C 33.765625 -2.25 36.636719 -2.09375 39.492188 -2.09375 C 42.851562 -2.09375 46.214844 -2.558594 49.585938 -3.488281 C 52.882812 -4.394531 55.949219 -5.800781 58.785156 -7.707031 C 61.527344 -9.546875 63.820312 -11.886719 65.667969 -14.71875 C 67.46875 -17.480469 68.597656 -20.835938 69.050781 -24.785156 Z M 69.050781 -24.800781 "/></g></g></g><g fill="#3d4a43" fill-opacity="1"><g transform="translate(177.56586, 94.267722)"><g><path d="M 42.621094 -40.207031 L 42.621094 -68.433594 L 43.566406 -69.554688 C 45.769531 -72.175781 48.308594 -74.050781 51.183594 -75.183594 C 54.019531 -76.296875 56.921875 -76.71875 59.894531 -76.445312 C 62.800781 -76.179688 65.480469 -75.359375 67.933594 -73.980469 C 70.460938 -72.5625 72.515625 -70.648438 74.089844 -68.238281 C 75.746094 -65.710938 76.570312 -62.828125 76.570312 -59.597656 L 76.605469 -53.503906 L 76.679688 -44.460938 L 76.75 -33.722656 C 76.773438 -29.9375 76.773438 -26.1875 76.75 -22.476562 C 76.726562 -18.746094 76.664062 -15.234375 76.570312 -11.9375 C 76.472656 -8.605469 76.324219 -5.6875 76.128906 -3.191406 L 76.011719 -1.710938 L 74.964844 -0.660156 C 72.988281 1.3125 70.449219 2.820312 67.34375 3.855469 C 64.351562 4.851562 61.132812 5.25 57.6875 5.054688 C 54.207031 4.855469 50.800781 3.933594 47.472656 2.28125 C 44.046875 0.582031 41.042969 -2.035156 38.460938 -5.566406 C 37.394531 -7.039062 36.296875 -8.691406 35.171875 -10.515625 C 34.070312 -12.304688 33.015625 -14.089844 32.011719 -15.878906 C 31.027344 -17.636719 30.144531 -19.230469 29.371094 -20.652344 C 28.679688 -21.933594 28.160156 -22.820312 27.8125 -23.320312 L 27.554688 -23.695312 L 27.386719 -24.117188 C 27.460938 -23.929688 27.566406 -23.761719 27.699219 -23.605469 C 27.464844 -23.875 27.246094 -24.144531 27.042969 -24.414062 L 30.261719 -26.828125 L 30.261719 -22.804688 C 30.546875 -22.804688 30.800781 -22.832031 31.023438 -22.890625 C 30.609375 -22.785156 30.1875 -22.734375 29.761719 -22.734375 L 29.761719 -26.757812 L 33.785156 -26.847656 C 33.832031 -24.742188 33.902344 -22.816406 33.996094 -21.070312 L 34.28125 -15.777344 C 34.378906 -13.980469 34.441406 -12.066406 34.464844 -10.027344 C 34.492188 -8.007812 34.480469 -5.691406 34.429688 -3.074219 L 34.394531 -1.210938 L 32.953125 -0.03125 C 30.15625 2.253906 27.253906 3.777344 24.246094 4.542969 C 21.273438 5.300781 18.402344 5.457031 15.636719 5.011719 C 12.886719 4.566406 10.398438 3.65625 8.179688 2.273438 C 5.929688 0.875 4.117188 -0.835938 2.75 -2.859375 C 1.261719 -5.058594 0.480469 -7.40625 0.414062 -9.90625 C 0.316406 -12.867188 0.234375 -16.132812 0.160156 -19.703125 L -0.015625 -30.808594 C -0.0664062 -34.671875 -0.0898438 -38.472656 -0.0898438 -42.210938 L -0.0546875 -52.777344 C -0.03125 -56.144531 0.03125 -59.121094 0.128906 -61.714844 C 0.226562 -64.355469 0.351562 -66.410156 0.503906 -67.882812 L 0.671875 -69.511719 L 1.929688 -70.558594 C 4.027344 -72.304688 6.5625 -73.6875 9.535156 -74.707031 C 12.496094 -75.722656 15.589844 -76.1875 18.8125 -76.105469 C 22.191406 -76.015625 25.410156 -75.15625 28.472656 -73.523438 C 31.632812 -71.835938 34.261719 -69.246094 36.363281 -65.746094 C 37.621094 -63.613281 38.746094 -61.679688 39.734375 -59.941406 L 42.601562 -54.894531 L 45.503906 -49.730469 L 48.988281 -43.523438 L 49.03125 -43.4375 C 49.113281 -43.277344 49.199219 -43.121094 49.292969 -42.976562 C 49.476562 -42.683594 49.652344 -42.40625 49.8125 -42.136719 L 46.359375 -40.066406 L 43.515625 -42.910156 C 44.347656 -43.746094 45.34375 -44.160156 46.503906 -44.160156 C 45.441406 -44.160156 44.539062 -43.792969 43.800781 -43.054688 L 46.648438 -40.207031 Z M 50.671875 -40.207031 L 50.671875 -38.542969 L 49.492188 -37.363281 C 48.660156 -36.527344 47.664062 -36.113281 46.503906 -36.113281 C 47.566406 -36.113281 48.46875 -36.480469 49.207031 -37.21875 L 45.5625 -33.574219 L 42.910156 -37.996094 C 42.785156 -38.203125 42.648438 -38.421875 42.5 -38.65625 C 42.257812 -39.035156 42.035156 -39.429688 41.832031 -39.839844 L 45.429688 -41.640625 L 41.921875 -39.667969 L 38.488281 -45.78125 L 35.597656 -50.921875 L 32.738281 -55.960938 C 31.773438 -57.660156 30.679688 -59.539062 29.460938 -61.605469 C 28.125 -63.828125 26.535156 -65.433594 24.683594 -66.417969 C 22.738281 -67.457031 20.714844 -68.003906 18.605469 -68.058594 C 16.34375 -68.117188 14.191406 -67.796875 12.144531 -67.09375 C 10.109375 -66.394531 8.421875 -65.488281 7.082031 -64.375 L 4.507812 -67.46875 L 8.511719 -67.054688 C 8.375 -65.757812 8.261719 -63.878906 8.171875 -61.414062 C 8.078125 -58.902344 8.019531 -56.015625 7.996094 -52.75 L 7.960938 -42.210938 C 7.960938 -38.507812 7.984375 -34.75 8.03125 -30.9375 L 8.210938 -19.863281 C 8.28125 -16.324219 8.363281 -13.082031 8.457031 -10.128906 C 8.484375 -9.191406 8.804688 -8.273438 9.414062 -7.371094 C 10.144531 -6.292969 11.148438 -5.359375 12.425781 -4.5625 C 13.734375 -3.75 15.230469 -3.207031 16.917969 -2.9375 C 18.585938 -2.667969 20.367188 -2.773438 22.257812 -3.257812 C 24.117188 -3.730469 25.984375 -4.734375 27.863281 -6.265625 L 30.40625 -3.148438 L 26.382812 -3.222656 C 26.429688 -5.757812 26.441406 -7.992188 26.417969 -9.933594 C 26.394531 -11.855469 26.335938 -13.65625 26.246094 -15.34375 L 25.957031 -20.640625 C 25.859375 -22.472656 25.789062 -24.480469 25.738281 -26.667969 L 25.648438 -30.78125 L 29.761719 -30.78125 C 29.527344 -30.78125 29.296875 -30.753906 29.074219 -30.699219 C 29.488281 -30.800781 29.886719 -30.855469 30.261719 -30.855469 L 32.277344 -30.855469 L 33.484375 -29.242188 C 33.566406 -29.132812 33.65625 -29.023438 33.757812 -28.90625 C 34.226562 -28.371094 34.59375 -27.773438 34.859375 -27.109375 L 31.121094 -25.613281 L 34.429688 -27.902344 C 34.941406 -27.164062 35.617188 -26.027344 36.449219 -24.492188 C 37.203125 -23.101562 38.0625 -21.542969 39.03125 -19.820312 C 39.980469 -18.128906 40.980469 -16.433594 42.023438 -14.738281 C 43.046875 -13.082031 44.023438 -11.609375 44.960938 -10.316406 C 46.769531 -7.839844 48.796875 -6.042969 51.046875 -4.929688 C 53.394531 -3.765625 55.757812 -3.117188 58.144531 -2.980469 C 60.566406 -2.84375 62.78125 -3.109375 64.800781 -3.78125 C 66.703125 -4.417969 68.191406 -5.273438 69.273438 -6.351562 L 72.117188 -3.503906 L 68.105469 -3.820312 C 68.289062 -6.1875 68.429688 -8.972656 68.523438 -12.171875 C 68.617188 -15.410156 68.675781 -18.859375 68.699219 -22.527344 C 68.726562 -26.207031 68.726562 -29.921875 68.699219 -33.671875 L 68.628906 -44.398438 L 68.558594 -53.457031 L 68.523438 -59.597656 C 68.523438 -61.230469 68.132812 -62.640625 67.355469 -63.832031 C 66.496094 -65.144531 65.378906 -66.1875 63.996094 -66.960938 C 62.539062 -67.777344 60.925781 -68.269531 59.15625 -68.429688 C 57.457031 -68.589844 55.78125 -68.339844 54.132812 -67.691406 C 52.523438 -67.058594 51.054688 -65.953125 49.726562 -64.375 L 46.648438 -66.964844 L 50.671875 -66.964844 Z M 50.671875 -40.207031 "/></g></g></g><g fill="#3d4a43" fill-opacity="1"><g transform="translate(254.756416, 94.267722)"><g><path d="M -2.875 -22.394531 C -2.285156 -25.335938 -1.515625 -28.617188 -0.566406 -32.25 C 0.378906 -35.863281 1.445312 -39.570312 2.632812 -43.375 C 3.8125 -47.160156 5.019531 -50.824219 6.25 -54.371094 C 7.488281 -57.9375 8.703125 -61.203125 9.894531 -64.171875 C 11.109375 -67.199219 12.199219 -69.648438 13.160156 -71.523438 L 13.902344 -72.96875 L 15.441406 -73.492188 C 17.550781 -74.214844 20.046875 -74.878906 22.921875 -75.484375 C 25.886719 -76.105469 29.015625 -76.457031 32.316406 -76.535156 C 35.777344 -76.617188 39.203125 -76.171875 42.601562 -75.199219 C 46.179688 -74.179688 49.457031 -72.375 52.433594 -69.789062 C 55.445312 -67.179688 57.878906 -63.597656 59.742188 -59.046875 C 60.542969 -57.050781 61.457031 -54.523438 62.480469 -51.46875 C 63.496094 -48.449219 64.558594 -45.109375 65.667969 -41.445312 C 66.773438 -37.785156 67.859375 -34.019531 68.917969 -30.144531 C 69.976562 -26.265625 70.953125 -22.484375 71.84375 -18.796875 C 72.746094 -15.0625 73.46875 -11.652344 74.007812 -8.5625 L 74.105469 -7.996094 L 74.042969 -7.425781 C 73.800781 -5.246094 72.773438 -3.199219 70.964844 -1.28125 C 69.433594 0.34375 67.523438 1.707031 65.238281 2.804688 C 63.019531 3.871094 60.640625 4.574219 58.097656 4.917969 C 55.40625 5.28125 52.734375 5.070312 50.085938 4.289062 C 47.285156 3.460938 44.789062 1.875 42.597656 -0.472656 C 40.46875 -2.75 38.839844 -5.8125 37.707031 -9.667969 L 41.566406 -10.804688 L 41.398438 -6.78125 C 39.238281 -6.875 36.984375 -6.898438 34.636719 -6.851562 C 32.148438 -6.800781 29.734375 -6.800781 27.390625 -6.851562 L 27.472656 -10.875 L 31.183594 -9.320312 C 30.613281 -7.957031 30.074219 -6.457031 29.5625 -4.816406 C 29.027344 -3.085938 28.5 -1.304688 27.984375 0.519531 L 27.429688 2.492188 L 25.503906 3.203125 C 20.484375 5.058594 16.019531 5.710938 12.105469 5.167969 C 7.945312 4.585938 4.554688 2.9375 1.933594 0.21875 C -0.597656 -2.402344 -2.257812 -5.746094 -3.054688 -9.816406 C -3.796875 -13.613281 -3.742188 -17.789062 -2.882812 -22.351562 Z M 5.027344 -20.863281 C 4.359375 -17.3125 4.300781 -14.148438 4.84375 -11.363281 C 5.335938 -8.847656 6.296875 -6.851562 7.726562 -5.371094 C 9.0625 -3.984375 10.894531 -3.128906 13.21875 -2.804688 C 15.796875 -2.445312 18.960938 -2.960938 22.714844 -4.347656 L 24.109375 -0.574219 L 20.238281 -1.664062 C 20.769531 -3.558594 21.316406 -5.40625 21.878906 -7.203125 C 22.464844 -9.09375 23.09375 -10.835938 23.761719 -12.429688 L 24.820312 -14.957031 L 27.558594 -14.898438 C 29.792969 -14.851562 32.097656 -14.851562 34.476562 -14.898438 C 36.992188 -14.949219 39.414062 -14.921875 41.738281 -14.824219 L 44.617188 -14.703125 L 45.429688 -11.9375 C 46.203125 -9.304688 47.21875 -7.316406 48.480469 -5.96875 C 49.671875 -4.6875 50.96875 -3.84375 52.367188 -3.429688 C 53.914062 -2.972656 55.464844 -2.847656 57.019531 -3.058594 C 58.722656 -3.289062 60.300781 -3.75 61.753906 -4.449219 C 63.140625 -5.117188 64.261719 -5.902344 65.113281 -6.804688 C 65.6875 -7.414062 66 -7.917969 66.042969 -8.3125 L 70.042969 -7.871094 L 66.078125 -7.175781 C 65.566406 -10.097656 64.882812 -13.339844 64.019531 -16.90625 C 63.148438 -20.515625 62.191406 -24.222656 61.152344 -28.023438 C 60.113281 -31.828125 59.050781 -35.523438 57.960938 -39.113281 C 56.878906 -42.699219 55.839844 -45.964844 54.851562 -48.90625 C 53.875 -51.816406 53.023438 -54.179688 52.296875 -55.996094 C 50.914062 -59.363281 49.203125 -61.9375 47.15625 -63.710938 C 45.078125 -65.515625 42.824219 -66.765625 40.390625 -67.460938 C 37.777344 -68.207031 35.148438 -68.550781 32.503906 -68.488281 C 29.699219 -68.421875 27.058594 -68.128906 24.582031 -67.605469 C 22.023438 -67.066406 19.84375 -66.492188 18.042969 -65.875 L 16.742188 -69.683594 L 20.320312 -67.847656 C 19.472656 -66.191406 18.484375 -63.96875 17.363281 -61.171875 C 16.21875 -58.324219 15.050781 -55.175781 13.855469 -51.730469 C 12.652344 -48.265625 11.472656 -44.679688 10.316406 -40.976562 C 9.167969 -37.292969 8.132812 -33.703125 7.21875 -30.210938 C 6.308594 -26.734375 5.578125 -23.601562 5.019531 -20.816406 Z M 30.261719 -35.359375 L 39.0625 -35.359375 L 39.0625 -31.335938 L 35.140625 -30.4375 C 34.480469 -33.316406 33.792969 -36.164062 33.085938 -38.972656 C 32.363281 -41.835938 31.667969 -44.707031 30.996094 -47.59375 L 34.914062 -48.507812 L 36.1875 -44.6875 C 35.628906 -44.503906 34.992188 -44.410156 34.269531 -44.410156 L 34.269531 -48.4375 L 38.199219 -47.570312 C 37.574219 -44.722656 36.910156 -41.878906 36.210938 -39.03125 C 35.523438 -36.242188 34.851562 -33.382812 34.1875 -30.449219 L 30.261719 -31.335938 Z M 30.261719 -27.3125 L 25.230469 -27.3125 L 26.335938 -32.222656 C 27.011719 -35.207031 27.695312 -38.117188 28.394531 -40.953125 C 29.078125 -43.738281 29.726562 -46.519531 30.339844 -49.300781 L 31.035156 -52.460938 L 34.269531 -52.460938 C 34.121094 -52.460938 33.910156 -52.414062 33.640625 -52.324219 L 37.828125 -53.722656 L 38.832031 -49.421875 C 39.496094 -46.582031 40.179688 -43.757812 40.890625 -40.941406 C 41.613281 -38.074219 42.3125 -35.175781 42.984375 -32.238281 L 44.117188 -27.3125 Z M 30.261719 -27.3125 "/></g></g></g><g fill="#3d4a43" fill-opacity="1"><g transform="translate(325.794627, 94.267722)"><g><path d="M 58.550781 -29.621094 C 59.613281 -28.679688 60.824219 -27.296875 62.179688 -25.480469 C 63.417969 -23.820312 64.679688 -22.011719 65.964844 -20.0625 C 67.242188 -18.117188 68.402344 -16.257812 69.441406 -14.476562 C 70.574219 -12.535156 71.375 -10.894531 71.839844 -9.550781 L 72.195312 -8.527344 L 71.992188 -7.46875 C 71.371094 -4.246094 70.066406 -1.542969 68.078125 0.636719 C 66.105469 2.800781 63.71875 4.3125 60.921875 5.171875 C 58.222656 6 55.394531 6.171875 52.4375 5.6875 C 49.515625 5.210938 46.6875 4.042969 43.953125 2.183594 C 41.226562 0.324219 38.878906 -2.234375 36.90625 -5.503906 C 36.359375 -6.414062 35.730469 -7.40625 35.023438 -8.480469 C 34.269531 -9.625 33.398438 -10.980469 32.402344 -12.554688 C 31.433594 -14.09375 30.214844 -16 28.742188 -18.277344 L 28.203125 -19.089844 C 28.078125 -19.277344 27.953125 -19.445312 27.835938 -19.59375 L 30.980469 -22.105469 L 32.777344 -18.507812 C 32.023438 -18.128906 31.253906 -17.941406 30.476562 -17.941406 L 30.476562 -21.964844 L 34.503906 -21.964844 C 34.503906 -21.300781 34.488281 -20.578125 34.464844 -19.796875 C 34.441406 -19.015625 34.402344 -18.222656 34.351562 -17.421875 C 34.210938 -14.515625 34.027344 -11.589844 33.8125 -8.648438 C 33.589844 -5.65625 33.355469 -3.238281 33.105469 -1.394531 L 32.9375 -0.132812 L 32.070312 0.800781 C 30.394531 2.617188 28.292969 3.914062 25.773438 4.699219 C 23.378906 5.445312 20.855469 5.652344 18.203125 5.316406 C 15.570312 4.984375 13.035156 4.089844 10.597656 2.632812 C 8.140625 1.164062 6.007812 -0.882812 4.199219 -3.511719 C 2.398438 -6.121094 1.136719 -9.328125 0.410156 -13.125 C 0.191406 -14.164062 0.00390625 -15.800781 -0.152344 -18.035156 C -0.296875 -20.121094 -0.429688 -22.59375 -0.550781 -25.441406 C -0.671875 -28.292969 -0.757812 -31.335938 -0.804688 -34.566406 C -0.851562 -37.792969 -0.863281 -41.042969 -0.839844 -44.316406 C -0.816406 -47.59375 -0.757812 -50.714844 -0.660156 -53.683594 C -0.5625 -56.699219 -0.402344 -59.390625 -0.179688 -61.761719 C 0.0546875 -64.277344 0.371094 -66.265625 0.765625 -67.726562 L 1.058594 -68.8125 L 1.871094 -69.589844 C 3.296875 -70.953125 5.363281 -72.171875 8.0625 -73.246094 C 10.507812 -74.21875 13.339844 -75.027344 16.558594 -75.671875 C 19.710938 -76.300781 23.074219 -76.742188 26.65625 -76.992188 C 30.261719 -77.242188 33.890625 -77.230469 37.542969 -76.953125 C 41.261719 -76.671875 44.804688 -76.066406 48.179688 -75.140625 C 51.734375 -74.164062 54.886719 -72.738281 57.640625 -70.867188 C 60.296875 -69.09375 62.65625 -66.816406 64.722656 -64.035156 C 66.761719 -61.289062 68.351562 -58.253906 69.488281 -54.921875 C 70.648438 -51.519531 71.160156 -48.015625 71.023438 -44.417969 C 70.882812 -40.714844 69.90625 -37.132812 68.105469 -33.664062 C 66.289062 -30.175781 63.507812 -27.058594 59.761719 -24.300781 L 57.378906 -27.542969 L 60 -24.488281 C 59.414062 -23.988281 58.640625 -23.496094 57.675781 -23.015625 L 55.875 -26.613281 Z M 53.203125 -23.605469 L 48.761719 -27.554688 L 54.078125 -30.214844 C 54.449219 -30.402344 54.675781 -30.53125 54.761719 -30.601562 L 54.875 -30.699219 L 54.996094 -30.789062 C 57.734375 -32.800781 59.726562 -35 60.964844 -37.378906 C 62.210938 -39.777344 62.882812 -42.226562 62.980469 -44.726562 C 63.082031 -47.328125 62.710938 -49.859375 61.871094 -52.324219 C 61.003906 -54.859375 59.800781 -57.164062 58.261719 -59.238281 C 56.75 -61.269531 55.035156 -62.929688 53.113281 -64.210938 C 51.097656 -65.582031 48.742188 -66.636719 46.046875 -67.378906 C 43.171875 -68.167969 40.132812 -68.683594 36.933594 -68.925781 C 33.671875 -69.175781 30.433594 -69.1875 27.21875 -68.960938 C 23.976562 -68.734375 20.953125 -68.339844 18.140625 -67.777344 C 15.398438 -67.230469 13.03125 -66.558594 11.039062 -65.765625 C 9.304688 -65.078125 8.101562 -64.410156 7.429688 -63.769531 L 4.652344 -66.679688 L 8.535156 -65.632812 C 8.261719 -64.613281 8.027344 -63.074219 7.835938 -61.011719 C 7.628906 -58.800781 7.476562 -56.273438 7.386719 -53.421875 C 7.289062 -50.519531 7.230469 -47.464844 7.207031 -44.257812 C 7.183594 -41.042969 7.195312 -37.855469 7.242188 -34.6875 C 7.289062 -31.527344 7.375 -28.5625 7.492188 -25.785156 C 7.609375 -23.007812 7.738281 -20.609375 7.878906 -18.59375 C 8.007812 -16.730469 8.15625 -15.410156 8.316406 -14.636719 C 8.832031 -11.945312 9.667969 -9.761719 10.828125 -8.078125 C 11.972656 -6.414062 13.273438 -5.144531 14.726562 -4.277344 C 16.199219 -3.398438 17.695312 -2.859375 19.214844 -2.667969 C 20.710938 -2.480469 22.097656 -2.585938 23.378906 -2.984375 C 24.53125 -3.34375 25.460938 -3.902344 26.164062 -4.667969 L 29.117188 -1.933594 L 25.128906 -2.46875 C 25.359375 -4.15625 25.574219 -6.410156 25.785156 -9.238281 C 25.996094 -12.117188 26.175781 -15.011719 26.316406 -17.921875 C 26.363281 -18.644531 26.398438 -19.355469 26.417969 -20.054688 C 26.441406 -20.75 26.453125 -21.386719 26.453125 -21.964844 L 26.453125 -25.988281 L 30.476562 -25.988281 C 29.988281 -25.988281 29.554688 -25.894531 29.179688 -25.707031 L 32.089844 -27.164062 L 34.121094 -24.621094 C 34.386719 -24.292969 34.644531 -23.9375 34.898438 -23.554688 L 35.503906 -22.644531 C 36.992188 -20.34375 38.226562 -18.410156 39.210938 -16.851562 C 40.175781 -15.324219 41.019531 -14.011719 41.742188 -12.910156 C 42.515625 -11.742188 43.199219 -10.660156 43.796875 -9.664062 C 45.164062 -7.398438 46.726562 -5.667969 48.484375 -4.472656 C 50.234375 -3.28125 51.984375 -2.539062 53.734375 -2.253906 C 55.453125 -1.972656 57.0625 -2.0625 58.558594 -2.523438 C 59.957031 -2.953125 61.148438 -3.707031 62.132812 -4.785156 C 63.101562 -5.847656 63.753906 -7.25 64.085938 -8.988281 L 68.039062 -8.226562 L 64.238281 -6.90625 C 63.941406 -7.757812 63.359375 -8.929688 62.488281 -10.421875 C 61.523438 -12.074219 60.441406 -13.8125 59.238281 -15.636719 C 58.042969 -17.457031 56.871094 -19.132812 55.726562 -20.667969 C 54.699219 -22.046875 53.855469 -23.023438 53.203125 -23.605469 Z M 36.96875 -44.929688 C 36.96875 -44.984375 36.945312 -45.042969 36.890625 -45.09375 C 36.726562 -45.265625 36.398438 -45.382812 35.910156 -45.449219 C 35.292969 -45.535156 34.4375 -45.316406 33.347656 -44.796875 L 31.621094 -48.4375 L 35.648438 -48.4375 C 35.648438 -46.921875 35.636719 -45.714844 35.609375 -44.820312 C 35.589844 -44.046875 35.601562 -43.089844 35.644531 -41.9375 L 35.648438 -41.859375 L 35.648438 -41.78125 C 35.648438 -42.453125 35.484375 -43.0625 35.15625 -43.613281 C 35.039062 -43.804688 34.917969 -43.964844 34.789062 -44.089844 C 34.664062 -44.21875 34.503906 -44.339844 34.3125 -44.457031 C 33.761719 -44.785156 33.152344 -44.949219 32.480469 -44.949219 L 35.164062 -44.949219 C 35.753906 -44.949219 36.332031 -45.011719 36.902344 -45.140625 L 37.027344 -45.167969 L 37.15625 -45.1875 C 37.292969 -45.207031 37.378906 -45.226562 37.417969 -45.246094 C 37.328125 -45.203125 37.238281 -45.128906 37.148438 -45.023438 C 37.054688 -44.914062 36.992188 -44.808594 36.957031 -44.707031 C 36.964844 -44.734375 36.96875 -44.808594 36.96875 -44.929688 Z M 45.019531 -44.929688 C 45.019531 -42.855469 44.425781 -41.132812 43.234375 -39.757812 C 42.054688 -38.390625 40.441406 -37.550781 38.394531 -37.234375 L 37.777344 -41.210938 L 38.648438 -37.28125 C 37.503906 -37.027344 36.339844 -36.898438 35.164062 -36.898438 L 32.480469 -36.898438 C 31.226562 -36.898438 30.097656 -37.398438 29.097656 -38.398438 C 28.097656 -39.398438 27.597656 -40.527344 27.597656 -41.78125 L 31.621094 -41.78125 L 27.601562 -41.628906 C 27.550781 -42.957031 27.539062 -44.09375 27.5625 -45.042969 C 27.585938 -45.863281 27.597656 -46.996094 27.597656 -48.4375 L 27.597656 -50.984375 L 29.898438 -52.074219 C 32.433594 -53.273438 34.796875 -53.722656 36.992188 -53.425781 C 39.316406 -53.109375 41.210938 -52.203125 42.664062 -50.703125 C 44.234375 -49.089844 45.019531 -47.164062 45.019531 -44.929688 Z M 45.019531 -44.929688 "/></g></g></g><g fill="#3d4a43" fill-opacity="1"><g transform="translate(397.118988, 94.267722)"><g><path d="M -2.875 -22.394531 C -2.285156 -25.335938 -1.515625 -28.617188 -0.566406 -32.25 C 0.378906 -35.863281 1.445312 -39.570312 2.632812 -43.375 C 3.8125 -47.160156 5.019531 -50.824219 6.25 -54.371094 C 7.488281 -57.9375 8.703125 -61.203125 9.894531 -64.171875 C 11.109375 -67.199219 12.199219 -69.648438 13.160156 -71.523438 L 13.902344 -72.96875 L 15.441406 -73.492188 C 17.550781 -74.214844 20.046875 -74.878906 22.921875 -75.484375 C 25.886719 -76.105469 29.015625 -76.457031 32.316406 -76.535156 C 35.777344 -76.617188 39.203125 -76.171875 42.601562 -75.199219 C 46.179688 -74.179688 49.457031 -72.375 52.433594 -69.789062 C 55.445312 -67.179688 57.878906 -63.597656 59.742188 -59.046875 C 60.542969 -57.050781 61.457031 -54.523438 62.480469 -51.46875 C 63.496094 -48.449219 64.558594 -45.109375 65.667969 -41.445312 C 66.773438 -37.785156 67.859375 -34.019531 68.917969 -30.144531 C 69.976562 -26.265625 70.953125 -22.484375 71.84375 -18.796875 C 72.746094 -15.0625 73.46875 -11.652344 74.007812 -8.5625 L 74.105469 -7.996094 L 74.042969 -7.425781 C 73.800781 -5.246094 72.773438 -3.199219 70.964844 -1.28125 C 69.433594 0.34375 67.523438 1.707031 65.238281 2.804688 C 63.019531 3.871094 60.640625 4.574219 58.097656 4.917969 C 55.40625 5.28125 52.734375 5.070312 50.085938 4.289062 C 47.285156 3.460938 44.789062 1.875 42.597656 -0.472656 C 40.46875 -2.75 38.839844 -5.8125 37.707031 -9.667969 L 41.566406 -10.804688 L 41.398438 -6.78125 C 39.238281 -6.875 36.984375 -6.898438 34.636719 -6.851562 C 32.148438 -6.800781 29.734375 -6.800781 27.390625 -6.851562 L 27.472656 -10.875 L 31.183594 -9.320312 C 30.613281 -7.957031 30.074219 -6.457031 29.5625 -4.816406 C 29.027344 -3.085938 28.5 -1.304688 27.984375 0.519531 L 27.429688 2.492188 L 25.503906 3.203125 C 20.484375 5.058594 16.019531 5.710938 12.105469 5.167969 C 7.945312 4.585938 4.554688 2.9375 1.933594 0.21875 C -0.597656 -2.402344 -2.257812 -5.746094 -3.054688 -9.816406 C -3.796875 -13.613281 -3.742188 -17.789062 -2.882812 -22.351562 Z M 5.027344 -20.863281 C 4.359375 -17.3125 4.300781 -14.148438 4.84375 -11.363281 C 5.335938 -8.847656 6.296875 -6.851562 7.726562 -5.371094 C 9.0625 -3.984375 10.894531 -3.128906 13.21875 -2.804688 C 15.796875 -2.445312 18.960938 -2.960938 22.714844 -4.347656 L 24.109375 -0.574219 L 20.238281 -1.664062 C 20.769531 -3.558594 21.316406 -5.40625 21.878906 -7.203125 C 22.464844 -9.09375 23.09375 -10.835938 23.761719 -12.429688 L 24.820312 -14.957031 L 27.558594 -14.898438 C 29.792969 -14.851562 32.097656 -14.851562 34.476562 -14.898438 C 36.992188 -14.949219 39.414062 -14.921875 41.738281 -14.824219 L 44.617188 -14.703125 L 45.429688 -11.9375 C 46.203125 -9.304688 47.21875 -7.316406 48.480469 -5.96875 C 49.671875 -4.6875 50.96875 -3.84375 52.367188 -3.429688 C 53.914062 -2.972656 55.464844 -2.847656 57.019531 -3.058594 C 58.722656 -3.289062 60.300781 -3.75 61.753906 -4.449219 C 63.140625 -5.117188 64.261719 -5.902344 65.113281 -6.804688 C 65.6875 -7.414062 66 -7.917969 66.042969 -8.3125 L 70.042969 -7.871094 L 66.078125 -7.175781 C 65.566406 -10.097656 64.882812 -13.339844 64.019531 -16.90625 C 63.148438 -20.515625 62.191406 -24.222656 61.152344 -28.023438 C 60.113281 -31.828125 59.050781 -35.523438 57.960938 -39.113281 C 56.878906 -42.699219 55.839844 -45.964844 54.851562 -48.90625 C 53.875 -51.816406 53.023438 -54.179688 52.296875 -55.996094 C 50.914062 -59.363281 49.203125 -61.9375 47.15625 -63.710938 C 45.078125 -65.515625 42.824219 -66.765625 40.390625 -67.460938 C 37.777344 -68.207031 35.148438 -68.550781 32.503906 -68.488281 C 29.699219 -68.421875 27.058594 -68.128906 24.582031 -67.605469 C 22.023438 -67.066406 19.84375 -66.492188 18.042969 -65.875 L 16.742188 -69.683594 L 20.320312 -67.847656 C 19.472656 -66.191406 18.484375 -63.96875 17.363281 -61.171875 C 16.21875 -58.324219 15.050781 -55.175781 13.855469 -51.730469 C 12.652344 -48.265625 11.472656 -44.679688 10.316406 -40.976562 C 9.167969 -37.292969 8.132812 -33.703125 7.21875 -30.210938 C 6.308594 -26.734375 5.578125 -23.601562 5.019531 -20.816406 Z M 30.261719 -35.359375 L 39.0625 -35.359375 L 39.0625 -31.335938 L 35.140625 -30.4375 C 34.480469 -33.316406 33.792969 -36.164062 33.085938 -38.972656 C 32.363281 -41.835938 31.667969 -44.707031 30.996094 -47.59375 L 34.914062 -48.507812 L 36.1875 -44.6875 C 35.628906 -44.503906 34.992188 -44.410156 34.269531 -44.410156 L 34.269531 -48.4375 L 38.199219 -47.570312 C 37.574219 -44.722656 36.910156 -41.878906 36.210938 -39.03125 C 35.523438 -36.242188 34.851562 -33.382812 34.1875 -30.449219 L 30.261719 -31.335938 Z M 30.261719 -27.3125 L 25.230469 -27.3125 L 26.335938 -32.222656 C 27.011719 -35.207031 27.695312 -38.117188 28.394531 -40.953125 C 29.078125 -43.738281 29.726562 -46.519531 30.339844 -49.300781 L 31.035156 -52.460938 L 34.269531 -52.460938 C 34.121094 -52.460938 33.910156 -52.414062 33.640625 -52.324219 L 37.828125 -53.722656 L 38.832031 -49.421875 C 39.496094 -46.582031 40.179688 -43.757812 40.890625 -40.941406 C 41.613281 -38.074219 42.3125 -35.175781 42.984375 -32.238281 L 44.117188 -27.3125 Z M 30.261719 -27.3125 "/></g></g></g><g fill="#3d4a43" fill-opacity="1"><g transform="translate(468.157222, 94.267722)"><g/></g></g><g fill="#3d4a43" fill-opacity="1"><g transform="translate(504.212839, 94.267722)"><g><path d="M 83.746094 -13.335938 C 85.140625 -11.527344 85.800781 -9.296875 85.726562 -6.648438 C 85.667969 -4.472656 85.175781 -2.246094 84.257812 0.0351562 C 83.367188 2.242188 82.15625 4.300781 80.617188 6.210938 C 79.007812 8.203125 77.125 9.816406 74.96875 11.046875 C 72.539062 12.425781 69.941406 13.015625 67.171875 12.8125 C 63.566406 12.523438 60.265625 11.476562 57.269531 9.671875 C 54.472656 7.988281 51.820312 5.761719 49.3125 2.984375 L 52.300781 0.285156 L 53.570312 4.105469 C 53.015625 4.289062 52.460938 4.382812 51.90625 4.382812 C 52.421875 4.382812 52.914062 4.265625 53.382812 4.027344 L 52.96875 4.238281 L 52.519531 4.34375 C 46.890625 5.6875 41.355469 6.109375 35.910156 5.617188 C 30.375 5.117188 24.988281 3.503906 19.75 0.78125 C 14.65625 -1.847656 10.570312 -5.292969 7.5 -9.5625 C 4.484375 -13.75 2.367188 -18.570312 1.152344 -24.019531 C 0.0273438 -28.972656 -0.457031 -33.898438 -0.300781 -38.796875 C -0.144531 -43.878906 1.023438 -48.855469 3.191406 -53.722656 C 4.460938 -56.523438 6.070312 -59.25 8.027344 -61.910156 C 10.054688 -64.667969 12.566406 -67.15625 15.5625 -69.375 C 18.574219 -71.609375 22.144531 -73.414062 26.273438 -74.789062 C 30.378906 -76.160156 35.121094 -76.898438 40.488281 -77 C 44.355469 -77.101562 47.824219 -76.835938 50.898438 -76.203125 C 54.023438 -75.554688 56.929688 -74.539062 59.617188 -73.15625 C 62.210938 -71.816406 64.78125 -70.136719 67.324219 -68.113281 C 72.671875 -63.941406 76.550781 -58.640625 78.960938 -52.210938 C 80.769531 -47.253906 81.851562 -42.265625 82.214844 -37.242188 C 82.582031 -32.082031 81.953125 -26.898438 80.324219 -21.691406 C 79.695312 -19.707031 78.964844 -17.816406 78.128906 -16.015625 C 77.28125 -14.179688 76.320312 -12.464844 75.25 -10.859375 L 71.902344 -13.09375 L 73.21875 -16.894531 C 74.363281 -16.5 75.609375 -16.125 76.964844 -15.769531 C 78.316406 -15.414062 79.746094 -15.105469 81.257812 -14.839844 L 82.792969 -14.566406 Z M 77.375 -8.414062 L 80.558594 -10.875 L 79.859375 -6.910156 C 78.128906 -7.214844 76.484375 -7.574219 74.925781 -7.984375 C 73.371094 -8.390625 71.921875 -8.828125 70.585938 -9.289062 L 65.664062 -10.992188 L 68.554688 -15.324219 C 69.394531 -16.585938 70.152344 -17.941406 70.828125 -19.402344 C 71.519531 -20.890625 72.121094 -22.457031 72.640625 -24.097656 C 73.96875 -28.332031 74.480469 -32.523438 74.183594 -36.664062 C 73.878906 -40.941406 72.957031 -45.179688 71.425781 -49.382812 C 69.542969 -54.398438 66.507812 -58.542969 62.3125 -61.8125 C 60.183594 -63.507812 58.054688 -64.90625 55.929688 -66 C 53.894531 -67.046875 51.671875 -67.820312 49.265625 -68.320312 C 46.804688 -68.828125 43.929688 -69.039062 40.644531 -68.953125 C 36.09375 -68.863281 32.148438 -68.265625 28.816406 -67.15625 C 25.503906 -66.050781 22.679688 -64.632812 20.355469 -62.910156 C 18.007812 -61.171875 16.058594 -59.25 14.511719 -57.140625 C 12.890625 -54.933594 11.566406 -52.703125 10.542969 -50.445312 C 8.804688 -46.539062 7.871094 -42.570312 7.742188 -38.542969 C 7.609375 -34.332031 8.03125 -30.074219 9.007812 -25.773438 C 9.984375 -21.398438 11.660156 -17.5625 14.035156 -14.261719 C 16.351562 -11.042969 19.496094 -8.40625 23.464844 -6.359375 C 27.765625 -4.125 32.15625 -2.804688 36.636719 -2.398438 C 41.207031 -1.984375 45.878906 -2.347656 50.648438 -3.484375 L 51.582031 0.429688 L 49.785156 -3.171875 C 50.445312 -3.5 51.152344 -3.667969 51.90625 -3.667969 C 51.589844 -3.667969 51.296875 -3.621094 51.027344 -3.53125 L 53.523438 -4.363281 L 55.285156 -2.414062 C 57.261719 -0.226562 59.304688 1.503906 61.421875 2.777344 C 63.339844 3.929688 65.453125 4.601562 67.761719 4.785156 C 68.902344 4.871094 69.976562 4.625 70.984375 4.050781 C 72.257812 3.324219 73.382812 2.359375 74.351562 1.160156 C 75.386719 -0.128906 76.199219 -1.503906 76.789062 -2.96875 C 77.351562 -4.359375 77.648438 -5.660156 77.679688 -6.875 C 77.703125 -7.609375 77.601562 -8.121094 77.375 -8.414062 Z M 35.496094 -34.617188 C 35.636719 -32.558594 36.050781 -31.011719 36.730469 -29.980469 C 37.394531 -28.980469 38.113281 -28.296875 38.894531 -27.925781 C 39.703125 -27.539062 40.375 -27.367188 40.902344 -27.40625 C 41.597656 -27.460938 42.34375 -27.707031 43.132812 -28.152344 C 43.800781 -28.53125 44.417969 -29.210938 44.980469 -30.191406 C 45.59375 -31.257812 45.953125 -32.808594 46.0625 -34.84375 C 46.210938 -36.941406 46 -38.628906 45.4375 -39.902344 C 44.910156 -41.09375 44.230469 -41.972656 43.398438 -42.546875 C 42.632812 -43.074219 41.804688 -43.339844 40.921875 -43.339844 C 39.957031 -43.339844 39.054688 -43.066406 38.21875 -42.523438 C 37.382812 -41.976562 36.695312 -41.101562 36.160156 -39.898438 C 35.570312 -38.570312 35.347656 -36.808594 35.496094 -34.609375 Z M 27.464844 -34.074219 C 27.230469 -37.597656 27.675781 -40.628906 28.804688 -43.167969 C 29.984375 -45.824219 31.660156 -47.859375 33.828125 -49.269531 C 35.996094 -50.679688 38.363281 -51.386719 40.921875 -51.386719 C 43.476562 -51.386719 45.820312 -50.648438 47.964844 -49.175781 C 50.042969 -47.742188 51.652344 -45.738281 52.796875 -43.160156 C 53.898438 -40.667969 54.335938 -37.753906 54.101562 -34.414062 C 53.921875 -31.105469 53.210938 -28.363281 51.964844 -26.1875 C 50.664062 -23.925781 49.039062 -22.242188 47.085938 -21.140625 C 45.25 -20.109375 43.394531 -19.523438 41.519531 -19.382812 C 39.566406 -19.230469 37.539062 -19.65625 35.441406 -20.65625 C 33.3125 -21.667969 31.503906 -23.292969 30.019531 -25.539062 C 28.554688 -27.75 27.703125 -30.59375 27.464844 -34.066406 Z M 27.464844 -34.074219 "/></g></g></g><g fill="#3d4a43" fill-opacity="1"><g transform="translate(589.201146, 94.267722)"><g><path d="M 77.046875 -23.867188 C 76.449219 -18.660156 74.90625 -14.144531 72.410156 -10.320312 C 69.96875 -6.574219 66.921875 -3.472656 63.273438 -1.023438 C 59.714844 1.367188 55.863281 3.132812 51.722656 4.273438 C 47.652344 5.394531 43.578125 5.957031 39.492188 5.957031 C 36.339844 5.957031 33.175781 5.78125 30 5.429688 C 26.660156 5.0625 23.4375 4.324219 20.328125 3.21875 C 17.082031 2.0625 14.101562 0.390625 11.386719 -1.804688 C 8.59375 -4.0625 6.253906 -6.988281 4.375 -10.582031 C 2.535156 -14.101562 1.273438 -18.410156 0.589844 -23.503906 C -0.0546875 -28.015625 -0.363281 -32.921875 -0.339844 -38.222656 C -0.316406 -43.429688 -0.0859375 -48.742188 0.351562 -54.160156 C 0.789062 -59.550781 1.34375 -64.742188 2.023438 -69.726562 L 2.191406 -70.976562 L 3.042969 -71.902344 C 4.027344 -72.976562 5.53125 -73.863281 7.558594 -74.5625 C 9.207031 -75.128906 11.109375 -75.550781 13.265625 -75.824219 C 15.429688 -76.097656 17.664062 -76.140625 19.96875 -75.949219 C 22.398438 -75.75 24.695312 -75.21875 26.855469 -74.351562 C 29.207031 -73.414062 31.203125 -72.054688 32.855469 -70.277344 C 34.679688 -68.3125 35.789062 -65.808594 36.1875 -62.765625 C 36.300781 -61.835938 36.371094 -60.210938 36.398438 -57.886719 C 36.421875 -55.703125 36.433594 -53.113281 36.433594 -50.117188 C 36.433594 -47.164062 36.46875 -44.070312 36.539062 -40.832031 C 36.613281 -37.613281 36.730469 -34.546875 36.894531 -31.636719 C 37.050781 -28.820312 37.289062 -26.453125 37.597656 -24.542969 C 37.710938 -23.933594 37.929688 -23.480469 38.257812 -23.191406 C 38.585938 -22.902344 38.929688 -22.746094 39.285156 -22.726562 C 39.546875 -22.714844 39.824219 -22.824219 40.117188 -23.0625 C 40.453125 -23.328125 40.714844 -23.960938 40.910156 -24.953125 C 41.21875 -26.539062 41.496094 -28.652344 41.746094 -31.289062 C 42.003906 -33.984375 42.199219 -36.945312 42.339844 -40.167969 C 42.480469 -43.390625 42.539062 -46.664062 42.515625 -49.980469 C 42.492188 -53.292969 42.386719 -56.425781 42.203125 -59.378906 C 42.023438 -62.226562 41.734375 -64.636719 41.339844 -66.605469 L 40.917969 -68.71875 L 42.441406 -70.242188 C 43.769531 -71.566406 45.496094 -72.679688 47.628906 -73.574219 C 49.609375 -74.40625 51.808594 -74.976562 54.222656 -75.285156 C 56.640625 -75.597656 59.074219 -75.570312 61.515625 -75.203125 C 64.082031 -74.820312 66.488281 -73.992188 68.734375 -72.722656 C 71.128906 -71.367188 73.113281 -69.453125 74.6875 -66.984375 C 76.25 -64.535156 77.203125 -61.535156 77.554688 -57.988281 L 78.089844 -52.667969 C 78.261719 -50.996094 78.386719 -49.300781 78.464844 -47.574219 C 78.539062 -45.839844 78.550781 -43.902344 78.5 -41.761719 C 78.453125 -39.636719 78.316406 -37.136719 78.097656 -34.25 C 77.878906 -31.378906 77.527344 -27.914062 77.042969 -23.847656 Z M 69.050781 -24.800781 C 69.519531 -28.75 69.863281 -32.105469 70.070312 -34.863281 C 70.28125 -37.605469 70.410156 -39.96875 70.453125 -41.949219 C 70.5 -43.910156 70.488281 -45.667969 70.421875 -47.222656 C 70.355469 -48.789062 70.238281 -50.332031 70.082031 -51.859375 L 69.542969 -57.199219 C 69.320312 -59.46875 68.773438 -61.289062 67.902344 -62.65625 C 67.042969 -64 66 -65.019531 64.769531 -65.71875 C 63.390625 -66.496094 61.910156 -67.007812 60.324219 -67.242188 C 58.617188 -67.496094 56.925781 -67.519531 55.242188 -67.300781 C 53.554688 -67.085938 52.054688 -66.703125 50.746094 -66.152344 C 49.585938 -65.664062 48.714844 -65.132812 48.132812 -64.550781 L 45.289062 -67.394531 L 49.234375 -68.183594 C 49.699219 -65.859375 50.03125 -63.09375 50.234375 -59.886719 C 50.429688 -56.78125 50.539062 -53.5 50.566406 -50.039062 C 50.589844 -46.585938 50.527344 -43.175781 50.382812 -39.820312 C 50.234375 -36.460938 50.027344 -33.363281 49.757812 -30.527344 C 49.484375 -27.628906 49.167969 -25.257812 48.808594 -23.410156 C 48.238281 -20.492188 47.023438 -18.285156 45.164062 -16.789062 C 43.265625 -15.261719 41.15625 -14.5625 38.839844 -14.691406 C 36.621094 -14.8125 34.652344 -15.636719 32.929688 -17.160156 C 31.207031 -18.683594 30.113281 -20.710938 29.652344 -23.25 C 29.296875 -25.441406 29.03125 -28.082031 28.855469 -31.179688 C 28.6875 -34.183594 28.566406 -37.34375 28.492188 -40.65625 C 28.421875 -43.953125 28.386719 -47.105469 28.386719 -50.117188 C 28.386719 -53.082031 28.375 -55.644531 28.351562 -57.800781 C 28.328125 -59.816406 28.277344 -61.125 28.203125 -61.722656 C 28.027344 -63.066406 27.613281 -64.09375 26.957031 -64.800781 C 26.125 -65.695312 25.097656 -66.386719 23.867188 -66.878906 C 22.453125 -67.445312 20.933594 -67.792969 19.308594 -67.925781 C 17.5625 -68.070312 15.882812 -68.042969 14.277344 -67.839844 C 12.667969 -67.636719 11.304688 -67.339844 10.183594 -66.953125 C 9.710938 -66.789062 9.335938 -66.632812 9.058594 -66.480469 C 8.980469 -66.4375 8.921875 -66.402344 8.882812 -66.371094 C 8.902344 -66.386719 8.933594 -66.417969 8.976562 -66.464844 L 6.011719 -69.183594 L 9.996094 -68.640625 C 9.339844 -63.800781 8.800781 -58.757812 8.375 -53.515625 C 7.953125 -48.296875 7.734375 -43.1875 7.710938 -38.1875 C 7.6875 -33.28125 7.972656 -28.742188 8.566406 -24.574219 C 9.125 -20.414062 10.105469 -16.996094 11.507812 -14.3125 C 12.871094 -11.707031 14.515625 -9.625 16.445312 -8.066406 C 18.449219 -6.445312 20.644531 -5.210938 23.027344 -4.363281 C 25.546875 -3.46875 28.164062 -2.867188 30.882812 -2.570312 C 33.765625 -2.25 36.636719 -2.09375 39.492188 -2.09375 C 42.851562 -2.09375 46.214844 -2.558594 49.585938 -3.488281 C 52.882812 -4.394531 55.949219 -5.800781 58.785156 -7.707031 C 61.527344 -9.546875 63.820312 -11.886719 65.667969 -14.71875 C 67.46875 -17.480469 68.597656 -20.835938 69.050781 -24.785156 Z M 69.050781 -24.800781 "/></g></g></g><g fill="#3d4a43" fill-opacity="1"><g transform="translate(667.393265, 94.267722)"><g><path d="M -0.0820312 -16.289062 C -0.179688 -17.96875 -0.253906 -20.207031 -0.304688 -23.003906 C -0.351562 -25.769531 -0.375 -28.867188 -0.375 -32.300781 C -0.375 -35.738281 -0.339844 -39.296875 -0.269531 -42.96875 C -0.195312 -46.636719 -0.101562 -50.246094 0.0195312 -53.792969 C 0.140625 -57.351562 0.285156 -60.648438 0.453125 -63.683594 C 0.625 -66.773438 0.835938 -69.359375 1.082031 -71.449219 L 1.464844 -74.65625 L 4.679688 -74.976562 C 7.152344 -75.222656 10.132812 -75.410156 13.632812 -75.53125 C 17.074219 -75.652344 20.765625 -75.734375 24.707031 -75.785156 C 28.65625 -75.832031 32.621094 -75.820312 36.597656 -75.746094 C 40.5625 -75.675781 44.3125 -75.566406 47.847656 -75.421875 C 51.402344 -75.277344 54.464844 -75.109375 57.039062 -74.914062 L 58.953125 -74.769531 L 60.042969 -73.191406 C 60.746094 -72.179688 61.320312 -70.800781 61.777344 -69.050781 C 62.191406 -67.449219 62.410156 -65.679688 62.441406 -63.734375 C 62.46875 -61.753906 62.226562 -59.753906 61.707031 -57.734375 C 61.144531 -55.550781 60.167969 -53.53125 58.773438 -51.671875 C 57.289062 -49.695312 55.292969 -48.132812 52.789062 -46.992188 C 50.375 -45.890625 47.445312 -45.339844 44 -45.339844 L 29.261719 -45.339844 L 29.261719 -49.367188 L 33.285156 -49.367188 L 33.285156 -45.644531 L 29.261719 -45.644531 L 29.261719 -49.671875 C 30.277344 -49.671875 31.683594 -49.695312 33.484375 -49.742188 C 35.355469 -49.789062 37.382812 -49.8125 39.5625 -49.8125 C 41.832031 -49.8125 44.066406 -49.710938 46.265625 -49.511719 C 48.621094 -49.292969 50.699219 -48.902344 52.5 -48.34375 L 54.214844 -47.804688 L 54.960938 -46.167969 C 56.683594 -42.375 57.394531 -38.769531 57.09375 -35.347656 C 56.765625 -31.585938 55.273438 -28.496094 52.613281 -26.074219 C 50.023438 -23.710938 46.484375 -22.410156 42 -22.167969 C 40.714844 -22.113281 39.523438 -22.089844 38.417969 -22.089844 C 37.347656 -22.089844 36.109375 -22.101562 34.703125 -22.125 C 33.339844 -22.148438 31.550781 -22.160156 29.332031 -22.160156 L 29.332031 -26.183594 L 33.359375 -26.183594 L 33.359375 -21.820312 L 29.332031 -21.820312 L 29.332031 -25.847656 L 56 -25.847656 L 57.203125 -24.183594 C 58.957031 -21.761719 60.078125 -19.082031 60.5625 -16.144531 C 61.050781 -13.183594 60.835938 -10.296875 59.917969 -7.480469 C 58.953125 -4.523438 57.15625 -1.992188 54.523438 0.105469 C 51.929688 2.171875 48.566406 3.46875 44.433594 3.992188 C 43.144531 4.148438 41.445312 4.289062 39.335938 4.410156 C 37.242188 4.535156 34.949219 4.609375 32.449219 4.632812 C 29.976562 4.65625 27.515625 4.644531 25.070312 4.597656 C 22.585938 4.546875 20.34375 4.449219 18.339844 4.300781 C 16.207031 4.140625 14.519531 3.921875 13.273438 3.636719 L 13.164062 3.613281 C 8.789062 2.484375 5.515625 0.195312 3.351562 -3.265625 C 1.386719 -6.398438 0.242188 -10.742188 -0.0820312 -16.289062 Z M 7.953125 -16.761719 C 8.199219 -12.582031 8.9375 -9.507812 10.171875 -7.539062 C 11.203125 -5.894531 12.867188 -4.777344 15.167969 -4.183594 L 14.164062 -0.285156 L 15.058594 -4.210938 C 15.910156 -4.015625 17.203125 -3.855469 18.933594 -3.726562 C 20.792969 -3.589844 22.890625 -3.496094 25.226562 -3.453125 C 27.597656 -3.40625 29.976562 -3.394531 32.371094 -3.417969 C 34.738281 -3.441406 36.902344 -3.507812 38.863281 -3.625 C 40.808594 -3.738281 42.328125 -3.863281 43.421875 -3.992188 C 46.0625 -4.328125 48.089844 -5.058594 49.503906 -6.1875 C 50.878906 -7.285156 51.796875 -8.546875 52.265625 -9.976562 C 52.777344 -11.546875 52.894531 -13.167969 52.621094 -14.835938 C 52.34375 -16.523438 51.699219 -18.0625 50.6875 -19.457031 L 53.945312 -21.820312 L 53.945312 -17.796875 L 25.308594 -17.796875 L 25.308594 -30.210938 L 29.332031 -30.210938 C 31.597656 -30.210938 33.433594 -30.199219 34.839844 -30.171875 C 36.199219 -30.148438 37.394531 -30.136719 38.417969 -30.136719 C 39.414062 -30.136719 40.464844 -30.160156 41.566406 -30.203125 C 44.140625 -30.34375 46.015625 -30.949219 47.191406 -32.023438 C 48.300781 -33.035156 48.929688 -34.378906 49.078125 -36.050781 C 49.253906 -38.070312 48.773438 -40.328125 47.632812 -42.835938 L 51.296875 -44.5 L 50.097656 -40.660156 C 48.84375 -41.050781 47.320312 -41.332031 45.527344 -41.496094 C 43.574219 -41.675781 41.585938 -41.765625 39.5625 -41.765625 C 37.453125 -41.765625 35.496094 -41.742188 33.695312 -41.695312 C 31.824219 -41.644531 30.347656 -41.621094 29.261719 -41.621094 L 25.238281 -41.621094 L 25.238281 -53.390625 L 44 -53.390625 C 46.28125 -53.390625 48.097656 -53.699219 49.449219 -54.316406 C 50.710938 -54.890625 51.671875 -55.621094 52.335938 -56.503906 C 53.089844 -57.507812 53.613281 -58.585938 53.910156 -59.742188 C 54.25 -61.0625 54.410156 -62.355469 54.390625 -63.617188 C 54.375 -64.914062 54.238281 -66.054688 53.984375 -67.027344 C 53.769531 -67.855469 53.582031 -68.382812 53.425781 -68.609375 L 56.734375 -70.902344 L 56.433594 -66.886719 C 53.949219 -67.074219 50.980469 -67.238281 47.519531 -67.378906 C 44.046875 -67.523438 40.355469 -67.628906 36.449219 -67.699219 C 32.554688 -67.769531 28.675781 -67.78125 24.804688 -67.734375 C 20.921875 -67.6875 17.292969 -67.605469 13.914062 -67.488281 C 10.589844 -67.371094 7.777344 -67.199219 5.480469 -66.96875 L 5.078125 -70.972656 L 9.074219 -70.496094 C 8.847656 -68.578125 8.652344 -66.15625 8.488281 -63.238281 C 8.324219 -60.261719 8.183594 -57.023438 8.066406 -53.523438 C 7.945312 -50.011719 7.851562 -46.441406 7.78125 -42.8125 C 7.707031 -39.191406 7.671875 -35.6875 7.671875 -32.300781 C 7.671875 -28.914062 7.695312 -25.863281 7.746094 -23.144531 C 7.792969 -20.457031 7.859375 -18.328125 7.953125 -16.761719 Z M 7.953125 -16.761719 "/></g></g></g><g fill="#3d4a43" fill-opacity="1"><g transform="translate(727.629102, 94.267722)"><g><path d="M 54.34375 -43.703125 C 58.535156 -41.113281 61.667969 -38.050781 63.746094 -34.523438 C 65.824219 -30.992188 66.949219 -27.292969 67.125 -23.433594 C 67.289062 -19.691406 66.730469 -16.089844 65.445312 -12.621094 C 64.164062 -9.175781 62.3125 -6.125 59.882812 -3.46875 C 57.402344 -0.761719 54.550781 1.253906 51.324219 2.578125 C 49.152344 3.445312 46.554688 4.167969 43.535156 4.742188 C 40.570312 5.304688 37.363281 5.648438 33.917969 5.773438 C 30.445312 5.902344 26.894531 5.722656 23.257812 5.242188 C 19.542969 4.75 15.957031 3.851562 12.5 2.550781 C 8.917969 1.203125 5.667969 -0.65625 2.753906 -3.03125 L 2.402344 -3.316406 L 2.125 -3.671875 C 0.289062 -6.015625 -0.808594 -8.582031 -1.167969 -11.367188 C -1.507812 -14.050781 -1.242188 -16.636719 -0.359375 -19.125 C 0.527344 -21.625 1.914062 -23.757812 3.800781 -25.515625 C 5.808594 -27.386719 8.195312 -28.542969 10.960938 -28.980469 C 13.753906 -29.421875 16.699219 -28.886719 19.800781 -27.367188 C 22.875 -25.851562 25.742188 -24.828125 28.398438 -24.300781 C 30.847656 -23.816406 32.792969 -23.738281 34.242188 -24.066406 C 34.648438 -24.15625 34.910156 -24.25 35.03125 -24.34375 C 34.925781 -24.261719 34.855469 -24.148438 34.816406 -24.003906 C 34.832031 -24.058594 34.839844 -24.089844 34.839844 -24.105469 C 34.835938 -24.050781 34.847656 -23.992188 34.863281 -23.921875 C 34.902344 -23.777344 34.945312 -23.679688 35 -23.628906 C 35.015625 -23.613281 35.027344 -23.605469 35.03125 -23.601562 C 35.015625 -23.613281 34.992188 -23.625 34.960938 -23.644531 C 34.832031 -23.710938 34.664062 -23.777344 34.449219 -23.84375 C 33.828125 -24.039062 33.003906 -24.171875 31.980469 -24.246094 C 28.808594 -24.503906 25.652344 -25.046875 22.515625 -25.871094 C 19.261719 -26.722656 16.214844 -27.96875 13.375 -29.601562 C 10.359375 -31.335938 7.8125 -33.609375 5.738281 -36.425781 C 3.621094 -39.296875 2.222656 -42.71875 1.542969 -46.683594 C 1.292969 -48.242188 1.265625 -50.066406 1.46875 -52.148438 C 1.664062 -54.214844 2.164062 -56.382812 2.964844 -58.648438 C 3.792969 -60.980469 5.027344 -63.261719 6.671875 -65.492188 C 8.351562 -67.773438 10.554688 -69.832031 13.277344 -71.664062 C 15.988281 -73.492188 19.28125 -74.914062 23.15625 -75.9375 C 25.773438 -76.671875 28.5625 -77.128906 31.515625 -77.316406 C 34.390625 -77.496094 37.253906 -77.457031 40.105469 -77.199219 C 43.011719 -76.9375 45.734375 -76.4375 48.273438 -75.695312 C 50.949219 -74.914062 53.21875 -73.914062 55.078125 -72.691406 C 58.097656 -70.660156 60.308594 -68.4375 61.714844 -66.023438 C 63.1875 -63.496094 63.90625 -60.945312 63.871094 -58.363281 C 63.839844 -55.871094 63.238281 -53.535156 62.070312 -51.359375 C 60.957031 -49.289062 59.496094 -47.519531 57.695312 -46.058594 C 55.828125 -44.546875 53.753906 -43.53125 51.480469 -43.011719 L 49.042969 -42.453125 L 47.460938 -44.390625 C 46.773438 -45.238281 45.765625 -45.996094 44.433594 -46.671875 C 42.882812 -47.457031 41.203125 -48.0625 39.390625 -48.488281 C 37.589844 -48.914062 35.898438 -49.117188 34.320312 -49.097656 C 33.015625 -49.082031 32.027344 -48.910156 31.355469 -48.578125 C 31.332031 -48.566406 31.316406 -48.558594 31.304688 -48.550781 C 31.3125 -48.554688 31.320312 -48.5625 31.332031 -48.570312 C 31.394531 -48.625 31.457031 -48.691406 31.511719 -48.773438 C 31.636719 -48.957031 31.703125 -49.125 31.710938 -49.28125 L 27.6875 -49.4375 L 31.710938 -49.4375 C 31.710938 -49.722656 31.640625 -50 31.496094 -50.269531 C 31.382812 -50.488281 31.25 -50.652344 31.105469 -50.761719 C 31.039062 -50.808594 30.992188 -50.839844 30.96875 -50.851562 C 31.039062 -50.820312 31.136719 -50.785156 31.269531 -50.746094 C 31.683594 -50.621094 32.242188 -50.515625 32.933594 -50.421875 C 38.5 -49.714844 43.109375 -48.644531 46.757812 -47.210938 C 50.332031 -45.804688 52.871094 -44.632812 54.371094 -43.6875 Z M 50.082031 -36.875 C 49.007812 -37.550781 46.921875 -38.5 43.816406 -39.71875 C 40.789062 -40.90625 36.8125 -41.816406 31.886719 -42.441406 C 29.375 -42.773438 27.503906 -43.398438 26.273438 -44.320312 C 25.460938 -44.933594 24.828125 -45.664062 24.378906 -46.511719 C 23.902344 -47.414062 23.664062 -48.390625 23.664062 -49.4375 L 23.664062 -49.515625 L 23.667969 -49.59375 C 23.71875 -50.988281 24.125 -52.238281 24.882812 -53.339844 C 25.597656 -54.375 26.574219 -55.199219 27.8125 -55.804688 C 29.570312 -56.667969 31.707031 -57.113281 34.21875 -57.144531 C 36.457031 -57.175781 38.796875 -56.898438 41.238281 -56.324219 C 43.671875 -55.75 45.949219 -54.925781 48.074219 -53.851562 C 50.417969 -52.664062 52.292969 -51.203125 53.703125 -49.476562 L 50.582031 -46.933594 L 49.683594 -50.855469 C 50.746094 -51.101562 51.726562 -51.585938 52.628906 -52.3125 C 53.589844 -53.09375 54.375 -54.046875 54.980469 -55.171875 C 55.527344 -56.191406 55.808594 -57.289062 55.824219 -58.46875 C 55.835938 -59.5625 55.484375 -60.730469 54.757812 -61.972656 C 53.972656 -63.324219 52.605469 -64.652344 50.664062 -65.960938 C 49.472656 -66.742188 47.925781 -67.414062 46.019531 -67.96875 C 43.980469 -68.5625 41.769531 -68.96875 39.382812 -69.183594 C 36.9375 -69.402344 34.484375 -69.433594 32.015625 -69.28125 C 29.628906 -69.132812 27.359375 -68.757812 25.210938 -68.15625 C 22.214844 -67.363281 19.734375 -66.308594 17.773438 -64.988281 C 15.820312 -63.671875 14.28125 -62.25 13.148438 -60.714844 C 11.976562 -59.128906 11.113281 -57.542969 10.554688 -55.964844 C 9.972656 -54.320312 9.613281 -52.792969 9.480469 -51.378906 C 9.34375 -49.980469 9.34375 -48.867188 9.476562 -48.042969 C 9.941406 -45.332031 10.855469 -43.050781 12.21875 -41.203125 C 13.625 -39.292969 15.347656 -37.753906 17.390625 -36.578125 C 19.605469 -35.300781 21.996094 -34.328125 24.558594 -33.65625 C 27.242188 -32.953125 29.90625 -32.492188 32.554688 -32.273438 C 36.1875 -32.015625 38.851562 -31.074219 40.550781 -29.457031 C 41.605469 -28.453125 42.308594 -27.28125 42.65625 -25.945312 C 42.988281 -24.667969 42.96875 -23.328125 42.59375 -21.929688 C 42.175781 -20.351562 41.316406 -19.050781 40.019531 -18.027344 C 38.945312 -17.179688 37.613281 -16.574219 36.015625 -16.214844 C 33.457031 -15.636719 30.398438 -15.699219 26.832031 -16.40625 C 23.480469 -17.070312 19.957031 -18.316406 16.257812 -20.136719 C 14.683594 -20.910156 13.335938 -21.207031 12.21875 -21.03125 C 11.074219 -20.847656 10.097656 -20.382812 9.289062 -19.628906 C 8.363281 -18.765625 7.675781 -17.699219 7.226562 -16.433594 C 6.773438 -15.152344 6.636719 -13.804688 6.816406 -12.386719 C 6.988281 -11.070312 7.535156 -9.820312 8.460938 -8.636719 L 5.292969 -6.152344 L 7.835938 -9.273438 C 10.070312 -7.453125 12.570312 -6.023438 15.332031 -4.984375 C 18.214844 -3.898438 21.210938 -3.148438 24.320312 -2.738281 C 27.503906 -2.3125 30.605469 -2.15625 33.621094 -2.269531 C 36.664062 -2.378906 39.464844 -2.679688 42.035156 -3.167969 C 44.546875 -3.644531 46.621094 -4.210938 48.265625 -4.867188 C 50.382812 -5.738281 52.277344 -7.082031 53.945312 -8.90625 C 55.667969 -10.785156 56.984375 -12.957031 57.898438 -15.421875 C 58.804688 -17.871094 59.199219 -20.417969 59.082031 -23.070312 C 58.96875 -25.601562 58.210938 -28.058594 56.808594 -30.441406 C 55.402344 -32.824219 53.171875 -34.964844 50.109375 -36.855469 Z M 50.082031 -36.875 "/></g></g></g><g fill="#3d4a43" fill-opacity="1"><g transform="translate(795.018823, 94.267722)"><g><path d="M 67.519531 -73.839844 C 68.601562 -72.421875 69.464844 -70.523438 70.101562 -68.15625 C 70.703125 -65.921875 70.972656 -63.53125 70.917969 -60.976562 C 70.859375 -58.285156 70.296875 -55.699219 69.234375 -53.21875 C 68.085938 -50.542969 66.277344 -48.296875 63.804688 -46.480469 C 61.28125 -44.628906 58.027344 -43.582031 54.042969 -43.34375 C 52.808594 -43.296875 51.804688 -43.238281 51.035156 -43.175781 C 50.085938 -43.09375 49.457031 -43.050781 49.152344 -43.050781 L 49.152344 -47.078125 L 53.171875 -47.21875 C 53.269531 -44.511719 53.332031 -41.539062 53.355469 -38.304688 C 53.378906 -35.082031 53.367188 -31.761719 53.320312 -28.347656 C 53.269531 -24.917969 53.175781 -21.574219 53.027344 -18.316406 C 52.882812 -15.0625 52.714844 -12.027344 52.523438 -9.207031 C 52.324219 -6.3125 52.074219 -3.835938 51.773438 -1.777344 L 51.597656 -0.582031 L 50.792969 0.320312 C 49.105469 2.207031 46.992188 3.550781 44.445312 4.34375 C 42.054688 5.089844 39.53125 5.292969 36.878906 4.957031 C 34.21875 4.621094 31.664062 3.691406 29.210938 2.164062 C 26.777344 0.652344 24.648438 -1.433594 22.828125 -4.09375 C 21.007812 -6.753906 19.734375 -10.035156 19.007812 -13.933594 C 18.789062 -15.085938 18.601562 -16.851562 18.449219 -19.238281 C 18.304688 -21.488281 18.171875 -24.121094 18.050781 -27.132812 C 17.929688 -30.148438 17.84375 -33.378906 17.796875 -36.824219 C 17.75 -40.273438 17.75 -43.734375 17.796875 -47.203125 L 21.820312 -47.148438 L 22.140625 -43.136719 C 19.636719 -42.9375 17.0625 -42.847656 14.414062 -42.875 C 11.628906 -42.898438 8.941406 -43.175781 6.351562 -43.707031 L 4.867188 -44.007812 L 3.949219 -45.214844 C 2.691406 -46.867188 1.785156 -48.921875 1.226562 -51.371094 C 0.703125 -53.667969 0.554688 -56.078125 0.785156 -58.601562 C 1.019531 -61.175781 1.691406 -63.632812 2.804688 -65.972656 C 4.007812 -68.507812 5.773438 -70.609375 8.101562 -72.277344 C 10.484375 -73.984375 13.414062 -74.957031 16.890625 -75.203125 C 18.492188 -75.300781 20.578125 -75.378906 23.140625 -75.425781 C 25.667969 -75.472656 28.484375 -75.5 31.585938 -75.5 L 41.066406 -75.5 L 50.492188 -75.460938 L 58.683594 -75.425781 L 66.3125 -75.425781 Z M 61.117188 -68.960938 L 64.320312 -71.402344 L 64.320312 -67.378906 L 58.648438 -67.378906 L 50.460938 -67.414062 L 41.066406 -67.449219 L 31.585938 -67.449219 C 28.535156 -67.449219 25.773438 -67.425781 23.292969 -67.378906 C 20.847656 -67.332031 18.898438 -67.261719 17.453125 -67.171875 C 15.492188 -67.035156 13.9375 -66.554688 12.789062 -65.734375 C 11.589844 -64.871094 10.683594 -63.800781 10.074219 -62.519531 C 9.375 -61.042969 8.949219 -59.496094 8.800781 -57.875 C 8.648438 -56.199219 8.742188 -54.625 9.074219 -53.15625 C 9.375 -51.839844 9.804688 -50.816406 10.359375 -50.085938 L 7.15625 -47.648438 L 7.960938 -51.59375 C 10.042969 -51.167969 12.21875 -50.945312 14.488281 -50.921875 C 16.898438 -50.898438 19.234375 -50.980469 21.5 -51.160156 L 25.90625 -51.511719 L 25.84375 -47.09375 C 25.796875 -43.695312 25.796875 -40.3125 25.84375 -36.9375 C 25.894531 -33.5625 25.976562 -30.402344 26.09375 -27.457031 C 26.210938 -24.507812 26.339844 -21.941406 26.480469 -19.753906 C 26.613281 -17.703125 26.761719 -16.253906 26.921875 -15.402344 C 27.4375 -12.621094 28.289062 -10.367188 29.46875 -8.640625 C 30.65625 -6.914062 31.984375 -5.589844 33.460938 -4.667969 C 34.917969 -3.761719 36.394531 -3.214844 37.886719 -3.027344 C 39.382812 -2.835938 40.773438 -2.941406 42.050781 -3.339844 C 43.179688 -3.691406 44.09375 -4.257812 44.789062 -5.042969 L 47.792969 -2.359375 L 43.808594 -2.945312 C 44.082031 -4.796875 44.308594 -7.066406 44.492188 -9.753906 C 44.679688 -12.511719 44.847656 -15.484375 44.988281 -18.671875 C 45.128906 -21.851562 45.222656 -25.113281 45.269531 -28.460938 C 45.316406 -31.816406 45.328125 -35.078125 45.304688 -38.246094 C 45.28125 -41.402344 45.222656 -44.300781 45.128906 -46.933594 L 44.980469 -51.101562 L 49.152344 -51.101562 C 49.226562 -51.101562 49.625 -51.132812 50.347656 -51.195312 C 51.242188 -51.269531 52.316406 -51.332031 53.5625 -51.378906 C 55.96875 -51.523438 57.792969 -52.054688 59.039062 -52.96875 C 60.332031 -53.917969 61.265625 -55.058594 61.835938 -56.390625 C 62.488281 -57.914062 62.835938 -59.5 62.871094 -61.152344 C 62.910156 -62.9375 62.730469 -64.574219 62.328125 -66.0625 C 61.964844 -67.414062 61.5625 -68.378906 61.117188 -68.960938 Z M 61.117188 -68.960938 "/></g></g></g><g fill="#6ba39a" fill-opacity="1"><g transform="translate(34.63097, 94.267722)"><g><path d="M 47.71875 -0.21875 C 45.1875 -0.0703125 42.617188 0.0078125 40.015625 0.03125 C 37.421875 0.0625 35.023438 0.0507812 32.828125 0 C 30.640625 -0.0507812 28.878906 -0.0976562 27.546875 -0.140625 C 26.210938 -0.191406 25.546875 -0.21875 25.546875 -0.21875 C 23.679688 -0.21875 21.640625 -0.367188 19.421875 -0.671875 C 17.203125 -0.984375 15.039062 -1.664062 12.9375 -2.71875 C 10.84375 -3.769531 9.019531 -5.332031 7.46875 -7.40625 C 5.925781 -9.476562 4.890625 -12.253906 4.359375 -15.734375 C 4.078125 -17.742188 3.816406 -20.273438 3.578125 -23.328125 C 3.335938 -26.378906 3.15625 -29.75 3.03125 -33.4375 C 2.914062 -37.132812 2.878906 -40.988281 2.921875 -45 C 2.972656 -49.007812 3.128906 -52.992188 3.390625 -56.953125 C 3.660156 -60.910156 4.082031 -64.648438 4.65625 -68.171875 C 5.988281 -69.367188 7.628906 -70.289062 9.578125 -70.9375 C 11.535156 -71.582031 13.613281 -71.851562 15.8125 -71.75 C 18.007812 -71.65625 20.109375 -71.082031 22.109375 -70.03125 C 24.109375 -68.988281 25.820312 -67.394531 27.25 -65.25 C 28.6875 -63.101562 29.59375 -60.265625 29.96875 -56.734375 C 30.207031 -54.628906 30.375 -52.207031 30.46875 -49.46875 C 30.570312 -46.726562 30.644531 -43.878906 30.6875 -40.921875 C 30.738281 -37.960938 30.75 -35.085938 30.71875 -32.296875 C 30.695312 -29.503906 30.640625 -26.988281 30.546875 -24.75 C 32.171875 -24.894531 34.148438 -24.976562 36.484375 -25 C 38.816406 -25.03125 41.332031 -25.019531 44.03125 -24.96875 C 46.726562 -24.914062 49.457031 -24.796875 52.21875 -24.609375 C 54.988281 -24.421875 57.640625 -24.179688 60.171875 -23.890625 C 61.597656 -21.171875 62.238281 -18.453125 62.09375 -15.734375 C 61.957031 -13.015625 61.21875 -10.507812 59.875 -8.21875 C 58.539062 -5.9375 56.8125 -4.066406 54.6875 -2.609375 C 52.570312 -1.148438 50.25 -0.351562 47.71875 -0.21875 Z M 47.71875 -0.21875 "/></g></g></g><g fill="#6ba39a" fill-opacity="1"><g transform="translate(99.373753, 94.267722)"><g><path d="M 73.046875 -24.328125 C 72.515625 -19.742188 71.175781 -15.804688 69.03125 -12.515625 C 66.882812 -9.222656 64.210938 -6.503906 61.015625 -4.359375 C 57.828125 -2.210938 54.375 -0.628906 50.65625 0.390625 C 46.9375 1.421875 43.210938 1.9375 39.484375 1.9375 C 36.484375 1.9375 33.46875 1.769531 30.4375 1.4375 C 27.40625 1.101562 24.484375 0.4375 21.671875 -0.5625 C 18.859375 -1.570312 16.269531 -3.03125 13.90625 -4.9375 C 11.550781 -6.84375 9.5625 -9.34375 7.9375 -12.4375 C 6.320312 -15.539062 5.203125 -19.40625 4.578125 -24.03125 C 3.960938 -28.375 3.664062 -33.097656 3.6875 -38.203125 C 3.707031 -43.304688 3.929688 -48.515625 4.359375 -53.828125 C 4.796875 -59.148438 5.347656 -64.269531 6.015625 -69.1875 C 6.535156 -69.757812 7.488281 -70.28125 8.875 -70.75 C 10.257812 -71.226562 11.890625 -71.585938 13.765625 -71.828125 C 15.648438 -72.066406 17.601562 -72.101562 19.625 -71.9375 C 21.65625 -71.769531 23.566406 -71.328125 25.359375 -70.609375 C 27.148438 -69.890625 28.664062 -68.863281 29.90625 -67.53125 C 31.144531 -66.195312 31.90625 -64.429688 32.1875 -62.234375 C 32.289062 -61.472656 32.351562 -60.007812 32.375 -57.84375 C 32.394531 -55.675781 32.40625 -53.097656 32.40625 -50.109375 C 32.40625 -47.128906 32.441406 -44.003906 32.515625 -40.734375 C 32.585938 -37.472656 32.707031 -34.363281 32.875 -31.40625 C 33.039062 -28.445312 33.289062 -25.941406 33.625 -23.890625 C 33.90625 -22.316406 34.554688 -21.078125 35.578125 -20.171875 C 36.609375 -19.265625 37.769531 -18.773438 39.0625 -18.703125 C 40.351562 -18.628906 41.546875 -19.035156 42.640625 -19.921875 C 43.734375 -20.804688 44.472656 -22.226562 44.859375 -24.1875 C 45.191406 -25.894531 45.488281 -28.132812 45.75 -30.90625 C 46.007812 -33.675781 46.210938 -36.703125 46.359375 -39.984375 C 46.503906 -43.273438 46.5625 -46.613281 46.53125 -50 C 46.507812 -53.394531 46.398438 -56.601562 46.203125 -59.625 C 46.015625 -62.65625 45.707031 -65.242188 45.28125 -67.390625 C 46.238281 -68.347656 47.539062 -69.171875 49.1875 -69.859375 C 50.832031 -70.546875 52.679688 -71.019531 54.734375 -71.28125 C 56.785156 -71.550781 58.847656 -71.53125 60.921875 -71.21875 C 62.992188 -70.90625 64.9375 -70.234375 66.75 -69.203125 C 68.5625 -68.179688 70.070312 -66.71875 71.28125 -64.8125 C 72.5 -62.90625 73.253906 -60.5 73.546875 -57.59375 C 73.734375 -55.632812 73.910156 -53.851562 74.078125 -52.25 C 74.242188 -50.65625 74.363281 -49.035156 74.4375 -47.390625 C 74.507812 -45.742188 74.519531 -43.894531 74.46875 -41.84375 C 74.425781 -39.800781 74.296875 -37.367188 74.078125 -34.546875 C 73.867188 -31.734375 73.523438 -28.328125 73.046875 -24.328125 Z M 73.046875 -24.328125 "/></g></g></g><g fill="#6ba39a" fill-opacity="1"><g transform="translate(177.56586, 94.267722)"><g><path d="M 46.640625 -40.203125 C 46.640625 -43.453125 46.640625 -46.484375 46.640625 -49.296875 C 46.640625 -52.109375 46.640625 -54.929688 46.640625 -57.765625 C 46.640625 -60.609375 46.640625 -63.675781 46.640625 -66.96875 C 48.410156 -69.0625 50.414062 -70.546875 52.65625 -71.421875 C 54.894531 -72.304688 57.179688 -72.640625 59.515625 -72.421875 C 61.859375 -72.210938 64.003906 -71.5625 65.953125 -70.46875 C 67.910156 -69.375 69.5 -67.894531 70.71875 -66.03125 C 71.9375 -64.175781 72.546875 -62.03125 72.546875 -59.59375 C 72.546875 -58.164062 72.554688 -56.125 72.578125 -53.46875 C 72.597656 -50.820312 72.617188 -47.804688 72.640625 -44.421875 C 72.671875 -41.035156 72.695312 -37.457031 72.71875 -33.6875 C 72.738281 -29.925781 72.738281 -26.195312 72.71875 -22.5 C 72.695312 -18.800781 72.640625 -15.316406 72.546875 -12.046875 C 72.453125 -8.785156 72.304688 -5.9375 72.109375 -3.5 C 70.585938 -1.976562 68.570312 -0.800781 66.0625 0.03125 C 63.5625 0.863281 60.84375 1.195312 57.90625 1.03125 C 54.976562 0.863281 52.09375 0.078125 49.25 -1.328125 C 46.414062 -2.734375 43.898438 -4.9375 41.703125 -7.9375 C 40.703125 -9.320312 39.664062 -10.882812 38.59375 -12.625 C 37.519531 -14.363281 36.492188 -16.101562 35.515625 -17.84375 C 34.535156 -19.582031 33.664062 -21.15625 32.90625 -22.5625 C 32.144531 -23.976562 31.550781 -24.992188 31.125 -25.609375 C 31.03125 -25.847656 30.898438 -26.0625 30.734375 -26.25 C 30.566406 -26.445312 30.410156 -26.640625 30.265625 -26.828125 C 30.210938 -26.828125 30.140625 -26.8125 30.046875 -26.78125 C 29.953125 -26.757812 29.859375 -26.75 29.765625 -26.75 C 29.804688 -24.601562 29.875 -22.632812 29.96875 -20.84375 C 30.070312 -19.0625 30.171875 -17.300781 30.265625 -15.5625 C 30.359375 -13.820312 30.414062 -11.960938 30.4375 -9.984375 C 30.46875 -8.003906 30.457031 -5.722656 30.40625 -3.140625 C 28.070312 -1.234375 25.6875 0.0234375 23.25 0.640625 C 20.820312 1.265625 18.5 1.394531 16.28125 1.03125 C 14.0625 0.675781 12.066406 -0.046875 10.296875 -1.140625 C 8.535156 -2.242188 7.128906 -3.566406 6.078125 -5.109375 C 5.023438 -6.660156 4.476562 -8.296875 4.4375 -10.015625 C 4.34375 -12.972656 4.257812 -16.226562 4.1875 -19.78125 C 4.113281 -23.332031 4.050781 -27.023438 4 -30.859375 C 3.957031 -34.703125 3.9375 -38.484375 3.9375 -42.203125 C 3.9375 -45.929688 3.945312 -49.453125 3.96875 -52.765625 C 3.988281 -56.078125 4.046875 -59.007812 4.140625 -61.5625 C 4.242188 -64.113281 4.363281 -66.082031 4.5 -67.46875 C 6.21875 -68.894531 8.328125 -70.035156 10.828125 -70.890625 C 13.335938 -71.753906 15.960938 -72.148438 18.703125 -72.078125 C 21.453125 -72.003906 24.078125 -71.300781 26.578125 -69.96875 C 29.078125 -68.632812 31.1875 -66.535156 32.90625 -63.671875 C 34.144531 -61.578125 35.253906 -59.671875 36.234375 -57.953125 C 37.210938 -56.234375 38.164062 -54.550781 39.09375 -52.90625 C 40.03125 -51.257812 41 -49.539062 42 -47.75 C 43 -45.96875 44.140625 -43.929688 45.421875 -41.640625 C 45.566406 -41.347656 45.722656 -41.070312 45.890625 -40.8125 C 46.054688 -40.550781 46.210938 -40.300781 46.359375 -40.0625 C 46.410156 -40.113281 46.457031 -40.140625 46.5 -40.140625 C 46.550781 -40.140625 46.597656 -40.160156 46.640625 -40.203125 Z M 46.640625 -40.203125 "/></g></g></g><g fill="#6ba39a" fill-opacity="1"><g transform="translate(254.756416, 94.267722)"><g><path d="M 1.078125 -21.609375 C 1.648438 -24.460938 2.398438 -27.664062 3.328125 -31.21875 C 4.253906 -34.78125 5.300781 -38.429688 6.46875 -42.171875 C 7.644531 -45.921875 8.835938 -49.546875 10.046875 -53.046875 C 11.265625 -56.554688 12.457031 -59.765625 13.625 -62.671875 C 14.789062 -65.578125 15.828125 -67.914062 16.734375 -69.6875 C 18.691406 -70.351562 21.03125 -70.972656 23.75 -71.546875 C 26.46875 -72.117188 29.351562 -72.4375 32.40625 -72.5 C 35.457031 -72.570312 38.484375 -72.179688 41.484375 -71.328125 C 44.492188 -70.472656 47.257812 -68.945312 49.78125 -66.75 C 52.3125 -64.550781 54.390625 -61.472656 56.015625 -57.515625 C 56.773438 -55.609375 57.65625 -53.164062 58.65625 -50.1875 C 59.664062 -47.207031 60.71875 -43.90625 61.8125 -40.28125 C 62.90625 -36.65625 63.976562 -32.921875 65.03125 -29.078125 C 66.082031 -25.242188 67.046875 -21.5 67.921875 -17.84375 C 68.804688 -14.195312 69.515625 -10.875 70.046875 -7.875 C 69.898438 -6.582031 69.226562 -5.300781 68.03125 -4.03125 C 66.84375 -2.769531 65.328125 -1.695312 63.484375 -0.8125 C 61.648438 0.0625 59.671875 0.640625 57.546875 0.921875 C 55.429688 1.210938 53.320312 1.046875 51.21875 0.421875 C 49.125 -0.191406 47.226562 -1.40625 45.53125 -3.21875 C 43.84375 -5.03125 42.519531 -7.554688 41.5625 -10.796875 C 39.320312 -10.898438 36.984375 -10.925781 34.546875 -10.875 C 32.117188 -10.820312 29.757812 -10.820312 27.46875 -10.875 C 26.851562 -9.394531 26.269531 -7.769531 25.71875 -6 C 25.164062 -4.238281 24.628906 -2.429688 24.109375 -0.578125 C 19.722656 1.046875 15.90625 1.628906 12.65625 1.171875 C 9.414062 0.722656 6.804688 -0.523438 4.828125 -2.578125 C 2.847656 -4.628906 1.535156 -7.300781 0.890625 -10.59375 C 0.242188 -13.882812 0.304688 -17.554688 1.078125 -21.609375 Z M 30.265625 -31.328125 C 31.785156 -31.328125 33.257812 -31.328125 34.6875 -31.328125 C 36.125 -31.328125 37.582031 -31.328125 39.0625 -31.328125 C 38.394531 -34.242188 37.703125 -37.117188 36.984375 -39.953125 C 36.265625 -42.796875 35.570312 -45.644531 34.90625 -48.5 C 34.769531 -48.457031 34.554688 -48.4375 34.265625 -48.4375 C 33.648438 -45.625 32.992188 -42.804688 32.296875 -39.984375 C 31.609375 -37.171875 30.929688 -34.285156 30.265625 -31.328125 Z M 30.265625 -31.328125 "/></g></g></g><g fill="#6ba39a" fill-opacity="1"><g transform="translate(325.794627, 94.267722)"><g><path d="M 55.875 -26.609375 C 56.726562 -25.847656 57.75 -24.664062 58.9375 -23.0625 C 60.132812 -21.46875 61.351562 -19.726562 62.59375 -17.84375 C 63.832031 -15.96875 64.953125 -14.171875 65.953125 -12.453125 C 66.960938 -10.734375 67.65625 -9.328125 68.03125 -8.234375 C 67.5625 -5.742188 66.585938 -3.6875 65.109375 -2.0625 C 63.628906 -0.445312 61.835938 0.679688 59.734375 1.328125 C 57.640625 1.972656 55.421875 2.101562 53.078125 1.71875 C 50.742188 1.332031 48.457031 0.378906 46.21875 -1.140625 C 43.976562 -2.671875 42.019531 -4.816406 40.34375 -7.578125 C 39.769531 -8.535156 39.113281 -9.570312 38.375 -10.6875 C 37.632812 -11.8125 36.773438 -13.148438 35.796875 -14.703125 C 34.828125 -16.253906 33.601562 -18.171875 32.125 -20.453125 C 31.9375 -20.742188 31.742188 -21.03125 31.546875 -21.3125 C 31.359375 -21.601562 31.171875 -21.867188 30.984375 -22.109375 C 30.785156 -22.015625 30.617188 -21.96875 30.484375 -21.96875 C 30.484375 -21.34375 30.46875 -20.660156 30.4375 -19.921875 C 30.414062 -19.179688 30.378906 -18.429688 30.328125 -17.671875 C 30.191406 -14.765625 30.015625 -11.851562 29.796875 -8.9375 C 29.578125 -6.03125 29.351562 -3.695312 29.125 -1.9375 C 27.925781 -0.644531 26.40625 0.285156 24.5625 0.859375 C 22.726562 1.429688 20.773438 1.585938 18.703125 1.328125 C 16.628906 1.066406 14.613281 0.351562 12.65625 -0.8125 C 10.707031 -1.988281 8.992188 -3.648438 7.515625 -5.796875 C 6.035156 -7.941406 4.984375 -10.632812 4.359375 -13.875 C 4.171875 -14.78125 4.003906 -16.257812 3.859375 -18.3125 C 3.722656 -20.363281 3.59375 -22.796875 3.46875 -25.609375 C 3.351562 -28.421875 3.269531 -31.425781 3.21875 -34.625 C 3.164062 -37.820312 3.148438 -41.039062 3.171875 -44.28125 C 3.203125 -47.53125 3.265625 -50.617188 3.359375 -53.546875 C 3.453125 -56.484375 3.609375 -59.09375 3.828125 -61.375 C 4.046875 -63.664062 4.320312 -65.429688 4.65625 -66.671875 C 5.695312 -67.671875 7.328125 -68.613281 9.546875 -69.5 C 11.765625 -70.382812 14.363281 -71.125 17.34375 -71.71875 C 20.320312 -72.3125 23.515625 -72.726562 26.921875 -72.96875 C 30.335938 -73.207031 33.773438 -73.195312 37.234375 -72.9375 C 40.691406 -72.675781 43.984375 -72.113281 47.109375 -71.25 C 50.234375 -70.394531 52.988281 -69.15625 55.375 -67.53125 C 57.664062 -66.007812 59.703125 -64.039062 61.484375 -61.625 C 63.273438 -59.21875 64.671875 -56.546875 65.671875 -53.609375 C 66.671875 -50.679688 67.109375 -47.664062 66.984375 -44.5625 C 66.867188 -41.46875 66.046875 -38.453125 64.515625 -35.515625 C 62.992188 -32.585938 60.613281 -29.929688 57.375 -27.546875 C 57.039062 -27.253906 56.539062 -26.941406 55.875 -26.609375 Z M 41 -44.921875 C 41 -46.066406 40.59375 -47.054688 39.78125 -47.890625 C 38.96875 -48.734375 37.859375 -49.25 36.453125 -49.4375 C 35.046875 -49.625 33.4375 -49.289062 31.625 -48.4375 C 31.625 -46.957031 31.609375 -45.785156 31.578125 -44.921875 C 31.554688 -44.066406 31.570312 -43.019531 31.625 -41.78125 C 31.625 -41.632812 31.726562 -41.453125 31.9375 -41.234375 C 32.15625 -41.023438 32.335938 -40.921875 32.484375 -40.921875 C 33.390625 -40.921875 34.28125 -40.921875 35.15625 -40.921875 C 36.039062 -40.921875 36.914062 -41.015625 37.78125 -41.203125 C 39.925781 -41.535156 41 -42.773438 41 -44.921875 Z M 41 -44.921875 "/></g></g></g><g fill="#6ba39a" fill-opacity="1"><g transform="translate(397.118988, 94.267722)"><g><path d="M 1.078125 -21.609375 C 1.648438 -24.460938 2.398438 -27.664062 3.328125 -31.21875 C 4.253906 -34.78125 5.300781 -38.429688 6.46875 -42.171875 C 7.644531 -45.921875 8.835938 -49.546875 10.046875 -53.046875 C 11.265625 -56.554688 12.457031 -59.765625 13.625 -62.671875 C 14.789062 -65.578125 15.828125 -67.914062 16.734375 -69.6875 C 18.691406 -70.351562 21.03125 -70.972656 23.75 -71.546875 C 26.46875 -72.117188 29.351562 -72.4375 32.40625 -72.5 C 35.457031 -72.570312 38.484375 -72.179688 41.484375 -71.328125 C 44.492188 -70.472656 47.257812 -68.945312 49.78125 -66.75 C 52.3125 -64.550781 54.390625 -61.472656 56.015625 -57.515625 C 56.773438 -55.609375 57.65625 -53.164062 58.65625 -50.1875 C 59.664062 -47.207031 60.71875 -43.90625 61.8125 -40.28125 C 62.90625 -36.65625 63.976562 -32.921875 65.03125 -29.078125 C 66.082031 -25.242188 67.046875 -21.5 67.921875 -17.84375 C 68.804688 -14.195312 69.515625 -10.875 70.046875 -7.875 C 69.898438 -6.582031 69.226562 -5.300781 68.03125 -4.03125 C 66.84375 -2.769531 65.328125 -1.695312 63.484375 -0.8125 C 61.648438 0.0625 59.671875 0.640625 57.546875 0.921875 C 55.429688 1.210938 53.320312 1.046875 51.21875 0.421875 C 49.125 -0.191406 47.226562 -1.40625 45.53125 -3.21875 C 43.84375 -5.03125 42.519531 -7.554688 41.5625 -10.796875 C 39.320312 -10.898438 36.984375 -10.925781 34.546875 -10.875 C 32.117188 -10.820312 29.757812 -10.820312 27.46875 -10.875 C 26.851562 -9.394531 26.269531 -7.769531 25.71875 -6 C 25.164062 -4.238281 24.628906 -2.429688 24.109375 -0.578125 C 19.722656 1.046875 15.90625 1.628906 12.65625 1.171875 C 9.414062 0.722656 6.804688 -0.523438 4.828125 -2.578125 C 2.847656 -4.628906 1.535156 -7.300781 0.890625 -10.59375 C 0.242188 -13.882812 0.304688 -17.554688 1.078125 -21.609375 Z M 30.265625 -31.328125 C 31.785156 -31.328125 33.257812 -31.328125 34.6875 -31.328125 C 36.125 -31.328125 37.582031 -31.328125 39.0625 -31.328125 C 38.394531 -34.242188 37.703125 -37.117188 36.984375 -39.953125 C 36.265625 -42.796875 35.570312 -45.644531 34.90625 -48.5 C 34.769531 -48.457031 34.554688 -48.4375 34.265625 -48.4375 C 33.648438 -45.625 32.992188 -42.804688 32.296875 -39.984375 C 31.609375 -37.171875 30.929688 -34.285156 30.265625 -31.328125 Z M 30.265625 -31.328125 "/></g></g></g><g fill="#6ba39a" fill-opacity="1"><g transform="translate(468.157222, 94.267722)"><g/></g></g><g fill="#6ba39a" fill-opacity="1"><g transform="translate(504.212839, 94.267722)"><g><path d="M 80.5625 -10.875 C 81.363281 -9.820312 81.738281 -8.445312 81.6875 -6.75 C 81.644531 -5.0625 81.253906 -3.300781 80.515625 -1.46875 C 79.773438 0.363281 78.757812 2.078125 77.46875 3.671875 C 76.1875 5.273438 74.6875 6.566406 72.96875 7.546875 C 71.25 8.523438 69.414062 8.941406 67.46875 8.796875 C 64.507812 8.554688 61.800781 7.695312 59.34375 6.21875 C 56.882812 4.738281 54.535156 2.757812 52.296875 0.28125 C 52.148438 0.332031 52.015625 0.359375 51.890625 0.359375 C 51.773438 0.359375 51.671875 0.378906 51.578125 0.421875 C 46.378906 1.671875 41.273438 2.066406 36.265625 1.609375 C 31.265625 1.160156 26.378906 -0.304688 21.609375 -2.796875 C 17.078125 -5.128906 13.460938 -8.164062 10.765625 -11.90625 C 8.066406 -15.65625 6.171875 -19.984375 5.078125 -24.890625 C 4.023438 -29.523438 3.570312 -34.117188 3.71875 -38.671875 C 3.863281 -43.222656 4.914062 -47.691406 6.875 -52.078125 C 8.007812 -54.609375 9.472656 -57.085938 11.265625 -59.515625 C 13.054688 -61.953125 15.285156 -64.160156 17.953125 -66.140625 C 20.628906 -68.117188 23.828125 -69.726562 27.546875 -70.96875 C 31.265625 -72.207031 35.601562 -72.875 40.5625 -72.96875 C 44.132812 -73.0625 47.304688 -72.820312 50.078125 -72.25 C 52.847656 -71.6875 55.410156 -70.796875 57.765625 -69.578125 C 60.128906 -68.359375 62.476562 -66.816406 64.8125 -64.953125 C 69.582031 -61.234375 73.039062 -56.515625 75.1875 -50.796875 C 76.851562 -46.210938 77.851562 -41.59375 78.1875 -36.9375 C 78.53125 -32.289062 77.960938 -27.609375 76.484375 -22.890625 C 75.910156 -21.078125 75.238281 -19.347656 74.46875 -17.703125 C 73.707031 -16.054688 72.851562 -14.519531 71.90625 -13.09375 C 73.144531 -12.664062 74.488281 -12.257812 75.9375 -11.875 C 77.394531 -11.488281 78.9375 -11.15625 80.5625 -10.875 Z M 31.484375 -34.34375 C 31.671875 -31.570312 32.300781 -29.375 33.375 -27.75 C 34.445312 -26.132812 35.707031 -24.976562 37.15625 -24.28125 C 38.613281 -23.59375 39.960938 -23.296875 41.203125 -23.390625 C 42.492188 -23.484375 43.796875 -23.898438 45.109375 -24.640625 C 46.421875 -25.378906 47.539062 -26.5625 48.46875 -28.1875 C 49.394531 -29.8125 49.929688 -31.957031 50.078125 -34.625 C 50.265625 -37.34375 49.941406 -39.644531 49.109375 -41.53125 C 48.273438 -43.414062 47.128906 -44.859375 45.671875 -45.859375 C 44.222656 -46.859375 42.640625 -47.359375 40.921875 -47.359375 C 39.160156 -47.359375 37.523438 -46.867188 36.015625 -45.890625 C 34.515625 -44.910156 33.332031 -43.453125 32.46875 -41.515625 C 31.613281 -39.585938 31.285156 -37.195312 31.484375 -34.34375 Z M 31.484375 -34.34375 "/></g></g></g><g fill="#6ba39a" fill-opacity="1"><g transform="translate(589.201146, 94.267722)"><g><path d="M 73.046875 -24.328125 C 72.515625 -19.742188 71.175781 -15.804688 69.03125 -12.515625 C 66.882812 -9.222656 64.210938 -6.503906 61.015625 -4.359375 C 57.828125 -2.210938 54.375 -0.628906 50.65625 0.390625 C 46.9375 1.421875 43.210938 1.9375 39.484375 1.9375 C 36.484375 1.9375 33.46875 1.769531 30.4375 1.4375 C 27.40625 1.101562 24.484375 0.4375 21.671875 -0.5625 C 18.859375 -1.570312 16.269531 -3.03125 13.90625 -4.9375 C 11.550781 -6.84375 9.5625 -9.34375 7.9375 -12.4375 C 6.320312 -15.539062 5.203125 -19.40625 4.578125 -24.03125 C 3.960938 -28.375 3.664062 -33.097656 3.6875 -38.203125 C 3.707031 -43.304688 3.929688 -48.515625 4.359375 -53.828125 C 4.796875 -59.148438 5.347656 -64.269531 6.015625 -69.1875 C 6.535156 -69.757812 7.488281 -70.28125 8.875 -70.75 C 10.257812 -71.226562 11.890625 -71.585938 13.765625 -71.828125 C 15.648438 -72.066406 17.601562 -72.101562 19.625 -71.9375 C 21.65625 -71.769531 23.566406 -71.328125 25.359375 -70.609375 C 27.148438 -69.890625 28.664062 -68.863281 29.90625 -67.53125 C 31.144531 -66.195312 31.90625 -64.429688 32.1875 -62.234375 C 32.289062 -61.472656 32.351562 -60.007812 32.375 -57.84375 C 32.394531 -55.675781 32.40625 -53.097656 32.40625 -50.109375 C 32.40625 -47.128906 32.441406 -44.003906 32.515625 -40.734375 C 32.585938 -37.472656 32.707031 -34.363281 32.875 -31.40625 C 33.039062 -28.445312 33.289062 -25.941406 33.625 -23.890625 C 33.90625 -22.316406 34.554688 -21.078125 35.578125 -20.171875 C 36.609375 -19.265625 37.769531 -18.773438 39.0625 -18.703125 C 40.351562 -18.628906 41.546875 -19.035156 42.640625 -19.921875 C 43.734375 -20.804688 44.472656 -22.226562 44.859375 -24.1875 C 45.191406 -25.894531 45.488281 -28.132812 45.75 -30.90625 C 46.007812 -33.675781 46.210938 -36.703125 46.359375 -39.984375 C 46.503906 -43.273438 46.5625 -46.613281 46.53125 -50 C 46.507812 -53.394531 46.398438 -56.601562 46.203125 -59.625 C 46.015625 -62.65625 45.707031 -65.242188 45.28125 -67.390625 C 46.238281 -68.347656 47.539062 -69.171875 49.1875 -69.859375 C 50.832031 -70.546875 52.679688 -71.019531 54.734375 -71.28125 C 56.785156 -71.550781 58.847656 -71.53125 60.921875 -71.21875 C 62.992188 -70.90625 64.9375 -70.234375 66.75 -69.203125 C 68.5625 -68.179688 70.070312 -66.71875 71.28125 -64.8125 C 72.5 -62.90625 73.253906 -60.5 73.546875 -57.59375 C 73.734375 -55.632812 73.910156 -53.851562 74.078125 -52.25 C 74.242188 -50.65625 74.363281 -49.035156 74.4375 -47.390625 C 74.507812 -45.742188 74.519531 -43.894531 74.46875 -41.84375 C 74.425781 -39.800781 74.296875 -37.367188 74.078125 -34.546875 C 73.867188 -31.734375 73.523438 -28.328125 73.046875 -24.328125 Z M 73.046875 -24.328125 "/></g></g></g><g fill="#6ba39a" fill-opacity="1"><g transform="translate(667.393265, 94.267722)"><g><path d="M 3.9375 -16.53125 C 3.84375 -18.144531 3.769531 -20.320312 3.71875 -23.0625 C 3.675781 -25.8125 3.65625 -28.890625 3.65625 -32.296875 C 3.65625 -35.710938 3.6875 -39.242188 3.75 -42.890625 C 3.820312 -46.535156 3.914062 -50.125 4.03125 -53.65625 C 4.15625 -57.1875 4.300781 -60.453125 4.46875 -63.453125 C 4.632812 -66.460938 4.835938 -68.96875 5.078125 -70.96875 C 7.460938 -71.207031 10.359375 -71.382812 13.765625 -71.5 C 17.179688 -71.625 20.84375 -71.707031 24.75 -71.75 C 28.664062 -71.800781 32.585938 -71.789062 36.515625 -71.71875 C 40.453125 -71.644531 44.171875 -71.535156 47.671875 -71.390625 C 51.179688 -71.253906 54.203125 -71.085938 56.734375 -70.890625 C 57.160156 -70.273438 57.539062 -69.320312 57.875 -68.03125 C 58.207031 -66.75 58.382812 -65.296875 58.40625 -63.671875 C 58.4375 -62.046875 58.234375 -60.398438 57.796875 -58.734375 C 57.367188 -57.066406 56.617188 -55.515625 55.546875 -54.078125 C 54.472656 -52.648438 52.992188 -51.503906 51.109375 -50.640625 C 49.234375 -49.785156 46.863281 -49.359375 44 -49.359375 C 43.039062 -49.359375 42.15625 -49.359375 41.34375 -49.359375 C 40.539062 -49.359375 39.632812 -49.359375 38.625 -49.359375 C 37.625 -49.359375 36.382812 -49.359375 34.90625 -49.359375 C 33.425781 -49.359375 31.546875 -49.359375 29.265625 -49.359375 C 29.265625 -48.785156 29.265625 -48.203125 29.265625 -47.609375 C 29.265625 -47.015625 29.265625 -46.359375 29.265625 -45.640625 C 30.304688 -45.640625 31.742188 -45.660156 33.578125 -45.703125 C 35.421875 -45.753906 37.414062 -45.78125 39.5625 -45.78125 C 41.707031 -45.78125 43.816406 -45.6875 45.890625 -45.5 C 47.960938 -45.3125 49.765625 -44.976562 51.296875 -44.5 C 52.722656 -41.351562 53.316406 -38.421875 53.078125 -35.703125 C 52.835938 -32.984375 51.773438 -30.765625 49.890625 -29.046875 C 48.015625 -27.328125 45.3125 -26.375 41.78125 -26.1875 C 40.582031 -26.132812 39.457031 -26.109375 38.40625 -26.109375 C 37.363281 -26.109375 36.148438 -26.117188 34.765625 -26.140625 C 33.378906 -26.171875 31.566406 -26.1875 29.328125 -26.1875 C 29.328125 -25.425781 29.328125 -24.695312 29.328125 -24 C 29.328125 -23.3125 29.328125 -22.582031 29.328125 -21.8125 C 29.566406 -21.8125 29.828125 -21.8125 30.109375 -21.8125 C 30.398438 -21.8125 30.691406 -21.8125 30.984375 -21.8125 C 34.796875 -21.8125 38.617188 -21.8125 42.453125 -21.8125 C 46.296875 -21.8125 50.125 -21.8125 53.9375 -21.8125 C 55.320312 -19.90625 56.203125 -17.796875 56.578125 -15.484375 C 56.960938 -13.171875 56.796875 -10.914062 56.078125 -8.71875 C 55.367188 -6.53125 54.007812 -4.632812 52 -3.03125 C 50 -1.4375 47.304688 -0.425781 43.921875 0 C 42.734375 0.144531 41.125 0.273438 39.09375 0.390625 C 37.070312 0.515625 34.84375 0.585938 32.40625 0.609375 C 29.976562 0.628906 27.554688 0.613281 25.140625 0.5625 C 22.734375 0.519531 20.5625 0.425781 18.625 0.28125 C 16.695312 0.144531 15.210938 -0.0390625 14.171875 -0.28125 C 10.828125 -1.144531 8.351562 -2.851562 6.75 -5.40625 C 5.15625 -7.957031 4.21875 -11.664062 3.9375 -16.53125 Z M 3.9375 -16.53125 "/></g></g></g><g fill="#6ba39a" fill-opacity="1"><g transform="translate(727.629102, 94.267722)"><g><path d="M 52.21875 -40.28125 C 55.84375 -38.039062 58.523438 -35.441406 60.265625 -32.484375 C 62.015625 -29.523438 62.957031 -26.445312 63.09375 -23.25 C 63.238281 -20.050781 62.757812 -16.972656 61.65625 -14.015625 C 60.5625 -11.066406 58.976562 -8.457031 56.90625 -6.1875 C 54.832031 -3.925781 52.460938 -2.242188 49.796875 -1.140625 C 47.890625 -0.378906 45.550781 0.257812 42.78125 0.78125 C 40.007812 1.3125 37.003906 1.632812 33.765625 1.75 C 30.523438 1.875 27.195312 1.707031 23.78125 1.25 C 20.375 0.800781 17.082031 -0.015625 13.90625 -1.203125 C 10.738281 -2.398438 7.867188 -4.050781 5.296875 -6.15625 C 3.910156 -7.914062 3.085938 -9.820312 2.828125 -11.875 C 2.566406 -13.925781 2.769531 -15.894531 3.4375 -17.78125 C 4.101562 -19.664062 5.140625 -21.257812 6.546875 -22.5625 C 7.953125 -23.875 9.628906 -24.6875 11.578125 -25 C 13.535156 -25.3125 15.6875 -24.894531 18.03125 -23.75 C 21.414062 -22.082031 24.609375 -20.945312 27.609375 -20.34375 C 30.617188 -19.75 33.125 -19.675781 35.125 -20.125 C 37.125 -20.582031 38.316406 -21.53125 38.703125 -22.96875 C 39.085938 -24.394531 38.773438 -25.582031 37.765625 -26.53125 C 36.765625 -27.488281 34.929688 -28.066406 32.265625 -28.265625 C 29.359375 -28.492188 26.445312 -28.988281 23.53125 -29.75 C 20.625 -30.519531 17.90625 -31.628906 15.375 -33.078125 C 12.851562 -34.535156 10.722656 -36.445312 8.984375 -38.8125 C 7.242188 -41.175781 6.085938 -44.023438 5.515625 -47.359375 C 5.316406 -48.554688 5.300781 -50.023438 5.46875 -51.765625 C 5.632812 -53.503906 6.0625 -55.347656 6.75 -57.296875 C 7.445312 -59.253906 8.5 -61.1875 9.90625 -63.09375 C 11.3125 -65.007812 13.179688 -66.753906 15.515625 -68.328125 C 17.859375 -69.898438 20.75 -71.140625 24.1875 -72.046875 C 26.570312 -72.710938 29.097656 -73.128906 31.765625 -73.296875 C 34.429688 -73.460938 37.085938 -73.425781 39.734375 -73.1875 C 42.390625 -72.945312 44.859375 -72.492188 47.140625 -71.828125 C 49.429688 -71.160156 51.34375 -70.328125 52.875 -69.328125 C 55.351562 -67.648438 57.140625 -65.867188 58.234375 -63.984375 C 59.328125 -62.109375 59.863281 -60.25 59.84375 -58.40625 C 59.820312 -56.570312 59.378906 -54.851562 58.515625 -53.25 C 57.660156 -51.65625 56.539062 -50.296875 55.15625 -49.171875 C 53.769531 -48.054688 52.242188 -47.3125 50.578125 -46.9375 C 49.523438 -48.21875 48.082031 -49.320312 46.25 -50.25 C 44.414062 -51.1875 42.4375 -51.90625 40.3125 -52.40625 C 38.1875 -52.90625 36.171875 -53.140625 34.265625 -53.109375 C 32.359375 -53.085938 30.796875 -52.78125 29.578125 -52.1875 C 28.367188 -51.59375 27.738281 -50.675781 27.6875 -49.4375 C 27.6875 -48.675781 28.019531 -48.039062 28.6875 -47.53125 C 29.351562 -47.03125 30.59375 -46.664062 32.40625 -46.4375 C 37.65625 -45.757812 41.945312 -44.765625 45.28125 -43.453125 C 48.625 -42.148438 50.9375 -41.09375 52.21875 -40.28125 Z M 52.21875 -40.28125 "/></g></g></g><g fill="#6ba39a" fill-opacity="1"><g transform="translate(795.018823, 94.267722)"><g><path d="M 64.3125 -71.40625 C 65.070312 -70.394531 65.703125 -68.957031 66.203125 -67.09375 C 66.710938 -65.238281 66.941406 -63.226562 66.890625 -61.0625 C 66.835938 -58.894531 66.382812 -56.804688 65.53125 -54.796875 C 64.675781 -52.796875 63.304688 -51.101562 61.421875 -49.71875 C 59.535156 -48.332031 56.992188 -47.546875 53.796875 -47.359375 C 52.554688 -47.304688 51.519531 -47.242188 50.6875 -47.171875 C 49.851562 -47.109375 49.34375 -47.078125 49.15625 -47.078125 C 49.25 -44.398438 49.304688 -41.460938 49.328125 -38.265625 C 49.347656 -35.078125 49.332031 -31.789062 49.28125 -28.40625 C 49.238281 -25.019531 49.144531 -21.71875 49 -18.5 C 48.863281 -15.28125 48.695312 -12.273438 48.5 -9.484375 C 48.3125 -6.691406 48.078125 -4.316406 47.796875 -2.359375 C 46.597656 -1.023438 45.082031 -0.0703125 43.25 0.5 C 41.414062 1.070312 39.457031 1.226562 37.375 0.96875 C 35.300781 0.707031 33.285156 -0.03125 31.328125 -1.25 C 29.378906 -2.46875 27.648438 -4.171875 26.140625 -6.359375 C 24.640625 -8.554688 23.582031 -11.328125 22.96875 -14.671875 C 22.769531 -15.671875 22.597656 -17.28125 22.453125 -19.5 C 22.316406 -21.71875 22.1875 -24.316406 22.0625 -27.296875 C 21.945312 -30.273438 21.863281 -33.46875 21.8125 -36.875 C 21.769531 -40.289062 21.769531 -43.710938 21.8125 -47.140625 C 19.4375 -46.953125 16.984375 -46.867188 14.453125 -46.890625 C 11.921875 -46.921875 9.488281 -47.171875 7.15625 -47.640625 C 6.25 -48.835938 5.578125 -50.378906 5.140625 -52.265625 C 4.710938 -54.148438 4.59375 -56.140625 4.78125 -58.234375 C 4.976562 -60.328125 5.53125 -62.328125 6.4375 -64.234375 C 7.34375 -66.148438 8.675781 -67.738281 10.4375 -69 C 12.207031 -70.257812 14.453125 -70.988281 17.171875 -71.1875 C 18.691406 -71.28125 20.703125 -71.347656 23.203125 -71.390625 C 25.710938 -71.441406 28.503906 -71.46875 31.578125 -71.46875 C 34.660156 -71.46875 37.820312 -71.46875 41.0625 -71.46875 C 44.300781 -71.46875 47.4375 -71.457031 50.46875 -71.4375 C 53.5 -71.414062 56.226562 -71.40625 58.65625 -71.40625 C 61.09375 -71.40625 62.976562 -71.40625 64.3125 -71.40625 Z M 64.3125 -71.40625 "/></g></g></g></svg>