<svg xmlns="http://www.w3.org/2000/svg" xmlns:xlink="http://www.w3.org/1999/xlink" width="1200" zoomAndPan="magnify" viewBox="0 0 900 119.999999" height="160" preserveAspectRatio="xMidYMid meet" version="1.0"><defs><g/></defs><g fill="#3d4a43" fill-opacity="1"><g transform="translate(8.661286, 100.149972)"><g><path d="M 63.285156 -32.019531 C 64.433594 -30.996094 65.742188 -29.503906 67.207031 -27.539062 C 68.546875 -25.746094 69.910156 -23.792969 71.296875 -21.683594 C 72.679688 -19.582031 73.933594 -17.570312 75.054688 -15.648438 C 76.28125 -13.546875 77.144531 -11.773438 77.648438 -10.320312 L 78.03125 -9.21875 L 77.8125 -8.070312 C 77.144531 -4.589844 75.734375 -1.667969 73.585938 0.6875 C 71.453125 3.027344 68.871094 4.660156 65.847656 5.589844 C 62.929688 6.484375 59.875 6.671875 56.679688 6.148438 C 53.519531 5.632812 50.460938 4.371094 47.507812 2.359375 C 44.558594 0.351562 42.019531 -2.417969 39.890625 -5.949219 C 39.300781 -6.933594 38.621094 -8.007812 37.855469 -9.164062 C 37.039062 -10.402344 36.097656 -11.871094 35.023438 -13.570312 C 33.976562 -15.234375 32.65625 -17.292969 31.066406 -19.757812 L 30.484375 -20.632812 C 30.347656 -20.835938 30.214844 -21.019531 30.085938 -21.175781 L 33.484375 -23.894531 L 35.429688 -20.003906 C 34.609375 -19.59375 33.78125 -19.390625 32.941406 -19.390625 L 32.941406 -23.742188 L 37.292969 -23.742188 C 37.292969 -23.023438 37.277344 -22.242188 37.25 -21.394531 C 37.222656 -20.554688 37.183594 -19.699219 37.128906 -18.828125 C 36.976562 -15.6875 36.78125 -12.527344 36.546875 -9.347656 C 36.308594 -6.113281 36.054688 -3.5 35.785156 -1.503906 L 35.601562 -0.140625 L 34.664062 0.867188 C 32.851562 2.828125 30.582031 4.230469 27.855469 5.082031 C 25.269531 5.886719 22.542969 6.109375 19.675781 5.746094 C 16.832031 5.386719 14.089844 4.417969 11.457031 2.84375 C 8.800781 1.257812 6.492188 -0.957031 4.539062 -3.796875 C 2.59375 -6.617188 1.230469 -10.082031 0.445312 -14.183594 C 0.207031 -15.308594 0.00390625 -17.078125 -0.164062 -19.492188 C -0.320312 -21.75 -0.464844 -24.417969 -0.59375 -27.5 C -0.726562 -30.582031 -0.816406 -33.867188 -0.871094 -37.363281 C -0.921875 -40.847656 -0.933594 -44.359375 -0.910156 -47.898438 C -0.882812 -51.441406 -0.816406 -54.816406 -0.714844 -58.023438 C -0.605469 -61.28125 -0.433594 -64.191406 -0.195312 -66.753906 C 0.0625 -69.476562 0.402344 -71.625 0.824219 -73.203125 L 1.140625 -74.378906 L 2.023438 -75.21875 C 3.5625 -76.691406 5.796875 -78.007812 8.714844 -79.167969 C 11.359375 -80.21875 14.417969 -81.09375 17.898438 -81.789062 C 21.304688 -82.46875 24.941406 -82.945312 28.8125 -83.214844 C 32.707031 -83.488281 36.632812 -83.476562 40.578125 -83.175781 C 44.597656 -82.871094 48.429688 -82.21875 52.074219 -81.214844 C 55.914062 -80.160156 59.324219 -78.621094 62.300781 -76.597656 C 65.171875 -74.683594 67.722656 -72.222656 69.957031 -69.214844 C 72.160156 -66.246094 73.875 -62.964844 75.105469 -59.363281 C 76.363281 -55.683594 76.914062 -51.898438 76.765625 -48.007812 C 76.613281 -44.007812 75.558594 -40.132812 73.609375 -36.386719 C 71.648438 -32.617188 68.644531 -29.246094 64.59375 -26.265625 L 62.019531 -29.773438 L 64.847656 -26.46875 C 64.21875 -25.925781 63.382812 -25.398438 62.339844 -24.875 L 60.394531 -28.765625 Z M 57.503906 -25.515625 L 52.703125 -29.785156 L 58.449219 -32.65625 C 58.851562 -32.859375 59.097656 -32.996094 59.1875 -33.074219 L 59.3125 -33.179688 L 59.441406 -33.277344 C 62.402344 -35.453125 64.554688 -37.828125 65.894531 -40.402344 C 67.242188 -42.996094 67.96875 -45.644531 68.074219 -48.34375 C 68.179688 -51.15625 67.78125 -53.894531 66.871094 -56.554688 C 65.9375 -59.296875 64.636719 -61.785156 62.972656 -64.027344 C 61.339844 -66.226562 59.484375 -68.015625 57.40625 -69.402344 C 55.226562 -70.882812 52.683594 -72.027344 49.769531 -72.824219 C 46.664062 -73.679688 43.378906 -74.238281 39.921875 -74.5 C 36.394531 -74.769531 32.894531 -74.78125 29.417969 -74.539062 C 25.917969 -74.292969 22.644531 -73.867188 19.605469 -73.257812 C 16.640625 -72.664062 14.082031 -71.941406 11.929688 -71.085938 C 10.058594 -70.339844 8.757812 -69.617188 8.03125 -68.925781 L 5.027344 -72.070312 L 9.226562 -70.941406 C 8.929688 -69.839844 8.675781 -68.171875 8.46875 -65.941406 C 8.246094 -63.554688 8.082031 -60.820312 7.980469 -57.738281 C 7.878906 -54.605469 7.816406 -51.304688 7.792969 -47.835938 C 7.765625 -44.363281 7.777344 -40.914062 7.828125 -37.492188 C 7.878906 -34.078125 7.96875 -30.871094 8.097656 -27.867188 C 8.222656 -24.867188 8.363281 -22.277344 8.515625 -20.097656 C 8.65625 -18.082031 8.8125 -16.65625 8.988281 -15.820312 C 9.546875 -12.910156 10.449219 -10.550781 11.703125 -8.730469 C 12.941406 -6.933594 14.347656 -5.5625 15.917969 -4.625 C 17.511719 -3.671875 19.128906 -3.09375 20.765625 -2.886719 C 22.386719 -2.679688 23.886719 -2.792969 25.269531 -3.226562 C 26.515625 -3.613281 27.519531 -4.21875 28.28125 -5.042969 L 31.472656 -2.089844 L 27.164062 -2.671875 C 27.410156 -4.492188 27.644531 -6.929688 27.871094 -9.984375 C 28.097656 -13.09375 28.292969 -16.222656 28.445312 -19.371094 C 28.496094 -20.152344 28.53125 -20.921875 28.554688 -21.675781 C 28.582031 -22.429688 28.59375 -23.117188 28.59375 -23.742188 L 28.59375 -28.089844 L 32.941406 -28.089844 C 32.414062 -28.089844 31.945312 -27.988281 31.539062 -27.785156 L 34.683594 -29.359375 L 36.878906 -26.613281 C 37.164062 -26.257812 37.445312 -25.871094 37.722656 -25.457031 L 38.375 -24.476562 C 39.980469 -21.988281 41.316406 -19.902344 42.382812 -18.210938 C 43.425781 -16.5625 44.335938 -15.144531 45.117188 -13.957031 C 45.953125 -12.691406 46.691406 -11.523438 47.339844 -10.445312 C 48.816406 -7.996094 50.503906 -6.125 52.402344 -4.832031 C 54.296875 -3.542969 56.1875 -2.746094 58.078125 -2.4375 C 59.9375 -2.132812 61.675781 -2.230469 63.292969 -2.726562 C 64.804688 -3.191406 66.09375 -4.007812 67.15625 -5.171875 C 68.203125 -6.324219 68.90625 -7.835938 69.269531 -9.714844 L 73.539062 -8.894531 L 69.433594 -7.464844 C 69.113281 -8.382812 68.480469 -9.652344 67.539062 -11.261719 C 66.496094 -13.050781 65.328125 -14.929688 64.03125 -16.902344 C 62.738281 -18.867188 61.472656 -20.679688 60.234375 -22.335938 C 59.121094 -23.828125 58.210938 -24.886719 57.503906 -25.515625 Z M 39.960938 -48.5625 C 39.960938 -48.625 39.933594 -48.683594 39.875 -48.742188 C 39.695312 -48.925781 39.34375 -49.054688 38.816406 -49.125 C 38.148438 -49.214844 37.222656 -48.980469 36.042969 -48.421875 L 34.179688 -52.351562 L 38.53125 -52.351562 C 38.53125 -50.714844 38.515625 -49.410156 38.488281 -48.441406 C 38.464844 -47.609375 38.480469 -46.574219 38.527344 -45.328125 L 38.53125 -45.246094 L 38.53125 -45.160156 C 38.53125 -45.886719 38.351562 -46.546875 37.996094 -47.136719 C 37.871094 -47.347656 37.738281 -47.519531 37.605469 -47.65625 C 37.46875 -47.792969 37.292969 -47.925781 37.085938 -48.050781 C 36.492188 -48.40625 35.832031 -48.582031 35.109375 -48.582031 L 38.007812 -48.582031 C 38.644531 -48.582031 39.269531 -48.652344 39.886719 -48.789062 L 40.023438 -48.820312 L 40.160156 -48.839844 C 40.308594 -48.863281 40.402344 -48.882812 40.441406 -48.90625 C 40.34375 -48.855469 40.25 -48.777344 40.152344 -48.664062 C 40.050781 -48.546875 39.980469 -48.433594 39.945312 -48.320312 C 39.957031 -48.351562 39.960938 -48.433594 39.960938 -48.5625 Z M 48.660156 -48.5625 C 48.660156 -46.324219 48.015625 -44.457031 46.730469 -42.972656 C 45.453125 -41.496094 43.710938 -40.585938 41.5 -40.242188 L 40.832031 -44.542969 L 41.773438 -40.296875 C 40.535156 -40.019531 39.28125 -39.882812 38.007812 -39.882812 L 35.109375 -39.882812 C 33.75 -39.882812 32.535156 -40.421875 31.453125 -41.503906 C 30.371094 -42.585938 29.828125 -43.804688 29.828125 -45.160156 L 34.179688 -45.160156 L 29.832031 -44.992188 C 29.777344 -46.429688 29.765625 -47.660156 29.792969 -48.683594 C 29.816406 -49.570312 29.828125 -50.792969 29.828125 -52.351562 L 29.828125 -55.105469 L 32.316406 -56.285156 C 35.054688 -57.582031 37.609375 -58.066406 39.984375 -57.746094 C 42.496094 -57.40625 44.542969 -56.425781 46.117188 -54.804688 C 47.8125 -53.058594 48.660156 -50.976562 48.660156 -48.5625 Z M 48.660156 -48.5625 "/></g></g></g><g fill="#3d4a43" fill-opacity="1"><g transform="translate(85.757382, 100.149972)"><g><path d="M -0.0898438 -17.609375 C -0.195312 -19.421875 -0.277344 -21.839844 -0.328125 -24.863281 C -0.378906 -27.851562 -0.40625 -31.203125 -0.40625 -34.914062 C -0.40625 -38.628906 -0.367188 -42.472656 -0.289062 -46.445312 C -0.210938 -50.410156 -0.109375 -54.308594 0.0234375 -58.144531 C 0.152344 -61.992188 0.308594 -65.554688 0.488281 -68.832031 C 0.675781 -72.171875 0.902344 -74.96875 1.171875 -77.226562 L 1.582031 -80.691406 L 5.058594 -81.039062 C 7.730469 -81.308594 10.953125 -81.507812 14.734375 -81.640625 C 18.453125 -81.769531 22.441406 -81.859375 26.703125 -81.910156 C 30.972656 -81.964844 35.257812 -81.949219 39.554688 -81.871094 C 43.839844 -81.792969 47.894531 -81.675781 51.71875 -81.523438 C 55.558594 -81.363281 58.867188 -81.183594 61.648438 -80.972656 L 63.71875 -80.816406 L 64.898438 -79.109375 C 65.65625 -78.015625 66.28125 -76.523438 66.769531 -74.632812 C 67.21875 -72.902344 67.457031 -70.988281 67.488281 -68.886719 C 67.519531 -66.746094 67.257812 -64.585938 66.695312 -62.40625 C 66.089844 -60.042969 65.03125 -57.859375 63.527344 -55.851562 C 61.921875 -53.710938 59.765625 -52.027344 57.054688 -50.792969 C 54.445312 -49.601562 51.28125 -49.007812 47.558594 -49.007812 L 31.628906 -49.007812 L 31.628906 -53.359375 L 35.976562 -53.359375 L 35.976562 -49.335938 L 31.628906 -49.335938 L 31.628906 -53.6875 C 32.722656 -53.6875 34.246094 -53.710938 36.195312 -53.761719 C 38.214844 -53.816406 40.40625 -53.839844 42.761719 -53.839844 C 45.214844 -53.839844 47.628906 -53.730469 50.003906 -53.511719 C 52.554688 -53.277344 54.800781 -52.859375 56.742188 -52.25 L 58.601562 -51.671875 L 59.40625 -49.898438 C 61.269531 -45.804688 62.035156 -41.90625 61.710938 -38.207031 C 61.355469 -34.140625 59.742188 -30.800781 56.867188 -28.179688 C 54.066406 -25.628906 50.242188 -24.222656 45.394531 -23.960938 C 44.007812 -23.902344 42.71875 -23.875 41.527344 -23.875 C 40.367188 -23.875 39.027344 -23.886719 37.507812 -23.914062 C 36.039062 -23.941406 34.101562 -23.953125 31.707031 -23.953125 L 31.707031 -28.304688 L 36.054688 -28.304688 L 36.054688 -23.585938 L 31.707031 -23.585938 L 31.707031 -27.9375 L 60.527344 -27.9375 L 61.828125 -26.140625 C 63.726562 -23.523438 64.9375 -20.625 65.460938 -17.449219 C 65.988281 -14.25 65.753906 -11.128906 64.761719 -8.085938 C 63.71875 -4.886719 61.777344 -2.15625 58.929688 0.113281 C 56.128906 2.347656 52.496094 3.75 48.027344 4.316406 C 46.632812 4.484375 44.796875 4.632812 42.515625 4.769531 C 40.253906 4.902344 37.773438 4.980469 35.074219 5.007812 C 32.402344 5.035156 29.742188 5.019531 27.09375 4.96875 C 24.414062 4.914062 21.988281 4.808594 19.824219 4.648438 C 17.519531 4.476562 15.691406 4.238281 14.347656 3.933594 L 14.289062 3.917969 L 14.226562 3.902344 C 9.496094 2.6875 5.960938 0.210938 3.621094 -3.53125 C 1.5 -6.917969 0.261719 -11.609375 -0.0898438 -17.609375 Z M 8.59375 -18.117188 C 8.863281 -13.601562 9.660156 -10.277344 10.996094 -8.148438 C 12.105469 -6.371094 13.90625 -5.160156 16.394531 -4.523438 L 15.3125 -0.308594 L 16.277344 -4.550781 C 17.199219 -4.339844 18.59375 -4.167969 20.464844 -4.027344 C 22.476562 -3.878906 24.742188 -3.78125 27.269531 -3.730469 C 29.828125 -3.679688 32.402344 -3.667969 34.988281 -3.691406 C 37.546875 -3.71875 39.886719 -3.792969 42.003906 -3.917969 C 44.109375 -4.039062 45.75 -4.171875 46.933594 -4.316406 C 49.785156 -4.675781 51.976562 -5.46875 53.507812 -6.6875 C 54.992188 -7.871094 55.988281 -9.238281 56.492188 -10.78125 C 57.046875 -12.480469 57.171875 -14.230469 56.875 -16.035156 C 56.574219 -17.859375 55.878906 -19.523438 54.785156 -21.03125 L 58.308594 -23.585938 L 58.308594 -19.234375 L 27.355469 -19.234375 L 27.355469 -32.652344 L 31.707031 -32.652344 C 34.152344 -32.652344 36.136719 -32.640625 37.65625 -32.613281 C 39.128906 -32.589844 40.417969 -32.574219 41.527344 -32.574219 C 42.601562 -32.574219 43.734375 -32.597656 44.925781 -32.644531 C 47.707031 -32.796875 49.734375 -33.453125 51.007812 -34.609375 C 52.207031 -35.703125 52.886719 -37.15625 53.046875 -38.96875 C 53.238281 -41.148438 52.714844 -43.589844 51.484375 -46.300781 L 55.445312 -48.097656 L 54.148438 -43.945312 C 52.792969 -44.371094 51.144531 -44.671875 49.207031 -44.851562 C 47.097656 -45.042969 44.949219 -45.140625 42.761719 -45.140625 C 40.480469 -45.140625 38.367188 -45.117188 36.417969 -45.066406 C 34.398438 -45.011719 32.800781 -44.988281 31.628906 -44.988281 L 27.277344 -44.988281 L 27.277344 -57.707031 L 47.558594 -57.707031 C 50.023438 -57.707031 51.984375 -58.042969 53.449219 -58.707031 C 54.8125 -59.328125 55.851562 -60.117188 56.566406 -61.070312 C 57.382812 -62.15625 57.949219 -63.324219 58.269531 -64.570312 C 58.636719 -66 58.808594 -67.394531 58.789062 -68.757812 C 58.769531 -70.164062 58.621094 -71.394531 58.347656 -72.449219 C 58.117188 -73.34375 57.917969 -73.910156 57.746094 -74.15625 L 61.324219 -76.632812 L 60.996094 -72.296875 C 58.3125 -72.5 55.101562 -72.675781 51.363281 -72.828125 C 47.605469 -72.980469 43.617188 -73.097656 39.398438 -73.175781 C 35.1875 -73.25 30.992188 -73.261719 26.808594 -73.210938 C 22.613281 -73.160156 18.691406 -73.070312 15.039062 -72.945312 C 11.445312 -72.820312 8.40625 -72.632812 5.921875 -72.382812 L 5.492188 -76.710938 L 9.808594 -76.195312 C 9.5625 -74.121094 9.351562 -71.507812 9.175781 -68.351562 C 8.996094 -65.132812 8.84375 -61.632812 8.714844 -57.851562 C 8.589844 -54.054688 8.484375 -50.199219 8.410156 -46.273438 C 8.332031 -42.359375 8.292969 -38.570312 8.292969 -34.914062 C 8.292969 -31.253906 8.320312 -27.953125 8.371094 -25.015625 C 8.421875 -22.109375 8.496094 -19.8125 8.59375 -18.117188 Z M 8.59375 -18.117188 "/></g></g></g><g fill="#3d4a43" fill-opacity="1"><g transform="translate(150.867623, 100.149972)"><g><path d="M 58.738281 -47.238281 C 63.265625 -44.4375 66.652344 -41.128906 68.898438 -37.316406 C 71.148438 -33.496094 72.363281 -29.5 72.550781 -25.328125 C 72.730469 -21.285156 72.128906 -17.390625 70.738281 -13.644531 C 69.355469 -9.914062 67.351562 -6.617188 64.722656 -3.75 C 62.042969 -0.824219 58.960938 1.355469 55.472656 2.785156 C 53.125 3.726562 50.320312 4.503906 47.054688 5.125 C 43.847656 5.730469 40.382812 6.105469 36.660156 6.242188 C 32.910156 6.378906 29.070312 6.1875 25.140625 5.664062 C 21.125 5.132812 17.25 4.164062 13.511719 2.757812 C 9.636719 1.300781 6.125 -0.710938 2.976562 -3.277344 L 2.597656 -3.585938 L 2.296875 -3.96875 C 0.3125 -6.503906 -0.875 -9.277344 -1.261719 -12.285156 C -1.632812 -15.1875 -1.339844 -17.980469 -0.386719 -20.667969 C 0.570312 -23.375 2.070312 -25.679688 4.109375 -27.578125 C 6.277344 -29.601562 8.859375 -30.847656 11.847656 -31.324219 C 14.867188 -31.800781 18.050781 -31.222656 21.402344 -29.582031 C 24.726562 -27.941406 27.824219 -26.835938 30.695312 -26.265625 C 33.339844 -25.742188 35.445312 -25.65625 37.007812 -26.011719 C 37.449219 -26.109375 37.734375 -26.210938 37.863281 -26.3125 C 37.75 -26.222656 37.675781 -26.101562 37.632812 -25.945312 C 37.648438 -26.003906 37.65625 -26.039062 37.65625 -26.054688 C 37.65625 -25.996094 37.664062 -25.929688 37.683594 -25.855469 C 37.722656 -25.699219 37.773438 -25.59375 37.832031 -25.539062 C 37.847656 -25.523438 37.859375 -25.515625 37.863281 -25.507812 C 37.847656 -25.519531 37.824219 -25.535156 37.789062 -25.554688 C 37.648438 -25.628906 37.464844 -25.703125 37.234375 -25.773438 C 36.5625 -25.984375 35.675781 -26.128906 34.566406 -26.207031 C 31.136719 -26.488281 27.726562 -27.074219 24.339844 -27.960938 C 20.816406 -28.886719 17.523438 -30.230469 14.457031 -31.996094 C 11.195312 -33.871094 8.445312 -36.328125 6.203125 -39.371094 C 3.914062 -42.476562 2.402344 -46.171875 1.667969 -50.457031 C 1.398438 -52.144531 1.371094 -54.113281 1.585938 -56.363281 C 1.800781 -58.597656 2.339844 -60.941406 3.207031 -63.390625 C 4.097656 -65.914062 5.433594 -68.378906 7.210938 -70.785156 C 9.027344 -73.253906 11.410156 -75.476562 14.351562 -77.457031 C 17.28125 -79.433594 20.84375 -80.972656 25.027344 -82.078125 C 27.859375 -82.871094 30.871094 -83.367188 34.0625 -83.566406 C 37.171875 -83.761719 40.265625 -83.71875 43.347656 -83.441406 C 46.488281 -83.15625 49.433594 -82.617188 52.179688 -81.816406 C 55.070312 -80.972656 57.519531 -79.890625 59.535156 -78.570312 C 62.792969 -76.375 65.183594 -73.972656 66.707031 -71.359375 C 68.296875 -68.628906 69.074219 -65.871094 69.035156 -63.082031 C 69 -60.390625 68.351562 -57.867188 67.085938 -55.511719 C 65.882812 -53.273438 64.308594 -51.363281 62.359375 -49.785156 C 60.34375 -48.148438 58.101562 -47.050781 55.640625 -46.488281 L 53.007812 -45.886719 L 51.300781 -47.980469 C 50.554688 -48.894531 49.464844 -49.714844 48.027344 -50.445312 C 46.351562 -51.292969 44.535156 -51.949219 42.578125 -52.410156 C 40.628906 -52.871094 38.800781 -53.089844 37.09375 -53.066406 C 35.6875 -53.050781 34.617188 -52.863281 33.890625 -52.507812 C 33.867188 -52.496094 33.847656 -52.484375 33.835938 -52.476562 C 33.84375 -52.480469 33.851562 -52.488281 33.867188 -52.5 C 33.933594 -52.554688 34 -52.628906 34.0625 -52.71875 C 34.195312 -52.914062 34.265625 -53.097656 34.273438 -53.269531 L 29.925781 -53.433594 L 34.277344 -53.433594 C 34.277344 -53.742188 34.199219 -54.042969 34.042969 -54.335938 C 33.921875 -54.570312 33.777344 -54.746094 33.621094 -54.867188 C 33.550781 -54.917969 33.5 -54.953125 33.472656 -54.964844 C 33.546875 -54.929688 33.65625 -54.890625 33.796875 -54.847656 C 34.246094 -54.714844 34.847656 -54.597656 35.597656 -54.5 C 41.613281 -53.734375 46.59375 -52.578125 50.539062 -51.027344 C 54.402344 -49.507812 57.144531 -48.238281 58.769531 -47.21875 Z M 54.132812 -39.855469 C 52.972656 -40.585938 50.714844 -41.609375 47.359375 -42.929688 C 44.085938 -44.214844 39.789062 -45.195312 34.464844 -45.875 C 31.75 -46.230469 29.730469 -46.910156 28.398438 -47.90625 C 27.519531 -48.566406 26.835938 -49.355469 26.351562 -50.273438 C 25.835938 -51.25 25.578125 -52.304688 25.578125 -53.433594 L 25.578125 -53.601562 C 25.636719 -55.113281 26.078125 -56.460938 26.894531 -57.652344 C 27.667969 -58.773438 28.722656 -59.660156 30.0625 -60.316406 C 31.960938 -61.25 34.269531 -61.734375 36.988281 -61.765625 C 39.40625 -61.796875 41.933594 -61.5 44.574219 -60.878906 C 47.203125 -60.257812 49.667969 -59.367188 51.960938 -58.203125 C 54.492188 -56.921875 56.523438 -55.34375 58.042969 -53.476562 L 54.671875 -50.726562 L 53.703125 -54.96875 C 54.851562 -55.230469 55.910156 -55.757812 56.882812 -56.542969 C 57.925781 -57.386719 58.773438 -58.417969 59.425781 -59.632812 C 60.015625 -60.734375 60.320312 -61.921875 60.335938 -63.195312 C 60.351562 -64.378906 59.96875 -65.640625 59.1875 -66.984375 C 58.335938 -68.445312 56.859375 -69.882812 54.761719 -71.296875 C 53.472656 -72.140625 51.800781 -72.863281 49.742188 -73.464844 C 47.539062 -74.105469 45.148438 -74.542969 42.566406 -74.777344 C 39.925781 -75.015625 37.273438 -75.050781 34.605469 -74.882812 C 32.023438 -74.722656 29.570312 -74.316406 27.246094 -73.664062 C 24.007812 -72.8125 21.332031 -71.667969 19.210938 -70.242188 C 17.101562 -68.820312 15.433594 -67.28125 14.210938 -65.625 C 12.945312 -63.910156 12.011719 -62.199219 11.410156 -60.492188 C 10.78125 -58.714844 10.390625 -57.058594 10.246094 -55.53125 C 10.101562 -54.019531 10.097656 -52.820312 10.242188 -51.925781 C 10.746094 -48.996094 11.730469 -46.53125 13.207031 -44.53125 C 14.726562 -42.46875 16.589844 -40.804688 18.796875 -39.535156 C 21.191406 -38.15625 23.773438 -37.101562 26.546875 -36.378906 C 29.445312 -35.617188 32.324219 -35.117188 35.1875 -34.882812 C 39.113281 -34.605469 41.992188 -33.589844 43.832031 -31.839844 C 44.96875 -30.753906 45.726562 -29.488281 46.105469 -28.042969 C 46.464844 -26.660156 46.441406 -25.214844 46.039062 -23.703125 C 45.585938 -21.996094 44.65625 -20.59375 43.257812 -19.484375 C 42.09375 -18.570312 40.652344 -17.914062 38.929688 -17.527344 C 36.164062 -16.898438 32.855469 -16.96875 29.003906 -17.734375 C 25.378906 -18.453125 21.570312 -19.796875 17.574219 -21.765625 C 15.871094 -22.601562 14.417969 -22.921875 13.207031 -22.730469 C 11.96875 -22.535156 10.914062 -22.027344 10.042969 -21.214844 C 9.039062 -20.28125 8.296875 -19.132812 7.8125 -17.761719 C 7.320312 -16.378906 7.171875 -14.921875 7.371094 -13.390625 C 7.550781 -11.964844 8.144531 -10.613281 9.144531 -9.332031 L 5.722656 -6.648438 L 8.46875 -10.023438 C 10.886719 -8.054688 13.585938 -6.507812 16.570312 -5.386719 C 19.691406 -4.214844 22.925781 -3.40625 26.285156 -2.957031 C 29.726562 -2.5 33.078125 -2.332031 36.339844 -2.453125 C 39.625 -2.574219 42.65625 -2.898438 45.433594 -3.421875 C 48.148438 -3.9375 50.390625 -4.550781 52.167969 -5.261719 C 54.457031 -6.199219 56.503906 -7.65625 58.308594 -9.625 C 60.167969 -11.65625 61.589844 -14.003906 62.578125 -16.667969 C 63.5625 -19.316406 63.988281 -22.070312 63.859375 -24.9375 C 63.738281 -27.671875 62.917969 -30.324219 61.402344 -32.902344 C 59.882812 -35.480469 57.472656 -37.792969 54.164062 -39.835938 Z M 54.132812 -39.855469 "/></g></g></g><g fill="#3d4a43" fill-opacity="1"><g transform="translate(223.710682, 100.149972)"><g><path d="M 42.722656 -83.226562 C 48.4375 -83.28125 53.488281 -82.625 57.867188 -81.25 C 62.242188 -79.875 66.007812 -78.082031 69.160156 -75.859375 C 72.265625 -73.675781 74.855469 -71.328125 76.933594 -68.808594 C 78.949219 -66.367188 80.554688 -64.023438 81.75 -61.78125 C 82.894531 -59.628906 83.734375 -57.847656 84.265625 -56.433594 C 86.21875 -51.070312 87.378906 -45.667969 87.742188 -40.230469 C 88.109375 -34.675781 87.445312 -29.09375 85.746094 -23.484375 C 83.398438 -15.949219 79.695312 -9.820312 74.636719 -5.09375 C 69.574219 -0.367188 63.226562 2.898438 55.59375 4.699219 C 49.574219 6.148438 43.621094 6.605469 37.730469 6.070312 C 31.75 5.53125 25.925781 3.789062 20.265625 0.84375 C 14.757812 -1.996094 10.34375 -5.722656 7.023438 -10.335938 C 3.765625 -14.863281 1.476562 -20.074219 0.164062 -25.960938 C -0.667969 -29.5625 -1.152344 -33.253906 -1.292969 -37.035156 C -1.433594 -40.832031 -1.207031 -44.523438 -0.621094 -48.109375 C -0.0117188 -51.804688 0.996094 -55.152344 2.40625 -58.148438 C 3.75 -61.121094 5.496094 -64.058594 7.636719 -66.960938 C 9.84375 -69.949219 12.554688 -72.667969 15.773438 -75.113281 C 19.050781 -77.597656 22.929688 -79.574219 27.414062 -81.039062 C 31.875 -82.496094 36.992188 -83.226562 42.761719 -83.226562 Z M 42.761719 -74.527344 C 37.914062 -74.527344 33.699219 -73.941406 30.117188 -72.769531 C 26.5625 -71.605469 23.53125 -70.078125 21.035156 -68.179688 C 18.480469 -66.242188 16.347656 -64.113281 14.636719 -61.792969 C 12.859375 -59.386719 11.40625 -56.9375 10.277344 -54.445312 C 9.210938 -52.179688 8.441406 -49.597656 7.964844 -46.699219 C 7.472656 -43.6875 7.285156 -40.570312 7.402344 -37.355469 C 7.519531 -34.125 7.9375 -30.960938 8.652344 -27.859375 C 9.710938 -23.128906 11.519531 -18.980469 14.085938 -15.417969 C 16.59375 -11.933594 19.988281 -9.085938 24.277344 -6.875 C 28.925781 -4.457031 33.671875 -3.03125 38.515625 -2.59375 C 43.453125 -2.144531 48.480469 -2.539062 53.597656 -3.769531 C 59.726562 -5.214844 64.761719 -7.777344 68.695312 -11.453125 C 72.632812 -15.132812 75.542969 -19.984375 77.421875 -26.007812 C 78.8125 -30.605469 79.359375 -35.152344 79.058594 -39.652344 C 78.753906 -44.265625 77.773438 -48.839844 76.117188 -53.375 C 75.722656 -54.4375 75.039062 -55.875 74.070312 -57.691406 C 73.152344 -59.417969 71.867188 -61.277344 70.226562 -63.269531 C 68.644531 -65.1875 66.621094 -67.011719 64.15625 -68.746094 C 61.742188 -70.445312 58.777344 -71.84375 55.265625 -72.949219 C 51.757812 -74.046875 47.605469 -74.574219 42.804688 -74.527344 Z M 43.148438 -46.84375 C 42.101562 -46.84375 41.128906 -46.546875 40.226562 -45.960938 C 39.320312 -45.371094 38.578125 -44.425781 38 -43.125 C 37.363281 -41.691406 37.125 -39.785156 37.28125 -37.40625 C 37.4375 -35.1875 37.882812 -33.519531 38.621094 -32.40625 C 39.335938 -31.324219 40.113281 -30.582031 40.957031 -30.183594 C 41.832031 -29.765625 42.554688 -29.582031 43.125 -29.625 C 43.878906 -29.679688 44.683594 -29.949219 45.539062 -30.429688 C 46.261719 -30.835938 46.925781 -31.570312 47.535156 -32.632812 C 48.195312 -33.785156 48.585938 -35.460938 48.703125 -37.660156 C 48.863281 -39.929688 48.636719 -41.75 48.027344 -43.128906 C 47.457031 -44.414062 46.722656 -45.367188 45.824219 -45.984375 C 44.996094 -46.558594 44.105469 -46.84375 43.148438 -46.84375 Z M 43.148438 -55.542969 C 45.90625 -55.542969 48.445312 -54.746094 50.757812 -53.152344 C 53.007812 -51.605469 54.746094 -49.4375 55.980469 -46.652344 C 57.175781 -43.957031 57.644531 -40.804688 57.390625 -37.195312 C 57.199219 -33.617188 56.429688 -30.65625 55.082031 -28.304688 C 53.679688 -25.859375 51.921875 -24.042969 49.808594 -22.851562 C 47.828125 -21.734375 45.824219 -21.101562 43.792969 -20.949219 C 41.683594 -20.789062 39.492188 -21.246094 37.222656 -22.324219 C 34.921875 -23.417969 32.96875 -25.179688 31.363281 -27.601562 C 29.78125 -29.992188 28.863281 -33.070312 28.601562 -36.828125 C 28.347656 -40.636719 28.832031 -43.914062 30.050781 -46.65625 C 31.328125 -49.527344 33.136719 -51.726562 35.480469 -53.253906 C 37.824219 -54.78125 40.382812 -55.542969 43.148438 -55.542969 Z M 43.148438 -55.542969 "/></g></g></g><g fill="#3d4a43" fill-opacity="1"><g transform="translate(310.318122, 100.149972)"><g><path d="M 83.277344 -25.796875 C 82.628906 -20.167969 80.960938 -15.289062 78.265625 -11.15625 C 75.625 -7.105469 72.332031 -3.753906 68.386719 -1.105469 C 64.542969 1.476562 60.382812 3.386719 55.90625 4.617188 C 51.507812 5.832031 47.101562 6.4375 42.6875 6.4375 C 39.277344 6.4375 35.859375 6.25 32.425781 5.871094 C 28.816406 5.472656 25.332031 4.675781 21.972656 3.480469 C 18.464844 2.230469 15.242188 0.421875 12.304688 -1.953125 C 9.285156 -4.394531 6.761719 -7.554688 4.730469 -11.4375 C 2.738281 -15.242188 1.375 -19.898438 0.636719 -25.40625 C -0.0585938 -30.28125 -0.394531 -35.585938 -0.367188 -41.316406 C -0.339844 -46.941406 -0.0898438 -52.683594 0.382812 -58.539062 C 0.851562 -64.367188 1.453125 -69.976562 2.183594 -75.363281 L 2.367188 -76.714844 L 3.289062 -77.71875 C 4.351562 -78.878906 5.980469 -79.835938 8.171875 -80.589844 C 9.949219 -81.203125 12.003906 -81.660156 14.339844 -81.953125 C 16.675781 -82.25 19.089844 -82.296875 21.585938 -82.089844 C 24.210938 -81.875 26.691406 -81.296875 29.027344 -80.363281 C 31.566406 -79.347656 33.726562 -77.878906 35.511719 -75.960938 C 37.484375 -73.835938 38.683594 -71.128906 39.113281 -67.839844 C 39.238281 -66.835938 39.3125 -65.078125 39.339844 -62.570312 C 39.367188 -60.207031 39.378906 -57.40625 39.378906 -54.167969 C 39.378906 -50.980469 39.417969 -47.632812 39.496094 -44.132812 C 39.570312 -40.652344 39.699219 -37.339844 39.875 -34.191406 C 40.046875 -31.148438 40.300781 -28.59375 40.636719 -26.527344 C 40.757812 -25.867188 40.996094 -25.378906 41.351562 -25.066406 C 41.707031 -24.753906 42.078125 -24.585938 42.464844 -24.566406 C 42.746094 -24.550781 43.042969 -24.667969 43.363281 -24.925781 C 43.722656 -25.214844 44.007812 -25.898438 44.214844 -26.96875 C 44.550781 -28.6875 44.851562 -30.96875 45.121094 -33.816406 C 45.398438 -36.734375 45.613281 -39.933594 45.765625 -43.417969 C 45.914062 -46.902344 45.980469 -50.4375 45.953125 -54.023438 C 45.929688 -57.601562 45.816406 -60.988281 45.613281 -64.179688 C 45.417969 -67.261719 45.109375 -69.863281 44.683594 -71.992188 L 44.226562 -74.273438 L 45.875 -75.921875 C 47.308594 -77.355469 49.175781 -78.554688 51.480469 -79.523438 C 53.621094 -80.421875 55.996094 -81.039062 58.605469 -81.375 C 61.222656 -81.707031 63.847656 -81.679688 66.488281 -81.285156 C 69.261719 -80.871094 71.863281 -79.976562 74.289062 -78.601562 C 76.878906 -77.136719 79.023438 -75.070312 80.726562 -72.398438 C 82.414062 -69.753906 83.445312 -66.511719 83.824219 -62.675781 L 84.402344 -56.925781 C 84.59375 -55.121094 84.726562 -53.285156 84.808594 -51.421875 C 84.890625 -49.542969 84.902344 -47.449219 84.847656 -45.136719 C 84.796875 -42.84375 84.652344 -40.136719 84.414062 -37.019531 C 84.175781 -33.917969 83.796875 -30.167969 83.273438 -25.777344 Z M 74.632812 -26.804688 C 75.144531 -31.074219 75.511719 -34.699219 75.738281 -37.679688 C 75.964844 -40.644531 76.101562 -43.199219 76.152344 -45.339844 C 76.199219 -47.460938 76.1875 -49.359375 76.117188 -51.042969 C 76.042969 -52.734375 75.917969 -54.402344 75.746094 -56.054688 L 75.167969 -61.824219 C 74.925781 -64.28125 74.332031 -66.246094 73.390625 -67.722656 C 72.464844 -69.175781 71.335938 -70.277344 70.007812 -71.03125 C 68.515625 -71.875 66.914062 -72.425781 65.203125 -72.679688 C 63.359375 -72.957031 61.527344 -72.976562 59.710938 -72.746094 C 57.882812 -72.511719 56.265625 -72.097656 54.851562 -71.503906 C 53.597656 -70.976562 52.65625 -70.398438 52.027344 -69.769531 L 48.949219 -72.84375 L 53.214844 -73.699219 C 53.71875 -71.1875 54.078125 -68.195312 54.296875 -64.726562 C 54.507812 -61.375 54.625 -57.824219 54.652344 -54.085938 C 54.679688 -50.351562 54.613281 -46.667969 54.457031 -43.039062 C 54.296875 -39.40625 54.074219 -36.058594 53.78125 -32.996094 C 53.484375 -29.863281 53.144531 -27.300781 52.753906 -25.304688 C 52.140625 -22.152344 50.828125 -19.765625 48.816406 -18.148438 C 46.761719 -16.496094 44.484375 -15.738281 41.980469 -15.878906 C 39.582031 -16.011719 37.453125 -16.902344 35.589844 -18.546875 C 33.730469 -20.191406 32.550781 -22.386719 32.050781 -25.128906 C 31.667969 -27.496094 31.378906 -30.355469 31.191406 -33.703125 C 31.007812 -36.949219 30.875 -40.363281 30.796875 -43.945312 C 30.71875 -47.507812 30.679688 -50.914062 30.679688 -54.167969 C 30.679688 -57.375 30.667969 -60.144531 30.640625 -62.472656 C 30.617188 -64.65625 30.566406 -66.066406 30.484375 -66.714844 C 30.296875 -68.167969 29.847656 -69.273438 29.136719 -70.039062 C 28.238281 -71.003906 27.125 -71.753906 25.796875 -72.285156 C 24.269531 -72.898438 22.625 -73.273438 20.871094 -73.421875 C 18.980469 -73.574219 17.167969 -73.542969 15.433594 -73.324219 C 13.695312 -73.105469 12.21875 -72.785156 11.007812 -72.367188 C 10.492188 -72.191406 10.089844 -72.019531 9.789062 -71.855469 C 9.707031 -71.808594 9.640625 -71.769531 9.601562 -71.738281 C 9.621094 -71.753906 9.65625 -71.789062 9.703125 -71.839844 L 6.496094 -74.777344 L 10.804688 -74.191406 C 10.09375 -68.960938 9.511719 -63.511719 9.054688 -57.839844 C 8.597656 -52.203125 8.359375 -46.679688 8.332031 -41.273438 C 8.308594 -35.96875 8.617188 -31.066406 9.261719 -26.5625 C 9.863281 -22.066406 10.921875 -18.371094 12.4375 -15.472656 C 13.910156 -12.652344 15.691406 -10.402344 17.773438 -8.71875 C 19.941406 -6.96875 22.3125 -5.632812 24.890625 -4.714844 C 27.613281 -3.746094 30.441406 -3.101562 33.378906 -2.777344 C 36.496094 -2.433594 39.597656 -2.261719 42.6875 -2.261719 C 46.316406 -2.261719 49.949219 -2.765625 53.59375 -3.769531 C 57.160156 -4.75 60.472656 -6.269531 63.539062 -8.328125 C 66.5 -10.320312 68.980469 -12.847656 70.980469 -15.910156 C 72.925781 -18.890625 74.144531 -22.519531 74.632812 -26.789062 Z M 74.632812 -26.804688 "/></g></g></g><g fill="#3d4a43" fill-opacity="1"><g transform="translate(394.837703, 100.149972)"><g><path d="M 63.285156 -32.019531 C 64.433594 -30.996094 65.742188 -29.503906 67.207031 -27.539062 C 68.546875 -25.746094 69.910156 -23.792969 71.296875 -21.683594 C 72.679688 -19.582031 73.933594 -17.570312 75.054688 -15.648438 C 76.28125 -13.546875 77.144531 -11.773438 77.648438 -10.320312 L 78.03125 -9.21875 L 77.8125 -8.070312 C 77.144531 -4.589844 75.734375 -1.667969 73.585938 0.6875 C 71.453125 3.027344 68.871094 4.660156 65.847656 5.589844 C 62.929688 6.484375 59.875 6.671875 56.679688 6.148438 C 53.519531 5.632812 50.460938 4.371094 47.507812 2.359375 C 44.558594 0.351562 42.019531 -2.417969 39.890625 -5.949219 C 39.300781 -6.933594 38.621094 -8.007812 37.855469 -9.164062 C 37.039062 -10.402344 36.097656 -11.871094 35.023438 -13.570312 C 33.976562 -15.234375 32.65625 -17.292969 31.066406 -19.757812 L 30.484375 -20.632812 C 30.347656 -20.835938 30.214844 -21.019531 30.085938 -21.175781 L 33.484375 -23.894531 L 35.429688 -20.003906 C 34.609375 -19.59375 33.78125 -19.390625 32.941406 -19.390625 L 32.941406 -23.742188 L 37.292969 -23.742188 C 37.292969 -23.023438 37.277344 -22.242188 37.25 -21.394531 C 37.222656 -20.554688 37.183594 -19.699219 37.128906 -18.828125 C 36.976562 -15.6875 36.78125 -12.527344 36.546875 -9.347656 C 36.308594 -6.113281 36.054688 -3.5 35.785156 -1.503906 L 35.601562 -0.140625 L 34.664062 0.867188 C 32.851562 2.828125 30.582031 4.230469 27.855469 5.082031 C 25.269531 5.886719 22.542969 6.109375 19.675781 5.746094 C 16.832031 5.386719 14.089844 4.417969 11.457031 2.84375 C 8.800781 1.257812 6.492188 -0.957031 4.539062 -3.796875 C 2.59375 -6.617188 1.230469 -10.082031 0.445312 -14.183594 C 0.207031 -15.308594 0.00390625 -17.078125 -0.164062 -19.492188 C -0.320312 -21.75 -0.464844 -24.417969 -0.59375 -27.5 C -0.726562 -30.582031 -0.816406 -33.867188 -0.871094 -37.363281 C -0.921875 -40.847656 -0.933594 -44.359375 -0.910156 -47.898438 C -0.882812 -51.441406 -0.816406 -54.816406 -0.714844 -58.023438 C -0.605469 -61.28125 -0.433594 -64.191406 -0.195312 -66.753906 C 0.0625 -69.476562 0.402344 -71.625 0.824219 -73.203125 L 1.140625 -74.378906 L 2.023438 -75.21875 C 3.5625 -76.691406 5.796875 -78.007812 8.714844 -79.167969 C 11.359375 -80.21875 14.417969 -81.09375 17.898438 -81.789062 C 21.304688 -82.46875 24.941406 -82.945312 28.8125 -83.214844 C 32.707031 -83.488281 36.632812 -83.476562 40.578125 -83.175781 C 44.597656 -82.871094 48.429688 -82.21875 52.074219 -81.214844 C 55.914062 -80.160156 59.324219 -78.621094 62.300781 -76.597656 C 65.171875 -74.683594 67.722656 -72.222656 69.957031 -69.214844 C 72.160156 -66.246094 73.875 -62.964844 75.105469 -59.363281 C 76.363281 -55.683594 76.914062 -51.898438 76.765625 -48.007812 C 76.613281 -44.007812 75.558594 -40.132812 73.609375 -36.386719 C 71.648438 -32.617188 68.644531 -29.246094 64.59375 -26.265625 L 62.019531 -29.773438 L 64.847656 -26.46875 C 64.21875 -25.925781 63.382812 -25.398438 62.339844 -24.875 L 60.394531 -28.765625 Z M 57.503906 -25.515625 L 52.703125 -29.785156 L 58.449219 -32.65625 C 58.851562 -32.859375 59.097656 -32.996094 59.1875 -33.074219 L 59.3125 -33.179688 L 59.441406 -33.277344 C 62.402344 -35.453125 64.554688 -37.828125 65.894531 -40.402344 C 67.242188 -42.996094 67.96875 -45.644531 68.074219 -48.34375 C 68.179688 -51.15625 67.78125 -53.894531 66.871094 -56.554688 C 65.9375 -59.296875 64.636719 -61.785156 62.972656 -64.027344 C 61.339844 -66.226562 59.484375 -68.015625 57.40625 -69.402344 C 55.226562 -70.882812 52.683594 -72.027344 49.769531 -72.824219 C 46.664062 -73.679688 43.378906 -74.238281 39.921875 -74.5 C 36.394531 -74.769531 32.894531 -74.78125 29.417969 -74.539062 C 25.917969 -74.292969 22.644531 -73.867188 19.605469 -73.257812 C 16.640625 -72.664062 14.082031 -71.941406 11.929688 -71.085938 C 10.058594 -70.339844 8.757812 -69.617188 8.03125 -68.925781 L 5.027344 -72.070312 L 9.226562 -70.941406 C 8.929688 -69.839844 8.675781 -68.171875 8.46875 -65.941406 C 8.246094 -63.554688 8.082031 -60.820312 7.980469 -57.738281 C 7.878906 -54.605469 7.816406 -51.304688 7.792969 -47.835938 C 7.765625 -44.363281 7.777344 -40.914062 7.828125 -37.492188 C 7.878906 -34.078125 7.96875 -30.871094 8.097656 -27.867188 C 8.222656 -24.867188 8.363281 -22.277344 8.515625 -20.097656 C 8.65625 -18.082031 8.8125 -16.65625 8.988281 -15.820312 C 9.546875 -12.910156 10.449219 -10.550781 11.703125 -8.730469 C 12.941406 -6.933594 14.347656 -5.5625 15.917969 -4.625 C 17.511719 -3.671875 19.128906 -3.09375 20.765625 -2.886719 C 22.386719 -2.679688 23.886719 -2.792969 25.269531 -3.226562 C 26.515625 -3.613281 27.519531 -4.21875 28.28125 -5.042969 L 31.472656 -2.089844 L 27.164062 -2.671875 C 27.410156 -4.492188 27.644531 -6.929688 27.871094 -9.984375 C 28.097656 -13.09375 28.292969 -16.222656 28.445312 -19.371094 C 28.496094 -20.152344 28.53125 -20.921875 28.554688 -21.675781 C 28.582031 -22.429688 28.59375 -23.117188 28.59375 -23.742188 L 28.59375 -28.089844 L 32.941406 -28.089844 C 32.414062 -28.089844 31.945312 -27.988281 31.539062 -27.785156 L 34.683594 -29.359375 L 36.878906 -26.613281 C 37.164062 -26.257812 37.445312 -25.871094 37.722656 -25.457031 L 38.375 -24.476562 C 39.980469 -21.988281 41.316406 -19.902344 42.382812 -18.210938 C 43.425781 -16.5625 44.335938 -15.144531 45.117188 -13.957031 C 45.953125 -12.691406 46.691406 -11.523438 47.339844 -10.445312 C 48.816406 -7.996094 50.503906 -6.125 52.402344 -4.832031 C 54.296875 -3.542969 56.1875 -2.746094 58.078125 -2.4375 C 59.9375 -2.132812 61.675781 -2.230469 63.292969 -2.726562 C 64.804688 -3.191406 66.09375 -4.007812 67.15625 -5.171875 C 68.203125 -6.324219 68.90625 -7.835938 69.269531 -9.714844 L 73.539062 -8.894531 L 69.433594 -7.464844 C 69.113281 -8.382812 68.480469 -9.652344 67.539062 -11.261719 C 66.496094 -13.050781 65.328125 -14.929688 64.03125 -16.902344 C 62.738281 -18.867188 61.472656 -20.679688 60.234375 -22.335938 C 59.121094 -23.828125 58.210938 -24.886719 57.503906 -25.515625 Z M 39.960938 -48.5625 C 39.960938 -48.625 39.933594 -48.683594 39.875 -48.742188 C 39.695312 -48.925781 39.34375 -49.054688 38.816406 -49.125 C 38.148438 -49.214844 37.222656 -48.980469 36.042969 -48.421875 L 34.179688 -52.351562 L 38.53125 -52.351562 C 38.53125 -50.714844 38.515625 -49.410156 38.488281 -48.441406 C 38.464844 -47.609375 38.480469 -46.574219 38.527344 -45.328125 L 38.53125 -45.246094 L 38.53125 -45.160156 C 38.53125 -45.886719 38.351562 -46.546875 37.996094 -47.136719 C 37.871094 -47.347656 37.738281 -47.519531 37.605469 -47.65625 C 37.46875 -47.792969 37.292969 -47.925781 37.085938 -48.050781 C 36.492188 -48.40625 35.832031 -48.582031 35.109375 -48.582031 L 38.007812 -48.582031 C 38.644531 -48.582031 39.269531 -48.652344 39.886719 -48.789062 L 40.023438 -48.820312 L 40.160156 -48.839844 C 40.308594 -48.863281 40.402344 -48.882812 40.441406 -48.90625 C 40.34375 -48.855469 40.25 -48.777344 40.152344 -48.664062 C 40.050781 -48.546875 39.980469 -48.433594 39.945312 -48.320312 C 39.957031 -48.351562 39.960938 -48.433594 39.960938 -48.5625 Z M 48.660156 -48.5625 C 48.660156 -46.324219 48.015625 -44.457031 46.730469 -42.972656 C 45.453125 -41.496094 43.710938 -40.585938 41.5 -40.242188 L 40.832031 -44.542969 L 41.773438 -40.296875 C 40.535156 -40.019531 39.28125 -39.882812 38.007812 -39.882812 L 35.109375 -39.882812 C 33.75 -39.882812 32.535156 -40.421875 31.453125 -41.503906 C 30.371094 -42.585938 29.828125 -43.804688 29.828125 -45.160156 L 34.179688 -45.160156 L 29.832031 -44.992188 C 29.777344 -46.429688 29.765625 -47.660156 29.792969 -48.683594 C 29.816406 -49.570312 29.828125 -50.792969 29.828125 -52.351562 L 29.828125 -55.105469 L 32.316406 -56.285156 C 35.054688 -57.582031 37.609375 -58.066406 39.984375 -57.746094 C 42.496094 -57.40625 44.542969 -56.425781 46.117188 -54.804688 C 47.8125 -53.058594 48.660156 -50.976562 48.660156 -48.5625 Z M 48.660156 -48.5625 "/></g></g></g><g fill="#3d4a43" fill-opacity="1"><g transform="translate(471.933798, 100.149972)"><g><path d="M 50.257812 -48.664062 C 48.339844 -49.121094 46.699219 -49.292969 45.332031 -49.179688 C 44.210938 -49.082031 42.894531 -48.554688 41.382812 -47.597656 C 39.582031 -46.476562 38.445312 -45.089844 37.980469 -43.433594 C 37.371094 -41.285156 37.230469 -38.984375 37.5625 -36.542969 C 37.847656 -34.433594 38.492188 -32.855469 39.492188 -31.808594 C 40.546875 -30.703125 41.855469 -29.964844 43.417969 -29.597656 C 45.289062 -29.15625 47.269531 -29.078125 49.363281 -29.363281 C 50.6875 -29.558594 52.105469 -30 53.613281 -30.679688 C 55.332031 -31.457031 56.875 -32.265625 58.246094 -33.097656 C 59.789062 -34.042969 60.882812 -34.699219 61.527344 -35.074219 L 62.933594 -35.894531 L 64.535156 -35.59375 C 67.503906 -35.027344 70.15625 -33.679688 72.488281 -31.558594 C 74.722656 -29.519531 76.40625 -27.03125 77.527344 -24.09375 C 78.664062 -21.117188 79.019531 -17.976562 78.589844 -14.671875 C 78.152344 -11.300781 76.71875 -8.078125 74.289062 -5 C 71.929688 -2.011719 68.453125 0.554688 63.859375 2.703125 C 61.449219 3.847656 58.742188 4.671875 55.742188 5.179688 C 52.914062 5.65625 49.980469 5.90625 46.941406 5.933594 C 43.949219 5.960938 41.027344 5.8125 38.167969 5.480469 C 35.296875 5.148438 32.636719 4.679688 30.1875 4.066406 C 22.6875 2.105469 16.535156 -1.296875 11.722656 -6.136719 C 6.949219 -10.9375 3.503906 -16.96875 1.390625 -24.226562 C -0.0078125 -29.207031 -0.738281 -34.1875 -0.792969 -39.15625 C -0.851562 -44.242188 -0.0234375 -49.289062 1.683594 -54.296875 C 3.648438 -60.078125 6.589844 -64.960938 10.511719 -68.9375 C 14.3125 -72.796875 18.859375 -76.019531 24.148438 -78.609375 C 31.246094 -82.074219 39.027344 -83.648438 47.484375 -83.339844 C 55.9375 -83.03125 64.628906 -80.296875 73.550781 -75.140625 L 75.121094 -74.234375 L 75.582031 -72.484375 C 76.53125 -68.871094 76.675781 -65.539062 76.011719 -62.488281 C 75.347656 -59.433594 74.101562 -56.789062 72.269531 -54.546875 C 70.457031 -52.335938 68.261719 -50.625 65.679688 -49.417969 C 63.175781 -48.246094 60.539062 -47.597656 57.777344 -47.464844 C 54.945312 -47.332031 52.222656 -47.800781 49.617188 -48.871094 L 51.269531 -52.894531 Z M 52.28125 -57.125 L 52.609375 -57.046875 L 52.921875 -56.917969 C 54.335938 -56.335938 55.820312 -56.082031 57.367188 -56.15625 C 58.984375 -56.234375 60.527344 -56.613281 61.992188 -57.296875 C 63.378906 -57.945312 64.558594 -58.867188 65.535156 -60.054688 C 66.484375 -61.21875 67.144531 -62.644531 67.511719 -64.335938 C 67.878906 -66.027344 67.765625 -68.003906 67.167969 -70.269531 L 71.375 -71.375 L 69.199219 -67.609375 C 61.523438 -72.042969 54.179688 -74.386719 47.167969 -74.644531 C 40.160156 -74.902344 33.761719 -73.617188 27.972656 -70.792969 C 23.570312 -68.640625 19.816406 -65.984375 16.707031 -62.832031 C 13.722656 -59.800781 11.457031 -56.019531 9.917969 -51.488281 C 8.53125 -47.425781 7.859375 -43.347656 7.90625 -39.253906 C 7.953125 -35.050781 8.566406 -30.851562 9.742188 -26.660156 C 11.445312 -20.820312 14.160156 -16.023438 17.894531 -12.269531 C 21.589844 -8.550781 26.390625 -5.917969 32.296875 -4.375 C 34.382812 -3.855469 36.671875 -3.449219 39.164062 -3.160156 C 41.664062 -2.871094 44.230469 -2.742188 46.859375 -2.765625 C 49.441406 -2.789062 51.921875 -3 54.296875 -3.398438 C 56.503906 -3.773438 58.460938 -4.363281 60.175781 -5.179688 C 63.523438 -6.742188 65.949219 -8.480469 67.457031 -10.390625 C 68.894531 -12.210938 69.730469 -14.011719 69.960938 -15.792969 C 70.203125 -17.648438 70.015625 -19.378906 69.398438 -20.988281 C 68.769531 -22.636719 67.847656 -24.015625 66.628906 -25.125 C 65.507812 -26.144531 64.265625 -26.785156 62.90625 -27.046875 L 63.71875 -31.320312 L 65.910156 -27.5625 C 65.316406 -27.214844 64.273438 -26.585938 62.777344 -25.671875 C 61.101562 -24.652344 59.242188 -23.679688 57.199219 -22.753906 C 54.945312 -21.734375 52.730469 -21.066406 50.546875 -20.746094 C 47.382812 -20.3125 44.335938 -20.441406 41.414062 -21.132812 C 38.179688 -21.894531 35.441406 -23.453125 33.199219 -25.800781 C 30.898438 -28.207031 29.480469 -31.398438 28.941406 -35.375 C 28.449219 -39.015625 28.667969 -42.492188 29.609375 -45.804688 C 30.6875 -49.617188 33.058594 -52.660156 36.722656 -54.945312 C 39.4375 -56.664062 42.0625 -57.632812 44.601562 -57.847656 C 46.894531 -58.039062 49.457031 -57.800781 52.28125 -57.125 Z M 52.28125 -57.125 "/></g></g></g><g fill="#3d4a43" fill-opacity="1"><g transform="translate(548.720583, 100.149972)"><g><path d="M -0.0898438 -17.609375 C -0.195312 -19.421875 -0.277344 -21.839844 -0.328125 -24.863281 C -0.378906 -27.851562 -0.40625 -31.203125 -0.40625 -34.914062 C -0.40625 -38.628906 -0.367188 -42.472656 -0.289062 -46.445312 C -0.210938 -50.410156 -0.109375 -54.308594 0.0234375 -58.144531 C 0.152344 -61.992188 0.308594 -65.554688 0.488281 -68.832031 C 0.675781 -72.171875 0.902344 -74.96875 1.171875 -77.226562 L 1.582031 -80.691406 L 5.058594 -81.039062 C 7.730469 -81.308594 10.953125 -81.507812 14.734375 -81.640625 C 18.453125 -81.769531 22.441406 -81.859375 26.703125 -81.910156 C 30.972656 -81.964844 35.257812 -81.949219 39.554688 -81.871094 C 43.839844 -81.792969 47.894531 -81.675781 51.71875 -81.523438 C 55.558594 -81.363281 58.867188 -81.183594 61.648438 -80.972656 L 63.71875 -80.816406 L 64.898438 -79.109375 C 65.65625 -78.015625 66.28125 -76.523438 66.769531 -74.632812 C 67.21875 -72.902344 67.457031 -70.988281 67.488281 -68.886719 C 67.519531 -66.746094 67.257812 -64.585938 66.695312 -62.40625 C 66.089844 -60.042969 65.03125 -57.859375 63.527344 -55.851562 C 61.921875 -53.710938 59.765625 -52.027344 57.054688 -50.792969 C 54.445312 -49.601562 51.28125 -49.007812 47.558594 -49.007812 L 31.628906 -49.007812 L 31.628906 -53.359375 L 35.976562 -53.359375 L 35.976562 -49.335938 L 31.628906 -49.335938 L 31.628906 -53.6875 C 32.722656 -53.6875 34.246094 -53.710938 36.195312 -53.761719 C 38.214844 -53.816406 40.40625 -53.839844 42.761719 -53.839844 C 45.214844 -53.839844 47.628906 -53.730469 50.003906 -53.511719 C 52.554688 -53.277344 54.800781 -52.859375 56.742188 -52.25 L 58.601562 -51.671875 L 59.40625 -49.898438 C 61.269531 -45.804688 62.035156 -41.90625 61.710938 -38.207031 C 61.355469 -34.140625 59.742188 -30.800781 56.867188 -28.179688 C 54.066406 -25.628906 50.242188 -24.222656 45.394531 -23.960938 C 44.007812 -23.902344 42.71875 -23.875 41.527344 -23.875 C 40.367188 -23.875 39.027344 -23.886719 37.507812 -23.914062 C 36.039062 -23.941406 34.101562 -23.953125 31.707031 -23.953125 L 31.707031 -28.304688 L 36.054688 -28.304688 L 36.054688 -23.585938 L 31.707031 -23.585938 L 31.707031 -27.9375 L 60.527344 -27.9375 L 61.828125 -26.140625 C 63.726562 -23.523438 64.9375 -20.625 65.460938 -17.449219 C 65.988281 -14.25 65.753906 -11.128906 64.761719 -8.085938 C 63.71875 -4.886719 61.777344 -2.15625 58.929688 0.113281 C 56.128906 2.347656 52.496094 3.75 48.027344 4.316406 C 46.632812 4.484375 44.796875 4.632812 42.515625 4.769531 C 40.253906 4.902344 37.773438 4.980469 35.074219 5.007812 C 32.402344 5.035156 29.742188 5.019531 27.09375 4.96875 C 24.414062 4.914062 21.988281 4.808594 19.824219 4.648438 C 17.519531 4.476562 15.691406 4.238281 14.347656 3.933594 L 14.289062 3.917969 L 14.226562 3.902344 C 9.496094 2.6875 5.960938 0.210938 3.621094 -3.53125 C 1.5 -6.917969 0.261719 -11.609375 -0.0898438 -17.609375 Z M 8.59375 -18.117188 C 8.863281 -13.601562 9.660156 -10.277344 10.996094 -8.148438 C 12.105469 -6.371094 13.90625 -5.160156 16.394531 -4.523438 L 15.3125 -0.308594 L 16.277344 -4.550781 C 17.199219 -4.339844 18.59375 -4.167969 20.464844 -4.027344 C 22.476562 -3.878906 24.742188 -3.78125 27.269531 -3.730469 C 29.828125 -3.679688 32.402344 -3.667969 34.988281 -3.691406 C 37.546875 -3.71875 39.886719 -3.792969 42.003906 -3.917969 C 44.109375 -4.039062 45.75 -4.171875 46.933594 -4.316406 C 49.785156 -4.675781 51.976562 -5.46875 53.507812 -6.6875 C 54.992188 -7.871094 55.988281 -9.238281 56.492188 -10.78125 C 57.046875 -12.480469 57.171875 -14.230469 56.875 -16.035156 C 56.574219 -17.859375 55.878906 -19.523438 54.785156 -21.03125 L 58.308594 -23.585938 L 58.308594 -19.234375 L 27.355469 -19.234375 L 27.355469 -32.652344 L 31.707031 -32.652344 C 34.152344 -32.652344 36.136719 -32.640625 37.65625 -32.613281 C 39.128906 -32.589844 40.417969 -32.574219 41.527344 -32.574219 C 42.601562 -32.574219 43.734375 -32.597656 44.925781 -32.644531 C 47.707031 -32.796875 49.734375 -33.453125 51.007812 -34.609375 C 52.207031 -35.703125 52.886719 -37.15625 53.046875 -38.96875 C 53.238281 -41.148438 52.714844 -43.589844 51.484375 -46.300781 L 55.445312 -48.097656 L 54.148438 -43.945312 C 52.792969 -44.371094 51.144531 -44.671875 49.207031 -44.851562 C 47.097656 -45.042969 44.949219 -45.140625 42.761719 -45.140625 C 40.480469 -45.140625 38.367188 -45.117188 36.417969 -45.066406 C 34.398438 -45.011719 32.800781 -44.988281 31.628906 -44.988281 L 27.277344 -44.988281 L 27.277344 -57.707031 L 47.558594 -57.707031 C 50.023438 -57.707031 51.984375 -58.042969 53.449219 -58.707031 C 54.8125 -59.328125 55.851562 -60.117188 56.566406 -61.070312 C 57.382812 -62.15625 57.949219 -63.324219 58.269531 -64.570312 C 58.636719 -66 58.808594 -67.394531 58.789062 -68.757812 C 58.769531 -70.164062 58.621094 -71.394531 58.347656 -72.449219 C 58.117188 -73.34375 57.917969 -73.910156 57.746094 -74.15625 L 61.324219 -76.632812 L 60.996094 -72.296875 C 58.3125 -72.5 55.101562 -72.675781 51.363281 -72.828125 C 47.605469 -72.980469 43.617188 -73.097656 39.398438 -73.175781 C 35.1875 -73.25 30.992188 -73.261719 26.808594 -73.210938 C 22.613281 -73.160156 18.691406 -73.070312 15.039062 -72.945312 C 11.445312 -72.820312 8.40625 -72.632812 5.921875 -72.382812 L 5.492188 -76.710938 L 9.808594 -76.195312 C 9.5625 -74.121094 9.351562 -71.507812 9.175781 -68.351562 C 8.996094 -65.132812 8.84375 -61.632812 8.714844 -57.851562 C 8.589844 -54.054688 8.484375 -50.199219 8.410156 -46.273438 C 8.332031 -42.359375 8.292969 -38.570312 8.292969 -34.914062 C 8.292969 -31.253906 8.320312 -27.953125 8.371094 -25.015625 C 8.421875 -22.109375 8.496094 -19.8125 8.59375 -18.117188 Z M 8.59375 -18.117188 "/></g></g></g><g fill="#3d4a43" fill-opacity="1"><g transform="translate(613.830824, 100.149972)"><g><path d="M 58.738281 -47.238281 C 63.265625 -44.4375 66.652344 -41.128906 68.898438 -37.316406 C 71.148438 -33.496094 72.363281 -29.5 72.550781 -25.328125 C 72.730469 -21.285156 72.128906 -17.390625 70.738281 -13.644531 C 69.355469 -9.914062 67.351562 -6.617188 64.722656 -3.75 C 62.042969 -0.824219 58.960938 1.355469 55.472656 2.785156 C 53.125 3.726562 50.320312 4.503906 47.054688 5.125 C 43.847656 5.730469 40.382812 6.105469 36.660156 6.242188 C 32.910156 6.378906 29.070312 6.1875 25.140625 5.664062 C 21.125 5.132812 17.25 4.164062 13.511719 2.757812 C 9.636719 1.300781 6.125 -0.710938 2.976562 -3.277344 L 2.597656 -3.585938 L 2.296875 -3.96875 C 0.3125 -6.503906 -0.875 -9.277344 -1.261719 -12.285156 C -1.632812 -15.1875 -1.339844 -17.980469 -0.386719 -20.667969 C 0.570312 -23.375 2.070312 -25.679688 4.109375 -27.578125 C 6.277344 -29.601562 8.859375 -30.847656 11.847656 -31.324219 C 14.867188 -31.800781 18.050781 -31.222656 21.402344 -29.582031 C 24.726562 -27.941406 27.824219 -26.835938 30.695312 -26.265625 C 33.339844 -25.742188 35.445312 -25.65625 37.007812 -26.011719 C 37.449219 -26.109375 37.734375 -26.210938 37.863281 -26.3125 C 37.75 -26.222656 37.675781 -26.101562 37.632812 -25.945312 C 37.648438 -26.003906 37.65625 -26.039062 37.65625 -26.054688 C 37.65625 -25.996094 37.664062 -25.929688 37.683594 -25.855469 C 37.722656 -25.699219 37.773438 -25.59375 37.832031 -25.539062 C 37.847656 -25.523438 37.859375 -25.515625 37.863281 -25.507812 C 37.847656 -25.519531 37.824219 -25.535156 37.789062 -25.554688 C 37.648438 -25.628906 37.464844 -25.703125 37.234375 -25.773438 C 36.5625 -25.984375 35.675781 -26.128906 34.566406 -26.207031 C 31.136719 -26.488281 27.726562 -27.074219 24.339844 -27.960938 C 20.816406 -28.886719 17.523438 -30.230469 14.457031 -31.996094 C 11.195312 -33.871094 8.445312 -36.328125 6.203125 -39.371094 C 3.914062 -42.476562 2.402344 -46.171875 1.667969 -50.457031 C 1.398438 -52.144531 1.371094 -54.113281 1.585938 -56.363281 C 1.800781 -58.597656 2.339844 -60.941406 3.207031 -63.390625 C 4.097656 -65.914062 5.433594 -68.378906 7.210938 -70.785156 C 9.027344 -73.253906 11.410156 -75.476562 14.351562 -77.457031 C 17.28125 -79.433594 20.84375 -80.972656 25.027344 -82.078125 C 27.859375 -82.871094 30.871094 -83.367188 34.0625 -83.566406 C 37.171875 -83.761719 40.265625 -83.71875 43.347656 -83.441406 C 46.488281 -83.15625 49.433594 -82.617188 52.179688 -81.816406 C 55.070312 -80.972656 57.519531 -79.890625 59.535156 -78.570312 C 62.792969 -76.375 65.183594 -73.972656 66.707031 -71.359375 C 68.296875 -68.628906 69.074219 -65.871094 69.035156 -63.082031 C 69 -60.390625 68.351562 -57.867188 67.085938 -55.511719 C 65.882812 -53.273438 64.308594 -51.363281 62.359375 -49.785156 C 60.34375 -48.148438 58.101562 -47.050781 55.640625 -46.488281 L 53.007812 -45.886719 L 51.300781 -47.980469 C 50.554688 -48.894531 49.464844 -49.714844 48.027344 -50.445312 C 46.351562 -51.292969 44.535156 -51.949219 42.578125 -52.410156 C 40.628906 -52.871094 38.800781 -53.089844 37.09375 -53.066406 C 35.6875 -53.050781 34.617188 -52.863281 33.890625 -52.507812 C 33.867188 -52.496094 33.847656 -52.484375 33.835938 -52.476562 C 33.84375 -52.480469 33.851562 -52.488281 33.867188 -52.5 C 33.933594 -52.554688 34 -52.628906 34.0625 -52.71875 C 34.195312 -52.914062 34.265625 -53.097656 34.273438 -53.269531 L 29.925781 -53.433594 L 34.277344 -53.433594 C 34.277344 -53.742188 34.199219 -54.042969 34.042969 -54.335938 C 33.921875 -54.570312 33.777344 -54.746094 33.621094 -54.867188 C 33.550781 -54.917969 33.5 -54.953125 33.472656 -54.964844 C 33.546875 -54.929688 33.65625 -54.890625 33.796875 -54.847656 C 34.246094 -54.714844 34.847656 -54.597656 35.597656 -54.5 C 41.613281 -53.734375 46.59375 -52.578125 50.539062 -51.027344 C 54.402344 -49.507812 57.144531 -48.238281 58.769531 -47.21875 Z M 54.132812 -39.855469 C 52.972656 -40.585938 50.714844 -41.609375 47.359375 -42.929688 C 44.085938 -44.214844 39.789062 -45.195312 34.464844 -45.875 C 31.75 -46.230469 29.730469 -46.910156 28.398438 -47.90625 C 27.519531 -48.566406 26.835938 -49.355469 26.351562 -50.273438 C 25.835938 -51.25 25.578125 -52.304688 25.578125 -53.433594 L 25.578125 -53.601562 C 25.636719 -55.113281 26.078125 -56.460938 26.894531 -57.652344 C 27.667969 -58.773438 28.722656 -59.660156 30.0625 -60.316406 C 31.960938 -61.25 34.269531 -61.734375 36.988281 -61.765625 C 39.40625 -61.796875 41.933594 -61.5 44.574219 -60.878906 C 47.203125 -60.257812 49.667969 -59.367188 51.960938 -58.203125 C 54.492188 -56.921875 56.523438 -55.34375 58.042969 -53.476562 L 54.671875 -50.726562 L 53.703125 -54.96875 C 54.851562 -55.230469 55.910156 -55.757812 56.882812 -56.542969 C 57.925781 -57.386719 58.773438 -58.417969 59.425781 -59.632812 C 60.015625 -60.734375 60.320312 -61.921875 60.335938 -63.195312 C 60.351562 -64.378906 59.96875 -65.640625 59.1875 -66.984375 C 58.335938 -68.445312 56.859375 -69.882812 54.761719 -71.296875 C 53.472656 -72.140625 51.800781 -72.863281 49.742188 -73.464844 C 47.539062 -74.105469 45.148438 -74.542969 42.566406 -74.777344 C 39.925781 -75.015625 37.273438 -75.050781 34.605469 -74.882812 C 32.023438 -74.722656 29.570312 -74.316406 27.246094 -73.664062 C 24.007812 -72.8125 21.332031 -71.667969 19.210938 -70.242188 C 17.101562 -68.820312 15.433594 -67.28125 14.210938 -65.625 C 12.945312 -63.910156 12.011719 -62.199219 11.410156 -60.492188 C 10.78125 -58.714844 10.390625 -57.058594 10.246094 -55.53125 C 10.101562 -54.019531 10.097656 -52.820312 10.242188 -51.925781 C 10.746094 -48.996094 11.730469 -46.53125 13.207031 -44.53125 C 14.726562 -42.46875 16.589844 -40.804688 18.796875 -39.535156 C 21.191406 -38.15625 23.773438 -37.101562 26.546875 -36.378906 C 29.445312 -35.617188 32.324219 -35.117188 35.1875 -34.882812 C 39.113281 -34.605469 41.992188 -33.589844 43.832031 -31.839844 C 44.96875 -30.753906 45.726562 -29.488281 46.105469 -28.042969 C 46.464844 -26.660156 46.441406 -25.214844 46.039062 -23.703125 C 45.585938 -21.996094 44.65625 -20.59375 43.257812 -19.484375 C 42.09375 -18.570312 40.652344 -17.914062 38.929688 -17.527344 C 36.164062 -16.898438 32.855469 -16.96875 29.003906 -17.734375 C 25.378906 -18.453125 21.570312 -19.796875 17.574219 -21.765625 C 15.871094 -22.601562 14.417969 -22.921875 13.207031 -22.730469 C 11.96875 -22.535156 10.914062 -22.027344 10.042969 -21.214844 C 9.039062 -20.28125 8.296875 -19.132812 7.8125 -17.761719 C 7.320312 -16.378906 7.171875 -14.921875 7.371094 -13.390625 C 7.550781 -11.964844 8.144531 -10.613281 9.144531 -9.332031 L 5.722656 -6.648438 L 8.46875 -10.023438 C 10.886719 -8.054688 13.585938 -6.507812 16.570312 -5.386719 C 19.691406 -4.214844 22.925781 -3.40625 26.285156 -2.957031 C 29.726562 -2.5 33.078125 -2.332031 36.339844 -2.453125 C 39.625 -2.574219 42.65625 -2.898438 45.433594 -3.421875 C 48.148438 -3.9375 50.390625 -4.550781 52.167969 -5.261719 C 54.457031 -6.199219 56.503906 -7.65625 58.308594 -9.625 C 60.167969 -11.65625 61.589844 -14.003906 62.578125 -16.667969 C 63.5625 -19.316406 63.988281 -22.070312 63.859375 -24.9375 C 63.738281 -27.671875 62.917969 -30.324219 61.402344 -32.902344 C 59.882812 -35.480469 57.472656 -37.792969 54.164062 -39.835938 Z M 54.132812 -39.855469 "/></g></g></g><g fill="#6ba39a" fill-opacity="1"><g transform="translate(8.661286, 100.149972)"><g><path d="M 60.390625 -28.765625 C 61.328125 -27.941406 62.4375 -26.664062 63.71875 -24.9375 C 65.007812 -23.207031 66.320312 -21.320312 67.65625 -19.28125 C 69 -17.25 70.210938 -15.304688 71.296875 -13.453125 C 72.378906 -11.597656 73.128906 -10.078125 73.546875 -8.890625 C 73.023438 -6.210938 71.960938 -3.992188 70.359375 -2.234375 C 68.765625 -0.484375 66.832031 0.734375 64.5625 1.421875 C 62.300781 2.117188 59.90625 2.257812 57.375 1.84375 C 54.851562 1.4375 52.378906 0.410156 49.953125 -1.234375 C 47.535156 -2.890625 45.421875 -5.210938 43.609375 -8.203125 C 42.992188 -9.234375 42.285156 -10.351562 41.484375 -11.5625 C 40.691406 -12.769531 39.765625 -14.210938 38.703125 -15.890625 C 37.648438 -17.566406 36.320312 -19.644531 34.71875 -22.125 C 34.507812 -22.425781 34.300781 -22.734375 34.09375 -23.046875 C 33.894531 -23.359375 33.691406 -23.640625 33.484375 -23.890625 C 33.273438 -23.785156 33.09375 -23.734375 32.9375 -23.734375 C 32.9375 -23.066406 32.921875 -22.332031 32.890625 -21.53125 C 32.867188 -20.738281 32.835938 -19.925781 32.796875 -19.09375 C 32.640625 -15.957031 32.441406 -12.816406 32.203125 -9.671875 C 31.972656 -6.523438 31.726562 -4 31.46875 -2.09375 C 30.1875 -0.695312 28.550781 0.304688 26.5625 0.921875 C 24.582031 1.546875 22.46875 1.710938 20.21875 1.421875 C 17.976562 1.140625 15.800781 0.367188 13.6875 -0.890625 C 11.570312 -2.148438 9.710938 -3.941406 8.109375 -6.265625 C 6.515625 -8.585938 5.382812 -11.5 4.71875 -15 C 4.507812 -15.976562 4.328125 -17.578125 4.171875 -19.796875 C 4.015625 -22.015625 3.875 -24.644531 3.75 -27.6875 C 3.625 -30.726562 3.535156 -33.972656 3.484375 -37.421875 C 3.429688 -40.878906 3.414062 -44.359375 3.4375 -47.859375 C 3.46875 -51.367188 3.535156 -54.707031 3.640625 -57.875 C 3.742188 -61.050781 3.910156 -63.875 4.140625 -66.34375 C 4.367188 -68.820312 4.664062 -70.734375 5.03125 -72.078125 C 6.164062 -73.160156 7.929688 -74.175781 10.328125 -75.125 C 12.722656 -76.082031 15.53125 -76.882812 18.75 -77.53125 C 21.976562 -78.175781 25.429688 -78.625 29.109375 -78.875 C 32.796875 -79.132812 36.507812 -79.125 40.25 -78.84375 C 43.988281 -78.5625 47.546875 -77.953125 50.921875 -77.015625 C 54.296875 -76.085938 57.273438 -74.75 59.859375 -73 C 62.328125 -71.351562 64.53125 -69.226562 66.46875 -66.625 C 68.40625 -64.019531 69.910156 -61.128906 70.984375 -57.953125 C 72.066406 -54.785156 72.546875 -51.523438 72.421875 -48.171875 C 72.296875 -44.828125 71.40625 -41.566406 69.75 -38.390625 C 68.101562 -35.222656 65.523438 -32.347656 62.015625 -29.765625 C 61.660156 -29.460938 61.117188 -29.128906 60.390625 -28.765625 Z M 44.3125 -48.5625 C 44.3125 -49.800781 43.875 -50.867188 43 -51.765625 C 42.125 -52.671875 40.925781 -53.226562 39.40625 -53.4375 C 37.882812 -53.644531 36.144531 -53.285156 34.1875 -52.359375 C 34.1875 -50.753906 34.171875 -49.488281 34.140625 -48.5625 C 34.117188 -47.632812 34.132812 -46.5 34.1875 -45.15625 C 34.1875 -45.007812 34.300781 -44.816406 34.53125 -44.578125 C 34.757812 -44.347656 34.953125 -44.234375 35.109375 -44.234375 C 36.085938 -44.234375 37.050781 -44.234375 38 -44.234375 C 38.957031 -44.234375 39.898438 -44.335938 40.828125 -44.546875 C 43.148438 -44.898438 44.3125 -46.238281 44.3125 -48.5625 Z M 44.3125 -48.5625 "/></g></g></g><g fill="#6ba39a" fill-opacity="1"><g transform="translate(85.757382, 100.149972)"><g><path d="M 4.25 -17.859375 C 4.144531 -19.617188 4.066406 -21.976562 4.015625 -24.9375 C 3.960938 -27.90625 3.9375 -31.234375 3.9375 -34.921875 C 3.9375 -38.609375 3.972656 -42.421875 4.046875 -46.359375 C 4.128906 -50.304688 4.234375 -54.1875 4.359375 -58 C 4.492188 -61.8125 4.648438 -65.34375 4.828125 -68.59375 C 5.015625 -71.84375 5.234375 -74.550781 5.484375 -76.71875 C 8.066406 -76.96875 11.203125 -77.15625 14.890625 -77.28125 C 18.578125 -77.414062 22.53125 -77.507812 26.75 -77.5625 C 30.976562 -77.613281 35.21875 -77.597656 39.46875 -77.515625 C 43.726562 -77.441406 47.753906 -77.328125 51.546875 -77.171875 C 55.335938 -77.023438 58.597656 -76.847656 61.328125 -76.640625 C 61.785156 -75.960938 62.195312 -74.925781 62.5625 -73.53125 C 62.925781 -72.144531 63.117188 -70.578125 63.140625 -68.828125 C 63.171875 -67.078125 62.953125 -65.296875 62.484375 -63.484375 C 62.023438 -61.679688 61.210938 -60.003906 60.046875 -58.453125 C 58.890625 -56.910156 57.289062 -55.675781 55.25 -54.75 C 53.21875 -53.820312 50.65625 -53.359375 47.5625 -53.359375 C 46.53125 -53.359375 45.578125 -53.359375 44.703125 -53.359375 C 43.828125 -53.359375 42.847656 -53.359375 41.765625 -53.359375 C 40.679688 -53.359375 39.335938 -53.359375 37.734375 -53.359375 C 36.140625 -53.359375 34.101562 -53.359375 31.625 -53.359375 C 31.625 -52.742188 31.625 -52.113281 31.625 -51.46875 C 31.625 -50.820312 31.625 -50.113281 31.625 -49.34375 C 32.757812 -49.34375 34.316406 -49.367188 36.296875 -49.421875 C 38.285156 -49.472656 40.441406 -49.5 42.765625 -49.5 C 45.085938 -49.5 47.367188 -49.394531 49.609375 -49.1875 C 51.847656 -48.976562 53.796875 -48.613281 55.453125 -48.09375 C 56.992188 -44.695312 57.632812 -41.53125 57.375 -38.59375 C 57.125 -35.65625 55.976562 -33.253906 53.9375 -31.390625 C 51.90625 -29.535156 48.976562 -28.503906 45.15625 -28.296875 C 43.875 -28.253906 42.664062 -28.234375 41.53125 -28.234375 C 40.394531 -28.234375 39.078125 -28.242188 37.578125 -28.265625 C 36.085938 -28.285156 34.128906 -28.296875 31.703125 -28.296875 C 31.703125 -27.472656 31.703125 -26.6875 31.703125 -25.9375 C 31.703125 -25.195312 31.703125 -24.414062 31.703125 -23.59375 C 31.960938 -23.59375 32.242188 -23.59375 32.546875 -23.59375 C 32.859375 -23.59375 33.171875 -23.59375 33.484375 -23.59375 C 37.609375 -23.59375 41.742188 -23.59375 45.890625 -23.59375 C 50.046875 -23.59375 54.1875 -23.59375 58.3125 -23.59375 C 59.800781 -21.53125 60.753906 -19.242188 61.171875 -16.734375 C 61.585938 -14.234375 61.40625 -11.796875 60.625 -9.421875 C 59.851562 -7.054688 58.382812 -5.007812 56.21875 -3.28125 C 54.050781 -1.5625 51.140625 -0.46875 47.484375 0 C 46.191406 0.15625 44.445312 0.296875 42.25 0.421875 C 40.0625 0.554688 37.65625 0.632812 35.03125 0.65625 C 32.40625 0.6875 29.789062 0.675781 27.1875 0.625 C 24.582031 0.570312 22.234375 0.46875 20.140625 0.3125 C 18.054688 0.15625 16.445312 -0.0507812 15.3125 -0.3125 C 11.707031 -1.238281 9.039062 -3.078125 7.3125 -5.828125 C 5.582031 -8.585938 4.5625 -12.597656 4.25 -17.859375 Z M 4.25 -17.859375 "/></g></g></g><g fill="#6ba39a" fill-opacity="1"><g transform="translate(150.867623, 100.149972)"><g><path d="M 56.453125 -43.53125 C 60.367188 -41.113281 63.265625 -38.304688 65.140625 -35.109375 C 67.023438 -31.910156 68.046875 -28.582031 68.203125 -25.125 C 68.359375 -21.675781 67.84375 -18.351562 66.65625 -15.15625 C 65.46875 -11.957031 63.753906 -9.132812 61.515625 -6.6875 C 59.273438 -4.238281 56.710938 -2.421875 53.828125 -1.234375 C 51.765625 -0.410156 49.238281 0.28125 46.25 0.84375 C 43.257812 1.414062 40.007812 1.765625 36.5 1.890625 C 33 2.023438 29.40625 1.847656 25.71875 1.359375 C 22.03125 0.867188 18.472656 -0.0195312 15.046875 -1.3125 C 11.617188 -2.601562 8.507812 -4.382812 5.71875 -6.65625 C 4.226562 -8.5625 3.335938 -10.617188 3.046875 -12.828125 C 2.765625 -15.046875 2.984375 -17.171875 3.703125 -19.203125 C 4.429688 -21.242188 5.554688 -22.972656 7.078125 -24.390625 C 8.597656 -25.816406 10.414062 -26.695312 12.53125 -27.03125 C 14.644531 -27.363281 16.960938 -26.910156 19.484375 -25.671875 C 23.148438 -23.867188 26.601562 -22.644531 29.84375 -22 C 33.09375 -21.351562 35.800781 -21.273438 37.96875 -21.765625 C 40.132812 -22.253906 41.425781 -23.273438 41.84375 -24.828125 C 42.25 -26.367188 41.910156 -27.65625 40.828125 -28.6875 C 39.742188 -29.71875 37.757812 -30.335938 34.875 -30.546875 C 31.726562 -30.804688 28.582031 -31.347656 25.4375 -32.171875 C 22.289062 -32.992188 19.351562 -34.191406 16.625 -35.765625 C 13.894531 -37.335938 11.585938 -39.398438 9.703125 -41.953125 C 7.816406 -44.503906 6.566406 -47.582031 5.953125 -51.1875 C 5.742188 -52.476562 5.726562 -54.0625 5.90625 -55.9375 C 6.09375 -57.820312 6.554688 -59.820312 7.296875 -61.9375 C 8.046875 -64.050781 9.179688 -66.140625 10.703125 -68.203125 C 12.222656 -70.265625 14.25 -72.144531 16.78125 -73.84375 C 19.3125 -75.550781 22.429688 -76.894531 26.140625 -77.875 C 28.710938 -78.59375 31.441406 -79.039062 34.328125 -79.21875 C 37.222656 -79.40625 40.097656 -79.367188 42.953125 -79.109375 C 45.816406 -78.847656 48.484375 -78.359375 50.953125 -77.640625 C 53.429688 -76.921875 55.5 -76.019531 57.15625 -74.9375 C 59.832031 -73.132812 61.765625 -71.210938 62.953125 -69.171875 C 64.140625 -67.140625 64.71875 -65.128906 64.6875 -63.140625 C 64.664062 -61.160156 64.1875 -59.304688 63.25 -57.578125 C 62.320312 -55.847656 61.109375 -54.375 59.609375 -53.15625 C 58.117188 -51.945312 56.472656 -51.140625 54.671875 -50.734375 C 53.535156 -52.117188 51.972656 -53.3125 49.984375 -54.3125 C 48.003906 -55.320312 45.867188 -56.097656 43.578125 -56.640625 C 41.285156 -57.179688 39.109375 -57.4375 37.046875 -57.40625 C 34.984375 -57.382812 33.289062 -57.050781 31.96875 -56.40625 C 30.65625 -55.769531 29.972656 -54.78125 29.921875 -53.4375 C 29.921875 -52.613281 30.28125 -51.929688 31 -51.390625 C 31.726562 -50.847656 33.070312 -50.445312 35.03125 -50.1875 C 40.695312 -49.46875 45.332031 -48.398438 48.9375 -46.984375 C 52.550781 -45.566406 55.054688 -44.414062 56.453125 -43.53125 Z M 56.453125 -43.53125 "/></g></g></g><g fill="#6ba39a" fill-opacity="1"><g transform="translate(223.710682, 100.149972)"><g><path d="M 42.765625 -78.875 C 48.023438 -78.925781 52.625 -78.332031 56.5625 -77.09375 C 60.507812 -75.863281 63.875 -74.269531 66.65625 -72.3125 C 69.445312 -70.351562 71.753906 -68.265625 73.578125 -66.046875 C 75.410156 -63.828125 76.851562 -61.722656 77.90625 -59.734375 C 78.96875 -57.753906 79.726562 -56.144531 80.1875 -54.90625 C 82 -49.957031 83.070312 -44.96875 83.40625 -39.9375 C 83.738281 -34.914062 83.132812 -29.851562 81.59375 -24.75 C 77.363281 -11.1875 68.363281 -2.78125 54.59375 0.46875 C 49.03125 1.800781 43.539062 2.222656 38.125 1.734375 C 32.707031 1.242188 27.421875 -0.335938 22.265625 -3.015625 C 17.367188 -5.546875 13.460938 -8.832031 10.546875 -12.875 C 7.640625 -16.925781 5.59375 -21.601562 4.40625 -26.90625 C 3.632812 -30.257812 3.179688 -33.6875 3.046875 -37.1875 C 2.921875 -40.695312 3.128906 -44.101562 3.671875 -47.40625 C 4.210938 -50.707031 5.101562 -53.671875 6.34375 -56.296875 C 7.582031 -59.023438 9.179688 -61.71875 11.140625 -64.375 C 13.097656 -67.03125 15.519531 -69.453125 18.40625 -71.640625 C 21.289062 -73.835938 24.742188 -75.59375 28.765625 -76.90625 C 32.785156 -78.21875 37.453125 -78.875 42.765625 -78.875 Z M 43.15625 -51.1875 C 41.25 -51.1875 39.484375 -50.660156 37.859375 -49.609375 C 36.234375 -48.554688 34.957031 -46.984375 34.03125 -44.890625 C 33.101562 -42.804688 32.738281 -40.21875 32.9375 -37.125 C 33.144531 -34.132812 33.828125 -31.757812 34.984375 -30 C 36.148438 -28.25 37.519531 -27 39.09375 -26.25 C 40.664062 -25.507812 42.125 -25.1875 43.46875 -25.28125 C 44.851562 -25.382812 46.253906 -25.835938 47.671875 -26.640625 C 49.085938 -27.441406 50.296875 -28.71875 51.296875 -30.46875 C 52.304688 -32.21875 52.890625 -34.535156 53.046875 -37.421875 C 53.253906 -40.367188 52.90625 -42.859375 52 -44.890625 C 51.101562 -46.929688 49.867188 -48.488281 48.296875 -49.5625 C 46.722656 -50.644531 45.007812 -51.1875 43.15625 -51.1875 Z M 43.15625 -51.1875 "/></g></g></g><g fill="#6ba39a" fill-opacity="1"><g transform="translate(310.318122, 100.149972)"><g><path d="M 78.953125 -26.296875 C 78.390625 -21.347656 76.945312 -17.09375 74.625 -13.53125 C 72.300781 -9.976562 69.410156 -7.039062 65.953125 -4.71875 C 62.503906 -2.394531 58.769531 -0.679688 54.75 0.421875 C 50.726562 1.535156 46.707031 2.09375 42.6875 2.09375 C 39.4375 2.09375 36.175781 1.910156 32.90625 1.546875 C 29.632812 1.179688 26.476562 0.457031 23.4375 -0.625 C 20.394531 -1.707031 17.597656 -3.273438 15.046875 -5.328125 C 12.492188 -7.390625 10.335938 -10.097656 8.578125 -13.453125 C 6.828125 -16.804688 5.617188 -20.984375 4.953125 -25.984375 C 4.273438 -30.671875 3.945312 -35.773438 3.96875 -41.296875 C 4 -46.816406 4.242188 -52.445312 4.703125 -58.1875 C 5.171875 -63.9375 5.769531 -69.46875 6.5 -74.78125 C 7.0625 -75.394531 8.085938 -75.957031 9.578125 -76.46875 C 11.078125 -76.988281 12.84375 -77.378906 14.875 -77.640625 C 16.914062 -77.898438 19.03125 -77.9375 21.21875 -77.75 C 23.414062 -77.570312 25.476562 -77.097656 27.40625 -76.328125 C 29.34375 -75.554688 30.984375 -74.445312 32.328125 -73 C 33.671875 -71.5625 34.492188 -69.65625 34.796875 -67.28125 C 34.898438 -66.457031 34.960938 -64.867188 34.984375 -62.515625 C 35.015625 -60.171875 35.03125 -57.390625 35.03125 -54.171875 C 35.03125 -50.953125 35.066406 -47.578125 35.140625 -44.046875 C 35.222656 -40.515625 35.351562 -37.148438 35.53125 -33.953125 C 35.71875 -30.753906 35.988281 -28.046875 36.34375 -25.828125 C 36.65625 -24.128906 37.363281 -22.789062 38.46875 -21.8125 C 39.582031 -20.832031 40.832031 -20.300781 42.21875 -20.21875 C 43.613281 -20.144531 44.90625 -20.582031 46.09375 -21.53125 C 47.28125 -22.488281 48.078125 -24.023438 48.484375 -26.140625 C 48.847656 -27.992188 49.171875 -30.414062 49.453125 -33.40625 C 49.734375 -36.394531 49.953125 -39.664062 50.109375 -43.21875 C 50.265625 -46.78125 50.328125 -50.390625 50.296875 -54.046875 C 50.273438 -57.710938 50.160156 -61.179688 49.953125 -64.453125 C 49.742188 -67.734375 49.410156 -70.53125 48.953125 -72.84375 C 49.984375 -73.875 51.382812 -74.765625 53.15625 -75.515625 C 54.9375 -76.265625 56.9375 -76.78125 59.15625 -77.0625 C 61.375 -77.34375 63.601562 -77.316406 65.84375 -76.984375 C 68.09375 -76.648438 70.195312 -75.925781 72.15625 -74.8125 C 74.113281 -73.707031 75.75 -72.125 77.0625 -70.0625 C 78.375 -68 79.1875 -65.394531 79.5 -62.25 C 79.707031 -60.132812 79.898438 -58.210938 80.078125 -56.484375 C 80.253906 -54.765625 80.378906 -53.015625 80.453125 -51.234375 C 80.535156 -49.453125 80.550781 -47.453125 80.5 -45.234375 C 80.445312 -43.023438 80.304688 -40.398438 80.078125 -37.359375 C 79.847656 -34.316406 79.472656 -30.628906 78.953125 -26.296875 Z M 78.953125 -26.296875 "/></g></g></g><g fill="#6ba39a" fill-opacity="1"><g transform="translate(394.837703, 100.149972)"><g><path d="M 60.390625 -28.765625 C 61.328125 -27.941406 62.4375 -26.664062 63.71875 -24.9375 C 65.007812 -23.207031 66.320312 -21.320312 67.65625 -19.28125 C 69 -17.25 70.210938 -15.304688 71.296875 -13.453125 C 72.378906 -11.597656 73.128906 -10.078125 73.546875 -8.890625 C 73.023438 -6.210938 71.960938 -3.992188 70.359375 -2.234375 C 68.765625 -0.484375 66.832031 0.734375 64.5625 1.421875 C 62.300781 2.117188 59.90625 2.257812 57.375 1.84375 C 54.851562 1.4375 52.378906 0.410156 49.953125 -1.234375 C 47.535156 -2.890625 45.421875 -5.210938 43.609375 -8.203125 C 42.992188 -9.234375 42.285156 -10.351562 41.484375 -11.5625 C 40.691406 -12.769531 39.765625 -14.210938 38.703125 -15.890625 C 37.648438 -17.566406 36.320312 -19.644531 34.71875 -22.125 C 34.507812 -22.425781 34.300781 -22.734375 34.09375 -23.046875 C 33.894531 -23.359375 33.691406 -23.640625 33.484375 -23.890625 C 33.273438 -23.785156 33.09375 -23.734375 32.9375 -23.734375 C 32.9375 -23.066406 32.921875 -22.332031 32.890625 -21.53125 C 32.867188 -20.738281 32.835938 -19.925781 32.796875 -19.09375 C 32.640625 -15.957031 32.441406 -12.816406 32.203125 -9.671875 C 31.972656 -6.523438 31.726562 -4 31.46875 -2.09375 C 30.1875 -0.695312 28.550781 0.304688 26.5625 0.921875 C 24.582031 1.546875 22.46875 1.710938 20.21875 1.421875 C 17.976562 1.140625 15.800781 0.367188 13.6875 -0.890625 C 11.570312 -2.148438 9.710938 -3.941406 8.109375 -6.265625 C 6.515625 -8.585938 5.382812 -11.5 4.71875 -15 C 4.507812 -15.976562 4.328125 -17.578125 4.171875 -19.796875 C 4.015625 -22.015625 3.875 -24.644531 3.75 -27.6875 C 3.625 -30.726562 3.535156 -33.972656 3.484375 -37.421875 C 3.429688 -40.878906 3.414062 -44.359375 3.4375 -47.859375 C 3.46875 -51.367188 3.535156 -54.707031 3.640625 -57.875 C 3.742188 -61.050781 3.910156 -63.875 4.140625 -66.34375 C 4.367188 -68.820312 4.664062 -70.734375 5.03125 -72.078125 C 6.164062 -73.160156 7.929688 -74.175781 10.328125 -75.125 C 12.722656 -76.082031 15.53125 -76.882812 18.75 -77.53125 C 21.976562 -78.175781 25.429688 -78.625 29.109375 -78.875 C 32.796875 -79.132812 36.507812 -79.125 40.25 -78.84375 C 43.988281 -78.5625 47.546875 -77.953125 50.921875 -77.015625 C 54.296875 -76.085938 57.273438 -74.75 59.859375 -73 C 62.328125 -71.351562 64.53125 -69.226562 66.46875 -66.625 C 68.40625 -64.019531 69.910156 -61.128906 70.984375 -57.953125 C 72.066406 -54.785156 72.546875 -51.523438 72.421875 -48.171875 C 72.296875 -44.828125 71.40625 -41.566406 69.75 -38.390625 C 68.101562 -35.222656 65.523438 -32.347656 62.015625 -29.765625 C 61.660156 -29.460938 61.117188 -29.128906 60.390625 -28.765625 Z M 44.3125 -48.5625 C 44.3125 -49.800781 43.875 -50.867188 43 -51.765625 C 42.125 -52.671875 40.925781 -53.226562 39.40625 -53.4375 C 37.882812 -53.644531 36.144531 -53.285156 34.1875 -52.359375 C 34.1875 -50.753906 34.171875 -49.488281 34.140625 -48.5625 C 34.117188 -47.632812 34.132812 -46.5 34.1875 -45.15625 C 34.1875 -45.007812 34.300781 -44.816406 34.53125 -44.578125 C 34.757812 -44.347656 34.953125 -44.234375 35.109375 -44.234375 C 36.085938 -44.234375 37.050781 -44.234375 38 -44.234375 C 38.957031 -44.234375 39.898438 -44.335938 40.828125 -44.546875 C 43.148438 -44.898438 44.3125 -46.238281 44.3125 -48.5625 Z M 44.3125 -48.5625 "/></g></g></g><g fill="#6ba39a" fill-opacity="1"><g transform="translate(471.933798, 100.149972)"><g><path d="M 51.265625 -52.890625 C 48.898438 -53.460938 46.800781 -53.671875 44.96875 -53.515625 C 43.132812 -53.359375 41.160156 -52.609375 39.046875 -51.265625 C 36.316406 -49.566406 34.566406 -47.347656 33.796875 -44.609375 C 33.023438 -41.878906 32.84375 -38.992188 33.25 -35.953125 C 33.664062 -32.910156 34.695312 -30.523438 36.34375 -28.796875 C 38 -27.078125 40.023438 -25.929688 42.421875 -25.359375 C 44.816406 -24.796875 47.328125 -24.695312 49.953125 -25.0625 C 51.710938 -25.3125 53.53125 -25.863281 55.40625 -26.71875 C 57.289062 -27.570312 58.992188 -28.460938 60.515625 -29.390625 C 62.035156 -30.316406 63.101562 -30.957031 63.71875 -31.3125 C 65.882812 -30.90625 67.832031 -29.914062 69.5625 -28.34375 C 71.289062 -26.769531 72.59375 -24.832031 73.46875 -22.53125 C 74.34375 -20.238281 74.613281 -17.804688 74.28125 -15.234375 C 73.945312 -12.660156 72.8125 -10.144531 70.875 -7.6875 C 68.9375 -5.238281 65.984375 -3.085938 62.015625 -1.234375 C 59.953125 -0.253906 57.617188 0.453125 55.015625 0.890625 C 52.421875 1.328125 49.71875 1.554688 46.90625 1.578125 C 44.09375 1.609375 41.34375 1.46875 38.65625 1.15625 C 35.976562 0.851562 33.507812 0.414062 31.25 -0.15625 C 24.539062 -1.90625 19.054688 -4.921875 14.796875 -9.203125 C 10.546875 -13.484375 7.46875 -18.894531 5.5625 -25.4375 C 4.28125 -30.03125 3.613281 -34.617188 3.5625 -39.203125 C 3.507812 -43.796875 4.253906 -48.359375 5.796875 -52.890625 C 7.546875 -58.046875 10.148438 -62.375 13.609375 -65.875 C 17.066406 -69.382812 21.21875 -72.328125 26.0625 -74.703125 C 32.507812 -77.847656 39.597656 -79.28125 47.328125 -79 C 55.054688 -78.71875 63.070312 -76.175781 71.375 -71.375 C 72.144531 -68.4375 72.269531 -65.78125 71.75 -63.40625 C 71.238281 -61.039062 70.285156 -59.003906 68.890625 -57.296875 C 67.503906 -55.597656 65.816406 -54.285156 63.828125 -53.359375 C 61.847656 -52.429688 59.757812 -51.914062 57.5625 -51.8125 C 55.375 -51.707031 53.273438 -52.066406 51.265625 -52.890625 Z M 51.265625 -52.890625 "/></g></g></g><g fill="#6ba39a" fill-opacity="1"><g transform="translate(548.720583, 100.149972)"><g><path d="M 4.25 -17.859375 C 4.144531 -19.617188 4.066406 -21.976562 4.015625 -24.9375 C 3.960938 -27.90625 3.9375 -31.234375 3.9375 -34.921875 C 3.9375 -38.609375 3.972656 -42.421875 4.046875 -46.359375 C 4.128906 -50.304688 4.234375 -54.1875 4.359375 -58 C 4.492188 -61.8125 4.648438 -65.34375 4.828125 -68.59375 C 5.015625 -71.84375 5.234375 -74.550781 5.484375 -76.71875 C 8.066406 -76.96875 11.203125 -77.15625 14.890625 -77.28125 C 18.578125 -77.414062 22.53125 -77.507812 26.75 -77.5625 C 30.976562 -77.613281 35.21875 -77.597656 39.46875 -77.515625 C 43.726562 -77.441406 47.753906 -77.328125 51.546875 -77.171875 C 55.335938 -77.023438 58.597656 -76.847656 61.328125 -76.640625 C 61.785156 -75.960938 62.195312 -74.925781 62.5625 -73.53125 C 62.925781 -72.144531 63.117188 -70.578125 63.140625 -68.828125 C 63.171875 -67.078125 62.953125 -65.296875 62.484375 -63.484375 C 62.023438 -61.679688 61.210938 -60.003906 60.046875 -58.453125 C 58.890625 -56.910156 57.289062 -55.675781 55.25 -54.75 C 53.21875 -53.820312 50.65625 -53.359375 47.5625 -53.359375 C 46.53125 -53.359375 45.578125 -53.359375 44.703125 -53.359375 C 43.828125 -53.359375 42.847656 -53.359375 41.765625 -53.359375 C 40.679688 -53.359375 39.335938 -53.359375 37.734375 -53.359375 C 36.140625 -53.359375 34.101562 -53.359375 31.625 -53.359375 C 31.625 -52.742188 31.625 -52.113281 31.625 -51.46875 C 31.625 -50.820312 31.625 -50.113281 31.625 -49.34375 C 32.757812 -49.34375 34.316406 -49.367188 36.296875 -49.421875 C 38.285156 -49.472656 40.441406 -49.5 42.765625 -49.5 C 45.085938 -49.5 47.367188 -49.394531 49.609375 -49.1875 C 51.847656 -48.976562 53.796875 -48.613281 55.453125 -48.09375 C 56.992188 -44.695312 57.632812 -41.53125 57.375 -38.59375 C 57.125 -35.65625 55.976562 -33.253906 53.9375 -31.390625 C 51.90625 -29.535156 48.976562 -28.503906 45.15625 -28.296875 C 43.875 -28.253906 42.664062 -28.234375 41.53125 -28.234375 C 40.394531 -28.234375 39.078125 -28.242188 37.578125 -28.265625 C 36.085938 -28.285156 34.128906 -28.296875 31.703125 -28.296875 C 31.703125 -27.472656 31.703125 -26.6875 31.703125 -25.9375 C 31.703125 -25.195312 31.703125 -24.414062 31.703125 -23.59375 C 31.960938 -23.59375 32.242188 -23.59375 32.546875 -23.59375 C 32.859375 -23.59375 33.171875 -23.59375 33.484375 -23.59375 C 37.609375 -23.59375 41.742188 -23.59375 45.890625 -23.59375 C 50.046875 -23.59375 54.1875 -23.59375 58.3125 -23.59375 C 59.800781 -21.53125 60.753906 -19.242188 61.171875 -16.734375 C 61.585938 -14.234375 61.40625 -11.796875 60.625 -9.421875 C 59.851562 -7.054688 58.382812 -5.007812 56.21875 -3.28125 C 54.050781 -1.5625 51.140625 -0.46875 47.484375 0 C 46.191406 0.15625 44.445312 0.296875 42.25 0.421875 C 40.0625 0.554688 37.65625 0.632812 35.03125 0.65625 C 32.40625 0.6875 29.789062 0.675781 27.1875 0.625 C 24.582031 0.570312 22.234375 0.46875 20.140625 0.3125 C 18.054688 0.15625 16.445312 -0.0507812 15.3125 -0.3125 C 11.707031 -1.238281 9.039062 -3.078125 7.3125 -5.828125 C 5.582031 -8.585938 4.5625 -12.597656 4.25 -17.859375 Z M 4.25 -17.859375 "/></g></g></g><g fill="#6ba39a" fill-opacity="1"><g transform="translate(613.830824, 100.149972)"><g><path d="M 56.453125 -43.53125 C 60.367188 -41.113281 63.265625 -38.304688 65.140625 -35.109375 C 67.023438 -31.910156 68.046875 -28.582031 68.203125 -25.125 C 68.359375 -21.675781 67.84375 -18.351562 66.65625 -15.15625 C 65.46875 -11.957031 63.753906 -9.132812 61.515625 -6.6875 C 59.273438 -4.238281 56.710938 -2.421875 53.828125 -1.234375 C 51.765625 -0.410156 49.238281 0.28125 46.25 0.84375 C 43.257812 1.414062 40.007812 1.765625 36.5 1.890625 C 33 2.023438 29.40625 1.847656 25.71875 1.359375 C 22.03125 0.867188 18.472656 -0.0195312 15.046875 -1.3125 C 11.617188 -2.601562 8.507812 -4.382812 5.71875 -6.65625 C 4.226562 -8.5625 3.335938 -10.617188 3.046875 -12.828125 C 2.765625 -15.046875 2.984375 -17.171875 3.703125 -19.203125 C 4.429688 -21.242188 5.554688 -22.972656 7.078125 -24.390625 C 8.597656 -25.816406 10.414062 -26.695312 12.53125 -27.03125 C 14.644531 -27.363281 16.960938 -26.910156 19.484375 -25.671875 C 23.148438 -23.867188 26.601562 -22.644531 29.84375 -22 C 33.09375 -21.351562 35.800781 -21.273438 37.96875 -21.765625 C 40.132812 -22.253906 41.425781 -23.273438 41.84375 -24.828125 C 42.25 -26.367188 41.910156 -27.65625 40.828125 -28.6875 C 39.742188 -29.71875 37.757812 -30.335938 34.875 -30.546875 C 31.726562 -30.804688 28.582031 -31.347656 25.4375 -32.171875 C 22.289062 -32.992188 19.351562 -34.191406 16.625 -35.765625 C 13.894531 -37.335938 11.585938 -39.398438 9.703125 -41.953125 C 7.816406 -44.503906 6.566406 -47.582031 5.953125 -51.1875 C 5.742188 -52.476562 5.726562 -54.0625 5.90625 -55.9375 C 6.09375 -57.820312 6.554688 -59.820312 7.296875 -61.9375 C 8.046875 -64.050781 9.179688 -66.140625 10.703125 -68.203125 C 12.222656 -70.265625 14.25 -72.144531 16.78125 -73.84375 C 19.3125 -75.550781 22.429688 -76.894531 26.140625 -77.875 C 28.710938 -78.59375 31.441406 -79.039062 34.328125 -79.21875 C 37.222656 -79.40625 40.097656 -79.367188 42.953125 -79.109375 C 45.816406 -78.847656 48.484375 -78.359375 50.953125 -77.640625 C 53.429688 -76.921875 55.5 -76.019531 57.15625 -74.9375 C 59.832031 -73.132812 61.765625 -71.210938 62.953125 -69.171875 C 64.140625 -67.140625 64.71875 -65.128906 64.6875 -63.140625 C 64.664062 -61.160156 64.1875 -59.304688 63.25 -57.578125 C 62.320312 -55.847656 61.109375 -54.375 59.609375 -53.15625 C 58.117188 -51.945312 56.472656 -51.140625 54.671875 -50.734375 C 53.535156 -52.117188 51.972656 -53.3125 49.984375 -54.3125 C 48.003906 -55.320312 45.867188 -56.097656 43.578125 -56.640625 C 41.285156 -57.179688 39.109375 -57.4375 37.046875 -57.40625 C 34.984375 -57.382812 33.289062 -57.050781 31.96875 -56.40625 C 30.65625 -55.769531 29.972656 -54.78125 29.921875 -53.4375 C 29.921875 -52.613281 30.28125 -51.929688 31 -51.390625 C 31.726562 -50.847656 33.070312 -50.445312 35.03125 -50.1875 C 40.695312 -49.46875 45.332031 -48.398438 48.9375 -46.984375 C 52.550781 -45.566406 55.054688 -44.414062 56.453125 -43.53125 Z M 56.453125 -43.53125 "/></g></g></g></svg>