<svg xmlns="http://www.w3.org/2000/svg" xmlns:xlink="http://www.w3.org/1999/xlink" width="1200" zoomAndPan="magnify" viewBox="0 0 900 119.999999" height="160" preserveAspectRatio="xMidYMid meet" version="1.0"><defs><g/></defs><g fill="#543748" fill-opacity="1"><g transform="translate(9.269536, 104.658296)"><g><path d="M 70.007812 -35.417969 C 71.277344 -34.289062 72.722656 -32.636719 74.34375 -30.464844 C 75.828125 -28.480469 77.335938 -26.320312 78.871094 -23.988281 C 80.402344 -21.664062 81.789062 -19.4375 83.027344 -17.308594 C 84.382812 -14.988281 85.339844 -13.023438 85.898438 -11.417969 L 86.324219 -10.199219 L 86.078125 -8.929688 C 85.335938 -5.074219 83.777344 -1.847656 81.402344 0.761719 C 79.042969 3.347656 76.1875 5.15625 72.839844 6.183594 C 69.613281 7.171875 66.234375 7.378906 62.699219 6.800781 C 59.203125 6.230469 55.820312 4.832031 52.554688 2.609375 C 49.292969 0.390625 46.484375 -2.675781 44.128906 -6.582031 C 43.472656 -7.671875 42.722656 -8.855469 41.878906 -10.140625 C 40.976562 -11.507812 39.933594 -13.132812 38.746094 -15.011719 C 37.585938 -16.851562 36.125 -19.132812 34.367188 -21.855469 L 33.722656 -22.824219 C 33.570312 -23.050781 33.425781 -23.25 33.285156 -23.425781 L 37.039062 -26.433594 L 39.191406 -22.128906 C 38.289062 -21.675781 37.371094 -21.449219 36.441406 -21.449219 L 36.441406 -26.261719 L 41.253906 -26.261719 C 41.253906 -25.46875 41.238281 -24.605469 41.207031 -23.667969 C 41.179688 -22.738281 41.132812 -21.789062 41.074219 -20.828125 C 40.902344 -17.355469 40.6875 -13.855469 40.429688 -10.339844 C 40.164062 -6.761719 39.882812 -3.871094 39.585938 -1.664062 L 39.382812 -0.15625 L 38.347656 0.960938 C 36.339844 3.128906 33.828125 4.679688 30.816406 5.621094 C 27.957031 6.511719 24.9375 6.757812 21.765625 6.355469 C 18.621094 5.957031 15.589844 4.890625 12.671875 3.148438 C 9.734375 1.390625 7.183594 -1.058594 5.019531 -4.199219 C 2.871094 -7.320312 1.359375 -11.152344 0.492188 -15.691406 C 0.230469 -16.933594 0.00390625 -18.890625 -0.179688 -21.566406 C -0.355469 -24.0625 -0.515625 -27.011719 -0.660156 -30.421875 C -0.804688 -33.832031 -0.902344 -37.46875 -0.960938 -41.332031 C -1.019531 -45.1875 -1.035156 -49.074219 -1.003906 -52.988281 C -0.976562 -56.90625 -0.902344 -60.640625 -0.789062 -64.1875 C -0.671875 -67.792969 -0.480469 -71.011719 -0.214844 -73.847656 C 0.0664062 -76.855469 0.445312 -79.234375 0.914062 -80.980469 L 1.265625 -82.277344 L 2.238281 -83.207031 C 3.941406 -84.835938 6.410156 -86.292969 9.640625 -87.578125 C 12.5625 -88.742188 15.949219 -89.707031 19.800781 -90.476562 C 23.566406 -91.230469 27.589844 -91.757812 31.871094 -92.054688 C 36.183594 -92.359375 40.523438 -92.34375 44.890625 -92.011719 C 49.332031 -91.675781 53.574219 -90.953125 57.605469 -89.84375 C 61.855469 -88.675781 65.625 -86.972656 68.917969 -84.734375 C 72.09375 -82.617188 74.917969 -79.894531 77.390625 -76.566406 C 79.828125 -73.285156 81.726562 -69.652344 83.085938 -65.671875 C 84.472656 -61.597656 85.085938 -57.414062 84.921875 -53.109375 C 84.75 -48.683594 83.585938 -44.398438 81.429688 -40.253906 C 79.261719 -36.082031 75.9375 -32.351562 71.457031 -29.058594 L 68.605469 -32.933594 L 71.738281 -29.28125 C 71.039062 -28.683594 70.113281 -28.09375 68.960938 -27.519531 L 66.8125 -31.824219 Z M 63.613281 -28.226562 L 58.300781 -32.949219 L 64.660156 -36.125 C 65.105469 -36.347656 65.375 -36.503906 65.476562 -36.589844 L 65.613281 -36.707031 L 65.757812 -36.8125 C 69.035156 -39.222656 71.414062 -41.847656 72.894531 -44.695312 C 74.386719 -47.5625 75.191406 -50.492188 75.304688 -53.480469 C 75.425781 -56.589844 74.980469 -59.617188 73.976562 -62.5625 C 72.941406 -65.59375 71.503906 -68.351562 69.664062 -70.828125 C 67.855469 -73.261719 65.804688 -75.242188 63.507812 -76.773438 C 61.09375 -78.414062 58.277344 -79.675781 55.054688 -80.5625 C 51.621094 -81.507812 47.988281 -82.125 44.164062 -82.414062 C 40.261719 -82.710938 36.386719 -82.722656 32.542969 -82.457031 C 28.671875 -82.183594 25.050781 -81.714844 21.6875 -81.039062 C 18.410156 -80.382812 15.582031 -79.582031 13.199219 -78.636719 C 11.125 -77.8125 9.6875 -77.015625 8.882812 -76.246094 L 5.558594 -79.726562 L 10.207031 -78.476562 C 9.878906 -77.257812 9.597656 -75.414062 9.367188 -72.949219 C 9.121094 -70.308594 8.941406 -67.285156 8.828125 -63.875 C 8.71875 -60.40625 8.648438 -56.753906 8.617188 -52.917969 C 8.589844 -49.074219 8.605469 -45.261719 8.660156 -41.476562 C 8.71875 -37.699219 8.816406 -34.148438 8.957031 -30.828125 C 9.097656 -27.507812 9.25 -24.644531 9.417969 -22.234375 C 9.574219 -20.003906 9.75 -18.425781 9.945312 -17.5 C 10.558594 -14.285156 11.558594 -11.671875 12.945312 -9.660156 C 14.316406 -7.667969 15.871094 -6.152344 17.609375 -5.113281 C 19.371094 -4.0625 21.160156 -3.421875 22.972656 -3.191406 C 24.761719 -2.964844 26.421875 -3.089844 27.953125 -3.566406 C 29.332031 -3.996094 30.441406 -4.667969 31.285156 -5.578125 L 34.816406 -2.308594 L 30.046875 -2.953125 C 30.320312 -4.96875 30.582031 -7.664062 30.832031 -11.046875 C 31.085938 -14.488281 31.296875 -17.949219 31.46875 -21.429688 C 31.523438 -22.292969 31.5625 -23.144531 31.589844 -23.980469 C 31.617188 -24.8125 31.628906 -25.574219 31.628906 -26.261719 L 31.628906 -31.074219 L 36.441406 -31.074219 C 35.855469 -31.074219 35.339844 -30.960938 34.890625 -30.738281 L 38.367188 -32.476562 L 40.796875 -29.4375 C 41.113281 -29.046875 41.421875 -28.621094 41.730469 -28.160156 L 42.453125 -27.078125 C 44.230469 -24.324219 45.707031 -22.015625 46.886719 -20.148438 C 48.035156 -18.320312 49.046875 -16.75 49.910156 -15.4375 C 50.832031 -14.042969 51.652344 -12.746094 52.367188 -11.554688 C 54 -8.847656 55.867188 -6.777344 57.96875 -5.347656 C 60.0625 -3.921875 62.15625 -3.039062 64.25 -2.695312 C 66.304688 -2.359375 68.226562 -2.46875 70.019531 -3.019531 C 71.6875 -3.53125 73.113281 -4.433594 74.289062 -5.722656 C 75.449219 -6.992188 76.226562 -8.667969 76.628906 -10.746094 L 81.351562 -9.835938 L 76.808594 -8.257812 C 76.453125 -9.273438 75.757812 -10.675781 74.714844 -12.460938 C 73.5625 -14.4375 72.269531 -16.519531 70.832031 -18.699219 C 69.402344 -20.871094 68 -22.875 66.632812 -24.710938 C 65.402344 -26.359375 64.394531 -27.53125 63.613281 -28.226562 Z M 44.207031 -53.722656 C 44.207031 -53.789062 44.175781 -53.855469 44.113281 -53.917969 C 43.914062 -54.121094 43.523438 -54.265625 42.9375 -54.34375 C 42.199219 -54.445312 41.175781 -54.183594 39.871094 -53.566406 L 37.8125 -57.914062 L 42.621094 -57.914062 C 42.621094 -56.101562 42.609375 -54.660156 42.578125 -53.589844 C 42.550781 -52.667969 42.566406 -51.519531 42.621094 -50.144531 L 42.621094 -49.957031 C 42.621094 -50.761719 42.425781 -51.492188 42.035156 -52.144531 C 41.894531 -52.378906 41.75 -52.566406 41.597656 -52.71875 C 41.449219 -52.871094 41.257812 -53.015625 41.023438 -53.152344 C 40.371094 -53.546875 39.640625 -53.742188 38.835938 -53.742188 L 42.046875 -53.742188 C 42.75 -53.742188 43.441406 -53.820312 44.125 -53.972656 L 44.273438 -54.003906 L 44.429688 -54.027344 C 44.589844 -54.054688 44.695312 -54.078125 44.738281 -54.097656 C 44.632812 -54.046875 44.523438 -53.957031 44.417969 -53.835938 C 44.304688 -53.703125 44.230469 -53.578125 44.191406 -53.453125 C 44.199219 -53.488281 44.207031 -53.578125 44.207031 -53.722656 Z M 53.828125 -53.722656 C 53.828125 -51.242188 53.117188 -49.183594 51.695312 -47.535156 C 50.28125 -45.90625 48.351562 -44.898438 45.90625 -44.519531 L 45.167969 -49.273438 L 46.210938 -44.578125 C 44.839844 -44.273438 43.453125 -44.121094 42.046875 -44.121094 L 38.835938 -44.121094 C 37.335938 -44.121094 35.988281 -44.71875 34.792969 -45.914062 C 33.597656 -47.109375 33 -48.457031 33 -49.957031 L 37.8125 -49.957031 L 33.003906 -49.773438 C 32.941406 -51.363281 32.925781 -52.722656 32.957031 -53.855469 C 32.984375 -54.835938 33 -56.191406 33 -57.914062 L 33 -60.960938 L 35.75 -62.261719 C 38.777344 -63.695312 41.605469 -64.234375 44.230469 -63.878906 C 47.011719 -63.503906 49.273438 -62.417969 51.015625 -60.625 C 52.890625 -58.695312 53.828125 -56.394531 53.828125 -53.722656 Z M 53.828125 -53.722656 "/></g></g></g><g fill="#543748" fill-opacity="1"><g transform="translate(94.551957, 104.658296)"><g><path d="M -0.0976562 -19.476562 C -0.214844 -21.484375 -0.304688 -24.160156 -0.363281 -27.503906 C -0.421875 -30.8125 -0.449219 -34.519531 -0.449219 -38.625 C -0.449219 -42.734375 -0.40625 -46.984375 -0.320312 -51.378906 C -0.234375 -55.765625 -0.121094 -60.078125 0.0234375 -64.320312 C 0.167969 -68.578125 0.339844 -72.519531 0.542969 -76.144531 C 0.746094 -79.839844 1 -82.933594 1.296875 -85.429688 L 1.753906 -89.265625 L 5.59375 -89.648438 C 8.550781 -89.945312 12.117188 -90.164062 16.300781 -90.3125 C 20.414062 -90.453125 24.828125 -90.554688 29.539062 -90.613281 C 34.265625 -90.671875 39.003906 -90.65625 43.757812 -90.570312 C 48.5 -90.484375 52.984375 -90.355469 57.210938 -90.183594 C 61.457031 -90.007812 65.121094 -89.804688 68.199219 -89.574219 L 70.488281 -89.402344 L 71.792969 -87.515625 C 72.632812 -86.304688 73.320312 -84.652344 73.863281 -82.5625 C 74.359375 -80.648438 74.625 -78.53125 74.660156 -76.207031 C 74.695312 -73.835938 74.402344 -71.445312 73.78125 -69.035156 C 73.109375 -66.421875 71.941406 -64.003906 70.273438 -61.785156 C 68.5 -59.417969 66.113281 -57.554688 63.117188 -56.1875 C 60.230469 -54.871094 56.726562 -54.214844 52.609375 -54.214844 L 34.988281 -54.214844 L 34.988281 -59.027344 L 39.800781 -59.027344 L 39.800781 -54.578125 L 34.988281 -54.578125 L 34.988281 -59.390625 C 36.199219 -59.390625 37.882812 -59.417969 40.039062 -59.472656 C 42.277344 -59.53125 44.699219 -59.5625 47.304688 -59.5625 C 50.019531 -59.5625 52.691406 -59.441406 55.316406 -59.199219 C 58.136719 -58.9375 60.621094 -58.472656 62.769531 -57.800781 L 64.824219 -57.160156 L 65.714844 -55.199219 C 67.777344 -50.667969 68.625 -46.355469 68.269531 -42.265625 C 67.875 -37.769531 66.085938 -34.070312 62.910156 -31.175781 C 59.8125 -28.351562 55.582031 -26.792969 50.21875 -26.503906 C 48.683594 -26.441406 47.257812 -26.410156 45.9375 -26.410156 C 44.65625 -26.410156 43.171875 -26.425781 41.492188 -26.457031 C 39.867188 -26.484375 37.726562 -26.496094 35.074219 -26.496094 L 35.074219 -31.308594 L 39.886719 -31.308594 L 39.886719 -26.089844 L 35.074219 -26.089844 L 35.074219 -30.902344 L 66.957031 -30.902344 L 68.398438 -28.914062 C 70.496094 -26.019531 71.835938 -22.816406 72.414062 -19.304688 C 72.996094 -15.765625 72.742188 -12.3125 71.640625 -8.945312 C 70.488281 -5.40625 68.339844 -2.382812 65.191406 0.125 C 62.09375 2.597656 58.070312 4.148438 53.128906 4.773438 C 51.585938 4.960938 49.554688 5.125 47.03125 5.273438 C 44.53125 5.421875 41.785156 5.507812 38.800781 5.539062 C 35.84375 5.566406 32.902344 5.554688 29.972656 5.496094 C 27.007812 5.4375 24.324219 5.320312 21.929688 5.140625 C 19.378906 4.953125 17.359375 4.6875 15.871094 4.351562 L 15.804688 4.335938 L 15.738281 4.316406 C 10.507812 2.972656 6.597656 0.230469 4.003906 -3.90625 C 1.660156 -7.652344 0.292969 -12.84375 -0.0976562 -19.476562 Z M 9.507812 -20.042969 C 9.800781 -15.046875 10.6875 -11.367188 12.164062 -9.011719 C 13.394531 -7.046875 15.382812 -5.710938 18.136719 -5.003906 L 16.9375 -0.34375 L 18.003906 -5.035156 C 19.023438 -4.800781 20.570312 -4.609375 22.640625 -4.457031 C 24.863281 -4.292969 27.371094 -4.183594 30.164062 -4.125 C 32.996094 -4.070312 35.84375 -4.054688 38.703125 -4.085938 C 41.535156 -4.113281 44.121094 -4.195312 46.46875 -4.332031 C 48.792969 -4.46875 50.613281 -4.617188 51.917969 -4.773438 C 55.074219 -5.171875 57.5 -6.046875 59.191406 -7.398438 C 60.835938 -8.707031 61.933594 -10.21875 62.492188 -11.929688 C 63.105469 -13.808594 63.246094 -15.742188 62.917969 -17.738281 C 62.585938 -19.753906 61.8125 -21.597656 60.605469 -23.265625 L 64.5 -26.089844 L 64.5 -21.28125 L 30.261719 -21.28125 L 30.261719 -36.121094 L 35.074219 -36.121094 C 37.78125 -36.121094 39.976562 -36.105469 41.65625 -36.078125 C 43.285156 -36.050781 44.710938 -36.035156 45.9375 -36.035156 C 47.128906 -36.035156 48.382812 -36.0625 49.699219 -36.113281 C 52.777344 -36.28125 55.019531 -37.003906 56.425781 -38.289062 C 57.753906 -39.496094 58.503906 -41.105469 58.679688 -43.109375 C 58.890625 -45.519531 58.316406 -48.222656 56.957031 -51.21875 L 61.335938 -53.210938 L 59.902344 -48.617188 C 58.398438 -49.085938 56.578125 -49.417969 54.4375 -49.613281 C 52.101562 -49.828125 49.726562 -49.9375 47.304688 -49.9375 C 44.78125 -49.9375 42.441406 -49.910156 40.289062 -49.851562 C 38.050781 -49.792969 36.285156 -49.765625 34.988281 -49.765625 L 30.175781 -49.765625 L 30.175781 -63.839844 L 52.609375 -63.839844 C 55.335938 -63.839844 57.507812 -64.207031 59.125 -64.945312 C 60.632812 -65.632812 61.785156 -66.503906 62.574219 -67.558594 C 63.476562 -68.761719 64.105469 -70.050781 64.460938 -71.429688 C 64.867188 -73.011719 65.058594 -74.554688 65.035156 -76.0625 C 65.011719 -77.617188 64.851562 -78.980469 64.546875 -80.144531 C 64.292969 -81.132812 64.070312 -81.761719 63.882812 -82.035156 L 67.835938 -84.773438 L 67.476562 -79.976562 C 64.507812 -80.199219 60.957031 -80.398438 56.820312 -80.566406 C 52.664062 -80.734375 48.253906 -80.863281 43.582031 -80.949219 C 38.925781 -81.03125 34.285156 -81.046875 29.65625 -80.988281 C 25.015625 -80.933594 20.675781 -80.835938 16.636719 -80.691406 C 12.660156 -80.554688 9.300781 -80.347656 6.550781 -80.074219 L 6.074219 -84.859375 L 10.851562 -84.292969 C 10.578125 -81.996094 10.34375 -79.101562 10.152344 -75.613281 C 9.953125 -72.054688 9.785156 -68.183594 9.640625 -63.996094 C 9.5 -59.796875 9.386719 -55.53125 9.300781 -51.191406 C 9.21875 -46.859375 9.175781 -42.667969 9.175781 -38.625 C 9.175781 -34.574219 9.203125 -30.921875 9.257812 -27.671875 C 9.316406 -24.460938 9.398438 -21.917969 9.507812 -20.042969 Z M 9.507812 -20.042969 "/></g></g></g><g fill="#543748" fill-opacity="1"><g transform="translate(166.575825, 104.658296)"><g><path d="M 96.34375 -87.386719 C 99.554688 -88.957031 102.882812 -90.039062 106.332031 -90.628906 C 109.863281 -91.234375 113.253906 -91.265625 116.5 -90.71875 C 119.949219 -90.136719 123.023438 -88.867188 125.710938 -86.914062 C 128.554688 -84.851562 130.660156 -82.070312 132.027344 -78.574219 C 133.347656 -75.199219 133.734375 -71.203125 133.179688 -66.582031 C 132.882812 -64.085938 132.398438 -61.015625 131.722656 -57.378906 C 131.058594 -53.796875 130.28125 -49.929688 129.386719 -45.78125 C 128.496094 -41.640625 127.53125 -37.398438 126.496094 -33.058594 C 125.464844 -28.722656 124.414062 -24.503906 123.351562 -20.394531 C 122.285156 -16.273438 121.261719 -12.511719 120.28125 -9.105469 C 119.28125 -5.640625 118.367188 -2.75 117.535156 -0.425781 L 116.734375 1.796875 L 114.484375 2.523438 C 112.5 3.167969 110.160156 3.878906 107.460938 4.664062 C 104.617188 5.488281 101.585938 6.160156 98.367188 6.675781 C 95.003906 7.214844 91.609375 7.390625 88.1875 7.199219 C 84.550781 6.996094 81.089844 6.203125 77.8125 4.816406 C 74.3125 3.335938 71.242188 0.976562 68.597656 -2.261719 C 66.027344 -5.417969 64.054688 -9.550781 62.675781 -14.660156 C 61.953125 -17.382812 61.390625 -19.929688 60.996094 -22.304688 C 60.605469 -24.636719 60.277344 -27.152344 60.011719 -29.851562 C 59.757812 -32.429688 59.429688 -35.535156 59.03125 -39.167969 L 63.816406 -39.691406 L 63.816406 -34.882812 L 62.789062 -34.882812 L 62.789062 -39.691406 L 67.566406 -39.105469 L 65.425781 -21.699219 C 64.628906 -15.207031 63.796875 -8.734375 62.941406 -2.273438 L 62.542969 0.734375 L 59.652344 1.667969 C 57.660156 2.3125 55.339844 3.015625 52.691406 3.769531 C 49.917969 4.5625 46.957031 5.21875 43.804688 5.734375 C 40.523438 6.269531 37.210938 6.472656 33.867188 6.347656 C 30.359375 6.214844 26.953125 5.570312 23.644531 4.414062 C 20.125 3.179688 16.9375 1.175781 14.089844 -1.601562 C 11.277344 -4.347656 8.949219 -7.964844 7.097656 -12.453125 C 6.0625 -14.980469 5.171875 -18.199219 4.425781 -22.109375 C 3.722656 -25.800781 3.082031 -29.917969 2.5 -34.460938 C 1.921875 -38.945312 1.378906 -43.644531 0.859375 -48.554688 C 0.34375 -53.449219 -0.140625 -58.3125 -0.597656 -63.148438 C -1.050781 -67.929688 -1.53125 -72.4375 -2.039062 -76.671875 L -2.15625 -77.648438 L -1.882812 -78.589844 C -1.101562 -81.289062 0.488281 -83.648438 2.882812 -85.671875 C 4.96875 -87.433594 7.40625 -88.824219 10.191406 -89.847656 C 12.941406 -90.859375 15.808594 -91.398438 18.792969 -91.46875 C 21.863281 -91.539062 24.796875 -91.054688 27.597656 -90.011719 C 30.675781 -88.867188 33.246094 -86.96875 35.320312 -84.3125 C 37.390625 -81.652344 38.648438 -78.269531 39.089844 -74.167969 C 40.1875 -64.210938 40.78125 -55.417969 40.867188 -47.789062 C 40.953125 -40.488281 41.269531 -34.496094 41.820312 -29.820312 L 37.039062 -29.257812 L 37.039062 -34.066406 L 37.894531 -34.066406 L 37.894531 -29.257812 L 33.21875 -30.386719 L 35.613281 -40.308594 L 38.003906 -50.386719 C 38.761719 -53.410156 39.613281 -56.703125 40.558594 -60.261719 L 43.339844 -70.703125 C 44.261719 -74.148438 45.09375 -77.191406 45.839844 -79.839844 C 46.574219 -82.433594 47.082031 -84.261719 47.359375 -85.316406 L 48.011719 -87.792969 L 50.429688 -88.636719 C 51.898438 -89.144531 53.683594 -89.648438 55.785156 -90.144531 C 58.003906 -90.664062 60.355469 -90.992188 62.839844 -91.121094 C 65.492188 -91.257812 68.070312 -91.03125 70.566406 -90.441406 C 73.367188 -89.78125 75.871094 -88.519531 78.078125 -86.660156 C 80.429688 -84.679688 82.144531 -81.921875 83.21875 -78.390625 C 85.40625 -71.433594 87.550781 -63.804688 89.652344 -55.503906 C 91.726562 -47.316406 93.960938 -38.816406 96.347656 -30 L 91.703125 -28.742188 L 90.183594 -33.308594 C 90.847656 -33.53125 91.613281 -33.640625 92.472656 -33.640625 L 92.472656 -28.828125 L 87.734375 -29.652344 C 88.179688 -32.210938 88.636719 -35.308594 89.113281 -38.949219 C 89.59375 -42.621094 90.0625 -46.535156 90.511719 -50.691406 L 91.839844 -63.167969 C 92.261719 -67.273438 92.628906 -71.078125 92.941406 -74.59375 C 93.253906 -78.101562 93.492188 -81.039062 93.664062 -83.40625 L 93.859375 -86.167969 Z M 100.578125 -78.742188 L 98.460938 -83.0625 L 103.261719 -82.722656 C 103.089844 -80.296875 102.84375 -77.304688 102.527344 -73.742188 C 102.210938 -70.183594 101.839844 -66.320312 101.40625 -62.152344 L 100.082031 -49.652344 C 99.621094 -45.425781 99.144531 -41.441406 98.65625 -37.699219 C 98.164062 -33.925781 97.683594 -30.695312 97.214844 -28.003906 L 96.519531 -24.015625 L 92.472656 -24.015625 C 92.652344 -24.015625 92.902344 -24.070312 93.226562 -24.179688 L 88.390625 -22.566406 L 87.058594 -27.484375 C 84.65625 -36.351562 82.414062 -44.902344 80.324219 -53.140625 C 78.265625 -61.265625 76.160156 -68.746094 74.011719 -75.589844 C 73.492188 -77.304688 72.78125 -78.539062 71.878906 -79.296875 C 70.839844 -80.175781 69.664062 -80.765625 68.355469 -81.074219 C 66.75 -81.457031 65.078125 -81.601562 63.339844 -81.507812 C 61.429688 -81.410156 59.648438 -81.164062 57.988281 -80.777344 C 56.210938 -80.355469 54.746094 -79.949219 53.59375 -79.546875 L 52.011719 -84.089844 L 56.664062 -82.867188 C 56.371094 -81.753906 55.851562 -79.875 55.101562 -77.222656 C 54.367188 -74.621094 53.546875 -71.621094 52.640625 -68.222656 L 49.859375 -57.789062 C 48.925781 -54.277344 48.09375 -51.066406 47.367188 -48.164062 L 44.96875 -38.050781 L 41.683594 -24.445312 L 32.761719 -24.445312 L 32.261719 -28.695312 C 31.671875 -33.710938 31.332031 -40.039062 31.246094 -47.679688 C 31.160156 -54.992188 30.585938 -63.480469 29.519531 -73.140625 C 29.273438 -75.425781 28.675781 -77.175781 27.726562 -78.394531 C 26.777344 -79.617188 25.613281 -80.480469 24.242188 -80.992188 C 22.597656 -81.605469 20.855469 -81.890625 19.015625 -81.847656 C 17.097656 -81.800781 15.257812 -81.457031 13.507812 -80.8125 C 11.785156 -80.183594 10.316406 -79.351562 9.09375 -78.320312 C 8.179688 -77.546875 7.601562 -76.742188 7.359375 -75.90625 L 2.738281 -77.246094 L 7.515625 -77.820312 C 8.03125 -73.503906 8.523438 -68.914062 8.980469 -64.054688 C 9.4375 -59.253906 9.921875 -54.421875 10.429688 -49.5625 C 10.941406 -44.722656 11.476562 -40.097656 12.042969 -35.683594 C 12.601562 -31.332031 13.214844 -27.410156 13.878906 -23.910156 C 14.503906 -20.636719 15.210938 -18.039062 15.996094 -16.117188 C 17.34375 -12.851562 18.945312 -10.308594 20.8125 -8.492188 C 22.640625 -6.707031 24.644531 -5.433594 26.824219 -4.671875 C 29.222656 -3.832031 31.6875 -3.363281 34.226562 -3.269531 C 36.929688 -3.167969 39.605469 -3.332031 42.253906 -3.765625 C 45.035156 -4.21875 47.632812 -4.792969 50.046875 -5.480469 C 52.589844 -6.207031 54.804688 -6.875 56.6875 -7.488281 L 58.171875 -2.910156 L 53.402344 -3.542969 C 54.253906 -9.972656 55.078125 -16.414062 55.875 -22.871094 L 58.53125 -44.503906 L 68.132812 -44.503906 L 68.601562 -40.214844 C 69 -36.550781 69.332031 -33.410156 69.589844 -30.800781 C 69.835938 -28.3125 70.132812 -26.007812 70.488281 -23.886719 C 70.832031 -21.816406 71.328125 -19.574219 71.96875 -17.164062 C 72.988281 -13.375 74.351562 -10.4375 76.058594 -8.34375 C 77.691406 -6.339844 79.527344 -4.90625 81.558594 -4.046875 C 83.8125 -3.09375 86.199219 -2.550781 88.71875 -2.410156 C 91.457031 -2.257812 94.164062 -2.394531 96.84375 -2.828125 C 99.671875 -3.28125 102.316406 -3.863281 104.777344 -4.578125 C 107.382812 -5.335938 109.632812 -6.019531 111.523438 -6.632812 L 113.003906 -2.054688 L 108.476562 -3.679688 C 109.238281 -5.804688 110.09375 -8.503906 111.03125 -11.769531 C 111.992188 -15.089844 112.992188 -18.769531 114.035156 -22.804688 C 115.082031 -26.851562 116.117188 -31.015625 117.136719 -35.292969 C 118.152344 -39.5625 119.101562 -43.734375 119.976562 -47.804688 C 120.851562 -51.867188 121.613281 -55.644531 122.261719 -59.132812 C 122.898438 -62.566406 123.351562 -65.429688 123.625 -67.722656 C 123.984375 -70.746094 123.800781 -73.191406 123.066406 -75.066406 C 122.382812 -76.8125 121.378906 -78.167969 120.058594 -79.128906 C 118.585938 -80.195312 116.867188 -80.894531 114.902344 -81.226562 C 112.730469 -81.59375 110.414062 -81.566406 107.957031 -81.144531 C 105.417969 -80.710938 102.960938 -79.910156 100.578125 -78.742188 Z M 100.578125 -78.742188 "/></g></g></g><g fill="#543748" fill-opacity="1"><g transform="translate(297.108391, 104.658296)"><g><path d="M -3.433594 -26.777344 C -2.734375 -30.292969 -1.8125 -34.21875 -0.675781 -38.558594 C 0.453125 -42.878906 1.730469 -47.3125 3.148438 -51.863281 C 4.5625 -56.386719 6.003906 -60.769531 7.472656 -65.007812 C 8.953125 -69.273438 10.40625 -73.179688 11.832031 -76.730469 C 13.285156 -80.347656 14.585938 -83.277344 15.738281 -85.519531 L 16.625 -87.246094 L 18.460938 -87.875 C 20.984375 -88.734375 23.96875 -89.527344 27.410156 -90.253906 C 30.949219 -91 34.691406 -91.417969 38.640625 -91.511719 C 42.777344 -91.605469 46.875 -91.074219 50.9375 -89.914062 C 55.214844 -88.691406 59.132812 -86.539062 62.695312 -83.449219 C 66.292969 -80.324219 69.207031 -76.042969 71.433594 -70.601562 C 72.390625 -68.210938 73.480469 -65.191406 74.707031 -61.542969 C 75.921875 -57.933594 77.191406 -53.9375 78.515625 -49.554688 C 79.839844 -45.179688 81.136719 -40.675781 82.402344 -36.042969 C 83.667969 -31.40625 84.835938 -26.882812 85.902344 -22.472656 C 86.980469 -18.011719 87.84375 -13.933594 88.488281 -10.238281 L 88.605469 -9.5625 L 88.53125 -8.878906 C 88.242188 -6.273438 87.015625 -3.824219 84.851562 -1.53125 C 83.019531 0.414062 80.738281 2.039062 78.003906 3.351562 C 75.351562 4.628906 72.503906 5.472656 69.464844 5.878906 C 66.246094 6.316406 63.054688 6.0625 59.886719 5.128906 C 56.539062 4.140625 53.554688 2.242188 50.933594 -0.566406 C 48.390625 -3.289062 46.441406 -6.953125 45.085938 -11.558594 L 49.703125 -12.917969 L 49.496094 -8.109375 C 46.917969 -8.21875 44.222656 -8.246094 41.414062 -8.191406 C 38.4375 -8.132812 35.550781 -8.132812 32.75 -8.191406 L 32.847656 -13.003906 L 37.285156 -11.140625 C 36.605469 -9.515625 35.957031 -7.722656 35.347656 -5.757812 C 34.707031 -3.6875 34.074219 -1.5625 33.460938 0.621094 L 32.792969 2.980469 L 30.496094 3.828125 C 24.492188 6.046875 19.152344 6.832031 14.476562 6.175781 C 9.5 5.480469 5.445312 3.511719 2.3125 0.261719 C -0.710938 -2.871094 -2.703125 -6.871094 -3.652344 -11.738281 C -4.542969 -16.277344 -4.472656 -21.273438 -3.445312 -26.726562 Z M 6.011719 -24.945312 C 5.214844 -20.703125 5.140625 -16.914062 5.792969 -13.585938 C 6.378906 -10.578125 7.527344 -8.191406 9.238281 -6.421875 C 10.835938 -4.765625 13.023438 -3.742188 15.808594 -3.355469 C 18.886719 -2.925781 22.671875 -3.539062 27.160156 -5.199219 L 28.828125 -0.683594 L 24.199219 -1.992188 C 24.835938 -4.253906 25.488281 -6.464844 26.160156 -8.613281 C 26.859375 -10.871094 27.609375 -12.953125 28.410156 -14.863281 L 29.675781 -17.882812 L 32.949219 -17.8125 C 35.621094 -17.757812 38.378906 -17.757812 41.222656 -17.8125 C 44.230469 -17.871094 47.125 -17.84375 49.90625 -17.726562 L 53.347656 -17.578125 L 54.316406 -14.273438 C 55.242188 -11.125 56.460938 -8.746094 57.964844 -7.132812 C 59.394531 -5.605469 60.941406 -4.59375 62.613281 -4.101562 C 64.464844 -3.554688 66.320312 -3.40625 68.179688 -3.65625 C 70.210938 -3.929688 72.097656 -4.484375 73.835938 -5.320312 C 75.496094 -6.117188 76.835938 -7.054688 77.851562 -8.136719 C 78.542969 -8.867188 78.914062 -9.46875 78.964844 -9.941406 L 83.75 -9.410156 L 79.007812 -8.582031 C 78.398438 -12.074219 77.578125 -15.949219 76.546875 -20.210938 C 75.503906 -24.527344 74.359375 -28.960938 73.117188 -33.503906 C 71.875 -38.054688 70.605469 -42.476562 69.304688 -46.769531 C 68.007812 -51.054688 66.769531 -54.957031 65.585938 -58.476562 C 64.417969 -61.957031 63.398438 -64.78125 62.527344 -66.953125 C 60.878906 -70.980469 58.832031 -74.054688 56.386719 -76.179688 C 53.898438 -78.335938 51.203125 -79.832031 48.292969 -80.660156 C 45.171875 -81.554688 42.027344 -81.964844 38.863281 -81.890625 C 35.511719 -81.8125 32.351562 -81.460938 29.390625 -80.835938 C 26.332031 -80.191406 23.726562 -79.503906 21.574219 -78.765625 L 20.015625 -83.320312 L 24.296875 -81.121094 C 23.28125 -79.144531 22.101562 -76.484375 20.761719 -73.144531 C 19.394531 -69.738281 17.996094 -65.972656 16.566406 -61.855469 C 15.128906 -57.710938 13.71875 -53.425781 12.335938 -48.996094 C 10.960938 -44.589844 9.726562 -40.296875 8.632812 -36.121094 C 7.542969 -31.964844 6.667969 -28.21875 6 -24.890625 Z M 36.183594 -42.28125 L 46.707031 -42.28125 L 46.707031 -37.46875 L 42.019531 -36.390625 C 41.226562 -39.835938 40.40625 -43.242188 39.5625 -46.601562 C 38.699219 -50.019531 37.863281 -53.457031 37.058594 -56.90625 L 41.746094 -58 L 43.269531 -53.433594 C 42.601562 -53.210938 41.839844 -53.101562 40.976562 -53.101562 L 40.976562 -57.914062 L 45.675781 -56.878906 C 44.925781 -53.476562 44.132812 -50.074219 43.296875 -46.671875 C 42.476562 -43.335938 41.671875 -39.914062 40.878906 -36.410156 L 36.183594 -37.46875 Z M 36.183594 -32.65625 L 30.164062 -32.65625 L 31.492188 -38.527344 C 32.296875 -42.09375 33.117188 -45.574219 33.949219 -48.96875 C 34.769531 -52.296875 35.542969 -55.621094 36.277344 -58.949219 L 37.109375 -62.726562 L 40.976562 -62.726562 C 40.796875 -62.726562 40.546875 -62.671875 40.222656 -62.566406 L 45.234375 -64.234375 L 46.433594 -59.09375 C 47.222656 -55.699219 48.042969 -52.320312 48.894531 -48.953125 C 49.757812 -45.527344 50.589844 -42.058594 51.398438 -38.546875 L 52.75 -32.65625 Z M 36.183594 -32.65625 "/></g></g></g><g fill="#543748" fill-opacity="1"><g transform="translate(382.048678, 104.658296)"><g><path d="M 70.007812 -35.417969 C 71.277344 -34.289062 72.722656 -32.636719 74.34375 -30.464844 C 75.828125 -28.480469 77.335938 -26.320312 78.871094 -23.988281 C 80.402344 -21.664062 81.789062 -19.4375 83.027344 -17.308594 C 84.382812 -14.988281 85.339844 -13.023438 85.898438 -11.417969 L 86.324219 -10.199219 L 86.078125 -8.929688 C 85.335938 -5.074219 83.777344 -1.847656 81.402344 0.761719 C 79.042969 3.347656 76.1875 5.15625 72.839844 6.183594 C 69.613281 7.171875 66.234375 7.378906 62.699219 6.800781 C 59.203125 6.230469 55.820312 4.832031 52.554688 2.609375 C 49.292969 0.390625 46.484375 -2.675781 44.128906 -6.582031 C 43.472656 -7.671875 42.722656 -8.855469 41.878906 -10.140625 C 40.976562 -11.507812 39.933594 -13.132812 38.746094 -15.011719 C 37.585938 -16.851562 36.125 -19.132812 34.367188 -21.855469 L 33.722656 -22.824219 C 33.570312 -23.050781 33.425781 -23.25 33.285156 -23.425781 L 37.039062 -26.433594 L 39.191406 -22.128906 C 38.289062 -21.675781 37.371094 -21.449219 36.441406 -21.449219 L 36.441406 -26.261719 L 41.253906 -26.261719 C 41.253906 -25.46875 41.238281 -24.605469 41.207031 -23.667969 C 41.179688 -22.738281 41.132812 -21.789062 41.074219 -20.828125 C 40.902344 -17.355469 40.6875 -13.855469 40.429688 -10.339844 C 40.164062 -6.761719 39.882812 -3.871094 39.585938 -1.664062 L 39.382812 -0.15625 L 38.347656 0.960938 C 36.339844 3.128906 33.828125 4.679688 30.816406 5.621094 C 27.957031 6.511719 24.9375 6.757812 21.765625 6.355469 C 18.621094 5.957031 15.589844 4.890625 12.671875 3.148438 C 9.734375 1.390625 7.183594 -1.058594 5.019531 -4.199219 C 2.871094 -7.320312 1.359375 -11.152344 0.492188 -15.691406 C 0.230469 -16.933594 0.00390625 -18.890625 -0.179688 -21.566406 C -0.355469 -24.0625 -0.515625 -27.011719 -0.660156 -30.421875 C -0.804688 -33.832031 -0.902344 -37.46875 -0.960938 -41.332031 C -1.019531 -45.1875 -1.035156 -49.074219 -1.003906 -52.988281 C -0.976562 -56.90625 -0.902344 -60.640625 -0.789062 -64.1875 C -0.671875 -67.792969 -0.480469 -71.011719 -0.214844 -73.847656 C 0.0664062 -76.855469 0.445312 -79.234375 0.914062 -80.980469 L 1.265625 -82.277344 L 2.238281 -83.207031 C 3.941406 -84.835938 6.410156 -86.292969 9.640625 -87.578125 C 12.5625 -88.742188 15.949219 -89.707031 19.800781 -90.476562 C 23.566406 -91.230469 27.589844 -91.757812 31.871094 -92.054688 C 36.183594 -92.359375 40.523438 -92.34375 44.890625 -92.011719 C 49.332031 -91.675781 53.574219 -90.953125 57.605469 -89.84375 C 61.855469 -88.675781 65.625 -86.972656 68.917969 -84.734375 C 72.09375 -82.617188 74.917969 -79.894531 77.390625 -76.566406 C 79.828125 -73.285156 81.726562 -69.652344 83.085938 -65.671875 C 84.472656 -61.597656 85.085938 -57.414062 84.921875 -53.109375 C 84.75 -48.683594 83.585938 -44.398438 81.429688 -40.253906 C 79.261719 -36.082031 75.9375 -32.351562 71.457031 -29.058594 L 68.605469 -32.933594 L 71.738281 -29.28125 C 71.039062 -28.683594 70.113281 -28.09375 68.960938 -27.519531 L 66.8125 -31.824219 Z M 63.613281 -28.226562 L 58.300781 -32.949219 L 64.660156 -36.125 C 65.105469 -36.347656 65.375 -36.503906 65.476562 -36.589844 L 65.613281 -36.707031 L 65.757812 -36.8125 C 69.035156 -39.222656 71.414062 -41.847656 72.894531 -44.695312 C 74.386719 -47.5625 75.191406 -50.492188 75.304688 -53.480469 C 75.425781 -56.589844 74.980469 -59.617188 73.976562 -62.5625 C 72.941406 -65.59375 71.503906 -68.351562 69.664062 -70.828125 C 67.855469 -73.261719 65.804688 -75.242188 63.507812 -76.773438 C 61.09375 -78.414062 58.277344 -79.675781 55.054688 -80.5625 C 51.621094 -81.507812 47.988281 -82.125 44.164062 -82.414062 C 40.261719 -82.710938 36.386719 -82.722656 32.542969 -82.457031 C 28.671875 -82.183594 25.050781 -81.714844 21.6875 -81.039062 C 18.410156 -80.382812 15.582031 -79.582031 13.199219 -78.636719 C 11.125 -77.8125 9.6875 -77.015625 8.882812 -76.246094 L 5.558594 -79.726562 L 10.207031 -78.476562 C 9.878906 -77.257812 9.597656 -75.414062 9.367188 -72.949219 C 9.121094 -70.308594 8.941406 -67.285156 8.828125 -63.875 C 8.71875 -60.40625 8.648438 -56.753906 8.617188 -52.917969 C 8.589844 -49.074219 8.605469 -45.261719 8.660156 -41.476562 C 8.71875 -37.699219 8.816406 -34.148438 8.957031 -30.828125 C 9.097656 -27.507812 9.25 -24.644531 9.417969 -22.234375 C 9.574219 -20.003906 9.75 -18.425781 9.945312 -17.5 C 10.558594 -14.285156 11.558594 -11.671875 12.945312 -9.660156 C 14.316406 -7.667969 15.871094 -6.152344 17.609375 -5.113281 C 19.371094 -4.0625 21.160156 -3.421875 22.972656 -3.191406 C 24.761719 -2.964844 26.421875 -3.089844 27.953125 -3.566406 C 29.332031 -3.996094 30.441406 -4.667969 31.285156 -5.578125 L 34.816406 -2.308594 L 30.046875 -2.953125 C 30.320312 -4.96875 30.582031 -7.664062 30.832031 -11.046875 C 31.085938 -14.488281 31.296875 -17.949219 31.46875 -21.429688 C 31.523438 -22.292969 31.5625 -23.144531 31.589844 -23.980469 C 31.617188 -24.8125 31.628906 -25.574219 31.628906 -26.261719 L 31.628906 -31.074219 L 36.441406 -31.074219 C 35.855469 -31.074219 35.339844 -30.960938 34.890625 -30.738281 L 38.367188 -32.476562 L 40.796875 -29.4375 C 41.113281 -29.046875 41.421875 -28.621094 41.730469 -28.160156 L 42.453125 -27.078125 C 44.230469 -24.324219 45.707031 -22.015625 46.886719 -20.148438 C 48.035156 -18.320312 49.046875 -16.75 49.910156 -15.4375 C 50.832031 -14.042969 51.652344 -12.746094 52.367188 -11.554688 C 54 -8.847656 55.867188 -6.777344 57.96875 -5.347656 C 60.0625 -3.921875 62.15625 -3.039062 64.25 -2.695312 C 66.304688 -2.359375 68.226562 -2.46875 70.019531 -3.019531 C 71.6875 -3.53125 73.113281 -4.433594 74.289062 -5.722656 C 75.449219 -6.992188 76.226562 -8.667969 76.628906 -10.746094 L 81.351562 -9.835938 L 76.808594 -8.257812 C 76.453125 -9.273438 75.757812 -10.675781 74.714844 -12.460938 C 73.5625 -14.4375 72.269531 -16.519531 70.832031 -18.699219 C 69.402344 -20.871094 68 -22.875 66.632812 -24.710938 C 65.402344 -26.359375 64.394531 -27.53125 63.613281 -28.226562 Z M 44.207031 -53.722656 C 44.207031 -53.789062 44.175781 -53.855469 44.113281 -53.917969 C 43.914062 -54.121094 43.523438 -54.265625 42.9375 -54.34375 C 42.199219 -54.445312 41.175781 -54.183594 39.871094 -53.566406 L 37.8125 -57.914062 L 42.621094 -57.914062 C 42.621094 -56.101562 42.609375 -54.660156 42.578125 -53.589844 C 42.550781 -52.667969 42.566406 -51.519531 42.621094 -50.144531 L 42.621094 -49.957031 C 42.621094 -50.761719 42.425781 -51.492188 42.035156 -52.144531 C 41.894531 -52.378906 41.75 -52.566406 41.597656 -52.71875 C 41.449219 -52.871094 41.257812 -53.015625 41.023438 -53.152344 C 40.371094 -53.546875 39.640625 -53.742188 38.835938 -53.742188 L 42.046875 -53.742188 C 42.75 -53.742188 43.441406 -53.820312 44.125 -53.972656 L 44.273438 -54.003906 L 44.429688 -54.027344 C 44.589844 -54.054688 44.695312 -54.078125 44.738281 -54.097656 C 44.632812 -54.046875 44.523438 -53.957031 44.417969 -53.835938 C 44.304688 -53.703125 44.230469 -53.578125 44.191406 -53.453125 C 44.199219 -53.488281 44.207031 -53.578125 44.207031 -53.722656 Z M 53.828125 -53.722656 C 53.828125 -51.242188 53.117188 -49.183594 51.695312 -47.535156 C 50.28125 -45.90625 48.351562 -44.898438 45.90625 -44.519531 L 45.167969 -49.273438 L 46.210938 -44.578125 C 44.839844 -44.273438 43.453125 -44.121094 42.046875 -44.121094 L 38.835938 -44.121094 C 37.335938 -44.121094 35.988281 -44.71875 34.792969 -45.914062 C 33.597656 -47.109375 33 -48.457031 33 -49.957031 L 37.8125 -49.957031 L 33.003906 -49.773438 C 32.941406 -51.363281 32.925781 -52.722656 32.957031 -53.855469 C 32.984375 -54.835938 33 -56.191406 33 -57.914062 L 33 -60.960938 L 35.75 -62.261719 C 38.777344 -63.695312 41.605469 -64.234375 44.230469 -63.878906 C 47.011719 -63.503906 49.273438 -62.417969 51.015625 -60.625 C 52.890625 -58.695312 53.828125 -56.394531 53.828125 -53.722656 Z M 53.828125 -53.722656 "/></g></g></g><g fill="#543748" fill-opacity="1"><g transform="translate(467.331099, 104.658296)"><g><path d="M 87.363281 -44.824219 C 87.363281 -41.953125 87.085938 -38.753906 86.535156 -35.226562 C 85.976562 -31.648438 85.015625 -27.964844 83.660156 -24.171875 C 82.273438 -20.300781 80.390625 -16.5625 78.011719 -12.957031 C 75.5625 -9.253906 72.484375 -5.929688 68.773438 -2.988281 C 65.023438 -0.0117188 60.570312 2.332031 55.414062 4.050781 C 50.300781 5.757812 44.375 6.609375 37.640625 6.609375 C 30.3125 6.609375 24.152344 5.839844 19.15625 4.300781 C 13.625 2.59375 9.351562 -0.269531 6.332031 -4.296875 C 3.390625 -8.214844 1.625 -13.363281 1.027344 -19.738281 C 0.382812 -26.855469 0.078125 -35.722656 0.105469 -46.335938 C 0.136719 -56.886719 0.523438 -68.652344 1.269531 -81.628906 L 1.417969 -84.214844 L 3.660156 -85.515625 C 6.917969 -87.40625 10.742188 -88.875 15.132812 -89.925781 C 19.34375 -90.933594 23.789062 -91.574219 28.460938 -91.847656 C 33.074219 -92.117188 37.632812 -92.070312 42.128906 -91.710938 C 46.632812 -91.351562 50.777344 -90.746094 54.558594 -89.898438 C 58.539062 -89.007812 61.855469 -87.863281 64.511719 -86.46875 C 72.273438 -82.363281 78.039062 -76.867188 81.8125 -69.976562 C 85.511719 -63.210938 87.363281 -54.828125 87.363281 -44.824219 Z M 77.738281 -44.824219 C 77.738281 -53.1875 76.28125 -60.03125 73.367188 -65.355469 C 70.523438 -70.554688 66.082031 -74.753906 60.039062 -77.949219 C 58.132812 -78.949219 55.605469 -79.800781 52.457031 -80.507812 C 49.113281 -81.257812 45.414062 -81.792969 41.363281 -82.117188 C 37.304688 -82.441406 33.195312 -82.480469 29.023438 -82.238281 C 24.914062 -82 21.03125 -81.441406 17.371094 -80.566406 C 13.894531 -79.734375 10.933594 -78.609375 8.488281 -77.191406 L 6.074219 -81.351562 L 10.878906 -81.078125 C 10.140625 -68.277344 9.757812 -56.6875 9.730469 -46.308594 C 9.703125 -35.992188 9.996094 -27.4375 10.609375 -20.636719 C 11.035156 -16.0625 12.175781 -12.542969 14.03125 -10.074219 C 15.800781 -7.714844 18.453125 -5.988281 21.992188 -4.898438 C 26.0625 -3.644531 31.277344 -3.015625 37.640625 -3.015625 C 43.335938 -3.015625 48.246094 -3.703125 52.371094 -5.078125 C 56.453125 -6.4375 59.929688 -8.257812 62.792969 -10.527344 C 65.699219 -12.832031 68.097656 -15.414062 69.980469 -18.265625 C 71.933594 -21.222656 73.472656 -24.269531 74.597656 -27.414062 C 75.75 -30.632812 76.5625 -33.734375 77.027344 -36.714844 C 77.5 -39.75 77.738281 -42.453125 77.738281 -44.824219 Z M 39.570312 -26.964844 C 40.828125 -27 42.105469 -27.464844 43.394531 -28.367188 C 44.699219 -29.277344 45.859375 -30.976562 46.871094 -33.464844 C 48.003906 -36.25 48.566406 -40.207031 48.566406 -45.339844 C 48.566406 -48.863281 48.128906 -51.589844 47.246094 -53.523438 C 46.433594 -55.3125 45.457031 -56.613281 44.328125 -57.429688 C 43.109375 -58.304688 41.84375 -58.851562 40.527344 -59.070312 C 39.054688 -59.316406 37.75 -59.324219 36.617188 -59.097656 L 35.671875 -63.816406 L 40.484375 -63.816406 L 40.484375 -58.726562 C 40.484375 -56.402344 40.46875 -53.71875 40.441406 -50.683594 C 40.414062 -47.675781 40.398438 -44.582031 40.398438 -41.402344 L 40.398438 -32.378906 C 40.398438 -29.601562 40.425781 -27.269531 40.480469 -25.378906 C 40.472656 -25.613281 40.375 -25.878906 40.1875 -26.175781 C 39.871094 -26.679688 39.453125 -27.027344 38.929688 -27.222656 C 39.230469 -27.109375 39.480469 -27.03125 39.683594 -26.988281 L 39.691406 -26.96875 L 39.691406 -22.15625 Z M 39.816406 -17.347656 L 39.753906 -17.34375 L 39.691406 -17.34375 C 38.488281 -17.34375 37.117188 -17.628906 35.578125 -18.203125 C 34.058594 -18.765625 32.875 -19.71875 32.035156 -21.066406 C 31.320312 -22.203125 30.929688 -23.546875 30.863281 -25.09375 C 30.804688 -27.082031 30.773438 -29.507812 30.773438 -32.378906 L 30.773438 -41.402344 C 30.773438 -44.613281 30.789062 -47.734375 30.816406 -50.773438 C 30.847656 -53.78125 30.859375 -56.433594 30.859375 -58.726562 L 30.859375 -67.761719 L 34.730469 -68.535156 C 37.015625 -68.992188 39.476562 -69 42.109375 -68.5625 C 44.898438 -68.097656 47.511719 -66.992188 49.945312 -65.242188 C 52.460938 -63.433594 54.480469 -60.855469 56.003906 -57.511719 C 57.464844 -54.3125 58.191406 -50.253906 58.191406 -45.339844 C 58.191406 -38.953125 57.390625 -33.785156 55.785156 -29.839844 C 54.058594 -25.59375 51.765625 -22.476562 48.90625 -20.476562 C 46.035156 -18.472656 43.003906 -17.425781 39.816406 -17.347656 Z M 39.816406 -17.347656 "/></g></g></g><g fill="#543748" fill-opacity="1"><g transform="translate(552.784585, 104.658296)"><g><path d="M 64.980469 -52.253906 C 69.988281 -49.15625 73.734375 -45.5 76.21875 -41.277344 C 78.703125 -37.054688 80.050781 -32.636719 80.257812 -28.015625 C 80.457031 -23.546875 79.789062 -19.238281 78.25 -15.09375 C 76.722656 -10.96875 74.503906 -7.320312 71.601562 -4.148438 C 68.636719 -0.914062 65.222656 1.5 61.367188 3.082031 C 58.769531 4.121094 55.664062 4.984375 52.050781 5.667969 C 48.507812 6.339844 44.675781 6.753906 40.554688 6.90625 C 36.40625 7.058594 32.15625 6.84375 27.808594 6.265625 C 23.367188 5.675781 19.082031 4.605469 14.945312 3.050781 C 10.660156 1.441406 6.777344 -0.785156 3.289062 -3.625 L 2.875 -3.964844 L 2.542969 -4.386719 C 0.34375 -7.195312 -0.96875 -10.261719 -1.394531 -13.589844 C -1.804688 -16.800781 -1.484375 -19.890625 -0.429688 -22.867188 C 0.632812 -25.859375 2.289062 -28.40625 4.546875 -30.507812 C 6.945312 -32.746094 9.796875 -34.125 13.105469 -34.652344 C 16.445312 -35.179688 19.96875 -34.539062 23.675781 -32.722656 C 27.351562 -30.910156 30.777344 -29.6875 33.957031 -29.058594 C 36.882812 -28.476562 39.210938 -28.382812 40.941406 -28.773438 C 41.429688 -28.882812 41.742188 -28.996094 41.886719 -29.109375 C 41.761719 -29.011719 41.675781 -28.875 41.628906 -28.699219 C 41.648438 -28.765625 41.65625 -28.804688 41.65625 -28.820312 C 41.65625 -28.757812 41.664062 -28.683594 41.6875 -28.601562 C 41.730469 -28.429688 41.785156 -28.3125 41.847656 -28.253906 C 41.867188 -28.234375 41.878906 -28.222656 41.886719 -28.21875 C 41.867188 -28.230469 41.839844 -28.25 41.804688 -28.269531 C 41.648438 -28.351562 41.445312 -28.433594 41.191406 -28.511719 C 40.449219 -28.742188 39.464844 -28.902344 38.238281 -28.992188 C 34.445312 -29.300781 30.675781 -29.949219 26.921875 -30.933594 C 23.03125 -31.953125 19.386719 -33.441406 15.992188 -35.394531 C 12.386719 -37.46875 9.34375 -40.1875 6.863281 -43.550781 C 4.328125 -46.988281 2.65625 -51.074219 1.84375 -55.816406 C 1.546875 -57.683594 1.515625 -59.863281 1.753906 -62.351562 C 1.992188 -64.824219 2.589844 -67.417969 3.546875 -70.125 C 4.535156 -72.914062 6.007812 -75.640625 7.976562 -78.308594 C 9.988281 -81.035156 12.621094 -83.496094 15.875 -85.6875 C 19.121094 -87.871094 23.054688 -89.574219 27.6875 -90.796875 C 30.816406 -91.671875 34.148438 -92.222656 37.683594 -92.445312 C 41.121094 -92.660156 44.542969 -92.613281 47.953125 -92.304688 C 51.429688 -91.992188 54.683594 -91.390625 57.722656 -90.507812 C 60.917969 -89.574219 63.632812 -88.378906 65.859375 -86.917969 C 69.464844 -84.488281 72.109375 -81.828125 73.792969 -78.941406 C 75.550781 -75.921875 76.410156 -72.867188 76.371094 -69.785156 C 76.332031 -66.804688 75.613281 -64.011719 74.214844 -61.410156 C 72.882812 -58.933594 71.140625 -56.820312 68.984375 -55.074219 C 66.753906 -53.265625 64.273438 -52.046875 61.550781 -51.425781 L 58.636719 -50.761719 L 56.75 -53.078125 C 55.925781 -54.089844 54.71875 -55 53.128906 -55.800781 C 51.277344 -56.742188 49.265625 -57.46875 47.097656 -57.976562 C 44.945312 -58.488281 42.921875 -58.730469 41.035156 -58.707031 C 39.476562 -58.6875 38.296875 -58.480469 37.492188 -58.085938 C 37.464844 -58.070312 37.445312 -58.0625 37.433594 -58.050781 C 37.4375 -58.058594 37.449219 -58.066406 37.460938 -58.074219 C 37.539062 -58.136719 37.609375 -58.21875 37.679688 -58.320312 C 37.828125 -58.535156 37.90625 -58.738281 37.914062 -58.925781 L 33.105469 -59.113281 L 37.917969 -59.113281 C 37.917969 -59.449219 37.832031 -59.78125 37.660156 -60.109375 C 37.523438 -60.367188 37.367188 -60.5625 37.191406 -60.695312 C 37.113281 -60.753906 37.058594 -60.789062 37.027344 -60.800781 C 37.109375 -60.765625 37.230469 -60.722656 37.390625 -60.675781 C 37.886719 -60.527344 38.550781 -60.398438 39.378906 -60.289062 C 46.035156 -59.441406 51.546875 -58.160156 55.910156 -56.449219 C 60.183594 -54.769531 63.214844 -53.363281 65.011719 -52.234375 Z M 59.882812 -44.089844 C 58.597656 -44.898438 56.101562 -46.03125 52.390625 -47.488281 C 48.769531 -48.914062 44.015625 -50 38.125 -50.746094 C 35.125 -51.144531 32.886719 -51.890625 31.417969 -52.996094 C 30.441406 -53.726562 29.6875 -54.597656 29.152344 -55.613281 C 28.578125 -56.695312 28.292969 -57.859375 28.292969 -59.113281 L 28.292969 -59.203125 L 28.296875 -59.296875 C 28.363281 -60.96875 28.847656 -62.460938 29.75 -63.773438 C 30.605469 -65.015625 31.773438 -66 33.253906 -66.726562 C 35.359375 -67.757812 37.910156 -68.292969 40.914062 -68.328125 C 43.589844 -68.363281 46.386719 -68.035156 49.308594 -67.34375 C 52.21875 -66.660156 54.941406 -65.671875 57.480469 -64.386719 C 60.28125 -62.96875 62.527344 -61.226562 64.210938 -59.15625 L 60.480469 -56.117188 L 59.40625 -60.808594 C 60.679688 -61.097656 61.851562 -61.679688 62.925781 -62.550781 C 64.078125 -63.484375 65.015625 -64.625 65.738281 -65.964844 C 66.390625 -67.183594 66.730469 -68.5 66.746094 -69.910156 C 66.765625 -71.21875 66.339844 -72.613281 65.476562 -74.097656 C 64.535156 -75.714844 62.902344 -77.304688 60.578125 -78.871094 C 59.152344 -79.804688 57.304688 -80.605469 55.027344 -81.269531 C 52.589844 -81.980469 49.941406 -82.460938 47.089844 -82.71875 C 44.167969 -82.984375 41.230469 -83.023438 38.28125 -82.839844 C 35.425781 -82.660156 32.714844 -82.210938 30.140625 -81.492188 C 26.558594 -80.546875 23.597656 -79.285156 21.25 -77.703125 C 18.917969 -76.132812 17.074219 -74.429688 15.71875 -72.59375 C 14.320312 -70.699219 13.289062 -68.804688 12.621094 -66.917969 C 11.925781 -64.949219 11.496094 -63.121094 11.335938 -61.433594 C 11.171875 -59.757812 11.171875 -58.429688 11.328125 -57.445312 C 11.886719 -54.203125 12.980469 -51.476562 14.609375 -49.265625 C 16.292969 -46.980469 18.351562 -45.140625 20.792969 -43.734375 C 23.441406 -42.210938 26.300781 -41.042969 29.363281 -40.242188 C 32.570312 -39.398438 35.757812 -38.847656 38.921875 -38.589844 C 43.265625 -38.28125 46.453125 -37.15625 48.484375 -35.222656 C 49.746094 -34.019531 50.585938 -32.621094 51 -31.023438 C 51.398438 -29.492188 51.375 -27.890625 50.929688 -26.21875 C 50.425781 -24.335938 49.402344 -22.78125 47.851562 -21.554688 C 46.566406 -20.542969 44.972656 -19.820312 43.0625 -19.386719 C 40.003906 -18.695312 36.34375 -18.773438 32.082031 -19.617188 C 28.078125 -20.414062 23.863281 -21.898438 19.441406 -24.078125 C 17.558594 -25 15.949219 -25.355469 14.613281 -25.144531 C 13.242188 -24.929688 12.074219 -24.371094 11.109375 -23.46875 C 10 -22.4375 9.179688 -21.164062 8.640625 -19.652344 C 8.097656 -18.117188 7.933594 -16.503906 8.152344 -14.8125 C 8.355469 -13.234375 9.007812 -11.738281 10.117188 -10.324219 L 6.332031 -7.355469 L 9.371094 -11.085938 C 12.042969 -8.910156 15.03125 -7.199219 18.332031 -5.957031 C 21.78125 -4.660156 25.363281 -3.765625 29.078125 -3.273438 C 32.886719 -2.765625 36.59375 -2.582031 40.199219 -2.710938 C 43.835938 -2.847656 47.1875 -3.203125 50.257812 -3.785156 C 53.261719 -4.355469 55.746094 -5.035156 57.710938 -5.820312 C 60.242188 -6.859375 62.503906 -8.46875 64.503906 -10.648438 C 66.558594 -12.894531 68.136719 -15.492188 69.226562 -18.441406 C 70.3125 -21.367188 70.785156 -24.414062 70.644531 -27.585938 C 70.507812 -30.609375 69.601562 -33.546875 67.925781 -36.394531 C 66.246094 -39.25 63.578125 -41.804688 59.917969 -44.070312 Z M 59.882812 -44.089844 "/></g></g></g><g fill="#cca6bd" fill-opacity="1"><g transform="translate(9.269536, 104.658296)"><g><path d="M 66.8125 -31.828125 C 67.832031 -30.910156 69.054688 -29.492188 70.484375 -27.578125 C 71.910156 -25.671875 73.363281 -23.59375 74.84375 -21.34375 C 76.332031 -19.09375 77.675781 -16.941406 78.875 -14.890625 C 80.070312 -12.835938 80.894531 -11.15625 81.34375 -9.84375 C 80.78125 -6.875 79.613281 -4.421875 77.84375 -2.484375 C 76.070312 -0.546875 73.929688 0.804688 71.421875 1.578125 C 68.910156 2.347656 66.257812 2.503906 63.46875 2.046875 C 60.675781 1.597656 57.9375 0.460938 55.25 -1.359375 C 52.570312 -3.191406 50.238281 -5.757812 48.25 -9.0625 C 47.5625 -10.207031 46.773438 -11.445312 45.890625 -12.78125 C 45.003906 -14.125 43.976562 -15.722656 42.8125 -17.578125 C 41.644531 -19.429688 40.175781 -21.726562 38.40625 -24.46875 C 38.175781 -24.8125 37.945312 -25.148438 37.71875 -25.484375 C 37.488281 -25.828125 37.265625 -26.144531 37.046875 -26.4375 C 36.816406 -26.320312 36.613281 -26.265625 36.4375 -26.265625 C 36.4375 -25.523438 36.421875 -24.710938 36.390625 -23.828125 C 36.367188 -22.941406 36.328125 -22.039062 36.265625 -21.125 C 36.097656 -17.644531 35.882812 -14.164062 35.625 -10.6875 C 35.375 -7.207031 35.101562 -4.414062 34.8125 -2.3125 C 33.382812 -0.769531 31.570312 0.335938 29.375 1.015625 C 27.1875 1.703125 24.847656 1.890625 22.359375 1.578125 C 19.878906 1.265625 17.472656 0.410156 15.140625 -0.984375 C 12.804688 -2.378906 10.753906 -4.359375 8.984375 -6.921875 C 7.210938 -9.492188 5.957031 -12.71875 5.21875 -16.59375 C 4.988281 -17.675781 4.785156 -19.441406 4.609375 -21.890625 C 4.441406 -24.347656 4.285156 -27.257812 4.140625 -30.625 C 4.003906 -33.988281 3.90625 -37.582031 3.84375 -41.40625 C 3.789062 -45.226562 3.773438 -49.078125 3.796875 -52.953125 C 3.828125 -56.828125 3.898438 -60.515625 4.015625 -64.015625 C 4.128906 -67.523438 4.316406 -70.648438 4.578125 -73.390625 C 4.835938 -76.128906 5.164062 -78.238281 5.5625 -79.71875 C 6.8125 -80.914062 8.757812 -82.039062 11.40625 -83.09375 C 14.0625 -84.15625 17.171875 -85.039062 20.734375 -85.75 C 24.304688 -86.46875 28.128906 -86.96875 32.203125 -87.25 C 36.285156 -87.539062 40.390625 -87.523438 44.515625 -87.203125 C 48.648438 -86.890625 52.585938 -86.21875 56.328125 -85.1875 C 60.066406 -84.164062 63.359375 -82.6875 66.203125 -80.75 C 68.941406 -78.925781 71.378906 -76.570312 73.515625 -73.6875 C 75.660156 -70.8125 77.332031 -67.617188 78.53125 -64.109375 C 79.726562 -60.609375 80.253906 -57.003906 80.109375 -53.296875 C 79.960938 -49.585938 78.976562 -45.976562 77.15625 -42.46875 C 75.332031 -38.957031 72.484375 -35.78125 68.609375 -32.9375 C 68.203125 -32.59375 67.601562 -32.222656 66.8125 -31.828125 Z M 49.015625 -53.71875 C 49.015625 -55.082031 48.53125 -56.265625 47.5625 -57.265625 C 46.59375 -58.265625 45.265625 -58.878906 43.578125 -59.109375 C 41.898438 -59.335938 39.976562 -58.9375 37.8125 -57.90625 C 37.8125 -56.144531 37.796875 -54.75 37.765625 -53.71875 C 37.734375 -52.695312 37.75 -51.441406 37.8125 -49.953125 C 37.8125 -49.785156 37.9375 -49.570312 38.1875 -49.3125 C 38.445312 -49.0625 38.664062 -48.9375 38.84375 -48.9375 C 39.925781 -48.9375 40.992188 -48.9375 42.046875 -48.9375 C 43.097656 -48.9375 44.140625 -49.046875 45.171875 -49.265625 C 47.734375 -49.671875 49.015625 -51.15625 49.015625 -53.71875 Z M 49.015625 -53.71875 "/></g></g></g><g fill="#cca6bd" fill-opacity="1"><g transform="translate(94.551957, 104.658296)"><g><path d="M 4.703125 -19.765625 C 4.585938 -21.703125 4.5 -24.304688 4.4375 -27.578125 C 4.382812 -30.859375 4.359375 -34.535156 4.359375 -38.609375 C 4.359375 -42.691406 4.398438 -46.914062 4.484375 -51.28125 C 4.578125 -55.644531 4.691406 -59.9375 4.828125 -64.15625 C 4.972656 -68.375 5.144531 -72.28125 5.34375 -75.875 C 5.539062 -79.46875 5.785156 -82.460938 6.078125 -84.859375 C 8.921875 -85.140625 12.378906 -85.351562 16.453125 -85.5 C 20.535156 -85.644531 24.914062 -85.742188 29.59375 -85.796875 C 34.269531 -85.859375 38.957031 -85.84375 43.65625 -85.75 C 48.363281 -85.664062 52.8125 -85.535156 57 -85.359375 C 61.195312 -85.191406 64.804688 -84.992188 67.828125 -84.765625 C 68.347656 -84.023438 68.804688 -82.882812 69.203125 -81.34375 C 69.597656 -79.8125 69.8125 -78.070312 69.84375 -76.125 C 69.875 -74.1875 69.628906 -72.21875 69.109375 -70.21875 C 68.597656 -68.226562 67.703125 -66.378906 66.421875 -64.671875 C 65.140625 -62.960938 63.367188 -61.59375 61.109375 -60.5625 C 58.859375 -59.539062 56.023438 -59.03125 52.609375 -59.03125 C 51.460938 -59.03125 50.40625 -59.03125 49.4375 -59.03125 C 48.46875 -59.03125 47.382812 -59.03125 46.1875 -59.03125 C 44.988281 -59.03125 43.503906 -59.03125 41.734375 -59.03125 C 39.972656 -59.03125 37.722656 -59.03125 34.984375 -59.03125 C 34.984375 -58.34375 34.984375 -57.640625 34.984375 -56.921875 C 34.984375 -56.210938 34.984375 -55.429688 34.984375 -54.578125 C 36.242188 -54.578125 37.96875 -54.601562 40.15625 -54.65625 C 42.351562 -54.71875 44.734375 -54.75 47.296875 -54.75 C 49.867188 -54.75 52.394531 -54.632812 54.875 -54.40625 C 57.351562 -54.175781 59.503906 -53.773438 61.328125 -53.203125 C 63.046875 -49.441406 63.757812 -45.9375 63.46875 -42.6875 C 63.1875 -39.4375 61.914062 -36.785156 59.65625 -34.734375 C 57.40625 -32.679688 54.171875 -31.539062 49.953125 -31.3125 C 48.523438 -31.25 47.179688 -31.21875 45.921875 -31.21875 C 44.671875 -31.21875 43.21875 -31.234375 41.5625 -31.265625 C 39.914062 -31.296875 37.753906 -31.3125 35.078125 -31.3125 C 35.078125 -30.394531 35.078125 -29.519531 35.078125 -28.6875 C 35.078125 -27.863281 35.078125 -27 35.078125 -26.09375 C 35.359375 -26.09375 35.671875 -26.09375 36.015625 -26.09375 C 36.359375 -26.09375 36.703125 -26.09375 37.046875 -26.09375 C 41.609375 -26.09375 46.179688 -26.09375 50.765625 -26.09375 C 55.359375 -26.09375 59.9375 -26.09375 64.5 -26.09375 C 66.15625 -23.8125 67.207031 -21.285156 67.65625 -18.515625 C 68.113281 -15.753906 67.914062 -13.0625 67.0625 -10.4375 C 66.207031 -7.8125 64.582031 -5.539062 62.1875 -3.625 C 59.789062 -1.71875 56.566406 -0.507812 52.515625 0 C 51.097656 0.164062 49.175781 0.320312 46.75 0.46875 C 44.320312 0.613281 41.65625 0.695312 38.75 0.71875 C 35.84375 0.75 32.945312 0.734375 30.0625 0.671875 C 27.1875 0.617188 24.59375 0.503906 22.28125 0.328125 C 19.96875 0.160156 18.1875 -0.0625 16.9375 -0.34375 C 12.945312 -1.363281 9.992188 -3.398438 8.078125 -6.453125 C 6.171875 -9.503906 5.046875 -13.941406 4.703125 -19.765625 Z M 4.703125 -19.765625 "/></g></g></g><g fill="#cca6bd" fill-opacity="1"><g transform="translate(166.575825, 104.658296)"><g><path d="M 98.453125 -83.0625 C 101.253906 -84.425781 104.148438 -85.363281 107.140625 -85.875 C 110.128906 -86.394531 112.976562 -86.425781 115.6875 -85.96875 C 118.40625 -85.507812 120.800781 -84.523438 122.875 -83.015625 C 124.957031 -81.503906 126.507812 -79.4375 127.53125 -76.8125 C 128.5625 -74.1875 128.847656 -70.96875 128.390625 -67.15625 C 128.109375 -64.757812 127.640625 -61.789062 126.984375 -58.25 C 126.328125 -54.71875 125.554688 -50.894531 124.671875 -46.78125 C 123.785156 -42.675781 122.828125 -38.472656 121.796875 -34.171875 C 120.773438 -29.867188 119.738281 -25.675781 118.6875 -21.59375 C 117.632812 -17.519531 116.625 -13.800781 115.65625 -10.4375 C 114.6875 -7.070312 113.800781 -4.273438 113 -2.046875 C 111.0625 -1.421875 108.765625 -0.722656 106.109375 0.046875 C 103.460938 0.816406 100.625 1.441406 97.59375 1.921875 C 94.570312 2.410156 91.519531 2.566406 88.4375 2.390625 C 85.363281 2.222656 82.441406 1.550781 79.671875 0.375 C 76.910156 -0.789062 74.460938 -2.679688 72.328125 -5.296875 C 70.191406 -7.921875 68.523438 -11.457031 67.328125 -15.90625 C 66.640625 -18.476562 66.109375 -20.875 65.734375 -23.09375 C 65.367188 -25.320312 65.054688 -27.734375 64.796875 -30.328125 C 64.535156 -32.921875 64.207031 -36.039062 63.8125 -39.6875 C 63.582031 -39.6875 63.394531 -39.6875 63.25 -39.6875 C 63.113281 -39.6875 62.957031 -39.6875 62.78125 -39.6875 C 62.15625 -34.5625 61.441406 -28.757812 60.640625 -22.28125 C 59.847656 -15.8125 59.023438 -9.351562 58.171875 -2.90625 C 56.234375 -2.28125 53.960938 -1.597656 51.359375 -0.859375 C 48.765625 -0.117188 45.984375 0.488281 43.015625 0.96875 C 40.054688 1.457031 37.066406 1.644531 34.046875 1.53125 C 31.023438 1.425781 28.085938 0.875 25.234375 -0.125 C 22.378906 -1.125 19.78125 -2.765625 17.4375 -5.046875 C 15.101562 -7.328125 13.140625 -10.40625 11.546875 -14.28125 C 10.628906 -16.507812 9.828125 -19.421875 9.140625 -23.015625 C 8.460938 -26.609375 7.835938 -30.628906 7.265625 -35.078125 C 6.703125 -39.523438 6.160156 -44.1875 5.640625 -49.0625 C 5.128906 -53.9375 4.644531 -58.78125 4.1875 -63.59375 C 3.726562 -68.414062 3.242188 -72.96875 2.734375 -77.25 C 3.242188 -79.007812 4.328125 -80.585938 5.984375 -81.984375 C 7.640625 -83.390625 9.59375 -84.503906 11.84375 -85.328125 C 14.09375 -86.148438 16.441406 -86.585938 18.890625 -86.640625 C 21.347656 -86.703125 23.6875 -86.320312 25.90625 -85.5 C 28.132812 -84.675781 30.003906 -83.289062 31.515625 -81.34375 C 33.023438 -79.40625 33.953125 -76.84375 34.296875 -73.65625 C 35.378906 -63.84375 35.960938 -55.203125 36.046875 -47.734375 C 36.140625 -40.265625 36.472656 -34.101562 37.046875 -29.25 C 37.148438 -29.25 37.273438 -29.25 37.421875 -29.25 C 37.566406 -29.25 37.722656 -29.25 37.890625 -29.25 C 38.691406 -32.5625 39.488281 -35.867188 40.28125 -39.171875 C 41.082031 -42.484375 41.882812 -45.847656 42.6875 -49.265625 C 43.425781 -52.234375 44.265625 -55.484375 45.203125 -59.015625 C 46.148438 -62.554688 47.078125 -66.035156 47.984375 -69.453125 C 48.898438 -72.878906 49.726562 -75.90625 50.46875 -78.53125 C 51.207031 -81.15625 51.722656 -83.007812 52.015625 -84.09375 C 53.328125 -84.539062 54.953125 -84.992188 56.890625 -85.453125 C 58.828125 -85.910156 60.890625 -86.195312 63.078125 -86.3125 C 65.273438 -86.425781 67.398438 -86.238281 69.453125 -85.75 C 71.515625 -85.269531 73.359375 -84.34375 74.984375 -82.96875 C 76.609375 -81.601562 77.816406 -79.609375 78.609375 -76.984375 C 80.773438 -70.085938 82.898438 -62.53125 84.984375 -54.3125 C 87.066406 -46.101562 89.304688 -37.578125 91.703125 -28.734375 C 91.867188 -28.796875 92.125 -28.828125 92.46875 -28.828125 C 92.925781 -31.453125 93.394531 -34.617188 93.875 -38.328125 C 94.363281 -42.035156 94.835938 -45.984375 95.296875 -50.171875 C 95.753906 -54.359375 96.195312 -58.519531 96.625 -62.65625 C 97.050781 -66.789062 97.421875 -70.625 97.734375 -74.15625 C 98.046875 -77.695312 98.285156 -80.664062 98.453125 -83.0625 Z M 98.453125 -83.0625 "/></g></g></g><g fill="#cca6bd" fill-opacity="1"><g transform="translate(297.108391, 104.658296)"><g><path d="M 1.28125 -25.828125 C 1.96875 -29.253906 2.863281 -33.09375 3.96875 -37.34375 C 5.082031 -41.59375 6.335938 -45.953125 7.734375 -50.421875 C 9.140625 -54.898438 10.566406 -59.234375 12.015625 -63.421875 C 13.472656 -67.617188 14.898438 -71.457031 16.296875 -74.9375 C 17.691406 -78.414062 18.929688 -81.207031 20.015625 -83.3125 C 22.359375 -84.113281 25.15625 -84.851562 28.40625 -85.53125 C 31.65625 -86.21875 35.101562 -86.601562 38.75 -86.6875 C 42.394531 -86.78125 46.015625 -86.3125 49.609375 -85.28125 C 53.203125 -84.257812 56.507812 -82.4375 59.53125 -79.8125 C 62.5625 -77.1875 65.046875 -73.507812 66.984375 -68.78125 C 67.890625 -66.5 68.941406 -63.570312 70.140625 -60 C 71.335938 -56.4375 72.59375 -52.488281 73.90625 -48.15625 C 75.21875 -43.820312 76.5 -39.359375 77.75 -34.765625 C 79.007812 -30.179688 80.164062 -25.707031 81.21875 -21.34375 C 82.269531 -16.976562 83.113281 -13 83.75 -9.40625 C 83.570312 -7.863281 82.769531 -6.335938 81.34375 -4.828125 C 79.925781 -3.316406 78.117188 -2.035156 75.921875 -0.984375 C 73.722656 0.0664062 71.351562 0.765625 68.8125 1.109375 C 66.28125 1.453125 63.757812 1.253906 61.25 0.515625 C 58.738281 -0.222656 56.46875 -1.675781 54.4375 -3.84375 C 52.414062 -6.007812 50.835938 -9.035156 49.703125 -12.921875 C 47.015625 -13.035156 44.21875 -13.0625 41.3125 -13 C 38.40625 -12.945312 35.582031 -12.945312 32.84375 -13 C 32.101562 -11.226562 31.40625 -9.285156 30.75 -7.171875 C 30.09375 -5.066406 29.453125 -2.90625 28.828125 -0.6875 C 23.578125 1.25 19.015625 1.945312 15.140625 1.40625 C 11.265625 0.863281 8.140625 -0.628906 5.765625 -3.078125 C 3.398438 -5.523438 1.832031 -8.71875 1.0625 -12.65625 C 0.300781 -16.59375 0.375 -20.984375 1.28125 -25.828125 Z M 36.1875 -37.46875 C 38.007812 -37.46875 39.773438 -37.46875 41.484375 -37.46875 C 43.191406 -37.46875 44.929688 -37.46875 46.703125 -37.46875 C 45.910156 -40.945312 45.082031 -44.378906 44.21875 -47.765625 C 43.363281 -51.160156 42.539062 -54.570312 41.75 -58 C 41.570312 -57.9375 41.3125 -57.90625 40.96875 -57.90625 C 40.226562 -54.539062 39.441406 -51.175781 38.609375 -47.8125 C 37.785156 -44.445312 36.976562 -41 36.1875 -37.46875 Z M 36.1875 -37.46875 "/></g></g></g><g fill="#cca6bd" fill-opacity="1"><g transform="translate(382.048678, 104.658296)"><g><path d="M 66.8125 -31.828125 C 67.832031 -30.910156 69.054688 -29.492188 70.484375 -27.578125 C 71.910156 -25.671875 73.363281 -23.59375 74.84375 -21.34375 C 76.332031 -19.09375 77.675781 -16.941406 78.875 -14.890625 C 80.070312 -12.835938 80.894531 -11.15625 81.34375 -9.84375 C 80.78125 -6.875 79.613281 -4.421875 77.84375 -2.484375 C 76.070312 -0.546875 73.929688 0.804688 71.421875 1.578125 C 68.910156 2.347656 66.257812 2.503906 63.46875 2.046875 C 60.675781 1.597656 57.9375 0.460938 55.25 -1.359375 C 52.570312 -3.191406 50.238281 -5.757812 48.25 -9.0625 C 47.5625 -10.207031 46.773438 -11.445312 45.890625 -12.78125 C 45.003906 -14.125 43.976562 -15.722656 42.8125 -17.578125 C 41.644531 -19.429688 40.175781 -21.726562 38.40625 -24.46875 C 38.175781 -24.8125 37.945312 -25.148438 37.71875 -25.484375 C 37.488281 -25.828125 37.265625 -26.144531 37.046875 -26.4375 C 36.816406 -26.320312 36.613281 -26.265625 36.4375 -26.265625 C 36.4375 -25.523438 36.421875 -24.710938 36.390625 -23.828125 C 36.367188 -22.941406 36.328125 -22.039062 36.265625 -21.125 C 36.097656 -17.644531 35.882812 -14.164062 35.625 -10.6875 C 35.375 -7.207031 35.101562 -4.414062 34.8125 -2.3125 C 33.382812 -0.769531 31.570312 0.335938 29.375 1.015625 C 27.1875 1.703125 24.847656 1.890625 22.359375 1.578125 C 19.878906 1.265625 17.472656 0.410156 15.140625 -0.984375 C 12.804688 -2.378906 10.753906 -4.359375 8.984375 -6.921875 C 7.210938 -9.492188 5.957031 -12.71875 5.21875 -16.59375 C 4.988281 -17.675781 4.785156 -19.441406 4.609375 -21.890625 C 4.441406 -24.347656 4.285156 -27.257812 4.140625 -30.625 C 4.003906 -33.988281 3.90625 -37.582031 3.84375 -41.40625 C 3.789062 -45.226562 3.773438 -49.078125 3.796875 -52.953125 C 3.828125 -56.828125 3.898438 -60.515625 4.015625 -64.015625 C 4.128906 -67.523438 4.316406 -70.648438 4.578125 -73.390625 C 4.835938 -76.128906 5.164062 -78.238281 5.5625 -79.71875 C 6.8125 -80.914062 8.757812 -82.039062 11.40625 -83.09375 C 14.0625 -84.15625 17.171875 -85.039062 20.734375 -85.75 C 24.304688 -86.46875 28.128906 -86.96875 32.203125 -87.25 C 36.285156 -87.539062 40.390625 -87.523438 44.515625 -87.203125 C 48.648438 -86.890625 52.585938 -86.21875 56.328125 -85.1875 C 60.066406 -84.164062 63.359375 -82.6875 66.203125 -80.75 C 68.941406 -78.925781 71.378906 -76.570312 73.515625 -73.6875 C 75.660156 -70.8125 77.332031 -67.617188 78.53125 -64.109375 C 79.726562 -60.609375 80.253906 -57.003906 80.109375 -53.296875 C 79.960938 -49.585938 78.976562 -45.976562 77.15625 -42.46875 C 75.332031 -38.957031 72.484375 -35.78125 68.609375 -32.9375 C 68.203125 -32.59375 67.601562 -32.222656 66.8125 -31.828125 Z M 49.015625 -53.71875 C 49.015625 -55.082031 48.53125 -56.265625 47.5625 -57.265625 C 46.59375 -58.265625 45.265625 -58.878906 43.578125 -59.109375 C 41.898438 -59.335938 39.976562 -58.9375 37.8125 -57.90625 C 37.8125 -56.144531 37.796875 -54.75 37.765625 -53.71875 C 37.734375 -52.695312 37.75 -51.441406 37.8125 -49.953125 C 37.8125 -49.785156 37.9375 -49.570312 38.1875 -49.3125 C 38.445312 -49.0625 38.664062 -48.9375 38.84375 -48.9375 C 39.925781 -48.9375 40.992188 -48.9375 42.046875 -48.9375 C 43.097656 -48.9375 44.140625 -49.046875 45.171875 -49.265625 C 47.734375 -49.671875 49.015625 -51.15625 49.015625 -53.71875 Z M 49.015625 -53.71875 "/></g></g></g><g fill="#cca6bd" fill-opacity="1"><g transform="translate(467.331099, 104.658296)"><g><path d="M 82.546875 -44.828125 C 82.546875 -42.203125 82.289062 -39.25 81.78125 -35.96875 C 81.269531 -32.6875 80.382812 -29.289062 79.125 -25.78125 C 77.875 -22.28125 76.164062 -18.890625 74 -15.609375 C 71.832031 -12.328125 69.09375 -9.375 65.78125 -6.75 C 62.46875 -4.132812 58.503906 -2.054688 53.890625 -0.515625 C 49.273438 1.023438 43.859375 1.796875 37.640625 1.796875 C 30.796875 1.796875 25.101562 1.097656 20.5625 -0.296875 C 16.03125 -1.691406 12.566406 -3.984375 10.171875 -7.171875 C 7.785156 -10.367188 6.332031 -14.707031 5.8125 -20.1875 C 5.1875 -27.144531 4.890625 -35.851562 4.921875 -46.3125 C 4.953125 -56.78125 5.335938 -68.457031 6.078125 -81.34375 C 8.921875 -83 12.3125 -84.296875 16.25 -85.234375 C 20.1875 -86.179688 24.347656 -86.78125 28.734375 -87.03125 C 33.128906 -87.289062 37.460938 -87.25 41.734375 -86.90625 C 46.015625 -86.5625 49.9375 -85.988281 53.5 -85.1875 C 57.070312 -84.394531 60 -83.398438 62.28125 -82.203125 C 69.175781 -78.554688 74.273438 -73.707031 77.578125 -67.65625 C 80.890625 -61.613281 82.546875 -54.003906 82.546875 -44.828125 Z M 39.6875 -22.15625 C 41.914062 -22.207031 44.066406 -22.960938 46.140625 -24.421875 C 48.222656 -25.878906 49.945312 -28.289062 51.3125 -31.65625 C 52.6875 -35.019531 53.375 -39.582031 53.375 -45.34375 C 53.375 -49.5625 52.789062 -52.953125 51.625 -55.515625 C 50.457031 -58.078125 48.957031 -60.015625 47.125 -61.328125 C 45.300781 -62.640625 43.363281 -63.46875 41.3125 -63.8125 C 39.257812 -64.15625 37.378906 -64.15625 35.671875 -63.8125 C 35.671875 -62.726562 35.671875 -61.03125 35.671875 -58.71875 C 35.671875 -56.414062 35.65625 -53.75 35.625 -50.71875 C 35.59375 -47.695312 35.578125 -44.585938 35.578125 -41.390625 C 35.578125 -38.203125 35.578125 -35.195312 35.578125 -32.375 C 35.578125 -29.550781 35.609375 -27.171875 35.671875 -25.234375 C 35.722656 -23.921875 36.25 -23.078125 37.25 -22.703125 C 38.25 -22.335938 39.0625 -22.15625 39.6875 -22.15625 Z M 39.6875 -22.15625 "/></g></g></g><g fill="#cca6bd" fill-opacity="1"><g transform="translate(552.784585, 104.658296)"><g><path d="M 62.453125 -48.15625 C 66.785156 -45.476562 69.988281 -42.367188 72.0625 -38.828125 C 74.144531 -35.296875 75.269531 -31.617188 75.4375 -27.796875 C 75.613281 -23.972656 75.046875 -20.296875 73.734375 -16.765625 C 72.421875 -13.234375 70.523438 -10.113281 68.046875 -7.40625 C 65.566406 -4.695312 62.726562 -2.6875 59.53125 -1.375 C 57.25 -0.457031 54.453125 0.3125 51.140625 0.9375 C 47.835938 1.5625 44.25 1.945312 40.375 2.09375 C 36.5 2.238281 32.519531 2.039062 28.4375 1.5 C 24.363281 0.957031 20.429688 -0.0234375 16.640625 -1.453125 C 12.847656 -2.878906 9.410156 -4.847656 6.328125 -7.359375 C 4.671875 -9.460938 3.6875 -11.738281 3.375 -14.1875 C 3.0625 -16.644531 3.300781 -19 4.09375 -21.25 C 4.894531 -23.507812 6.132812 -25.421875 7.8125 -26.984375 C 9.5 -28.554688 11.507812 -29.523438 13.84375 -29.890625 C 16.1875 -30.265625 18.757812 -29.769531 21.5625 -28.40625 C 25.601562 -26.40625 29.421875 -25.046875 33.015625 -24.328125 C 36.609375 -23.617188 39.601562 -23.535156 42 -24.078125 C 44.394531 -24.617188 45.820312 -25.742188 46.28125 -27.453125 C 46.738281 -29.171875 46.367188 -30.597656 45.171875 -31.734375 C 43.972656 -32.878906 41.773438 -33.5625 38.578125 -33.78125 C 35.097656 -34.070312 31.617188 -34.671875 28.140625 -35.578125 C 24.660156 -36.492188 21.410156 -37.820312 18.390625 -39.5625 C 15.367188 -41.300781 12.816406 -43.582031 10.734375 -46.40625 C 8.648438 -49.226562 7.269531 -52.632812 6.59375 -56.625 C 6.363281 -58.050781 6.347656 -59.804688 6.546875 -61.890625 C 6.742188 -63.972656 7.253906 -66.179688 8.078125 -68.515625 C 8.910156 -70.859375 10.164062 -73.171875 11.84375 -75.453125 C 13.53125 -77.734375 15.769531 -79.8125 18.5625 -81.6875 C 21.351562 -83.570312 24.800781 -85.054688 28.90625 -86.140625 C 31.757812 -86.941406 34.78125 -87.441406 37.96875 -87.640625 C 41.164062 -87.835938 44.347656 -87.789062 47.515625 -87.5 C 50.679688 -87.21875 53.632812 -86.675781 56.375 -85.875 C 59.113281 -85.082031 61.394531 -84.085938 63.21875 -82.890625 C 66.175781 -80.890625 68.3125 -78.765625 69.625 -76.515625 C 70.9375 -74.265625 71.578125 -72.039062 71.546875 -69.84375 C 71.523438 -67.644531 71 -65.585938 69.96875 -63.671875 C 68.945312 -61.765625 67.609375 -60.140625 65.953125 -58.796875 C 64.296875 -57.460938 62.472656 -56.566406 60.484375 -56.109375 C 59.222656 -57.648438 57.492188 -58.976562 55.296875 -60.09375 C 53.109375 -61.207031 50.742188 -62.0625 48.203125 -62.65625 C 45.660156 -63.257812 43.25 -63.546875 40.96875 -63.515625 C 38.6875 -63.484375 36.816406 -63.109375 35.359375 -62.390625 C 33.910156 -61.679688 33.160156 -60.585938 33.109375 -59.109375 C 33.109375 -58.191406 33.503906 -57.429688 34.296875 -56.828125 C 35.097656 -56.234375 36.582031 -55.796875 38.75 -55.515625 C 45.019531 -54.710938 50.148438 -53.523438 54.140625 -51.953125 C 58.140625 -50.390625 60.910156 -49.125 62.453125 -48.15625 Z M 62.453125 -48.15625 "/></g></g></g></svg>