<svg xmlns="http://www.w3.org/2000/svg" xmlns:xlink="http://www.w3.org/1999/xlink" width="1200" zoomAndPan="magnify" viewBox="0 0 900 119.999999" height="160" preserveAspectRatio="xMidYMid meet" version="1.0"><defs><g/></defs><g fill="#296a25" fill-opacity="1"><g transform="translate(7.778549, 106.358601)"><g><path d="M 67.507812 -54.289062 C 72.710938 -51.070312 76.605469 -47.269531 79.183594 -42.886719 C 81.769531 -38.496094 83.167969 -33.90625 83.382812 -29.109375 C 83.589844 -24.464844 82.894531 -19.988281 81.296875 -15.679688 C 79.707031 -11.394531 77.40625 -7.605469 74.386719 -4.3125 C 71.308594 -0.949219 67.761719 1.558594 63.757812 3.203125 C 61.058594 4.28125 57.832031 5.175781 54.078125 5.890625 C 50.394531 6.589844 46.414062 7.015625 42.132812 7.171875 C 37.820312 7.332031 33.410156 7.109375 28.890625 6.511719 C 24.277344 5.898438 19.824219 4.785156 15.527344 3.167969 C 11.078125 1.496094 7.039062 -0.816406 3.417969 -3.765625 L 2.984375 -4.121094 L 2.640625 -4.558594 C 0.355469 -7.472656 -1.007812 -10.660156 -1.449219 -14.117188 C -1.875 -17.453125 -1.539062 -20.667969 -0.445312 -23.753906 C 0.65625 -26.863281 2.378906 -29.511719 4.722656 -31.695312 C 7.214844 -34.019531 10.179688 -35.453125 13.613281 -36 C 17.085938 -36.550781 20.746094 -35.882812 24.59375 -33.996094 C 28.414062 -32.113281 31.976562 -30.84375 35.277344 -30.1875 C 38.316406 -29.585938 40.734375 -29.488281 42.535156 -29.894531 C 43.042969 -30.007812 43.367188 -30.125 43.515625 -30.242188 C 43.386719 -30.140625 43.300781 -30 43.25 -29.816406 C 43.269531 -29.882812 43.277344 -29.925781 43.277344 -29.941406 C 43.277344 -29.878906 43.285156 -29.800781 43.308594 -29.714844 C 43.355469 -29.535156 43.414062 -29.414062 43.476562 -29.351562 C 43.496094 -29.335938 43.511719 -29.324219 43.519531 -29.316406 C 43.5 -29.332031 43.46875 -29.347656 43.429688 -29.371094 C 43.269531 -29.453125 43.058594 -29.539062 42.792969 -29.621094 C 42.023438 -29.863281 41 -30.027344 39.726562 -30.117188 C 35.785156 -30.441406 31.867188 -31.113281 27.972656 -32.136719 C 23.925781 -33.195312 20.140625 -34.742188 16.613281 -36.773438 C 12.867188 -38.925781 9.707031 -41.753906 7.128906 -45.246094 C 4.5 -48.816406 2.761719 -53.0625 1.914062 -57.992188 C 1.605469 -59.929688 1.574219 -62.191406 1.824219 -64.777344 C 2.070312 -67.347656 2.691406 -70.039062 3.683594 -72.855469 C 4.710938 -75.753906 6.242188 -78.585938 8.285156 -81.355469 C 10.375 -84.1875 13.113281 -86.746094 16.492188 -89.023438 C 19.863281 -91.292969 23.953125 -93.0625 28.765625 -94.332031 C 32.019531 -95.242188 35.480469 -95.8125 39.148438 -96.042969 C 42.71875 -96.265625 46.277344 -96.21875 49.820312 -95.898438 C 53.429688 -95.574219 56.8125 -94.949219 59.96875 -94.03125 C 63.292969 -93.0625 66.109375 -91.816406 68.421875 -90.300781 C 72.167969 -87.777344 74.917969 -85.015625 76.664062 -82.015625 C 78.492188 -78.875 79.382812 -75.707031 79.34375 -72.5 C 79.300781 -69.40625 78.554688 -66.503906 77.105469 -63.800781 C 75.71875 -61.226562 73.910156 -59.03125 71.671875 -57.21875 C 69.351562 -55.335938 66.777344 -54.074219 63.949219 -53.429688 L 60.921875 -52.734375 L 58.957031 -55.144531 C 58.101562 -56.195312 56.847656 -57.140625 55.199219 -57.976562 C 53.273438 -58.949219 51.183594 -59.703125 48.933594 -60.234375 C 46.695312 -60.761719 44.59375 -61.015625 42.632812 -60.992188 C 41.015625 -60.96875 39.785156 -60.753906 38.949219 -60.34375 C 38.921875 -60.332031 38.902344 -60.320312 38.890625 -60.3125 C 38.894531 -60.316406 38.90625 -60.324219 38.921875 -60.335938 C 39 -60.402344 39.074219 -60.484375 39.144531 -60.589844 C 39.300781 -60.816406 39.382812 -61.023438 39.390625 -61.21875 L 34.394531 -61.414062 L 39.394531 -61.414062 C 39.394531 -61.765625 39.304688 -62.109375 39.125 -62.449219 C 38.984375 -62.714844 38.820312 -62.917969 38.636719 -63.058594 C 38.558594 -63.117188 38.5 -63.15625 38.46875 -63.167969 C 38.554688 -63.128906 38.679688 -63.085938 38.84375 -63.039062 C 39.359375 -62.882812 40.050781 -62.75 40.914062 -62.636719 C 47.828125 -61.757812 53.550781 -60.425781 58.085938 -58.644531 C 62.523438 -56.902344 65.675781 -55.441406 67.542969 -54.265625 Z M 62.214844 -45.804688 C 60.878906 -46.644531 58.285156 -47.824219 54.429688 -49.339844 C 50.667969 -50.816406 45.726562 -51.945312 39.609375 -52.722656 C 36.492188 -53.132812 34.167969 -53.910156 32.640625 -55.058594 C 31.625 -55.816406 30.84375 -56.722656 30.285156 -57.777344 C 29.691406 -58.902344 29.394531 -60.113281 29.394531 -61.414062 L 29.394531 -61.507812 L 29.398438 -61.605469 C 29.464844 -63.339844 29.96875 -64.890625 30.910156 -66.257812 C 31.796875 -67.546875 33.011719 -68.570312 34.550781 -69.324219 C 36.734375 -70.394531 39.386719 -70.949219 42.507812 -70.988281 C 45.289062 -71.023438 48.195312 -70.683594 51.230469 -69.964844 C 54.253906 -69.253906 57.082031 -68.230469 59.714844 -66.894531 C 62.628906 -65.417969 64.960938 -63.609375 66.710938 -61.460938 L 62.835938 -58.300781 L 61.71875 -63.175781 C 63.039062 -63.476562 64.257812 -64.082031 65.375 -64.984375 C 66.574219 -65.957031 67.546875 -67.140625 68.296875 -68.535156 C 68.976562 -69.800781 69.324219 -71.164062 69.34375 -72.632812 C 69.363281 -73.988281 68.921875 -75.441406 68.023438 -76.984375 C 67.046875 -78.664062 65.351562 -80.316406 62.9375 -81.941406 C 61.457031 -82.910156 59.535156 -83.742188 57.167969 -84.429688 C 54.636719 -85.167969 51.886719 -85.671875 48.921875 -85.941406 C 45.886719 -86.214844 42.835938 -86.253906 39.773438 -86.0625 C 36.804688 -85.878906 33.988281 -85.410156 31.316406 -84.664062 C 27.59375 -83.679688 24.515625 -82.371094 22.078125 -80.730469 C 19.652344 -79.097656 17.738281 -77.328125 16.332031 -75.421875 C 14.878906 -73.449219 13.804688 -71.484375 13.113281 -69.523438 C 12.390625 -67.480469 11.945312 -65.578125 11.777344 -63.824219 C 11.609375 -62.085938 11.605469 -60.703125 11.769531 -59.679688 C 12.347656 -56.3125 13.484375 -53.480469 15.175781 -51.183594 C 16.925781 -48.8125 19.066406 -46.894531 21.601562 -45.4375 C 24.355469 -43.851562 27.324219 -42.644531 30.507812 -41.808594 C 33.839844 -40.933594 37.148438 -40.363281 40.4375 -40.09375 C 44.949219 -39.769531 48.261719 -38.601562 50.375 -36.59375 C 51.683594 -35.34375 52.554688 -33.890625 52.988281 -32.230469 C 53.398438 -30.640625 53.375 -28.976562 52.910156 -27.242188 C 52.390625 -25.28125 51.324219 -23.667969 49.714844 -22.394531 C 48.378906 -21.339844 46.722656 -20.589844 44.742188 -20.140625 C 41.5625 -19.421875 37.757812 -19.503906 33.332031 -20.382812 C 29.167969 -21.207031 24.789062 -22.753906 20.199219 -25.015625 C 18.242188 -25.976562 16.570312 -26.34375 15.179688 -26.125 C 13.757812 -25.898438 12.542969 -25.316406 11.539062 -24.382812 C 10.390625 -23.308594 9.535156 -21.988281 8.976562 -20.414062 C 8.414062 -18.824219 8.246094 -17.148438 8.46875 -15.386719 C 8.679688 -13.75 9.359375 -12.195312 10.511719 -10.726562 L 6.578125 -7.644531 L 9.734375 -11.519531 C 12.511719 -9.257812 15.617188 -7.480469 19.046875 -6.191406 C 22.628906 -4.84375 26.351562 -3.914062 30.210938 -3.402344 C 34.167969 -2.875 38.019531 -2.679688 41.765625 -2.820312 C 45.542969 -2.957031 49.027344 -3.328125 52.214844 -3.933594 C 55.335938 -4.527344 57.914062 -5.230469 59.957031 -6.046875 C 62.585938 -7.125 64.9375 -8.800781 67.011719 -11.0625 C 69.148438 -13.398438 70.785156 -16.097656 71.921875 -19.160156 C 73.050781 -22.199219 73.539062 -25.367188 73.394531 -28.660156 C 73.253906 -31.804688 72.3125 -34.851562 70.570312 -37.8125 C 68.824219 -40.777344 66.050781 -43.433594 62.25 -45.785156 Z M 62.214844 -45.804688 "/></g></g></g><g fill="#296a25" fill-opacity="1"><g transform="translate(91.498794, 106.358601)"><g><path d="M 37.238281 -63.125 L 54.300781 -63.125 L 54.300781 -58.125 L 49.304688 -58.300781 C 49.421875 -61.574219 49.496094 -64.980469 49.527344 -68.519531 C 49.554688 -72.140625 49.617188 -75.464844 49.707031 -78.492188 C 49.800781 -81.679688 49.980469 -84.171875 50.246094 -85.964844 L 50.539062 -87.9375 L 52.105469 -89.164062 C 54.898438 -91.355469 58.089844 -92.839844 61.675781 -93.625 C 65.125 -94.378906 68.609375 -94.488281 72.121094 -93.949219 C 75.667969 -93.40625 78.964844 -92.230469 82.011719 -90.414062 C 85.191406 -88.523438 87.765625 -86.003906 89.734375 -82.863281 C 91.785156 -79.59375 92.808594 -75.789062 92.808594 -71.457031 L 92.808594 -39.90625 L 92.761719 -25.625 L 92.71875 -11.625 C 92.71875 -10.070312 92.703125 -8.347656 92.675781 -6.453125 C 92.640625 -4.417969 92.554688 -2.8125 92.417969 -1.636719 L 92.230469 -0.0351562 L 91.136719 1.15625 C 89.925781 2.476562 88.058594 3.589844 85.53125 4.488281 C 83.421875 5.238281 81.007812 5.769531 78.285156 6.078125 C 75.640625 6.378906 72.917969 6.429688 70.121094 6.230469 C 67.121094 6.015625 64.257812 5.371094 61.53125 4.292969 C 58.546875 3.117188 56.035156 1.386719 54 -0.886719 C 51.804688 -3.339844 50.460938 -6.410156 49.96875 -10.09375 C 49.773438 -11.382812 49.628906 -12.953125 49.53125 -14.800781 C 49.441406 -16.523438 49.367188 -18.335938 49.304688 -20.238281 C 49.246094 -22.125 49.199219 -23.882812 49.171875 -25.503906 C 49.140625 -27.132812 49.125 -28.4375 49.125 -29.417969 L 54.125 -29.417969 L 54.125 -24.417969 L 37.503906 -24.417969 L 37.503906 -29.417969 L 42.503906 -29.417969 L 42.503906 0.167969 L 40.757812 1.664062 C 39.476562 2.761719 37.640625 3.753906 35.246094 4.644531 C 33.042969 5.460938 30.550781 6.039062 27.765625 6.382812 C 24.984375 6.726562 22.144531 6.746094 19.25 6.4375 C 16.101562 6.105469 13.140625 5.214844 10.359375 3.769531 C 7.355469 2.207031 4.875 -0.0820312 2.917969 -3.097656 C 0.960938 -6.109375 -0.164062 -9.855469 -0.457031 -14.335938 C -0.578125 -16.035156 -0.699219 -18.542969 -0.820312 -21.859375 L -1.175781 -33.171875 C -1.292969 -37.464844 -1.398438 -42.003906 -1.488281 -46.789062 C -1.578125 -51.589844 -1.621094 -56.316406 -1.621094 -60.96875 C -1.621094 -65.613281 -1.59375 -69.949219 -1.53125 -73.972656 C -1.472656 -78.058594 -1.351562 -81.476562 -1.167969 -84.230469 L -1.023438 -86.382812 L 0.640625 -87.753906 C 3.539062 -90.144531 6.738281 -91.851562 10.242188 -92.875 C 13.664062 -93.871094 17.109375 -94.246094 20.578125 -93.996094 C 24.078125 -93.742188 27.324219 -92.902344 30.320312 -91.480469 C 33.425781 -90.003906 36.011719 -87.996094 38.085938 -85.464844 C 40.335938 -82.710938 41.625 -79.460938 41.953125 -75.710938 L 36.972656 -75.277344 L 41.9375 -75.839844 C 42.257812 -73.046875 42.414062 -70.296875 42.414062 -67.589844 C 42.414062 -65.015625 42.386719 -62.824219 42.324219 -61.019531 C 42.265625 -59.328125 42.238281 -58.363281 42.238281 -58.125 L 37.238281 -58.125 Z M 37.238281 -53.125 L 32.238281 -53.125 L 32.238281 -58.125 C 32.238281 -58.476562 32.269531 -59.554688 32.332031 -61.359375 C 32.386719 -63.050781 32.417969 -65.128906 32.417969 -67.589844 C 32.417969 -69.917969 32.28125 -72.292969 32.003906 -74.710938 L 31.996094 -74.777344 L 31.992188 -74.84375 C 31.84375 -76.542969 31.296875 -77.972656 30.347656 -79.132812 C 29.222656 -80.507812 27.78125 -81.613281 26.027344 -82.449219 C 24.164062 -83.335938 22.109375 -83.859375 19.859375 -84.023438 C 17.582031 -84.1875 15.3125 -83.9375 13.042969 -83.277344 C 10.855469 -82.636719 8.84375 -81.558594 7.003906 -80.042969 L 3.820312 -83.898438 L 8.808594 -83.566406 C 8.636719 -80.984375 8.523438 -77.738281 8.464844 -73.824219 C 8.40625 -69.851562 8.375 -65.566406 8.375 -60.96875 C 8.375 -56.378906 8.421875 -51.714844 8.507812 -46.976562 C 8.597656 -42.21875 8.699219 -37.722656 8.820312 -33.484375 L 9.171875 -22.222656 C 9.289062 -19.023438 9.40625 -16.613281 9.519531 -14.992188 C 9.703125 -12.246094 10.296875 -10.097656 11.304688 -8.542969 C 12.304688 -7 13.527344 -5.851562 14.972656 -5.101562 C 16.632812 -4.238281 18.410156 -3.707031 20.300781 -3.503906 C 22.4375 -3.277344 24.519531 -3.289062 26.539062 -3.539062 C 28.550781 -3.789062 30.296875 -4.1875 31.765625 -4.730469 C 33.046875 -5.207031 33.875 -5.605469 34.25 -5.929688 L 37.503906 -2.132812 L 32.507812 -2.132812 L 32.507812 -34.417969 L 59.125 -34.417969 L 59.125 -29.417969 C 59.125 -28.5 59.140625 -27.257812 59.167969 -25.6875 C 59.195312 -24.109375 59.242188 -22.398438 59.300781 -20.554688 C 59.359375 -18.722656 59.429688 -16.980469 59.515625 -15.328125 C 59.597656 -13.800781 59.71875 -12.496094 59.878906 -11.414062 C 60.101562 -9.765625 60.625 -8.480469 61.449219 -7.554688 C 62.433594 -6.453125 63.6875 -5.605469 65.203125 -5.003906 C 66.980469 -4.304688 68.855469 -3.882812 70.835938 -3.742188 C 73.015625 -3.585938 75.121094 -3.625 77.15625 -3.855469 C 79.117188 -4.078125 80.789062 -4.4375 82.175781 -4.933594 C 82.792969 -5.152344 83.277344 -5.359375 83.636719 -5.558594 C 83.742188 -5.617188 83.824219 -5.667969 83.878906 -5.707031 C 83.855469 -5.691406 83.820312 -5.65625 83.769531 -5.601562 L 87.453125 -2.222656 L 82.488281 -2.804688 C 82.585938 -3.644531 82.648438 -4.914062 82.675781 -6.613281 C 82.707031 -8.453125 82.71875 -10.132812 82.71875 -11.660156 L 82.765625 -25.65625 L 82.808594 -39.90625 L 82.808594 -71.457031 C 82.808594 -73.875 82.292969 -75.910156 81.261719 -77.554688 C 80.148438 -79.332031 78.695312 -80.753906 76.898438 -81.824219 C 74.96875 -82.972656 72.871094 -83.71875 70.609375 -84.066406 C 68.320312 -84.417969 66.054688 -84.347656 63.8125 -83.859375 C 61.714844 -83.398438 59.867188 -82.542969 58.273438 -81.296875 L 55.191406 -85.230469 L 60.136719 -84.5 C 59.929688 -83.09375 59.78125 -80.992188 59.699219 -78.195312 C 59.613281 -75.238281 59.554688 -71.984375 59.523438 -68.4375 C 59.492188 -64.804688 59.417969 -61.308594 59.296875 -57.945312 L 59.125 -53.125 Z M 37.238281 -53.125 "/></g></g></g><g fill="#296a25" fill-opacity="1"><g transform="translate(183.395533, 106.358601)"><g><path d="M 49.097656 -95.652344 C 55.667969 -95.714844 61.472656 -94.957031 66.507812 -93.378906 C 71.535156 -91.800781 75.863281 -89.738281 79.488281 -87.1875 C 83.054688 -84.675781 86.03125 -81.976562 88.417969 -79.082031 C 90.738281 -76.273438 92.582031 -73.582031 93.953125 -71.003906 C 95.269531 -68.53125 96.234375 -66.484375 96.84375 -64.855469 C 99.089844 -58.695312 100.421875 -52.488281 100.839844 -46.238281 C 101.265625 -39.851562 100.5 -33.4375 98.546875 -26.988281 C 95.847656 -18.332031 91.589844 -11.285156 85.777344 -5.855469 C 79.960938 -0.421875 72.664062 3.328125 63.894531 5.398438 C 56.976562 7.066406 50.132812 7.589844 43.363281 6.980469 C 36.488281 6.355469 29.796875 4.355469 23.289062 0.96875 C 16.960938 -2.296875 11.886719 -6.578125 8.074219 -11.878906 C 4.328125 -17.082031 1.699219 -23.070312 0.1875 -29.839844 C -0.769531 -33.976562 -1.324219 -38.21875 -1.484375 -42.566406 C -1.644531 -46.925781 -1.386719 -51.167969 -0.710938 -55.289062 C -0.015625 -59.539062 1.144531 -63.386719 2.765625 -66.828125 C 4.3125 -70.246094 6.316406 -73.621094 8.773438 -76.957031 C 11.3125 -80.394531 14.429688 -83.515625 18.128906 -86.324219 C 21.894531 -89.183594 26.355469 -91.453125 31.507812 -93.136719 C 36.632812 -94.8125 42.515625 -95.652344 49.148438 -95.652344 Z M 49.148438 -85.652344 C 43.574219 -85.652344 38.730469 -84.980469 34.613281 -83.632812 C 30.527344 -82.296875 27.046875 -80.539062 24.175781 -78.359375 C 21.238281 -76.132812 18.789062 -73.683594 16.820312 -71.019531 C 14.777344 -68.253906 13.109375 -65.4375 11.8125 -62.574219 C 10.585938 -59.972656 9.703125 -57.003906 9.15625 -53.671875 C 8.585938 -50.207031 8.371094 -46.628906 8.507812 -42.933594 C 8.644531 -39.222656 9.121094 -35.582031 9.945312 -32.019531 C 11.160156 -26.582031 13.242188 -21.816406 16.1875 -17.71875 C 19.070312 -13.714844 22.972656 -10.445312 27.902344 -7.902344 C 33.246094 -5.125 38.699219 -3.484375 44.265625 -2.980469 C 49.941406 -2.464844 55.71875 -2.917969 61.597656 -4.332031 C 68.644531 -5.996094 74.429688 -8.9375 78.953125 -13.164062 C 83.476562 -17.390625 86.820312 -22.964844 88.980469 -29.890625 C 90.578125 -35.175781 91.207031 -40.402344 90.863281 -45.570312 C 90.511719 -50.875 89.382812 -56.132812 87.480469 -61.347656 C 87.027344 -62.5625 86.242188 -64.21875 85.128906 -66.304688 C 84.070312 -68.289062 82.597656 -70.425781 80.710938 -72.714844 C 78.890625 -74.917969 76.566406 -77.015625 73.734375 -79.007812 C 70.957031 -80.960938 67.550781 -82.570312 63.515625 -83.839844 C 59.484375 -85.101562 54.714844 -85.707031 49.195312 -85.652344 Z M 49.59375 -53.835938 C 48.390625 -53.835938 47.269531 -53.5 46.230469 -52.824219 C 45.191406 -52.148438 44.339844 -51.058594 43.671875 -49.5625 C 42.941406 -47.914062 42.667969 -45.726562 42.847656 -42.992188 C 43.023438 -40.441406 43.535156 -38.523438 44.386719 -37.242188 C 45.207031 -36 46.101562 -35.148438 47.074219 -34.6875 C 48.078125 -34.210938 48.910156 -33.996094 49.5625 -34.046875 C 50.429688 -34.109375 51.355469 -34.417969 52.335938 -34.972656 C 53.167969 -35.441406 53.933594 -36.285156 54.632812 -37.503906 C 55.394531 -38.832031 55.839844 -40.757812 55.976562 -43.28125 C 56.160156 -45.890625 55.898438 -47.984375 55.199219 -49.566406 C 54.542969 -51.046875 53.699219 -52.140625 52.667969 -52.851562 C 51.714844 -53.507812 50.6875 -53.835938 49.59375 -53.835938 Z M 49.59375 -63.835938 C 52.761719 -63.835938 55.675781 -62.917969 58.335938 -61.085938 C 60.921875 -59.308594 62.921875 -56.820312 64.339844 -53.617188 C 65.710938 -50.519531 66.253906 -46.894531 65.960938 -42.75 C 65.742188 -38.636719 64.855469 -35.230469 63.304688 -32.53125 C 61.695312 -29.71875 59.675781 -27.628906 57.246094 -26.261719 C 54.96875 -24.976562 52.664062 -24.25 50.332031 -24.078125 C 47.90625 -23.890625 45.386719 -24.417969 42.78125 -25.65625 C 40.136719 -26.914062 37.890625 -28.9375 36.046875 -31.722656 C 34.230469 -34.472656 33.171875 -38.007812 32.871094 -42.328125 C 32.582031 -46.703125 33.136719 -50.46875 34.535156 -53.621094 C 36.003906 -56.921875 38.085938 -59.449219 40.777344 -61.203125 C 43.472656 -62.957031 46.410156 -63.835938 49.59375 -63.835938 Z M 49.59375 -63.835938 "/></g></g></g><g fill="#296a25" fill-opacity="1"><g transform="translate(282.935517, 106.358601)"><g><path d="M 73.089844 -27.4375 C 69.222656 -24.589844 65.265625 -22.59375 61.214844 -21.449219 C 57.304688 -20.347656 53.625 -19.796875 50.171875 -19.796875 C 46.847656 -19.796875 44.0625 -20.023438 41.8125 -20.472656 C 40.738281 -20.6875 39.859375 -20.886719 39.179688 -21.074219 C 38.085938 -21.371094 37.226562 -21.730469 36.597656 -22.148438 L 39.371094 -26.308594 L 39.371094 -21.308594 L 39.195312 -21.308594 L 39.195312 -26.308594 L 41.429688 -21.835938 L 41.074219 -21.65625 L 38.839844 -26.128906 L 42.375 -22.59375 L 42.328125 -22.550781 C 43.277344 -23.496094 43.75 -24.628906 43.75 -25.953125 L 43.75 -22.839844 C 43.75 -21.082031 43.71875 -18.941406 43.660156 -16.410156 C 43.597656 -13.890625 43.507812 -11.265625 43.386719 -8.535156 C 43.265625 -5.75 43.082031 -3.097656 42.835938 -0.582031 L 42.671875 1.09375 L 41.527344 2.332031 C 39.46875 4.558594 36.875 6.191406 33.753906 7.230469 C 30.785156 8.222656 27.621094 8.566406 24.265625 8.269531 C 20.902344 7.96875 17.671875 6.972656 14.574219 5.273438 C 11.441406 3.558594 8.695312 1.101562 6.332031 -2.09375 C 3.957031 -5.3125 2.3125 -9.308594 1.398438 -14.082031 C 1.121094 -15.394531 0.902344 -17.492188 0.742188 -20.382812 C 0.589844 -23.058594 0.457031 -26.253906 0.335938 -29.96875 C 0.214844 -33.695312 0.15625 -37.671875 0.15625 -41.90625 C 0.15625 -46.105469 0.183594 -50.335938 0.246094 -54.59375 C 0.304688 -58.886719 0.425781 -62.96875 0.605469 -66.84375 C 0.785156 -70.738281 1.011719 -74.191406 1.285156 -77.195312 C 1.578125 -80.414062 1.96875 -82.933594 2.460938 -84.753906 L 2.824219 -86.105469 L 3.835938 -87.070312 C 5.605469 -88.761719 8.171875 -90.273438 11.527344 -91.609375 C 14.566406 -92.820312 18.101562 -93.824219 22.132812 -94.625 C 26.074219 -95.40625 30.265625 -95.949219 34.710938 -96.261719 C 39.203125 -96.574219 43.710938 -96.542969 48.230469 -96.167969 C 52.804688 -95.785156 57.179688 -95.023438 61.359375 -93.875 C 65.773438 -92.660156 69.691406 -90.890625 73.109375 -88.566406 C 76.585938 -86.25 79.464844 -83.089844 81.75 -79.089844 C 83.917969 -75.300781 85.453125 -71.105469 86.359375 -66.511719 C 87.257812 -61.949219 87.441406 -57.304688 86.910156 -52.585938 C 86.371094 -47.78125 85 -43.214844 82.800781 -38.886719 C 80.523438 -34.402344 77.296875 -30.59375 73.121094 -27.460938 Z M 67.121094 -35.460938 C 70.058594 -37.660156 72.3125 -40.3125 73.886719 -43.414062 C 75.539062 -46.667969 76.566406 -50.097656 76.976562 -53.707031 C 77.390625 -57.402344 77.25 -61.027344 76.550781 -64.578125 C 75.855469 -68.101562 74.695312 -71.285156 73.070312 -74.128906 C 71.5625 -76.765625 69.703125 -78.820312 67.488281 -80.296875 C 64.984375 -82 62.058594 -83.3125 58.710938 -84.230469 C 55.128906 -85.214844 51.355469 -85.875 47.398438 -86.203125 C 43.386719 -86.539062 39.390625 -86.566406 35.410156 -86.289062 C 31.382812 -86.007812 27.605469 -85.515625 24.082031 -84.816406 C 20.648438 -84.132812 17.695312 -83.300781 15.222656 -82.320312 C 13.070312 -81.460938 11.574219 -80.636719 10.738281 -79.835938 L 7.289062 -83.453125 L 12.113281 -82.152344 C 11.773438 -80.890625 11.484375 -78.9375 11.246094 -76.289062 C 10.984375 -73.429688 10.765625 -70.128906 10.59375 -66.378906 C 10.417969 -62.613281 10.300781 -58.636719 10.242188 -54.453125 C 10.183594 -50.242188 10.152344 -46.058594 10.152344 -41.90625 C 10.152344 -37.78125 10.210938 -33.910156 10.328125 -30.289062 C 10.445312 -26.65625 10.578125 -23.539062 10.722656 -20.945312 C 10.859375 -18.558594 11.023438 -16.898438 11.21875 -15.957031 C 11.847656 -12.675781 12.898438 -10.035156 14.375 -8.035156 C 15.863281 -6.019531 17.53125 -4.507812 19.375 -3.496094 C 21.253906 -2.46875 23.179688 -1.867188 25.148438 -1.691406 C 27.125 -1.515625 28.9375 -1.703125 30.59375 -2.253906 C 32.089844 -2.753906 33.292969 -3.492188 34.191406 -4.464844 L 37.859375 -1.066406 L 32.886719 -1.550781 C 33.113281 -3.894531 33.285156 -6.367188 33.398438 -8.972656 C 33.515625 -11.636719 33.605469 -14.195312 33.664062 -16.648438 C 33.722656 -19.097656 33.75 -21.164062 33.75 -22.839844 L 33.75 -25.953125 C 33.75 -27.390625 34.253906 -28.613281 35.257812 -29.621094 L 35.878906 -30.238281 L 38.015625 -31.304688 L 40.886719 -31.304688 L 42.144531 -30.464844 C 41.902344 -30.628906 41.691406 -30.742188 41.503906 -30.808594 C 41.558594 -30.789062 41.660156 -30.757812 41.808594 -30.71875 C 42.269531 -30.59375 42.921875 -30.445312 43.773438 -30.277344 C 45.375 -29.957031 47.507812 -29.796875 50.171875 -29.796875 C 52.699219 -29.796875 55.476562 -30.222656 58.5 -31.074219 C 61.382812 -31.886719 64.269531 -33.359375 67.15625 -35.488281 Z M 47.4375 -56.703125 C 47.4375 -56.554688 47.464844 -56.425781 47.519531 -56.3125 C 47.503906 -56.347656 47.433594 -56.421875 47.308594 -56.539062 C 46.921875 -56.90625 46.34375 -57.152344 45.570312 -57.28125 C 45.011719 -57.375 44.285156 -57.148438 43.386719 -56.605469 L 40.792969 -60.878906 L 45.792969 -60.878906 L 45.792969 -55.992188 C 45.792969 -54.632812 45.820312 -53.214844 45.878906 -51.738281 L 45.882812 -51.644531 L 45.882812 -51.546875 C 45.882812 -52.292969 45.714844 -52.976562 45.382812 -53.601562 C 45.253906 -53.839844 45.121094 -54.039062 44.972656 -54.203125 C 44.789062 -54.410156 44.554688 -54.605469 44.273438 -54.785156 C 43.554688 -55.25 42.75 -55.480469 41.859375 -55.480469 L 45.191406 -55.480469 C 45.941406 -55.480469 46.710938 -55.5625 47.496094 -55.730469 L 47.617188 -55.753906 L 47.742188 -55.773438 C 47.769531 -55.777344 47.785156 -55.78125 47.789062 -55.78125 C 47.746094 -55.765625 47.699219 -55.742188 47.644531 -55.710938 C 47.5 -55.625 47.382812 -55.515625 47.300781 -55.386719 C 47.285156 -55.363281 47.273438 -55.351562 47.273438 -55.347656 C 47.292969 -55.390625 47.3125 -55.453125 47.328125 -55.53125 C 47.402344 -55.832031 47.4375 -56.222656 47.4375 -56.703125 Z M 57.4375 -56.703125 C 57.4375 -53.945312 56.828125 -51.65625 55.617188 -49.839844 C 54.15625 -47.648438 52.054688 -46.335938 49.3125 -45.898438 L 48.527344 -50.835938 L 49.554688 -45.945312 C 48.089844 -45.636719 46.636719 -45.480469 45.191406 -45.480469 L 41.859375 -45.480469 C 40.1875 -45.480469 38.734375 -46.175781 37.5 -47.558594 C 36.421875 -48.773438 35.882812 -50.101562 35.882812 -51.546875 L 40.882812 -51.546875 L 35.886719 -51.355469 C 35.824219 -52.960938 35.792969 -54.503906 35.792969 -55.992188 L 35.792969 -63.695312 L 38.203125 -65.15625 C 41.214844 -66.980469 44.21875 -67.644531 47.214844 -67.144531 C 49.996094 -66.679688 52.320312 -65.566406 54.1875 -63.796875 C 56.351562 -61.746094 57.4375 -59.378906 57.4375 -56.703125 Z M 57.4375 -56.703125 "/></g></g></g><g fill="#97e892" fill-opacity="1"><g transform="translate(7.778549, 106.358601)"><g><path d="M 64.875 -50.03125 C 69.382812 -47.25 72.71875 -44.019531 74.875 -40.34375 C 77.039062 -36.675781 78.210938 -32.859375 78.390625 -28.890625 C 78.566406 -24.921875 77.972656 -21.097656 76.609375 -17.421875 C 75.242188 -13.742188 73.269531 -10.5 70.6875 -7.6875 C 68.113281 -4.875 65.171875 -2.785156 61.859375 -1.421875 C 59.484375 -0.472656 56.578125 0.320312 53.140625 0.96875 C 49.710938 1.625 45.984375 2.023438 41.953125 2.171875 C 37.921875 2.328125 33.785156 2.125 29.546875 1.5625 C 25.316406 1 21.226562 -0.0195312 17.28125 -1.5 C 13.34375 -2.988281 9.773438 -5.035156 6.578125 -7.640625 C 4.859375 -9.835938 3.832031 -12.207031 3.5 -14.75 C 3.175781 -17.300781 3.429688 -19.742188 4.265625 -22.078125 C 5.097656 -24.421875 6.382812 -26.40625 8.125 -28.03125 C 9.875 -29.664062 11.960938 -30.675781 14.390625 -31.0625 C 16.828125 -31.445312 19.492188 -30.925781 22.390625 -29.5 C 26.597656 -27.425781 30.566406 -26.019531 34.296875 -25.28125 C 38.035156 -24.539062 41.148438 -24.453125 43.640625 -25.015625 C 46.128906 -25.578125 47.609375 -26.75 48.078125 -28.53125 C 48.554688 -30.300781 48.171875 -31.78125 46.921875 -32.96875 C 45.679688 -34.15625 43.398438 -34.867188 40.078125 -35.109375 C 36.460938 -35.398438 32.847656 -36.019531 29.234375 -36.96875 C 25.617188 -37.914062 22.238281 -39.289062 19.09375 -41.09375 C 15.957031 -42.90625 13.304688 -45.273438 11.140625 -48.203125 C 8.984375 -51.140625 7.550781 -54.679688 6.84375 -58.828125 C 6.601562 -60.316406 6.585938 -62.140625 6.796875 -64.296875 C 7.003906 -66.460938 7.535156 -68.757812 8.390625 -71.1875 C 9.253906 -73.613281 10.5625 -76.007812 12.3125 -78.375 C 14.0625 -80.75 16.382812 -82.914062 19.28125 -84.875 C 22.1875 -86.832031 25.773438 -88.375 30.046875 -89.5 C 33.003906 -90.320312 36.140625 -90.835938 39.453125 -91.046875 C 42.773438 -91.253906 46.078125 -91.207031 49.359375 -90.90625 C 52.648438 -90.613281 55.71875 -90.050781 58.5625 -89.21875 C 61.40625 -88.394531 63.773438 -87.363281 65.671875 -86.125 C 68.753906 -84.050781 70.976562 -81.84375 72.34375 -79.5 C 73.707031 -77.15625 74.375 -74.84375 74.34375 -72.5625 C 74.3125 -70.28125 73.757812 -68.144531 72.6875 -66.15625 C 71.625 -64.175781 70.234375 -62.488281 68.515625 -61.09375 C 66.796875 -59.707031 64.898438 -58.773438 62.828125 -58.296875 C 61.523438 -59.898438 59.734375 -61.28125 57.453125 -62.4375 C 55.171875 -63.59375 52.710938 -64.476562 50.078125 -65.09375 C 47.441406 -65.71875 44.9375 -66.015625 42.5625 -65.984375 C 40.195312 -65.953125 38.257812 -65.566406 36.75 -64.828125 C 35.238281 -64.085938 34.453125 -62.945312 34.390625 -61.40625 C 34.390625 -60.457031 34.804688 -59.671875 35.640625 -59.046875 C 36.472656 -58.429688 38.015625 -57.976562 40.265625 -57.6875 C 46.773438 -56.851562 52.101562 -55.617188 56.25 -53.984375 C 60.40625 -52.359375 63.28125 -51.039062 64.875 -50.03125 Z M 64.875 -50.03125 "/></g></g><g transform="translate(91.498794, 106.358601)"><g><path d="M 37.234375 -58.125 C 40.203125 -58.125 43.078125 -58.125 45.859375 -58.125 C 48.640625 -58.125 51.453125 -58.125 54.296875 -58.125 C 54.421875 -61.4375 54.492188 -64.882812 54.515625 -68.46875 C 54.546875 -72.0625 54.601562 -75.351562 54.6875 -78.34375 C 54.78125 -81.332031 54.945312 -83.628906 55.1875 -85.234375 C 57.382812 -86.953125 59.90625 -88.117188 62.75 -88.734375 C 65.59375 -89.359375 68.460938 -89.445312 71.359375 -89 C 74.265625 -88.5625 76.960938 -87.597656 79.453125 -86.109375 C 81.941406 -84.628906 83.957031 -82.660156 85.5 -80.203125 C 87.039062 -77.742188 87.8125 -74.828125 87.8125 -71.453125 C 87.8125 -69.679688 87.8125 -67.207031 87.8125 -64.03125 C 87.8125 -60.863281 87.8125 -57.21875 87.8125 -53.09375 C 87.8125 -48.976562 87.8125 -44.582031 87.8125 -39.90625 C 87.8125 -35.226562 87.796875 -30.472656 87.765625 -25.640625 C 87.734375 -20.804688 87.71875 -16.140625 87.71875 -11.640625 C 87.71875 -10.097656 87.703125 -8.394531 87.671875 -6.53125 C 87.640625 -4.664062 87.566406 -3.226562 87.453125 -2.21875 C 86.796875 -1.507812 85.59375 -0.84375 83.84375 -0.21875 C 82.101562 0.40625 80.0625 0.847656 77.71875 1.109375 C 75.375 1.378906 72.957031 1.425781 70.46875 1.25 C 67.988281 1.070312 65.617188 0.539062 63.359375 -0.34375 C 61.109375 -1.238281 59.226562 -2.53125 57.71875 -4.21875 C 56.207031 -5.90625 55.273438 -8.082031 54.921875 -10.75 C 54.742188 -11.9375 54.609375 -13.375 54.515625 -15.0625 C 54.429688 -16.75 54.359375 -18.523438 54.296875 -20.390625 C 54.242188 -22.265625 54.203125 -24 54.171875 -25.59375 C 54.140625 -27.195312 54.125 -28.472656 54.125 -29.421875 C 51.28125 -29.421875 48.539062 -29.421875 45.90625 -29.421875 C 43.269531 -29.421875 40.46875 -29.421875 37.5 -29.421875 C 37.5 -25.097656 37.5 -20.625 37.5 -16 C 37.5 -11.375 37.5 -6.753906 37.5 -2.140625 C 36.675781 -1.421875 35.34375 -0.71875 33.5 -0.03125 C 31.664062 0.644531 29.546875 1.128906 27.140625 1.421875 C 24.742188 1.710938 22.285156 1.722656 19.765625 1.453125 C 17.253906 1.191406 14.882812 0.484375 12.65625 -0.671875 C 10.4375 -1.828125 8.585938 -3.546875 7.109375 -5.828125 C 5.628906 -8.109375 4.769531 -11.054688 4.53125 -14.671875 C 4.414062 -16.328125 4.296875 -18.78125 4.171875 -22.03125 C 4.054688 -25.289062 3.9375 -29.054688 3.8125 -33.328125 C 3.695312 -37.597656 3.59375 -42.113281 3.5 -46.875 C 3.414062 -51.644531 3.375 -56.34375 3.375 -60.96875 C 3.375 -65.59375 3.40625 -69.90625 3.46875 -73.90625 C 3.53125 -77.90625 3.648438 -81.234375 3.828125 -83.890625 C 6.191406 -85.847656 8.796875 -87.238281 11.640625 -88.0625 C 14.484375 -88.894531 17.34375 -89.207031 20.21875 -89 C 23.09375 -88.800781 25.742188 -88.125 28.171875 -86.96875 C 30.597656 -85.8125 32.609375 -84.253906 34.203125 -82.296875 C 35.804688 -80.335938 36.726562 -78 36.96875 -75.28125 C 37.269531 -72.664062 37.421875 -70.097656 37.421875 -67.578125 C 37.421875 -65.066406 37.390625 -62.9375 37.328125 -61.1875 C 37.265625 -59.4375 37.234375 -58.414062 37.234375 -58.125 Z M 37.234375 -58.125 "/></g></g></g><g fill="#97e892" fill-opacity="1"><g transform="translate(183.395532, 106.358601)"><g><path d="M 49.140625 -90.65625 C 55.191406 -90.707031 60.484375 -90.019531 65.015625 -88.59375 C 69.546875 -87.175781 73.410156 -85.34375 76.609375 -83.09375 C 79.804688 -80.84375 82.457031 -78.441406 84.5625 -75.890625 C 86.664062 -73.347656 88.320312 -70.9375 89.53125 -68.65625 C 90.75 -66.375 91.625 -64.519531 92.15625 -63.09375 C 94.238281 -57.40625 95.46875 -51.671875 95.84375 -45.890625 C 96.226562 -40.117188 95.535156 -34.300781 93.765625 -28.4375 C 88.898438 -12.851562 78.5625 -3.195312 62.75 0.53125 C 56.34375 2.070312 50.03125 2.5625 43.8125 2 C 37.59375 1.4375 31.519531 -0.382812 25.59375 -3.46875 C 19.96875 -6.375 15.476562 -10.148438 12.125 -14.796875 C 8.78125 -19.453125 6.425781 -24.828125 5.0625 -30.921875 C 4.175781 -34.773438 3.65625 -38.71875 3.5 -42.75 C 3.351562 -46.78125 3.59375 -50.691406 4.21875 -54.484375 C 4.84375 -58.273438 5.863281 -61.679688 7.28125 -64.703125 C 8.707031 -67.835938 10.546875 -70.929688 12.796875 -73.984375 C 15.046875 -77.035156 17.828125 -79.820312 21.140625 -82.34375 C 24.460938 -84.863281 28.4375 -86.878906 33.0625 -88.390625 C 37.6875 -89.898438 43.046875 -90.65625 49.140625 -90.65625 Z M 49.59375 -58.828125 C 47.394531 -58.828125 45.363281 -58.21875 43.5 -57 C 41.632812 -55.789062 40.164062 -53.988281 39.09375 -51.59375 C 38.03125 -49.195312 37.617188 -46.21875 37.859375 -42.65625 C 38.097656 -39.21875 38.882812 -36.492188 40.21875 -34.484375 C 41.550781 -32.472656 43.117188 -31.035156 44.921875 -30.171875 C 46.734375 -29.316406 48.410156 -28.945312 49.953125 -29.0625 C 51.546875 -29.175781 53.15625 -29.691406 54.78125 -30.609375 C 56.414062 -31.535156 57.8125 -33.003906 58.96875 -35.015625 C 60.125 -37.023438 60.789062 -39.691406 60.96875 -43.015625 C 61.207031 -46.390625 60.804688 -49.25 59.765625 -51.59375 C 58.734375 -53.9375 57.3125 -55.726562 55.5 -56.96875 C 53.695312 -58.207031 51.726562 -58.828125 49.59375 -58.828125 Z M 49.59375 -58.828125 "/></g></g></g><g fill="#97e892" fill-opacity="1"><g transform="translate(282.935516, 106.358601)"><g><path d="M 70.125 -31.46875 C 66.75 -28.976562 63.328125 -27.242188 59.859375 -26.265625 C 56.390625 -25.285156 53.160156 -24.796875 50.171875 -24.796875 C 47.179688 -24.796875 44.722656 -24.988281 42.796875 -25.375 C 40.867188 -25.757812 39.726562 -26.070312 39.375 -26.3125 C 39.3125 -26.3125 39.28125 -26.3125 39.28125 -26.3125 C 39.28125 -26.3125 39.25 -26.3125 39.1875 -26.3125 C 39.1875 -26.3125 39.070312 -26.25 38.84375 -26.125 C 38.84375 -26.125 38.828125 -26.109375 38.796875 -26.078125 C 38.765625 -26.054688 38.75 -26.015625 38.75 -25.953125 C 38.75 -25.597656 38.75 -24.5625 38.75 -22.84375 C 38.75 -21.125 38.71875 -19.019531 38.65625 -16.53125 C 38.601562 -14.039062 38.515625 -11.445312 38.390625 -8.75 C 38.273438 -6.050781 38.097656 -3.488281 37.859375 -1.0625 C 36.378906 0.53125 34.484375 1.710938 32.171875 2.484375 C 29.859375 3.253906 27.367188 3.519531 24.703125 3.28125 C 22.035156 3.050781 19.457031 2.253906 16.96875 0.890625 C 14.488281 -0.472656 12.285156 -2.457031 10.359375 -5.0625 C 8.429688 -7.664062 7.082031 -10.984375 6.3125 -15.015625 C 6.070312 -16.140625 5.878906 -18.019531 5.734375 -20.65625 C 5.585938 -23.300781 5.453125 -26.457031 5.328125 -30.125 C 5.210938 -33.800781 5.15625 -37.726562 5.15625 -41.90625 C 5.15625 -46.082031 5.179688 -50.285156 5.234375 -54.515625 C 5.296875 -58.753906 5.414062 -62.785156 5.59375 -66.609375 C 5.769531 -70.429688 5.992188 -73.804688 6.265625 -76.734375 C 6.535156 -79.671875 6.875 -81.910156 7.28125 -83.453125 C 8.59375 -84.691406 10.625 -85.859375 13.375 -86.953125 C 16.132812 -88.054688 19.378906 -88.976562 23.109375 -89.71875 C 26.835938 -90.457031 30.820312 -90.972656 35.0625 -91.265625 C 39.300781 -91.566406 43.550781 -91.539062 47.8125 -91.1875 C 52.082031 -90.832031 56.15625 -90.117188 60.03125 -89.046875 C 63.914062 -87.984375 67.335938 -86.445312 70.296875 -84.4375 C 73.140625 -82.539062 75.507812 -79.929688 77.40625 -76.609375 C 79.300781 -73.296875 80.648438 -69.609375 81.453125 -65.546875 C 82.253906 -61.484375 82.414062 -57.347656 81.9375 -53.140625 C 81.46875 -48.941406 80.269531 -44.945312 78.34375 -41.15625 C 76.414062 -37.363281 73.675781 -34.132812 70.125 -31.46875 Z M 52.4375 -56.703125 C 52.4375 -57.941406 51.875 -59.09375 50.75 -60.15625 C 49.625 -61.226562 48.171875 -61.910156 46.390625 -62.203125 C 44.609375 -62.503906 42.742188 -62.0625 40.796875 -60.875 C 40.796875 -59.039062 40.796875 -57.410156 40.796875 -55.984375 C 40.796875 -54.566406 40.820312 -53.085938 40.875 -51.546875 C 40.875 -51.367188 40.992188 -51.144531 41.234375 -50.875 C 41.472656 -50.613281 41.679688 -50.484375 41.859375 -50.484375 C 42.984375 -50.484375 44.09375 -50.484375 45.1875 -50.484375 C 46.289062 -50.484375 47.40625 -50.601562 48.53125 -50.84375 C 51.132812 -51.25 52.4375 -53.203125 52.4375 -56.703125 Z M 52.4375 -56.703125 "/></g></g></g></svg>