<svg xmlns="http://www.w3.org/2000/svg" xmlns:xlink="http://www.w3.org/1999/xlink" width="1200" zoomAndPan="magnify" viewBox="0 0 900 119.999999" height="160" preserveAspectRatio="xMidYMid meet" version="1.0"><defs><g/><clipPath id="aac8ea9e63"><path d="M 403 2 L 500.761719 2 L 500.761719 105 L 403 105 Z M 403 2 " clip-rule="nonzero"/></clipPath><clipPath id="8ae010e660"><rect x="0" width="501" y="0" height="111"/></clipPath></defs><g transform="matrix(1, 0, 0, 1, 3, 9)"><g clip-path="url(#8ae010e660)"><g fill="#793b8f" fill-opacity="1"><g transform="translate(4.377516, 97.577668)"><g><path d="M 67.082031 -53.945312 C 72.253906 -50.75 76.121094 -46.972656 78.6875 -42.617188 C 81.253906 -38.253906 82.644531 -33.691406 82.859375 -28.925781 C 83.0625 -24.308594 82.375 -19.863281 80.785156 -15.582031 C 79.207031 -11.324219 76.917969 -7.558594 73.917969 -4.285156 C 70.859375 -0.941406 67.335938 1.546875 63.355469 3.183594 C 60.675781 4.253906 57.46875 5.144531 53.738281 5.851562 C 50.078125 6.546875 46.121094 6.972656 41.867188 7.128906 C 37.582031 7.285156 33.199219 7.066406 28.710938 6.46875 C 24.125 5.859375 19.699219 4.753906 15.429688 3.148438 C 11.007812 1.488281 6.996094 -0.8125 3.398438 -3.742188 L 2.96875 -4.09375 L 2.625 -4.53125 C 0.355469 -7.425781 -1 -10.59375 -1.4375 -14.03125 C -1.863281 -17.34375 -1.53125 -20.535156 -0.445312 -23.605469 C 0.652344 -26.695312 2.363281 -29.324219 4.691406 -31.496094 C 7.171875 -33.808594 10.117188 -35.230469 13.527344 -35.773438 C 16.976562 -36.320312 20.613281 -35.65625 24.441406 -33.78125 C 28.238281 -31.910156 31.777344 -30.648438 35.058594 -30 C 38.078125 -29.398438 40.480469 -29.300781 42.265625 -29.707031 C 42.769531 -29.820312 43.09375 -29.933594 43.242188 -30.050781 C 43.113281 -29.949219 43.027344 -29.808594 42.976562 -29.628906 C 42.996094 -29.695312 43.003906 -29.738281 43.003906 -29.753906 C 43.003906 -29.691406 43.015625 -29.613281 43.035156 -29.527344 C 43.082031 -29.351562 43.140625 -29.230469 43.203125 -29.167969 C 43.222656 -29.148438 43.234375 -29.136719 43.246094 -29.132812 C 43.226562 -29.148438 43.195312 -29.164062 43.15625 -29.183594 C 43 -29.269531 42.789062 -29.351562 42.523438 -29.433594 C 41.757812 -29.675781 40.742188 -29.839844 39.476562 -29.929688 C 35.5625 -30.25 31.667969 -30.917969 27.796875 -31.933594 C 23.777344 -32.988281 20.015625 -34.523438 16.511719 -36.539062 C 12.789062 -38.683594 9.644531 -41.488281 7.085938 -44.960938 C 4.46875 -48.507812 2.742188 -52.730469 1.902344 -57.625 C 1.59375 -59.550781 1.5625 -61.800781 1.8125 -64.371094 C 2.054688 -66.925781 2.671875 -69.601562 3.664062 -72.398438 C 4.679688 -75.277344 6.203125 -78.089844 8.234375 -80.84375 C 10.308594 -83.660156 13.027344 -86.199219 16.390625 -88.460938 C 19.738281 -90.71875 23.804688 -92.476562 28.582031 -93.738281 C 31.816406 -94.644531 35.253906 -95.210938 38.902344 -95.4375 C 42.453125 -95.660156 45.984375 -95.613281 49.503906 -95.292969 C 53.09375 -94.972656 56.457031 -94.351562 59.589844 -93.4375 C 62.894531 -92.476562 65.691406 -91.238281 67.992188 -89.730469 C 71.714844 -87.226562 74.445312 -84.480469 76.183594 -81.5 C 77.996094 -78.378906 78.886719 -75.230469 78.84375 -72.046875 C 78.804688 -68.96875 78.0625 -66.085938 76.617188 -63.398438 C 75.242188 -60.839844 73.445312 -58.660156 71.21875 -56.855469 C 68.914062 -54.988281 66.355469 -53.734375 63.546875 -53.09375 L 60.539062 -52.402344 L 58.585938 -54.796875 C 57.738281 -55.839844 56.492188 -56.78125 54.851562 -57.609375 C 52.9375 -58.578125 50.859375 -59.328125 48.625 -59.855469 C 46.402344 -60.378906 44.3125 -60.632812 42.367188 -60.605469 C 40.757812 -60.585938 39.535156 -60.371094 38.707031 -59.964844 C 38.679688 -59.953125 38.65625 -59.941406 38.644531 -59.933594 C 38.652344 -59.9375 38.660156 -59.945312 38.675781 -59.957031 C 38.753906 -60.019531 38.828125 -60.105469 38.898438 -60.207031 C 39.054688 -60.433594 39.136719 -60.640625 39.140625 -60.835938 L 34.179688 -61.027344 L 39.144531 -61.027344 C 39.144531 -61.375 39.058594 -61.71875 38.878906 -62.054688 C 38.738281 -62.320312 38.578125 -62.523438 38.394531 -62.660156 C 38.316406 -62.71875 38.257812 -62.757812 38.226562 -62.773438 C 38.3125 -62.734375 38.4375 -62.6875 38.601562 -62.640625 C 39.113281 -62.488281 39.796875 -62.355469 40.65625 -62.242188 C 47.527344 -61.367188 53.214844 -60.046875 57.71875 -58.277344 C 62.132812 -56.542969 65.265625 -55.09375 67.117188 -53.925781 Z M 61.824219 -45.519531 C 60.496094 -46.351562 57.917969 -47.523438 54.085938 -49.027344 C 50.351562 -50.496094 45.441406 -51.617188 39.359375 -52.390625 C 36.261719 -52.800781 33.953125 -53.574219 32.433594 -54.710938 C 31.425781 -55.464844 30.648438 -56.367188 30.09375 -57.414062 C 29.503906 -58.53125 29.210938 -59.734375 29.210938 -61.027344 L 29.210938 -61.121094 L 29.214844 -61.21875 C 29.28125 -62.941406 29.78125 -64.484375 30.714844 -65.839844 C 31.597656 -67.121094 32.800781 -68.136719 34.332031 -68.886719 C 36.503906 -69.953125 39.140625 -70.503906 42.242188 -70.542969 C 45.003906 -70.578125 47.890625 -70.238281 50.90625 -69.527344 C 53.910156 -68.816406 56.722656 -67.800781 59.339844 -66.472656 C 62.234375 -65.007812 64.550781 -63.207031 66.289062 -61.074219 L 62.4375 -57.933594 L 61.332031 -62.777344 C 62.644531 -63.078125 63.855469 -63.675781 64.964844 -64.578125 C 66.152344 -65.542969 67.121094 -66.714844 67.867188 -68.101562 C 68.542969 -69.359375 68.890625 -70.71875 68.910156 -72.175781 C 68.925781 -73.523438 68.488281 -74.964844 67.597656 -76.5 C 66.625 -78.167969 64.9375 -79.808594 62.539062 -81.425781 C 61.070312 -82.390625 59.160156 -83.214844 56.808594 -83.898438 C 54.292969 -84.632812 51.558594 -85.132812 48.613281 -85.398438 C 45.597656 -85.671875 42.566406 -85.710938 39.523438 -85.519531 C 36.574219 -85.335938 33.773438 -84.875 31.117188 -84.128906 C 27.421875 -83.15625 24.359375 -81.851562 21.941406 -80.222656 C 19.53125 -78.597656 17.625 -76.839844 16.230469 -74.945312 C 14.785156 -72.988281 13.71875 -71.035156 13.03125 -69.085938 C 12.3125 -67.054688 11.867188 -65.167969 11.703125 -63.421875 C 11.535156 -61.695312 11.535156 -60.320312 11.695312 -59.304688 C 12.269531 -55.957031 13.398438 -53.140625 15.082031 -50.859375 C 16.820312 -48.503906 18.945312 -46.601562 21.464844 -45.152344 C 24.203125 -43.578125 27.152344 -42.375 30.316406 -41.542969 C 33.628906 -40.675781 36.917969 -40.109375 40.183594 -39.839844 C 44.667969 -39.519531 47.957031 -38.359375 50.058594 -36.363281 C 51.359375 -35.121094 52.222656 -33.679688 52.652344 -32.027344 C 53.0625 -30.449219 53.039062 -28.796875 52.578125 -27.070312 C 52.058594 -25.121094 51 -23.519531 49.402344 -22.253906 C 48.074219 -21.207031 46.429688 -20.460938 44.460938 -20.015625 C 41.300781 -19.300781 37.523438 -19.378906 33.121094 -20.253906 C 28.984375 -21.074219 24.632812 -22.609375 20.070312 -24.859375 C 18.125 -25.8125 16.464844 -26.179688 15.085938 -25.960938 C 13.671875 -25.734375 12.464844 -25.160156 11.46875 -24.230469 C 10.324219 -23.164062 9.476562 -21.847656 8.921875 -20.285156 C 8.359375 -18.703125 8.191406 -17.039062 8.417969 -15.289062 C 8.625 -13.664062 9.300781 -12.121094 10.445312 -10.660156 L 6.535156 -7.59375 L 9.671875 -11.445312 C 12.433594 -9.199219 15.515625 -7.433594 18.925781 -6.152344 C 22.488281 -4.8125 26.183594 -3.890625 30.019531 -3.378906 C 33.949219 -2.855469 37.777344 -2.664062 41.503906 -2.800781 C 45.257812 -2.9375 48.71875 -3.308594 51.886719 -3.910156 C 54.988281 -4.496094 57.550781 -5.195312 59.582031 -6.007812 C 62.191406 -7.082031 64.53125 -8.742188 66.589844 -10.996094 C 68.714844 -13.3125 70.339844 -15.996094 71.46875 -19.039062 C 72.589844 -22.058594 73.078125 -25.207031 72.929688 -28.480469 C 72.792969 -31.601562 71.855469 -34.632812 70.125 -37.574219 C 68.390625 -40.519531 65.636719 -43.160156 61.855469 -45.496094 Z M 61.824219 -45.519531 "/></g></g></g><g fill="#793b8f" fill-opacity="1"><g transform="translate(87.563862, 97.577668)"><g><path d="M 83.347656 -91.148438 C 84.683594 -89.394531 85.746094 -87.054688 86.535156 -84.132812 C 87.273438 -81.375 87.609375 -78.421875 87.542969 -75.269531 C 87.46875 -71.949219 86.777344 -68.753906 85.464844 -65.691406 C 84.046875 -62.390625 81.8125 -59.617188 78.757812 -57.375 C 75.644531 -55.089844 71.628906 -53.800781 66.710938 -53.503906 C 65.1875 -53.445312 63.949219 -53.375 62.996094 -53.292969 C 61.824219 -53.195312 61.050781 -53.144531 60.671875 -53.144531 L 60.671875 -58.113281 L 65.636719 -58.289062 C 65.757812 -54.945312 65.832031 -51.277344 65.863281 -47.285156 C 65.890625 -43.304688 65.875 -39.207031 65.816406 -34.992188 C 65.757812 -30.761719 65.636719 -26.632812 65.460938 -22.609375 C 65.28125 -18.59375 65.074219 -14.847656 64.835938 -11.363281 C 64.589844 -7.792969 64.28125 -4.734375 63.910156 -2.195312 L 63.695312 -0.71875 L 62.699219 0.394531 C 60.617188 2.726562 58.007812 4.382812 54.863281 5.359375 C 51.910156 6.28125 48.796875 6.535156 45.523438 6.121094 C 42.242188 5.707031 39.085938 4.558594 36.058594 2.671875 C 33.054688 0.804688 30.429688 -1.769531 28.179688 -5.054688 C 25.929688 -8.339844 24.359375 -12.386719 23.464844 -17.199219 C 23.195312 -18.621094 22.964844 -20.804688 22.773438 -23.746094 C 22.59375 -26.523438 22.429688 -29.773438 22.28125 -33.492188 C 22.132812 -37.214844 22.027344 -41.203125 21.96875 -45.457031 C 21.910156 -49.714844 21.910156 -53.984375 21.96875 -58.269531 L 26.9375 -58.199219 L 27.332031 -53.246094 C 24.242188 -53 21.0625 -52.890625 17.792969 -52.921875 C 14.355469 -52.957031 11.035156 -53.296875 7.839844 -53.949219 L 6.007812 -54.324219 L 4.875 -55.8125 C 3.324219 -57.855469 2.203125 -60.386719 1.515625 -63.410156 C 0.867188 -66.25 0.6875 -69.226562 0.96875 -72.339844 C 1.257812 -75.515625 2.089844 -78.550781 3.460938 -81.4375 C 4.945312 -84.566406 7.128906 -87.160156 10 -89.21875 C 12.941406 -91.324219 16.558594 -92.527344 20.847656 -92.828125 C 22.828125 -92.953125 25.402344 -93.046875 28.5625 -93.105469 C 31.6875 -93.164062 35.164062 -93.195312 38.992188 -93.195312 L 50.691406 -93.195312 L 62.324219 -93.152344 L 72.441406 -93.105469 L 81.855469 -93.105469 Z M 75.445312 -85.128906 L 79.394531 -88.140625 L 79.394531 -83.171875 L 72.398438 -83.171875 L 62.289062 -83.214844 L 50.691406 -83.257812 L 38.992188 -83.257812 C 35.226562 -83.257812 31.8125 -83.230469 28.753906 -83.171875 C 25.734375 -83.113281 23.332031 -83.03125 21.542969 -82.917969 C 19.121094 -82.75 17.203125 -82.15625 15.785156 -81.140625 C 14.304688 -80.078125 13.1875 -78.757812 12.4375 -77.175781 C 11.570312 -75.355469 11.046875 -73.441406 10.863281 -71.4375 C 10.675781 -69.371094 10.789062 -67.429688 11.203125 -65.617188 C 11.574219 -63.992188 12.101562 -62.726562 12.785156 -61.824219 L 8.832031 -58.816406 L 9.824219 -63.6875 C 12.398438 -63.160156 15.085938 -62.886719 17.886719 -62.859375 C 20.859375 -62.832031 23.742188 -62.929688 26.539062 -63.152344 L 31.980469 -63.585938 L 31.902344 -58.132812 C 31.84375 -53.9375 31.84375 -49.761719 31.902344 -45.597656 C 31.960938 -41.429688 32.0625 -37.527344 32.210938 -33.890625 C 32.355469 -30.25 32.515625 -27.082031 32.6875 -24.386719 C 32.851562 -21.851562 33.035156 -20.0625 33.234375 -19.011719 C 33.871094 -15.578125 34.917969 -12.796875 36.378906 -10.667969 C 37.839844 -8.53125 39.484375 -6.898438 41.304688 -5.765625 C 43.105469 -4.644531 44.925781 -3.96875 46.769531 -3.738281 C 48.617188 -3.503906 50.328125 -3.632812 51.910156 -4.125 C 53.300781 -4.558594 54.425781 -5.257812 55.289062 -6.222656 L 58.996094 -2.914062 L 54.078125 -3.632812 C 54.414062 -5.921875 54.695312 -8.722656 54.921875 -12.039062 C 55.15625 -15.445312 55.359375 -19.117188 55.53125 -23.050781 C 55.707031 -26.972656 55.824219 -31 55.882812 -35.132812 C 55.941406 -39.277344 55.953125 -43.304688 55.925781 -47.210938 C 55.898438 -51.109375 55.824219 -54.683594 55.707031 -57.933594 L 55.523438 -63.078125 L 60.671875 -63.078125 C 60.765625 -63.078125 61.257812 -63.117188 62.148438 -63.195312 C 63.253906 -63.289062 64.578125 -63.367188 66.117188 -63.425781 C 69.085938 -63.601562 71.339844 -64.253906 72.878906 -65.382812 C 74.476562 -66.558594 75.625 -67.964844 76.332031 -69.605469 C 77.136719 -71.488281 77.5625 -73.449219 77.609375 -75.488281 C 77.65625 -77.691406 77.433594 -79.710938 76.9375 -81.546875 C 76.488281 -83.214844 75.992188 -84.410156 75.445312 -85.128906 Z M 75.445312 -85.128906 "/></g></g></g><g fill="#793b8f" fill-opacity="1"><g transform="translate(174.370844, 97.577668)"><g><path d="M -0.101562 -20.109375 C -0.222656 -22.179688 -0.316406 -24.941406 -0.375 -28.394531 C -0.433594 -31.808594 -0.464844 -35.636719 -0.464844 -39.875 C -0.464844 -44.117188 -0.417969 -48.507812 -0.332031 -53.042969 C -0.242188 -57.570312 -0.125 -62.023438 0.0234375 -66.40625 C 0.171875 -70.796875 0.351562 -74.867188 0.558594 -78.613281 C 0.769531 -82.425781 1.03125 -85.621094 1.335938 -88.195312 L 1.808594 -92.15625 L 5.777344 -92.550781 C 8.828125 -92.859375 12.511719 -93.085938 16.828125 -93.238281 C 21.074219 -93.386719 25.632812 -93.488281 30.496094 -93.546875 C 35.375 -93.609375 40.269531 -93.59375 45.175781 -93.503906 C 50.070312 -93.414062 54.699219 -93.28125 59.066406 -93.101562 C 63.449219 -92.925781 67.230469 -92.714844 70.40625 -92.476562 L 72.769531 -92.296875 L 74.117188 -90.347656 C 74.984375 -89.097656 75.695312 -87.394531 76.257812 -85.234375 C 76.769531 -83.261719 77.042969 -81.074219 77.078125 -78.675781 C 77.113281 -76.226562 76.8125 -73.761719 76.171875 -71.269531 C 75.476562 -68.574219 74.269531 -66.078125 72.550781 -63.785156 C 70.71875 -61.34375 68.257812 -59.417969 65.160156 -58.007812 C 62.183594 -56.648438 58.566406 -55.96875 54.3125 -55.96875 L 36.121094 -55.96875 L 36.121094 -60.9375 L 41.089844 -60.9375 L 41.089844 -56.34375 L 36.121094 -56.34375 L 36.121094 -61.3125 C 37.375 -61.3125 39.113281 -61.34375 41.335938 -61.398438 C 43.644531 -61.460938 46.144531 -61.488281 48.839844 -61.488281 C 51.640625 -61.488281 54.398438 -61.367188 57.109375 -61.117188 C 60.019531 -60.847656 62.585938 -60.367188 64.804688 -59.675781 L 66.925781 -59.011719 L 67.84375 -56.988281 C 69.972656 -52.308594 70.851562 -47.859375 70.480469 -43.636719 C 70.070312 -38.992188 68.226562 -35.175781 64.945312 -32.183594 C 61.75 -29.269531 57.378906 -27.660156 51.84375 -27.363281 C 50.261719 -27.300781 48.785156 -27.265625 47.425781 -27.265625 C 46.101562 -27.265625 44.570312 -27.28125 42.835938 -27.3125 C 41.15625 -27.339844 38.949219 -27.355469 36.210938 -27.355469 L 36.210938 -32.324219 L 41.175781 -32.324219 L 41.175781 -26.9375 L 36.210938 -26.9375 L 36.210938 -31.902344 L 69.125 -31.902344 L 70.613281 -29.851562 C 72.777344 -26.863281 74.160156 -23.554688 74.757812 -19.929688 C 75.363281 -16.277344 75.097656 -12.710938 73.960938 -9.234375 C 72.773438 -5.582031 70.550781 -2.460938 67.304688 0.128906 C 64.105469 2.683594 59.953125 4.28125 54.851562 4.929688 C 53.257812 5.121094 51.160156 5.292969 48.554688 5.445312 C 45.972656 5.597656 43.140625 5.6875 40.054688 5.71875 C 37.003906 5.75 33.96875 5.734375 30.945312 5.671875 C 27.882812 5.613281 25.113281 5.492188 22.640625 5.308594 C 20.007812 5.113281 17.921875 4.839844 16.386719 4.492188 L 16.316406 4.476562 L 16.25 4.457031 C 10.847656 3.070312 6.808594 0.238281 4.136719 -4.03125 C 1.714844 -7.898438 0.300781 -13.257812 -0.101562 -20.109375 Z M 9.816406 -20.691406 C 10.121094 -15.53125 11.035156 -11.738281 12.554688 -9.304688 C 13.828125 -7.273438 15.882812 -5.894531 18.722656 -5.164062 L 17.488281 -0.351562 L 18.585938 -5.199219 C 19.640625 -4.957031 21.234375 -4.757812 23.375 -4.601562 C 25.667969 -4.429688 28.257812 -4.316406 31.140625 -4.261719 C 34.066406 -4.203125 37.003906 -4.1875 39.957031 -4.21875 C 42.878906 -4.246094 45.550781 -4.332031 47.972656 -4.472656 C 50.375 -4.613281 52.25 -4.765625 53.601562 -4.929688 C 56.859375 -5.339844 59.363281 -6.246094 61.109375 -7.636719 C 62.804688 -8.992188 63.941406 -10.550781 64.515625 -12.316406 C 65.148438 -14.253906 65.296875 -16.253906 64.957031 -18.3125 C 64.613281 -20.394531 63.816406 -22.296875 62.566406 -24.019531 L 66.589844 -26.9375 L 66.589844 -21.96875 L 31.242188 -21.96875 L 31.242188 -37.292969 L 36.210938 -37.292969 C 39.003906 -37.292969 41.269531 -37.277344 43.007812 -37.246094 C 44.6875 -37.21875 46.160156 -37.203125 47.425781 -37.203125 C 48.65625 -37.203125 49.949219 -37.230469 51.308594 -37.285156 C 54.484375 -37.457031 56.800781 -38.203125 58.253906 -39.527344 C 59.625 -40.777344 60.398438 -42.433594 60.582031 -44.503906 C 60.800781 -46.992188 60.207031 -49.785156 58.800781 -52.875 L 63.324219 -54.933594 L 61.839844 -50.191406 C 60.292969 -50.675781 58.410156 -51.019531 56.199219 -51.222656 C 53.789062 -51.441406 51.335938 -51.554688 48.839844 -51.554688 C 46.230469 -51.554688 43.816406 -51.523438 41.59375 -51.46875 C 39.285156 -51.40625 37.460938 -51.378906 36.121094 -51.378906 L 31.152344 -51.378906 L 31.152344 -65.90625 L 54.3125 -65.90625 C 57.128906 -65.90625 59.371094 -66.285156 61.042969 -67.046875 C 62.597656 -67.757812 63.785156 -68.65625 64.601562 -69.746094 C 65.53125 -70.988281 66.179688 -72.320312 66.546875 -73.746094 C 66.96875 -75.375 67.164062 -76.96875 67.140625 -78.527344 C 67.117188 -80.132812 66.949219 -81.535156 66.636719 -82.742188 C 66.375 -83.761719 66.144531 -84.410156 65.949219 -84.691406 L 70.035156 -87.519531 L 69.660156 -82.566406 C 66.597656 -82.796875 62.929688 -83 58.660156 -83.175781 C 54.371094 -83.351562 49.816406 -83.480469 44.996094 -83.570312 C 40.1875 -83.65625 35.394531 -83.671875 30.617188 -83.613281 C 25.828125 -83.554688 21.347656 -83.453125 17.175781 -83.304688 C 13.070312 -83.164062 9.601562 -82.949219 6.765625 -82.664062 L 6.269531 -87.609375 L 11.203125 -87.023438 C 10.921875 -84.652344 10.679688 -81.664062 10.480469 -78.058594 C 10.277344 -74.386719 10.101562 -70.390625 9.953125 -66.070312 C 9.808594 -61.734375 9.691406 -57.328125 9.605469 -52.847656 C 9.515625 -48.375 9.472656 -44.050781 9.472656 -39.875 C 9.472656 -35.695312 9.5 -31.925781 9.558594 -28.566406 C 9.617188 -25.25 9.703125 -22.625 9.816406 -20.691406 Z M 9.816406 -20.691406 "/></g></g></g><g fill="#793b8f" fill-opacity="1"><g transform="translate(248.726357, 97.577668)"><g><path d="M 59.1875 4.695312 C 55.988281 4.875 52.746094 4.980469 49.457031 5.011719 C 46.199219 5.042969 43.1875 5.027344 40.429688 4.96875 C 37.699219 4.90625 35.496094 4.847656 33.824219 4.789062 L 31.351562 4.699219 L 31.527344 -0.265625 L 31.527344 4.703125 C 29.003906 4.703125 26.257812 4.496094 23.289062 4.082031 C 20.015625 3.625 16.839844 2.625 13.761719 1.085938 C 10.46875 -0.558594 7.632812 -2.976562 5.25 -6.167969 C 2.835938 -9.394531 1.246094 -13.570312 0.476562 -18.6875 C 0.101562 -21.292969 -0.234375 -24.53125 -0.539062 -28.402344 C -0.835938 -32.246094 -1.0625 -36.488281 -1.210938 -41.128906 C -1.363281 -45.761719 -1.40625 -50.589844 -1.347656 -55.609375 C -1.285156 -60.644531 -1.09375 -65.652344 -0.761719 -70.628906 C -0.429688 -75.671875 0.105469 -80.449219 0.835938 -84.960938 L 1.117188 -86.699219 L 2.433594 -87.871094 C 4.59375 -89.800781 7.210938 -91.273438 10.28125 -92.285156 C 13.269531 -93.269531 16.421875 -93.6875 19.734375 -93.542969 C 23.179688 -93.394531 26.46875 -92.5 29.59375 -90.863281 C 32.816406 -89.175781 35.546875 -86.652344 37.78125 -83.300781 C 40 -79.976562 41.386719 -75.730469 41.945312 -70.566406 C 42.25 -67.867188 42.464844 -64.757812 42.585938 -61.242188 C 42.707031 -57.828125 42.796875 -54.277344 42.855469 -50.597656 C 42.914062 -46.90625 42.929688 -43.316406 42.898438 -39.832031 C 42.871094 -36.332031 42.792969 -33.167969 42.675781 -30.347656 L 37.710938 -30.558594 L 37.273438 -35.507812 C 39.40625 -35.695312 41.976562 -35.804688 44.992188 -35.835938 C 47.921875 -35.863281 51.074219 -35.847656 54.445312 -35.789062 C 57.859375 -35.730469 61.3125 -35.578125 64.8125 -35.335938 C 68.300781 -35.097656 71.640625 -34.796875 74.832031 -34.433594 L 77.445312 -34.136719 L 78.667969 -31.8125 C 80.859375 -27.648438 81.84375 -23.433594 81.617188 -19.167969 C 81.398438 -15.011719 80.265625 -11.171875 78.210938 -7.652344 C 76.1875 -4.183594 73.558594 -1.34375 70.324219 0.875 C 66.945312 3.191406 63.230469 4.464844 59.1875 4.695312 Z M 58.625 -5.226562 C 60.824219 -5.347656 62.851562 -6.046875 64.707031 -7.320312 C 66.714844 -8.695312 68.355469 -10.476562 69.628906 -12.660156 C 70.875 -14.792969 71.5625 -17.136719 71.695312 -19.691406 C 71.824219 -22.136719 71.21875 -24.632812 69.878906 -27.183594 L 74.273438 -29.496094 L 73.714844 -24.5625 C 70.667969 -24.90625 67.472656 -25.195312 64.128906 -25.425781 C 60.796875 -25.652344 57.511719 -25.796875 54.269531 -25.855469 C 50.988281 -25.914062 47.929688 -25.925781 45.089844 -25.898438 C 42.335938 -25.871094 40.019531 -25.773438 38.148438 -25.609375 L 32.507812 -25.109375 L 32.746094 -30.769531 C 32.863281 -33.480469 32.933594 -36.527344 32.964844 -39.917969 C 32.992188 -43.320312 32.976562 -46.828125 32.921875 -50.4375 C 32.863281 -54.054688 32.773438 -57.542969 32.65625 -60.898438 C 32.542969 -64.152344 32.347656 -67.019531 32.066406 -69.5 C 31.679688 -73.050781 30.832031 -75.8125 29.515625 -77.789062 C 28.21875 -79.734375 26.707031 -81.15625 24.984375 -82.058594 C 23.167969 -83.011719 21.273438 -83.53125 19.300781 -83.617188 C 17.199219 -83.707031 15.226562 -83.453125 13.386719 -82.847656 C 11.628906 -82.265625 10.183594 -81.472656 9.050781 -80.460938 L 5.742188 -84.164062 L 10.644531 -83.371094 C 9.964844 -79.167969 9.464844 -74.699219 9.152344 -69.972656 C 8.835938 -65.171875 8.644531 -60.347656 8.589844 -55.492188 C 8.53125 -50.617188 8.574219 -45.9375 8.71875 -41.449219 C 8.863281 -36.960938 9.082031 -32.871094 9.367188 -29.179688 C 9.65625 -25.515625 9.964844 -22.511719 10.300781 -20.167969 C 10.824219 -16.695312 11.792969 -14.007812 13.207031 -12.113281 C 14.652344 -10.183594 16.320312 -8.742188 18.207031 -7.800781 C 20.3125 -6.746094 22.464844 -6.066406 24.664062 -5.757812 C 27.175781 -5.410156 29.460938 -5.234375 31.527344 -5.234375 L 31.617188 -5.234375 L 34.179688 -5.140625 C 35.804688 -5.082031 37.960938 -5.023438 40.644531 -4.96875 C 43.300781 -4.910156 46.210938 -4.894531 49.367188 -4.921875 C 52.496094 -4.953125 55.582031 -5.054688 58.625 -5.226562 Z M 58.625 -5.226562 "/></g></g></g><g fill="#793b8f" fill-opacity="1"><g transform="translate(328.645318, 97.577668)"><g><path d="M 59.1875 4.695312 C 55.988281 4.875 52.746094 4.980469 49.457031 5.011719 C 46.199219 5.042969 43.1875 5.027344 40.429688 4.96875 C 37.699219 4.90625 35.496094 4.847656 33.824219 4.789062 L 31.351562 4.699219 L 31.527344 -0.265625 L 31.527344 4.703125 C 29.003906 4.703125 26.257812 4.496094 23.289062 4.082031 C 20.015625 3.625 16.839844 2.625 13.761719 1.085938 C 10.46875 -0.558594 7.632812 -2.976562 5.25 -6.167969 C 2.835938 -9.394531 1.246094 -13.570312 0.476562 -18.6875 C 0.101562 -21.292969 -0.234375 -24.53125 -0.539062 -28.402344 C -0.835938 -32.246094 -1.0625 -36.488281 -1.210938 -41.128906 C -1.363281 -45.761719 -1.40625 -50.589844 -1.347656 -55.609375 C -1.285156 -60.644531 -1.09375 -65.652344 -0.761719 -70.628906 C -0.429688 -75.671875 0.105469 -80.449219 0.835938 -84.960938 L 1.117188 -86.699219 L 2.433594 -87.871094 C 4.59375 -89.800781 7.210938 -91.273438 10.28125 -92.285156 C 13.269531 -93.269531 16.421875 -93.6875 19.734375 -93.542969 C 23.179688 -93.394531 26.46875 -92.5 29.59375 -90.863281 C 32.816406 -89.175781 35.546875 -86.652344 37.78125 -83.300781 C 40 -79.976562 41.386719 -75.730469 41.945312 -70.566406 C 42.25 -67.867188 42.464844 -64.757812 42.585938 -61.242188 C 42.707031 -57.828125 42.796875 -54.277344 42.855469 -50.597656 C 42.914062 -46.90625 42.929688 -43.316406 42.898438 -39.832031 C 42.871094 -36.332031 42.792969 -33.167969 42.675781 -30.347656 L 37.710938 -30.558594 L 37.273438 -35.507812 C 39.40625 -35.695312 41.976562 -35.804688 44.992188 -35.835938 C 47.921875 -35.863281 51.074219 -35.847656 54.445312 -35.789062 C 57.859375 -35.730469 61.3125 -35.578125 64.8125 -35.335938 C 68.300781 -35.097656 71.640625 -34.796875 74.832031 -34.433594 L 77.445312 -34.136719 L 78.667969 -31.8125 C 80.859375 -27.648438 81.84375 -23.433594 81.617188 -19.167969 C 81.398438 -15.011719 80.265625 -11.171875 78.210938 -7.652344 C 76.1875 -4.183594 73.558594 -1.34375 70.324219 0.875 C 66.945312 3.191406 63.230469 4.464844 59.1875 4.695312 Z M 58.625 -5.226562 C 60.824219 -5.347656 62.851562 -6.046875 64.707031 -7.320312 C 66.714844 -8.695312 68.355469 -10.476562 69.628906 -12.660156 C 70.875 -14.792969 71.5625 -17.136719 71.695312 -19.691406 C 71.824219 -22.136719 71.21875 -24.632812 69.878906 -27.183594 L 74.273438 -29.496094 L 73.714844 -24.5625 C 70.667969 -24.90625 67.472656 -25.195312 64.128906 -25.425781 C 60.796875 -25.652344 57.511719 -25.796875 54.269531 -25.855469 C 50.988281 -25.914062 47.929688 -25.925781 45.089844 -25.898438 C 42.335938 -25.871094 40.019531 -25.773438 38.148438 -25.609375 L 32.507812 -25.109375 L 32.746094 -30.769531 C 32.863281 -33.480469 32.933594 -36.527344 32.964844 -39.917969 C 32.992188 -43.320312 32.976562 -46.828125 32.921875 -50.4375 C 32.863281 -54.054688 32.773438 -57.542969 32.65625 -60.898438 C 32.542969 -64.152344 32.347656 -67.019531 32.066406 -69.5 C 31.679688 -73.050781 30.832031 -75.8125 29.515625 -77.789062 C 28.21875 -79.734375 26.707031 -81.15625 24.984375 -82.058594 C 23.167969 -83.011719 21.273438 -83.53125 19.300781 -83.617188 C 17.199219 -83.707031 15.226562 -83.453125 13.386719 -82.847656 C 11.628906 -82.265625 10.183594 -81.472656 9.050781 -80.460938 L 5.742188 -84.164062 L 10.644531 -83.371094 C 9.964844 -79.167969 9.464844 -74.699219 9.152344 -69.972656 C 8.835938 -65.171875 8.644531 -60.347656 8.589844 -55.492188 C 8.53125 -50.617188 8.574219 -45.9375 8.71875 -41.449219 C 8.863281 -36.960938 9.082031 -32.871094 9.367188 -29.179688 C 9.65625 -25.515625 9.964844 -22.511719 10.300781 -20.167969 C 10.824219 -16.695312 11.792969 -14.007812 13.207031 -12.113281 C 14.652344 -10.183594 16.320312 -8.742188 18.207031 -7.800781 C 20.3125 -6.746094 22.464844 -6.066406 24.664062 -5.757812 C 27.175781 -5.410156 29.460938 -5.234375 31.527344 -5.234375 L 31.617188 -5.234375 L 34.179688 -5.140625 C 35.804688 -5.082031 37.960938 -5.023438 40.644531 -4.96875 C 43.300781 -4.910156 46.210938 -4.894531 49.367188 -4.921875 C 52.496094 -4.953125 55.582031 -5.054688 58.625 -5.226562 Z M 58.625 -5.226562 "/></g></g></g><g clip-path="url(#aac8ea9e63)"><g fill="#793b8f" fill-opacity="1"><g transform="translate(408.564278, 97.577668)"><g><path d="M -3.546875 -27.644531 C -2.820312 -31.273438 -1.871094 -35.328125 -0.699219 -39.808594 C 0.46875 -44.269531 1.785156 -48.847656 3.25 -53.542969 C 4.707031 -58.214844 6.195312 -62.738281 7.714844 -67.113281 C 9.242188 -71.515625 10.742188 -75.550781 12.214844 -79.214844 C 13.714844 -82.949219 15.058594 -85.972656 16.246094 -88.289062 L 17.164062 -90.074219 L 19.058594 -90.722656 C 21.664062 -91.609375 24.746094 -92.429688 28.296875 -93.175781 C 31.953125 -93.945312 35.816406 -94.378906 39.890625 -94.472656 C 44.160156 -94.574219 48.394531 -94.027344 52.585938 -92.828125 C 57.003906 -91.566406 61.050781 -89.339844 64.722656 -86.152344 C 68.441406 -82.925781 71.449219 -78.503906 73.75 -72.890625 C 74.734375 -70.421875 75.863281 -67.304688 77.128906 -63.535156 C 78.378906 -59.808594 79.691406 -55.683594 81.058594 -51.160156 C 82.425781 -46.644531 83.765625 -41.992188 85.070312 -37.210938 C 86.378906 -32.421875 87.582031 -27.753906 88.683594 -23.203125 C 89.796875 -18.59375 90.6875 -14.382812 91.355469 -10.570312 L 91.476562 -9.871094 L 91.398438 -9.167969 C 91.101562 -6.476562 89.835938 -3.945312 87.601562 -1.582031 C 85.707031 0.425781 83.351562 2.105469 80.53125 3.460938 C 77.792969 4.777344 74.851562 5.648438 71.714844 6.070312 C 68.390625 6.519531 65.097656 6.261719 61.828125 5.292969 C 58.371094 4.273438 55.289062 2.3125 52.582031 -0.582031 C 49.957031 -3.394531 47.945312 -7.175781 46.546875 -11.933594 L 51.3125 -13.335938 L 51.101562 -8.371094 C 48.4375 -8.484375 45.652344 -8.515625 42.753906 -8.457031 C 39.683594 -8.398438 36.703125 -8.398438 33.808594 -8.457031 L 33.914062 -13.425781 L 38.496094 -11.503906 C 37.789062 -9.824219 37.125 -7.972656 36.492188 -5.945312 C 35.828125 -3.808594 35.179688 -1.613281 34.542969 0.640625 L 33.855469 3.078125 L 31.484375 3.953125 C 25.285156 6.242188 19.773438 7.050781 14.945312 6.378906 C 9.808594 5.660156 5.625 3.625 2.386719 0.269531 C -0.734375 -2.964844 -2.789062 -7.09375 -3.773438 -12.117188 C -4.6875 -16.804688 -4.617188 -21.960938 -3.558594 -27.589844 Z M 6.207031 -25.753906 C 5.382812 -21.371094 5.308594 -17.464844 5.980469 -14.023438 C 6.585938 -10.921875 7.773438 -8.457031 9.535156 -6.628906 C 11.1875 -4.917969 13.445312 -3.863281 16.320312 -3.464844 C 19.496094 -3.019531 23.40625 -3.652344 28.039062 -5.367188 L 29.761719 -0.707031 L 24.980469 -2.054688 C 25.640625 -4.394531 26.316406 -6.671875 27.003906 -8.894531 C 27.730469 -11.222656 28.503906 -13.375 29.332031 -15.34375 L 30.636719 -18.460938 L 34.015625 -18.390625 C 36.777344 -18.332031 39.625 -18.332031 42.558594 -18.390625 C 45.664062 -18.453125 48.652344 -18.421875 51.523438 -18.300781 L 55.074219 -18.148438 L 56.078125 -14.738281 C 57.035156 -11.488281 58.289062 -9.03125 59.84375 -7.367188 C 61.316406 -5.789062 62.917969 -4.746094 64.640625 -4.234375 C 66.554688 -3.667969 68.46875 -3.515625 70.386719 -3.773438 C 72.488281 -4.058594 74.433594 -4.632812 76.226562 -5.492188 C 77.941406 -6.316406 79.324219 -7.285156 80.375 -8.398438 C 81.085938 -9.152344 81.46875 -9.773438 81.523438 -10.261719 L 86.460938 -9.714844 L 81.566406 -8.859375 C 80.9375 -12.464844 80.089844 -16.464844 79.027344 -20.867188 C 77.949219 -25.324219 76.769531 -29.898438 75.488281 -34.589844 C 74.203125 -39.285156 72.890625 -43.851562 71.550781 -48.28125 C 70.210938 -52.710938 68.929688 -56.738281 67.710938 -60.371094 C 66.503906 -63.960938 65.449219 -66.878906 64.554688 -69.121094 C 62.851562 -73.28125 60.738281 -76.453125 58.210938 -78.648438 C 55.644531 -80.875 52.859375 -82.414062 49.859375 -83.273438 C 46.632812 -84.195312 43.386719 -84.617188 40.125 -84.542969 C 36.660156 -84.460938 33.402344 -84.097656 30.34375 -83.453125 C 27.183594 -82.789062 24.496094 -82.078125 22.269531 -81.316406 L 20.664062 -86.019531 L 25.085938 -83.75 C 24.035156 -81.707031 22.820312 -78.960938 21.433594 -75.511719 C 20.019531 -71.996094 18.578125 -68.109375 17.101562 -63.859375 C 15.617188 -59.578125 14.160156 -55.152344 12.734375 -50.582031 C 11.316406 -46.035156 10.042969 -41.605469 8.914062 -37.292969 C 7.789062 -33 6.882812 -29.132812 6.195312 -25.695312 Z M 37.359375 -43.648438 L 48.21875 -43.648438 L 48.21875 -38.683594 L 43.378906 -37.570312 C 42.5625 -41.128906 41.714844 -44.640625 40.84375 -48.109375 C 39.953125 -51.640625 39.089844 -55.1875 38.261719 -58.75 L 43.097656 -59.878906 L 44.667969 -55.164062 C 43.984375 -54.9375 43.195312 -54.820312 42.304688 -54.820312 L 42.304688 -59.789062 L 47.15625 -58.71875 C 46.378906 -55.207031 45.5625 -51.695312 44.699219 -48.183594 C 43.851562 -44.738281 43.019531 -41.207031 42.203125 -37.589844 L 37.359375 -38.683594 Z M 37.359375 -33.714844 L 31.144531 -33.714844 L 32.511719 -39.777344 C 33.34375 -43.457031 34.1875 -47.050781 35.050781 -50.554688 C 35.894531 -53.988281 36.695312 -57.425781 37.453125 -60.859375 L 38.3125 -64.757812 L 42.304688 -64.757812 C 42.117188 -64.757812 41.859375 -64.703125 41.527344 -64.589844 L 46.699219 -66.316406 L 47.9375 -61.007812 C 48.753906 -57.503906 49.601562 -54.011719 50.476562 -50.539062 C 51.367188 -47 52.230469 -43.417969 53.0625 -39.792969 L 54.457031 -33.714844 Z M 37.359375 -33.714844 "/></g></g></g></g><g fill="#caa2d8" fill-opacity="1"><g transform="translate(4.377516, 97.577668)"><g><path d="M 64.46875 -49.71875 C 68.945312 -46.945312 72.257812 -43.738281 74.40625 -40.09375 C 76.550781 -36.445312 77.710938 -32.648438 77.890625 -28.703125 C 78.066406 -24.753906 77.476562 -20.953125 76.125 -17.296875 C 74.769531 -13.648438 72.8125 -10.425781 70.25 -7.625 C 67.6875 -4.832031 64.757812 -2.757812 61.46875 -1.40625 C 59.113281 -0.46875 56.226562 0.320312 52.8125 0.96875 C 49.394531 1.613281 45.679688 2.007812 41.671875 2.15625 C 37.671875 2.3125 33.566406 2.109375 29.359375 1.546875 C 25.148438 0.984375 21.085938 -0.03125 17.171875 -1.5 C 13.253906 -2.96875 9.707031 -5 6.53125 -7.59375 C 4.820312 -9.769531 3.804688 -12.125 3.484375 -14.65625 C 3.160156 -17.1875 3.410156 -19.613281 4.234375 -21.9375 C 5.054688 -24.269531 6.335938 -26.242188 8.078125 -27.859375 C 9.816406 -29.484375 11.890625 -30.484375 14.296875 -30.859375 C 16.710938 -31.242188 19.363281 -30.726562 22.25 -29.3125 C 26.4375 -27.257812 30.382812 -25.863281 34.09375 -25.125 C 37.800781 -24.382812 40.890625 -24.296875 43.359375 -24.859375 C 45.835938 -25.421875 47.3125 -26.582031 47.78125 -28.34375 C 48.25 -30.113281 47.863281 -31.585938 46.625 -32.765625 C 45.394531 -33.941406 43.128906 -34.648438 39.828125 -34.890625 C 36.234375 -35.179688 32.640625 -35.796875 29.046875 -36.734375 C 25.460938 -37.679688 22.109375 -39.050781 18.984375 -40.84375 C 15.867188 -42.632812 13.234375 -44.988281 11.078125 -47.90625 C 8.929688 -50.820312 7.503906 -54.34375 6.796875 -58.46875 C 6.566406 -59.9375 6.550781 -61.742188 6.75 -63.890625 C 6.957031 -66.046875 7.488281 -68.328125 8.34375 -70.734375 C 9.195312 -73.148438 10.492188 -75.535156 12.234375 -77.890625 C 13.972656 -80.242188 16.28125 -82.390625 19.15625 -84.328125 C 22.039062 -86.273438 25.601562 -87.8125 29.84375 -88.9375 C 32.789062 -89.757812 35.910156 -90.269531 39.203125 -90.46875 C 42.503906 -90.675781 45.785156 -90.632812 49.046875 -90.34375 C 52.316406 -90.050781 55.363281 -89.488281 58.1875 -88.65625 C 61.019531 -87.832031 63.378906 -86.804688 65.265625 -85.578125 C 68.328125 -83.515625 70.535156 -81.316406 71.890625 -78.984375 C 73.242188 -76.660156 73.90625 -74.363281 73.875 -72.09375 C 73.84375 -69.832031 73.296875 -67.71875 72.234375 -65.75 C 71.179688 -63.78125 69.800781 -62.101562 68.09375 -60.71875 C 66.382812 -59.332031 64.5 -58.40625 62.4375 -57.9375 C 61.144531 -59.519531 59.363281 -60.882812 57.09375 -62.03125 C 54.820312 -63.1875 52.375 -64.070312 49.75 -64.6875 C 47.132812 -65.300781 44.648438 -65.59375 42.296875 -65.5625 C 39.941406 -65.539062 38.015625 -65.160156 36.515625 -64.421875 C 35.015625 -63.679688 34.234375 -62.550781 34.171875 -61.03125 C 34.171875 -60.082031 34.582031 -59.296875 35.40625 -58.671875 C 36.238281 -58.054688 37.769531 -57.601562 40 -57.3125 C 46.476562 -56.488281 51.773438 -55.265625 55.890625 -53.640625 C 60.015625 -52.023438 62.875 -50.71875 64.46875 -49.71875 Z M 64.46875 -49.71875 "/></g></g></g><g fill="#caa2d8" fill-opacity="1"><g transform="translate(87.563862, 97.577668)"><g><path d="M 79.390625 -88.140625 C 80.335938 -86.898438 81.117188 -85.128906 81.734375 -82.828125 C 82.347656 -80.535156 82.625 -78.050781 82.5625 -75.375 C 82.507812 -72.695312 81.953125 -70.117188 80.890625 -67.640625 C 79.828125 -65.171875 78.132812 -63.082031 75.8125 -61.375 C 73.488281 -59.664062 70.351562 -58.695312 66.40625 -58.46875 C 64.875 -58.40625 63.59375 -58.328125 62.5625 -58.234375 C 61.539062 -58.148438 60.910156 -58.109375 60.671875 -58.109375 C 60.785156 -54.804688 60.859375 -51.179688 60.890625 -47.234375 C 60.921875 -43.296875 60.90625 -39.238281 60.84375 -35.0625 C 60.789062 -30.882812 60.675781 -26.804688 60.5 -22.828125 C 60.320312 -18.859375 60.113281 -15.148438 59.875 -11.703125 C 59.632812 -8.253906 59.34375 -5.328125 59 -2.921875 C 57.519531 -1.265625 55.644531 -0.0859375 53.375 0.609375 C 51.113281 1.316406 48.703125 1.507812 46.140625 1.1875 C 43.578125 0.863281 41.085938 -0.046875 38.671875 -1.546875 C 36.265625 -3.046875 34.132812 -5.148438 32.28125 -7.859375 C 30.425781 -10.566406 29.113281 -13.984375 28.34375 -18.109375 C 28.113281 -19.335938 27.910156 -21.320312 27.734375 -24.0625 C 27.554688 -26.800781 27.394531 -30.007812 27.25 -33.6875 C 27.101562 -37.363281 27 -41.304688 26.9375 -45.515625 C 26.875 -49.734375 26.875 -53.960938 26.9375 -58.203125 C 23.988281 -57.960938 20.953125 -57.859375 17.828125 -57.890625 C 14.710938 -57.921875 11.710938 -58.226562 8.828125 -58.8125 C 7.710938 -60.289062 6.890625 -62.191406 6.359375 -64.515625 C 5.828125 -66.835938 5.675781 -69.289062 5.90625 -71.875 C 6.144531 -74.46875 6.820312 -76.941406 7.9375 -79.296875 C 9.0625 -81.660156 10.710938 -83.617188 12.890625 -85.171875 C 15.066406 -86.734375 17.832031 -87.632812 21.1875 -87.875 C 23.070312 -87.988281 25.5625 -88.070312 28.65625 -88.125 C 31.75 -88.1875 35.191406 -88.21875 38.984375 -88.21875 C 42.785156 -88.21875 46.6875 -88.21875 50.6875 -88.21875 C 54.695312 -88.21875 58.566406 -88.203125 62.296875 -88.171875 C 66.035156 -88.148438 69.40625 -88.140625 72.40625 -88.140625 C 75.414062 -88.140625 77.742188 -88.140625 79.390625 -88.140625 Z M 79.390625 -88.140625 "/></g></g></g><g fill="#caa2d8" fill-opacity="1"><g transform="translate(174.370844, 97.577668)"><g><path d="M 4.859375 -20.40625 C 4.742188 -22.40625 4.65625 -25.097656 4.59375 -28.484375 C 4.53125 -31.867188 4.5 -35.664062 4.5 -39.875 C 4.5 -44.082031 4.539062 -48.4375 4.625 -52.9375 C 4.71875 -57.445312 4.835938 -61.878906 4.984375 -66.234375 C 5.128906 -70.585938 5.304688 -74.617188 5.515625 -78.328125 C 5.722656 -82.035156 5.972656 -85.128906 6.265625 -87.609375 C 9.210938 -87.898438 12.789062 -88.117188 17 -88.265625 C 21.207031 -88.410156 25.722656 -88.515625 30.546875 -88.578125 C 35.378906 -88.640625 40.222656 -88.625 45.078125 -88.53125 C 49.941406 -88.445312 54.535156 -88.316406 58.859375 -88.140625 C 63.179688 -87.960938 66.90625 -87.753906 70.03125 -87.515625 C 70.5625 -86.753906 71.03125 -85.578125 71.4375 -83.984375 C 71.851562 -82.390625 72.078125 -80.59375 72.109375 -78.59375 C 72.140625 -76.59375 71.890625 -74.5625 71.359375 -72.5 C 70.828125 -70.4375 69.898438 -68.519531 68.578125 -66.75 C 67.253906 -64.988281 65.425781 -63.578125 63.09375 -62.515625 C 60.769531 -61.460938 57.84375 -60.9375 54.3125 -60.9375 C 53.132812 -60.9375 52.046875 -60.9375 51.046875 -60.9375 C 50.046875 -60.9375 48.925781 -60.9375 47.6875 -60.9375 C 46.445312 -60.9375 44.914062 -60.9375 43.09375 -60.9375 C 41.269531 -60.9375 38.945312 -60.9375 36.125 -60.9375 C 36.125 -60.226562 36.125 -59.503906 36.125 -58.765625 C 36.125 -58.035156 36.125 -57.226562 36.125 -56.34375 C 37.414062 -56.34375 39.191406 -56.367188 41.453125 -56.421875 C 43.722656 -56.484375 46.179688 -56.515625 48.828125 -56.515625 C 51.484375 -56.515625 54.09375 -56.394531 56.65625 -56.15625 C 59.21875 -55.925781 61.4375 -55.519531 63.3125 -54.9375 C 65.082031 -51.050781 65.820312 -47.425781 65.53125 -44.0625 C 65.238281 -40.707031 63.925781 -37.96875 61.59375 -35.84375 C 59.269531 -33.726562 55.929688 -32.554688 51.578125 -32.328125 C 50.097656 -32.265625 48.710938 -32.234375 47.421875 -32.234375 C 46.128906 -32.234375 44.628906 -32.25 42.921875 -32.28125 C 41.210938 -32.3125 38.972656 -32.328125 36.203125 -32.328125 C 36.203125 -31.378906 36.203125 -30.476562 36.203125 -29.625 C 36.203125 -28.769531 36.203125 -27.875 36.203125 -26.9375 C 36.503906 -26.9375 36.828125 -26.9375 37.171875 -26.9375 C 37.523438 -26.9375 37.878906 -26.9375 38.234375 -26.9375 C 42.941406 -26.9375 47.664062 -26.9375 52.40625 -26.9375 C 57.144531 -26.9375 61.875 -26.9375 66.59375 -26.9375 C 68.300781 -24.582031 69.390625 -21.976562 69.859375 -19.125 C 70.328125 -16.269531 70.117188 -13.488281 69.234375 -10.78125 C 68.347656 -8.070312 66.671875 -5.726562 64.203125 -3.75 C 61.734375 -1.78125 58.40625 -0.53125 54.21875 0 C 52.75 0.175781 50.765625 0.335938 48.265625 0.484375 C 45.765625 0.628906 43.007812 0.71875 40 0.75 C 37 0.78125 34.007812 0.765625 31.03125 0.703125 C 28.0625 0.648438 25.382812 0.535156 23 0.359375 C 20.613281 0.179688 18.773438 -0.0546875 17.484375 -0.359375 C 13.359375 -1.410156 10.3125 -3.507812 8.34375 -6.65625 C 6.375 -9.8125 5.210938 -14.394531 4.859375 -20.40625 Z M 4.859375 -20.40625 "/></g></g></g><g fill="#caa2d8" fill-opacity="1"><g transform="translate(248.726357, 97.577668)"><g><path d="M 58.90625 -0.265625 C 55.78125 -0.0859375 52.613281 0.015625 49.40625 0.046875 C 46.195312 0.078125 43.238281 0.0625 40.53125 0 C 37.820312 -0.0625 35.644531 -0.117188 34 -0.171875 C 32.351562 -0.234375 31.53125 -0.265625 31.53125 -0.265625 C 29.226562 -0.265625 26.707031 -0.453125 23.96875 -0.828125 C 21.238281 -1.210938 18.578125 -2.050781 15.984375 -3.34375 C 13.390625 -4.644531 11.132812 -6.578125 9.21875 -9.140625 C 7.3125 -11.703125 6.035156 -15.128906 5.390625 -19.421875 C 5.035156 -21.898438 4.707031 -25.019531 4.40625 -28.78125 C 4.113281 -32.550781 3.894531 -36.71875 3.75 -41.28125 C 3.601562 -45.84375 3.554688 -50.597656 3.609375 -55.546875 C 3.671875 -60.492188 3.863281 -65.410156 4.1875 -70.296875 C 4.519531 -75.179688 5.035156 -79.800781 5.734375 -84.15625 C 7.390625 -85.632812 9.421875 -86.769531 11.828125 -87.5625 C 14.242188 -88.351562 16.804688 -88.691406 19.515625 -88.578125 C 22.222656 -88.460938 24.8125 -87.753906 27.28125 -86.453125 C 29.757812 -85.160156 31.878906 -83.1875 33.640625 -80.53125 C 35.410156 -77.882812 36.53125 -74.382812 37 -70.03125 C 37.289062 -67.4375 37.492188 -64.445312 37.609375 -61.0625 C 37.734375 -57.675781 37.820312 -54.160156 37.875 -50.515625 C 37.9375 -46.867188 37.953125 -43.320312 37.921875 -39.875 C 37.898438 -36.425781 37.828125 -33.320312 37.703125 -30.5625 C 39.710938 -30.738281 42.15625 -30.835938 45.03125 -30.859375 C 47.914062 -30.890625 51.019531 -30.875 54.34375 -30.8125 C 57.675781 -30.757812 61.050781 -30.613281 64.46875 -30.375 C 67.882812 -30.144531 71.148438 -29.851562 74.265625 -29.5 C 76.035156 -26.144531 76.832031 -22.785156 76.65625 -19.421875 C 76.476562 -16.066406 75.5625 -12.976562 73.90625 -10.15625 C 72.257812 -7.332031 70.125 -5.019531 67.5 -3.21875 C 64.882812 -1.425781 62.019531 -0.441406 58.90625 -0.265625 Z M 58.90625 -0.265625 "/></g></g></g><g fill="#caa2d8" fill-opacity="1"><g transform="translate(328.645318, 97.577668)"><g><path d="M 58.90625 -0.265625 C 55.78125 -0.0859375 52.613281 0.015625 49.40625 0.046875 C 46.195312 0.078125 43.238281 0.0625 40.53125 0 C 37.820312 -0.0625 35.644531 -0.117188 34 -0.171875 C 32.351562 -0.234375 31.53125 -0.265625 31.53125 -0.265625 C 29.226562 -0.265625 26.707031 -0.453125 23.96875 -0.828125 C 21.238281 -1.210938 18.578125 -2.050781 15.984375 -3.34375 C 13.390625 -4.644531 11.132812 -6.578125 9.21875 -9.140625 C 7.3125 -11.703125 6.035156 -15.128906 5.390625 -19.421875 C 5.035156 -21.898438 4.707031 -25.019531 4.40625 -28.78125 C 4.113281 -32.550781 3.894531 -36.71875 3.75 -41.28125 C 3.601562 -45.84375 3.554688 -50.597656 3.609375 -55.546875 C 3.671875 -60.492188 3.863281 -65.410156 4.1875 -70.296875 C 4.519531 -75.179688 5.035156 -79.800781 5.734375 -84.15625 C 7.390625 -85.632812 9.421875 -86.769531 11.828125 -87.5625 C 14.242188 -88.351562 16.804688 -88.691406 19.515625 -88.578125 C 22.222656 -88.460938 24.8125 -87.753906 27.28125 -86.453125 C 29.757812 -85.160156 31.878906 -83.1875 33.640625 -80.53125 C 35.410156 -77.882812 36.53125 -74.382812 37 -70.03125 C 37.289062 -67.4375 37.492188 -64.445312 37.609375 -61.0625 C 37.734375 -57.675781 37.820312 -54.160156 37.875 -50.515625 C 37.9375 -46.867188 37.953125 -43.320312 37.921875 -39.875 C 37.898438 -36.425781 37.828125 -33.320312 37.703125 -30.5625 C 39.710938 -30.738281 42.15625 -30.835938 45.03125 -30.859375 C 47.914062 -30.890625 51.019531 -30.875 54.34375 -30.8125 C 57.675781 -30.757812 61.050781 -30.613281 64.46875 -30.375 C 67.882812 -30.144531 71.148438 -29.851562 74.265625 -29.5 C 76.035156 -26.144531 76.832031 -22.785156 76.65625 -19.421875 C 76.476562 -16.066406 75.5625 -12.976562 73.90625 -10.15625 C 72.257812 -7.332031 70.125 -5.019531 67.5 -3.21875 C 64.882812 -1.425781 62.019531 -0.441406 58.90625 -0.265625 Z M 58.90625 -0.265625 "/></g></g></g><g fill="#caa2d8" fill-opacity="1"><g transform="translate(408.564278, 97.577668)"><g><path d="M 1.328125 -26.671875 C 2.035156 -30.203125 2.960938 -34.160156 4.109375 -38.546875 C 5.253906 -42.929688 6.546875 -47.4375 7.984375 -52.0625 C 9.429688 -56.6875 10.90625 -61.160156 12.40625 -65.484375 C 13.90625 -69.804688 15.375 -73.765625 16.8125 -77.359375 C 18.257812 -80.953125 19.546875 -83.835938 20.671875 -86.015625 C 23.078125 -86.835938 25.957031 -87.601562 29.3125 -88.3125 C 32.675781 -89.019531 36.238281 -89.414062 40 -89.5 C 43.769531 -89.59375 47.507812 -89.109375 51.21875 -88.046875 C 54.925781 -86.984375 58.335938 -85.097656 61.453125 -82.390625 C 64.578125 -79.679688 67.144531 -75.882812 69.15625 -71 C 70.09375 -68.644531 71.175781 -65.628906 72.40625 -61.953125 C 73.644531 -58.273438 74.941406 -54.195312 76.296875 -49.71875 C 77.648438 -45.25 78.972656 -40.644531 80.265625 -35.90625 C 81.566406 -31.164062 82.757812 -26.539062 83.84375 -22.03125 C 84.9375 -17.53125 85.804688 -13.425781 86.453125 -9.71875 C 86.273438 -8.125 85.453125 -6.546875 83.984375 -4.984375 C 82.515625 -3.429688 80.644531 -2.109375 78.375 -1.015625 C 76.113281 0.078125 73.671875 0.796875 71.046875 1.140625 C 68.429688 1.492188 65.828125 1.285156 63.234375 0.515625 C 60.640625 -0.242188 58.296875 -1.738281 56.203125 -3.96875 C 54.117188 -6.207031 52.488281 -9.328125 51.3125 -13.328125 C 48.539062 -13.453125 45.65625 -13.484375 42.65625 -13.421875 C 39.65625 -13.359375 36.738281 -13.359375 33.90625 -13.421875 C 33.144531 -11.597656 32.425781 -9.597656 31.75 -7.421875 C 31.070312 -5.242188 30.410156 -3.003906 29.765625 -0.703125 C 24.347656 1.296875 19.632812 2.015625 15.625 1.453125 C 11.625 0.898438 8.398438 -0.640625 5.953125 -3.171875 C 3.515625 -5.710938 1.894531 -9.007812 1.09375 -13.0625 C 0.300781 -17.125 0.378906 -21.660156 1.328125 -26.671875 Z M 37.359375 -38.6875 C 39.242188 -38.6875 41.066406 -38.6875 42.828125 -38.6875 C 44.597656 -38.6875 46.394531 -38.6875 48.21875 -38.6875 C 47.394531 -42.269531 46.539062 -45.8125 45.65625 -49.3125 C 44.769531 -52.820312 43.914062 -56.34375 43.09375 -59.875 C 42.914062 -59.8125 42.648438 -59.78125 42.296875 -59.78125 C 41.535156 -56.3125 40.726562 -52.835938 39.875 -49.359375 C 39.019531 -45.890625 38.179688 -42.332031 37.359375 -38.6875 Z M 37.359375 -38.6875 "/></g></g></g></g></g></svg>