<svg xmlns="http://www.w3.org/2000/svg" xmlns:xlink="http://www.w3.org/1999/xlink" width="1200" zoomAndPan="magnify" viewBox="0 0 900 119.999999" height="160" preserveAspectRatio="xMidYMid meet" version="1.0"><defs><g/><clipPath id="79d9551f6e"><path d="M 238 0.0390625 L 332 0.0390625 L 332 114 L 238 114 Z M 238 0.0390625 " clip-rule="nonzero"/></clipPath><clipPath id="f77682173e"><path d="M 686 0.0390625 L 786 0.0390625 L 786 113 L 686 113 Z M 686 0.0390625 " clip-rule="nonzero"/></clipPath><clipPath id="1250a00b80"><rect x="0" width="787" y="0" height="115"/></clipPath></defs><g transform="matrix(1, 0, 0, 1, 4, 5)"><g clip-path="url(#1250a00b80)"><g fill="#316a83" fill-opacity="1"><g transform="translate(0.982327, 105.071087)"><g><path d="M 90.71875 -99.210938 C 92.171875 -97.300781 93.328125 -94.753906 94.1875 -91.570312 C 94.992188 -88.574219 95.359375 -85.359375 95.285156 -81.925781 C 95.203125 -78.308594 94.449219 -74.835938 93.023438 -71.503906 C 91.480469 -67.90625 89.046875 -64.890625 85.722656 -62.449219 C 82.335938 -59.960938 77.964844 -58.558594 72.609375 -58.238281 C 70.953125 -58.171875 69.605469 -58.097656 68.566406 -58.007812 C 67.292969 -57.898438 66.449219 -57.84375 66.039062 -57.84375 L 66.039062 -63.25 L 71.441406 -63.445312 C 71.574219 -59.804688 71.652344 -55.8125 71.6875 -51.46875 C 71.71875 -47.136719 71.703125 -42.675781 71.636719 -38.085938 C 71.574219 -33.480469 71.441406 -28.988281 71.25 -24.609375 C 71.054688 -20.238281 70.828125 -16.160156 70.566406 -12.367188 C 70.300781 -8.480469 69.96875 -5.152344 69.5625 -2.390625 L 69.328125 -0.78125 L 68.246094 0.429688 C 65.980469 2.96875 63.136719 4.769531 59.71875 5.835938 C 56.503906 6.835938 53.113281 7.113281 49.546875 6.664062 C 45.976562 6.210938 42.542969 4.960938 39.246094 2.910156 C 35.976562 0.875 33.117188 -1.929688 30.671875 -5.5 C 28.222656 -9.078125 26.511719 -13.484375 25.539062 -18.71875 C 25.246094 -20.265625 24.996094 -22.644531 24.789062 -25.847656 C 24.59375 -28.871094 24.414062 -32.40625 24.253906 -36.457031 C 24.089844 -40.507812 23.976562 -44.847656 23.910156 -49.476562 C 23.847656 -54.109375 23.847656 -58.757812 23.910156 -63.421875 L 29.320312 -63.347656 L 29.75 -57.957031 C 26.386719 -57.6875 22.925781 -57.570312 19.367188 -57.605469 C 15.625 -57.640625 12.011719 -58.011719 8.53125 -58.722656 L 6.539062 -59.128906 L 5.308594 -60.75 C 3.617188 -62.972656 2.398438 -65.726562 1.648438 -69.019531 C 0.945312 -72.109375 0.746094 -75.347656 1.054688 -78.734375 C 1.371094 -82.195312 2.273438 -85.496094 3.765625 -88.640625 C 5.382812 -92.046875 7.757812 -94.867188 10.886719 -97.109375 C 14.085938 -99.402344 18.023438 -100.710938 22.691406 -101.039062 C 24.847656 -101.175781 27.648438 -101.273438 31.089844 -101.339844 C 34.488281 -101.40625 38.273438 -101.4375 42.441406 -101.4375 L 55.175781 -101.4375 L 67.835938 -101.390625 L 78.847656 -101.339844 L 89.09375 -101.339844 Z M 82.117188 -92.65625 L 86.417969 -95.933594 L 86.417969 -90.527344 L 78.800781 -90.527344 L 67.796875 -90.574219 L 55.175781 -90.621094 L 42.441406 -90.621094 C 38.339844 -90.621094 34.625 -90.589844 31.296875 -90.527344 C 28.007812 -90.464844 25.394531 -90.375 23.449219 -90.25 C 20.8125 -90.066406 18.726562 -89.421875 17.183594 -88.316406 C 15.570312 -87.160156 14.351562 -85.722656 13.535156 -84 C 12.59375 -82.019531 12.023438 -79.9375 11.824219 -77.757812 C 11.621094 -75.507812 11.742188 -73.394531 12.191406 -71.421875 C 12.597656 -69.648438 13.171875 -68.273438 13.917969 -67.292969 L 9.613281 -64.019531 L 10.695312 -69.316406 C 13.492188 -68.746094 16.417969 -68.445312 19.46875 -68.417969 C 22.703125 -68.386719 25.84375 -68.492188 28.886719 -68.738281 L 34.808594 -69.210938 L 34.726562 -63.273438 C 34.660156 -58.707031 34.660156 -54.160156 34.726562 -49.628906 C 34.789062 -45.09375 34.898438 -40.847656 35.058594 -36.886719 C 35.214844 -32.925781 35.390625 -29.476562 35.578125 -26.542969 C 35.757812 -23.785156 35.957031 -21.835938 36.171875 -20.691406 C 36.867188 -16.957031 38.007812 -13.929688 39.59375 -11.609375 C 41.1875 -9.285156 42.972656 -7.507812 44.957031 -6.273438 C 46.917969 -5.054688 48.898438 -4.320312 50.902344 -4.066406 C 52.914062 -3.8125 54.78125 -3.953125 56.5 -4.488281 C 58.015625 -4.960938 59.242188 -5.722656 60.179688 -6.773438 L 64.210938 -3.171875 L 58.863281 -3.957031 C 59.226562 -6.445312 59.53125 -9.496094 59.777344 -13.105469 C 60.03125 -16.8125 60.253906 -20.804688 60.445312 -25.089844 C 60.632812 -29.359375 60.761719 -33.742188 60.824219 -38.238281 C 60.886719 -42.75 60.902344 -47.132812 60.871094 -51.386719 C 60.839844 -55.628906 60.761719 -59.519531 60.636719 -63.058594 L 60.433594 -68.65625 L 66.039062 -68.65625 C 66.140625 -68.65625 66.675781 -68.699219 67.644531 -68.78125 C 68.851562 -68.886719 70.289062 -68.96875 71.964844 -69.03125 C 75.195312 -69.226562 77.648438 -69.9375 79.324219 -71.167969 C 81.0625 -72.441406 82.316406 -73.976562 83.082031 -75.761719 C 83.960938 -77.8125 84.421875 -79.945312 84.472656 -82.164062 C 84.523438 -84.5625 84.28125 -86.761719 83.742188 -88.761719 C 83.253906 -90.574219 82.710938 -91.875 82.117188 -92.65625 Z M 82.117188 -92.65625 "/></g></g></g><g fill="#316a83" fill-opacity="1"><g transform="translate(95.472407, 105.071087)"><g><path d="M 40.277344 -68.273438 L 58.734375 -68.273438 L 58.734375 -62.867188 L 53.328125 -63.058594 C 53.457031 -66.597656 53.535156 -70.28125 53.566406 -74.109375 C 53.597656 -78.027344 53.664062 -81.621094 53.761719 -84.894531 C 53.863281 -88.34375 54.058594 -91.039062 54.34375 -92.976562 L 54.660156 -95.109375 L 56.359375 -96.441406 C 59.378906 -98.808594 62.828125 -100.414062 66.710938 -101.265625 C 70.441406 -102.082031 74.207031 -102.195312 78.007812 -101.617188 C 81.84375 -101.027344 85.40625 -99.753906 88.703125 -97.792969 C 92.140625 -95.746094 94.925781 -93.023438 97.054688 -89.625 C 99.273438 -86.085938 100.378906 -81.972656 100.378906 -77.285156 L 100.378906 -43.160156 L 100.332031 -27.714844 L 100.285156 -12.574219 C 100.285156 -10.890625 100.265625 -9.027344 100.234375 -6.980469 C 100.199219 -4.777344 100.109375 -3.042969 99.957031 -1.769531 L 99.753906 -0.0351562 L 98.574219 1.25 C 97.265625 2.679688 95.242188 3.878906 92.507812 4.855469 C 90.226562 5.664062 87.617188 6.238281 84.675781 6.574219 C 81.8125 6.898438 78.867188 6.957031 75.84375 6.738281 C 72.597656 6.507812 69.503906 5.808594 66.550781 4.644531 C 63.324219 3.371094 60.609375 1.5 58.40625 -0.960938 C 56.03125 -3.613281 54.578125 -6.933594 54.046875 -10.917969 C 53.835938 -12.3125 53.679688 -14.007812 53.574219 -16.007812 C 53.476562 -17.875 53.394531 -19.832031 53.328125 -21.890625 C 53.265625 -23.933594 53.214844 -25.832031 53.183594 -27.585938 C 53.148438 -29.347656 53.132812 -30.757812 53.132812 -31.816406 L 58.539062 -31.816406 L 58.539062 -26.410156 L 40.566406 -26.410156 L 40.566406 -31.816406 L 45.972656 -31.816406 L 45.972656 0.179688 L 44.085938 1.796875 C 42.699219 2.984375 40.710938 4.0625 38.121094 5.019531 C 35.738281 5.90625 33.042969 6.53125 30.027344 6.90625 C 27.023438 7.277344 23.953125 7.296875 20.820312 6.964844 C 17.417969 6.601562 14.210938 5.640625 11.203125 4.078125 C 7.957031 2.386719 5.273438 -0.0859375 3.15625 -3.351562 C 1.039062 -6.609375 -0.175781 -10.660156 -0.492188 -15.507812 C -0.625 -17.34375 -0.753906 -20.054688 -0.886719 -23.644531 L -1.269531 -35.878906 C -1.398438 -40.519531 -1.511719 -45.429688 -1.609375 -50.605469 C -1.707031 -55.796875 -1.753906 -60.910156 -1.753906 -65.941406 C -1.753906 -70.96875 -1.722656 -75.65625 -1.65625 -80.007812 C -1.59375 -84.429688 -1.460938 -88.125 -1.261719 -91.101562 L -1.105469 -93.429688 L 0.691406 -94.914062 C 3.828125 -97.5 7.289062 -99.347656 11.078125 -100.453125 C 14.777344 -101.53125 18.503906 -101.933594 22.257812 -101.664062 C 26.042969 -101.390625 29.554688 -100.484375 32.792969 -98.941406 C 36.152344 -97.34375 38.953125 -95.175781 41.195312 -92.4375 C 43.628906 -89.460938 45.023438 -85.945312 45.375 -81.886719 L 39.988281 -81.417969 L 45.359375 -82.03125 C 45.703125 -79.007812 45.875 -76.03125 45.875 -73.105469 C 45.875 -70.320312 45.84375 -67.953125 45.777344 -66 C 45.714844 -64.171875 45.683594 -63.125 45.683594 -62.867188 L 40.277344 -62.867188 Z M 40.277344 -57.460938 L 34.871094 -57.460938 L 34.871094 -62.867188 C 34.871094 -63.246094 34.902344 -64.414062 34.96875 -66.367188 C 35.03125 -68.195312 35.0625 -70.441406 35.0625 -73.105469 C 35.0625 -75.625 34.914062 -78.191406 34.617188 -80.808594 L 34.601562 -80.949219 C 34.441406 -82.789062 33.847656 -84.335938 32.824219 -85.589844 C 31.605469 -87.078125 30.046875 -88.273438 28.148438 -89.175781 C 26.132812 -90.136719 23.910156 -90.703125 21.480469 -90.878906 C 19.019531 -91.054688 16.558594 -90.785156 14.105469 -90.070312 C 11.742188 -89.378906 9.566406 -88.214844 7.574219 -86.570312 L 4.132812 -90.742188 L 9.527344 -90.382812 C 9.34375 -87.59375 9.21875 -84.082031 9.15625 -79.847656 C 9.089844 -75.550781 9.058594 -70.914062 9.058594 -65.941406 C 9.058594 -60.976562 9.109375 -55.933594 9.203125 -50.808594 C 9.300781 -45.664062 9.410156 -40.800781 9.539062 -36.21875 L 9.921875 -24.035156 C 10.046875 -20.574219 10.171875 -17.96875 10.296875 -16.214844 C 10.492188 -13.242188 11.136719 -10.917969 12.226562 -9.242188 C 13.308594 -7.570312 14.632812 -6.328125 16.191406 -5.519531 C 17.992188 -4.582031 19.914062 -4.007812 21.957031 -3.789062 C 24.269531 -3.546875 26.519531 -3.558594 28.703125 -3.828125 C 30.882812 -4.097656 32.765625 -4.527344 34.359375 -5.117188 C 35.742188 -5.628906 36.636719 -6.0625 37.046875 -6.414062 L 40.566406 -2.308594 L 35.15625 -2.308594 L 35.15625 -37.226562 L 63.949219 -37.226562 L 63.949219 -31.816406 C 63.949219 -30.824219 63.964844 -29.480469 63.996094 -27.785156 C 64.027344 -26.078125 64.074219 -24.226562 64.136719 -22.234375 C 64.199219 -20.25 64.277344 -18.367188 64.375 -16.578125 C 64.460938 -14.925781 64.589844 -13.515625 64.765625 -12.347656 C 65.003906 -10.5625 65.570312 -9.171875 66.464844 -8.171875 C 67.527344 -6.980469 68.882812 -6.0625 70.523438 -5.414062 C 72.445312 -4.65625 74.472656 -4.199219 76.613281 -4.046875 C 78.972656 -3.878906 81.25 -3.921875 83.449219 -4.171875 C 85.570312 -4.414062 87.382812 -4.800781 88.882812 -5.335938 C 89.546875 -5.570312 90.070312 -5.796875 90.460938 -6.011719 C 90.574219 -6.078125 90.664062 -6.128906 90.722656 -6.171875 C 90.695312 -6.15625 90.65625 -6.117188 90.601562 -6.058594 L 94.589844 -2.402344 L 89.21875 -3.035156 C 89.324219 -3.941406 89.394531 -5.316406 89.421875 -7.152344 C 89.453125 -9.140625 89.46875 -10.960938 89.46875 -12.609375 L 89.515625 -27.75 L 89.566406 -43.160156 L 89.566406 -77.285156 C 89.566406 -79.902344 89.007812 -82.101562 87.890625 -83.882812 C 86.6875 -85.804688 85.113281 -87.34375 83.171875 -88.5 C 81.082031 -89.742188 78.816406 -90.550781 76.371094 -90.925781 C 73.894531 -91.304688 71.441406 -91.230469 69.019531 -90.699219 C 66.75 -90.203125 64.753906 -89.28125 63.03125 -87.929688 L 59.695312 -92.183594 L 65.042969 -91.394531 C 64.816406 -89.871094 64.660156 -87.597656 64.570312 -84.574219 C 64.476562 -81.375 64.410156 -77.859375 64.378906 -74.019531 C 64.347656 -70.09375 64.265625 -66.3125 64.136719 -62.671875 L 63.949219 -57.460938 Z M 40.277344 -57.460938 "/></g></g></g><g fill="#316a83" fill-opacity="1"><g transform="translate(194.864819, 105.071087)"><g><path d="M 44.839844 -78.175781 C 45.199219 -76.035156 45.460938 -73.046875 45.628906 -69.210938 C 45.792969 -65.519531 45.890625 -61.304688 45.925781 -56.558594 C 45.957031 -51.847656 45.941406 -46.941406 45.875 -41.84375 C 45.8125 -36.734375 45.683594 -31.6875 45.488281 -26.703125 C 45.292969 -21.730469 45.066406 -17.152344 44.808594 -12.980469 C 44.542969 -8.703125 44.207031 -5.144531 43.804688 -2.3125 L 43.566406 -0.640625 L 42.417969 0.597656 C 40.164062 3.035156 37.339844 4.78125 33.957031 5.835938 C 30.742188 6.835938 27.351562 7.113281 23.785156 6.664062 C 20.25 6.214844 16.84375 5.011719 13.566406 3.054688 C 10.269531 1.085938 7.390625 -1.679688 4.925781 -5.238281 C 2.476562 -8.773438 0.765625 -13.0625 -0.214844 -18.097656 C -0.511719 -19.507812 -0.765625 -21.765625 -0.972656 -24.871094 C -1.167969 -27.769531 -1.347656 -31.179688 -1.507812 -35.101562 C -1.671875 -39.027344 -1.785156 -43.257812 -1.851562 -47.792969 C -1.914062 -52.316406 -1.929688 -56.859375 -1.898438 -61.414062 C -1.867188 -65.976562 -1.785156 -70.328125 -1.65625 -74.472656 C -1.523438 -78.683594 -1.308594 -82.425781 -1.011719 -85.707031 C -0.695312 -89.1875 -0.273438 -91.914062 0.257812 -93.878906 L 0.675781 -95.433594 L 1.878906 -96.507812 C 4.242188 -98.617188 7.085938 -100.207031 10.410156 -101.273438 C 13.621094 -102.304688 16.992188 -102.742188 20.523438 -102.585938 C 24.21875 -102.421875 27.753906 -101.445312 31.128906 -99.652344 C 34.574219 -97.828125 37.523438 -95.125 39.980469 -91.542969 C 42.398438 -88.011719 44.023438 -83.53125 44.851562 -78.101562 Z M 34.164062 -76.46875 C 33.582031 -80.269531 32.546875 -83.253906 31.058594 -85.425781 C 29.605469 -87.546875 27.941406 -89.105469 26.066406 -90.097656 C 24.121094 -91.128906 22.117188 -91.691406 20.042969 -91.78125 C 17.804688 -91.882812 15.695312 -91.613281 13.714844 -90.976562 C 11.847656 -90.378906 10.304688 -89.53125 9.082031 -88.441406 L 5.480469 -92.472656 L 10.699219 -91.066406 C 10.332031 -89.703125 10.019531 -87.589844 9.757812 -84.726562 C 9.480469 -81.660156 9.277344 -78.132812 9.152344 -74.136719 C 9.027344 -70.078125 8.949219 -65.8125 8.914062 -61.339844 C 8.882812 -56.859375 8.898438 -52.394531 8.964844 -47.949219 C 9.027344 -43.511719 9.136719 -39.378906 9.296875 -35.550781 C 9.453125 -31.71875 9.628906 -28.402344 9.816406 -25.597656 C 9.992188 -22.996094 10.1875 -21.183594 10.402344 -20.160156 C 11.089844 -16.609375 12.230469 -13.6875 13.816406 -11.394531 C 15.390625 -9.117188 17.15625 -7.398438 19.113281 -6.226562 C 21.09375 -5.042969 23.105469 -4.324219 25.140625 -4.066406 C 27.152344 -3.8125 29.019531 -3.953125 30.738281 -4.488281 C 32.285156 -4.972656 33.535156 -5.726562 34.484375 -6.75 L 38.449219 -3.074219 L 33.097656 -3.839844 C 33.460938 -6.390625 33.765625 -9.660156 34.015625 -13.648438 C 34.269531 -17.742188 34.492188 -22.234375 34.679688 -27.125 C 34.871094 -32.011719 35 -36.964844 35.0625 -41.980469 C 35.125 -47.007812 35.140625 -51.84375 35.109375 -56.484375 C 35.078125 -61.097656 34.984375 -65.179688 34.828125 -68.730469 C 34.675781 -72.132812 34.457031 -74.6875 34.175781 -76.398438 Z M 34.164062 -76.46875 "/></g></g></g><g clip-path="url(#79d9551f6e)"><g fill="#316a83" fill-opacity="1"><g transform="translate(240.81218, 105.071087)"><g><path d="M 73.015625 -58.71875 C 78.644531 -55.238281 82.855469 -51.125 85.644531 -46.382812 C 88.441406 -41.640625 89.953125 -36.671875 90.183594 -31.484375 C 90.410156 -26.460938 89.660156 -21.617188 87.929688 -16.960938 C 86.210938 -12.324219 83.71875 -8.226562 80.457031 -4.664062 C 77.125 -1.023438 73.292969 1.683594 68.957031 3.464844 C 66.039062 4.632812 62.550781 5.601562 58.492188 6.371094 C 54.507812 7.125 50.199219 7.589844 45.570312 7.757812 C 40.90625 7.929688 36.132812 7.691406 31.25 7.042969 C 26.257812 6.378906 21.441406 5.175781 16.792969 3.425781 C 11.980469 1.617188 7.613281 -0.882812 3.699219 -4.074219 L 3.230469 -4.457031 L 2.859375 -4.929688 C 0.386719 -8.082031 -1.089844 -11.53125 -1.566406 -15.269531 C -2.027344 -18.878906 -1.667969 -22.351562 -0.484375 -25.695312 C 0.710938 -29.054688 2.574219 -31.917969 5.109375 -34.28125 C 7.804688 -36.796875 11.011719 -38.347656 14.726562 -38.9375 C 18.480469 -39.53125 22.4375 -38.808594 26.601562 -36.769531 C 30.734375 -34.734375 34.585938 -33.359375 38.15625 -32.652344 C 41.445312 -32 44.058594 -31.894531 46.003906 -32.332031 C 46.554688 -32.457031 46.90625 -32.582031 47.066406 -32.707031 C 46.925781 -32.597656 46.832031 -32.445312 46.78125 -32.25 C 46.800781 -32.320312 46.808594 -32.367188 46.808594 -32.386719 C 46.808594 -32.316406 46.820312 -32.234375 46.84375 -32.140625 C 46.894531 -31.945312 46.953125 -31.816406 47.027344 -31.746094 C 47.046875 -31.726562 47.058594 -31.714844 47.070312 -31.710938 C 47.046875 -31.722656 47.015625 -31.742188 46.972656 -31.765625 C 46.800781 -31.859375 46.574219 -31.949219 46.285156 -32.039062 C 45.453125 -32.296875 44.34375 -32.476562 42.96875 -32.578125 C 38.707031 -32.925781 34.46875 -33.652344 30.253906 -34.757812 C 25.878906 -35.90625 21.785156 -37.578125 17.96875 -39.773438 C 13.917969 -42.101562 10.5 -45.160156 7.710938 -48.941406 C 4.867188 -52.800781 2.984375 -57.394531 2.074219 -62.722656 C 1.738281 -64.820312 1.703125 -67.265625 1.972656 -70.0625 C 2.238281 -72.84375 2.910156 -75.753906 3.984375 -78.800781 C 5.09375 -81.933594 6.753906 -84.996094 8.960938 -87.992188 C 11.222656 -91.058594 14.179688 -93.820312 17.839844 -96.285156 C 21.484375 -98.742188 25.90625 -100.652344 31.109375 -102.027344 C 34.628906 -103.011719 38.375 -103.628906 42.34375 -103.878906 C 46.207031 -104.121094 50.054688 -104.066406 53.882812 -103.722656 C 57.789062 -103.371094 61.449219 -102.695312 64.859375 -101.703125 C 68.453125 -100.652344 71.503906 -99.308594 74.003906 -97.667969 C 78.058594 -94.9375 81.03125 -91.953125 82.917969 -88.707031 C 84.894531 -85.3125 85.859375 -81.882812 85.816406 -78.417969 C 85.773438 -75.066406 84.964844 -71.929688 83.394531 -69.007812 C 81.898438 -66.222656 79.9375 -63.847656 77.515625 -61.886719 C 75.007812 -59.851562 72.226562 -58.488281 69.167969 -57.789062 L 65.890625 -57.039062 L 63.769531 -59.644531 C 62.84375 -60.78125 61.488281 -61.800781 59.703125 -62.703125 C 57.617188 -63.761719 55.359375 -64.574219 52.925781 -65.148438 C 50.503906 -65.722656 48.234375 -65.992188 46.113281 -65.96875 C 44.359375 -65.945312 43.03125 -65.710938 42.128906 -65.269531 C 42.097656 -65.253906 42.078125 -65.242188 42.0625 -65.234375 C 42.070312 -65.238281 42.082031 -65.246094 42.097656 -65.257812 C 42.179688 -65.328125 42.261719 -65.421875 42.339844 -65.53125 C 42.507812 -65.777344 42.597656 -66.003906 42.605469 -66.214844 L 37.199219 -66.421875 L 42.609375 -66.421875 C 42.609375 -66.804688 42.511719 -67.175781 42.316406 -67.542969 C 42.164062 -67.832031 41.988281 -68.054688 41.789062 -68.203125 C 41.703125 -68.265625 41.640625 -68.308594 41.609375 -68.324219 C 41.703125 -68.28125 41.835938 -68.234375 42.015625 -68.179688 C 42.570312 -68.015625 43.316406 -67.871094 44.25 -67.746094 C 51.730469 -66.796875 57.921875 -65.355469 62.824219 -63.429688 C 67.625 -61.542969 71.035156 -59.964844 73.054688 -58.695312 Z M 67.292969 -49.542969 C 65.847656 -50.453125 63.042969 -51.726562 58.871094 -53.363281 C 54.800781 -54.960938 49.457031 -56.183594 42.839844 -57.023438 C 39.46875 -57.46875 36.957031 -58.308594 35.300781 -59.550781 C 34.207031 -60.371094 33.359375 -61.351562 32.757812 -62.492188 C 32.113281 -63.707031 31.792969 -65.015625 31.792969 -66.421875 L 31.792969 -66.527344 L 31.796875 -66.632812 C 31.871094 -68.507812 32.414062 -70.1875 33.433594 -71.664062 C 34.390625 -73.058594 35.703125 -74.164062 37.367188 -74.980469 C 39.730469 -76.136719 42.601562 -76.738281 45.976562 -76.78125 C 48.984375 -76.816406 52.125 -76.449219 55.410156 -75.675781 C 58.679688 -74.902344 61.738281 -73.796875 64.589844 -72.351562 C 67.738281 -70.757812 70.261719 -68.796875 72.152344 -66.472656 L 67.960938 -63.058594 L 66.757812 -68.328125 C 68.183594 -68.65625 69.5 -69.308594 70.710938 -70.289062 C 72.003906 -71.335938 73.058594 -72.617188 73.867188 -74.125 C 74.605469 -75.496094 74.980469 -76.972656 75.003906 -78.558594 C 75.023438 -80.027344 74.546875 -81.59375 73.574219 -83.265625 C 72.515625 -85.082031 70.683594 -86.867188 68.070312 -88.625 C 66.472656 -89.675781 64.390625 -90.574219 61.832031 -91.320312 C 59.09375 -92.117188 56.121094 -92.664062 52.914062 -92.953125 C 49.628906 -93.246094 46.332031 -93.292969 43.015625 -93.085938 C 39.808594 -92.882812 36.761719 -92.378906 33.871094 -91.570312 C 29.84375 -90.507812 26.515625 -89.089844 23.878906 -87.316406 C 21.257812 -85.550781 19.183594 -83.636719 17.664062 -81.574219 C 16.09375 -79.441406 14.933594 -77.316406 14.183594 -75.195312 C 13.398438 -72.984375 12.917969 -70.929688 12.734375 -69.03125 C 12.554688 -67.152344 12.554688 -65.65625 12.730469 -64.550781 C 13.355469 -60.90625 14.582031 -57.839844 16.414062 -55.359375 C 18.304688 -52.792969 20.621094 -50.722656 23.363281 -49.144531 C 26.34375 -47.429688 29.554688 -46.121094 32.996094 -45.21875 C 36.601562 -44.273438 40.179688 -43.65625 43.738281 -43.363281 C 48.617188 -43.015625 52.199219 -41.753906 54.484375 -39.578125 C 55.902344 -38.230469 56.84375 -36.65625 57.308594 -34.859375 C 57.757812 -33.140625 57.730469 -31.339844 57.230469 -29.464844 C 56.664062 -27.34375 55.511719 -25.597656 53.769531 -24.222656 C 52.328125 -23.082031 50.535156 -22.269531 48.390625 -21.785156 C 44.953125 -21.007812 40.839844 -21.09375 36.050781 -22.042969 C 31.550781 -22.9375 26.8125 -24.609375 21.84375 -27.058594 C 19.730469 -28.09375 17.921875 -28.492188 16.417969 -28.253906 C 14.878906 -28.011719 13.566406 -27.382812 12.484375 -26.371094 C 11.238281 -25.210938 10.3125 -23.78125 9.710938 -22.082031 C 9.101562 -20.359375 8.917969 -18.546875 9.160156 -16.644531 C 9.386719 -14.871094 10.125 -13.191406 11.367188 -11.601562 L 7.113281 -8.265625 L 10.527344 -12.457031 C 13.53125 -10.011719 16.890625 -8.089844 20.597656 -6.695312 C 24.476562 -5.238281 28.5 -4.230469 32.675781 -3.679688 C 36.953125 -3.109375 41.121094 -2.898438 45.171875 -3.046875 C 49.257812 -3.199219 53.027344 -3.601562 56.476562 -4.253906 C 59.851562 -4.894531 62.640625 -5.65625 64.847656 -6.539062 C 67.691406 -7.707031 70.238281 -9.515625 72.480469 -11.964844 C 74.792969 -14.492188 76.5625 -17.410156 77.792969 -20.722656 C 79.011719 -24.007812 79.542969 -27.433594 79.382812 -31 C 79.230469 -34.398438 78.210938 -37.695312 76.328125 -40.898438 C 74.441406 -44.101562 71.441406 -46.976562 67.328125 -49.519531 Z M 67.292969 -49.542969 "/></g></g></g></g><g fill="#316a83" fill-opacity="1"><g transform="translate(331.361171, 105.071087)"><g/></g></g><g fill="#316a83" fill-opacity="1"><g transform="translate(379.807754, 105.071087)"><g><path d="M 108.261719 -98.195312 C 111.867188 -99.960938 115.609375 -101.175781 119.484375 -101.839844 C 123.453125 -102.519531 127.261719 -102.554688 130.910156 -101.9375 C 134.785156 -101.285156 138.238281 -99.863281 141.261719 -97.664062 C 144.457031 -95.347656 146.820312 -92.222656 148.359375 -88.292969 C 149.84375 -84.5 150.273438 -80.011719 149.65625 -74.816406 C 149.320312 -72.011719 148.773438 -68.5625 148.015625 -64.476562 C 147.269531 -60.453125 146.394531 -56.109375 145.390625 -51.441406 C 144.386719 -46.789062 143.304688 -42.023438 142.144531 -37.148438 C 140.980469 -32.277344 139.804688 -27.53125 138.609375 -22.917969 C 137.410156 -18.289062 136.261719 -14.058594 135.160156 -10.230469 C 134.035156 -6.339844 133.007812 -3.089844 132.070312 -0.480469 L 131.175781 2.019531 L 128.648438 2.835938 C 126.417969 3.558594 123.785156 4.359375 120.753906 5.242188 C 117.558594 6.167969 114.152344 6.921875 110.535156 7.5 C 106.757812 8.109375 102.941406 8.304688 99.09375 8.089844 C 95.007812 7.863281 91.121094 6.972656 87.4375 5.414062 C 83.503906 3.75 80.050781 1.097656 77.082031 -2.542969 C 74.195312 -6.089844 71.976562 -10.730469 70.429688 -16.472656 C 69.613281 -19.53125 68.984375 -22.394531 68.539062 -25.066406 C 68.101562 -27.683594 67.734375 -30.507812 67.433594 -33.542969 C 67.148438 -36.441406 66.78125 -39.933594 66.335938 -44.015625 L 71.710938 -44.601562 L 71.710938 -39.195312 L 70.554688 -39.195312 L 70.554688 -44.601562 L 75.921875 -43.941406 L 73.519531 -24.382812 C 72.621094 -17.089844 71.6875 -9.816406 70.726562 -2.558594 L 70.277344 0.824219 L 67.03125 1.875 C 64.792969 2.601562 62.183594 3.386719 59.210938 4.238281 C 56.089844 5.128906 52.761719 5.863281 49.222656 6.441406 C 45.535156 7.042969 41.8125 7.273438 38.054688 7.132812 C 34.117188 6.984375 30.289062 6.261719 26.570312 4.960938 C 22.613281 3.574219 19.035156 1.320312 15.832031 -1.800781 C 12.671875 -4.882812 10.054688 -8.949219 7.976562 -13.996094 C 6.8125 -16.835938 5.8125 -20.453125 4.972656 -24.847656 C 4.183594 -28.992188 3.460938 -33.617188 2.808594 -38.722656 C 2.160156 -43.761719 1.546875 -49.042969 0.96875 -54.5625 C 0.386719 -60.058594 -0.160156 -65.527344 -0.671875 -70.960938 C -1.179688 -76.332031 -1.722656 -81.394531 -2.292969 -86.15625 L -2.425781 -87.25 L -2.117188 -88.308594 C -1.234375 -91.34375 0.550781 -93.996094 3.238281 -96.265625 C 5.585938 -98.25 8.320312 -99.8125 11.449219 -100.960938 C 14.542969 -102.097656 17.765625 -102.703125 21.117188 -102.78125 C 24.566406 -102.863281 27.863281 -102.316406 31.011719 -101.144531 C 34.46875 -99.859375 37.359375 -97.726562 39.6875 -94.738281 C 42.015625 -91.75 43.429688 -87.949219 43.921875 -83.339844 C 45.160156 -72.152344 45.824219 -62.273438 45.925781 -53.699219 C 46.019531 -45.496094 46.375 -38.765625 46.992188 -33.507812 L 41.621094 -32.875 L 41.621094 -38.28125 L 42.582031 -38.28125 L 42.582031 -32.875 L 37.328125 -34.144531 L 40.019531 -45.292969 L 42.707031 -56.617188 C 43.554688 -60.019531 44.511719 -63.71875 45.578125 -67.71875 L 48.703125 -79.445312 C 49.734375 -83.316406 50.671875 -86.742188 51.511719 -89.714844 C 52.335938 -92.628906 52.902344 -94.683594 53.214844 -95.867188 L 53.949219 -98.652344 L 56.667969 -99.597656 C 58.320312 -100.171875 60.324219 -100.738281 62.683594 -101.292969 C 65.179688 -101.878906 67.820312 -102.246094 70.613281 -102.390625 C 73.59375 -102.546875 76.488281 -102.292969 79.296875 -101.628906 C 82.441406 -100.886719 85.253906 -99.46875 87.738281 -97.378906 C 90.378906 -95.152344 92.304688 -92.054688 93.511719 -88.089844 C 95.96875 -80.269531 98.378906 -71.695312 100.742188 -62.367188 C 103.074219 -53.167969 105.582031 -43.617188 108.265625 -33.710938 L 103.046875 -32.296875 L 101.335938 -37.429688 C 102.085938 -37.675781 102.941406 -37.800781 103.914062 -37.800781 L 103.914062 -32.394531 L 98.585938 -33.320312 C 99.085938 -36.195312 99.601562 -39.675781 100.136719 -43.765625 C 100.675781 -47.890625 101.199219 -52.292969 101.710938 -56.964844 L 103.199219 -70.984375 C 103.675781 -75.59375 104.089844 -79.871094 104.4375 -83.820312 C 104.789062 -87.761719 105.058594 -91.0625 105.246094 -93.722656 L 105.46875 -96.828125 Z M 113.019531 -88.484375 L 110.640625 -93.339844 L 116.035156 -92.953125 C 115.839844 -90.230469 115.566406 -86.867188 115.210938 -82.863281 C 114.855469 -78.863281 114.4375 -74.523438 113.953125 -69.839844 L 112.460938 -55.792969 C 111.941406 -51.042969 111.410156 -46.566406 110.859375 -42.363281 C 110.304688 -38.121094 109.765625 -34.492188 109.238281 -31.46875 L 108.460938 -26.988281 L 103.914062 -26.988281 C 104.113281 -26.988281 104.394531 -27.046875 104.757812 -27.167969 L 99.324219 -25.359375 L 97.828125 -30.882812 C 95.128906 -40.847656 92.605469 -50.453125 90.261719 -59.710938 C 87.945312 -68.839844 85.582031 -77.25 83.167969 -84.9375 C 82.582031 -86.867188 81.78125 -88.253906 80.773438 -89.105469 C 79.601562 -90.089844 78.28125 -90.757812 76.8125 -91.105469 C 75.007812 -91.53125 73.125 -91.691406 71.171875 -91.589844 C 69.03125 -91.480469 67.027344 -91.207031 65.164062 -90.765625 C 63.164062 -90.296875 61.519531 -89.835938 60.222656 -89.386719 L 58.445312 -94.492188 L 63.671875 -93.117188 C 63.34375 -91.867188 62.761719 -89.753906 61.917969 -86.773438 C 61.09375 -83.851562 60.171875 -80.480469 59.152344 -76.664062 L 56.027344 -64.9375 C 54.976562 -60.988281 54.042969 -57.382812 53.226562 -54.121094 L 50.53125 -42.757812 L 46.839844 -27.46875 L 36.8125 -27.46875 L 36.253906 -32.242188 C 35.589844 -37.878906 35.207031 -44.992188 35.109375 -53.578125 C 35.015625 -61.792969 34.371094 -71.332031 33.171875 -82.1875 C 32.894531 -84.753906 32.222656 -86.722656 31.15625 -88.09375 C 30.089844 -89.464844 28.78125 -90.4375 27.242188 -91.011719 C 25.390625 -91.699219 23.433594 -92.019531 21.371094 -91.96875 C 19.210938 -91.921875 17.148438 -91.535156 15.175781 -90.808594 C 13.242188 -90.101562 11.589844 -89.164062 10.21875 -88.007812 C 9.191406 -87.140625 8.542969 -86.234375 8.269531 -85.292969 L 3.074219 -86.800781 L 8.445312 -87.445312 C 9.027344 -82.59375 9.578125 -77.441406 10.09375 -71.980469 C 10.605469 -66.582031 11.148438 -61.15625 11.722656 -55.695312 C 12.292969 -50.253906 12.898438 -45.058594 13.535156 -40.097656 C 14.160156 -35.210938 14.847656 -30.800781 15.597656 -26.871094 C 16.296875 -23.191406 17.089844 -20.269531 17.976562 -18.113281 C 19.488281 -14.441406 21.289062 -11.585938 23.386719 -9.542969 C 25.441406 -7.535156 27.695312 -6.105469 30.144531 -5.246094 C 32.835938 -4.304688 35.609375 -3.78125 38.460938 -3.671875 C 41.496094 -3.558594 44.503906 -3.746094 47.480469 -4.230469 C 50.605469 -4.742188 53.523438 -5.386719 56.238281 -6.160156 C 59.09375 -6.976562 61.582031 -7.726562 63.703125 -8.414062 L 65.367188 -3.269531 L 60.003906 -3.980469 C 60.964844 -11.203125 61.890625 -18.445312 62.785156 -25.699219 L 65.773438 -50.007812 L 76.558594 -50.007812 L 77.085938 -45.191406 C 77.535156 -41.070312 77.90625 -37.542969 78.195312 -34.609375 C 78.472656 -31.8125 78.808594 -29.222656 79.207031 -26.84375 C 79.59375 -24.511719 80.148438 -21.996094 80.871094 -19.285156 C 82.019531 -15.03125 83.550781 -11.726562 85.464844 -9.375 C 87.304688 -7.121094 89.363281 -5.511719 91.648438 -4.546875 C 94.175781 -3.476562 96.859375 -2.863281 99.695312 -2.707031 C 102.765625 -2.535156 105.808594 -2.691406 108.824219 -3.175781 C 112 -3.683594 114.972656 -4.339844 117.738281 -5.144531 C 120.664062 -5.996094 123.191406 -6.761719 125.316406 -7.453125 L 126.984375 -2.308594 L 121.894531 -4.132812 C 122.75 -6.523438 123.710938 -9.554688 124.765625 -13.222656 C 125.84375 -16.957031 126.96875 -21.09375 128.140625 -25.625 C 129.316406 -30.175781 130.476562 -34.851562 131.625 -39.65625 C 132.769531 -44.457031 133.832031 -49.144531 134.816406 -53.71875 C 135.800781 -58.28125 136.65625 -62.527344 137.382812 -66.449219 C 138.097656 -70.304688 138.609375 -73.523438 138.917969 -76.101562 C 139.320312 -79.496094 139.113281 -82.246094 138.289062 -84.351562 C 137.519531 -86.316406 136.394531 -87.835938 134.910156 -88.914062 C 133.253906 -90.117188 131.320312 -90.902344 129.113281 -91.273438 C 126.671875 -91.6875 124.074219 -91.65625 121.3125 -91.179688 C 118.457031 -90.691406 115.695312 -89.792969 113.019531 -88.484375 Z M 113.019531 -88.484375 "/></g></g></g><g fill="#316a83" fill-opacity="1"><g transform="translate(526.49326, 105.071087)"><g><path d="M -0.109375 -21.886719 C -0.242188 -24.140625 -0.34375 -27.148438 -0.40625 -30.90625 C -0.472656 -34.621094 -0.503906 -38.789062 -0.503906 -43.402344 C -0.503906 -48.019531 -0.457031 -52.796875 -0.359375 -57.734375 C -0.261719 -62.660156 -0.132812 -67.507812 0.0273438 -72.277344 C 0.1875 -77.058594 0.382812 -81.488281 0.609375 -85.5625 C 0.839844 -89.714844 1.121094 -93.191406 1.457031 -95.996094 L 1.96875 -100.304688 L 6.285156 -100.738281 C 9.605469 -101.070312 13.617188 -101.316406 18.316406 -101.480469 C 22.9375 -101.644531 27.898438 -101.757812 33.195312 -101.820312 C 38.503906 -101.886719 43.828125 -101.871094 49.171875 -101.773438 C 54.5 -101.675781 59.539062 -101.53125 64.289062 -101.335938 C 69.0625 -101.140625 73.175781 -100.914062 76.636719 -100.652344 L 79.207031 -100.457031 L 80.671875 -98.339844 C 81.617188 -96.980469 82.390625 -95.125 83 -92.773438 C 83.558594 -90.625 83.855469 -88.242188 83.894531 -85.632812 C 83.933594 -82.96875 83.605469 -80.285156 82.90625 -77.574219 C 82.152344 -74.636719 80.839844 -71.921875 78.96875 -69.425781 C 76.972656 -66.769531 74.292969 -64.671875 70.925781 -63.136719 C 67.679688 -61.660156 63.746094 -60.921875 59.117188 -60.921875 L 39.316406 -60.921875 L 39.316406 -66.328125 L 44.722656 -66.328125 L 44.722656 -61.328125 L 39.316406 -61.328125 L 39.316406 -66.734375 C 40.679688 -66.734375 42.570312 -66.765625 44.992188 -66.828125 C 47.503906 -66.894531 50.226562 -66.929688 53.15625 -66.929688 C 56.207031 -66.929688 59.207031 -66.792969 62.160156 -66.519531 C 65.328125 -66.230469 68.121094 -65.707031 70.535156 -64.953125 L 72.84375 -64.230469 L 73.84375 -62.027344 C 76.160156 -56.9375 77.117188 -52.089844 76.710938 -47.496094 C 76.269531 -42.441406 74.261719 -38.285156 70.691406 -35.03125 C 67.207031 -31.859375 62.457031 -30.109375 56.429688 -29.78125 C 54.703125 -29.714844 53.101562 -29.679688 51.621094 -29.679688 C 50.179688 -29.679688 48.511719 -29.695312 46.625 -29.726562 C 44.796875 -29.757812 42.394531 -29.773438 39.410156 -29.773438 L 39.410156 -35.183594 L 44.820312 -35.183594 L 44.820312 -29.320312 L 39.410156 -29.320312 L 39.410156 -34.726562 L 75.238281 -34.726562 L 76.855469 -32.492188 C 79.214844 -29.238281 80.71875 -25.640625 81.371094 -21.691406 C 82.027344 -17.714844 81.738281 -13.835938 80.503906 -10.050781 C 79.207031 -6.078125 76.792969 -2.679688 73.253906 0.140625 C 69.773438 2.917969 65.253906 4.660156 59.703125 5.363281 C 57.96875 5.574219 55.683594 5.761719 52.851562 5.925781 C 50.039062 6.09375 46.953125 6.191406 43.597656 6.222656 C 40.277344 6.257812 36.972656 6.238281 33.679688 6.175781 C 30.347656 6.109375 27.335938 5.976562 24.640625 5.777344 C 21.777344 5.566406 19.507812 5.269531 17.835938 4.886719 L 17.761719 4.871094 L 17.6875 4.851562 C 11.808594 3.339844 7.410156 0.261719 4.5 -4.386719 C 1.863281 -8.597656 0.328125 -14.429688 -0.109375 -21.886719 Z M 10.683594 -22.523438 C 11.015625 -16.90625 12.007812 -12.773438 13.667969 -10.128906 C 15.050781 -7.917969 17.289062 -6.417969 20.378906 -5.621094 L 19.03125 -0.382812 L 20.230469 -5.65625 C 21.378906 -5.398438 23.113281 -5.179688 25.441406 -5.007812 C 27.9375 -4.824219 30.757812 -4.699219 33.894531 -4.636719 C 37.078125 -4.574219 40.277344 -4.558594 43.492188 -4.589844 C 46.671875 -4.621094 49.578125 -4.714844 52.214844 -4.867188 C 54.828125 -5.023438 56.871094 -5.1875 58.339844 -5.363281 C 61.886719 -5.8125 64.613281 -6.796875 66.511719 -8.3125 C 68.359375 -9.785156 69.597656 -11.484375 70.222656 -13.402344 C 70.910156 -15.515625 71.070312 -17.691406 70.699219 -19.929688 C 70.328125 -22.199219 69.460938 -24.269531 68.101562 -26.144531 L 72.480469 -29.320312 L 72.480469 -23.910156 L 34.003906 -23.910156 L 34.003906 -40.589844 L 39.410156 -40.589844 C 42.453125 -40.589844 44.921875 -40.574219 46.808594 -40.539062 C 48.636719 -40.507812 50.242188 -40.492188 51.621094 -40.492188 C 52.957031 -40.492188 54.367188 -40.523438 55.847656 -40.582031 C 59.304688 -40.769531 61.824219 -41.582031 63.40625 -43.023438 C 64.898438 -44.382812 65.742188 -46.1875 65.9375 -48.441406 C 66.175781 -51.148438 65.53125 -54.1875 64 -57.554688 L 68.921875 -59.789062 L 67.308594 -54.628906 C 65.625 -55.15625 63.578125 -55.53125 61.167969 -55.75 C 58.546875 -55.992188 55.875 -56.113281 53.15625 -56.113281 C 50.320312 -56.113281 47.691406 -56.082031 45.273438 -56.019531 C 42.757812 -55.953125 40.773438 -55.921875 39.316406 -55.921875 L 33.910156 -55.921875 L 33.910156 -71.734375 L 59.117188 -71.734375 C 62.179688 -71.734375 64.621094 -72.148438 66.441406 -72.976562 C 68.132812 -73.75 69.425781 -74.730469 70.316406 -75.914062 C 71.328125 -77.265625 72.035156 -78.714844 72.433594 -80.265625 C 72.890625 -82.042969 73.105469 -83.777344 73.082031 -85.472656 C 73.054688 -87.21875 72.871094 -88.746094 72.53125 -90.058594 C 72.246094 -91.167969 71.996094 -91.878906 71.78125 -92.183594 L 76.226562 -95.261719 L 75.820312 -89.871094 C 72.488281 -90.121094 68.496094 -90.339844 63.847656 -90.53125 C 59.179688 -90.722656 54.21875 -90.863281 48.972656 -90.960938 C 43.742188 -91.054688 38.527344 -91.070312 33.324219 -91.007812 C 28.113281 -90.945312 23.234375 -90.832031 18.691406 -90.675781 C 14.226562 -90.519531 10.449219 -90.285156 7.363281 -89.976562 L 6.824219 -95.355469 L 12.195312 -94.71875 C 11.886719 -92.140625 11.625 -88.886719 11.40625 -84.964844 C 11.183594 -80.964844 10.992188 -76.613281 10.835938 -71.910156 C 10.675781 -67.195312 10.546875 -62.398438 10.453125 -57.523438 C 10.355469 -52.65625 10.308594 -47.949219 10.308594 -43.402344 C 10.308594 -38.851562 10.339844 -34.75 10.40625 -31.09375 C 10.46875 -27.484375 10.5625 -24.628906 10.683594 -22.523438 Z M 10.683594 -22.523438 "/></g></g></g><g fill="#316a83" fill-opacity="1"><g transform="translate(607.429864, 105.071087)"><g><path d="M -0.109375 -21.886719 C -0.242188 -24.140625 -0.34375 -27.148438 -0.40625 -30.90625 C -0.472656 -34.621094 -0.503906 -38.789062 -0.503906 -43.402344 C -0.503906 -48.019531 -0.457031 -52.796875 -0.359375 -57.734375 C -0.261719 -62.660156 -0.132812 -67.507812 0.0273438 -72.277344 C 0.1875 -77.058594 0.382812 -81.488281 0.609375 -85.5625 C 0.839844 -89.714844 1.121094 -93.191406 1.457031 -95.996094 L 1.96875 -100.304688 L 6.285156 -100.738281 C 9.605469 -101.070312 13.617188 -101.316406 18.316406 -101.480469 C 22.9375 -101.644531 27.898438 -101.757812 33.195312 -101.820312 C 38.503906 -101.886719 43.828125 -101.871094 49.171875 -101.773438 C 54.5 -101.675781 59.539062 -101.53125 64.289062 -101.335938 C 69.0625 -101.140625 73.175781 -100.914062 76.636719 -100.652344 L 79.207031 -100.457031 L 80.671875 -98.339844 C 81.617188 -96.980469 82.390625 -95.125 83 -92.773438 C 83.558594 -90.625 83.855469 -88.242188 83.894531 -85.632812 C 83.933594 -82.96875 83.605469 -80.285156 82.90625 -77.574219 C 82.152344 -74.636719 80.839844 -71.921875 78.96875 -69.425781 C 76.972656 -66.769531 74.292969 -64.671875 70.925781 -63.136719 C 67.679688 -61.660156 63.746094 -60.921875 59.117188 -60.921875 L 39.316406 -60.921875 L 39.316406 -66.328125 L 44.722656 -66.328125 L 44.722656 -61.328125 L 39.316406 -61.328125 L 39.316406 -66.734375 C 40.679688 -66.734375 42.570312 -66.765625 44.992188 -66.828125 C 47.503906 -66.894531 50.226562 -66.929688 53.15625 -66.929688 C 56.207031 -66.929688 59.207031 -66.792969 62.160156 -66.519531 C 65.328125 -66.230469 68.121094 -65.707031 70.535156 -64.953125 L 72.84375 -64.230469 L 73.84375 -62.027344 C 76.160156 -56.9375 77.117188 -52.089844 76.710938 -47.496094 C 76.269531 -42.441406 74.261719 -38.285156 70.691406 -35.03125 C 67.207031 -31.859375 62.457031 -30.109375 56.429688 -29.78125 C 54.703125 -29.714844 53.101562 -29.679688 51.621094 -29.679688 C 50.179688 -29.679688 48.511719 -29.695312 46.625 -29.726562 C 44.796875 -29.757812 42.394531 -29.773438 39.410156 -29.773438 L 39.410156 -35.183594 L 44.820312 -35.183594 L 44.820312 -29.320312 L 39.410156 -29.320312 L 39.410156 -34.726562 L 75.238281 -34.726562 L 76.855469 -32.492188 C 79.214844 -29.238281 80.71875 -25.640625 81.371094 -21.691406 C 82.027344 -17.714844 81.738281 -13.835938 80.503906 -10.050781 C 79.207031 -6.078125 76.792969 -2.679688 73.253906 0.140625 C 69.773438 2.917969 65.253906 4.660156 59.703125 5.363281 C 57.96875 5.574219 55.683594 5.761719 52.851562 5.925781 C 50.039062 6.09375 46.953125 6.191406 43.597656 6.222656 C 40.277344 6.257812 36.972656 6.238281 33.679688 6.175781 C 30.347656 6.109375 27.335938 5.976562 24.640625 5.777344 C 21.777344 5.566406 19.507812 5.269531 17.835938 4.886719 L 17.761719 4.871094 L 17.6875 4.851562 C 11.808594 3.339844 7.410156 0.261719 4.5 -4.386719 C 1.863281 -8.597656 0.328125 -14.429688 -0.109375 -21.886719 Z M 10.683594 -22.523438 C 11.015625 -16.90625 12.007812 -12.773438 13.667969 -10.128906 C 15.050781 -7.917969 17.289062 -6.417969 20.378906 -5.621094 L 19.03125 -0.382812 L 20.230469 -5.65625 C 21.378906 -5.398438 23.113281 -5.179688 25.441406 -5.007812 C 27.9375 -4.824219 30.757812 -4.699219 33.894531 -4.636719 C 37.078125 -4.574219 40.277344 -4.558594 43.492188 -4.589844 C 46.671875 -4.621094 49.578125 -4.714844 52.214844 -4.867188 C 54.828125 -5.023438 56.871094 -5.1875 58.339844 -5.363281 C 61.886719 -5.8125 64.613281 -6.796875 66.511719 -8.3125 C 68.359375 -9.785156 69.597656 -11.484375 70.222656 -13.402344 C 70.910156 -15.515625 71.070312 -17.691406 70.699219 -19.929688 C 70.328125 -22.199219 69.460938 -24.269531 68.101562 -26.144531 L 72.480469 -29.320312 L 72.480469 -23.910156 L 34.003906 -23.910156 L 34.003906 -40.589844 L 39.410156 -40.589844 C 42.453125 -40.589844 44.921875 -40.574219 46.808594 -40.539062 C 48.636719 -40.507812 50.242188 -40.492188 51.621094 -40.492188 C 52.957031 -40.492188 54.367188 -40.523438 55.847656 -40.582031 C 59.304688 -40.769531 61.824219 -41.582031 63.40625 -43.023438 C 64.898438 -44.382812 65.742188 -46.1875 65.9375 -48.441406 C 66.175781 -51.148438 65.53125 -54.1875 64 -57.554688 L 68.921875 -59.789062 L 67.308594 -54.628906 C 65.625 -55.15625 63.578125 -55.53125 61.167969 -55.75 C 58.546875 -55.992188 55.875 -56.113281 53.15625 -56.113281 C 50.320312 -56.113281 47.691406 -56.082031 45.273438 -56.019531 C 42.757812 -55.953125 40.773438 -55.921875 39.316406 -55.921875 L 33.910156 -55.921875 L 33.910156 -71.734375 L 59.117188 -71.734375 C 62.179688 -71.734375 64.621094 -72.148438 66.441406 -72.976562 C 68.132812 -73.75 69.425781 -74.730469 70.316406 -75.914062 C 71.328125 -77.265625 72.035156 -78.714844 72.433594 -80.265625 C 72.890625 -82.042969 73.105469 -83.777344 73.082031 -85.472656 C 73.054688 -87.21875 72.871094 -88.746094 72.53125 -90.058594 C 72.246094 -91.167969 71.996094 -91.878906 71.78125 -92.183594 L 76.226562 -95.261719 L 75.820312 -89.871094 C 72.488281 -90.121094 68.496094 -90.339844 63.847656 -90.53125 C 59.179688 -90.722656 54.21875 -90.863281 48.972656 -90.960938 C 43.742188 -91.054688 38.527344 -91.070312 33.324219 -91.007812 C 28.113281 -90.945312 23.234375 -90.832031 18.691406 -90.675781 C 14.226562 -90.519531 10.449219 -90.285156 7.363281 -89.976562 L 6.824219 -95.355469 L 12.195312 -94.71875 C 11.886719 -92.140625 11.625 -88.886719 11.40625 -84.964844 C 11.183594 -80.964844 10.992188 -76.613281 10.835938 -71.910156 C 10.675781 -67.195312 10.546875 -62.398438 10.453125 -57.523438 C 10.355469 -52.65625 10.308594 -47.949219 10.308594 -43.402344 C 10.308594 -38.851562 10.339844 -34.75 10.40625 -31.09375 C 10.46875 -27.484375 10.5625 -24.628906 10.683594 -22.523438 Z M 10.683594 -22.523438 "/></g></g></g><g clip-path="url(#f77682173e)"><g fill="#316a83" fill-opacity="1"><g transform="translate(688.366419, 105.071087)"><g><path d="M 35.464844 -63.902344 C 36.519531 -65.523438 37.4375 -66.964844 38.207031 -68.230469 C 38.992188 -69.511719 39.820312 -70.910156 40.699219 -72.414062 C 41.558594 -73.886719 42.578125 -75.742188 43.761719 -77.984375 C 44.546875 -79.484375 45.496094 -81.234375 46.609375 -83.234375 L 50.015625 -89.375 C 51.21875 -91.554688 52.390625 -93.625 53.535156 -95.582031 C 54.710938 -97.597656 55.777344 -99.324219 56.734375 -100.757812 L 57.960938 -102.601562 L 60.125 -103.054688 C 63.601562 -103.78125 67.144531 -103.785156 70.75 -103.0625 C 74.234375 -102.367188 77.488281 -101.125 80.511719 -99.34375 C 83.640625 -97.496094 86.253906 -95.160156 88.355469 -92.332031 C 90.613281 -89.289062 91.9375 -85.832031 92.328125 -81.957031 C 92.71875 -78.050781 91.886719 -74 89.832031 -69.8125 C 88.546875 -67.105469 87.355469 -64.867188 86.253906 -63.09375 C 85.195312 -61.386719 84.183594 -59.859375 83.214844 -58.511719 C 82.3125 -57.25 81.292969 -55.847656 80.164062 -54.296875 C 79.113281 -52.855469 77.851562 -50.96875 76.378906 -48.636719 L 76.320312 -48.546875 L 76.261719 -48.460938 C 76.511719 -48.824219 76.644531 -49.261719 76.660156 -49.777344 C 76.671875 -50.222656 76.597656 -50.59375 76.4375 -50.882812 C 78.800781 -46.539062 81.25 -42.175781 83.789062 -37.796875 C 86.375 -33.339844 88.785156 -29.070312 91.015625 -24.996094 C 93.347656 -20.738281 95.164062 -16.894531 96.46875 -13.457031 L 97.105469 -11.785156 L 96.621094 -10.066406 C 95.664062 -6.675781 93.820312 -3.59375 91.085938 -0.820312 C 88.53125 1.777344 85.515625 3.855469 82.050781 5.414062 C 78.476562 7.019531 74.738281 7.800781 70.835938 7.761719 C 66.726562 7.71875 62.816406 6.554688 59.109375 4.261719 C 55.410156 1.976562 52.304688 -1.597656 49.792969 -6.460938 C 48.765625 -8.519531 47.566406 -10.847656 46.207031 -13.445312 C 44.816406 -16.09375 42.996094 -19.640625 40.742188 -24.085938 L 45.5625 -26.53125 L 50.140625 -23.648438 C 49.082031 -21.972656 48.007812 -20.195312 46.917969 -18.328125 C 46.109375 -16.945312 45.667969 -16.046875 45.589844 -15.632812 C 45.464844 -14.960938 45.414062 -13.554688 45.441406 -11.414062 C 45.472656 -9.0625 45.609375 -6.613281 45.851562 -4.070312 L 46.121094 -1.253906 L 43.960938 0.570312 C 41.710938 2.472656 38.90625 3.917969 35.546875 4.902344 C 32.386719 5.828125 29.023438 6.25 25.453125 6.175781 C 21.832031 6.097656 18.359375 5.441406 15.03125 4.203125 C 11.441406 2.867188 8.390625 0.792969 5.871094 -2.015625 C 3.207031 -4.992188 1.578125 -8.730469 0.984375 -13.230469 C 0.585938 -16.007812 0.238281 -19.445312 -0.0585938 -23.542969 C -0.351562 -27.574219 -0.59375 -32.023438 -0.789062 -36.886719 C -0.984375 -41.734375 -1.128906 -46.738281 -1.226562 -51.902344 C -1.320312 -57.074219 -1.355469 -62.152344 -1.320312 -67.132812 C -1.289062 -72.121094 -1.191406 -76.761719 -1.03125 -81.046875 C -0.863281 -85.398438 -0.617188 -89.140625 -0.28125 -92.277344 L -0.113281 -93.847656 L 0.871094 -95.082031 C 2.996094 -97.738281 5.871094 -99.804688 9.496094 -101.277344 C 12.835938 -102.636719 16.425781 -103.394531 20.257812 -103.546875 C 24.152344 -103.703125 27.882812 -103.152344 31.449219 -101.898438 C 35.289062 -100.550781 38.488281 -98.363281 41.042969 -95.339844 C 43.773438 -92.109375 45.222656 -87.976562 45.390625 -82.949219 C 45.519531 -80.121094 45.601562 -77.851562 45.636719 -76.140625 C 45.667969 -74.4375 45.683594 -72.996094 45.683594 -71.804688 C 45.683594 -70.5625 45.648438 -69.253906 45.582031 -67.882812 C 45.519531 -66.636719 45.457031 -65.003906 45.394531 -62.984375 L 45.375 -62.40625 L 45.234375 -61.84375 C 45.320312 -62.195312 45.351562 -62.523438 45.320312 -62.828125 C 45.371094 -62.328125 45.394531 -61.699219 45.394531 -60.945312 L 39.988281 -60.945312 Z M 44.515625 -57.984375 L 34.582031 -42.792969 L 34.582031 -60.945312 C 34.582031 -61.339844 34.574219 -61.609375 34.558594 -61.75 C 34.464844 -62.695312 34.527344 -63.601562 34.742188 -64.464844 L 39.988281 -63.15625 L 34.585938 -63.324219 C 34.648438 -65.410156 34.714844 -67.109375 34.78125 -68.421875 C 34.839844 -69.613281 34.871094 -70.742188 34.871094 -71.804688 C 34.871094 -72.925781 34.855469 -74.300781 34.824219 -75.933594 C 34.792969 -77.550781 34.710938 -79.765625 34.585938 -82.582031 C 34.5 -85.113281 33.898438 -87.039062 32.78125 -88.359375 C 31.492188 -89.882812 29.851562 -90.996094 27.859375 -91.699219 C 25.597656 -92.496094 23.207031 -92.84375 20.691406 -92.742188 C 18.117188 -92.640625 15.746094 -92.144531 13.574219 -91.261719 C 11.6875 -90.496094 10.269531 -89.515625 9.316406 -88.328125 L 5.09375 -91.703125 L 10.472656 -91.132812 C 10.164062 -88.242188 9.933594 -84.746094 9.777344 -80.636719 C 9.617188 -76.464844 9.523438 -71.9375 9.492188 -67.0625 C 9.460938 -62.171875 9.492188 -57.1875 9.585938 -52.105469 C 9.683594 -47.015625 9.824219 -42.089844 10.015625 -37.320312 C 10.207031 -32.574219 10.445312 -28.242188 10.726562 -24.328125 C 11.007812 -20.476562 11.332031 -17.25 11.703125 -14.644531 C 12.007812 -12.351562 12.75 -10.546875 13.929688 -9.230469 C 15.257812 -7.746094 16.882812 -6.648438 18.804688 -5.933594 C 20.988281 -5.121094 23.28125 -4.6875 25.683594 -4.636719 C 28.140625 -4.585938 30.414062 -4.863281 32.511719 -5.476562 C 34.40625 -6.03125 35.894531 -6.769531 36.976562 -7.683594 L 40.46875 -3.558594 L 35.085938 -3.042969 C 34.816406 -5.882812 34.664062 -8.625 34.628906 -11.273438 C 34.59375 -14.132812 34.703125 -16.25 34.960938 -17.625 C 35.269531 -19.265625 36.140625 -21.316406 37.578125 -23.777344 C 38.730469 -25.75 39.867188 -27.628906 40.988281 -29.410156 L 46.070312 -37.484375 L 50.386719 -28.976562 C 52.617188 -24.578125 54.417969 -21.074219 55.785156 -18.46875 C 57.175781 -15.808594 58.382812 -13.460938 59.40625 -11.417969 C 60.996094 -8.335938 62.792969 -6.171875 64.796875 -4.9375 C 66.792969 -3.703125 68.84375 -3.074219 70.949219 -3.050781 C 73.265625 -3.027344 75.488281 -3.496094 77.617188 -4.453125 C 79.851562 -5.457031 81.773438 -6.773438 83.382812 -8.40625 C 84.816406 -9.863281 85.757812 -11.394531 86.210938 -13.003906 L 91.414062 -11.535156 L 86.363281 -9.613281 C 85.230469 -12.585938 83.621094 -15.980469 81.53125 -19.800781 C 79.339844 -23.800781 76.976562 -27.992188 74.433594 -32.375 C 71.847656 -36.839844 69.363281 -41.257812 66.984375 -45.628906 C 66.183594 -47.074219 65.804688 -48.5625 65.847656 -50.097656 C 65.894531 -51.703125 66.398438 -53.199219 67.351562 -54.585938 L 71.804688 -51.523438 L 67.234375 -54.410156 C 68.835938 -56.949219 70.234375 -59.035156 71.425781 -60.667969 C 72.539062 -62.195312 73.542969 -63.578125 74.429688 -64.820312 C 75.257812 -65.96875 76.132812 -67.292969 77.0625 -68.792969 C 77.949219 -70.222656 78.96875 -72.148438 80.121094 -74.570312 C 81.269531 -76.917969 81.753906 -79.019531 81.566406 -80.878906 C 81.375 -82.773438 80.746094 -84.441406 79.671875 -85.882812 C 78.441406 -87.542969 76.890625 -88.921875 75.019531 -90.027344 C 73.046875 -91.191406 70.917969 -92 68.632812 -92.457031 C 66.46875 -92.890625 64.375 -92.894531 62.339844 -92.46875 L 61.230469 -97.761719 L 65.730469 -94.761719 C 64.894531 -93.503906 63.941406 -91.960938 62.875 -90.132812 C 61.773438 -88.246094 60.640625 -86.246094 59.472656 -84.132812 L 56.054688 -77.96875 C 54.988281 -76.058594 54.078125 -74.378906 53.324219 -72.933594 C 52.074219 -70.558594 50.976562 -68.570312 50.042969 -66.96875 C 49.128906 -65.398438 48.261719 -63.941406 47.441406 -62.597656 C 46.609375 -61.238281 45.632812 -59.699219 44.515625 -57.984375 Z M 44.515625 -57.984375 "/></g></g></g></g><g fill="#93c4da" fill-opacity="1"><g transform="translate(0.982327, 105.071087)"><g><path d="M 86.421875 -95.9375 C 87.441406 -94.582031 88.285156 -92.65625 88.953125 -90.15625 C 89.628906 -87.664062 89.9375 -84.960938 89.875 -82.046875 C 89.8125 -79.128906 89.203125 -76.320312 88.046875 -73.625 C 86.890625 -70.9375 85.046875 -68.660156 82.515625 -66.796875 C 79.984375 -64.941406 76.570312 -63.890625 72.28125 -63.640625 C 70.613281 -63.566406 69.21875 -63.484375 68.09375 -63.390625 C 66.976562 -63.296875 66.289062 -63.25 66.03125 -63.25 C 66.164062 -59.65625 66.25 -55.710938 66.28125 -51.421875 C 66.3125 -47.128906 66.296875 -42.707031 66.234375 -38.15625 C 66.171875 -33.613281 66.039062 -29.175781 65.84375 -24.84375 C 65.65625 -20.519531 65.429688 -16.484375 65.171875 -12.734375 C 64.910156 -8.984375 64.59375 -5.796875 64.21875 -3.171875 C 62.613281 -1.378906 60.578125 -0.0976562 58.109375 0.671875 C 55.640625 1.441406 53.007812 1.648438 50.21875 1.296875 C 47.4375 0.941406 44.726562 -0.0507812 42.09375 -1.6875 C 39.46875 -3.320312 37.144531 -5.613281 35.125 -8.5625 C 33.113281 -11.507812 31.691406 -15.222656 30.859375 -19.703125 C 30.597656 -21.046875 30.367188 -23.207031 30.171875 -26.1875 C 29.984375 -29.164062 29.8125 -32.65625 29.65625 -36.65625 C 29.5 -40.664062 29.382812 -44.960938 29.3125 -49.546875 C 29.25 -54.128906 29.25 -58.726562 29.3125 -63.34375 C 26.113281 -63.09375 22.816406 -62.984375 19.421875 -63.015625 C 16.023438 -63.046875 12.753906 -63.378906 9.609375 -64.015625 C 8.390625 -65.617188 7.492188 -67.6875 6.921875 -70.21875 C 6.347656 -72.75 6.1875 -75.421875 6.4375 -78.234375 C 6.695312 -81.054688 7.4375 -83.75 8.65625 -86.3125 C 9.875 -88.882812 11.664062 -91.019531 14.03125 -92.71875 C 16.40625 -94.414062 19.414062 -95.390625 23.0625 -95.640625 C 25.113281 -95.773438 27.820312 -95.875 31.1875 -95.9375 C 34.550781 -96 38.300781 -96.03125 42.4375 -96.03125 C 46.570312 -96.03125 50.816406 -96.03125 55.171875 -96.03125 C 59.535156 -96.03125 63.75 -96.015625 67.8125 -95.984375 C 71.882812 -95.953125 75.550781 -95.9375 78.8125 -95.9375 C 82.082031 -95.9375 84.617188 -95.9375 86.421875 -95.9375 Z M 86.421875 -95.9375 "/></g></g></g><g fill="#93c4da" fill-opacity="1"><g transform="translate(95.472407, 105.071087)"><g><path d="M 40.28125 -62.859375 C 43.476562 -62.859375 46.582031 -62.859375 49.59375 -62.859375 C 52.613281 -62.859375 55.660156 -62.859375 58.734375 -62.859375 C 58.859375 -66.453125 58.9375 -70.1875 58.96875 -74.0625 C 59 -77.9375 59.0625 -81.492188 59.15625 -84.734375 C 59.257812 -87.972656 59.4375 -90.457031 59.6875 -92.1875 C 62.0625 -94.039062 64.785156 -95.300781 67.859375 -95.96875 C 70.941406 -96.644531 74.050781 -96.742188 77.1875 -96.265625 C 80.320312 -95.785156 83.234375 -94.742188 85.921875 -93.140625 C 88.617188 -91.535156 90.800781 -89.40625 92.46875 -86.75 C 94.132812 -84.09375 94.96875 -80.9375 94.96875 -77.28125 C 94.96875 -75.363281 94.96875 -72.6875 94.96875 -69.25 C 94.96875 -65.820312 94.96875 -61.878906 94.96875 -57.421875 C 94.96875 -52.972656 94.96875 -48.21875 94.96875 -43.15625 C 94.96875 -38.09375 94.953125 -32.945312 94.921875 -27.71875 C 94.890625 -22.5 94.875 -17.457031 94.875 -12.59375 C 94.875 -10.925781 94.859375 -9.082031 94.828125 -7.0625 C 94.796875 -5.039062 94.71875 -3.488281 94.59375 -2.40625 C 93.882812 -1.632812 92.582031 -0.910156 90.6875 -0.234375 C 88.800781 0.429688 86.59375 0.910156 84.0625 1.203125 C 81.53125 1.492188 78.914062 1.539062 76.21875 1.34375 C 73.53125 1.15625 70.96875 0.582031 68.53125 -0.375 C 66.101562 -1.34375 64.070312 -2.738281 62.4375 -4.5625 C 60.800781 -6.394531 59.789062 -8.75 59.40625 -11.625 C 59.207031 -12.90625 59.0625 -14.457031 58.96875 -16.28125 C 58.875 -18.113281 58.796875 -20.039062 58.734375 -22.0625 C 58.671875 -24.082031 58.625 -25.957031 58.59375 -27.6875 C 58.5625 -29.414062 58.546875 -30.789062 58.546875 -31.8125 C 55.460938 -31.8125 52.492188 -31.8125 49.640625 -31.8125 C 46.796875 -31.8125 43.769531 -31.8125 40.5625 -31.8125 C 40.5625 -27.132812 40.5625 -22.296875 40.5625 -17.296875 C 40.5625 -12.304688 40.5625 -7.3125 40.5625 -2.3125 C 39.664062 -1.539062 38.222656 -0.785156 36.234375 -0.046875 C 34.253906 0.691406 31.960938 1.21875 29.359375 1.53125 C 26.765625 1.851562 24.101562 1.867188 21.375 1.578125 C 18.65625 1.296875 16.09375 0.53125 13.6875 -0.71875 C 11.289062 -1.96875 9.289062 -3.828125 7.6875 -6.296875 C 6.082031 -8.765625 5.15625 -11.953125 4.90625 -15.859375 C 4.769531 -17.648438 4.640625 -20.304688 4.515625 -23.828125 C 4.390625 -27.359375 4.257812 -31.429688 4.125 -36.046875 C 4 -40.660156 3.890625 -45.546875 3.796875 -50.703125 C 3.703125 -55.859375 3.65625 -60.9375 3.65625 -65.9375 C 3.65625 -70.9375 3.6875 -75.597656 3.75 -79.921875 C 3.8125 -84.253906 3.941406 -87.859375 4.140625 -90.734375 C 6.703125 -92.847656 9.519531 -94.351562 12.59375 -95.25 C 15.664062 -96.15625 18.753906 -96.492188 21.859375 -96.265625 C 24.972656 -96.046875 27.84375 -95.3125 30.46875 -94.0625 C 33.09375 -92.8125 35.269531 -91.128906 37 -89.015625 C 38.738281 -86.898438 39.734375 -84.367188 39.984375 -81.421875 C 40.304688 -78.597656 40.46875 -75.820312 40.46875 -73.09375 C 40.46875 -70.375 40.4375 -68.066406 40.375 -66.171875 C 40.3125 -64.285156 40.28125 -63.179688 40.28125 -62.859375 Z M 40.28125 -62.859375 "/></g></g></g><g fill="#93c4da" fill-opacity="1"><g transform="translate(194.864819, 105.071087)"><g><path d="M 39.5 -77.28125 C 39.820312 -75.363281 40.0625 -72.59375 40.21875 -68.96875 C 40.382812 -65.34375 40.484375 -61.191406 40.515625 -56.515625 C 40.546875 -51.835938 40.53125 -46.96875 40.46875 -41.90625 C 40.40625 -36.84375 40.273438 -31.84375 40.078125 -26.90625 C 39.890625 -21.976562 39.664062 -17.445312 39.40625 -13.3125 C 39.15625 -9.175781 38.835938 -5.765625 38.453125 -3.078125 C 36.847656 -1.347656 34.8125 -0.0976562 32.34375 0.671875 C 29.875 1.441406 27.242188 1.648438 24.453125 1.296875 C 21.671875 0.941406 18.96875 -0.015625 16.34375 -1.578125 C 13.71875 -3.148438 11.394531 -5.394531 9.375 -8.3125 C 7.351562 -11.226562 5.925781 -14.832031 5.09375 -19.125 C 4.832031 -20.34375 4.609375 -22.378906 4.421875 -25.234375 C 4.234375 -28.085938 4.054688 -31.453125 3.890625 -35.328125 C 3.734375 -39.203125 3.617188 -43.378906 3.546875 -47.859375 C 3.484375 -52.347656 3.46875 -56.851562 3.5 -61.375 C 3.539062 -65.894531 3.625 -70.203125 3.75 -74.296875 C 3.875 -78.398438 4.082031 -82.035156 4.375 -85.203125 C 4.664062 -88.378906 5.035156 -90.800781 5.484375 -92.46875 C 7.273438 -94.070312 9.46875 -95.289062 12.0625 -96.125 C 14.65625 -96.957031 17.394531 -97.304688 20.28125 -97.171875 C 23.164062 -97.046875 25.9375 -96.28125 28.59375 -94.875 C 31.257812 -93.46875 33.566406 -91.335938 35.515625 -88.484375 C 37.472656 -85.628906 38.800781 -81.894531 39.5 -77.28125 Z M 39.5 -77.28125 "/></g></g></g><g fill="#93c4da" fill-opacity="1"><g transform="translate(240.81218, 105.071087)"><g><path d="M 70.171875 -54.125 C 75.046875 -51.101562 78.648438 -47.609375 80.984375 -43.640625 C 83.328125 -39.671875 84.59375 -35.535156 84.78125 -31.234375 C 84.976562 -26.941406 84.335938 -22.804688 82.859375 -18.828125 C 81.390625 -14.859375 79.257812 -11.351562 76.46875 -8.3125 C 73.675781 -5.269531 70.488281 -3.007812 66.90625 -1.53125 C 64.34375 -0.507812 61.203125 0.347656 57.484375 1.046875 C 53.765625 1.753906 49.722656 2.1875 45.359375 2.34375 C 41.003906 2.507812 36.535156 2.285156 31.953125 1.671875 C 27.378906 1.066406 22.957031 -0.03125 18.6875 -1.625 C 14.425781 -3.226562 10.566406 -5.441406 7.109375 -8.265625 C 5.253906 -10.640625 4.148438 -13.203125 3.796875 -15.953125 C 3.441406 -18.710938 3.710938 -21.359375 4.609375 -23.890625 C 5.503906 -26.421875 6.894531 -28.566406 8.78125 -30.328125 C 10.675781 -32.085938 12.9375 -33.175781 15.5625 -33.59375 C 18.195312 -34.007812 21.082031 -33.445312 24.21875 -31.90625 C 28.769531 -29.664062 33.0625 -28.144531 37.09375 -27.34375 C 41.132812 -26.539062 44.5 -26.441406 47.1875 -27.046875 C 49.882812 -27.660156 51.488281 -28.929688 52 -30.859375 C 52.507812 -32.773438 52.09375 -34.375 50.75 -35.65625 C 49.40625 -36.9375 46.941406 -37.707031 43.359375 -37.96875 C 39.441406 -38.289062 35.53125 -38.960938 31.625 -39.984375 C 27.71875 -41.015625 24.066406 -42.503906 20.671875 -44.453125 C 17.273438 -46.410156 14.40625 -48.972656 12.0625 -52.140625 C 9.726562 -55.316406 8.175781 -59.148438 7.40625 -63.640625 C 7.144531 -65.234375 7.125 -67.203125 7.34375 -69.546875 C 7.570312 -71.890625 8.148438 -74.375 9.078125 -77 C 10.015625 -79.625 11.425781 -82.21875 13.3125 -84.78125 C 15.207031 -87.34375 17.722656 -89.679688 20.859375 -91.796875 C 23.992188 -93.910156 27.867188 -95.578125 32.484375 -96.796875 C 35.691406 -97.691406 39.085938 -98.25 42.671875 -98.46875 C 46.265625 -98.695312 49.835938 -98.648438 53.390625 -98.328125 C 56.953125 -98.015625 60.269531 -97.40625 63.34375 -96.5 C 66.414062 -95.601562 68.976562 -94.484375 71.03125 -93.140625 C 74.363281 -90.898438 76.765625 -88.515625 78.234375 -85.984375 C 79.710938 -83.453125 80.4375 -80.953125 80.40625 -78.484375 C 80.375 -76.015625 79.78125 -73.707031 78.625 -71.5625 C 77.476562 -69.414062 75.972656 -67.585938 74.109375 -66.078125 C 72.253906 -64.578125 70.203125 -63.570312 67.953125 -63.0625 C 66.546875 -64.789062 64.609375 -66.28125 62.140625 -67.53125 C 59.671875 -68.78125 57.007812 -69.738281 54.15625 -70.40625 C 51.3125 -71.082031 48.609375 -71.40625 46.046875 -71.375 C 43.484375 -71.34375 41.382812 -70.925781 39.75 -70.125 C 38.113281 -69.320312 37.265625 -68.085938 37.203125 -66.421875 C 37.203125 -65.398438 37.648438 -64.550781 38.546875 -63.875 C 39.441406 -63.195312 41.109375 -62.703125 43.546875 -62.390625 C 50.597656 -61.492188 56.363281 -60.160156 60.84375 -58.390625 C 65.332031 -56.628906 68.441406 -55.207031 70.171875 -54.125 Z M 70.171875 -54.125 "/></g></g></g><g fill="#93c4da" fill-opacity="1"><g transform="translate(331.361171, 105.071087)"><g/></g></g><g fill="#93c4da" fill-opacity="1"><g transform="translate(379.807754, 105.071087)"><g><path d="M 110.640625 -93.34375 C 113.773438 -94.875 117.023438 -95.925781 120.390625 -96.5 C 123.753906 -97.082031 126.957031 -97.117188 130 -96.609375 C 133.050781 -96.097656 135.742188 -94.988281 138.078125 -93.28125 C 140.421875 -91.582031 142.164062 -89.257812 143.3125 -86.3125 C 144.46875 -83.363281 144.789062 -79.742188 144.28125 -75.453125 C 143.957031 -72.765625 143.425781 -69.429688 142.6875 -65.453125 C 141.957031 -61.484375 141.09375 -57.191406 140.09375 -52.578125 C 139.101562 -47.960938 138.03125 -43.234375 136.875 -38.390625 C 135.726562 -33.554688 134.5625 -28.847656 133.375 -24.265625 C 132.1875 -19.691406 131.046875 -15.515625 129.953125 -11.734375 C 128.867188 -7.953125 127.878906 -4.8125 126.984375 -2.3125 C 124.804688 -1.601562 122.222656 -0.816406 119.234375 0.046875 C 116.253906 0.910156 113.066406 1.613281 109.671875 2.15625 C 106.273438 2.707031 102.847656 2.882812 99.390625 2.6875 C 95.929688 2.5 92.644531 1.75 89.53125 0.4375 C 86.425781 -0.875 83.671875 -3.003906 81.265625 -5.953125 C 78.867188 -8.898438 77 -12.875 75.65625 -17.875 C 74.882812 -20.757812 74.289062 -23.453125 73.875 -25.953125 C 73.457031 -28.453125 73.101562 -31.160156 72.8125 -34.078125 C 72.519531 -36.992188 72.148438 -40.503906 71.703125 -44.609375 C 71.453125 -44.609375 71.242188 -44.609375 71.078125 -44.609375 C 70.921875 -44.609375 70.75 -44.609375 70.5625 -44.609375 C 69.851562 -38.835938 69.050781 -32.3125 68.15625 -25.03125 C 67.257812 -17.757812 66.328125 -10.503906 65.359375 -3.265625 C 63.179688 -2.554688 60.632812 -1.785156 57.71875 -0.953125 C 54.800781 -0.128906 51.675781 0.550781 48.34375 1.09375 C 45.019531 1.644531 41.65625 1.851562 38.25 1.71875 C 34.851562 1.59375 31.550781 0.972656 28.34375 -0.140625 C 25.144531 -1.265625 22.234375 -3.109375 19.609375 -5.671875 C 16.984375 -8.234375 14.773438 -11.691406 12.984375 -16.046875 C 11.953125 -18.546875 11.050781 -21.8125 10.28125 -25.84375 C 9.507812 -29.882812 8.800781 -34.40625 8.15625 -39.40625 C 7.519531 -44.40625 6.914062 -49.644531 6.34375 -55.125 C 5.769531 -60.601562 5.222656 -66.050781 4.703125 -71.46875 C 4.191406 -76.882812 3.648438 -81.992188 3.078125 -86.796875 C 3.648438 -88.785156 4.863281 -90.5625 6.71875 -92.125 C 8.582031 -93.695312 10.78125 -94.945312 13.3125 -95.875 C 15.84375 -96.8125 18.484375 -97.3125 21.234375 -97.375 C 23.992188 -97.4375 26.625 -97.003906 29.125 -96.078125 C 31.625 -95.148438 33.722656 -93.59375 35.421875 -91.40625 C 37.117188 -89.226562 38.160156 -86.347656 38.546875 -82.765625 C 39.765625 -71.742188 40.421875 -62.035156 40.515625 -53.640625 C 40.609375 -45.242188 40.976562 -38.320312 41.625 -32.875 C 41.75 -32.875 41.890625 -32.875 42.046875 -32.875 C 42.210938 -32.875 42.390625 -32.875 42.578125 -32.875 C 43.472656 -36.59375 44.367188 -40.304688 45.265625 -44.015625 C 46.171875 -47.734375 47.070312 -51.519531 47.96875 -55.375 C 48.800781 -58.695312 49.742188 -62.34375 50.796875 -66.3125 C 51.859375 -70.289062 52.898438 -74.203125 53.921875 -78.046875 C 54.953125 -81.898438 55.882812 -85.300781 56.71875 -88.25 C 57.550781 -91.195312 58.125 -93.273438 58.4375 -94.484375 C 59.914062 -95.003906 61.742188 -95.519531 63.921875 -96.03125 C 66.097656 -96.539062 68.421875 -96.859375 70.890625 -96.984375 C 73.359375 -97.117188 75.742188 -96.910156 78.046875 -96.359375 C 80.359375 -95.816406 82.425781 -94.773438 84.25 -93.234375 C 86.082031 -91.703125 87.445312 -89.460938 88.34375 -86.515625 C 90.769531 -78.753906 93.15625 -70.257812 95.5 -61.03125 C 97.84375 -51.8125 100.359375 -42.234375 103.046875 -32.296875 C 103.234375 -32.359375 103.519531 -32.390625 103.90625 -32.390625 C 104.425781 -35.335938 104.957031 -38.894531 105.5 -43.0625 C 106.039062 -47.226562 106.566406 -51.664062 107.078125 -56.375 C 107.597656 -61.082031 108.097656 -65.757812 108.578125 -70.40625 C 109.054688 -75.050781 109.46875 -79.359375 109.8125 -83.328125 C 110.164062 -87.304688 110.441406 -90.644531 110.640625 -93.34375 Z M 110.640625 -93.34375 "/></g></g></g><g fill="#93c4da" fill-opacity="1"><g transform="translate(526.49326, 105.071087)"><g><path d="M 5.28125 -22.203125 C 5.15625 -24.378906 5.0625 -27.3125 5 -31 C 4.9375 -34.6875 4.90625 -38.816406 4.90625 -43.390625 C 4.90625 -47.972656 4.953125 -52.71875 5.046875 -57.625 C 5.140625 -62.53125 5.265625 -67.351562 5.421875 -72.09375 C 5.585938 -76.832031 5.78125 -81.21875 6 -85.25 C 6.226562 -89.289062 6.503906 -92.660156 6.828125 -95.359375 C 10.023438 -95.679688 13.914062 -95.921875 18.5 -96.078125 C 23.082031 -96.234375 28 -96.34375 33.25 -96.40625 C 38.507812 -96.476562 43.78125 -96.460938 49.0625 -96.359375 C 54.351562 -96.265625 59.351562 -96.117188 64.0625 -95.921875 C 68.769531 -95.734375 72.828125 -95.515625 76.234375 -95.265625 C 76.804688 -94.429688 77.316406 -93.144531 77.765625 -91.40625 C 78.210938 -89.675781 78.453125 -87.722656 78.484375 -85.546875 C 78.515625 -83.367188 78.238281 -81.15625 77.65625 -78.90625 C 77.082031 -76.664062 76.078125 -74.582031 74.640625 -72.65625 C 73.203125 -70.738281 71.21875 -69.203125 68.6875 -68.046875 C 66.15625 -66.898438 62.960938 -66.328125 59.109375 -66.328125 C 57.828125 -66.328125 56.640625 -66.328125 55.546875 -66.328125 C 54.460938 -66.328125 53.25 -66.328125 51.90625 -66.328125 C 50.5625 -66.328125 48.894531 -66.328125 46.90625 -66.328125 C 44.914062 -66.328125 42.382812 -66.328125 39.3125 -66.328125 C 39.3125 -65.554688 39.3125 -64.769531 39.3125 -63.96875 C 39.3125 -63.164062 39.3125 -62.285156 39.3125 -61.328125 C 40.726562 -61.328125 42.664062 -61.359375 45.125 -61.421875 C 47.59375 -61.484375 50.269531 -61.515625 53.15625 -61.515625 C 56.039062 -61.515625 58.875 -61.382812 61.65625 -61.125 C 64.445312 -60.875 66.867188 -60.429688 68.921875 -59.796875 C 70.847656 -55.566406 71.648438 -51.625 71.328125 -47.96875 C 71.003906 -44.3125 69.578125 -41.328125 67.046875 -39.015625 C 64.515625 -36.710938 60.878906 -35.4375 56.140625 -35.1875 C 54.535156 -35.113281 53.023438 -35.078125 51.609375 -35.078125 C 50.203125 -35.078125 48.566406 -35.09375 46.703125 -35.125 C 44.847656 -35.164062 42.414062 -35.1875 39.40625 -35.1875 C 39.40625 -34.15625 39.40625 -33.175781 39.40625 -32.25 C 39.40625 -31.320312 39.40625 -30.34375 39.40625 -29.3125 C 39.726562 -29.3125 40.082031 -29.3125 40.46875 -29.3125 C 40.851562 -29.3125 41.238281 -29.3125 41.625 -29.3125 C 46.75 -29.3125 51.890625 -29.3125 57.046875 -29.3125 C 62.203125 -29.3125 67.347656 -29.3125 72.484375 -29.3125 C 74.335938 -26.75 75.519531 -23.914062 76.03125 -20.8125 C 76.539062 -17.707031 76.316406 -14.679688 75.359375 -11.734375 C 74.398438 -8.785156 72.570312 -6.234375 69.875 -4.078125 C 67.1875 -1.929688 63.566406 -0.570312 59.015625 0 C 57.421875 0.1875 55.257812 0.359375 52.53125 0.515625 C 49.8125 0.679688 46.816406 0.78125 43.546875 0.8125 C 40.273438 0.84375 37.019531 0.828125 33.78125 0.765625 C 30.550781 0.703125 27.632812 0.570312 25.03125 0.375 C 22.4375 0.1875 20.4375 -0.0664062 19.03125 -0.390625 C 14.539062 -1.535156 11.222656 -3.820312 9.078125 -7.25 C 6.929688 -10.6875 5.664062 -15.671875 5.28125 -22.203125 Z M 5.28125 -22.203125 "/></g></g></g><g fill="#93c4da" fill-opacity="1"><g transform="translate(607.429864, 105.071087)"><g><path d="M 5.28125 -22.203125 C 5.15625 -24.378906 5.0625 -27.3125 5 -31 C 4.9375 -34.6875 4.90625 -38.816406 4.90625 -43.390625 C 4.90625 -47.972656 4.953125 -52.71875 5.046875 -57.625 C 5.140625 -62.53125 5.265625 -67.351562 5.421875 -72.09375 C 5.585938 -76.832031 5.78125 -81.21875 6 -85.25 C 6.226562 -89.289062 6.503906 -92.660156 6.828125 -95.359375 C 10.023438 -95.679688 13.914062 -95.921875 18.5 -96.078125 C 23.082031 -96.234375 28 -96.34375 33.25 -96.40625 C 38.507812 -96.476562 43.78125 -96.460938 49.0625 -96.359375 C 54.351562 -96.265625 59.351562 -96.117188 64.0625 -95.921875 C 68.769531 -95.734375 72.828125 -95.515625 76.234375 -95.265625 C 76.804688 -94.429688 77.316406 -93.144531 77.765625 -91.40625 C 78.210938 -89.675781 78.453125 -87.722656 78.484375 -85.546875 C 78.515625 -83.367188 78.238281 -81.15625 77.65625 -78.90625 C 77.082031 -76.664062 76.078125 -74.582031 74.640625 -72.65625 C 73.203125 -70.738281 71.21875 -69.203125 68.6875 -68.046875 C 66.15625 -66.898438 62.960938 -66.328125 59.109375 -66.328125 C 57.828125 -66.328125 56.640625 -66.328125 55.546875 -66.328125 C 54.460938 -66.328125 53.25 -66.328125 51.90625 -66.328125 C 50.5625 -66.328125 48.894531 -66.328125 46.90625 -66.328125 C 44.914062 -66.328125 42.382812 -66.328125 39.3125 -66.328125 C 39.3125 -65.554688 39.3125 -64.769531 39.3125 -63.96875 C 39.3125 -63.164062 39.3125 -62.285156 39.3125 -61.328125 C 40.726562 -61.328125 42.664062 -61.359375 45.125 -61.421875 C 47.59375 -61.484375 50.269531 -61.515625 53.15625 -61.515625 C 56.039062 -61.515625 58.875 -61.382812 61.65625 -61.125 C 64.445312 -60.875 66.867188 -60.429688 68.921875 -59.796875 C 70.847656 -55.566406 71.648438 -51.625 71.328125 -47.96875 C 71.003906 -44.3125 69.578125 -41.328125 67.046875 -39.015625 C 64.515625 -36.710938 60.878906 -35.4375 56.140625 -35.1875 C 54.535156 -35.113281 53.023438 -35.078125 51.609375 -35.078125 C 50.203125 -35.078125 48.566406 -35.09375 46.703125 -35.125 C 44.847656 -35.164062 42.414062 -35.1875 39.40625 -35.1875 C 39.40625 -34.15625 39.40625 -33.175781 39.40625 -32.25 C 39.40625 -31.320312 39.40625 -30.34375 39.40625 -29.3125 C 39.726562 -29.3125 40.082031 -29.3125 40.46875 -29.3125 C 40.851562 -29.3125 41.238281 -29.3125 41.625 -29.3125 C 46.75 -29.3125 51.890625 -29.3125 57.046875 -29.3125 C 62.203125 -29.3125 67.347656 -29.3125 72.484375 -29.3125 C 74.335938 -26.75 75.519531 -23.914062 76.03125 -20.8125 C 76.539062 -17.707031 76.316406 -14.679688 75.359375 -11.734375 C 74.398438 -8.785156 72.570312 -6.234375 69.875 -4.078125 C 67.1875 -1.929688 63.566406 -0.570312 59.015625 0 C 57.421875 0.1875 55.257812 0.359375 52.53125 0.515625 C 49.8125 0.679688 46.816406 0.78125 43.546875 0.8125 C 40.273438 0.84375 37.019531 0.828125 33.78125 0.765625 C 30.550781 0.703125 27.632812 0.570312 25.03125 0.375 C 22.4375 0.1875 20.4375 -0.0664062 19.03125 -0.390625 C 14.539062 -1.535156 11.222656 -3.820312 9.078125 -7.25 C 6.929688 -10.6875 5.664062 -15.671875 5.28125 -22.203125 Z M 5.28125 -22.203125 "/></g></g></g><g fill="#93c4da" fill-opacity="1"><g transform="translate(688.366419, 105.071087)"><g><path d="M 39.984375 -60.9375 C 41.078125 -62.601562 42.023438 -64.09375 42.828125 -65.40625 C 43.628906 -66.726562 44.476562 -68.15625 45.375 -69.6875 C 46.269531 -71.226562 47.328125 -73.148438 48.546875 -75.453125 C 49.316406 -76.929688 50.242188 -78.644531 51.328125 -80.59375 C 52.421875 -82.550781 53.554688 -84.601562 54.734375 -86.75 C 55.921875 -88.894531 57.078125 -90.925781 58.203125 -92.84375 C 59.328125 -94.769531 60.335938 -96.410156 61.234375 -97.765625 C 63.984375 -98.335938 66.800781 -98.332031 69.6875 -97.75 C 72.570312 -97.175781 75.265625 -96.148438 77.765625 -94.671875 C 80.265625 -93.203125 82.347656 -91.347656 84.015625 -89.109375 C 85.679688 -86.867188 86.65625 -84.304688 86.9375 -81.421875 C 87.226562 -78.535156 86.570312 -75.457031 84.96875 -72.1875 C 83.75 -69.625 82.644531 -67.539062 81.65625 -65.9375 C 80.664062 -64.332031 79.722656 -62.90625 78.828125 -61.65625 C 77.929688 -60.414062 76.921875 -59.023438 75.796875 -57.484375 C 74.671875 -55.941406 73.34375 -53.953125 71.8125 -51.515625 C 71.101562 -50.492188 71.066406 -49.40625 71.703125 -48.25 C 74.078125 -43.894531 76.546875 -39.503906 79.109375 -35.078125 C 81.671875 -30.660156 84.054688 -26.429688 86.265625 -22.390625 C 88.484375 -18.359375 90.203125 -14.738281 91.421875 -11.53125 C 90.710938 -9.03125 89.316406 -6.722656 87.234375 -4.609375 C 85.148438 -2.492188 82.679688 -0.796875 79.828125 0.484375 C 76.972656 1.765625 73.992188 2.390625 70.890625 2.359375 C 67.785156 2.328125 64.804688 1.429688 61.953125 -0.328125 C 59.097656 -2.097656 56.644531 -4.96875 54.59375 -8.9375 C 53.570312 -10.988281 52.367188 -13.328125 50.984375 -15.953125 C 49.609375 -18.578125 47.800781 -22.101562 45.5625 -26.53125 C 44.46875 -24.800781 43.359375 -22.972656 42.234375 -21.046875 C 41.117188 -19.128906 40.46875 -17.65625 40.28125 -16.625 C 40.082031 -15.601562 40 -13.84375 40.03125 -11.34375 C 40.0625 -8.84375 40.207031 -6.25 40.46875 -3.5625 C 38.800781 -2.144531 36.65625 -1.050781 34.03125 -0.28125 C 31.40625 0.476562 28.582031 0.828125 25.5625 0.765625 C 22.550781 0.703125 19.664062 0.160156 16.90625 -0.859375 C 14.15625 -1.890625 11.816406 -3.476562 9.890625 -5.625 C 7.972656 -7.769531 6.789062 -10.539062 6.34375 -13.9375 C 5.957031 -16.625 5.617188 -19.953125 5.328125 -23.921875 C 5.046875 -27.898438 4.804688 -32.289062 4.609375 -37.09375 C 4.421875 -41.90625 4.273438 -46.875 4.171875 -52 C 4.078125 -57.125 4.046875 -62.15625 4.078125 -67.09375 C 4.117188 -72.03125 4.21875 -76.613281 4.375 -80.84375 C 4.53125 -85.070312 4.769531 -88.691406 5.09375 -91.703125 C 6.632812 -93.628906 8.78125 -95.148438 11.53125 -96.265625 C 14.289062 -97.390625 17.269531 -98.015625 20.46875 -98.140625 C 23.675781 -98.265625 26.738281 -97.816406 29.65625 -96.796875 C 32.570312 -95.773438 34.988281 -94.125 36.90625 -91.84375 C 38.832031 -89.570312 39.859375 -86.546875 39.984375 -82.765625 C 40.117188 -79.941406 40.203125 -77.695312 40.234375 -76.03125 C 40.265625 -74.363281 40.28125 -72.953125 40.28125 -71.796875 C 40.28125 -70.648438 40.242188 -69.4375 40.171875 -68.15625 C 40.109375 -66.875 40.046875 -65.207031 39.984375 -63.15625 C 39.921875 -62.894531 39.90625 -62.601562 39.9375 -62.28125 C 39.96875 -61.96875 39.984375 -61.519531 39.984375 -60.9375 Z M 39.984375 -60.9375 "/></g></g></g></g></g></svg>