<svg xmlns="http://www.w3.org/2000/svg" xmlns:xlink="http://www.w3.org/1999/xlink" width="1200" zoomAndPan="magnify" viewBox="0 0 900 119.999999" height="160" preserveAspectRatio="xMidYMid meet" version="1.0"><defs><g/><clipPath id="5f79802a49"><rect x="0" width="897" y="0" height="105"/></clipPath></defs><g transform="matrix(1, 0, 0, 1, 1, 13)"><g clip-path="url(#5f79802a49)"><g fill="#58675e" fill-opacity="1"><g transform="translate(3.68622, 85.361201)"><g><path d="M 51.40625 4.078125 C 48.625 4.234375 45.808594 4.328125 42.953125 4.351562 C 40.125 4.378906 37.507812 4.367188 35.113281 4.3125 C 32.742188 4.261719 30.828125 4.210938 29.375 4.160156 L 27.230469 4.082031 L 27.382812 -0.230469 L 27.382812 4.085938 C 25.1875 4.085938 22.804688 3.90625 20.226562 3.542969 C 17.382812 3.148438 14.625 2.28125 11.953125 0.945312 C 9.09375 -0.484375 6.628906 -2.585938 4.558594 -5.355469 C 2.464844 -8.160156 1.082031 -11.785156 0.414062 -16.230469 C 0.0898438 -18.492188 -0.203125 -21.304688 -0.464844 -24.667969 C -0.726562 -28.007812 -0.921875 -31.691406 -1.050781 -35.71875 C -1.183594 -39.746094 -1.222656 -43.9375 -1.167969 -48.296875 C -1.117188 -52.671875 -0.949219 -57.019531 -0.660156 -61.339844 C -0.371094 -65.722656 0.0898438 -69.871094 0.726562 -73.789062 L 0.972656 -75.296875 L 2.113281 -76.316406 C 3.992188 -77.992188 6.261719 -79.269531 8.929688 -80.148438 C 11.523438 -81.003906 14.261719 -81.367188 17.140625 -81.242188 C 20.132812 -81.113281 22.988281 -80.335938 25.703125 -78.914062 C 28.5 -77.449219 30.871094 -75.257812 32.8125 -72.347656 C 34.738281 -69.460938 35.945312 -65.773438 36.429688 -61.289062 C 36.695312 -58.941406 36.882812 -56.242188 36.988281 -53.191406 C 37.089844 -50.222656 37.167969 -47.140625 37.21875 -43.945312 C 37.269531 -40.738281 37.285156 -37.621094 37.257812 -34.59375 C 37.234375 -31.554688 37.167969 -28.808594 37.0625 -26.355469 L 32.753906 -26.539062 L 32.371094 -30.835938 C 34.222656 -31 36.457031 -31.09375 39.074219 -31.121094 C 41.621094 -31.148438 44.359375 -31.136719 47.285156 -31.082031 C 50.25 -31.03125 53.25 -30.898438 56.289062 -30.691406 C 59.320312 -30.480469 62.21875 -30.21875 64.992188 -29.90625 L 67.261719 -29.648438 L 68.324219 -27.628906 C 70.226562 -24.011719 71.082031 -20.351562 70.886719 -16.648438 C 70.695312 -13.035156 69.710938 -9.703125 67.925781 -6.648438 C 66.167969 -3.632812 63.886719 -1.164062 61.078125 0.757812 C 58.140625 2.773438 54.917969 3.878906 51.40625 4.078125 Z M 50.917969 -4.539062 C 52.824219 -4.644531 54.585938 -5.253906 56.199219 -6.359375 C 57.941406 -7.554688 59.367188 -9.097656 60.472656 -10.996094 C 61.554688 -12.847656 62.152344 -14.882812 62.269531 -17.101562 C 62.382812 -19.226562 61.855469 -21.394531 60.6875 -23.609375 L 64.507812 -25.617188 L 64.023438 -21.332031 C 61.375 -21.632812 58.597656 -21.882812 55.695312 -22.082031 C 52.804688 -22.28125 49.949219 -22.40625 47.132812 -22.457031 C 44.285156 -22.503906 41.628906 -22.519531 39.164062 -22.492188 C 36.769531 -22.46875 34.757812 -22.382812 33.132812 -22.242188 L 28.230469 -21.808594 L 28.441406 -26.722656 C 28.542969 -29.078125 28.605469 -31.726562 28.628906 -34.667969 C 28.65625 -37.625 28.640625 -40.667969 28.589844 -43.804688 C 28.539062 -46.949219 28.464844 -49.976562 28.363281 -52.890625 C 28.265625 -55.71875 28.09375 -58.207031 27.847656 -60.363281 C 27.515625 -63.445312 26.777344 -65.84375 25.632812 -67.558594 C 24.507812 -69.25 23.195312 -70.484375 21.699219 -71.269531 C 20.121094 -72.097656 18.476562 -72.546875 16.765625 -72.621094 C 14.9375 -72.703125 13.226562 -72.476562 11.628906 -71.953125 C 10.101562 -71.449219 8.84375 -70.757812 7.859375 -69.878906 L 4.984375 -73.097656 L 9.246094 -72.40625 C 8.652344 -68.757812 8.222656 -64.878906 7.949219 -60.769531 C 7.671875 -56.605469 7.507812 -52.410156 7.460938 -48.195312 C 7.410156 -43.960938 7.445312 -39.898438 7.574219 -35.996094 C 7.699219 -32.101562 7.886719 -28.546875 8.136719 -25.339844 C 8.386719 -22.160156 8.65625 -19.550781 8.945312 -17.515625 C 9.398438 -14.5 10.242188 -12.167969 11.472656 -10.519531 C 12.726562 -8.84375 14.171875 -7.59375 15.8125 -6.773438 C 17.640625 -5.859375 19.511719 -5.269531 21.421875 -5 C 23.601562 -4.695312 25.589844 -4.542969 27.382812 -4.542969 L 27.460938 -4.542969 L 29.683594 -4.464844 C 31.097656 -4.414062 32.96875 -4.363281 35.300781 -4.3125 C 37.609375 -4.261719 40.132812 -4.25 42.875 -4.277344 C 45.59375 -4.300781 48.273438 -4.386719 50.917969 -4.539062 Z M 50.917969 -4.539062 "/></g></g></g><g fill="#58675e" fill-opacity="1"><g transform="translate(73.096433, 85.361201)"><g><path d="M 82.601562 -25.585938 C 81.960938 -20.003906 80.304688 -15.164062 77.632812 -11.066406 C 75.011719 -7.046875 71.746094 -3.722656 67.832031 -1.097656 C 64.019531 1.464844 59.890625 3.359375 55.453125 4.582031 C 51.089844 5.785156 46.71875 6.386719 42.339844 6.386719 C 38.960938 6.386719 35.570312 6.199219 32.164062 5.824219 C 28.582031 5.429688 25.128906 4.636719 21.792969 3.453125 C 18.316406 2.214844 15.121094 0.417969 12.207031 -1.9375 C 9.210938 -4.355469 6.707031 -7.492188 4.691406 -11.347656 C 2.71875 -15.121094 1.363281 -19.738281 0.632812 -25.199219 C -0.0585938 -30.035156 -0.390625 -35.296875 -0.363281 -40.980469 C -0.339844 -46.558594 -0.0898438 -52.253906 0.378906 -58.066406 C 0.84375 -63.847656 1.441406 -69.40625 2.167969 -74.753906 L 2.347656 -76.089844 L 3.261719 -77.085938 C 4.316406 -78.238281 5.933594 -79.1875 8.105469 -79.9375 C 9.867188 -80.546875 11.910156 -80.996094 14.222656 -81.289062 C 16.542969 -81.582031 18.9375 -81.628906 21.410156 -81.425781 C 24.011719 -81.210938 26.476562 -80.640625 28.792969 -79.710938 C 31.3125 -78.703125 33.453125 -77.25 35.222656 -75.34375 C 37.179688 -73.238281 38.367188 -70.554688 38.792969 -67.289062 C 38.917969 -66.292969 38.996094 -64.550781 39.023438 -62.0625 C 39.046875 -59.71875 39.0625 -56.941406 39.0625 -53.730469 C 39.0625 -50.566406 39.097656 -47.246094 39.175781 -43.777344 C 39.25 -40.324219 39.375 -37.035156 39.554688 -33.914062 C 39.722656 -30.894531 39.976562 -28.363281 40.308594 -26.3125 C 40.429688 -25.65625 40.664062 -25.175781 41.015625 -24.863281 C 41.367188 -24.554688 41.734375 -24.386719 42.117188 -24.367188 C 42.398438 -24.351562 42.695312 -24.46875 43.011719 -24.722656 C 43.367188 -25.011719 43.648438 -25.6875 43.859375 -26.75 C 44.1875 -28.453125 44.488281 -30.71875 44.757812 -33.542969 C 45.03125 -36.4375 45.242188 -39.609375 45.394531 -43.0625 C 45.542969 -46.519531 45.605469 -50.027344 45.582031 -53.585938 C 45.554688 -57.136719 45.441406 -60.492188 45.242188 -63.660156 C 45.050781 -66.714844 44.746094 -69.296875 44.320312 -71.40625 L 43.867188 -73.671875 L 45.5 -75.304688 C 46.921875 -76.726562 48.777344 -77.917969 51.0625 -78.878906 C 53.1875 -79.769531 55.542969 -80.382812 58.128906 -80.714844 C 60.726562 -81.046875 63.332031 -81.015625 65.949219 -80.625 C 68.703125 -80.214844 71.28125 -79.328125 73.6875 -77.964844 C 76.253906 -76.511719 78.382812 -74.460938 80.074219 -71.8125 C 81.746094 -69.1875 82.769531 -65.972656 83.144531 -62.167969 L 83.71875 -56.464844 C 83.90625 -54.675781 84.039062 -52.855469 84.121094 -51.003906 C 84.199219 -49.144531 84.214844 -47.066406 84.160156 -44.769531 C 84.109375 -42.496094 83.964844 -39.8125 83.726562 -36.71875 C 83.492188 -33.640625 83.117188 -29.925781 82.597656 -25.570312 Z M 74.027344 -26.589844 C 74.535156 -30.824219 74.898438 -34.417969 75.125 -37.375 C 75.347656 -40.316406 75.484375 -42.847656 75.535156 -44.972656 C 75.582031 -47.074219 75.570312 -48.960938 75.5 -50.628906 C 75.425781 -52.304688 75.304688 -53.960938 75.132812 -55.597656 L 74.554688 -61.324219 C 74.316406 -63.757812 73.730469 -65.707031 72.796875 -67.171875 C 71.878906 -68.613281 70.757812 -69.707031 69.4375 -70.453125 C 67.960938 -71.292969 66.371094 -71.835938 64.675781 -72.089844 C 62.84375 -72.363281 61.027344 -72.386719 59.226562 -72.15625 C 57.414062 -71.921875 55.808594 -71.511719 54.40625 -70.921875 C 53.160156 -70.398438 52.226562 -69.828125 51.605469 -69.203125 L 48.554688 -72.253906 L 52.785156 -73.101562 C 53.28125 -70.609375 53.640625 -67.644531 53.855469 -64.203125 C 54.066406 -60.875 54.183594 -57.355469 54.210938 -53.644531 C 54.234375 -49.941406 54.171875 -46.289062 54.015625 -42.6875 C 53.859375 -39.085938 53.636719 -35.765625 53.347656 -32.726562 C 53.050781 -29.621094 52.710938 -27.078125 52.328125 -25.097656 C 51.71875 -21.972656 50.414062 -19.605469 48.417969 -18 C 46.382812 -16.363281 44.125 -15.613281 41.640625 -15.75 C 39.261719 -15.882812 37.148438 -16.765625 35.300781 -18.398438 C 33.457031 -20.027344 32.285156 -22.203125 31.792969 -24.925781 C 31.410156 -27.273438 31.125 -30.109375 30.9375 -33.429688 C 30.753906 -36.648438 30.625 -40.035156 30.546875 -43.585938 C 30.46875 -47.121094 30.429688 -50.503906 30.429688 -53.730469 C 30.429688 -56.910156 30.417969 -59.65625 30.394531 -61.96875 C 30.371094 -64.128906 30.316406 -65.53125 30.238281 -66.171875 C 30.050781 -67.613281 29.605469 -68.714844 28.898438 -69.472656 C 28.011719 -70.429688 26.90625 -71.171875 25.589844 -71.699219 C 24.074219 -72.304688 22.441406 -72.679688 20.699219 -72.824219 C 18.828125 -72.980469 17.027344 -72.945312 15.308594 -72.730469 C 13.582031 -72.511719 12.121094 -72.195312 10.917969 -71.78125 C 10.410156 -71.605469 10.007812 -71.4375 9.710938 -71.273438 C 9.625 -71.226562 9.5625 -71.1875 9.523438 -71.15625 C 9.542969 -71.175781 9.578125 -71.207031 9.625 -71.257812 L 6.441406 -74.171875 L 10.71875 -73.589844 C 10.011719 -68.402344 9.433594 -62.996094 8.980469 -57.371094 C 8.527344 -51.777344 8.289062 -46.300781 8.265625 -40.9375 C 8.242188 -35.679688 8.546875 -30.8125 9.183594 -26.34375 C 9.78125 -21.886719 10.832031 -18.222656 12.335938 -15.347656 C 13.800781 -12.550781 15.5625 -10.320312 17.628906 -8.648438 C 19.78125 -6.910156 22.132812 -5.589844 24.6875 -4.679688 C 27.390625 -3.71875 30.195312 -3.074219 33.109375 -2.753906 C 36.199219 -2.414062 39.277344 -2.242188 42.339844 -2.242188 C 45.9375 -2.242188 49.546875 -2.742188 53.160156 -3.738281 C 56.695312 -4.710938 59.984375 -6.21875 63.023438 -8.261719 C 65.960938 -10.234375 68.421875 -12.742188 70.402344 -15.78125 C 72.335938 -18.738281 73.542969 -22.335938 74.027344 -26.570312 Z M 74.027344 -26.589844 "/></g></g></g><g fill="#58675e" fill-opacity="1"><g transform="translate(156.925558, 85.361201)"><g><path d="M 45.695312 -43.105469 L 45.695312 -73.367188 L 46.707031 -74.570312 C 49.070312 -77.378906 51.789062 -79.390625 54.871094 -80.601562 C 57.914062 -81.800781 61.023438 -82.25 64.210938 -81.957031 C 67.328125 -81.671875 70.199219 -80.792969 72.832031 -79.316406 C 75.542969 -77.792969 77.742188 -75.742188 79.433594 -73.15625 C 81.203125 -70.445312 82.089844 -67.359375 82.089844 -63.894531 L 82.128906 -57.359375 L 82.207031 -47.667969 L 82.28125 -36.15625 C 82.308594 -32.097656 82.308594 -28.078125 82.28125 -24.09375 C 82.257812 -20.097656 82.191406 -16.335938 82.089844 -12.796875 C 81.984375 -9.226562 81.828125 -6.097656 81.617188 -3.421875 L 81.492188 -1.832031 L 80.367188 -0.707031 C 78.25 1.410156 75.527344 3.023438 72.199219 4.132812 C 68.992188 5.199219 65.539062 5.628906 61.847656 5.421875 C 58.113281 5.207031 54.460938 4.214844 50.894531 2.445312 C 47.21875 0.625 44 -2.179688 41.234375 -5.96875 C 40.089844 -7.546875 38.914062 -9.316406 37.707031 -11.273438 C 36.527344 -13.191406 35.398438 -15.105469 34.320312 -17.023438 C 33.261719 -18.910156 32.320312 -20.617188 31.492188 -22.144531 C 30.746094 -23.515625 30.1875 -24.46875 29.816406 -25.003906 L 29.539062 -25.40625 L 29.359375 -25.855469 C 29.441406 -25.65625 29.550781 -25.472656 29.695312 -25.308594 C 29.445312 -25.59375 29.210938 -25.882812 28.992188 -26.175781 L 32.445312 -28.761719 L 32.445312 -24.449219 C 32.75 -24.449219 33.019531 -24.480469 33.261719 -24.539062 C 32.816406 -24.429688 32.363281 -24.371094 31.910156 -24.371094 L 31.910156 -28.6875 L 36.222656 -28.78125 C 36.273438 -26.527344 36.347656 -24.460938 36.445312 -22.589844 L 36.753906 -16.914062 C 36.859375 -14.988281 36.925781 -12.9375 36.953125 -10.753906 C 36.976562 -8.585938 36.964844 -6.101562 36.914062 -3.296875 L 36.875 -1.296875 L 35.328125 -0.03125 C 32.328125 2.414062 29.21875 4.050781 25.996094 4.871094 C 22.808594 5.683594 19.730469 5.851562 16.761719 5.371094 C 13.816406 4.894531 11.148438 3.917969 8.765625 2.4375 C 6.355469 0.9375 4.414062 -0.898438 2.945312 -3.066406 C 1.351562 -5.421875 0.515625 -7.941406 0.441406 -10.617188 C 0.339844 -13.792969 0.25 -17.292969 0.171875 -21.121094 L -0.0195312 -33.027344 C -0.0703125 -37.171875 -0.0976562 -41.25 -0.0976562 -45.253906 L -0.0585938 -56.582031 C -0.03125 -60.191406 0.03125 -63.386719 0.136719 -66.164062 C 0.242188 -68.996094 0.378906 -71.199219 0.539062 -72.773438 L 0.722656 -74.519531 L 2.070312 -75.644531 C 4.316406 -77.519531 7.035156 -79 10.222656 -80.09375 C 13.394531 -81.183594 16.710938 -81.679688 20.171875 -81.589844 C 23.789062 -81.496094 27.242188 -80.574219 30.527344 -78.824219 C 33.914062 -77.015625 36.730469 -74.238281 38.984375 -70.484375 C 40.335938 -68.199219 41.539062 -66.125 42.597656 -64.265625 L 45.671875 -58.851562 L 48.785156 -53.316406 L 52.519531 -46.664062 L 52.566406 -46.570312 C 52.652344 -46.398438 52.746094 -46.230469 52.84375 -46.074219 C 53.042969 -45.761719 53.230469 -45.460938 53.402344 -45.171875 L 49.703125 -42.953125 L 46.652344 -46.003906 C 47.546875 -46.898438 48.613281 -47.34375 49.855469 -47.34375 C 48.714844 -47.34375 47.75 -46.949219 46.960938 -46.15625 L 50.011719 -43.105469 Z M 54.324219 -43.105469 L 54.324219 -41.320312 L 53.0625 -40.054688 C 52.167969 -39.164062 51.097656 -38.714844 49.855469 -38.714844 C 50.996094 -38.714844 51.964844 -39.109375 52.753906 -39.902344 L 48.847656 -35.996094 L 46.003906 -40.734375 C 45.871094 -40.957031 45.722656 -41.191406 45.566406 -41.441406 C 45.304688 -41.847656 45.066406 -42.273438 44.847656 -42.710938 L 48.707031 -44.640625 L 44.945312 -42.527344 L 41.265625 -49.082031 L 38.164062 -54.59375 L 35.101562 -59.996094 C 34.0625 -61.816406 32.890625 -63.832031 31.582031 -66.046875 C 30.152344 -68.429688 28.445312 -70.152344 26.464844 -71.207031 C 24.378906 -72.320312 22.207031 -72.90625 19.945312 -72.964844 C 17.523438 -73.027344 15.214844 -72.683594 13.019531 -71.929688 C 10.835938 -71.183594 9.027344 -70.210938 7.59375 -69.015625 L 4.832031 -72.332031 L 9.125 -71.886719 C 8.980469 -70.496094 8.859375 -68.484375 8.761719 -65.839844 C 8.660156 -63.148438 8.597656 -60.054688 8.570312 -56.554688 L 8.535156 -45.253906 C 8.535156 -41.285156 8.558594 -37.253906 8.609375 -33.167969 L 8.800781 -21.296875 C 8.878906 -17.503906 8.964844 -14.023438 9.070312 -10.859375 C 9.097656 -9.855469 9.4375 -8.871094 10.09375 -7.902344 C 10.875 -6.75 11.953125 -5.746094 13.324219 -4.890625 C 14.726562 -4.019531 16.328125 -3.4375 18.136719 -3.148438 C 19.925781 -2.859375 21.832031 -2.972656 23.863281 -3.492188 C 25.855469 -4 27.855469 -5.074219 29.871094 -6.71875 L 32.597656 -3.375 L 28.285156 -3.453125 C 28.335938 -6.171875 28.347656 -8.570312 28.324219 -10.648438 C 28.296875 -12.707031 28.234375 -14.644531 28.136719 -16.449219 L 27.828125 -22.128906 C 27.726562 -24.089844 27.648438 -26.246094 27.59375 -28.589844 L 27.496094 -33 L 31.910156 -33 C 31.65625 -33 31.410156 -32.972656 31.167969 -32.910156 C 31.613281 -33.023438 32.039062 -33.078125 32.445312 -33.078125 L 34.601562 -33.078125 L 35.898438 -31.351562 C 35.984375 -31.234375 36.082031 -31.113281 36.191406 -30.992188 C 36.695312 -30.417969 37.085938 -29.773438 37.371094 -29.0625 L 33.367188 -27.460938 L 36.914062 -29.914062 C 37.460938 -29.121094 38.183594 -27.902344 39.074219 -26.257812 C 39.882812 -24.765625 40.808594 -23.097656 41.84375 -21.25 C 42.863281 -19.433594 43.933594 -17.617188 45.054688 -15.800781 C 46.148438 -14.027344 47.199219 -12.445312 48.203125 -11.058594 C 50.140625 -8.40625 52.3125 -6.480469 54.726562 -5.285156 C 57.242188 -4.039062 59.777344 -3.339844 62.335938 -3.195312 C 64.929688 -3.046875 67.308594 -3.335938 69.46875 -4.054688 C 71.511719 -4.734375 73.109375 -5.652344 74.265625 -6.808594 L 77.316406 -3.757812 L 73.015625 -4.097656 C 73.214844 -6.632812 73.363281 -9.617188 73.464844 -13.050781 C 73.566406 -16.519531 73.628906 -20.21875 73.652344 -24.152344 C 73.679688 -28.09375 73.679688 -32.078125 73.652344 -36.097656 L 73.578125 -47.597656 L 73.5 -57.308594 L 73.460938 -63.894531 C 73.460938 -65.644531 73.042969 -67.160156 72.210938 -68.433594 C 71.292969 -69.839844 70.089844 -70.957031 68.609375 -71.789062 C 67.046875 -72.664062 65.316406 -73.191406 63.421875 -73.363281 C 61.597656 -73.53125 59.800781 -73.269531 58.035156 -72.574219 C 56.308594 -71.894531 54.734375 -70.707031 53.3125 -69.015625 L 50.011719 -71.792969 L 54.324219 -71.792969 Z M 54.324219 -43.105469 "/></g></g></g><g fill="#58675e" fill-opacity="1"><g transform="translate(239.680928, 85.361201)"><g><path d="M -3.082031 -24.011719 C -2.449219 -27.160156 -1.625 -30.683594 -0.609375 -34.574219 C 0.40625 -38.449219 1.550781 -42.421875 2.824219 -46.5 C 4.089844 -50.558594 5.382812 -54.488281 6.699219 -58.289062 C 8.027344 -62.113281 9.328125 -65.617188 10.609375 -68.800781 C 11.910156 -72.042969 13.078125 -74.667969 14.109375 -76.679688 L 14.90625 -78.230469 L 16.554688 -78.792969 C 18.816406 -79.5625 21.492188 -80.273438 24.578125 -80.925781 C 27.75 -81.59375 31.105469 -81.96875 34.644531 -82.050781 C 38.355469 -82.140625 42.03125 -81.660156 45.671875 -80.621094 C 49.507812 -79.527344 53.019531 -77.59375 56.214844 -74.824219 C 59.441406 -72.019531 62.054688 -68.183594 64.050781 -63.304688 C 64.910156 -61.160156 65.886719 -58.453125 66.988281 -55.179688 C 68.074219 -51.945312 69.210938 -48.363281 70.402344 -44.433594 C 71.589844 -40.511719 72.75 -36.472656 73.886719 -32.316406 C 75.019531 -28.160156 76.066406 -24.105469 77.023438 -20.152344 C 77.992188 -16.148438 78.765625 -12.492188 79.34375 -9.179688 L 79.449219 -8.574219 L 79.378906 -7.960938 C 79.121094 -5.625 78.023438 -3.429688 76.082031 -1.371094 C 74.4375 0.371094 72.390625 1.828125 69.941406 3.007812 C 67.5625 4.148438 65.011719 4.90625 62.285156 5.273438 C 59.398438 5.664062 56.535156 5.4375 53.695312 4.597656 C 50.695312 3.710938 48.019531 2.011719 45.667969 -0.507812 C 43.386719 -2.949219 41.640625 -6.234375 40.425781 -10.363281 L 44.5625 -11.582031 L 44.382812 -7.269531 C 42.066406 -7.371094 39.652344 -7.394531 37.132812 -7.34375 C 34.464844 -7.292969 31.875 -7.292969 29.363281 -7.34375 L 29.453125 -11.660156 L 33.433594 -9.988281 C 32.820312 -8.53125 32.242188 -6.921875 31.695312 -5.164062 C 31.117188 -3.308594 30.554688 -1.398438 30 0.558594 L 29.40625 2.671875 L 27.34375 3.433594 C 21.960938 5.421875 17.171875 6.125 12.980469 5.539062 C 8.519531 4.914062 4.882812 3.148438 2.074219 0.234375 C -0.640625 -2.574219 -2.421875 -6.160156 -3.277344 -10.523438 C -4.070312 -14.59375 -4.011719 -19.074219 -3.089844 -23.960938 Z M 5.390625 -22.367188 C 4.675781 -18.5625 4.609375 -15.167969 5.191406 -12.179688 C 5.71875 -9.484375 6.75 -7.34375 8.28125 -5.757812 C 9.714844 -4.273438 11.679688 -3.355469 14.171875 -3.007812 C 16.933594 -2.621094 20.328125 -3.171875 24.351562 -4.660156 L 25.847656 -0.613281 L 21.695312 -1.785156 C 22.269531 -3.816406 22.855469 -5.796875 23.453125 -7.722656 C 24.082031 -9.746094 24.757812 -11.613281 25.476562 -13.328125 L 26.609375 -16.035156 L 29.542969 -15.972656 C 31.941406 -15.921875 34.414062 -15.921875 36.960938 -15.972656 C 39.660156 -16.027344 42.253906 -16 44.746094 -15.894531 L 47.832031 -15.761719 L 48.703125 -12.800781 C 49.535156 -9.976562 50.625 -7.84375 51.972656 -6.398438 C 53.253906 -5.027344 54.644531 -4.121094 56.140625 -3.675781 C 57.800781 -3.1875 59.464844 -3.054688 61.132812 -3.277344 C 62.957031 -3.523438 64.648438 -4.023438 66.203125 -4.769531 C 67.691406 -5.484375 68.894531 -6.328125 69.804688 -7.292969 C 70.425781 -7.949219 70.757812 -8.488281 70.804688 -8.914062 L 75.09375 -8.4375 L 70.839844 -7.695312 C 70.296875 -10.824219 69.558594 -14.300781 68.636719 -18.125 C 67.699219 -21.992188 66.675781 -25.96875 65.5625 -30.042969 C 64.445312 -34.121094 63.304688 -38.085938 62.140625 -41.933594 C 60.976562 -45.777344 59.867188 -49.277344 58.804688 -52.433594 C 57.757812 -55.550781 56.84375 -58.085938 56.066406 -60.035156 C 54.585938 -63.644531 52.75 -66.402344 50.558594 -68.304688 C 48.328125 -70.238281 45.910156 -71.578125 43.300781 -72.324219 C 40.5 -73.125 37.683594 -73.492188 34.847656 -73.425781 C 31.839844 -73.355469 29.007812 -73.039062 26.355469 -72.480469 C 23.609375 -71.902344 21.273438 -71.285156 19.34375 -70.625 L 17.949219 -74.707031 L 21.785156 -72.738281 C 20.875 -70.964844 19.820312 -68.578125 18.617188 -65.582031 C 17.386719 -62.527344 16.132812 -59.152344 14.851562 -55.460938 C 13.5625 -51.746094 12.300781 -47.902344 11.058594 -43.929688 C 9.828125 -39.980469 8.722656 -36.132812 7.742188 -32.386719 C 6.765625 -28.660156 5.980469 -25.304688 5.382812 -22.316406 Z M 32.445312 -37.910156 L 41.878906 -37.910156 L 41.878906 -33.597656 L 37.675781 -32.628906 C 36.964844 -35.71875 36.230469 -38.769531 35.472656 -41.785156 C 34.699219 -44.851562 33.949219 -47.929688 33.230469 -51.023438 L 37.429688 -52.003906 L 38.796875 -47.910156 C 38.199219 -47.710938 37.515625 -47.613281 36.742188 -47.613281 L 36.742188 -51.929688 L 40.953125 -51 C 40.28125 -47.949219 39.570312 -44.898438 38.820312 -41.847656 C 38.085938 -38.855469 37.363281 -35.789062 36.652344 -32.644531 L 32.445312 -33.597656 Z M 32.445312 -29.28125 L 27.046875 -29.28125 L 28.238281 -34.546875 C 28.957031 -37.742188 29.691406 -40.863281 30.441406 -43.90625 C 31.175781 -46.890625 31.871094 -49.875 32.527344 -52.855469 L 33.273438 -56.242188 L 36.742188 -56.242188 C 36.582031 -56.242188 36.355469 -56.195312 36.066406 -56.097656 L 40.558594 -57.59375 L 41.632812 -52.984375 C 42.34375 -49.941406 43.078125 -46.910156 43.839844 -43.894531 C 44.613281 -40.820312 45.363281 -37.710938 46.085938 -34.5625 L 47.296875 -29.28125 Z M 32.445312 -29.28125 "/></g></g></g><g fill="#58675e" fill-opacity="1"><g transform="translate(315.84042, 85.361201)"><g><path d="M 62.769531 -31.757812 C 63.910156 -30.746094 65.207031 -29.265625 66.660156 -27.316406 C 67.988281 -25.535156 69.34375 -23.601562 70.71875 -21.507812 C 72.089844 -19.425781 73.332031 -17.429688 74.445312 -15.519531 C 75.660156 -13.4375 76.519531 -11.679688 77.019531 -10.238281 L 77.398438 -9.144531 L 77.179688 -8.007812 C 76.515625 -4.550781 75.121094 -1.65625 72.988281 0.683594 C 70.871094 3.003906 68.3125 4.621094 65.3125 5.542969 C 62.417969 6.429688 59.386719 6.617188 56.21875 6.097656 C 53.082031 5.585938 50.050781 4.335938 47.121094 2.339844 C 44.199219 0.347656 41.679688 -2.398438 39.566406 -5.902344 C 38.980469 -6.878906 38.308594 -7.941406 37.550781 -9.089844 C 36.742188 -10.316406 35.804688 -11.773438 34.742188 -13.460938 C 33.699219 -15.109375 32.390625 -17.15625 30.816406 -19.597656 L 30.234375 -20.464844 C 30.101562 -20.667969 29.96875 -20.847656 29.84375 -21.003906 L 33.210938 -23.699219 L 35.140625 -19.84375 C 34.328125 -19.4375 33.507812 -19.234375 32.675781 -19.234375 L 32.675781 -23.546875 L 36.988281 -23.546875 C 36.988281 -22.835938 36.976562 -22.0625 36.949219 -21.222656 C 36.921875 -20.386719 36.882812 -19.539062 36.828125 -18.675781 C 36.675781 -15.558594 36.484375 -12.425781 36.25 -9.269531 C 36.011719 -6.0625 35.761719 -3.472656 35.492188 -1.492188 L 35.3125 -0.140625 L 34.382812 0.859375 C 32.585938 2.804688 30.332031 4.199219 27.632812 5.039062 C 25.066406 5.839844 22.359375 6.058594 19.515625 5.699219 C 16.695312 5.34375 13.976562 4.382812 11.363281 2.820312 C 8.730469 1.246094 6.441406 -0.949219 4.5 -3.765625 C 2.574219 -6.5625 1.21875 -10 0.441406 -14.070312 C 0.207031 -15.183594 0.00390625 -16.9375 -0.164062 -19.335938 C -0.320312 -21.574219 -0.460938 -24.222656 -0.589844 -27.277344 C -0.71875 -30.332031 -0.8125 -33.59375 -0.863281 -37.058594 C -0.914062 -40.519531 -0.925781 -44 -0.902344 -47.511719 C -0.875 -51.023438 -0.8125 -54.371094 -0.707031 -57.550781 C -0.601562 -60.785156 -0.429688 -63.671875 -0.191406 -66.214844 C 0.0625 -68.910156 0.398438 -71.042969 0.820312 -72.609375 L 1.132812 -73.773438 L 2.007812 -74.609375 C 3.535156 -76.066406 5.75 -77.375 8.644531 -78.527344 C 11.265625 -79.570312 14.300781 -80.433594 17.753906 -81.125 C 21.128906 -81.800781 24.738281 -82.273438 28.578125 -82.542969 C 32.441406 -82.8125 36.332031 -82.796875 40.25 -82.5 C 44.234375 -82.199219 48.035156 -81.550781 51.652344 -80.554688 C 55.460938 -79.507812 58.84375 -77.984375 61.792969 -75.976562 C 64.644531 -74.078125 67.175781 -71.636719 69.390625 -68.652344 C 71.574219 -65.710938 73.277344 -62.453125 74.496094 -58.882812 C 75.742188 -55.230469 76.292969 -51.476562 76.144531 -47.621094 C 75.992188 -43.652344 74.949219 -39.808594 73.011719 -36.089844 C 71.070312 -32.351562 68.085938 -29.007812 64.070312 -26.054688 L 61.515625 -29.53125 L 64.324219 -26.253906 C 63.695312 -25.71875 62.867188 -25.191406 61.835938 -24.675781 L 59.90625 -28.535156 Z M 57.039062 -25.308594 L 52.273438 -29.542969 L 57.976562 -32.394531 C 58.375 -32.59375 58.617188 -32.730469 58.707031 -32.804688 L 58.828125 -32.910156 L 58.960938 -33.007812 C 61.898438 -35.167969 64.03125 -37.523438 65.359375 -40.074219 C 66.695312 -42.648438 67.417969 -45.273438 67.519531 -47.953125 C 67.628906 -50.742188 67.230469 -53.457031 66.328125 -56.09375 C 65.402344 -58.8125 64.113281 -61.285156 62.460938 -63.507812 C 60.84375 -65.6875 59.003906 -67.464844 56.941406 -68.839844 C 54.78125 -70.308594 52.253906 -71.441406 49.367188 -72.234375 C 46.285156 -73.082031 43.027344 -73.636719 39.597656 -73.894531 C 36.097656 -74.160156 32.625 -74.171875 29.179688 -73.933594 C 25.707031 -73.691406 22.460938 -73.265625 19.445312 -72.664062 C 16.507812 -72.074219 13.96875 -71.355469 11.835938 -70.507812 C 9.976562 -69.769531 8.6875 -69.054688 7.964844 -68.367188 L 4.984375 -71.488281 L 9.152344 -70.367188 C 8.859375 -69.273438 8.605469 -67.621094 8.398438 -65.410156 C 8.175781 -63.042969 8.015625 -60.328125 7.917969 -57.273438 C 7.816406 -54.164062 7.753906 -50.886719 7.726562 -47.449219 C 7.703125 -44.003906 7.714844 -40.582031 7.765625 -37.1875 C 7.816406 -33.800781 7.90625 -30.621094 8.03125 -27.640625 C 8.15625 -24.664062 8.296875 -22.097656 8.445312 -19.9375 C 8.585938 -17.933594 8.742188 -16.519531 8.917969 -15.691406 C 9.46875 -12.808594 10.363281 -10.464844 11.605469 -8.660156 C 12.835938 -6.875 14.230469 -5.515625 15.789062 -4.585938 C 17.367188 -3.640625 18.972656 -3.066406 20.597656 -2.863281 C 22.203125 -2.660156 23.691406 -2.769531 25.0625 -3.199219 C 26.300781 -3.585938 27.296875 -4.183594 28.050781 -5.003906 L 31.21875 -2.070312 L 26.941406 -2.648438 C 27.1875 -4.453125 27.421875 -6.875 27.644531 -9.90625 C 27.871094 -12.988281 28.0625 -16.09375 28.214844 -19.214844 C 28.265625 -19.988281 28.300781 -20.75 28.324219 -21.5 C 28.347656 -22.246094 28.359375 -22.929688 28.359375 -23.546875 L 28.359375 -27.863281 L 32.675781 -27.863281 C 32.148438 -27.863281 31.683594 -27.761719 31.28125 -27.558594 L 34.402344 -29.121094 L 36.582031 -26.398438 C 36.863281 -26.042969 37.140625 -25.660156 37.417969 -25.25 L 38.0625 -24.277344 C 39.65625 -21.808594 40.984375 -19.738281 42.039062 -18.0625 C 43.070312 -16.425781 43.976562 -15.019531 44.753906 -13.84375 C 45.578125 -12.589844 46.3125 -11.429688 46.953125 -10.359375 C 48.417969 -7.933594 50.09375 -6.078125 51.976562 -4.792969 C 53.855469 -3.515625 55.730469 -2.722656 57.609375 -2.417969 C 59.449219 -2.117188 61.175781 -2.214844 62.78125 -2.707031 C 64.277344 -3.164062 65.554688 -3.972656 66.609375 -5.132812 C 67.648438 -6.269531 68.347656 -7.773438 68.707031 -9.636719 L 72.945312 -8.820312 L 68.867188 -7.402344 C 68.550781 -8.316406 67.925781 -9.574219 66.992188 -11.171875 C 65.957031 -12.945312 64.796875 -14.808594 63.511719 -16.765625 C 62.226562 -18.714844 60.972656 -20.511719 59.746094 -22.15625 C 58.640625 -23.632812 57.738281 -24.683594 57.039062 -25.308594 Z M 39.636719 -48.167969 C 39.636719 -48.230469 39.609375 -48.289062 39.550781 -48.347656 C 39.375 -48.527344 39.023438 -48.65625 38.5 -48.726562 C 37.839844 -48.816406 36.921875 -48.582031 35.75 -48.027344 L 33.902344 -51.929688 L 38.21875 -51.929688 C 38.21875 -50.300781 38.203125 -49.011719 38.175781 -48.050781 C 38.15625 -47.222656 38.167969 -46.195312 38.214844 -44.960938 L 38.21875 -44.878906 L 38.21875 -44.792969 C 38.21875 -45.515625 38.042969 -46.167969 37.6875 -46.753906 C 37.5625 -46.964844 37.433594 -47.136719 37.296875 -47.269531 C 37.164062 -47.40625 36.992188 -47.535156 36.785156 -47.660156 C 36.195312 -48.011719 35.542969 -48.1875 34.824219 -48.1875 L 37.699219 -48.1875 C 38.328125 -48.1875 38.949219 -48.257812 39.5625 -48.394531 L 39.699219 -48.421875 L 39.835938 -48.445312 C 39.980469 -48.46875 40.074219 -48.488281 40.113281 -48.507812 C 40.019531 -48.460938 39.921875 -48.382812 39.824219 -48.269531 C 39.726562 -48.152344 39.65625 -48.039062 39.621094 -47.929688 C 39.632812 -47.957031 39.636719 -48.039062 39.636719 -48.167969 Z M 48.265625 -48.167969 C 48.265625 -45.945312 47.628906 -44.097656 46.351562 -42.621094 C 45.085938 -41.160156 43.355469 -40.257812 41.164062 -39.917969 L 40.5 -44.179688 L 41.433594 -39.96875 C 40.207031 -39.695312 38.960938 -39.558594 37.699219 -39.558594 L 34.824219 -39.558594 C 33.476562 -39.558594 32.269531 -40.09375 31.195312 -41.167969 C 30.125 -42.242188 29.589844 -43.449219 29.589844 -44.792969 L 33.902344 -44.792969 L 29.589844 -44.628906 C 29.535156 -46.054688 29.523438 -47.273438 29.550781 -48.289062 C 29.574219 -49.167969 29.589844 -50.382812 29.589844 -51.929688 L 29.589844 -54.660156 L 32.054688 -55.828125 C 34.769531 -57.113281 37.304688 -57.597656 39.660156 -57.277344 C 42.152344 -56.9375 44.179688 -55.964844 45.742188 -54.359375 C 47.425781 -52.625 48.265625 -50.5625 48.265625 -48.167969 Z M 48.265625 -48.167969 "/></g></g></g><g fill="#58675e" fill-opacity="1"><g transform="translate(392.306689, 85.361201)"><g><path d="M -3.082031 -24.011719 C -2.449219 -27.160156 -1.625 -30.683594 -0.609375 -34.574219 C 0.40625 -38.449219 1.550781 -42.421875 2.824219 -46.5 C 4.089844 -50.558594 5.382812 -54.488281 6.699219 -58.289062 C 8.027344 -62.113281 9.328125 -65.617188 10.609375 -68.800781 C 11.910156 -72.042969 13.078125 -74.667969 14.109375 -76.679688 L 14.90625 -78.230469 L 16.554688 -78.792969 C 18.816406 -79.5625 21.492188 -80.273438 24.578125 -80.925781 C 27.75 -81.59375 31.105469 -81.96875 34.644531 -82.050781 C 38.355469 -82.140625 42.03125 -81.660156 45.671875 -80.621094 C 49.507812 -79.527344 53.019531 -77.59375 56.214844 -74.824219 C 59.441406 -72.019531 62.054688 -68.183594 64.050781 -63.304688 C 64.910156 -61.160156 65.886719 -58.453125 66.988281 -55.179688 C 68.074219 -51.945312 69.210938 -48.363281 70.402344 -44.433594 C 71.589844 -40.511719 72.75 -36.472656 73.886719 -32.316406 C 75.019531 -28.160156 76.066406 -24.105469 77.023438 -20.152344 C 77.992188 -16.148438 78.765625 -12.492188 79.34375 -9.179688 L 79.449219 -8.574219 L 79.378906 -7.960938 C 79.121094 -5.625 78.023438 -3.429688 76.082031 -1.371094 C 74.4375 0.371094 72.390625 1.828125 69.941406 3.007812 C 67.5625 4.148438 65.011719 4.90625 62.285156 5.273438 C 59.398438 5.664062 56.535156 5.4375 53.695312 4.597656 C 50.695312 3.710938 48.019531 2.011719 45.667969 -0.507812 C 43.386719 -2.949219 41.640625 -6.234375 40.425781 -10.363281 L 44.5625 -11.582031 L 44.382812 -7.269531 C 42.066406 -7.371094 39.652344 -7.394531 37.132812 -7.34375 C 34.464844 -7.292969 31.875 -7.292969 29.363281 -7.34375 L 29.453125 -11.660156 L 33.433594 -9.988281 C 32.820312 -8.53125 32.242188 -6.921875 31.695312 -5.164062 C 31.117188 -3.308594 30.554688 -1.398438 30 0.558594 L 29.40625 2.671875 L 27.34375 3.433594 C 21.960938 5.421875 17.171875 6.125 12.980469 5.539062 C 8.519531 4.914062 4.882812 3.148438 2.074219 0.234375 C -0.640625 -2.574219 -2.421875 -6.160156 -3.277344 -10.523438 C -4.070312 -14.59375 -4.011719 -19.074219 -3.089844 -23.960938 Z M 5.390625 -22.367188 C 4.675781 -18.5625 4.609375 -15.167969 5.191406 -12.179688 C 5.71875 -9.484375 6.75 -7.34375 8.28125 -5.757812 C 9.714844 -4.273438 11.679688 -3.355469 14.171875 -3.007812 C 16.933594 -2.621094 20.328125 -3.171875 24.351562 -4.660156 L 25.847656 -0.613281 L 21.695312 -1.785156 C 22.269531 -3.816406 22.855469 -5.796875 23.453125 -7.722656 C 24.082031 -9.746094 24.757812 -11.613281 25.476562 -13.328125 L 26.609375 -16.035156 L 29.542969 -15.972656 C 31.941406 -15.921875 34.414062 -15.921875 36.960938 -15.972656 C 39.660156 -16.027344 42.253906 -16 44.746094 -15.894531 L 47.832031 -15.761719 L 48.703125 -12.800781 C 49.535156 -9.976562 50.625 -7.84375 51.972656 -6.398438 C 53.253906 -5.027344 54.644531 -4.121094 56.140625 -3.675781 C 57.800781 -3.1875 59.464844 -3.054688 61.132812 -3.277344 C 62.957031 -3.523438 64.648438 -4.023438 66.203125 -4.769531 C 67.691406 -5.484375 68.894531 -6.328125 69.804688 -7.292969 C 70.425781 -7.949219 70.757812 -8.488281 70.804688 -8.914062 L 75.09375 -8.4375 L 70.839844 -7.695312 C 70.296875 -10.824219 69.558594 -14.300781 68.636719 -18.125 C 67.699219 -21.992188 66.675781 -25.96875 65.5625 -30.042969 C 64.445312 -34.121094 63.304688 -38.085938 62.140625 -41.933594 C 60.976562 -45.777344 59.867188 -49.277344 58.804688 -52.433594 C 57.757812 -55.550781 56.84375 -58.085938 56.066406 -60.035156 C 54.585938 -63.644531 52.75 -66.402344 50.558594 -68.304688 C 48.328125 -70.238281 45.910156 -71.578125 43.300781 -72.324219 C 40.5 -73.125 37.683594 -73.492188 34.847656 -73.425781 C 31.839844 -73.355469 29.007812 -73.039062 26.355469 -72.480469 C 23.609375 -71.902344 21.273438 -71.285156 19.34375 -70.625 L 17.949219 -74.707031 L 21.785156 -72.738281 C 20.875 -70.964844 19.820312 -68.578125 18.617188 -65.582031 C 17.386719 -62.527344 16.132812 -59.152344 14.851562 -55.460938 C 13.5625 -51.746094 12.300781 -47.902344 11.058594 -43.929688 C 9.828125 -39.980469 8.722656 -36.132812 7.742188 -32.386719 C 6.765625 -28.660156 5.980469 -25.304688 5.382812 -22.316406 Z M 32.445312 -37.910156 L 41.878906 -37.910156 L 41.878906 -33.597656 L 37.675781 -32.628906 C 36.964844 -35.71875 36.230469 -38.769531 35.472656 -41.785156 C 34.699219 -44.851562 33.949219 -47.929688 33.230469 -51.023438 L 37.429688 -52.003906 L 38.796875 -47.910156 C 38.199219 -47.710938 37.515625 -47.613281 36.742188 -47.613281 L 36.742188 -51.929688 L 40.953125 -51 C 40.28125 -47.949219 39.570312 -44.898438 38.820312 -41.847656 C 38.085938 -38.855469 37.363281 -35.789062 36.652344 -32.644531 L 32.445312 -33.597656 Z M 32.445312 -29.28125 L 27.046875 -29.28125 L 28.238281 -34.546875 C 28.957031 -37.742188 29.691406 -40.863281 30.441406 -43.90625 C 31.175781 -46.890625 31.871094 -49.875 32.527344 -52.855469 L 33.273438 -56.242188 L 36.742188 -56.242188 C 36.582031 -56.242188 36.355469 -56.195312 36.066406 -56.097656 L 40.558594 -57.59375 L 41.632812 -52.984375 C 42.34375 -49.941406 43.078125 -46.910156 43.839844 -43.894531 C 44.613281 -40.820312 45.363281 -37.710938 46.085938 -34.5625 L 47.296875 -29.28125 Z M 32.445312 -29.28125 "/></g></g></g><g fill="#58675e" fill-opacity="1"><g transform="translate(468.466205, 85.361201)"><g/></g></g><g fill="#58675e" fill-opacity="1"><g transform="translate(507.121139, 85.361201)"><g><path d="M 89.78125 -14.296875 C 91.277344 -12.359375 91.988281 -9.96875 91.90625 -7.125 C 91.84375 -4.796875 91.316406 -2.40625 90.332031 0.0390625 C 89.378906 2.40625 88.078125 4.609375 86.429688 6.65625 C 84.707031 8.796875 82.6875 10.523438 80.371094 11.839844 C 77.769531 13.324219 74.984375 13.953125 72.015625 13.738281 C 68.152344 13.425781 64.613281 12.304688 61.398438 10.371094 C 58.402344 8.566406 55.558594 6.175781 52.867188 3.199219 L 56.070312 0.308594 L 57.433594 4.398438 C 56.839844 4.597656 56.242188 4.699219 55.648438 4.699219 C 56.199219 4.699219 56.726562 4.570312 57.230469 4.320312 L 56.789062 4.542969 L 56.304688 4.65625 C 50.273438 6.097656 44.335938 6.550781 38.5 6.023438 C 32.566406 5.484375 26.789062 3.757812 21.171875 0.835938 C 15.710938 -1.980469 11.332031 -5.675781 8.042969 -10.25 C 4.808594 -14.742188 2.539062 -19.910156 1.234375 -25.753906 C 0.03125 -31.0625 -0.488281 -36.34375 -0.324219 -41.59375 C -0.152344 -47.042969 1.097656 -52.375 3.421875 -57.597656 C 4.78125 -60.597656 6.507812 -63.523438 8.605469 -66.371094 C 10.777344 -69.328125 13.472656 -72 16.683594 -74.378906 C 19.914062 -76.773438 23.742188 -78.707031 28.167969 -80.183594 C 32.570312 -81.652344 37.652344 -82.441406 43.40625 -82.550781 C 47.554688 -82.660156 51.273438 -82.375 54.566406 -81.695312 C 57.917969 -81 61.03125 -79.914062 63.914062 -78.429688 C 66.695312 -76.996094 69.453125 -75.191406 72.179688 -73.023438 C 77.910156 -68.550781 82.070312 -62.871094 84.65625 -55.972656 C 86.589844 -50.664062 87.753906 -45.3125 88.140625 -39.925781 C 88.535156 -34.394531 87.859375 -28.839844 86.113281 -23.253906 C 85.441406 -21.128906 84.65625 -19.101562 83.761719 -17.167969 C 82.851562 -15.203125 81.820312 -13.363281 80.675781 -11.644531 L 77.085938 -14.035156 L 78.496094 -18.113281 C 79.722656 -17.691406 81.0625 -17.289062 82.515625 -16.90625 C 83.960938 -16.527344 85.496094 -16.195312 87.117188 -15.90625 L 88.761719 -15.617188 Z M 82.953125 -9.019531 L 86.367188 -11.660156 L 85.617188 -7.410156 C 83.761719 -7.738281 82 -8.121094 80.324219 -8.558594 C 78.660156 -8.996094 77.109375 -9.464844 75.675781 -9.960938 L 70.398438 -11.785156 L 73.496094 -16.429688 C 74.394531 -17.78125 75.207031 -19.234375 75.933594 -20.800781 C 76.671875 -22.394531 77.320312 -24.074219 77.878906 -25.835938 C 79.300781 -30.375 79.851562 -34.867188 79.53125 -39.308594 C 79.203125 -43.890625 78.21875 -48.4375 76.574219 -52.945312 C 74.558594 -58.320312 71.300781 -62.761719 66.804688 -66.269531 C 64.523438 -68.085938 62.242188 -69.582031 59.960938 -70.757812 C 57.78125 -71.882812 55.398438 -72.710938 52.816406 -73.246094 C 50.179688 -73.789062 47.097656 -74.015625 43.574219 -73.921875 C 38.695312 -73.828125 34.46875 -73.1875 30.894531 -71.996094 C 27.339844 -70.8125 24.316406 -69.292969 21.820312 -67.445312 C 19.304688 -65.582031 17.21875 -63.519531 15.558594 -61.261719 C 13.816406 -58.894531 12.402344 -56.503906 11.304688 -54.082031 C 9.4375 -49.894531 8.4375 -45.640625 8.300781 -41.324219 C 8.160156 -36.808594 8.609375 -32.242188 9.65625 -27.632812 C 10.703125 -22.941406 12.5 -18.828125 15.046875 -15.292969 C 17.53125 -11.835938 20.902344 -9.011719 25.15625 -6.820312 C 29.765625 -4.421875 34.472656 -3.007812 39.277344 -2.570312 C 44.175781 -2.128906 49.1875 -2.515625 54.300781 -3.738281 L 55.300781 0.460938 L 53.375 -3.398438 C 54.082031 -3.753906 54.839844 -3.929688 55.648438 -3.929688 C 55.308594 -3.929688 54.996094 -3.882812 54.707031 -3.785156 L 57.378906 -4.679688 L 59.269531 -2.585938 C 61.386719 -0.242188 63.582031 1.609375 65.851562 2.976562 C 67.90625 4.214844 70.171875 4.929688 72.644531 5.132812 C 73.871094 5.222656 75.019531 4.957031 76.101562 4.34375 C 77.46875 3.5625 78.671875 2.53125 79.710938 1.242188 C 80.820312 -0.136719 81.695312 -1.613281 82.328125 -3.183594 C 82.925781 -4.675781 83.246094 -6.070312 83.28125 -7.371094 C 83.304688 -8.160156 83.195312 -8.707031 82.953125 -9.019531 Z M 38.054688 -37.113281 C 38.207031 -34.90625 38.648438 -33.246094 39.378906 -32.140625 C 40.089844 -31.070312 40.863281 -30.335938 41.699219 -29.9375 C 42.566406 -29.523438 43.285156 -29.339844 43.851562 -29.382812 C 44.597656 -29.4375 45.394531 -29.707031 46.242188 -30.183594 C 46.960938 -30.585938 47.621094 -31.316406 48.222656 -32.367188 C 48.878906 -33.511719 49.265625 -35.175781 49.382812 -37.355469 C 49.539062 -39.605469 49.316406 -41.410156 48.710938 -42.777344 C 48.144531 -44.054688 47.417969 -45 46.527344 -45.613281 C 45.703125 -46.179688 44.820312 -46.460938 43.875 -46.460938 C 42.835938 -46.460938 41.867188 -46.171875 40.972656 -45.589844 C 40.078125 -45.003906 39.339844 -44.066406 38.765625 -42.773438 C 38.132812 -41.351562 37.898438 -39.460938 38.054688 -37.105469 Z M 29.445312 -36.53125 C 29.191406 -40.308594 29.671875 -43.558594 30.878906 -46.277344 C 32.148438 -49.128906 33.941406 -51.308594 36.265625 -52.820312 C 38.59375 -54.335938 41.128906 -55.09375 43.875 -55.09375 C 46.609375 -55.09375 49.125 -54.300781 51.421875 -52.71875 C 53.652344 -51.1875 55.378906 -49.035156 56.601562 -46.273438 C 57.785156 -43.601562 58.253906 -40.472656 58 -36.894531 C 57.808594 -33.347656 57.046875 -30.40625 55.710938 -28.074219 C 54.316406 -25.648438 52.574219 -23.847656 50.480469 -22.664062 C 48.515625 -21.558594 46.523438 -20.929688 44.511719 -20.78125 C 42.417969 -20.617188 40.246094 -21.074219 37.996094 -22.144531 C 35.710938 -23.230469 33.777344 -24.972656 32.183594 -27.378906 C 30.613281 -29.75 29.703125 -32.796875 29.445312 -36.519531 Z M 29.445312 -36.53125 "/></g></g></g><g fill="#58675e" fill-opacity="1"><g transform="translate(598.236415, 85.361201)"><g><path d="M 82.601562 -25.585938 C 81.960938 -20.003906 80.304688 -15.164062 77.632812 -11.066406 C 75.011719 -7.046875 71.746094 -3.722656 67.832031 -1.097656 C 64.019531 1.464844 59.890625 3.359375 55.453125 4.582031 C 51.089844 5.785156 46.71875 6.386719 42.339844 6.386719 C 38.960938 6.386719 35.570312 6.199219 32.164062 5.824219 C 28.582031 5.429688 25.128906 4.636719 21.792969 3.453125 C 18.316406 2.214844 15.121094 0.417969 12.207031 -1.9375 C 9.210938 -4.355469 6.707031 -7.492188 4.691406 -11.347656 C 2.71875 -15.121094 1.363281 -19.738281 0.632812 -25.199219 C -0.0585938 -30.035156 -0.390625 -35.296875 -0.363281 -40.980469 C -0.339844 -46.558594 -0.0898438 -52.253906 0.378906 -58.066406 C 0.84375 -63.847656 1.441406 -69.40625 2.167969 -74.753906 L 2.347656 -76.089844 L 3.261719 -77.085938 C 4.316406 -78.238281 5.933594 -79.1875 8.105469 -79.9375 C 9.867188 -80.546875 11.910156 -80.996094 14.222656 -81.289062 C 16.542969 -81.582031 18.9375 -81.628906 21.410156 -81.425781 C 24.011719 -81.210938 26.476562 -80.640625 28.792969 -79.710938 C 31.3125 -78.703125 33.453125 -77.25 35.222656 -75.34375 C 37.179688 -73.238281 38.367188 -70.554688 38.792969 -67.289062 C 38.917969 -66.292969 38.996094 -64.550781 39.023438 -62.0625 C 39.046875 -59.71875 39.0625 -56.941406 39.0625 -53.730469 C 39.0625 -50.566406 39.097656 -47.246094 39.175781 -43.777344 C 39.25 -40.324219 39.375 -37.035156 39.554688 -33.914062 C 39.722656 -30.894531 39.976562 -28.363281 40.308594 -26.3125 C 40.429688 -25.65625 40.664062 -25.175781 41.015625 -24.863281 C 41.367188 -24.554688 41.734375 -24.386719 42.117188 -24.367188 C 42.398438 -24.351562 42.695312 -24.46875 43.011719 -24.722656 C 43.367188 -25.011719 43.648438 -25.6875 43.859375 -26.75 C 44.1875 -28.453125 44.488281 -30.71875 44.757812 -33.542969 C 45.03125 -36.4375 45.242188 -39.609375 45.394531 -43.0625 C 45.542969 -46.519531 45.605469 -50.027344 45.582031 -53.585938 C 45.554688 -57.136719 45.441406 -60.492188 45.242188 -63.660156 C 45.050781 -66.714844 44.746094 -69.296875 44.320312 -71.40625 L 43.867188 -73.671875 L 45.5 -75.304688 C 46.921875 -76.726562 48.777344 -77.917969 51.0625 -78.878906 C 53.1875 -79.769531 55.542969 -80.382812 58.128906 -80.714844 C 60.726562 -81.046875 63.332031 -81.015625 65.949219 -80.625 C 68.703125 -80.214844 71.28125 -79.328125 73.6875 -77.964844 C 76.253906 -76.511719 78.382812 -74.460938 80.074219 -71.8125 C 81.746094 -69.1875 82.769531 -65.972656 83.144531 -62.167969 L 83.71875 -56.464844 C 83.90625 -54.675781 84.039062 -52.855469 84.121094 -51.003906 C 84.199219 -49.144531 84.214844 -47.066406 84.160156 -44.769531 C 84.109375 -42.496094 83.964844 -39.8125 83.726562 -36.71875 C 83.492188 -33.640625 83.117188 -29.925781 82.597656 -25.570312 Z M 74.027344 -26.589844 C 74.535156 -30.824219 74.898438 -34.417969 75.125 -37.375 C 75.347656 -40.316406 75.484375 -42.847656 75.535156 -44.972656 C 75.582031 -47.074219 75.570312 -48.960938 75.5 -50.628906 C 75.425781 -52.304688 75.304688 -53.960938 75.132812 -55.597656 L 74.554688 -61.324219 C 74.316406 -63.757812 73.730469 -65.707031 72.796875 -67.171875 C 71.878906 -68.613281 70.757812 -69.707031 69.4375 -70.453125 C 67.960938 -71.292969 66.371094 -71.835938 64.675781 -72.089844 C 62.84375 -72.363281 61.027344 -72.386719 59.226562 -72.15625 C 57.414062 -71.921875 55.808594 -71.511719 54.40625 -70.921875 C 53.160156 -70.398438 52.226562 -69.828125 51.605469 -69.203125 L 48.554688 -72.253906 L 52.785156 -73.101562 C 53.28125 -70.609375 53.640625 -67.644531 53.855469 -64.203125 C 54.066406 -60.875 54.183594 -57.355469 54.210938 -53.644531 C 54.234375 -49.941406 54.171875 -46.289062 54.015625 -42.6875 C 53.859375 -39.085938 53.636719 -35.765625 53.347656 -32.726562 C 53.050781 -29.621094 52.710938 -27.078125 52.328125 -25.097656 C 51.71875 -21.972656 50.414062 -19.605469 48.417969 -18 C 46.382812 -16.363281 44.125 -15.613281 41.640625 -15.75 C 39.261719 -15.882812 37.148438 -16.765625 35.300781 -18.398438 C 33.457031 -20.027344 32.285156 -22.203125 31.792969 -24.925781 C 31.410156 -27.273438 31.125 -30.109375 30.9375 -33.429688 C 30.753906 -36.648438 30.625 -40.035156 30.546875 -43.585938 C 30.46875 -47.121094 30.429688 -50.503906 30.429688 -53.730469 C 30.429688 -56.910156 30.417969 -59.65625 30.394531 -61.96875 C 30.371094 -64.128906 30.316406 -65.53125 30.238281 -66.171875 C 30.050781 -67.613281 29.605469 -68.714844 28.898438 -69.472656 C 28.011719 -70.429688 26.90625 -71.171875 25.589844 -71.699219 C 24.074219 -72.304688 22.441406 -72.679688 20.699219 -72.824219 C 18.828125 -72.980469 17.027344 -72.945312 15.308594 -72.730469 C 13.582031 -72.511719 12.121094 -72.195312 10.917969 -71.78125 C 10.410156 -71.605469 10.007812 -71.4375 9.710938 -71.273438 C 9.625 -71.226562 9.5625 -71.1875 9.523438 -71.15625 C 9.542969 -71.175781 9.578125 -71.207031 9.625 -71.257812 L 6.441406 -74.171875 L 10.71875 -73.589844 C 10.011719 -68.402344 9.433594 -62.996094 8.980469 -57.371094 C 8.527344 -51.777344 8.289062 -46.300781 8.265625 -40.9375 C 8.242188 -35.679688 8.546875 -30.8125 9.183594 -26.34375 C 9.78125 -21.886719 10.832031 -18.222656 12.335938 -15.347656 C 13.800781 -12.550781 15.5625 -10.320312 17.628906 -8.648438 C 19.78125 -6.910156 22.132812 -5.589844 24.6875 -4.679688 C 27.390625 -3.71875 30.195312 -3.074219 33.109375 -2.753906 C 36.199219 -2.414062 39.277344 -2.242188 42.339844 -2.242188 C 45.9375 -2.242188 49.546875 -2.742188 53.160156 -3.738281 C 56.695312 -4.710938 59.984375 -6.21875 63.023438 -8.261719 C 65.960938 -10.234375 68.421875 -12.742188 70.402344 -15.78125 C 72.335938 -18.738281 73.542969 -22.335938 74.027344 -26.570312 Z M 74.027344 -26.589844 "/></g></g></g><g fill="#58675e" fill-opacity="1"><g transform="translate(682.065553, 85.361201)"><g><path d="M -0.0898438 -17.464844 C -0.195312 -19.261719 -0.273438 -21.660156 -0.324219 -24.660156 C -0.378906 -27.625 -0.402344 -30.949219 -0.402344 -34.632812 C -0.402344 -38.316406 -0.363281 -42.128906 -0.285156 -46.066406 C -0.210938 -50 -0.105469 -53.867188 0.0195312 -57.671875 C 0.148438 -61.488281 0.304688 -65.023438 0.484375 -68.273438 C 0.667969 -71.585938 0.894531 -74.363281 1.160156 -76.597656 L 1.570312 -80.039062 L 5.015625 -80.382812 C 7.664062 -80.648438 10.867188 -80.84375 14.613281 -80.976562 C 18.304688 -81.105469 22.261719 -81.195312 26.488281 -81.246094 C 30.722656 -81.300781 34.972656 -81.285156 39.234375 -81.207031 C 43.488281 -81.132812 47.507812 -81.015625 51.296875 -80.859375 C 55.105469 -80.707031 58.390625 -80.523438 61.148438 -80.316406 L 63.203125 -80.160156 L 64.371094 -78.46875 C 65.125 -77.382812 65.742188 -75.902344 66.230469 -74.027344 C 66.675781 -72.3125 66.910156 -70.414062 66.941406 -68.328125 C 66.972656 -66.203125 66.710938 -64.0625 66.15625 -61.898438 C 65.550781 -59.554688 64.503906 -57.390625 63.011719 -55.398438 C 61.421875 -53.277344 59.28125 -51.605469 56.59375 -50.378906 C 54.003906 -49.199219 50.863281 -48.609375 47.171875 -48.609375 L 31.371094 -48.609375 L 31.371094 -52.925781 L 35.6875 -52.925781 L 35.6875 -48.9375 L 31.371094 -48.9375 L 31.371094 -53.25 C 32.460938 -53.25 33.96875 -53.277344 35.898438 -53.328125 C 37.90625 -53.378906 40.078125 -53.40625 42.417969 -53.40625 C 44.851562 -53.40625 47.242188 -53.296875 49.601562 -53.078125 C 52.128906 -52.847656 54.355469 -52.429688 56.28125 -51.828125 L 58.125 -51.25 L 58.925781 -49.496094 C 60.769531 -45.429688 61.535156 -41.566406 61.210938 -37.898438 C 60.859375 -33.863281 59.257812 -30.550781 56.40625 -27.953125 C 53.628906 -25.421875 49.835938 -24.023438 45.027344 -23.765625 C 43.652344 -23.710938 42.371094 -23.683594 41.1875 -23.683594 C 40.039062 -23.683594 38.710938 -23.695312 37.203125 -23.722656 C 35.746094 -23.746094 33.828125 -23.757812 31.449219 -23.757812 L 31.449219 -28.074219 L 35.761719 -28.074219 L 35.761719 -23.394531 L 31.449219 -23.394531 L 31.449219 -27.710938 L 60.035156 -27.710938 L 61.328125 -25.925781 C 63.207031 -23.332031 64.410156 -20.457031 64.929688 -17.308594 C 65.453125 -14.136719 65.222656 -11.039062 64.238281 -8.019531 C 63.203125 -4.847656 61.273438 -2.136719 58.453125 0.113281 C 55.675781 2.328125 52.070312 3.71875 47.636719 4.28125 C 46.253906 4.445312 44.433594 4.597656 42.171875 4.730469 C 39.929688 4.859375 37.46875 4.941406 34.789062 4.964844 C 32.136719 4.992188 29.5 4.980469 26.875 4.925781 C 24.214844 4.875 21.8125 4.769531 19.664062 4.609375 C 17.375 4.441406 15.566406 4.203125 14.230469 3.902344 L 14.113281 3.871094 C 9.421875 2.664062 5.914062 0.207031 3.589844 -3.5 C 1.488281 -6.859375 0.261719 -11.515625 -0.0898438 -17.464844 Z M 8.527344 -17.972656 C 8.789062 -13.488281 9.582031 -10.191406 10.90625 -8.082031 C 12.007812 -6.320312 13.792969 -5.121094 16.261719 -4.484375 L 15.1875 -0.308594 L 16.144531 -4.515625 C 17.058594 -4.304688 18.445312 -4.132812 20.300781 -3.996094 C 22.292969 -3.847656 24.542969 -3.75 27.046875 -3.699219 C 29.585938 -3.648438 32.140625 -3.636719 34.703125 -3.664062 C 37.242188 -3.6875 39.5625 -3.761719 41.664062 -3.886719 C 43.75 -4.007812 45.378906 -4.140625 46.554688 -4.28125 C 49.382812 -4.640625 51.554688 -5.421875 53.074219 -6.632812 C 54.546875 -7.808594 55.53125 -9.164062 56.03125 -10.695312 C 56.582031 -12.378906 56.710938 -14.117188 56.414062 -15.902344 C 56.117188 -17.714844 55.425781 -19.367188 54.339844 -20.863281 L 57.832031 -23.394531 L 57.832031 -19.078125 L 27.132812 -19.078125 L 27.132812 -32.386719 L 31.449219 -32.386719 C 33.875 -32.386719 35.84375 -32.375 37.351562 -32.347656 C 38.808594 -32.324219 40.089844 -32.3125 41.1875 -32.3125 C 42.257812 -32.3125 43.382812 -32.335938 44.5625 -32.382812 C 47.320312 -32.53125 49.332031 -33.179688 50.59375 -34.332031 C 51.785156 -35.414062 52.457031 -36.855469 52.617188 -38.652344 C 52.804688 -40.8125 52.289062 -43.238281 51.066406 -45.921875 L 54.996094 -47.710938 L 53.707031 -43.589844 C 52.363281 -44.011719 50.730469 -44.308594 48.808594 -44.488281 C 46.71875 -44.679688 44.585938 -44.773438 42.417969 -44.773438 C 40.152344 -44.773438 38.054688 -44.75 36.125 -44.699219 C 34.117188 -44.648438 32.535156 -44.621094 31.371094 -44.621094 L 27.058594 -44.621094 L 27.058594 -57.238281 L 47.171875 -57.238281 C 49.617188 -57.238281 51.5625 -57.570312 53.015625 -58.230469 C 54.367188 -58.847656 55.398438 -59.628906 56.109375 -60.574219 C 56.914062 -61.652344 57.480469 -62.8125 57.796875 -64.046875 C 58.160156 -65.464844 58.332031 -66.847656 58.3125 -68.203125 C 58.292969 -69.59375 58.148438 -70.816406 57.875 -71.863281 C 57.644531 -72.746094 57.445312 -73.3125 57.277344 -73.554688 L 60.824219 -76.011719 L 60.5 -71.710938 C 57.839844 -71.910156 54.65625 -72.085938 50.945312 -72.238281 C 47.21875 -72.390625 43.265625 -72.503906 39.078125 -72.582031 C 34.902344 -72.65625 30.742188 -72.667969 26.589844 -72.617188 C 22.429688 -72.566406 18.539062 -72.480469 14.917969 -72.351562 C 11.351562 -72.226562 8.339844 -72.042969 5.875 -71.796875 L 5.445312 -76.089844 L 9.730469 -75.578125 C 9.484375 -73.519531 9.277344 -70.925781 9.101562 -67.796875 C 8.925781 -64.605469 8.773438 -61.132812 8.644531 -57.382812 C 8.519531 -53.617188 8.417969 -49.789062 8.339844 -45.898438 C 8.265625 -42.015625 8.226562 -38.257812 8.226562 -34.632812 C 8.226562 -31 8.25 -27.726562 8.300781 -24.8125 C 8.351562 -21.929688 8.425781 -19.652344 8.527344 -17.972656 Z M 8.527344 -17.972656 "/></g></g></g><g fill="#58675e" fill-opacity="1"><g transform="translate(746.643906, 85.361201)"><g><path d="M 58.261719 -46.851562 C 62.753906 -44.074219 66.113281 -40.796875 68.339844 -37.011719 C 70.570312 -33.226562 71.777344 -29.261719 71.960938 -25.121094 C 72.140625 -21.113281 71.542969 -17.25 70.164062 -13.53125 C 68.792969 -9.835938 66.804688 -6.566406 64.199219 -3.722656 C 61.539062 -0.816406 58.484375 1.34375 55.023438 2.765625 C 52.695312 3.695312 49.910156 4.46875 46.671875 5.082031 C 43.492188 5.6875 40.054688 6.054688 36.363281 6.191406 C 32.640625 6.328125 28.832031 6.136719 24.933594 5.621094 C 20.953125 5.089844 17.109375 4.128906 13.398438 2.734375 C 9.558594 1.289062 6.078125 -0.703125 2.949219 -3.25 L 2.578125 -3.554688 L 2.28125 -3.933594 C 0.308594 -6.449219 -0.867188 -9.199219 -1.25 -12.183594 C -1.617188 -15.0625 -1.328125 -17.835938 -0.386719 -20.503906 C 0.566406 -23.183594 2.054688 -25.46875 4.078125 -27.355469 C 6.226562 -29.363281 8.785156 -30.597656 11.75 -31.070312 C 14.746094 -31.542969 17.90625 -30.96875 21.226562 -29.339844 C 24.523438 -27.714844 27.597656 -26.621094 30.445312 -26.054688 C 33.070312 -25.535156 35.15625 -25.449219 36.710938 -25.800781 C 37.148438 -25.898438 37.429688 -26 37.554688 -26.097656 C 37.445312 -26.011719 37.367188 -25.890625 37.328125 -25.734375 C 37.34375 -25.792969 37.351562 -25.828125 37.351562 -25.84375 C 37.347656 -25.785156 37.359375 -25.71875 37.378906 -25.644531 C 37.417969 -25.492188 37.464844 -25.386719 37.523438 -25.332031 C 37.539062 -25.316406 37.550781 -25.308594 37.558594 -25.300781 C 37.539062 -25.3125 37.515625 -25.328125 37.480469 -25.347656 C 37.34375 -25.421875 37.160156 -25.492188 36.933594 -25.566406 C 36.265625 -25.773438 35.382812 -25.914062 34.285156 -25.992188 C 30.886719 -26.273438 27.503906 -26.851562 24.140625 -27.734375 C 20.648438 -28.652344 17.382812 -29.984375 14.339844 -31.734375 C 11.105469 -33.59375 8.378906 -36.035156 6.152344 -39.050781 C 3.882812 -42.128906 2.382812 -45.796875 1.652344 -50.046875 C 1.386719 -51.722656 1.359375 -53.675781 1.574219 -55.90625 C 1.785156 -58.125 2.320312 -60.449219 3.179688 -62.878906 C 4.066406 -65.378906 5.386719 -67.824219 7.152344 -70.210938 C 8.953125 -72.660156 11.316406 -74.863281 14.234375 -76.828125 C 17.144531 -78.789062 20.671875 -80.316406 24.824219 -81.410156 C 27.632812 -82.199219 30.621094 -82.691406 33.785156 -82.886719 C 36.871094 -83.082031 39.9375 -83.039062 42.996094 -82.765625 C 46.113281 -82.484375 49.03125 -81.945312 51.753906 -81.152344 C 54.621094 -80.316406 57.054688 -79.242188 59.050781 -77.933594 C 62.285156 -75.753906 64.65625 -73.371094 66.164062 -70.78125 C 67.742188 -68.074219 68.511719 -65.335938 68.476562 -62.570312 C 68.441406 -59.898438 67.796875 -57.394531 66.542969 -55.0625 C 65.351562 -52.839844 63.785156 -50.945312 61.855469 -49.382812 C 59.851562 -47.757812 57.632812 -46.667969 55.191406 -46.109375 L 52.578125 -45.511719 L 50.882812 -47.589844 C 50.144531 -48.5 49.0625 -49.3125 47.640625 -50.035156 C 45.976562 -50.875 44.171875 -51.527344 42.230469 -51.984375 C 40.300781 -52.441406 38.488281 -52.660156 36.792969 -52.636719 C 35.398438 -52.621094 34.335938 -52.433594 33.617188 -52.082031 C 33.59375 -52.070312 33.574219 -52.058594 33.5625 -52.050781 C 33.570312 -52.054688 33.578125 -52.0625 33.589844 -52.074219 C 33.660156 -52.128906 33.722656 -52.199219 33.785156 -52.289062 C 33.917969 -52.484375 33.988281 -52.667969 33.996094 -52.835938 L 29.683594 -53 L 34 -53 C 34 -53.304688 33.921875 -53.605469 33.765625 -53.894531 C 33.644531 -54.128906 33.503906 -54.300781 33.347656 -54.421875 C 33.277344 -54.472656 33.226562 -54.503906 33.199219 -54.519531 C 33.273438 -54.484375 33.382812 -54.445312 33.523438 -54.402344 C 33.96875 -54.269531 34.566406 -54.15625 35.308594 -54.058594 C 41.277344 -53.296875 46.21875 -52.148438 50.128906 -50.613281 C 53.960938 -49.109375 56.683594 -47.847656 58.292969 -46.835938 Z M 53.695312 -39.53125 C 52.542969 -40.257812 50.304688 -41.273438 46.976562 -42.582031 C 43.730469 -43.855469 39.464844 -44.828125 34.183594 -45.503906 C 31.492188 -45.855469 29.488281 -46.527344 28.167969 -47.515625 C 27.292969 -48.171875 26.617188 -48.957031 26.136719 -49.863281 C 25.625 -50.832031 25.371094 -51.878906 25.371094 -53 L 25.371094 -53.167969 C 25.429688 -54.664062 25.863281 -56.003906 26.675781 -57.183594 C 27.441406 -58.296875 28.488281 -59.179688 29.816406 -59.828125 C 31.703125 -60.753906 33.992188 -61.234375 36.6875 -61.265625 C 39.085938 -61.296875 41.59375 -61.003906 44.214844 -60.382812 C 46.820312 -59.769531 49.261719 -58.886719 51.539062 -57.734375 C 54.050781 -56.460938 56.0625 -54.894531 57.574219 -53.042969 L 54.230469 -50.316406 L 53.265625 -54.523438 C 54.40625 -54.785156 55.457031 -55.304688 56.421875 -56.085938 C 57.453125 -56.921875 58.296875 -57.945312 58.941406 -59.148438 C 59.527344 -60.242188 59.832031 -61.417969 59.847656 -62.683594 C 59.863281 -63.855469 59.484375 -65.109375 58.707031 -66.441406 C 57.863281 -67.890625 56.398438 -69.316406 54.316406 -70.71875 C 53.039062 -71.554688 51.378906 -72.273438 49.339844 -72.867188 C 47.152344 -73.503906 44.78125 -73.9375 42.222656 -74.167969 C 39.601562 -74.40625 36.96875 -74.441406 34.324219 -74.277344 C 31.765625 -74.117188 29.332031 -73.714844 27.027344 -73.066406 C 23.816406 -72.21875 21.15625 -71.089844 19.054688 -69.671875 C 16.960938 -68.261719 15.308594 -66.734375 14.097656 -65.089844 C 12.839844 -63.390625 11.914062 -61.691406 11.316406 -60 C 10.691406 -58.238281 10.308594 -56.597656 10.164062 -55.082031 C 10.019531 -53.582031 10.019531 -52.390625 10.160156 -51.507812 C 10.65625 -48.597656 11.636719 -46.152344 13.097656 -44.171875 C 14.609375 -42.125 16.457031 -40.472656 18.644531 -39.214844 C 21.019531 -37.847656 23.582031 -36.800781 26.328125 -36.082031 C 29.207031 -35.328125 32.0625 -34.835938 34.898438 -34.601562 C 38.792969 -34.324219 41.652344 -33.316406 43.476562 -31.582031 C 44.605469 -30.503906 45.355469 -29.25 45.730469 -27.816406 C 46.085938 -26.445312 46.066406 -25.007812 45.664062 -23.511719 C 45.214844 -21.820312 44.292969 -20.425781 42.90625 -19.328125 C 41.753906 -18.417969 40.324219 -17.769531 38.613281 -17.382812 C 35.871094 -16.761719 32.589844 -16.832031 28.765625 -17.589844 C 25.175781 -18.300781 21.394531 -19.636719 17.429688 -21.589844 C 15.742188 -22.417969 14.300781 -22.734375 13.101562 -22.546875 C 11.871094 -22.351562 10.824219 -21.851562 9.960938 -21.042969 C 8.964844 -20.117188 8.230469 -18.976562 7.75 -17.621094 C 7.261719 -16.246094 7.117188 -14.800781 7.308594 -13.28125 C 7.492188 -11.867188 8.078125 -10.527344 9.070312 -9.257812 L 5.675781 -6.597656 L 8.402344 -9.941406 C 10.796875 -7.988281 13.476562 -6.457031 16.4375 -5.34375 C 19.53125 -4.179688 22.742188 -3.378906 26.070312 -2.933594 C 29.488281 -2.480469 32.8125 -2.3125 36.046875 -2.433594 C 39.304688 -2.550781 42.3125 -2.875 45.0625 -3.394531 C 47.757812 -3.90625 49.984375 -4.515625 51.746094 -5.21875 C 54.015625 -6.152344 56.042969 -7.59375 57.835938 -9.550781 C 59.679688 -11.5625 61.09375 -13.890625 62.074219 -16.535156 C 63.046875 -19.15625 63.46875 -21.890625 63.339844 -24.734375 C 63.21875 -27.445312 62.40625 -30.078125 60.902344 -32.632812 C 59.398438 -35.191406 57.003906 -37.484375 53.722656 -39.515625 Z M 53.695312 -39.53125 "/></g></g></g><g fill="#58675e" fill-opacity="1"><g transform="translate(818.89188, 85.361201)"><g><path d="M 72.386719 -79.164062 C 73.546875 -77.640625 74.472656 -75.609375 75.15625 -73.070312 C 75.800781 -70.675781 76.089844 -68.109375 76.03125 -65.371094 C 75.96875 -62.488281 75.367188 -59.714844 74.226562 -57.054688 C 72.996094 -54.1875 71.054688 -51.777344 68.402344 -49.832031 C 65.699219 -47.84375 62.210938 -46.726562 57.9375 -46.46875 C 56.613281 -46.417969 55.539062 -46.359375 54.710938 -46.285156 C 53.695312 -46.199219 53.023438 -46.15625 52.695312 -46.15625 L 52.695312 -50.46875 L 57.007812 -50.625 C 57.109375 -47.71875 57.175781 -44.535156 57.203125 -41.066406 C 57.226562 -37.609375 57.214844 -34.050781 57.164062 -30.390625 C 57.109375 -26.714844 57.007812 -23.132812 56.851562 -19.636719 C 56.695312 -16.148438 56.515625 -12.894531 56.308594 -9.867188 C 56.097656 -6.765625 55.828125 -4.113281 55.507812 -1.90625 L 55.320312 -0.625 L 54.457031 0.34375 C 52.648438 2.367188 50.378906 3.804688 47.652344 4.65625 C 45.085938 5.457031 42.378906 5.675781 39.535156 5.316406 C 36.6875 4.957031 33.949219 3.957031 31.316406 2.320312 C 28.707031 0.699219 26.425781 -1.539062 24.476562 -4.390625 C 22.519531 -7.242188 21.15625 -10.757812 20.378906 -14.9375 C 20.144531 -16.171875 19.945312 -18.066406 19.777344 -20.625 C 19.625 -23.035156 19.480469 -25.859375 19.351562 -29.089844 C 19.222656 -32.324219 19.132812 -35.785156 19.078125 -39.480469 C 19.027344 -43.175781 19.027344 -46.886719 19.078125 -50.605469 L 23.394531 -50.546875 L 23.738281 -46.246094 C 21.054688 -46.03125 18.292969 -45.9375 15.453125 -45.964844 C 12.464844 -45.992188 9.585938 -46.289062 6.808594 -46.855469 L 5.21875 -47.179688 L 4.234375 -48.472656 C 2.886719 -50.246094 1.914062 -52.445312 1.316406 -55.074219 C 0.753906 -57.539062 0.597656 -60.121094 0.84375 -62.828125 C 1.09375 -65.585938 1.8125 -68.222656 3.003906 -70.730469 C 4.296875 -73.449219 6.191406 -75.699219 8.6875 -77.488281 C 11.238281 -79.316406 14.378906 -80.363281 18.105469 -80.625 C 19.828125 -80.730469 22.0625 -80.8125 24.808594 -80.863281 C 27.519531 -80.914062 30.539062 -80.941406 33.863281 -80.941406 L 44.027344 -80.941406 L 54.128906 -80.902344 L 62.914062 -80.863281 L 71.09375 -80.863281 Z M 65.523438 -73.933594 L 68.957031 -76.550781 L 68.957031 -72.234375 L 62.878906 -72.234375 L 54.097656 -72.273438 L 44.027344 -72.3125 L 33.863281 -72.3125 C 30.59375 -72.3125 27.628906 -72.285156 24.972656 -72.234375 C 22.351562 -72.183594 20.261719 -72.113281 18.710938 -72.015625 C 16.609375 -71.867188 14.941406 -71.351562 13.710938 -70.472656 C 12.421875 -69.550781 11.453125 -68.402344 10.800781 -67.027344 C 10.050781 -65.445312 9.59375 -63.785156 9.4375 -62.046875 C 9.273438 -60.25 9.371094 -58.566406 9.730469 -56.988281 C 10.050781 -55.578125 10.511719 -54.476562 11.105469 -53.695312 L 7.671875 -51.085938 L 8.53125 -55.3125 C 10.765625 -54.855469 13.101562 -54.617188 15.535156 -54.59375 C 18.117188 -54.570312 20.621094 -54.652344 23.050781 -54.847656 L 27.773438 -55.226562 L 27.707031 -50.488281 C 27.65625 -46.84375 27.65625 -43.214844 27.707031 -39.601562 C 27.757812 -35.980469 27.847656 -32.59375 27.972656 -29.433594 C 28.101562 -26.273438 28.238281 -23.523438 28.390625 -21.179688 C 28.53125 -18.980469 28.691406 -17.421875 28.863281 -16.511719 C 29.417969 -13.53125 30.328125 -11.113281 31.59375 -9.265625 C 32.863281 -7.410156 34.289062 -5.992188 35.875 -5.007812 C 37.4375 -4.035156 39.019531 -3.449219 40.617188 -3.246094 C 42.222656 -3.042969 43.710938 -3.15625 45.082031 -3.582031 C 46.292969 -3.960938 47.269531 -4.566406 48.019531 -5.40625 L 51.238281 -2.53125 L 46.96875 -3.15625 C 47.257812 -5.144531 47.503906 -7.578125 47.699219 -10.457031 C 47.902344 -13.414062 48.078125 -16.601562 48.230469 -20.019531 C 48.382812 -23.425781 48.484375 -26.925781 48.535156 -30.511719 C 48.585938 -34.113281 48.597656 -37.609375 48.570312 -41.003906 C 48.546875 -44.390625 48.484375 -47.492188 48.382812 -50.316406 L 48.222656 -54.785156 L 52.695312 -54.785156 C 52.777344 -54.785156 53.203125 -54.816406 53.976562 -54.882812 C 54.9375 -54.96875 56.085938 -55.035156 57.421875 -55.085938 C 60.003906 -55.238281 61.960938 -55.804688 63.296875 -56.785156 C 64.683594 -57.804688 65.683594 -59.027344 66.292969 -60.453125 C 66.996094 -62.089844 67.363281 -63.792969 67.402344 -65.5625 C 67.445312 -67.476562 67.25 -69.230469 66.820312 -70.824219 C 66.433594 -72.273438 66 -73.308594 65.523438 -73.933594 Z M 65.523438 -73.933594 "/></g></g></g><g fill="#a6ccc5" fill-opacity="1"><g transform="translate(3.68622, 85.361201)"><g><path d="M 51.15625 -0.234375 C 48.445312 -0.078125 45.695312 0.0078125 42.90625 0.03125 C 40.125 0.0625 37.554688 0.0507812 35.203125 0 C 32.847656 -0.0507812 30.953125 -0.101562 29.515625 -0.15625 C 28.085938 -0.207031 27.375 -0.234375 27.375 -0.234375 C 25.382812 -0.234375 23.195312 -0.398438 20.8125 -0.734375 C 18.4375 -1.066406 16.125 -1.796875 13.875 -2.921875 C 11.625 -4.046875 9.664062 -5.71875 8 -7.9375 C 6.34375 -10.164062 5.234375 -13.144531 4.671875 -16.875 C 4.367188 -19.019531 4.085938 -21.726562 3.828125 -25 C 3.578125 -28.269531 3.382812 -31.882812 3.25 -35.84375 C 3.125 -39.8125 3.085938 -43.941406 3.140625 -48.234375 C 3.191406 -52.535156 3.359375 -56.804688 3.640625 -61.046875 C 3.921875 -65.296875 4.367188 -69.3125 4.984375 -73.09375 C 6.421875 -74.375 8.1875 -75.359375 10.28125 -76.046875 C 12.375 -76.734375 14.597656 -77.023438 16.953125 -76.921875 C 19.304688 -76.828125 21.554688 -76.21875 23.703125 -75.09375 C 25.847656 -73.96875 27.6875 -72.253906 29.21875 -69.953125 C 30.75 -67.648438 31.722656 -64.609375 32.140625 -60.828125 C 32.390625 -58.578125 32.566406 -55.976562 32.671875 -53.03125 C 32.773438 -50.09375 32.851562 -47.035156 32.90625 -43.859375 C 32.957031 -40.691406 32.96875 -37.613281 32.9375 -34.625 C 32.914062 -31.632812 32.851562 -28.9375 32.75 -26.53125 C 34.488281 -26.6875 36.609375 -26.773438 39.109375 -26.796875 C 41.617188 -26.828125 44.316406 -26.816406 47.203125 -26.765625 C 50.097656 -26.710938 53.023438 -26.582031 55.984375 -26.375 C 58.953125 -26.175781 61.789062 -25.921875 64.5 -25.609375 C 66.03125 -22.703125 66.71875 -19.789062 66.5625 -16.875 C 66.414062 -13.957031 65.625 -11.269531 64.1875 -8.8125 C 62.757812 -6.363281 60.90625 -4.359375 58.625 -2.796875 C 56.351562 -1.234375 53.863281 -0.378906 51.15625 -0.234375 Z M 51.15625 -0.234375 "/></g></g></g><g fill="#a6ccc5" fill-opacity="1"><g transform="translate(73.096433, 85.361201)"><g><path d="M 78.3125 -26.078125 C 77.75 -21.171875 76.316406 -16.953125 74.015625 -13.421875 C 71.710938 -9.890625 68.847656 -6.972656 65.421875 -4.671875 C 61.992188 -2.378906 58.285156 -0.679688 54.296875 0.421875 C 50.304688 1.523438 46.320312 2.078125 42.34375 2.078125 C 39.113281 2.078125 35.875 1.894531 32.625 1.53125 C 29.382812 1.175781 26.253906 0.460938 23.234375 -0.609375 C 20.222656 -1.679688 17.453125 -3.238281 14.921875 -5.28125 C 12.390625 -7.332031 10.253906 -10.019531 8.515625 -13.34375 C 6.773438 -16.664062 5.570312 -20.804688 4.90625 -25.765625 C 4.238281 -30.421875 3.914062 -35.484375 3.9375 -40.953125 C 3.96875 -46.421875 4.210938 -52.003906 4.671875 -57.703125 C 5.140625 -63.410156 5.726562 -68.898438 6.4375 -74.171875 C 7 -74.785156 8.019531 -75.347656 9.5 -75.859375 C 10.988281 -76.367188 12.742188 -76.75 14.765625 -77 C 16.785156 -77.257812 18.878906 -77.296875 21.046875 -77.109375 C 23.222656 -76.929688 25.269531 -76.457031 27.1875 -75.6875 C 29.101562 -74.925781 30.722656 -73.828125 32.046875 -72.390625 C 33.378906 -70.960938 34.203125 -69.078125 34.515625 -66.734375 C 34.617188 -65.910156 34.679688 -64.332031 34.703125 -62 C 34.734375 -59.675781 34.75 -56.914062 34.75 -53.71875 C 34.75 -50.53125 34.785156 -47.179688 34.859375 -43.671875 C 34.929688 -40.171875 35.054688 -36.835938 35.234375 -33.671875 C 35.421875 -30.503906 35.691406 -27.816406 36.046875 -25.609375 C 36.359375 -23.929688 37.0625 -22.601562 38.15625 -21.625 C 39.257812 -20.65625 40.5 -20.128906 41.875 -20.046875 C 43.257812 -19.972656 44.535156 -20.410156 45.703125 -21.359375 C 46.878906 -22.304688 47.675781 -23.828125 48.09375 -25.921875 C 48.445312 -27.765625 48.765625 -30.164062 49.046875 -33.125 C 49.328125 -36.09375 49.546875 -39.34375 49.703125 -42.875 C 49.859375 -46.40625 49.921875 -49.984375 49.890625 -53.609375 C 49.867188 -57.242188 49.753906 -60.679688 49.546875 -63.921875 C 49.335938 -67.171875 49.003906 -69.945312 48.546875 -72.25 C 49.566406 -73.269531 50.957031 -74.148438 52.71875 -74.890625 C 54.488281 -75.628906 56.472656 -76.140625 58.671875 -76.421875 C 60.867188 -76.703125 63.078125 -76.675781 65.296875 -76.34375 C 67.523438 -76.019531 69.609375 -75.304688 71.546875 -74.203125 C 73.492188 -73.109375 75.117188 -71.535156 76.421875 -69.484375 C 77.734375 -67.441406 78.539062 -64.859375 78.84375 -61.734375 C 79.050781 -59.640625 79.242188 -57.734375 79.421875 -56.015625 C 79.597656 -54.304688 79.722656 -52.570312 79.796875 -50.8125 C 79.878906 -49.050781 79.894531 -47.066406 79.84375 -44.859375 C 79.789062 -42.660156 79.648438 -40.050781 79.421875 -37.03125 C 79.191406 -34.019531 78.820312 -30.367188 78.3125 -26.078125 Z M 78.3125 -26.078125 "/></g></g></g><g fill="#a6ccc5" fill-opacity="1"><g transform="translate(156.925558, 85.361201)"><g><path d="M 50 -43.109375 C 50 -46.578125 50 -49.820312 50 -52.84375 C 50 -55.863281 50 -58.894531 50 -61.9375 C 50 -64.976562 50 -68.265625 50 -71.796875 C 51.894531 -74.035156 54.039062 -75.628906 56.4375 -76.578125 C 58.84375 -77.523438 61.300781 -77.882812 63.8125 -77.65625 C 66.320312 -77.425781 68.625 -76.722656 70.71875 -75.546875 C 72.8125 -74.367188 74.507812 -72.78125 75.8125 -70.78125 C 77.113281 -68.789062 77.765625 -66.492188 77.765625 -63.890625 C 77.765625 -62.359375 77.773438 -60.171875 77.796875 -57.328125 C 77.828125 -54.492188 77.851562 -51.257812 77.875 -47.625 C 77.90625 -44 77.929688 -40.164062 77.953125 -36.125 C 77.984375 -32.082031 77.984375 -28.078125 77.953125 -24.109375 C 77.929688 -20.148438 77.867188 -16.421875 77.765625 -12.921875 C 77.671875 -9.421875 77.519531 -6.367188 77.3125 -3.765625 C 75.675781 -2.117188 73.515625 -0.851562 70.828125 0.03125 C 68.140625 0.925781 65.222656 1.285156 62.078125 1.109375 C 58.941406 0.929688 55.851562 0.0859375 52.8125 -1.421875 C 49.769531 -2.929688 47.070312 -5.296875 44.71875 -8.515625 C 43.644531 -9.992188 42.53125 -11.664062 41.375 -13.53125 C 40.226562 -15.40625 39.128906 -17.273438 38.078125 -19.140625 C 37.035156 -21.003906 36.101562 -22.6875 35.28125 -24.1875 C 34.457031 -25.695312 33.816406 -26.785156 33.359375 -27.453125 C 33.253906 -27.710938 33.113281 -27.941406 32.9375 -28.140625 C 32.757812 -28.347656 32.59375 -28.554688 32.4375 -28.765625 C 32.382812 -28.765625 32.304688 -28.75 32.203125 -28.71875 C 32.109375 -28.695312 32.007812 -28.6875 31.90625 -28.6875 C 31.957031 -26.382812 32.035156 -24.273438 32.140625 -22.359375 C 32.242188 -20.441406 32.34375 -18.546875 32.4375 -16.671875 C 32.539062 -14.804688 32.601562 -12.8125 32.625 -10.6875 C 32.65625 -8.570312 32.644531 -6.132812 32.59375 -3.375 C 30.09375 -1.332031 27.535156 0.0195312 24.921875 0.6875 C 22.316406 1.351562 19.820312 1.492188 17.4375 1.109375 C 15.0625 0.722656 12.925781 -0.0507812 11.03125 -1.21875 C 9.144531 -2.394531 7.640625 -3.816406 6.515625 -5.484375 C 5.390625 -7.148438 4.800781 -8.898438 4.75 -10.734375 C 4.65625 -13.910156 4.566406 -17.398438 4.484375 -21.203125 C 4.410156 -25.015625 4.347656 -28.976562 4.296875 -33.09375 C 4.242188 -37.207031 4.21875 -41.257812 4.21875 -45.25 C 4.21875 -49.238281 4.226562 -53.007812 4.25 -56.5625 C 4.28125 -60.113281 4.347656 -63.257812 4.453125 -66 C 4.554688 -68.738281 4.679688 -70.847656 4.828125 -72.328125 C 6.671875 -73.859375 8.929688 -75.082031 11.609375 -76 C 14.296875 -76.925781 17.109375 -77.347656 20.046875 -77.265625 C 22.992188 -77.191406 25.804688 -76.4375 28.484375 -75 C 31.171875 -73.570312 33.4375 -71.328125 35.28125 -68.265625 C 36.613281 -66.015625 37.800781 -63.96875 38.84375 -62.125 C 39.894531 -60.28125 40.914062 -58.476562 41.90625 -56.71875 C 42.90625 -54.957031 43.941406 -53.113281 45.015625 -51.1875 C 46.085938 -49.269531 47.316406 -47.085938 48.703125 -44.640625 C 48.859375 -44.328125 49.023438 -44.03125 49.203125 -43.75 C 49.378906 -43.46875 49.546875 -43.203125 49.703125 -42.953125 C 49.753906 -43.003906 49.804688 -43.03125 49.859375 -43.03125 C 49.910156 -43.03125 49.957031 -43.054688 50 -43.109375 Z M 50 -43.109375 "/></g></g></g><g fill="#a6ccc5" fill-opacity="1"><g transform="translate(239.680928, 85.361201)"><g><path d="M 1.15625 -23.15625 C 1.769531 -26.226562 2.570312 -29.664062 3.5625 -33.46875 C 4.5625 -37.28125 5.6875 -41.191406 6.9375 -45.203125 C 8.1875 -49.222656 9.460938 -53.113281 10.765625 -56.875 C 12.078125 -60.632812 13.359375 -64.070312 14.609375 -67.1875 C 15.859375 -70.300781 16.972656 -72.804688 17.953125 -74.703125 C 20.046875 -75.421875 22.546875 -76.085938 25.453125 -76.703125 C 28.367188 -77.316406 31.460938 -77.660156 34.734375 -77.734375 C 38.015625 -77.804688 41.265625 -77.382812 44.484375 -76.46875 C 47.703125 -75.550781 50.664062 -73.914062 53.375 -71.5625 C 56.09375 -69.207031 58.316406 -65.910156 60.046875 -61.671875 C 60.867188 -59.617188 61.816406 -56.992188 62.890625 -53.796875 C 63.960938 -50.609375 65.085938 -47.070312 66.265625 -43.1875 C 67.441406 -39.300781 68.59375 -35.296875 69.71875 -31.171875 C 70.84375 -27.054688 71.878906 -23.039062 72.828125 -19.125 C 73.773438 -15.21875 74.53125 -11.65625 75.09375 -8.4375 C 74.9375 -7.050781 74.21875 -5.679688 72.9375 -4.328125 C 71.65625 -2.972656 70.03125 -1.820312 68.0625 -0.875 C 66.09375 0.0625 63.972656 0.679688 61.703125 0.984375 C 59.429688 1.296875 57.171875 1.117188 54.921875 0.453125 C 52.671875 -0.203125 50.632812 -1.5 48.8125 -3.4375 C 47 -5.382812 45.582031 -8.097656 44.5625 -11.578125 C 42.15625 -11.679688 39.648438 -11.707031 37.046875 -11.65625 C 34.441406 -11.601562 31.910156 -11.601562 29.453125 -11.65625 C 28.785156 -10.070312 28.15625 -8.332031 27.5625 -6.4375 C 26.976562 -4.550781 26.40625 -2.609375 25.84375 -0.609375 C 21.144531 1.128906 17.054688 1.753906 13.578125 1.265625 C 10.097656 0.773438 7.296875 -0.566406 5.171875 -2.765625 C 3.054688 -4.960938 1.648438 -7.820312 0.953125 -11.34375 C 0.265625 -14.875 0.332031 -18.8125 1.15625 -23.15625 Z M 32.4375 -33.59375 C 34.070312 -33.59375 35.65625 -33.59375 37.1875 -33.59375 C 38.726562 -33.59375 40.289062 -33.59375 41.875 -33.59375 C 41.15625 -36.707031 40.410156 -39.785156 39.640625 -42.828125 C 38.878906 -45.878906 38.140625 -48.9375 37.421875 -52 C 37.273438 -51.945312 37.046875 -51.921875 36.734375 -51.921875 C 36.066406 -48.910156 35.363281 -45.894531 34.625 -42.875 C 33.882812 -39.851562 33.15625 -36.757812 32.4375 -33.59375 Z M 32.4375 -33.59375 "/></g></g></g><g fill="#a6ccc5" fill-opacity="1"><g transform="translate(315.84042, 85.361201)"><g><path d="M 59.90625 -28.53125 C 60.820312 -27.707031 61.914062 -26.441406 63.1875 -24.734375 C 64.46875 -23.023438 65.773438 -21.160156 67.109375 -19.140625 C 68.441406 -17.117188 69.644531 -15.1875 70.71875 -13.34375 C 71.789062 -11.5 72.53125 -9.988281 72.9375 -8.8125 C 72.425781 -6.15625 71.378906 -3.957031 69.796875 -2.21875 C 68.210938 -0.476562 66.296875 0.734375 64.046875 1.421875 C 61.796875 2.109375 59.414062 2.25 56.90625 1.84375 C 54.40625 1.4375 51.953125 0.414062 49.546875 -1.21875 C 47.140625 -2.863281 45.039062 -5.164062 43.25 -8.125 C 42.644531 -9.144531 41.941406 -10.253906 41.140625 -11.453125 C 40.347656 -12.660156 39.425781 -14.09375 38.375 -15.75 C 37.332031 -17.414062 36.019531 -19.476562 34.4375 -21.9375 C 34.226562 -22.238281 34.019531 -22.539062 33.8125 -22.84375 C 33.613281 -23.15625 33.410156 -23.441406 33.203125 -23.703125 C 33.003906 -23.597656 32.828125 -23.546875 32.671875 -23.546875 C 32.671875 -22.878906 32.65625 -22.148438 32.625 -21.359375 C 32.601562 -20.566406 32.566406 -19.757812 32.515625 -18.9375 C 32.367188 -15.820312 32.175781 -12.703125 31.9375 -9.578125 C 31.707031 -6.460938 31.46875 -3.960938 31.21875 -2.078125 C 29.9375 -0.691406 28.3125 0.304688 26.34375 0.921875 C 24.375 1.535156 22.273438 1.703125 20.046875 1.421875 C 17.828125 1.140625 15.671875 0.375 13.578125 -0.875 C 11.484375 -2.132812 9.640625 -3.910156 8.046875 -6.203125 C 6.460938 -8.503906 5.335938 -11.394531 4.671875 -14.875 C 4.472656 -15.851562 4.296875 -17.441406 4.140625 -19.640625 C 3.984375 -21.835938 3.84375 -24.441406 3.71875 -27.453125 C 3.59375 -30.472656 3.503906 -33.695312 3.453125 -37.125 C 3.398438 -40.550781 3.382812 -44 3.40625 -47.46875 C 3.4375 -50.945312 3.503906 -54.257812 3.609375 -57.40625 C 3.710938 -60.550781 3.878906 -63.347656 4.109375 -65.796875 C 4.335938 -68.253906 4.628906 -70.148438 4.984375 -71.484375 C 6.109375 -72.554688 7.859375 -73.566406 10.234375 -74.515625 C 12.617188 -75.460938 15.40625 -76.253906 18.59375 -76.890625 C 21.789062 -77.523438 25.21875 -77.96875 28.875 -78.21875 C 32.53125 -78.476562 36.210938 -78.46875 39.921875 -78.1875 C 43.628906 -77.90625 47.15625 -77.304688 50.5 -76.390625 C 53.851562 -75.472656 56.804688 -74.144531 59.359375 -72.40625 C 61.816406 -70.769531 64.003906 -68.660156 65.921875 -66.078125 C 67.835938 -63.492188 69.332031 -60.628906 70.40625 -57.484375 C 71.476562 -54.335938 71.953125 -51.101562 71.828125 -47.78125 C 71.703125 -44.457031 70.820312 -41.222656 69.1875 -38.078125 C 67.550781 -34.929688 64.992188 -32.082031 61.515625 -29.53125 C 61.148438 -29.21875 60.613281 -28.882812 59.90625 -28.53125 Z M 43.953125 -48.171875 C 43.953125 -49.390625 43.515625 -50.445312 42.640625 -51.34375 C 41.773438 -52.238281 40.585938 -52.789062 39.078125 -53 C 37.566406 -53.207031 35.84375 -52.847656 33.90625 -51.921875 C 33.90625 -50.335938 33.890625 -49.082031 33.859375 -48.15625 C 33.835938 -47.238281 33.851562 -46.117188 33.90625 -44.796875 C 33.90625 -44.640625 34.019531 -44.445312 34.25 -44.21875 C 34.476562 -43.988281 34.671875 -43.875 34.828125 -43.875 C 35.796875 -43.875 36.75 -43.875 37.6875 -43.875 C 38.632812 -43.875 39.570312 -43.972656 40.5 -44.171875 C 42.800781 -44.535156 43.953125 -45.867188 43.953125 -48.171875 Z M 43.953125 -48.171875 "/></g></g></g><g fill="#a6ccc5" fill-opacity="1"><g transform="translate(392.306689, 85.361201)"><g><path d="M 1.15625 -23.15625 C 1.769531 -26.226562 2.570312 -29.664062 3.5625 -33.46875 C 4.5625 -37.28125 5.6875 -41.191406 6.9375 -45.203125 C 8.1875 -49.222656 9.460938 -53.113281 10.765625 -56.875 C 12.078125 -60.632812 13.359375 -64.070312 14.609375 -67.1875 C 15.859375 -70.300781 16.972656 -72.804688 17.953125 -74.703125 C 20.046875 -75.421875 22.546875 -76.085938 25.453125 -76.703125 C 28.367188 -77.316406 31.460938 -77.660156 34.734375 -77.734375 C 38.015625 -77.804688 41.265625 -77.382812 44.484375 -76.46875 C 47.703125 -75.550781 50.664062 -73.914062 53.375 -71.5625 C 56.09375 -69.207031 58.316406 -65.910156 60.046875 -61.671875 C 60.867188 -59.617188 61.816406 -56.992188 62.890625 -53.796875 C 63.960938 -50.609375 65.085938 -47.070312 66.265625 -43.1875 C 67.441406 -39.300781 68.59375 -35.296875 69.71875 -31.171875 C 70.84375 -27.054688 71.878906 -23.039062 72.828125 -19.125 C 73.773438 -15.21875 74.53125 -11.65625 75.09375 -8.4375 C 74.9375 -7.050781 74.21875 -5.679688 72.9375 -4.328125 C 71.65625 -2.972656 70.03125 -1.820312 68.0625 -0.875 C 66.09375 0.0625 63.972656 0.679688 61.703125 0.984375 C 59.429688 1.296875 57.171875 1.117188 54.921875 0.453125 C 52.671875 -0.203125 50.632812 -1.5 48.8125 -3.4375 C 47 -5.382812 45.582031 -8.097656 44.5625 -11.578125 C 42.15625 -11.679688 39.648438 -11.707031 37.046875 -11.65625 C 34.441406 -11.601562 31.910156 -11.601562 29.453125 -11.65625 C 28.785156 -10.070312 28.15625 -8.332031 27.5625 -6.4375 C 26.976562 -4.550781 26.40625 -2.609375 25.84375 -0.609375 C 21.144531 1.128906 17.054688 1.753906 13.578125 1.265625 C 10.097656 0.773438 7.296875 -0.566406 5.171875 -2.765625 C 3.054688 -4.960938 1.648438 -7.820312 0.953125 -11.34375 C 0.265625 -14.875 0.332031 -18.8125 1.15625 -23.15625 Z M 32.4375 -33.59375 C 34.070312 -33.59375 35.65625 -33.59375 37.1875 -33.59375 C 38.726562 -33.59375 40.289062 -33.59375 41.875 -33.59375 C 41.15625 -36.707031 40.410156 -39.785156 39.640625 -42.828125 C 38.878906 -45.878906 38.140625 -48.9375 37.421875 -52 C 37.273438 -51.945312 37.046875 -51.921875 36.734375 -51.921875 C 36.066406 -48.910156 35.363281 -45.894531 34.625 -42.875 C 33.882812 -39.851562 33.15625 -36.757812 32.4375 -33.59375 Z M 32.4375 -33.59375 "/></g></g></g><g fill="#a6ccc5" fill-opacity="1"><g transform="translate(468.466205, 85.361201)"><g/></g></g><g fill="#a6ccc5" fill-opacity="1"><g transform="translate(507.121139, 85.361201)"><g><path d="M 86.359375 -11.65625 C 87.234375 -10.53125 87.644531 -9.0625 87.59375 -7.25 C 87.539062 -5.4375 87.117188 -3.546875 86.328125 -1.578125 C 85.535156 0.390625 84.445312 2.226562 83.0625 3.9375 C 81.6875 5.65625 80.078125 7.035156 78.234375 8.078125 C 76.390625 9.128906 74.421875 9.582031 72.328125 9.4375 C 69.160156 9.175781 66.257812 8.253906 63.625 6.671875 C 60.988281 5.085938 58.46875 2.96875 56.0625 0.3125 C 55.914062 0.363281 55.773438 0.390625 55.640625 0.390625 C 55.515625 0.390625 55.398438 0.410156 55.296875 0.453125 C 49.722656 1.785156 44.25 2.207031 38.875 1.71875 C 33.507812 1.238281 28.269531 -0.328125 23.15625 -2.984375 C 18.300781 -5.492188 14.425781 -8.753906 11.53125 -12.765625 C 8.644531 -16.785156 6.617188 -21.425781 5.453125 -26.6875 C 4.328125 -31.644531 3.835938 -36.566406 3.984375 -41.453125 C 4.140625 -46.335938 5.265625 -51.132812 7.359375 -55.84375 C 8.585938 -58.550781 10.160156 -61.207031 12.078125 -63.8125 C 13.992188 -66.414062 16.382812 -68.78125 19.25 -70.90625 C 22.113281 -73.03125 25.539062 -74.753906 29.53125 -76.078125 C 33.519531 -77.410156 38.171875 -78.128906 43.484375 -78.234375 C 47.316406 -78.335938 50.71875 -78.082031 53.6875 -77.46875 C 56.65625 -76.851562 59.40625 -75.894531 61.9375 -74.59375 C 64.46875 -73.289062 66.984375 -71.640625 69.484375 -69.640625 C 74.597656 -65.648438 78.304688 -60.585938 80.609375 -54.453125 C 82.398438 -49.546875 83.472656 -44.597656 83.828125 -39.609375 C 84.191406 -34.628906 83.578125 -29.609375 81.984375 -24.546875 C 81.367188 -22.597656 80.648438 -20.742188 79.828125 -18.984375 C 79.015625 -17.222656 78.097656 -15.570312 77.078125 -14.03125 C 78.410156 -13.570312 79.851562 -13.140625 81.40625 -12.734375 C 82.96875 -12.328125 84.617188 -11.96875 86.359375 -11.65625 Z M 33.75 -36.8125 C 33.945312 -33.84375 34.617188 -31.488281 35.765625 -29.75 C 36.921875 -28.019531 38.28125 -26.78125 39.84375 -26.03125 C 41.40625 -25.289062 42.847656 -24.972656 44.171875 -25.078125 C 45.554688 -25.179688 46.953125 -25.628906 48.359375 -26.421875 C 49.765625 -27.210938 50.960938 -28.476562 51.953125 -30.21875 C 52.953125 -31.957031 53.53125 -34.257812 53.6875 -37.125 C 53.894531 -40.039062 53.550781 -42.503906 52.65625 -44.515625 C 51.757812 -46.535156 50.53125 -48.082031 48.96875 -49.15625 C 47.40625 -50.238281 45.707031 -50.78125 43.875 -50.78125 C 41.976562 -50.78125 40.222656 -50.253906 38.609375 -49.203125 C 37.003906 -48.148438 35.738281 -46.585938 34.8125 -44.515625 C 33.894531 -42.453125 33.539062 -39.882812 33.75 -36.8125 Z M 33.75 -36.8125 "/></g></g></g><g fill="#a6ccc5" fill-opacity="1"><g transform="translate(598.236415, 85.361201)"><g><path d="M 78.3125 -26.078125 C 77.75 -21.171875 76.316406 -16.953125 74.015625 -13.421875 C 71.710938 -9.890625 68.847656 -6.972656 65.421875 -4.671875 C 61.992188 -2.378906 58.285156 -0.679688 54.296875 0.421875 C 50.304688 1.523438 46.320312 2.078125 42.34375 2.078125 C 39.113281 2.078125 35.875 1.894531 32.625 1.53125 C 29.382812 1.175781 26.253906 0.460938 23.234375 -0.609375 C 20.222656 -1.679688 17.453125 -3.238281 14.921875 -5.28125 C 12.390625 -7.332031 10.253906 -10.019531 8.515625 -13.34375 C 6.773438 -16.664062 5.570312 -20.804688 4.90625 -25.765625 C 4.238281 -30.421875 3.914062 -35.484375 3.9375 -40.953125 C 3.96875 -46.421875 4.210938 -52.003906 4.671875 -57.703125 C 5.140625 -63.410156 5.726562 -68.898438 6.4375 -74.171875 C 7 -74.785156 8.019531 -75.347656 9.5 -75.859375 C 10.988281 -76.367188 12.742188 -76.75 14.765625 -77 C 16.785156 -77.257812 18.878906 -77.296875 21.046875 -77.109375 C 23.222656 -76.929688 25.269531 -76.457031 27.1875 -75.6875 C 29.101562 -74.925781 30.722656 -73.828125 32.046875 -72.390625 C 33.378906 -70.960938 34.203125 -69.078125 34.515625 -66.734375 C 34.617188 -65.910156 34.679688 -64.332031 34.703125 -62 C 34.734375 -59.675781 34.75 -56.914062 34.75 -53.71875 C 34.75 -50.53125 34.785156 -47.179688 34.859375 -43.671875 C 34.929688 -40.171875 35.054688 -36.835938 35.234375 -33.671875 C 35.421875 -30.503906 35.691406 -27.816406 36.046875 -25.609375 C 36.359375 -23.929688 37.0625 -22.601562 38.15625 -21.625 C 39.257812 -20.65625 40.5 -20.128906 41.875 -20.046875 C 43.257812 -19.972656 44.535156 -20.410156 45.703125 -21.359375 C 46.878906 -22.304688 47.675781 -23.828125 48.09375 -25.921875 C 48.445312 -27.765625 48.765625 -30.164062 49.046875 -33.125 C 49.328125 -36.09375 49.546875 -39.34375 49.703125 -42.875 C 49.859375 -46.40625 49.921875 -49.984375 49.890625 -53.609375 C 49.867188 -57.242188 49.753906 -60.679688 49.546875 -63.921875 C 49.335938 -67.171875 49.003906 -69.945312 48.546875 -72.25 C 49.566406 -73.269531 50.957031 -74.148438 52.71875 -74.890625 C 54.488281 -75.628906 56.472656 -76.140625 58.671875 -76.421875 C 60.867188 -76.703125 63.078125 -76.675781 65.296875 -76.34375 C 67.523438 -76.019531 69.609375 -75.304688 71.546875 -74.203125 C 73.492188 -73.109375 75.117188 -71.535156 76.421875 -69.484375 C 77.734375 -67.441406 78.539062 -64.859375 78.84375 -61.734375 C 79.050781 -59.640625 79.242188 -57.734375 79.421875 -56.015625 C 79.597656 -54.304688 79.722656 -52.570312 79.796875 -50.8125 C 79.878906 -49.050781 79.894531 -47.066406 79.84375 -44.859375 C 79.789062 -42.660156 79.648438 -40.050781 79.421875 -37.03125 C 79.191406 -34.019531 78.820312 -30.367188 78.3125 -26.078125 Z M 78.3125 -26.078125 "/></g></g></g><g fill="#a6ccc5" fill-opacity="1"><g transform="translate(682.065553, 85.361201)"><g><path d="M 4.21875 -17.71875 C 4.113281 -19.457031 4.035156 -21.796875 3.984375 -24.734375 C 3.929688 -27.671875 3.90625 -30.96875 3.90625 -34.625 C 3.90625 -38.28125 3.941406 -42.0625 4.015625 -45.96875 C 4.097656 -49.882812 4.203125 -53.734375 4.328125 -57.515625 C 4.460938 -61.304688 4.617188 -64.8125 4.796875 -68.03125 C 4.972656 -71.25 5.191406 -73.929688 5.453125 -76.078125 C 8.003906 -76.335938 11.109375 -76.53125 14.765625 -76.65625 C 18.421875 -76.78125 22.34375 -76.867188 26.53125 -76.921875 C 30.726562 -76.972656 34.9375 -76.960938 39.15625 -76.890625 C 43.375 -76.816406 47.359375 -76.703125 51.109375 -76.546875 C 54.867188 -76.390625 58.109375 -76.207031 60.828125 -76 C 61.285156 -75.34375 61.691406 -74.320312 62.046875 -72.9375 C 62.398438 -71.5625 62.585938 -70.003906 62.609375 -68.265625 C 62.640625 -66.523438 62.425781 -64.757812 61.96875 -62.96875 C 61.507812 -61.175781 60.703125 -59.515625 59.546875 -57.984375 C 58.398438 -56.453125 56.816406 -55.222656 54.796875 -54.296875 C 52.773438 -53.378906 50.234375 -52.921875 47.171875 -52.921875 C 46.148438 -52.921875 45.203125 -52.921875 44.328125 -52.921875 C 43.460938 -52.921875 42.492188 -52.921875 41.421875 -52.921875 C 40.347656 -52.921875 39.015625 -52.921875 37.421875 -52.921875 C 35.835938 -52.921875 33.820312 -52.921875 31.375 -52.921875 C 31.375 -52.304688 31.375 -51.675781 31.375 -51.03125 C 31.375 -50.394531 31.375 -49.695312 31.375 -48.9375 C 32.5 -48.9375 34.046875 -48.960938 36.015625 -49.015625 C 37.984375 -49.066406 40.113281 -49.09375 42.40625 -49.09375 C 44.707031 -49.09375 46.96875 -48.988281 49.1875 -48.78125 C 51.414062 -48.570312 53.351562 -48.210938 55 -47.703125 C 56.53125 -44.328125 57.164062 -41.179688 56.90625 -38.265625 C 56.65625 -35.359375 55.519531 -32.984375 53.5 -31.140625 C 51.476562 -29.296875 48.578125 -28.273438 44.796875 -28.078125 C 43.515625 -28.023438 42.3125 -28 41.1875 -28 C 40.0625 -28 38.753906 -28.007812 37.265625 -28.03125 C 35.785156 -28.0625 33.847656 -28.078125 31.453125 -28.078125 C 31.453125 -27.253906 31.453125 -26.472656 31.453125 -25.734375 C 31.453125 -24.992188 31.453125 -24.210938 31.453125 -23.390625 C 31.703125 -23.390625 31.976562 -23.390625 32.28125 -23.390625 C 32.59375 -23.390625 32.898438 -23.390625 33.203125 -23.390625 C 37.296875 -23.390625 41.398438 -23.390625 45.515625 -23.390625 C 49.628906 -23.390625 53.734375 -23.390625 57.828125 -23.390625 C 59.304688 -21.347656 60.25 -19.085938 60.65625 -16.609375 C 61.070312 -14.128906 60.894531 -11.710938 60.125 -9.359375 C 59.363281 -7.003906 57.90625 -4.96875 55.75 -3.25 C 53.601562 -1.539062 50.71875 -0.457031 47.09375 0 C 45.8125 0.15625 44.082031 0.296875 41.90625 0.421875 C 39.738281 0.546875 37.347656 0.617188 34.734375 0.640625 C 32.128906 0.671875 29.535156 0.660156 26.953125 0.609375 C 24.378906 0.554688 22.054688 0.453125 19.984375 0.296875 C 17.910156 0.148438 16.3125 -0.0507812 15.1875 -0.3125 C 11.601562 -1.226562 8.953125 -3.050781 7.234375 -5.78125 C 5.523438 -8.519531 4.519531 -12.5 4.21875 -17.71875 Z M 4.21875 -17.71875 "/></g></g></g><g fill="#a6ccc5" fill-opacity="1"><g transform="translate(746.643906, 85.361201)"><g><path d="M 55.984375 -43.1875 C 59.867188 -40.78125 62.742188 -37.988281 64.609375 -34.8125 C 66.484375 -31.644531 67.492188 -28.347656 67.640625 -24.921875 C 67.796875 -21.492188 67.285156 -18.195312 66.109375 -15.03125 C 64.929688 -11.863281 63.226562 -9.0625 61 -6.625 C 58.78125 -4.195312 56.238281 -2.398438 53.375 -1.234375 C 51.332031 -0.410156 48.828125 0.28125 45.859375 0.84375 C 42.898438 1.40625 39.679688 1.75 36.203125 1.875 C 32.722656 2.007812 29.15625 1.832031 25.5 1.34375 C 21.84375 0.851562 18.3125 -0.0234375 14.90625 -1.296875 C 11.507812 -2.578125 8.429688 -4.34375 5.671875 -6.59375 C 4.191406 -8.488281 3.3125 -10.535156 3.03125 -12.734375 C 2.75 -14.929688 2.960938 -17.039062 3.671875 -19.0625 C 4.390625 -21.082031 5.503906 -22.796875 7.015625 -24.203125 C 8.523438 -25.609375 10.328125 -26.472656 12.421875 -26.796875 C 14.515625 -27.128906 16.816406 -26.6875 19.328125 -25.46875 C 22.953125 -23.675781 26.375 -22.457031 29.59375 -21.8125 C 32.820312 -21.175781 35.507812 -21.097656 37.65625 -21.578125 C 39.800781 -22.066406 41.082031 -23.082031 41.5 -24.625 C 41.90625 -26.15625 41.570312 -27.429688 40.5 -28.453125 C 39.425781 -29.472656 37.457031 -30.085938 34.59375 -30.296875 C 31.46875 -30.546875 28.347656 -31.082031 25.234375 -31.90625 C 22.117188 -32.726562 19.203125 -33.914062 16.484375 -35.46875 C 13.773438 -37.03125 11.488281 -39.078125 9.625 -41.609375 C 7.757812 -44.140625 6.519531 -47.195312 5.90625 -50.78125 C 5.695312 -52.050781 5.679688 -53.617188 5.859375 -55.484375 C 6.046875 -57.359375 6.507812 -59.34375 7.25 -61.4375 C 7.988281 -63.53125 9.113281 -65.597656 10.625 -67.640625 C 12.132812 -69.691406 14.140625 -71.5625 16.640625 -73.25 C 19.148438 -74.9375 22.242188 -76.265625 25.921875 -77.234375 C 28.484375 -77.953125 31.191406 -78.398438 34.046875 -78.578125 C 36.910156 -78.753906 39.757812 -78.710938 42.59375 -78.453125 C 45.4375 -78.203125 48.082031 -77.71875 50.53125 -77 C 52.988281 -76.289062 55.039062 -75.394531 56.6875 -74.3125 C 59.34375 -72.53125 61.257812 -70.628906 62.4375 -68.609375 C 63.613281 -66.585938 64.1875 -64.59375 64.15625 -62.625 C 64.132812 -60.65625 63.660156 -58.8125 62.734375 -57.09375 C 61.816406 -55.382812 60.613281 -53.925781 59.125 -52.71875 C 57.644531 -51.519531 56.007812 -50.71875 54.21875 -50.3125 C 53.09375 -51.695312 51.546875 -52.882812 49.578125 -53.875 C 47.609375 -54.875 45.488281 -55.640625 43.21875 -56.171875 C 40.945312 -56.710938 38.785156 -56.96875 36.734375 -56.9375 C 34.691406 -56.914062 33.019531 -56.585938 31.71875 -55.953125 C 30.414062 -55.316406 29.738281 -54.332031 29.6875 -53 C 29.6875 -52.175781 30.039062 -51.492188 30.75 -50.953125 C 31.46875 -50.421875 32.800781 -50.03125 34.75 -49.78125 C 40.375 -49.0625 44.972656 -48 48.546875 -46.59375 C 52.128906 -45.1875 54.609375 -44.050781 55.984375 -43.1875 Z M 55.984375 -43.1875 "/></g></g></g><g fill="#a6ccc5" fill-opacity="1"><g transform="translate(818.89188, 85.361201)"><g><path d="M 68.953125 -76.546875 C 69.765625 -75.472656 70.441406 -73.9375 70.984375 -71.9375 C 71.523438 -69.945312 71.769531 -67.785156 71.71875 -65.453125 C 71.664062 -63.128906 71.175781 -60.894531 70.25 -58.75 C 69.332031 -56.601562 67.863281 -54.785156 65.84375 -53.296875 C 63.820312 -51.816406 61.097656 -50.976562 57.671875 -50.78125 C 56.347656 -50.726562 55.238281 -50.660156 54.34375 -50.578125 C 53.445312 -50.503906 52.894531 -50.46875 52.6875 -50.46875 C 52.789062 -47.601562 52.851562 -44.457031 52.875 -41.03125 C 52.90625 -37.601562 52.894531 -34.070312 52.84375 -30.4375 C 52.789062 -26.8125 52.6875 -23.273438 52.53125 -19.828125 C 52.382812 -16.378906 52.207031 -13.15625 52 -10.15625 C 51.789062 -7.164062 51.535156 -4.625 51.234375 -2.53125 C 49.953125 -1.101562 48.328125 -0.0820312 46.359375 0.53125 C 44.390625 1.144531 42.289062 1.3125 40.0625 1.03125 C 37.84375 0.75 35.6875 -0.0390625 33.59375 -1.34375 C 31.5 -2.644531 29.644531 -4.472656 28.03125 -6.828125 C 26.414062 -9.179688 25.28125 -12.144531 24.625 -15.71875 C 24.414062 -16.789062 24.234375 -18.515625 24.078125 -20.890625 C 23.929688 -23.273438 23.789062 -26.0625 23.65625 -29.25 C 23.53125 -32.445312 23.441406 -35.875 23.390625 -39.53125 C 23.335938 -43.1875 23.335938 -46.859375 23.390625 -50.546875 C 20.835938 -50.335938 18.203125 -50.242188 15.484375 -50.265625 C 12.773438 -50.296875 10.171875 -50.566406 7.671875 -51.078125 C 6.703125 -52.359375 5.984375 -54.007812 5.515625 -56.03125 C 5.054688 -58.050781 4.929688 -60.1875 5.140625 -62.4375 C 5.347656 -64.6875 5.9375 -66.832031 6.90625 -68.875 C 7.875 -70.914062 9.300781 -72.613281 11.1875 -73.96875 C 13.082031 -75.320312 15.488281 -76.101562 18.40625 -76.3125 C 20.039062 -76.414062 22.203125 -76.492188 24.890625 -76.546875 C 27.578125 -76.597656 30.566406 -76.625 33.859375 -76.625 C 37.160156 -76.625 40.546875 -76.625 44.015625 -76.625 C 47.492188 -76.625 50.859375 -76.609375 54.109375 -76.578125 C 57.359375 -76.554688 60.285156 -76.546875 62.890625 -76.546875 C 65.492188 -76.546875 67.515625 -76.546875 68.953125 -76.546875 Z M 68.953125 -76.546875 "/></g></g></g></g></g></svg>